<svg xmlns="http://www.w3.org/2000/svg" width="489.67" height="350.5" viewBox="0 0 489.67 350.5">
  <defs>
    <style>
      .cls-1 {
        fill: #fff;
      }

      .cls-2 {
        fill: #0050af;
      }

      .cls-2, .cls-3, .cls-4, .cls-5, .cls-6, .cls-7 {
        stroke: #fff;
      }

      .cls-2, .cls-3, .cls-4, .cls-5, .cls-6 {
        stroke-linecap: round;
        stroke-linejoin: round;
        stroke-width: 2px;
      }

      .cls-3 {
        fill: #1868b7;
      }

      .cls-4 {
        fill: #257bc1;
      }

      .cls-5 {
        fill: #338ecc;
      }

      .cls-6 {
        fill: #4baae0;
      }

      .cls-7 {
        fill: none;
        stroke-miterlimit: 10;
      }
    </style>
  </defs>
  <title>2017-organisations</title>
  <g id="Layer_2" data-name="Layer 2">
    <g id="Layer_1-2" data-name="Layer 1">
      <g>
        <g>
          <path class="cls-1" d="M432.56,248.09v14.76h-1a.82.82,0,0,1-.4-.09.94.94,0,0,1-.31-.27l-8.54-11.13,0,.51c0,.16,0,.31,0,.46v10.52H420.6V248.09h1.26l.16.05a.72.72,0,0,1,.15.11,1.38,1.38,0,0,1,.15.17l8.54,11.11c0-.18,0-.35,0-.52s0-.33,0-.48V248.09Z"/>
          <path class="cls-1" d="M448.29,248.09v14.76h-1a.82.82,0,0,1-.4-.09.94.94,0,0,1-.31-.27L438,251.36l0,.51c0,.16,0,.31,0,.46v10.52h-1.75V248.09h1.26l.16.05a.72.72,0,0,1,.15.11,1.38,1.38,0,0,1,.15.17l8.54,11.11c0-.18,0-.35,0-.52s0-.33,0-.48V248.09Z"/>
          <path class="cls-1" d="M464.05,255.75v5.67a8.25,8.25,0,0,1-2.37,1.19,9.09,9.09,0,0,1-2.77.4,8.79,8.79,0,0,1-3.21-.55,7.05,7.05,0,0,1-2.45-1.54,6.7,6.7,0,0,1-1.56-2.39,8.2,8.2,0,0,1-.55-3.06,8.66,8.66,0,0,1,.53-3.08,6.87,6.87,0,0,1,1.51-2.38,6.57,6.57,0,0,1,2.38-1.54,8.47,8.47,0,0,1,3.13-.55,9.21,9.21,0,0,1,1.63.13,7.83,7.83,0,0,1,1.39.37,6.6,6.6,0,0,1,1.19.59,7.65,7.65,0,0,1,1,.78l-.57.9a.56.56,0,0,1-.35.26.58.58,0,0,1-.46-.09l-.57-.35a4.68,4.68,0,0,0-.78-.4,5.15,5.15,0,0,0-1.08-.32,7.09,7.09,0,0,0-1.48-.14,6,6,0,0,0-2.25.41,4.71,4.71,0,0,0-1.72,1.16,5.22,5.22,0,0,0-1.1,1.84,7.25,7.25,0,0,0-.38,2.41,7.15,7.15,0,0,0,.4,2.49,5.14,5.14,0,0,0,1.13,1.86A4.76,4.76,0,0,0,456.5,261a6.53,6.53,0,0,0,2.36.4,6.45,6.45,0,0,0,1.83-.23,8,8,0,0,0,1.56-.64v-3.25H460a.39.39,0,0,1-.31-.11.36.36,0,0,1-.12-.28v-1.13Z"/>
          <path class="cls-1" d="M480.75,255.47a8.57,8.57,0,0,1-.53,3,7,7,0,0,1-1.48,2.38,6.67,6.67,0,0,1-2.3,1.55,8.29,8.29,0,0,1-5.94,0,6.67,6.67,0,0,1-2.3-1.55,7,7,0,0,1-1.48-2.38,9,9,0,0,1,0-6.09A6.94,6.94,0,0,1,468.2,250a6.7,6.7,0,0,1,2.3-1.56,8.16,8.16,0,0,1,5.94,0,6.7,6.7,0,0,1,2.3,1.56,6.94,6.94,0,0,1,1.48,2.39A8.51,8.51,0,0,1,480.75,255.47Zm-2.05,0a7.67,7.67,0,0,0-.37-2.44,5.29,5.29,0,0,0-1.05-1.83,4.68,4.68,0,0,0-1.65-1.15,6,6,0,0,0-4.32,0,4.68,4.68,0,0,0-1.65,1.15A5.16,5.16,0,0,0,468.6,253a8.23,8.23,0,0,0,0,4.88,5.2,5.2,0,0,0,1.06,1.82,4.53,4.53,0,0,0,1.65,1.14,6,6,0,0,0,4.32,0,4.53,4.53,0,0,0,1.65-1.14,5.34,5.34,0,0,0,1.05-1.82A7.67,7.67,0,0,0,478.7,255.47Z"/>
          <path class="cls-1" d="M489.08,254.13a.41.41,0,0,1-.38.23.7.7,0,0,1-.35-.12l-.48-.25a3.94,3.94,0,0,0-.67-.25,3.18,3.18,0,0,0-.93-.12,2.64,2.64,0,0,0-.83.12,1.83,1.83,0,0,0-.64.32,1.51,1.51,0,0,0-.4.48,1.31,1.31,0,0,0-.14.59,1,1,0,0,0,.23.67,2,2,0,0,0,.62.46,5.3,5.3,0,0,0,.86.35l1,.32c.33.11.67.24,1,.37a3.52,3.52,0,0,1,.86.52,2.41,2.41,0,0,1,.62.76,2.35,2.35,0,0,1,.23,1.07,3.48,3.48,0,0,1-.26,1.34,3,3,0,0,1-.76,1.06,3.65,3.65,0,0,1-1.24.7,4.88,4.88,0,0,1-1.69.26,5.4,5.4,0,0,1-2-.35,5.12,5.12,0,0,1-1.51-.92l.43-.7a.64.64,0,0,1,.2-.2.52.52,0,0,1,.29-.07.67.67,0,0,1,.39.14c.14.1.3.2.5.32a3.77,3.77,0,0,0,.72.32,3.46,3.46,0,0,0,1.05.14,2.64,2.64,0,0,0,.93-.14,1.88,1.88,0,0,0,.67-.37,1.53,1.53,0,0,0,.4-.55A1.59,1.59,0,0,0,488,260a1.1,1.1,0,0,0-.23-.71,2.07,2.07,0,0,0-.62-.49,5.08,5.08,0,0,0-.87-.35l-1-.31c-.34-.11-.67-.24-1-.38a3.68,3.68,0,0,1-.88-.53,2.42,2.42,0,0,1-.61-.79,2.6,2.6,0,0,1-.23-1.14,2.66,2.66,0,0,1,.25-1.14,2.7,2.7,0,0,1,.72-1,3.54,3.54,0,0,1,1.16-.67,4.81,4.81,0,0,1,1.58-.24,4.92,4.92,0,0,1,1.85.32,4.52,4.52,0,0,1,1.41.89Z"/>
        </g>
        <g>
          <path class="cls-1" d="M108.42,36.28a8.51,8.51,0,0,1-.52,3,7,7,0,0,1-1.49,2.39,6.62,6.62,0,0,1-2.3,1.55,8.29,8.29,0,0,1-5.94,0,6.77,6.77,0,0,1-2.29-1.55,7,7,0,0,1-1.49-2.39,9.18,9.18,0,0,1,0-6.09,7.06,7.06,0,0,1,1.49-2.39,6.8,6.8,0,0,1,2.29-1.56,8.29,8.29,0,0,1,5.94,0,6.65,6.65,0,0,1,2.3,1.56,7.06,7.06,0,0,1,1.49,2.39A8.57,8.57,0,0,1,108.42,36.28Zm-2,0a7.4,7.4,0,0,0-.37-2.44A5.29,5.29,0,0,0,105,32a4.51,4.51,0,0,0-1.65-1.15,6,6,0,0,0-4.31,0A4.63,4.63,0,0,0,97.33,32a5.14,5.14,0,0,0-1,1.83,8.2,8.2,0,0,0,0,4.87,5.14,5.14,0,0,0,1,1.83A4.48,4.48,0,0,0,99,41.68a6,6,0,0,0,4.31,0A4.37,4.37,0,0,0,105,40.54a5.29,5.29,0,0,0,1-1.83A7.34,7.34,0,0,0,106.37,36.28Z"/>
          <path class="cls-1" d="M114,43.82a2.53,2.53,0,0,1-1.9-.69,2.76,2.76,0,0,1-.66-2V34.75h-1.26a.4.4,0,0,1-.27-.09.39.39,0,0,1-.12-.31v-.73l1.71-.22.42-3.22a.44.44,0,0,1,.14-.25.39.39,0,0,1,.29-.1h.92v3.6h3v1.32h-3V41a1.36,1.36,0,0,0,.32,1,1.14,1.14,0,0,0,.83.31,1.51,1.51,0,0,0,.5-.07,2,2,0,0,0,.36-.17l.27-.17a.34.34,0,0,1,.19-.08A.31.31,0,0,1,116,42l.54.87a3.47,3.47,0,0,1-1.14.7A4.11,4.11,0,0,1,114,43.82Z"/>
          <path class="cls-1" d="M120,34.61a5.66,5.66,0,0,1,1.48-1.13,4,4,0,0,1,1.88-.43,3.77,3.77,0,0,1,1.51.29,2.92,2.92,0,0,1,1.09.8,3.55,3.55,0,0,1,.66,1.25,5.2,5.2,0,0,1,.23,1.62v6.64H125V37a2.82,2.82,0,0,0-.54-1.84,2,2,0,0,0-1.65-.65,3.1,3.1,0,0,0-1.52.39A4.93,4.93,0,0,0,120,36v7.68h-1.84V28.48H120Z"/>
          <path class="cls-1" d="M138.15,42.19a3.73,3.73,0,0,1-.81.72,5.36,5.36,0,0,1-1,.5,6.81,6.81,0,0,1-1.12.29,6.27,6.27,0,0,1-1.14.1,5.18,5.18,0,0,1-2-.37,4.3,4.3,0,0,1-1.58-1.07,4.84,4.84,0,0,1-1-1.74,7.1,7.1,0,0,1-.37-2.39,6.15,6.15,0,0,1,.33-2,4.75,4.75,0,0,1,1-1.65,4.53,4.53,0,0,1,1.54-1.09,5.08,5.08,0,0,1,2-.4,4.67,4.67,0,0,1,1.73.32,3.74,3.74,0,0,1,1.38.91,4.09,4.09,0,0,1,.92,1.46,5.79,5.79,0,0,1,.33,2,1.22,1.22,0,0,1-.1.58.4.4,0,0,1-.35.14h-7a6.14,6.14,0,0,0,.27,1.72,3.34,3.34,0,0,0,.68,1.22,2.59,2.59,0,0,0,1,.73,3.32,3.32,0,0,0,1.33.25,4.08,4.08,0,0,0,1.19-.16,6.82,6.82,0,0,0,.87-.35c.24-.12.44-.24.6-.34a.77.77,0,0,1,.41-.16.4.4,0,0,1,.35.17Zm-1.48-4.89a3.59,3.59,0,0,0-.18-1.17,2.71,2.71,0,0,0-.53-.92,2.43,2.43,0,0,0-.84-.6,3.18,3.18,0,0,0-3.21.56A3.58,3.58,0,0,0,131,37.3Z"/>
          <path class="cls-1" d="M142.3,35.31a4.73,4.73,0,0,1,1.22-1.67,2.62,2.62,0,0,1,1.76-.61,2.59,2.59,0,0,1,.63.08,1.62,1.62,0,0,1,.54.22l-.13,1.37A.3.3,0,0,1,146,35a2.08,2.08,0,0,1-.42-.06,3.06,3.06,0,0,0-.63-.06,2.43,2.43,0,0,0-.88.14,2.06,2.06,0,0,0-.69.43,3,3,0,0,0-.55.7,7.05,7.05,0,0,0-.44,1v6.59h-1.84V33.22h1.05a.59.59,0,0,1,.41.11.71.71,0,0,1,.16.39Z"/>
          <path class="cls-1" d="M154.08,34.94a.42.42,0,0,1-.38.23.73.73,0,0,1-.36-.12l-.47-.25a5.13,5.13,0,0,0-.68-.26,3.18,3.18,0,0,0-.93-.12,2.73,2.73,0,0,0-.83.12,1.88,1.88,0,0,0-.63.33,1.35,1.35,0,0,0-.41.48,1.31,1.31,0,0,0-.13.59,1,1,0,0,0,.23.67,2,2,0,0,0,.61.46,5.08,5.08,0,0,0,.87.35c.32.1.65.2,1,.32s.67.23,1,.37a3.58,3.58,0,0,1,.87.52,2.34,2.34,0,0,1,.61.75,2.27,2.27,0,0,1,.23,1.08,3.39,3.39,0,0,1-.25,1.33,3,3,0,0,1-.77,1.07,3.67,3.67,0,0,1-1.23.7,5.13,5.13,0,0,1-1.69.26,5.21,5.21,0,0,1-2-.36,4.85,4.85,0,0,1-1.5-.91l.43-.7a.53.53,0,0,1,.19-.2.55.55,0,0,1,.29-.08.69.69,0,0,1,.4.15L149,42a5,5,0,0,0,.72.32,3.46,3.46,0,0,0,1.05.14,3,3,0,0,0,.94-.14,1.89,1.89,0,0,0,.67-.38,1.29,1.29,0,0,0,.39-.54,1.65,1.65,0,0,0,.13-.66,1.07,1.07,0,0,0-.23-.72,2,2,0,0,0-.61-.48,5.84,5.84,0,0,0-.87-.35l-1-.31c-.34-.11-.67-.24-1-.38a3.43,3.43,0,0,1-.87-.53,2.27,2.27,0,0,1-.61-.79,2.46,2.46,0,0,1-.24-1.14,2.87,2.87,0,0,1,.25-1.15,2.92,2.92,0,0,1,.72-1,3.7,3.7,0,0,1,1.17-.67,4.74,4.74,0,0,1,1.57-.25,4.88,4.88,0,0,1,1.85.33,4.39,4.39,0,0,1,1.42.89Z"/>
        </g>
        <g>
          <path class="cls-1" d="M245.72,13.44a4,4,0,0,0,1.63-.31,3.34,3.34,0,0,0,1.22-.86,3.81,3.81,0,0,0,.77-1.33,5.41,5.41,0,0,0,.26-1.7v-9h2v9a6.78,6.78,0,0,1-.41,2.37A5.51,5.51,0,0,1,250,13.5a5.45,5.45,0,0,1-1.85,1.25,6.92,6.92,0,0,1-4.91,0,5.45,5.45,0,0,1-1.85-1.25,5.38,5.38,0,0,1-1.17-1.89,6.78,6.78,0,0,1-.41-2.37v-9h2v9a5.41,5.41,0,0,0,.26,1.7,3.81,3.81,0,0,0,.77,1.33,3.48,3.48,0,0,0,1.22.87A4.11,4.11,0,0,0,245.72,13.44Z"/>
          <path class="cls-1" d="M267.13.27V15h-1a1,1,0,0,1-.4-.08,1.12,1.12,0,0,1-.31-.28L256.88,3.54a4.49,4.49,0,0,1,0,.51c0,.16,0,.32,0,.46V15h-1.75V.27h1.26l.16,0a.72.72,0,0,1,.15.11,1.38,1.38,0,0,1,.15.17l8.54,11.11c0-.18,0-.35,0-.52s0-.33,0-.48V.27Z"/>
          <path class="cls-1" d="M287.49,15h-1.55a.71.71,0,0,1-.43-.13.94.94,0,0,1-.25-.34L283.88,11h-6.62l-1.38,3.57a.74.74,0,0,1-.24.33.69.69,0,0,1-.43.14h-1.55L279.56.27h2Zm-4.17-5.48-2.31-6c-.07-.17-.14-.38-.22-.62s-.15-.49-.22-.76a10.52,10.52,0,0,1-.44,1.39l-2.32,6Z"/>
          <path class="cls-1" d="M297.81,5v.68c0,.22-.15.37-.44.43l-1.18.15a3.32,3.32,0,0,1,.35,1.51,3.25,3.25,0,0,1-.29,1.38,3.3,3.3,0,0,1-.81,1.07,3.81,3.81,0,0,1-1.24.68,4.9,4.9,0,0,1-1.56.24,5.11,5.11,0,0,1-1.38-.18,1.89,1.89,0,0,0-.51.44.74.74,0,0,0-.17.47.63.63,0,0,0,.3.56,2,2,0,0,0,.8.27,7.3,7.3,0,0,0,1.13.1l1.29.07c.45,0,.88.09,1.3.16a4.17,4.17,0,0,1,1.13.37,1.95,1.95,0,0,1,1.1,1.89,2.79,2.79,0,0,1-.33,1.3,3.62,3.62,0,0,1-1,1.11,4.85,4.85,0,0,1-1.54.79,6.81,6.81,0,0,1-2.05.29,7.91,7.91,0,0,1-2-.23,4.54,4.54,0,0,1-1.42-.61,2.54,2.54,0,0,1-.85-.88,2.06,2.06,0,0,1-.28-1,1.89,1.89,0,0,1,.48-1.31,3.29,3.29,0,0,1,1.33-.85,1.94,1.94,0,0,1-.74-.56,1.47,1.47,0,0,1-.27-.93,1.6,1.6,0,0,1,.08-.47,2.21,2.21,0,0,1,.25-.48,3,3,0,0,1,.42-.46,3.06,3.06,0,0,1,.58-.38,3.19,3.19,0,0,1-1.21-1.15,3.14,3.14,0,0,1-.43-1.66A3.32,3.32,0,0,1,289,6.39a3.15,3.15,0,0,1,.82-1.06A3.66,3.66,0,0,1,291,4.66a5.11,5.11,0,0,1,1.6-.24,5.06,5.06,0,0,1,1.26.15A3.77,3.77,0,0,1,295,5ZM295.94,15.6a.9.9,0,0,0-.21-.62,1.46,1.46,0,0,0-.59-.37,3.24,3.24,0,0,0-.85-.19q-.48-.06-1-.09l-1.1-.06c-.37,0-.73-.06-1.07-.11a2.92,2.92,0,0,0-.94.68,1.35,1.35,0,0,0-.37.95,1.31,1.31,0,0,0,.18.66,1.63,1.63,0,0,0,.55.52,3,3,0,0,0,.94.35,5.67,5.67,0,0,0,1.32.13,6,6,0,0,0,1.33-.13,3.2,3.2,0,0,0,1-.39,2,2,0,0,0,.63-.58A1.42,1.42,0,0,0,295.94,15.6Zm-3.3-5.67a3,3,0,0,0,1-.15,2.13,2.13,0,0,0,.71-.44,1.76,1.76,0,0,0,.43-.66,2.57,2.57,0,0,0,.14-.85,2,2,0,0,0-.58-1.53,2.83,2.83,0,0,0-3.38,0,2,2,0,0,0-.58,1.53,2.34,2.34,0,0,0,.15.85,1.67,1.67,0,0,0,.44.66,2,2,0,0,0,.71.44A2.88,2.88,0,0,0,292.64,9.93Z"/>
          <path class="cls-1" d="M308,13.57a3.28,3.28,0,0,1-.81.71,5,5,0,0,1-1,.5,7.11,7.11,0,0,1-1.12.3,7.52,7.52,0,0,1-1.15.09,5.38,5.38,0,0,1-2-.36,4.39,4.39,0,0,1-1.57-1.07,4.91,4.91,0,0,1-1-1.75A7,7,0,0,1,299,9.6a6.15,6.15,0,0,1,.33-2,4.88,4.88,0,0,1,1-1.64,4.32,4.32,0,0,1,1.53-1.09,5,5,0,0,1,2-.4,4.68,4.68,0,0,1,1.74.31,4,4,0,0,1,1.38.91,4.16,4.16,0,0,1,.91,1.46,5.57,5.57,0,0,1,.33,2,1.2,1.2,0,0,1-.09.57.38.38,0,0,1-.35.15h-7a5.78,5.78,0,0,0,.28,1.72,3.5,3.5,0,0,0,.67,1.22,2.77,2.77,0,0,0,1,.73,3.59,3.59,0,0,0,1.34.24,3.81,3.81,0,0,0,1.19-.16,6.7,6.7,0,0,0,.86-.34,6.94,6.94,0,0,0,.6-.35.77.77,0,0,1,.42-.16.4.4,0,0,1,.35.18Zm-1.48-4.9a3.68,3.68,0,0,0-.18-1.17,2.64,2.64,0,0,0-.52-.91A2.31,2.31,0,0,0,305,6a2.88,2.88,0,0,0-1.13-.21,2.77,2.77,0,0,0-2.08.77,3.64,3.64,0,0,0-1,2.12Z"/>
          <path class="cls-1" d="M312.16,6.11a4.68,4.68,0,0,1,.72-.69,4.34,4.34,0,0,1,.81-.53,3.89,3.89,0,0,1,.9-.34,4.3,4.3,0,0,1,1-.12,3.77,3.77,0,0,1,1.51.28,2.94,2.94,0,0,1,1.09.81,3.47,3.47,0,0,1,.66,1.25,5.44,5.44,0,0,1,.23,1.61V15h-1.84V8.38a2.74,2.74,0,0,0-.55-1.83,2,2,0,0,0-1.64-.66,3.1,3.1,0,0,0-1.52.39,5.14,5.14,0,0,0-1.3,1.06V15h-1.84V4.59h1.1A.45.45,0,0,1,312,5Z"/>
          <path class="cls-1" d="M329.18,6.45a.88.88,0,0,1-.16.17.39.39,0,0,1-.23.07.69.69,0,0,1-.34-.13,4.79,4.79,0,0,0-.46-.29,4,4,0,0,0-.67-.28,3,3,0,0,0-1-.13,3.24,3.24,0,0,0-1.36.27,2.7,2.7,0,0,0-1,.79,3.46,3.46,0,0,0-.6,1.25,6.35,6.35,0,0,0-.2,1.64,6.13,6.13,0,0,0,.21,1.68,3.7,3.7,0,0,0,.62,1.24,2.64,2.64,0,0,0,1,.76,3,3,0,0,0,1.26.26,3.16,3.16,0,0,0,1.1-.16,3,3,0,0,0,.72-.35c.18-.13.34-.25.47-.36a.57.57,0,0,1,.38-.16.41.41,0,0,1,.35.18l.51.67a3.74,3.74,0,0,1-.77.72,5.19,5.19,0,0,1-.93.5,5.45,5.45,0,0,1-1,.29,6.74,6.74,0,0,1-1.11.09,4.58,4.58,0,0,1-1.82-.36,4.2,4.2,0,0,1-1.46-1,5.06,5.06,0,0,1-1-1.69,6.89,6.89,0,0,1-.35-2.27,6.79,6.79,0,0,1,.33-2.16,4.71,4.71,0,0,1,.95-1.7,4.22,4.22,0,0,1,1.53-1.12,5.14,5.14,0,0,1,2.1-.4,5.09,5.09,0,0,1,1.94.35,4.85,4.85,0,0,1,1.49,1Z"/>
          <path class="cls-1" d="M334.09,1.32a1.22,1.22,0,0,1-.11.5,1.46,1.46,0,0,1-.29.41,1.19,1.19,0,0,1-.42.28,1.26,1.26,0,0,1-.51.11,1.18,1.18,0,0,1-.5-.11,1.15,1.15,0,0,1-.41-.28,1.42,1.42,0,0,1-.28-.41,1.21,1.21,0,0,1-.1-.5,1.25,1.25,0,0,1,.1-.51,1.34,1.34,0,0,1,.28-.42,1.33,1.33,0,0,1,.41-.29,1.18,1.18,0,0,1,.5-.1,1.25,1.25,0,0,1,.51.1,1.42,1.42,0,0,1,.71.71A1.26,1.26,0,0,1,334.09,1.32Zm-.39,3.27V15h-1.84V4.59Z"/>
          <path class="cls-1" d="M345.17,13.57a3.69,3.69,0,0,1-.81.71,5.36,5.36,0,0,1-1,.5,7,7,0,0,1-1.11.3,7.52,7.52,0,0,1-1.15.09,5.38,5.38,0,0,1-2-.36,4.43,4.43,0,0,1-1.58-1.07,4.89,4.89,0,0,1-1-1.75,7,7,0,0,1-.37-2.39,6.15,6.15,0,0,1,.33-2,4.86,4.86,0,0,1,1-1.64,4.27,4.27,0,0,1,1.54-1.09,4.92,4.92,0,0,1,2-.4,4.67,4.67,0,0,1,1.73.31,3.87,3.87,0,0,1,1.38.91A4.18,4.18,0,0,1,345,7.11a5.57,5.57,0,0,1,.33,2,1.17,1.17,0,0,1-.1.57.38.38,0,0,1-.35.15h-7a6.14,6.14,0,0,0,.27,1.72,3.52,3.52,0,0,0,.68,1.22,2.69,2.69,0,0,0,1,.73,3.52,3.52,0,0,0,1.34.24,3.74,3.74,0,0,0,1.18-.16,6.89,6.89,0,0,0,.87-.34,6.94,6.94,0,0,0,.6-.35.77.77,0,0,1,.42-.16.41.41,0,0,1,.35.18Zm-1.48-4.9a3.68,3.68,0,0,0-.18-1.17,2.66,2.66,0,0,0-.53-.91,2.31,2.31,0,0,0-.84-.6,3.18,3.18,0,0,0-3.21.56A3.57,3.57,0,0,0,338,8.67Z"/>
          <path class="cls-1" d="M353.66,6.31a.39.39,0,0,1-.38.23.74.74,0,0,1-.35-.11,5.15,5.15,0,0,0-.48-.25,4,4,0,0,0-.68-.26,3.16,3.16,0,0,0-.92-.12,2.75,2.75,0,0,0-.84.12,2.07,2.07,0,0,0-.63.32,1.39,1.39,0,0,0-.4.48,1.2,1.2,0,0,0-.14.59,1,1,0,0,0,.23.67,2,2,0,0,0,.61.47,5.44,5.44,0,0,0,.87.34l1,.32c.34.11.67.24,1,.38a3.38,3.38,0,0,1,.87.51,2.38,2.38,0,0,1,.61.76,2.27,2.27,0,0,1,.24,1.08,3.43,3.43,0,0,1-.26,1.33,3,3,0,0,1-.76,1.06,3.66,3.66,0,0,1-1.24.71,5.14,5.14,0,0,1-1.69.25,5.21,5.21,0,0,1-2-.35,5,5,0,0,1-1.5-.91l.43-.7a.67.67,0,0,1,.2-.21.5.5,0,0,1,.29-.07.74.74,0,0,1,.39.14,4,4,0,0,0,.5.32,3.65,3.65,0,0,0,.71.32,3.15,3.15,0,0,0,1.05.15,3,3,0,0,0,.94-.14,2.06,2.06,0,0,0,.67-.38,1.53,1.53,0,0,0,.4-.55,1.75,1.75,0,0,0,.13-.65,1.08,1.08,0,0,0-.24-.72,2,2,0,0,0-.61-.49,5.08,5.08,0,0,0-.87-.35c-.33-.09-.66-.2-1-.31a9.32,9.32,0,0,1-1-.38,3.49,3.49,0,0,1-.87-.53,2.35,2.35,0,0,1-.61-.78,2.52,2.52,0,0,1-.23-1.14,2.86,2.86,0,0,1,.24-1.15,3,3,0,0,1,.72-1,3.5,3.5,0,0,1,1.17-.66,4.52,4.52,0,0,1,1.58-.25,5.07,5.07,0,0,1,1.84.32,4.56,4.56,0,0,1,1.42.89Z"/>
        </g>
        <g>
          <path class="cls-1" d="M72.17,339h-2V324.28h2Z"/>
          <path class="cls-1" d="M87.9,324.28V339h-1a.75.75,0,0,1-.39-.09,1,1,0,0,1-.32-.27l-8.54-11.13a4.36,4.36,0,0,1,0,.51c0,.16,0,.32,0,.46V339H75.94V324.28H77.2l.16,0a.72.72,0,0,1,.15.11.86.86,0,0,1,.15.17l8.54,11.11,0-.52c0-.17,0-.33,0-.48V324.28Z"/>
          <path class="cls-1" d="M103.66,331.94v5.67a8.54,8.54,0,0,1-2.37,1.2,9.32,9.32,0,0,1-2.77.39,8.82,8.82,0,0,1-3.21-.55,7.15,7.15,0,0,1-2.45-1.54,7,7,0,0,1-1.56-2.39,8.37,8.37,0,0,1-.54-3.06,8.48,8.48,0,0,1,.53-3.08,6.68,6.68,0,0,1,1.51-2.38,6.49,6.49,0,0,1,2.38-1.54,8.39,8.39,0,0,1,3.13-.55,9.17,9.17,0,0,1,1.62.13,7.6,7.6,0,0,1,1.39.37,6.28,6.28,0,0,1,1.19.59,7.65,7.65,0,0,1,1,.78l-.57.9a.59.59,0,0,1-.34.27.65.65,0,0,1-.47-.1l-.57-.35a5,5,0,0,0-.77-.4,5.44,5.44,0,0,0-1.09-.32,6.92,6.92,0,0,0-1.47-.14,6,6,0,0,0-2.26.41,4.8,4.8,0,0,0-1.72,1.16,5.2,5.2,0,0,0-1.09,1.84,7,7,0,0,0-.38,2.41,7.39,7.39,0,0,0,.39,2.49A5.16,5.16,0,0,0,94.33,336a4.61,4.61,0,0,0,1.78,1.17,6.53,6.53,0,0,0,2.36.41,6.34,6.34,0,0,0,1.83-.24,8,8,0,0,0,1.56-.64v-3.24h-2.3a.41.41,0,0,1-.31-.12.36.36,0,0,1-.12-.28v-1.13Z"/>
          <path class="cls-1" d="M120.36,331.66a8.79,8.79,0,0,1-.52,3,7.17,7.17,0,0,1-1.49,2.38,6.67,6.67,0,0,1-2.3,1.55,8.29,8.29,0,0,1-5.94,0,6.67,6.67,0,0,1-2.3-1.55,7.15,7.15,0,0,1-1.48-2.38,9,9,0,0,1,0-6.09,7.09,7.09,0,0,1,1.48-2.39,6.7,6.7,0,0,1,2.3-1.56,8.16,8.16,0,0,1,5.94,0,6.7,6.7,0,0,1,2.3,1.56,7.12,7.12,0,0,1,1.49,2.39A8.74,8.74,0,0,1,120.36,331.66Zm-2,0a7.44,7.44,0,0,0-.37-2.44,5.29,5.29,0,0,0-1-1.83,4.51,4.51,0,0,0-1.65-1.15,6,6,0,0,0-4.32,0,4.68,4.68,0,0,0-1.65,1.15,5.16,5.16,0,0,0-1.06,1.83,8.23,8.23,0,0,0,0,4.88,5.11,5.11,0,0,0,1.06,1.82,4.53,4.53,0,0,0,1.65,1.14,6,6,0,0,0,4.32,0,4.37,4.37,0,0,0,1.65-1.14,5.24,5.24,0,0,0,1-1.82A7.4,7.4,0,0,0,118.31,331.66Z"/>
          <path class="cls-1" d="M128.69,330.32a.41.41,0,0,1-.38.23.78.78,0,0,1-.35-.11l-.48-.26a5,5,0,0,0-.67-.25,3.18,3.18,0,0,0-.93-.12,2.68,2.68,0,0,0-.83.12,2,2,0,0,0-.64.32,1.51,1.51,0,0,0-.4.48,1.31,1.31,0,0,0-.14.59,1,1,0,0,0,.23.67,2,2,0,0,0,.62.47,5.31,5.31,0,0,0,.86.34l1,.32c.34.11.67.24,1,.38a3.75,3.75,0,0,1,.87.51,2.53,2.53,0,0,1,.61.76,2.38,2.38,0,0,1,.23,1.07,3.3,3.3,0,0,1-.26,1.34,2.84,2.84,0,0,1-.76,1.06A3.73,3.73,0,0,1,127,339a5.08,5.08,0,0,1-1.68.25,5.41,5.41,0,0,1-2-.35,5.24,5.24,0,0,1-1.51-.91l.44-.71a.73.73,0,0,1,.19-.2.52.52,0,0,1,.29-.07.74.74,0,0,1,.39.14c.14.1.31.2.5.32a4.07,4.07,0,0,0,.72.32,3.18,3.18,0,0,0,1.05.14,2.7,2.7,0,0,0,.94-.14,2,2,0,0,0,.67-.37,1.5,1.5,0,0,0,.39-.55,1.59,1.59,0,0,0,.13-.66,1.12,1.12,0,0,0-.23-.71,2.16,2.16,0,0,0-.61-.49,5.84,5.84,0,0,0-.87-.35l-1-.31c-.34-.11-.68-.24-1-.38a3.17,3.17,0,0,1-.87-.53,2.32,2.32,0,0,1-.62-.79,2.59,2.59,0,0,1-.23-1.13,2.83,2.83,0,0,1,1-2.12,3.4,3.4,0,0,1,1.17-.66,4.46,4.46,0,0,1,1.57-.25,5.13,5.13,0,0,1,1.85.32,4.56,4.56,0,0,1,1.42.89Z"/>
        </g>
        <g>
          <path class="cls-2" d="M252.65,40.44A152.25,152.25,0,0,1,326,326.1l-36.67-66.71a76.12,76.12,0,0,0-36.68-142.83Z"/>
          <path class="cls-3" d="M326,326.1A152.25,152.25,0,0,1,101.61,173.6l75.52,9.54a76.12,76.12,0,0,0,112.2,76.25Z"/>
          <path class="cls-4" d="M101.61,173.6a152.22,152.22,0,0,1,40.06-85.13l55.49,52.1a76.19,76.19,0,0,0-20,42.57Z"/>
          <path class="cls-5" d="M141.67,88.47a152.25,152.25,0,0,1,73.12-43.25L233.72,119a76.19,76.19,0,0,0-36.56,21.62Z"/>
          <path class="cls-6" d="M214.79,45.22a152.52,152.52,0,0,1,37.86-4.78v76.12A76.08,76.08,0,0,0,233.72,119Z"/>
        </g>
        <g>
          <path class="cls-1" d="M356.05,200.44v1.79a.57.57,0,0,1-.16.41.59.59,0,0,1-.46.18h-.92v3.45h-2.79v-3.45h-6a.89.89,0,0,1-.54-.19.8.8,0,0,1-.31-.46l-.33-1.58,6.95-9.33h3.05v9.18Zm-4.33,0v-3.92q0-.36,0-.78c0-.27,0-.56.08-.87l-4,5.57Z"/>
          <path class="cls-1" d="M366.57,203.38a1.13,1.13,0,0,1,.81.29,1,1,0,0,1,.3.74v1.86H357.13v-1a1.9,1.9,0,0,1,.12-.64,1.61,1.61,0,0,1,.44-.62l4.32-4.36a11.28,11.28,0,0,0,1-1.06,6.27,6.27,0,0,0,.68-1,4.5,4.5,0,0,0,.4-1,3.9,3.9,0,0,0,.14-1,2,2,0,0,0-.43-1.37,1.65,1.65,0,0,0-1.3-.48,2,2,0,0,0-1.2.37,2,2,0,0,0-.68.94,1.31,1.31,0,0,1-.56.75,1.65,1.65,0,0,1-1,.08l-1.69-.3a5.59,5.59,0,0,1,.63-1.95,4.54,4.54,0,0,1,1.17-1.39,4.47,4.47,0,0,1,1.59-.83,6.28,6.28,0,0,1,1.92-.28,5.76,5.76,0,0,1,2,.33,4.51,4.51,0,0,1,1.52.9,3.9,3.9,0,0,1,1,1.37,4.6,4.6,0,0,1,.33,1.76,4.72,4.72,0,0,1-.23,1.53,5.77,5.77,0,0,1-.63,1.33,9.6,9.6,0,0,1-.93,1.22c-.36.4-.73.8-1.13,1.21l-2.94,3c.38-.11.76-.2,1.12-.27a6.65,6.65,0,0,1,1-.09Z"/>
          <path class="cls-1" d="M376.35,194.89a3.73,3.73,0,0,1-.3,1.51,3.66,3.66,0,0,1-.79,1.17,3.6,3.6,0,0,1-1.15.76,3.7,3.7,0,0,1-1.36.26,4,4,0,0,1-1.44-.26,3.41,3.41,0,0,1-1.13-.76,3.56,3.56,0,0,1-.75-1.17,4.1,4.1,0,0,1-.27-1.51,4.27,4.27,0,0,1,.27-1.55,3.55,3.55,0,0,1,.75-1.19,3.26,3.26,0,0,1,1.13-.76,3.84,3.84,0,0,1,2.88,0,3.25,3.25,0,0,1,1.15.76,3.55,3.55,0,0,1,.75,1.19A4.5,4.5,0,0,1,376.35,194.89Zm4.72-3.16a2.07,2.07,0,0,1,.38-.32,1.13,1.13,0,0,1,.63-.15h2.33L373.1,205.81a1.4,1.4,0,0,1-.39.33,1.19,1.19,0,0,1-.56.13h-2.39Zm-7.17,3.16a3.52,3.52,0,0,0-.09-.87,1.33,1.33,0,0,0-.24-.55.91.91,0,0,0-.36-.29,1.44,1.44,0,0,0-.46-.08,1.34,1.34,0,0,0-.46.08,1,1,0,0,0-.35.29,1.66,1.66,0,0,0-.22.55,3.58,3.58,0,0,0-.08.87,3.28,3.28,0,0,0,.08.83,1.48,1.48,0,0,0,.22.52.84.84,0,0,0,.35.28,1.14,1.14,0,0,0,.46.08,1.21,1.21,0,0,0,.46-.08.81.81,0,0,0,.36-.28,1.2,1.2,0,0,0,.24-.52A3.23,3.23,0,0,0,373.9,194.89ZM385,202.74a3.7,3.7,0,0,1-.3,1.51,3.78,3.78,0,0,1-.8,1.18,3.48,3.48,0,0,1-1.14.75,3.6,3.6,0,0,1-1.37.27,3.77,3.77,0,0,1-1.44-.27,3.33,3.33,0,0,1-1.13-.75,3.5,3.5,0,0,1-.75-1.18,4.06,4.06,0,0,1-.26-1.51,4.27,4.27,0,0,1,.26-1.55,3.55,3.55,0,0,1,.75-1.19,3.36,3.36,0,0,1,1.13-.76,3.59,3.59,0,0,1,1.44-.28,3.67,3.67,0,0,1,1.45.28A3.31,3.31,0,0,1,384,200a3.55,3.55,0,0,1,.75,1.19A4.27,4.27,0,0,1,385,202.74Zm-2.46,0a4.12,4.12,0,0,0-.08-.86,1.48,1.48,0,0,0-.25-.55.91.91,0,0,0-.36-.29,1.39,1.39,0,0,0-.46-.08,1.29,1.29,0,0,0-.45.08.82.82,0,0,0-.35.29,1.47,1.47,0,0,0-.23.55,3.54,3.54,0,0,0-.08.86,3.28,3.28,0,0,0,.08.83,1.32,1.32,0,0,0,.23.52.73.73,0,0,0,.35.28,1.09,1.09,0,0,0,.45.08,1.17,1.17,0,0,0,.46-.08.81.81,0,0,0,.36-.28,1.33,1.33,0,0,0,.25-.52A3.82,3.82,0,0,0,382.53,202.74Z"/>
        </g>
        <g>
          <path class="cls-1" d="M170.37,285.18a5.52,5.52,0,0,1,.64-2,4.6,4.6,0,0,1,2.75-2.22,6.67,6.67,0,0,1,1.93-.27,5.7,5.7,0,0,1,2,.31,4.58,4.58,0,0,1,1.47.85,3.59,3.59,0,0,1,.9,1.24,3.65,3.65,0,0,1,.31,1.49,5.27,5.27,0,0,1-.14,1.26,2.85,2.85,0,0,1-.43.93,2.48,2.48,0,0,1-.7.67,4.41,4.41,0,0,1-.95.46,3.35,3.35,0,0,1,2.49,3.4,4.65,4.65,0,0,1-.43,2.08,4.33,4.33,0,0,1-1.16,1.47,4.9,4.9,0,0,1-1.68.88,6.68,6.68,0,0,1-2,.3,7.35,7.35,0,0,1-1.91-.23,4.36,4.36,0,0,1-1.48-.73,4.59,4.59,0,0,1-1.14-1.25,8,8,0,0,1-.85-1.81l1.42-.58a1.8,1.8,0,0,1,1-.11,1,1,0,0,1,.68.47,3.91,3.91,0,0,0,1,1.25,2.06,2.06,0,0,0,1.23.38,2.27,2.27,0,0,0,.93-.18,2.11,2.11,0,0,0,.66-.46,2.15,2.15,0,0,0,.53-1.38,5.68,5.68,0,0,0-.07-.87,1.07,1.07,0,0,0-.38-.66,2,2,0,0,0-.93-.43,7.72,7.72,0,0,0-1.73-.15v-2.2a6.17,6.17,0,0,0,1.51-.15,2.31,2.31,0,0,0,.89-.39,1.23,1.23,0,0,0,.42-.62,2.8,2.8,0,0,0,.1-.79,1.93,1.93,0,0,0-.43-1.36,1.63,1.63,0,0,0-1.3-.48,1.93,1.93,0,0,0-1.2.37,1.87,1.87,0,0,0-.67.93,1.43,1.43,0,0,1-.57.76,1.64,1.64,0,0,1-1,.08Z"/>
          <path class="cls-1" d="M186,286.18a6,6,0,0,1,.81-.11,6.68,6.68,0,0,1,.76,0,5.7,5.7,0,0,1,2.1.37,4.33,4.33,0,0,1,1.52,1,4.05,4.05,0,0,1,.93,1.46,5.09,5.09,0,0,1,.32,1.8,5.6,5.6,0,0,1-.43,2.2,5.16,5.16,0,0,1-1.19,1.71,5.36,5.36,0,0,1-1.82,1.12,6.37,6.37,0,0,1-2.31.4,5.78,5.78,0,0,1-1.4-.16,6.68,6.68,0,0,1-1.24-.41,7,7,0,0,1-1.08-.61,7.39,7.39,0,0,1-.9-.74l1-1.32a1.06,1.06,0,0,1,.36-.31,1,1,0,0,1,.44-.11,1.12,1.12,0,0,1,.59.17l.6.37a3.74,3.74,0,0,0,.75.37,3.05,3.05,0,0,0,1.07.16,2.63,2.63,0,0,0,1.1-.21,1.9,1.9,0,0,0,.73-.58,2.17,2.17,0,0,0,.41-.85,4,4,0,0,0,.13-1,2.13,2.13,0,0,0-.62-1.66,2.47,2.47,0,0,0-1.75-.57,5.39,5.39,0,0,0-2,.38l-2-.54,1.27-7.5h7.69v1.31a1.64,1.64,0,0,1-.1.6,1.18,1.18,0,0,1-.33.47,1.52,1.52,0,0,1-.58.31,3.1,3.1,0,0,1-.86.11h-3.59Z"/>
          <path class="cls-1" d="M201.25,284.53a3.65,3.65,0,0,1-.3,1.5A3.57,3.57,0,0,1,199,288a3.51,3.51,0,0,1-1.36.27,3.77,3.77,0,0,1-1.44-.27,3.39,3.39,0,0,1-1.88-1.93,4,4,0,0,1-.27-1.5,4.24,4.24,0,0,1,.27-1.55,3.4,3.4,0,0,1,1.88-2,3.77,3.77,0,0,1,1.44-.27,3.86,3.86,0,0,1,1.45.27,3.48,3.48,0,0,1,1.14.77A3.55,3.55,0,0,1,201,283,4.46,4.46,0,0,1,201.25,284.53Zm4.72-3.16a1.77,1.77,0,0,1,.38-.33,1.23,1.23,0,0,1,.63-.14h2.33L198,295.45a1.22,1.22,0,0,1-.39.32,1.08,1.08,0,0,1-.56.13h-2.39Zm-7.17,3.16a3.52,3.52,0,0,0-.09-.87,1.33,1.33,0,0,0-.24-.55.83.83,0,0,0-.36-.29,1.39,1.39,0,0,0-.46-.08,1.34,1.34,0,0,0-.46.08.87.87,0,0,0-.35.29,1.66,1.66,0,0,0-.22.55,3.58,3.58,0,0,0-.08.87,3.15,3.15,0,0,0,.08.82,1.54,1.54,0,0,0,.22.53.93.93,0,0,0,.35.28,1.34,1.34,0,0,0,.46.08,1.39,1.39,0,0,0,.46-.08.88.88,0,0,0,.36-.28,1.24,1.24,0,0,0,.24-.53A3.1,3.1,0,0,0,198.8,284.53Zm11.09,7.85a3.73,3.73,0,0,1-.3,1.51,3.63,3.63,0,0,1-.8,1.17,3.5,3.5,0,0,1-1.14.76,3.6,3.6,0,0,1-1.37.27,3.77,3.77,0,0,1-1.44-.27,3.39,3.39,0,0,1-1.88-1.93,4.31,4.31,0,0,1-.26-1.51,4.46,4.46,0,0,1,.26-1.55,3.4,3.4,0,0,1,1.88-2,3.77,3.77,0,0,1,1.44-.27,3.82,3.82,0,0,1,1.45.27,3.48,3.48,0,0,1,1.14.77,3.55,3.55,0,0,1,.75,1.19A4.24,4.24,0,0,1,209.89,292.38Zm-2.46,0a3.54,3.54,0,0,0-.08-.86,1.48,1.48,0,0,0-.25-.55.83.83,0,0,0-.36-.29,1.34,1.34,0,0,0-.46-.08,1.29,1.29,0,0,0-.45.08.75.75,0,0,0-.35.29,1.47,1.47,0,0,0-.23.55,4.12,4.12,0,0,0-.08.86,3.72,3.72,0,0,0,.08.82,1.37,1.37,0,0,0,.23.53.8.8,0,0,0,.35.28,1.29,1.29,0,0,0,.45.08,1.34,1.34,0,0,0,.46-.08.88.88,0,0,0,.36-.28,1.38,1.38,0,0,0,.25-.53A3.2,3.2,0,0,0,207.43,292.38Z"/>
        </g>
        <g>
          <path class="cls-1" d="M140.87,150.67V153h-8.55v-2.31h2.88V143.1c0-.19,0-.38,0-.58l0-.59-1.7,1.42a1,1,0,0,1-.45.21,1.48,1.48,0,0,1-.42,0,1,1,0,0,1-.35-.13,1.22,1.22,0,0,1-.23-.2l-1-1.34,4.68-3.93h2.64v12.71Z"/>
          <path class="cls-1" d="M153.53,145.47a12.27,12.27,0,0,1-.42,3.41,7.3,7.3,0,0,1-1.17,2.39,4.78,4.78,0,0,1-1.77,1.41,5.36,5.36,0,0,1-2.22.47,5.21,5.21,0,0,1-2.21-.47,4.67,4.67,0,0,1-1.76-1.41,7.1,7.1,0,0,1-1.16-2.39,14.05,14.05,0,0,1,0-6.82,7.1,7.1,0,0,1,1.16-2.39,4.55,4.55,0,0,1,1.76-1.4,5.21,5.21,0,0,1,2.21-.46,5.35,5.35,0,0,1,2.22.46,4.65,4.65,0,0,1,1.77,1.4,7.3,7.3,0,0,1,1.17,2.39A12.27,12.27,0,0,1,153.53,145.47Zm-3.3,0a13.67,13.67,0,0,0-.19-2.55,5.45,5.45,0,0,0-.52-1.56,1.87,1.87,0,0,0-.74-.78,1.79,1.79,0,0,0-.83-.21,1.68,1.68,0,0,0-1.55,1,5.47,5.47,0,0,0-.51,1.56,17.27,17.27,0,0,0,0,5.11,5.58,5.58,0,0,0,.51,1.56,1.72,1.72,0,0,0,2.38.78,1.87,1.87,0,0,0,.74-.78A5.56,5.56,0,0,0,150,148,13.79,13.79,0,0,0,150.23,145.47Z"/>
          <path class="cls-1" d="M161.83,141.61a3.65,3.65,0,0,1-.3,1.5,3.71,3.71,0,0,1-.79,1.17,3.44,3.44,0,0,1-1.15.76,3.55,3.55,0,0,1-1.36.27,3.73,3.73,0,0,1-1.44-.27,3.17,3.17,0,0,1-1.13-.76,3.46,3.46,0,0,1-.75-1.17,4,4,0,0,1-.27-1.5,4.24,4.24,0,0,1,.27-1.55,3.45,3.45,0,0,1,.75-1.19,3.2,3.2,0,0,1,1.13-.77,4,4,0,0,1,2.88,0,3.28,3.28,0,0,1,1.15.77,3.43,3.43,0,0,1,.74,1.19A4.24,4.24,0,0,1,161.83,141.61Zm4.72-3.16a1.77,1.77,0,0,1,.38-.33,1.13,1.13,0,0,1,.63-.15h2.33l-11.31,14.56a1.34,1.34,0,0,1-.39.32,1.08,1.08,0,0,1-.56.13h-2.39Zm-7.17,3.16a3.52,3.52,0,0,0-.09-.87,1.57,1.57,0,0,0-.24-.55.79.79,0,0,0-.37-.29,1.12,1.12,0,0,0-.45-.08,1.14,1.14,0,0,0-.46.08.79.79,0,0,0-.35.29,1.57,1.57,0,0,0-.22.55,3.52,3.52,0,0,0-.09.87,3.15,3.15,0,0,0,.09.82,1.54,1.54,0,0,0,.22.53.93.93,0,0,0,.35.28,1.34,1.34,0,0,0,.46.08,1.33,1.33,0,0,0,.45-.08.91.91,0,0,0,.37-.28,1.54,1.54,0,0,0,.24-.53A3.15,3.15,0,0,0,159.38,141.61Zm11.08,7.85a3.73,3.73,0,0,1-.3,1.51,3.66,3.66,0,0,1-.79,1.17,3.44,3.44,0,0,1-1.15.76,3.51,3.51,0,0,1-1.36.27,3.77,3.77,0,0,1-1.44-.27,3.36,3.36,0,0,1-1.13-.76,3.56,3.56,0,0,1-.75-1.17,4.1,4.1,0,0,1-.27-1.51,4.24,4.24,0,0,1,.27-1.55,3.45,3.45,0,0,1,.75-1.19,3.39,3.39,0,0,1,1.13-.77,3.77,3.77,0,0,1,1.44-.27,3.86,3.86,0,0,1,1.45.27,3.33,3.33,0,0,1,1.14.77,3.45,3.45,0,0,1,.75,1.19A4.46,4.46,0,0,1,170.46,149.46Zm-2.45,0a3.43,3.43,0,0,0-.09-.86,1.27,1.27,0,0,0-.24-.55.77.77,0,0,0-.36-.29,1.17,1.17,0,0,0-.46-.08,1.14,1.14,0,0,0-.46.08.79.79,0,0,0-.35.29,1.57,1.57,0,0,0-.22.55,3.49,3.49,0,0,0-.08.86,3.2,3.2,0,0,0,.08.82,1.54,1.54,0,0,0,.22.53.81.81,0,0,0,.35.27,1.14,1.14,0,0,0,.46.09,1.18,1.18,0,0,0,.46-.09.78.78,0,0,0,.36-.27,1.24,1.24,0,0,0,.24-.53A3.15,3.15,0,0,0,168,149.46Z"/>
        </g>
        <g>
          <path class="cls-1" d="M239.71,72.53v1.79a.65.65,0,0,1-.16.42.62.62,0,0,1-.46.17h-.93v3.45h-2.78V74.91h-6a.88.88,0,0,1-.54-.18.8.8,0,0,1-.3-.47l-.33-1.57,6.94-9.34h3v9.18Zm-4.33,0V68.62q0-.36,0-.78c0-.28,0-.57.07-.87l-4,5.56Z"/>
          <path class="cls-1" d="M248.06,67a3.65,3.65,0,0,1-.3,1.5,3.6,3.6,0,0,1-.79,1.17,3.44,3.44,0,0,1-1.15.76,3.56,3.56,0,0,1-1.37.27,3.68,3.68,0,0,1-1.43-.27,3.31,3.31,0,0,1-1.14-.76,3.34,3.34,0,0,1-.74-1.17,4,4,0,0,1-.27-1.5,4.24,4.24,0,0,1,.27-1.55,3.52,3.52,0,0,1,.74-1.19,3.33,3.33,0,0,1,1.14-.77,3.68,3.68,0,0,1,1.43-.27,3.78,3.78,0,0,1,1.45.27,3.37,3.37,0,0,1,1.15.77,3.52,3.52,0,0,1,.74,1.19A4.24,4.24,0,0,1,248.06,67Zm4.72-3.16a1.77,1.77,0,0,1,.38-.33,1.13,1.13,0,0,1,.63-.15h2.33L244.81,77.91a1.34,1.34,0,0,1-.39.32,1.1,1.1,0,0,1-.56.13h-2.39ZM245.61,67a3.52,3.52,0,0,0-.09-.87,1.65,1.65,0,0,0-.24-.55.79.79,0,0,0-.37-.29,1.14,1.14,0,0,0-.46-.08,1.12,1.12,0,0,0-.45.08.74.74,0,0,0-.35.29,1.9,1.9,0,0,0-.23.55,4.16,4.16,0,0,0-.08.87,3.72,3.72,0,0,0,.08.82,1.75,1.75,0,0,0,.23.53.86.86,0,0,0,.35.28,1.33,1.33,0,0,0,.45.08,1.34,1.34,0,0,0,.46-.08.91.91,0,0,0,.37-.28,1.54,1.54,0,0,0,.24-.53A3.15,3.15,0,0,0,245.61,67Zm11.08,7.85a3.73,3.73,0,0,1-1.09,2.68,3.44,3.44,0,0,1-1.15.76,3.51,3.51,0,0,1-1.36.27,3.73,3.73,0,0,1-1.44-.27,3.26,3.26,0,0,1-1.13-.76,3.46,3.46,0,0,1-.75-1.17,4.1,4.1,0,0,1-.27-1.51,4.24,4.24,0,0,1,.27-1.55,3.55,3.55,0,0,1,.75-1.19,3.29,3.29,0,0,1,1.13-.77,4,4,0,0,1,2.88,0,3.28,3.28,0,0,1,1.15.77,3.37,3.37,0,0,1,.74,1.19A4.24,4.24,0,0,1,256.69,74.84Zm-2.45,0a3.49,3.49,0,0,0-.09-.86,1.65,1.65,0,0,0-.24-.55.77.77,0,0,0-.36-.29,1.21,1.21,0,0,0-.46-.08,1.14,1.14,0,0,0-.46.08.79.79,0,0,0-.35.29,1.66,1.66,0,0,0-.22.55,3.49,3.49,0,0,0-.09.86,3.15,3.15,0,0,0,.09.82,1.54,1.54,0,0,0,.22.53.93.93,0,0,0,.35.28,1.34,1.34,0,0,0,.46.08,1.44,1.44,0,0,0,.46-.08.88.88,0,0,0,.36-.28,1.54,1.54,0,0,0,.24-.53A3.15,3.15,0,0,0,254.24,74.84Z"/>
        </g>
        <g>
          <path class="cls-1" d="M185.45,96.09l.28-.34.25-.33a4.46,4.46,0,0,1-2.15.51,4.24,4.24,0,0,1-1.47-.27,4,4,0,0,1-2.28-2.14,4.62,4.62,0,0,1-.37-1.93,5,5,0,0,1,.37-1.93,4.75,4.75,0,0,1,1.07-1.58A5,5,0,0,1,182.82,87a5.69,5.69,0,0,1,2.16-.4,6.13,6.13,0,0,1,2.17.37,4.66,4.66,0,0,1,1.62,1,4.54,4.54,0,0,1,1,1.6,5.73,5.73,0,0,1,.35,2,7.53,7.53,0,0,1-.44,2.64,9.72,9.72,0,0,1-1.19,2.19l-3.23,4.6a1.67,1.67,0,0,1-.66.5,2.25,2.25,0,0,1-1,.21h-2.95Zm-2.55-4.74c0,1.5.69,2.25,2.08,2.25a2,2,0,0,0,1.57-.62,2.32,2.32,0,0,0,.55-1.63,2.61,2.61,0,0,0-.16-1,1.78,1.78,0,0,0-1.13-1.12,2.69,2.69,0,0,0-.87-.14,2,2,0,0,0-.86.17,1.78,1.78,0,0,0-.64.47,1.94,1.94,0,0,0-.4.7A2.8,2.8,0,0,0,182.9,91.35Z"/>
          <path class="cls-1" d="M198.9,90.4a3.7,3.7,0,0,1-.3,1.51,3.86,3.86,0,0,1-.8,1.17,3.48,3.48,0,0,1-1.14.75,3.6,3.6,0,0,1-1.37.27,3.77,3.77,0,0,1-1.44-.27,3.33,3.33,0,0,1-1.13-.75,3.56,3.56,0,0,1-.75-1.17,4.27,4.27,0,0,1-.26-1.51,4.5,4.5,0,0,1,.26-1.55,3.55,3.55,0,0,1,.75-1.19,3.36,3.36,0,0,1,1.13-.76,3.59,3.59,0,0,1,1.44-.28,3.64,3.64,0,0,1,1.45.28,3.31,3.31,0,0,1,1.14.76,3.55,3.55,0,0,1,.75,1.19A4.27,4.27,0,0,1,198.9,90.4Zm4.71-3.16a2.47,2.47,0,0,1,.38-.32,1.18,1.18,0,0,1,.63-.15H207l-11.31,14.55a1.27,1.27,0,0,1-.39.33,1.19,1.19,0,0,1-.56.13H192.3Zm-7.17,3.16a3.58,3.58,0,0,0-.08-.87,1.48,1.48,0,0,0-.25-.55.91.91,0,0,0-.36-.29,1.34,1.34,0,0,0-.46-.08,1.29,1.29,0,0,0-.45.08.82.82,0,0,0-.35.29,1.66,1.66,0,0,0-.23.55,4.16,4.16,0,0,0-.08.87,3.82,3.82,0,0,0,.08.83,1.48,1.48,0,0,0,.23.52.73.73,0,0,0,.35.28,1.09,1.09,0,0,0,.45.08,1.14,1.14,0,0,0,.46-.08.81.81,0,0,0,.36-.28,1.33,1.33,0,0,0,.25-.52A3.28,3.28,0,0,0,196.44,90.4Zm11.09,7.85a3.7,3.7,0,0,1-.3,1.51,3.76,3.76,0,0,1-.79,1.18,3.52,3.52,0,0,1-1.15.75,3.56,3.56,0,0,1-1.37.27,3.68,3.68,0,0,1-1.43-.27,3.28,3.28,0,0,1-1.14-.75,3.33,3.33,0,0,1-.74-1.18,4.06,4.06,0,0,1-.27-1.51,4.27,4.27,0,0,1,.27-1.55,3.37,3.37,0,0,1,.74-1.19,3.31,3.31,0,0,1,1.14-.76,3.51,3.51,0,0,1,1.43-.28,3.64,3.64,0,0,1,1.45.28,3.31,3.31,0,0,1,1.14.76,3.55,3.55,0,0,1,.75,1.19A4.27,4.27,0,0,1,207.53,98.25Zm-2.45,0a3.49,3.49,0,0,0-.09-.86,1.65,1.65,0,0,0-.24-.55,1,1,0,0,0-.37-.29,1.34,1.34,0,0,0-.46-.08,1.33,1.33,0,0,0-.45.08.88.88,0,0,0-.35.29,1.66,1.66,0,0,0-.23.55,4.12,4.12,0,0,0-.08.86,3.82,3.82,0,0,0,.08.83,1.48,1.48,0,0,0,.23.52.78.78,0,0,0,.35.28,1.12,1.12,0,0,0,.45.08,1.14,1.14,0,0,0,.46-.08.89.89,0,0,0,.37-.28,1.48,1.48,0,0,0,.24-.52A3.23,3.23,0,0,0,205.08,98.25Z"/>
        </g>
        <g>
          <path class="cls-1" d="M13.88,77.85v5.66a8.2,8.2,0,0,1-2.38,1.2,9,9,0,0,1-2.76.4,8.88,8.88,0,0,1-3.22-.55A7.1,7.1,0,0,1,3.08,83a6.86,6.86,0,0,1-1.57-2.39A8.41,8.41,0,0,1,1,77.57a8.66,8.66,0,0,1,.53-3.08A6.73,6.73,0,0,1,3,72.11a6.49,6.49,0,0,1,2.38-1.54A8.43,8.43,0,0,1,8.52,70a9.28,9.28,0,0,1,1.63.13,8.06,8.06,0,0,1,1.39.37,6.5,6.5,0,0,1,1.18.59,7.17,7.17,0,0,1,1,.77l-.56.91a.56.56,0,0,1-.35.26.6.6,0,0,1-.47-.09l-.57-.35a5,5,0,0,0-.77-.4,6.29,6.29,0,0,0-1.08-.33,7.9,7.9,0,0,0-1.48-.13,6,6,0,0,0-2.26.41,4.8,4.8,0,0,0-1.72,1.16,5.2,5.2,0,0,0-1.09,1.84A7,7,0,0,0,3,77.57a7.39,7.39,0,0,0,.39,2.49,5.3,5.3,0,0,0,1.14,1.86,4.8,4.8,0,0,0,1.79,1.17,6.47,6.47,0,0,0,2.35.4,6.36,6.36,0,0,0,1.83-.23,7.53,7.53,0,0,0,1.56-.64V79.37H9.78a.43.43,0,0,1-.32-.11A.36.36,0,0,1,9.34,79V77.85Z"/>
          <path class="cls-1" d="M20.78,74.35a5.22,5.22,0,0,1,2.06.38,4.29,4.29,0,0,1,1.56,1.08,4.68,4.68,0,0,1,1,1.69,7.45,7.45,0,0,1,0,4.45,4.68,4.68,0,0,1-1,1.69,4.26,4.26,0,0,1-1.56,1.07,5.22,5.22,0,0,1-2.06.38,5.32,5.32,0,0,1-2.08-.38,4.3,4.3,0,0,1-1.57-1.07,4.81,4.81,0,0,1-1-1.69,6.73,6.73,0,0,1-.35-2.23,6.8,6.8,0,0,1,.35-2.22,4.81,4.81,0,0,1,1-1.69,4.33,4.33,0,0,1,1.57-1.08A5.32,5.32,0,0,1,20.78,74.35Zm0,9.31a2.66,2.66,0,0,0,2.3-1,5.83,5.83,0,0,0,0-5.79,2.66,2.66,0,0,0-2.3-1,3.25,3.25,0,0,0-1.37.27,2.52,2.52,0,0,0-1,.77,3.46,3.46,0,0,0-.57,1.24,6.53,6.53,0,0,0-.19,1.66,4.77,4.77,0,0,0,.76,2.89A2.73,2.73,0,0,0,20.78,83.66Z"/>
          <path class="cls-1" d="M36.71,74.51,32.46,85H30.81L26.56,74.51h1.49a.55.55,0,0,1,.37.12.56.56,0,0,1,.2.26l2.64,6.72a7.67,7.67,0,0,1,.22.74l.18.72c.05-.24.11-.48.17-.72s.14-.49.23-.74l2.68-6.72a.6.6,0,0,1,.2-.27.58.58,0,0,1,.34-.11Z"/>
          <path class="cls-1" d="M46.58,83.48a3.3,3.3,0,0,1-.81.72,5.36,5.36,0,0,1-1,.5,6,6,0,0,1-1.11.29,6.46,6.46,0,0,1-1.15.1,5.38,5.38,0,0,1-2-.36,4.54,4.54,0,0,1-1.58-1.08,4.84,4.84,0,0,1-1-1.74,7.06,7.06,0,0,1-.37-2.39,6.15,6.15,0,0,1,.33-2,4.86,4.86,0,0,1,1-1.64,4.42,4.42,0,0,1,1.54-1.1,5.08,5.08,0,0,1,2-.39,4.67,4.67,0,0,1,1.73.31,3.74,3.74,0,0,1,1.38.91A4.09,4.09,0,0,1,46.42,77a5.55,5.55,0,0,1,.33,2,1.1,1.1,0,0,1-.1.58c-.06.1-.17.14-.35.14h-7a6.08,6.08,0,0,0,.27,1.72,3.47,3.47,0,0,0,.68,1.23,2.77,2.77,0,0,0,1,.73,3.56,3.56,0,0,0,1.34.24,3.85,3.85,0,0,0,1.19-.16,5.47,5.47,0,0,0,.86-.35,5.13,5.13,0,0,0,.6-.34.77.77,0,0,1,.42-.16.43.43,0,0,1,.35.17ZM45.1,78.59a3.68,3.68,0,0,0-.18-1.17,2.57,2.57,0,0,0-.53-.91,2.31,2.31,0,0,0-.84-.6,3.2,3.2,0,0,0-3.21.55,3.66,3.66,0,0,0-1,2.13Z"/>
          <path class="cls-1" d="M50.73,76.6A4.73,4.73,0,0,1,52,74.93a2.66,2.66,0,0,1,1.76-.6,2.59,2.59,0,0,1,.63.07,1.55,1.55,0,0,1,.54.23L54.75,76a.29.29,0,0,1-.31.26,2.08,2.08,0,0,1-.42-.06,3.06,3.06,0,0,0-.63-.06,2.66,2.66,0,0,0-.88.14,2.06,2.06,0,0,0-.69.43,3,3,0,0,0-.55.7,7.68,7.68,0,0,0-.44.95V85H49V74.51h1a.54.54,0,0,1,.41.12.65.65,0,0,1,.16.39Z"/>
          <path class="cls-1" d="M58.22,76a5.81,5.81,0,0,1,.72-.69,4.5,4.5,0,0,1,.81-.53,3.7,3.7,0,0,1,.91-.34,4.22,4.22,0,0,1,1-.12,3.73,3.73,0,0,1,1.51.28,2.94,2.94,0,0,1,1.09.8A3.46,3.46,0,0,1,65,76.69a5.4,5.4,0,0,1,.23,1.61V85H63.34V78.3a2.82,2.82,0,0,0-.54-1.84,2,2,0,0,0-1.64-.65,3.1,3.1,0,0,0-1.52.39,5.18,5.18,0,0,0-1.31,1.06V85H56.49V74.51h1.1a.46.46,0,0,1,.49.38Z"/>
          <path class="cls-1" d="M68,85V74.51h1.1a.45.45,0,0,1,.48.38L69.71,76A5.23,5.23,0,0,1,71,74.8a3.12,3.12,0,0,1,1.67-.45,2.48,2.48,0,0,1,1.71.58,3.36,3.36,0,0,1,.94,1.59,3.31,3.31,0,0,1,1.38-1.66,3.34,3.34,0,0,1,.94-.39,4.44,4.44,0,0,1,1-.12,3.78,3.78,0,0,1,1.47.26,2.82,2.82,0,0,1,1.09.77,3.37,3.37,0,0,1,.68,1.24,5.41,5.41,0,0,1,.24,1.68V85H80.3V78.3a2.83,2.83,0,0,0-.54-1.86,1.91,1.91,0,0,0-1.54-.63,2.23,2.23,0,0,0-.86.16,2.08,2.08,0,0,0-1.21,1.25A3,3,0,0,0,76,78.3V85H74.13V78.3a2.88,2.88,0,0,0-.51-1.87,1.8,1.8,0,0,0-1.47-.62,2.29,2.29,0,0,0-1.26.37,4.09,4.09,0,0,0-1.06,1V85Z"/>
          <path class="cls-1" d="M93.4,83.48a3.34,3.34,0,0,1-.82.72,5,5,0,0,1-1,.5,5.94,5.94,0,0,1-1.12.29,6.27,6.27,0,0,1-1.14.1,5.34,5.34,0,0,1-2-.36,4.45,4.45,0,0,1-1.58-1.08,4.84,4.84,0,0,1-1-1.74,7.05,7.05,0,0,1-.38-2.39,6.15,6.15,0,0,1,.34-2,4.7,4.7,0,0,1,1-1.64,4.42,4.42,0,0,1,1.54-1.1,5.08,5.08,0,0,1,2-.39,4.67,4.67,0,0,1,1.73.31,3.91,3.91,0,0,1,1.38.91A4.07,4.07,0,0,1,93.23,77a5.55,5.55,0,0,1,.33,2,1.25,1.25,0,0,1-.09.58.37.37,0,0,1-.35.14h-7a6.08,6.08,0,0,0,.27,1.72,3.47,3.47,0,0,0,.68,1.23,2.69,2.69,0,0,0,1,.73,3.5,3.5,0,0,0,1.33.24,3.81,3.81,0,0,0,1.19-.16,5.1,5.1,0,0,0,.86-.35,6.39,6.39,0,0,0,.61-.34.77.77,0,0,1,.41-.16.41.41,0,0,1,.35.17Zm-1.48-4.89a3.68,3.68,0,0,0-.18-1.17,2.57,2.57,0,0,0-.53-.91,2.31,2.31,0,0,0-.84-.6,3.2,3.2,0,0,0-3.21.55,3.6,3.6,0,0,0-1,2.13Z"/>
          <path class="cls-1" d="M97.54,76a5.81,5.81,0,0,1,.72-.69,4.18,4.18,0,0,1,.81-.53,3.55,3.55,0,0,1,.91-.34,4.22,4.22,0,0,1,1-.12,3.77,3.77,0,0,1,1.51.28,2.94,2.94,0,0,1,1.09.8,3.62,3.62,0,0,1,.67,1.26,5.4,5.4,0,0,1,.22,1.61V85h-1.84V78.3a2.82,2.82,0,0,0-.54-1.84,2,2,0,0,0-1.64-.65A3.07,3.07,0,0,0,99,76.2a5.18,5.18,0,0,0-1.31,1.06V85H95.81V74.51h1.1a.47.47,0,0,1,.49.38Z"/>
          <path class="cls-1" d="M110.36,85.11a2.53,2.53,0,0,1-1.9-.69,2.76,2.76,0,0,1-.66-2V76.05h-1.26a.41.41,0,0,1-.27-.1.38.38,0,0,1-.12-.3v-.74l1.71-.21.42-3.23a.48.48,0,0,1,.14-.25.44.44,0,0,1,.29-.1h.92v3.6h3v1.33h-3v6.26a1.34,1.34,0,0,0,.32,1,1.15,1.15,0,0,0,.83.32,1.5,1.5,0,0,0,.5-.08,2,2,0,0,0,.36-.17l.27-.17a.34.34,0,0,1,.19-.08.31.31,0,0,1,.25.18l.54.87a3.47,3.47,0,0,1-1.14.7A3.88,3.88,0,0,1,110.36,85.11Z"/>
          <path class="cls-1" d="M13.89,109.67H12.34a.71.71,0,0,1-.43-.13.94.94,0,0,1-.25-.34l-1.38-3.57H3.66L2.28,109.2a.74.74,0,0,1-.24.33.69.69,0,0,1-.43.14H.06L6,94.91H8Zm-4.17-5.48-2.31-6c-.07-.17-.14-.38-.22-.62S7,97.07,7,96.8a10.52,10.52,0,0,1-.44,1.39l-2.32,6Z"/>
          <path class="cls-1" d="M24.21,99.65v.68c0,.22-.15.37-.44.43l-1.18.15a3.32,3.32,0,0,1,.35,1.51,3.25,3.25,0,0,1-.29,1.38,3.3,3.3,0,0,1-.81,1.07,3.71,3.71,0,0,1-1.24.68,4.9,4.9,0,0,1-1.56.24,5.11,5.11,0,0,1-1.38-.18,1.89,1.89,0,0,0-.51.44.74.74,0,0,0-.17.47.63.63,0,0,0,.3.56,2,2,0,0,0,.8.27,7.3,7.3,0,0,0,1.13.1l1.29.07c.45,0,.88.09,1.3.16a4.17,4.17,0,0,1,1.13.37,1.95,1.95,0,0,1,1.1,1.89,2.79,2.79,0,0,1-.33,1.3,3.62,3.62,0,0,1-1,1.11,4.85,4.85,0,0,1-1.54.79,6.81,6.81,0,0,1-2.05.29,7.91,7.91,0,0,1-2-.23,4.54,4.54,0,0,1-1.42-.61,2.54,2.54,0,0,1-.85-.88,2.06,2.06,0,0,1-.28-1,1.89,1.89,0,0,1,.48-1.31,3.29,3.29,0,0,1,1.33-.85,1.94,1.94,0,0,1-.74-.56,1.47,1.47,0,0,1-.27-.93,1.6,1.6,0,0,1,.08-.47,2.21,2.21,0,0,1,.25-.48,3,3,0,0,1,.42-.46,3.06,3.06,0,0,1,.58-.38,3.19,3.19,0,0,1-1.21-1.15,3.23,3.23,0,0,1-.43-1.66,3.32,3.32,0,0,1,.29-1.39,3.15,3.15,0,0,1,.82-1.06,3.66,3.66,0,0,1,1.25-.67,5.11,5.11,0,0,1,1.6-.24,5.06,5.06,0,0,1,1.26.15,4,4,0,0,1,1.08.44Zm-1.87,10.59a.9.9,0,0,0-.21-.62,1.49,1.49,0,0,0-.58-.37,3.41,3.41,0,0,0-.86-.19q-.48-.06-1-.09l-1.1-.06c-.37,0-.73-.06-1.07-.11a2.92,2.92,0,0,0-.94.68,1.35,1.35,0,0,0-.37,1,1.31,1.31,0,0,0,.18.66,1.57,1.57,0,0,0,.56.52,2.87,2.87,0,0,0,.93.35,5.67,5.67,0,0,0,1.32.13,5.94,5.94,0,0,0,1.33-.13,3.2,3.2,0,0,0,1-.39,2,2,0,0,0,.63-.58A1.42,1.42,0,0,0,22.34,110.24ZM19,104.57a3,3,0,0,0,1-.15,2.13,2.13,0,0,0,.71-.44,1.76,1.76,0,0,0,.43-.66,2.57,2.57,0,0,0,.14-.85,2,2,0,0,0-.58-1.53,2.35,2.35,0,0,0-1.68-.56,2.37,2.37,0,0,0-1.7.56,2,2,0,0,0-.58,1.53,2.34,2.34,0,0,0,.15.85,1.67,1.67,0,0,0,.44.66,2,2,0,0,0,.71.44A2.93,2.93,0,0,0,19,104.57Z"/>
          <path class="cls-1" d="M34.41,108.21a3.28,3.28,0,0,1-.81.71,5,5,0,0,1-1,.5,7.11,7.11,0,0,1-1.12.3,7.49,7.49,0,0,1-1.14.09,5.39,5.39,0,0,1-2-.36,4.39,4.39,0,0,1-1.57-1.07,4.91,4.91,0,0,1-1-1.75,7,7,0,0,1-.37-2.39,6.15,6.15,0,0,1,.33-2,4.88,4.88,0,0,1,1-1.64,4.32,4.32,0,0,1,1.53-1.09,5,5,0,0,1,2-.4,4.68,4.68,0,0,1,1.74.31,4,4,0,0,1,1.38.91,4.16,4.16,0,0,1,.91,1.46,5.57,5.57,0,0,1,.33,2,1.2,1.2,0,0,1-.09.57.38.38,0,0,1-.35.15h-7a6.12,6.12,0,0,0,.28,1.72,3.5,3.5,0,0,0,.67,1.22,2.77,2.77,0,0,0,1,.73,3.59,3.59,0,0,0,1.34.24,3.81,3.81,0,0,0,1.19-.16,6.7,6.7,0,0,0,.86-.34,6.94,6.94,0,0,0,.6-.35.77.77,0,0,1,.42-.16.4.4,0,0,1,.35.18Zm-1.48-4.9a3.68,3.68,0,0,0-.18-1.17,2.64,2.64,0,0,0-.52-.91,2.31,2.31,0,0,0-.84-.6,2.88,2.88,0,0,0-1.13-.21,2.77,2.77,0,0,0-2.08.77,3.57,3.57,0,0,0-.95,2.12Z"/>
          <path class="cls-1" d="M38.56,100.75a4.68,4.68,0,0,1,.72-.69,4.34,4.34,0,0,1,.81-.53,3.89,3.89,0,0,1,.9-.34,4.3,4.3,0,0,1,1-.12,3.77,3.77,0,0,1,1.51.28,2.94,2.94,0,0,1,1.09.81,3.47,3.47,0,0,1,.66,1.25,5.44,5.44,0,0,1,.23,1.61v6.65H43.68V103a2.79,2.79,0,0,0-.54-1.83,2,2,0,0,0-1.65-.66,3.1,3.1,0,0,0-1.52.39,5.14,5.14,0,0,0-1.3,1.06v7.69H36.83V99.23h1.1a.45.45,0,0,1,.48.39Z"/>
          <path class="cls-1" d="M55.58,101.09a.88.88,0,0,1-.16.17.39.39,0,0,1-.23.07.69.69,0,0,1-.34-.13,4.79,4.79,0,0,0-.46-.29,4,4,0,0,0-.67-.28,3,3,0,0,0-1-.13,3.24,3.24,0,0,0-1.36.27,2.7,2.7,0,0,0-1,.79,3.46,3.46,0,0,0-.6,1.25,6.35,6.35,0,0,0-.2,1.64,6.13,6.13,0,0,0,.21,1.68,3.7,3.7,0,0,0,.62,1.24,2.64,2.64,0,0,0,1,.76,3,3,0,0,0,1.26.26,3.16,3.16,0,0,0,1.1-.16,3,3,0,0,0,.72-.35,5.64,5.64,0,0,0,.47-.36.57.57,0,0,1,.38-.16.41.41,0,0,1,.35.18l.51.67a3.51,3.51,0,0,1-.77.72,5.19,5.19,0,0,1-.93.5,5.26,5.26,0,0,1-1.05.29,6.74,6.74,0,0,1-1.11.09,4.58,4.58,0,0,1-1.82-.36,4.2,4.2,0,0,1-1.46-1,5.06,5.06,0,0,1-1-1.69,6.89,6.89,0,0,1-.35-2.27,6.79,6.79,0,0,1,.33-2.16,4.86,4.86,0,0,1,.95-1.7,4.22,4.22,0,0,1,1.53-1.12,5.14,5.14,0,0,1,2.1-.4,5.09,5.09,0,0,1,1.94.35,4.85,4.85,0,0,1,1.49,1Z"/>
          <path class="cls-1" d="M60.49,96a1.22,1.22,0,0,1-.11.5,1.46,1.46,0,0,1-.29.41,1.19,1.19,0,0,1-.42.28,1.26,1.26,0,0,1-.51.11,1.18,1.18,0,0,1-.5-.11,1.15,1.15,0,0,1-.41-.28,1.65,1.65,0,0,1-.28-.41,1.21,1.21,0,0,1-.1-.5,1.25,1.25,0,0,1,.1-.51,1.54,1.54,0,0,1,.28-.42,1.33,1.33,0,0,1,.41-.29,1.18,1.18,0,0,1,.5-.1,1.25,1.25,0,0,1,.51.1,1.42,1.42,0,0,1,.71.71A1.26,1.26,0,0,1,60.49,96Zm-.39,3.27v10.44H58.26V99.23Z"/>
          <path class="cls-1" d="M71.57,108.21a3.69,3.69,0,0,1-.81.71,5.36,5.36,0,0,1-1,.5,7,7,0,0,1-1.11.3,7.52,7.52,0,0,1-1.15.09,5.38,5.38,0,0,1-2-.36,4.52,4.52,0,0,1-1.58-1.07,4.89,4.89,0,0,1-1-1.75,7,7,0,0,1-.37-2.39,6.15,6.15,0,0,1,.33-2,4.86,4.86,0,0,1,1-1.64,4.27,4.27,0,0,1,1.54-1.09,4.92,4.92,0,0,1,2-.4,4.67,4.67,0,0,1,1.73.31,3.87,3.87,0,0,1,1.38.91,4.18,4.18,0,0,1,.92,1.46,5.57,5.57,0,0,1,.33,2,1.06,1.06,0,0,1-.1.57.38.38,0,0,1-.35.15h-7a6.14,6.14,0,0,0,.27,1.72,3.52,3.52,0,0,0,.68,1.22,2.77,2.77,0,0,0,1,.73,3.52,3.52,0,0,0,1.34.24,3.85,3.85,0,0,0,1.19-.16,6.7,6.7,0,0,0,.86-.34,6.94,6.94,0,0,0,.6-.35.77.77,0,0,1,.42-.16.41.41,0,0,1,.35.18Zm-1.48-4.9a3.68,3.68,0,0,0-.18-1.17,2.66,2.66,0,0,0-.53-.91,2.31,2.31,0,0,0-.84-.6,3.18,3.18,0,0,0-3.21.56,3.57,3.57,0,0,0-1,2.12Z"/>
          <path class="cls-1" d="M80.06,101a.39.39,0,0,1-.38.23.74.74,0,0,1-.35-.11,5.15,5.15,0,0,0-.48-.25,4,4,0,0,0-.68-.26,3.16,3.16,0,0,0-.92-.12,2.75,2.75,0,0,0-.84.12,2.07,2.07,0,0,0-.63.32,1.39,1.39,0,0,0-.4.48,1.2,1.2,0,0,0-.14.59,1,1,0,0,0,.23.67,2,2,0,0,0,.61.47,5.84,5.84,0,0,0,.87.34l1,.32c.34.11.67.24,1,.38a3.49,3.49,0,0,1,.86.51,2.38,2.38,0,0,1,.61.76,2.27,2.27,0,0,1,.24,1.08,3.43,3.43,0,0,1-.26,1.33,3,3,0,0,1-.76,1.06,3.66,3.66,0,0,1-1.24.71,5.14,5.14,0,0,1-1.69.25,5.21,5.21,0,0,1-2-.35,5,5,0,0,1-1.5-.91l.43-.7a.67.67,0,0,1,.2-.21.5.5,0,0,1,.29-.07.74.74,0,0,1,.39.14,4,4,0,0,0,.5.32,3.65,3.65,0,0,0,.71.32,3.15,3.15,0,0,0,1.05.15,3,3,0,0,0,.94-.14,2.06,2.06,0,0,0,.67-.38,1.53,1.53,0,0,0,.4-.55,1.75,1.75,0,0,0,.13-.65,1.08,1.08,0,0,0-.24-.72,2,2,0,0,0-.61-.49,5.08,5.08,0,0,0-.87-.35c-.33-.09-.66-.2-1-.31a9.32,9.32,0,0,1-1-.38,3.49,3.49,0,0,1-.87-.53,2.35,2.35,0,0,1-.61-.78,2.52,2.52,0,0,1-.23-1.14,2.86,2.86,0,0,1,.24-1.15,3,3,0,0,1,.72-1,3.5,3.5,0,0,1,1.17-.66,4.52,4.52,0,0,1,1.58-.25,5.07,5.07,0,0,1,1.84.32,4.56,4.56,0,0,1,1.42.89Z"/>
        </g>
        <polyline class="cls-7" points="359.66 227.46 405.46 273.26 489.67 273.26"/>
        <polyline class="cls-7" points="125.1 137.99 100 121.31 0 121.31"/>
        <polyline class="cls-7" points="181.93 304.2 136.13 350 70.09 350"/>
        <polyline class="cls-7" points="182.67 71.55 162.7 51.57 92.9 51.57"/>
        <polyline class="cls-7" points="238.13 46.76 238.13 27.03 359.66 27.03"/>
      </g>
    </g>
  </g>
</svg>
