<?xml version="1.0" encoding="utf-8"?>
<!-- Generator: Adobe Illustrator 23.0.1, SVG Export Plug-In . SVG Version: 6.00 Build 0)  -->
<svg version="1.1" id="Layer_1" xmlns="http://www.w3.org/2000/svg" xmlns:xlink="http://www.w3.org/1999/xlink" x="0px" y="0px"
	 viewBox="0 0 538.3 474.7" style="enable-background:new 0 0 538.3 474.7;" xml:space="preserve">
<style type="text/css">
	.st0{fill:#C0392B;}
	.st1{fill:#FFFFFF;}
	.st2{fill:none;stroke:#FFFFFF;stroke-width:2;}
	.st3{fill:#FFFFFF;stroke:#FFFFFF;stroke-width:2;}
	.st4{opacity:0.5;}
	.st5{opacity:0.5;fill:none;stroke:#C0392B;enable-background:new    ;}
</style>
<title>2017-webpage-views</title>
<g id="Layer_2_1_">
	<g id="Layer_1-2_1_">
		<g>
			<g>
				<circle class="st0" cx="503" cy="122" r="4"/>
				<circle class="st0" cx="94" cy="4" r="4"/>
				<circle class="st0" cx="307" cy="191.8" r="2"/>
				<circle class="st0" cx="2" cy="327" r="2"/>
				<circle class="st1" cx="160" cy="24" r="2"/>
				<circle class="st1" cx="523" cy="172" r="2"/>
				<circle class="st1" cx="312" cy="241" r="2"/>
			</g>
			<g>
				<path class="st2" d="M206,184.1l101,67"/>
			</g>
			<g>
				<circle class="st2" cx="118.1" cy="163.1" r="114"/>
				<circle id="r15_1_" class="st3" cx="118.1" cy="163.1" r="114"/>
				<g class="st4">
					<circle class="st5" cx="118.1" cy="163.1" r="88"/>
				</g>
			</g>
			<g>
				<circle class="st2" cx="405.3" cy="341.7" r="132"/>
				<circle id="r16_2_" class="st3" cx="405.3" cy="341.7" r="132"/>
				<circle class="st5" cx="405.3" cy="341.7" r="110"/>
			</g>
			<g>
				<path class="st0" d="M326.2,324.1h-4v-6.2h10.9v49h-6.9V324.1z"/>
				<path class="st0" d="M341.7,328.2c0-6.7,4.6-10.8,11.6-10.8c6.9,0,11.6,4.1,11.6,10.8v28.4c0,6.7-4.7,10.8-11.6,10.8
					c-6.9,0-11.6-4.1-11.6-10.8V328.2z M357.9,328.8c0-3.1-1.6-5.2-4.6-5.2c-3,0-4.7,2.1-4.7,5.2V356c0,3.1,1.7,5.2,4.7,5.2
					c3,0,4.6-2.1,4.6-5.2V328.8z"/>
				<path class="st0" d="M371.3,327.4c0-5.8,4.4-9.9,11.7-9.9c7.2,0,11.1,4,11.1,10.2v6.4h-6.9v-6.4c0-2.2-1.3-4.5-4.4-4.5
					c-2.9,0-4.6,1.9-4.6,4.7v12.7c1.5-1.6,3.8-2.7,7-2.7c5.4,0,9.2,3.2,9.2,9.4v9.6c0,6.3-4.2,10.6-11.6,10.6
					c-7.1,0-11.7-3.9-11.7-10.2V327.4z M378.3,356.8c0,2.5,1.5,4.5,4.7,4.5c3,0,4.6-1.9,4.6-4.6v-8.9c0-2.7-1.4-4.8-4.6-4.8
					c-3.2,0-4.7,2.2-4.7,4.5V356.8z"/>
				<path class="st0" d="M402,358.6h6.4l-6.3,14.7h-5L402,358.6z"/>
				<path class="st0" d="M413.4,349.5c0-4.1,1.8-6.6,5.4-7.7c-3.5-1.2-5.3-4.2-5.3-8.1v-6.4c0-5.8,4.3-9.9,11.6-9.9
					c7.3,0,11.6,4.1,11.6,9.9v6.4c0,3.9-1.9,6.9-5.3,8.1c3.6,1.1,5.5,3.6,5.5,7.7v7.5c0,6.7-4.8,10.4-11.8,10.4
					c-6.9,0-11.7-3.8-11.7-10.4V349.5z M420.3,356.3c0,2.9,1.8,5,4.8,5c3,0,4.8-2.1,4.8-5v-7.7c0-3.2-1.5-4.5-4.2-4.6H425
					c-2.9,0.1-4.6,1.2-4.6,4.6V356.3z M425.2,339.3c2.6-0.1,4.6-1.5,4.6-4.8v-6.7c0-2.8-1.9-4.7-4.8-4.7c-2.9,0-4.7,1.9-4.7,4.7v6.7
					c0,3.1,1.8,4.6,4.3,4.8H425.2z"/>
				<path class="st0" d="M445.9,324.1h-4v-6.2h10.9v49h-6.9V324.1z"/>
				<path class="st0" d="M461.4,328.2c0-6.7,4.6-10.8,11.6-10.8c6.9,0,11.6,4.1,11.6,10.8v28.4c0,6.7-4.7,10.8-11.6,10.8
					c-6.9,0-11.6-4.1-11.6-10.8V328.2z M477.6,328.8c0-3.1-1.6-5.2-4.6-5.2c-3,0-4.7,2.1-4.7,5.2V356c0,3.1,1.7,5.2,4.7,5.2
					c3,0,4.6-2.1,4.6-5.2V328.8z"/>
			</g>
			<g>
				<path class="st1" d="M100.8,32.9c0.3,0,0.5,0.1,0.7,0.2c0.2,0.2,0.3,0.4,0.3,0.7v1.6H91.7v-0.9c0-0.2,0-0.4,0.1-0.6
					s0.2-0.4,0.4-0.6l4.3-4.3c0.4-0.4,0.7-0.7,1-1.1s0.5-0.7,0.7-1c0.2-0.3,0.3-0.7,0.4-1c0.1-0.3,0.1-0.7,0.1-1
					c0-0.6-0.2-1.1-0.5-1.5s-0.8-0.5-1.4-0.5c-0.3,0-0.5,0-0.7,0.1c-0.2,0.1-0.4,0.2-0.6,0.3S95.1,23.8,95,24
					c-0.1,0.2-0.2,0.4-0.3,0.6c-0.1,0.3-0.3,0.6-0.5,0.7c-0.2,0.1-0.5,0.1-0.9,0.1L91.9,25c0.1-0.7,0.3-1.3,0.6-1.9
					c0.3-0.5,0.7-1,1.1-1.3c0.4-0.4,0.9-0.6,1.5-0.8s1.2-0.3,1.8-0.3c0.7,0,1.3,0.1,1.9,0.3c0.6,0.2,1,0.5,1.4,0.9
					c0.4,0.4,0.7,0.8,0.9,1.3c0.2,0.5,0.3,1.1,0.3,1.7c0,0.5-0.1,1-0.2,1.5c-0.2,0.5-0.4,0.9-0.6,1.3c-0.3,0.4-0.6,0.8-0.9,1.2
					s-0.7,0.8-1.1,1.2l-3.1,3.2c0.3-0.1,0.7-0.2,1-0.2c0.3-0.1,0.6-0.1,0.9-0.1H100.8z"/>
				<path class="st1" d="M113.7,28.2c0,1.3-0.1,2.4-0.4,3.3c-0.3,0.9-0.7,1.7-1.1,2.3c-0.5,0.6-1,1.1-1.7,1.4
					c-0.7,0.3-1.4,0.4-2.1,0.4s-1.5-0.1-2.1-0.4s-1.2-0.8-1.7-1.4c-0.5-0.6-0.8-1.4-1.1-2.3c-0.3-0.9-0.4-2-0.4-3.3s0.1-2.4,0.4-3.3
					c0.3-0.9,0.6-1.7,1.1-2.3c0.5-0.6,1-1.1,1.7-1.4c0.7-0.3,1.4-0.4,2.1-0.4s1.5,0.1,2.1,0.4c0.7,0.3,1.2,0.8,1.7,1.4
					c0.5,0.6,0.9,1.4,1.1,2.3C113.6,25.8,113.7,26.9,113.7,28.2z M110.9,28.2c0-1-0.1-1.9-0.2-2.5s-0.3-1.2-0.6-1.6
					s-0.5-0.7-0.8-0.8c-0.3-0.2-0.6-0.2-0.9-0.2s-0.6,0.1-0.9,0.2c-0.3,0.2-0.6,0.4-0.8,0.8c-0.2,0.4-0.4,0.9-0.6,1.6
					c-0.1,0.7-0.2,1.5-0.2,2.5c0,1,0.1,1.9,0.2,2.5c0.1,0.7,0.3,1.2,0.6,1.6c0.2,0.4,0.5,0.7,0.8,0.8c0.3,0.2,0.6,0.2,0.9,0.2
					s0.6-0.1,0.9-0.2c0.3-0.2,0.6-0.4,0.8-0.8c0.2-0.4,0.4-0.9,0.6-1.6S110.9,29.2,110.9,28.2z"/>
				<path class="st1" d="M124.6,33.4v2h-8.1v-2h2.9v-7.9c0-0.2,0-0.4,0-0.5s0-0.4,0-0.5l-1.9,1.6c-0.1,0.1-0.3,0.2-0.4,0.2
					c-0.1,0-0.2,0-0.4,0c-0.1,0-0.2-0.1-0.3-0.1s-0.2-0.1-0.2-0.2l-0.9-1.2l4.5-3.8h2.3v12.5H124.6z"/>
				<path class="st1" d="M136.8,21v1.2c0,0.3,0,0.6-0.1,0.8c-0.1,0.2-0.2,0.4-0.2,0.5l-5.3,11c-0.1,0.3-0.3,0.5-0.5,0.7
					c-0.2,0.2-0.5,0.3-0.9,0.3h-2l5.4-10.8c0.1-0.3,0.3-0.5,0.4-0.7c0.1-0.2,0.3-0.4,0.5-0.6h-6.7c-0.2,0-0.3-0.1-0.4-0.2
					c-0.1-0.1-0.2-0.3-0.2-0.4V21H136.8z"/>
			</g>
			<g>
				<path class="st0" d="M50.3,167.3c0-4.1,1.8-6.6,5.4-7.7c-3.5-1.2-5.3-4.2-5.3-8.1v-6.4c0-5.8,4.3-9.9,11.6-9.9
					c7.3,0,11.6,4.1,11.6,9.9v6.4c0,3.9-1.9,6.9-5.3,8.1c3.6,1.1,5.5,3.6,5.5,7.7v7.5c0,6.7-4.8,10.4-11.8,10.4
					c-6.9,0-11.7-3.8-11.7-10.4V167.3z M57.2,174.1c0,2.9,1.8,5,4.8,5c3,0,4.8-2.1,4.8-5v-7.7c0-3.2-1.5-4.5-4.2-4.6h-0.7
					c-2.9,0.1-4.6,1.2-4.6,4.6V174.1z M62.1,157c2.6-0.1,4.6-1.5,4.6-4.8v-6.7c0-2.8-1.9-4.7-4.8-4.7c-2.9,0-4.7,1.9-4.7,4.7v6.7
					c0,3.1,1.8,4.6,4.3,4.8H62.1z"/>
				<path class="st0" d="M77.1,165l13.6-29.3h9.2V165h5.3v5.9h-5.3v13.9h-6.9v-13.9h-16V165z M93.1,165V143L83.5,165H93.1z"/>
				<path class="st0" d="M110.6,176.4h6.4l-6.3,14.7h-5L110.6,176.4z"/>
				<path class="st0" d="M125.2,141.8h-4v-6.2h10.9v49h-6.9V141.8z"/>
				<path class="st0" d="M143.6,141.8h-4v-6.2h10.9v49h-6.9V141.8z"/>
				<path class="st0" d="M156.3,165l13.6-29.3h9.2V165h5.3v5.9h-5.3v13.9h-6.9v-13.9h-16V165z M172.3,165V143l-9.5,21.9H172.3z"/>
			</g>
		</g>
	</g>
</g>
<g>
	<path class="st1" d="M255.2,241.6c0.3,0,0.5,0.1,0.7,0.2c0.2,0.2,0.3,0.4,0.3,0.7v1.6h-10.1v-0.9c0-0.2,0-0.4,0.1-0.6
		s0.2-0.4,0.4-0.6l4.3-4.3c0.4-0.4,0.7-0.7,1-1.1c0.3-0.3,0.5-0.7,0.7-1s0.3-0.7,0.4-1c0.1-0.3,0.1-0.7,0.1-1c0-0.6-0.2-1.1-0.5-1.5
		c-0.3-0.3-0.8-0.5-1.4-0.5c-0.3,0-0.5,0-0.7,0.1c-0.2,0.1-0.4,0.2-0.6,0.3c-0.2,0.1-0.3,0.3-0.5,0.5c-0.1,0.2-0.2,0.4-0.3,0.6
		c-0.1,0.3-0.3,0.6-0.5,0.7c-0.2,0.1-0.5,0.1-0.9,0.1l-1.5-0.3c0.1-0.7,0.3-1.3,0.6-1.9c0.3-0.5,0.7-1,1.1-1.3
		c0.4-0.4,0.9-0.6,1.5-0.8c0.6-0.2,1.2-0.3,1.8-0.3c0.7,0,1.3,0.1,1.9,0.3c0.6,0.2,1,0.5,1.4,0.9c0.4,0.4,0.7,0.8,0.9,1.3
		c0.2,0.5,0.3,1.1,0.3,1.7c0,0.5-0.1,1-0.2,1.5c-0.2,0.5-0.4,0.9-0.6,1.3c-0.3,0.4-0.6,0.8-0.9,1.2s-0.7,0.8-1.1,1.2l-3.1,3.2
		c0.3-0.1,0.7-0.2,1-0.2c0.3-0.1,0.6-0.1,0.9-0.1H255.2z"/>
	<path class="st1" d="M268.2,236.9c0,1.3-0.1,2.4-0.4,3.3c-0.3,0.9-0.7,1.7-1.1,2.3c-0.5,0.6-1,1.1-1.7,1.4
		c-0.7,0.3-1.4,0.4-2.1,0.4c-0.8,0-1.5-0.1-2.1-0.4c-0.7-0.3-1.2-0.8-1.7-1.4c-0.5-0.6-0.8-1.4-1.1-2.3c-0.3-0.9-0.4-2-0.4-3.3
		s0.1-2.4,0.4-3.3c0.3-0.9,0.6-1.7,1.1-2.3c0.5-0.6,1-1.1,1.7-1.4c0.7-0.3,1.4-0.4,2.1-0.4c0.8,0,1.5,0.1,2.1,0.4
		c0.7,0.3,1.2,0.8,1.7,1.4c0.5,0.6,0.9,1.4,1.1,2.3C268.1,234.5,268.2,235.6,268.2,236.9z M265.4,236.9c0-1-0.1-1.9-0.2-2.5
		s-0.3-1.2-0.6-1.6s-0.5-0.7-0.8-0.8c-0.3-0.2-0.6-0.2-0.9-0.2c-0.3,0-0.6,0.1-0.9,0.2c-0.3,0.2-0.6,0.4-0.8,0.8
		c-0.2,0.4-0.4,0.9-0.6,1.6s-0.2,1.5-0.2,2.5c0,1,0.1,1.9,0.2,2.5s0.3,1.2,0.6,1.6c0.2,0.4,0.5,0.7,0.8,0.8s0.6,0.2,0.9,0.2
		c0.3,0,0.6-0.1,0.9-0.2c0.3-0.2,0.6-0.4,0.8-0.8s0.4-0.9,0.6-1.6S265.4,237.9,265.4,236.9z"/>
	<path class="st1" d="M279.1,242.1v2h-8.1v-2h2.9v-7.9c0-0.2,0-0.4,0-0.5s0-0.4,0-0.5l-1.9,1.6c-0.1,0.1-0.3,0.2-0.4,0.2
		c-0.1,0-0.2,0-0.4,0c-0.1,0-0.2-0.1-0.3-0.1c-0.1-0.1-0.2-0.1-0.2-0.2l-0.9-1.2l4.5-3.8h2.3v12.5H279.1z"/>
	<path class="st1" d="M288.6,236.6c0.9,0.3,1.5,0.7,1.9,1.3c0.4,0.6,0.6,1.3,0.6,2.1c0,0.6-0.1,1.2-0.4,1.8c-0.2,0.5-0.6,1-1,1.3
		s-1,0.7-1.6,0.9c-0.6,0.2-1.3,0.3-2.1,0.3c-0.8,0-1.5-0.1-2.1-0.3c-0.6-0.2-1.2-0.5-1.6-0.9c-0.4-0.4-0.8-0.8-1-1.3
		c-0.2-0.5-0.4-1.1-0.4-1.8c0-0.8,0.2-1.5,0.6-2.1c0.4-0.6,1-1,1.9-1.3c-0.7-0.3-1.2-0.7-1.5-1.3c-0.3-0.5-0.5-1.2-0.5-1.9
		c0-0.6,0.1-1.1,0.3-1.6s0.5-0.9,1-1.2c0.4-0.3,0.9-0.6,1.5-0.8c0.6-0.2,1.2-0.3,1.9-0.3c0.7,0,1.3,0.1,1.9,0.3s1.1,0.5,1.5,0.8
		s0.7,0.8,1,1.2s0.3,1,0.3,1.6c0,0.7-0.2,1.4-0.5,1.9S289.3,236.2,288.6,236.6z M286.1,242.2c0.4,0,0.7-0.1,1-0.2s0.5-0.3,0.7-0.5
		s0.3-0.4,0.4-0.7c0.1-0.3,0.1-0.6,0.1-0.9c0-0.7-0.2-1.3-0.6-1.7s-0.9-0.6-1.7-0.6s-1.3,0.2-1.7,0.6c-0.4,0.4-0.6,1-0.6,1.7
		c0,0.3,0,0.6,0.1,0.9c0.1,0.3,0.2,0.5,0.4,0.7c0.2,0.2,0.4,0.4,0.7,0.5C285.3,242.1,285.7,242.2,286.1,242.2z M286.1,231.5
		c-0.3,0-0.6,0.1-0.9,0.2c-0.2,0.1-0.4,0.2-0.6,0.4s-0.3,0.4-0.3,0.6s-0.1,0.5-0.1,0.7c0,0.3,0,0.5,0.1,0.8c0.1,0.3,0.2,0.5,0.3,0.7
		c0.1,0.2,0.3,0.4,0.6,0.5c0.2,0.1,0.6,0.2,0.9,0.2c0.4,0,0.7-0.1,0.9-0.2c0.2-0.1,0.4-0.3,0.6-0.5s0.2-0.4,0.3-0.7
		c0.1-0.3,0.1-0.5,0.1-0.8c0-0.3,0-0.5-0.1-0.7s-0.2-0.4-0.3-0.6c-0.2-0.2-0.4-0.3-0.6-0.4C286.7,231.5,286.4,231.5,286.1,231.5z"/>
</g>
</svg>
