<svg xmlns="http://www.w3.org/2000/svg" width="538.3" height="799.38" viewBox="0 0 538.3 799.38">
  <defs>
    <style>
      .cls-1 {
        fill: #c0392b;
      }

      .cls-2, .cls-4 {
        fill: #fff;
      }

      .cls-3, .cls-5 {
        fill: none;
      }

      .cls-3, .cls-4 {
        stroke: #fff;
        stroke-width: 2px;
      }

      .cls-5 {
        stroke: #c0392b;
        isolation: isolate;
      }

      .cls-5, .cls-6 {
        opacity: 0.5;
      }
    </style>
  </defs>
  <title>2017-webpage-views</title>
  <g id="Layer_2" data-name="Layer 2">
    <g id="Layer_1-2" data-name="Layer 1">
      <g>
        <g id="Layer_2-2" data-name="Layer 2">
          <g id="Layer_1-2-2" data-name="Layer 1-2">
            <g>
              <g>
                <circle class="cls-1" cx="503" cy="446.67" r="4"/>
                <circle class="cls-1" cx="94" cy="328.67" r="4"/>
                <circle class="cls-1" cx="307" cy="516.43" r="2"/>
                <circle class="cls-1" cx="2" cy="651.67" r="2"/>
                <circle class="cls-1" cx="237" cy="12.67" r="2"/>
                <circle class="cls-2" cx="160" cy="348.67" r="2"/>
                <g>
                  <circle class="cls-1" cx="325" cy="146.67" r="4"/>
                  <circle class="cls-2" cx="346" cy="95.67" r="2"/>
                </g>
                <circle class="cls-2" cx="523" cy="496.67" r="2"/>
                <circle class="cls-2" cx="312" cy="565.67" r="2"/>
              </g>
              <g>
                <path class="cls-3" d="M206,164.67l101,67"/>
                <path class="cls-3" d="M206,508.76l101,67"/>
                <path class="cls-3" d="M313,388.67l-101,67"/>
              </g>
              <g>
                <path class="cls-2" d="M116.29,12.14a1,1,0,0,1,.71.25.91.91,0,0,1,.25.66v1.62H107.19v-.9a1.55,1.55,0,0,1,.11-.56,1.49,1.49,0,0,1,.37-.55L112,8.34c.37-.37.7-.72,1-1a6.9,6.9,0,0,0,.7-1,4.41,4.41,0,0,0,.42-1,3.77,3.77,0,0,0,.14-1,2,2,0,0,0-.5-1.47,1.92,1.92,0,0,0-1.41-.5,2.27,2.27,0,0,0-.73.11,1.93,1.93,0,0,0-.6.32,2.05,2.05,0,0,0-.46.47,1.88,1.88,0,0,0-.28.59,1.11,1.11,0,0,1-.49.67,1.34,1.34,0,0,1-.86.08l-1.46-.26a5.56,5.56,0,0,1,.6-1.86,4.55,4.55,0,0,1,1.1-1.33,4.55,4.55,0,0,1,1.51-.79A6.28,6.28,0,0,1,112.45,0a5.45,5.45,0,0,1,1.88.3,4.46,4.46,0,0,1,1.44.85,3.78,3.78,0,0,1,.93,1.31,4.33,4.33,0,0,1,.33,1.7,4.67,4.67,0,0,1-.23,1.48,5.68,5.68,0,0,1-.62,1.29,8.79,8.79,0,0,1-.92,1.19c-.35.39-.71.78-1.1,1.17l-3.08,3.15a8.56,8.56,0,0,1,1-.24,5.86,5.86,0,0,1,.94-.08Z"/>
                <path class="cls-2" d="M129.25,7.41a11.85,11.85,0,0,1-.41,3.3A6.72,6.72,0,0,1,127.71,13,4.59,4.59,0,0,1,126,14.38a5.3,5.3,0,0,1-4.24,0A4.45,4.45,0,0,1,120.07,13,6.76,6.76,0,0,1,119,10.71a11.89,11.89,0,0,1-.4-3.3,11.77,11.77,0,0,1,.4-3.29,6.7,6.7,0,0,1,1.12-2.31A4.41,4.41,0,0,1,121.76.45a5.3,5.3,0,0,1,4.24,0,4.54,4.54,0,0,1,1.71,1.36,6.91,6.91,0,0,1,1.13,2.31A11.78,11.78,0,0,1,129.25,7.41Zm-2.85,0a12,12,0,0,0-.21-2.54,5.23,5.23,0,0,0-.56-1.58A2,2,0,0,0,123,2.52a2.05,2.05,0,0,0-.79.81,5.23,5.23,0,0,0-.56,1.58,12.75,12.75,0,0,0-.21,2.54,12.09,12.09,0,0,0,.21,2.55,5.23,5.23,0,0,0,.56,1.58,2,2,0,0,0,.79.81,2,2,0,0,0,.92.23,2,2,0,0,0,1.74-1,5.23,5.23,0,0,0,.56-1.58A12.91,12.91,0,0,0,126.4,7.41Z"/>
                <path class="cls-2" d="M140.12,12.64v2H132v-2h2.88v-9L133,5.2a1,1,0,0,1-.39.19.73.73,0,0,1-.36,0,.79.79,0,0,1-.3-.12.86.86,0,0,1-.2-.18l-.87-1.17L135.34.15h2.27V12.64Z"/>
                <path class="cls-2" d="M152.42,9.13v1.56a.51.51,0,0,1-.51.53h-1.17v3.45h-2.4V11.22h-6a.78.78,0,0,1-.47-.16.66.66,0,0,1-.27-.42l-.29-1.38,6.8-9.11h2.62v9Zm-4.08,0v-5a4.61,4.61,0,0,1,.08-.8l-4.2,5.85Z"/>
              </g>
              <g>
                <circle class="cls-3" cx="130.46" cy="115.12" r="88"/>
                <circle id="r14" class="cls-4" cx="130.46" cy="115.12" r="88"/>
                <circle class="cls-5" cx="130.46" cy="115.12" r="66"/>
              </g>
              <g>
                <path class="cls-2" d="M391.12,157.47a1,1,0,0,1,.71.25.91.91,0,0,1,.25.66V160H382v-.9a1.55,1.55,0,0,1,.11-.56,1.49,1.49,0,0,1,.37-.55l4.3-4.31c.37-.37.7-.72,1-1.05a6.9,6.9,0,0,0,.7-1,4.41,4.41,0,0,0,.42-1,3.77,3.77,0,0,0,.14-1,2,2,0,0,0-.5-1.47,1.92,1.92,0,0,0-1.41-.5,2.33,2.33,0,0,0-.74.11,1.93,1.93,0,0,0-.6.32,2.05,2.05,0,0,0-.46.47,1.88,1.88,0,0,0-.28.59,1.11,1.11,0,0,1-.49.67,1.34,1.34,0,0,1-.86.08l-1.46-.26a5.56,5.56,0,0,1,.6-1.86,4.34,4.34,0,0,1,2.61-2.12,6,6,0,0,1,1.83-.26,5.45,5.45,0,0,1,1.88.3,4.46,4.46,0,0,1,1.44.85,3.78,3.78,0,0,1,.93,1.31,4.33,4.33,0,0,1,.33,1.7,4.67,4.67,0,0,1-.23,1.48,5.68,5.68,0,0,1-.62,1.29,8.79,8.79,0,0,1-.92,1.19c-.35.39-.71.78-1.1,1.17l-3.08,3.15a8.56,8.56,0,0,1,1-.24,6,6,0,0,1,.94-.08Z"/>
                <path class="cls-2" d="M404.08,152.74a11.85,11.85,0,0,1-.41,3.3,6.68,6.68,0,0,1-1.13,2.32,4.54,4.54,0,0,1-1.71,1.36,5.3,5.3,0,0,1-4.24,0,4.4,4.4,0,0,1-1.69-1.36,6.66,6.66,0,0,1-1.12-2.32,13.61,13.61,0,0,1,0-6.59,6.7,6.7,0,0,1,1.12-2.31,4.4,4.4,0,0,1,1.69-1.36,5.3,5.3,0,0,1,4.24,0,4.54,4.54,0,0,1,1.71,1.36,6.91,6.91,0,0,1,1.13,2.31A11.78,11.78,0,0,1,404.08,152.74Zm-2.85,0a12,12,0,0,0-.21-2.54,5.25,5.25,0,0,0-.57-1.58,1.94,1.94,0,0,0-1.74-1,2,2,0,0,0-.92.23,2.05,2.05,0,0,0-.79.81,5.21,5.21,0,0,0-.55,1.58,15.53,15.53,0,0,0,0,5.09,5.21,5.21,0,0,0,.55,1.58,2.05,2.05,0,0,0,.79.81,2,2,0,0,0,2.66-.77,5.25,5.25,0,0,0,.57-1.58,12.91,12.91,0,0,0,.21-2.63Z"/>
                <path class="cls-2" d="M415,158v2h-8.14v-2h2.88v-9.08l-1.9,1.58a1,1,0,0,1-.39.19.73.73,0,0,1-.36,0,.79.79,0,0,1-.3-.12.86.86,0,0,1-.2-.18l-.87-1.17,4.46-3.78h2.27V158Z"/>
                <path class="cls-2" d="M420.36,150.69a8.7,8.7,0,0,1,.87-.13h.8a5.48,5.48,0,0,1,2,.35,4.3,4.3,0,0,1,1.47.94,3.82,3.82,0,0,1,.9,1.41,5.18,5.18,0,0,1,.3,1.74,5.3,5.3,0,0,1-.41,2.12,4.77,4.77,0,0,1-1.13,1.64,5.17,5.17,0,0,1-1.73,1.07,6.1,6.1,0,0,1-2.2.38,5.87,5.87,0,0,1-1.32-.15,6.18,6.18,0,0,1-1.17-.39,6.61,6.61,0,0,1-1-.57,6,6,0,0,1-.84-.67l.85-1.16a.85.85,0,0,1,.7-.37,1,1,0,0,1,.53.16l.59.36a5.4,5.4,0,0,0,.77.36,3,3,0,0,0,1.07.16,2.74,2.74,0,0,0,1.13-.21,2.28,2.28,0,0,0,.79-.59,2.31,2.31,0,0,0,.47-.89,3.77,3.77,0,0,0,.16-1.11,2.32,2.32,0,0,0-.65-1.75,2.6,2.6,0,0,0-1.87-.61,6,6,0,0,0-2,.38l-1.71-.48,1.22-7.14h7.28v1.16a1.53,1.53,0,0,1-.08.52,1,1,0,0,1-.28.41,1.29,1.29,0,0,1-.5.27,2.37,2.37,0,0,1-.75.09h-3.75Z"/>
              </g>
              <g>
                <circle class="cls-3" cx="118.09" cy="487.76" r="114"/>
                <circle id="r15" class="cls-4" cx="118.09" cy="487.76" r="114"/>
                <g class="cls-6">
                  <circle class="cls-5" cx="118.09" cy="487.76" r="88"/>
                </g>
              </g>
              <g>
                <path class="cls-2" d="M100.79,357.14a1,1,0,0,1,.71.25.91.91,0,0,1,.25.66v1.62H91.69v-.9a1.55,1.55,0,0,1,.11-.56,1.49,1.49,0,0,1,.37-.55l4.3-4.31c.37-.37.7-.72,1-1.05a6.9,6.9,0,0,0,.7-1,4.41,4.41,0,0,0,.42-1,3.77,3.77,0,0,0,.14-1,2,2,0,0,0-.5-1.47,1.92,1.92,0,0,0-1.41-.5,2.27,2.27,0,0,0-.73.11,1.93,1.93,0,0,0-.6.32,2.05,2.05,0,0,0-.46.47,1.88,1.88,0,0,0-.28.59,1.11,1.11,0,0,1-.49.67,1.34,1.34,0,0,1-.86.08l-1.46-.26a5.56,5.56,0,0,1,.6-1.86,4.34,4.34,0,0,1,2.61-2.12A6.16,6.16,0,0,1,97,345a5.45,5.45,0,0,1,1.88.3,4.46,4.46,0,0,1,1.44.85,3.78,3.78,0,0,1,.93,1.31,4.33,4.33,0,0,1,.33,1.7,4.67,4.67,0,0,1-.23,1.48,5.68,5.68,0,0,1-.62,1.29,8.79,8.79,0,0,1-.92,1.19c-.35.39-.71.78-1.1,1.17l-3.08,3.15a8.56,8.56,0,0,1,1-.24,5.86,5.86,0,0,1,.94-.08Z"/>
                <path class="cls-2" d="M113.75,352.41a11.85,11.85,0,0,1-.41,3.3,6.86,6.86,0,0,1-1.13,2.32,4.54,4.54,0,0,1-1.71,1.36,5.3,5.3,0,0,1-4.24,0,4.4,4.4,0,0,1-1.69-1.36,6.66,6.66,0,0,1-1.12-2.32,13.61,13.61,0,0,1,0-6.59,6.7,6.7,0,0,1,1.12-2.31,4.4,4.4,0,0,1,1.69-1.36,5.3,5.3,0,0,1,4.24,0,4.54,4.54,0,0,1,1.71,1.36,6.91,6.91,0,0,1,1.13,2.31A11.78,11.78,0,0,1,113.75,352.41Zm-2.85,0a12,12,0,0,0-.21-2.54,5.23,5.23,0,0,0-.56-1.58,2,2,0,0,0-2.66-.77,2.05,2.05,0,0,0-.79.81,5.23,5.23,0,0,0-.56,1.58,15.53,15.53,0,0,0,0,5.09,5.23,5.23,0,0,0,.56,1.58,2,2,0,0,0,.79.81,2,2,0,0,0,.92.23,2,2,0,0,0,1.74-1,5.23,5.23,0,0,0,.56-1.58A12.91,12.91,0,0,0,110.9,352.41Z"/>
                <path class="cls-2" d="M124.62,357.64v2h-8.14v-2h2.88v-9l-1.9,1.58a1,1,0,0,1-.39.19.73.73,0,0,1-.36,0,.79.79,0,0,1-.3-.12.86.86,0,0,1-.2-.18l-.87-1.17,4.46-3.78h2.27v12.49Z"/>
                <path class="cls-2" d="M131.22,350.37l-.44.53a3.91,3.91,0,0,1,.82-.26,5.55,5.55,0,0,1,1-.09,4.73,4.73,0,0,1,1.58.27,3.9,3.9,0,0,1,2.33,2.17,4.68,4.68,0,0,1,.36,1.92,4.78,4.78,0,0,1-.37,1.91,4.64,4.64,0,0,1-1.06,1.57,4.92,4.92,0,0,1-1.64,1.06,5.46,5.46,0,0,1-2.12.39,5.73,5.73,0,0,1-2.13-.37,4.5,4.5,0,0,1-1.6-1.05,4.68,4.68,0,0,1-1-1.62,6,6,0,0,1,.06-4.22,9.6,9.6,0,0,1,1.27-2.22l3.37-4.54a1.63,1.63,0,0,1,.59-.45,2,2,0,0,1,.89-.19h2.45Zm.36,7.24a2.65,2.65,0,0,0,1-.19,2.24,2.24,0,0,0,.79-.53,2.58,2.58,0,0,0,.52-.79,2.65,2.65,0,0,0,.19-1,3,3,0,0,0-.18-1.06,2.18,2.18,0,0,0-1.3-1.29,3.09,3.09,0,0,0-1-.17,2.46,2.46,0,0,0-1,.18,2.3,2.3,0,0,0-.75.52,2.49,2.49,0,0,0-.49.79,2.84,2.84,0,0,0-.17,1,3.37,3.37,0,0,0,.15,1,2.22,2.22,0,0,0,.45.79,2,2,0,0,0,.74.51A2.73,2.73,0,0,0,131.58,357.61Z"/>
              </g>
              <g>
                <circle class="cls-3" cx="403.34" cy="310.38" r="132"/>
                <circle id="r16" class="cls-4" cx="403.34" cy="310.38" r="132"/>
                <circle class="cls-5" cx="403.34" cy="310.38" r="110"/>
              </g>
              <g>
                <circle class="cls-3" cx="405.3" cy="666.38" r="132"/>
                <circle id="r16-2" data-name="r16" class="cls-4" cx="405.3" cy="666.38" r="132"/>
                <circle class="cls-5" cx="405.3" cy="666.38" r="110"/>
              </g>
              <g>
                <path class="cls-1" d="M96.7,122.76a5.09,5.09,0,0,1-3.9-1.44,5.67,5.67,0,0,1-1.35-4v-.75h3v1.2a5.67,5.67,0,0,0,.18,1,2.3,2.3,0,0,0,.37.83,1.66,1.66,0,0,0,.66.51,2.66,2.66,0,0,0,2,0,1.66,1.66,0,0,0,.66-.51,2.3,2.3,0,0,0,.37-.83,5.67,5.67,0,0,0,.18-1v-1.2a4.69,4.69,0,0,0-.7-2.78,2.65,2.65,0,0,0-2.3-1v-3a2.5,2.5,0,0,0,3-1.9,2.55,2.55,0,0,0,0-1.1,4.16,4.16,0,0,0-.49-2.24,1.94,1.94,0,0,0-1.76-.76,2.29,2.29,0,0,0-1,.2,1.66,1.66,0,0,0-.66.51,2.3,2.3,0,0,0-.37.83,5.67,5.67,0,0,0-.18,1v1.2h-3v-.75a5.67,5.67,0,0,1,1.35-4,6,6,0,0,1,7.8,0,5.67,5.67,0,0,1,1.35,4,5,5,0,0,1-.8,2.92A4.06,4.06,0,0,1,99,111.3a4,4,0,0,1,2.23,1.84,6.86,6.86,0,0,1,.77,3.41,7.3,7.3,0,0,1-1.27,4.58A4.72,4.72,0,0,1,96.7,122.76Z"/>
                <path class="cls-1" d="M108.74,122.76a5.09,5.09,0,0,1-3.9-1.44,5.67,5.67,0,0,1-1.35-4v-.75h3v1.2a5.67,5.67,0,0,0,.18,1,2.3,2.3,0,0,0,.37.83,1.66,1.66,0,0,0,.66.51,2.66,2.66,0,0,0,2,0,1.66,1.66,0,0,0,.66-.51,2.3,2.3,0,0,0,.37-.83,5.67,5.67,0,0,0,.18-1v-1.2a4.69,4.69,0,0,0-.7-2.78,2.65,2.65,0,0,0-2.3-1v-3a2.5,2.5,0,0,0,3-1.9,2.55,2.55,0,0,0,0-1.1,4.16,4.16,0,0,0-.49-2.24,1.94,1.94,0,0,0-1.76-.76,2.29,2.29,0,0,0-1,.2,1.66,1.66,0,0,0-.66.51,2.3,2.3,0,0,0-.37.83,5.67,5.67,0,0,0-.18,1v1.2h-3v-.75a5.67,5.67,0,0,1,1.35-4,6,6,0,0,1,7.8,0,5.67,5.67,0,0,1,1.35,4,5,5,0,0,1-.8,2.92,4.08,4.08,0,0,1-2.2,1.58,4,4,0,0,1,2.23,1.84,6.86,6.86,0,0,1,.77,3.41,7.3,7.3,0,0,1-1.27,4.58A4.72,4.72,0,0,1,108.74,122.76Z"/>
                <path class="cls-1" d="M121,122.76a5.09,5.09,0,0,1-2.91-.81,4.76,4.76,0,0,1-1.77-2.19,8.42,8.42,0,0,1-.57-3.22v-9A7.12,7.12,0,0,1,117,103a5.49,5.49,0,0,1,7.76-.11l.11.11a7.12,7.12,0,0,1,1.32,4.55v9a7.09,7.09,0,0,1-1.34,4.52A4.67,4.67,0,0,1,121,122.76Zm0-2.46q2.25,0,2.25-3.75V106.42a5.69,5.69,0,0,0-.19-1,2.73,2.73,0,0,0-.39-.85A1.76,1.76,0,0,0,122,104a2.37,2.37,0,0,0-2,0,1.82,1.82,0,0,0-.65.55,2.73,2.73,0,0,0-.39.85,5.69,5.69,0,0,0-.19,1v10.13a8.8,8.8,0,0,0,.1,1.36,4.83,4.83,0,0,0,.34,1.18,2,2,0,0,0,.7.88A1.85,1.85,0,0,0,121,120.3Z"/>
                <path class="cls-1" d="M129,125.55l-.75-1.5a1.28,1.28,0,0,0,1.5-1.5h-1.5v-3h3v2.84a6.52,6.52,0,0,1-.07,1.07,4.27,4.27,0,0,1-.19.86,1.81,1.81,0,0,1-.37.68,1.61,1.61,0,0,1-.63.4A2.77,2.77,0,0,1,129,125.55Z"/>
                <path class="cls-1" d="M138.51,122.76a5.09,5.09,0,0,1-2.91-.81,4.76,4.76,0,0,1-1.77-2.19,8.42,8.42,0,0,1-.57-3.22v-9a7.17,7.17,0,0,1,1.31-4.55,5.49,5.49,0,0,1,7.76-.11l.11.11a7.12,7.12,0,0,1,1.32,4.55v9a7.09,7.09,0,0,1-1.34,4.52A4.71,4.71,0,0,1,138.51,122.76Zm0-2.46q2.25,0,2.25-3.75V106.42a5.69,5.69,0,0,0-.19-1,2.73,2.73,0,0,0-.39-.85,1.82,1.82,0,0,0-.65-.55,2.37,2.37,0,0,0-1.95,0,1.82,1.82,0,0,0-.65.55,2.73,2.73,0,0,0-.39.85,5.69,5.69,0,0,0-.19,1v10.13a8.8,8.8,0,0,0,.1,1.36,4.83,4.83,0,0,0,.34,1.18,2,2,0,0,0,.7.88A1.87,1.87,0,0,0,138.51,120.3Z"/>
                <path class="cls-1" d="M151.26,122.76a5.09,5.09,0,0,1-2.91-.81,4.76,4.76,0,0,1-1.77-2.19,8.42,8.42,0,0,1-.57-3.22v-9a7.17,7.17,0,0,1,1.31-4.55,5.49,5.49,0,0,1,7.76-.11l.11.11a7.12,7.12,0,0,1,1.32,4.55v9a7.09,7.09,0,0,1-1.34,4.52A4.71,4.71,0,0,1,151.26,122.76Zm0-2.46q2.25,0,2.25-3.75V106.42a5.69,5.69,0,0,0-.19-1,2.73,2.73,0,0,0-.39-.85,1.82,1.82,0,0,0-.65-.55,2.37,2.37,0,0,0-1.95,0,1.82,1.82,0,0,0-.65.55,2.73,2.73,0,0,0-.39.85,5.69,5.69,0,0,0-.19,1v10.13a8.8,8.8,0,0,0,.1,1.36,4.83,4.83,0,0,0,.34,1.18,2,2,0,0,0,.7.88A1.87,1.87,0,0,0,151.26,120.3Z"/>
                <path class="cls-1" d="M164,122.76a5.09,5.09,0,0,1-2.91-.81,4.76,4.76,0,0,1-1.77-2.19,8.42,8.42,0,0,1-.57-3.22v-9a7.17,7.17,0,0,1,1.31-4.55,5.49,5.49,0,0,1,7.76-.11l.11.11a7.12,7.12,0,0,1,1.32,4.55v9a7.09,7.09,0,0,1-1.34,4.52A4.71,4.71,0,0,1,164,122.76Zm0-2.46q2.25,0,2.25-3.75V106.42a5.69,5.69,0,0,0-.19-1,2.73,2.73,0,0,0-.39-.85A1.76,1.76,0,0,0,165,104a2.37,2.37,0,0,0-1.95,0,1.82,1.82,0,0,0-.65.55,2.73,2.73,0,0,0-.39.85,5.69,5.69,0,0,0-.19,1v10.13a8.8,8.8,0,0,0,.1,1.36,4.83,4.83,0,0,0,.34,1.18,2,2,0,0,0,.7.88A1.85,1.85,0,0,0,164,120.3Z"/>
              </g>
              <g>
                <path class="cls-1" d="M71.82,499.23A7.63,7.63,0,0,1,66,497.07a8.48,8.48,0,0,1-2-6V490h4.5q0,1.05.06,1.8a8.79,8.79,0,0,0,.26,1.52,3.47,3.47,0,0,0,.55,1.24,2.67,2.67,0,0,0,1,.76,4,4,0,0,0,3,0,2.67,2.67,0,0,0,1-.76,3.47,3.47,0,0,0,.55-1.24,8.79,8.79,0,0,0,.26-1.52q.06-.75.06-1.8a7,7,0,0,0-1-4.17,4,4,0,0,0-3.45-1.46v-4.5a4.84,4.84,0,0,0,3.48-1,4.82,4.82,0,0,0,1-3.49,6.18,6.18,0,0,0-.74-3.37,2.93,2.93,0,0,0-2.64-1.13,3.55,3.55,0,0,0-1.51.3,2.67,2.67,0,0,0-1,.76,3.54,3.54,0,0,0-.55,1.24,8.79,8.79,0,0,0-.26,1.52q-.06.75-.06,1.8H64v-1.12a8.48,8.48,0,0,1,2-6,7.63,7.63,0,0,1,5.84-2.16,7.65,7.65,0,0,1,5.85,2.15,8.48,8.48,0,0,1,2,6,7.49,7.49,0,0,1-1.2,4.39A6.06,6.06,0,0,1,75.2,482a5.88,5.88,0,0,1,3.35,2.76,10.23,10.23,0,0,1,1.15,5.12,11,11,0,0,1-1.9,6.87Q75.9,499.23,71.82,499.23Z"/>
                <path class="cls-1" d="M90.47,499.23a7.56,7.56,0,0,1-2.94-.54,6.3,6.3,0,0,1-2.22-1.49,8.37,8.37,0,0,1-1.53-2.28,11.56,11.56,0,0,1-.91-2.87,17.87,17.87,0,0,1-.28-3.26V478.66a25.22,25.22,0,0,1,.23-3.58,14.84,14.84,0,0,1,.79-3.15,8.74,8.74,0,0,1,1.44-2.56,6.23,6.23,0,0,1,2.26-1.67,8.79,8.79,0,0,1,9,1.54,8.43,8.43,0,0,1,2,6h-4.5a6.26,6.26,0,0,0-.73-3.37,2.92,2.92,0,0,0-2.65-1.12q-3.37,0-3.37,6.75V482a4.75,4.75,0,0,1,4.5-2.25,7.38,7.38,0,0,1,3.24.66,4.91,4.91,0,0,1,2.09,1.92A9.19,9.19,0,0,1,98,485.18a19.18,19.18,0,0,1-.11,7.66,10.94,10.94,0,0,1-1.35,3.3,6.35,6.35,0,0,1-2.46,2.28A7.67,7.67,0,0,1,90.47,499.23Zm-1.65-4.17a3.12,3.12,0,0,0,3.3,0,3,3,0,0,0,1-1.32,7.9,7.9,0,0,0,.52-1.78,12.17,12.17,0,0,0,.16-2v-2a5.08,5.08,0,0,0-.07-1,4.05,4.05,0,0,0-.12-.87,3.28,3.28,0,0,0-.2-.82c-.08-.19-.18-.42-.31-.69a1.74,1.74,0,0,0-.43-.61c-.18-.15-.37-.29-.56-.42a2,2,0,0,0-.74-.3,4.6,4.6,0,0,0-.91-.09,3.7,3.7,0,0,0-3.37,2.25v4.5a12.91,12.91,0,0,0,.16,2.06,7.9,7.9,0,0,0,.52,1.78A3,3,0,0,0,88.82,495.06Z"/>
                <path class="cls-1" d="M100.92,498.91v-4.5l7.89-11.25.62-.85.63-.9.54-.84a8.65,8.65,0,0,0,.54-.93l.4-.92a6.62,6.62,0,0,0,.36-1.06,11,11,0,0,0,.19-1.09,8.93,8.93,0,0,0,.09-1.27,5.61,5.61,0,0,0-.87-3.19,3.07,3.07,0,0,0-4.16-.83,3,3,0,0,0-1,1.32,7.9,7.9,0,0,0-.52,1.78,12.17,12.17,0,0,0-.16,2v1.13H101v-1.12a11,11,0,0,1,1.9-6.87q1.91-2.44,6-2.44a7.65,7.65,0,0,1,5.85,2.15,8.48,8.48,0,0,1,2,6,13.84,13.84,0,0,1-.25,2.72,10.36,10.36,0,0,1-.81,2.43,19.41,19.41,0,0,1-1,1.92c-.31.51-.74,1.15-1.29,1.93l-7.87,10.13h11.25v4.5Z"/>
                <path class="cls-1" d="M120.06,503.41l-1.12-2.25a1.92,1.92,0,0,0,2.25-2.25h-2.25v-4.5h4.5c0,1.69,0,3.1,0,4.25a10.19,10.19,0,0,1-.11,1.6,6.32,6.32,0,0,1-.28,1.29,2.61,2.61,0,0,1-.56,1,2.47,2.47,0,0,1-.94.61A3.94,3.94,0,0,1,120.06,503.41Z"/>
                <path class="cls-1" d="M129.27,498.91V474.16H125.9v-3.37q3.39-1.21,4.5-3.37h3.38v31.5Z"/>
                <path class="cls-1" d="M145.58,499.23a7.59,7.59,0,0,1-4.37-1.21,7.11,7.11,0,0,1-2.65-3.28,12.47,12.47,0,0,1-.85-4.83v-13.5a10.75,10.75,0,0,1,2-6.83,8.24,8.24,0,0,1,11.65-.15l.15.15a10.73,10.73,0,0,1,2,6.82v13.5a10.6,10.6,0,0,1-2,6.78A7,7,0,0,1,145.58,499.23Zm0-3.69q3.38,0,3.38-5.62v-13.5c0-.63,0-1.2-.07-1.7a8.57,8.57,0,0,0-.29-1.51,4.3,4.3,0,0,0-.58-1.27,2.69,2.69,0,0,0-1-.83,3.54,3.54,0,0,0-2.92,0,2.69,2.69,0,0,0-1,.83,4.3,4.3,0,0,0-.58,1.27,8.57,8.57,0,0,0-.29,1.51c0,.5-.07,1.07-.07,1.7v13.5a13.36,13.36,0,0,0,.15,2,7.88,7.88,0,0,0,.51,1.78,3,3,0,0,0,1,1.33,2.81,2.81,0,0,0,1.76.5Z"/>
                <path class="cls-1" d="M164.55,499.23q-4.2,0-6-2.36c-1.2-1.57-1.8-3.91-1.79-7h4.5v.7q0,.9.06,1.56a8.68,8.68,0,0,0,.25,1.35,3.31,3.31,0,0,0,.51,1.13,2.46,2.46,0,0,0,.89.71,3,3,0,0,0,1.34.28,3.79,3.79,0,0,0,2-.52,2,2,0,0,0,.64-.64,7.68,7.68,0,0,0,.47-.78,3.87,3.87,0,0,0,.31-1c.08-.42.14-.77.18-1.06s.07-.69.1-1.21V486a7.09,7.09,0,0,0-.1-1.16,5.76,5.76,0,0,0-.22-1,4.56,4.56,0,0,0-.39-.84,2.13,2.13,0,0,0-.6-.67,3.12,3.12,0,0,0-.87-.4,4.58,4.58,0,0,0-1.17-.15,3,3,0,0,0-2.07.77,4.61,4.61,0,0,0-1.28,1.83h-3.83v-17h13.92v4.5h-9.84l-.28,7.63a8.75,8.75,0,0,1,4.5-1.12,7.12,7.12,0,0,1,2.7.47,5.28,5.28,0,0,1,1.92,1.27,6.58,6.58,0,0,1,1.24,2,11,11,0,0,1,.69,2.53,20.07,20.07,0,0,1,.2,3,28,28,0,0,1-.21,3.66,14.77,14.77,0,0,1-.76,3.15,8.2,8.2,0,0,1-1.42,2.53,6.2,6.2,0,0,1-2.29,1.63A8.35,8.35,0,0,1,164.55,499.23Z"/>
              </g>
              <g>
                <path class="cls-1" d="M337.59,329V315.48h-15v-8.35l13.13-30.7h9.38v32h5.8v7.09h-5.8V329Zm-7.5-20.57h7.5v-22.6Z"/>
                <path class="cls-1" d="M367.68,329.48q-7,0-10-3.94t-3-11.59h7.5v1.17c0,1,0,1.86.1,2.59a13.4,13.4,0,0,0,.41,2.26,5.42,5.42,0,0,0,.85,1.88A4.1,4.1,0,0,0,365,323a4.92,4.92,0,0,0,2.23.47,6.47,6.47,0,0,0,1.86-.25,5.91,5.91,0,0,0,1.44-.62,3.42,3.42,0,0,0,1.07-1.07c.28-.42.54-.85.78-1.3a6.51,6.51,0,0,0,.51-1.66c.13-.7.24-1.29.31-1.77a19,19,0,0,0,.16-2c0-.87.06-1.53.06-2v-5.27a12.33,12.33,0,0,0-.16-1.93,9.46,9.46,0,0,0-.37-1.74,7.45,7.45,0,0,0-.64-1.41,3.43,3.43,0,0,0-1-1.11,4.77,4.77,0,0,0-1.45-.66,7.15,7.15,0,0,0-1.95-.25,5.08,5.08,0,0,0-3.46,1.29,7.63,7.63,0,0,0-2.14,3h-6.39v-28.3h23.2V284H362.67l-.47,12.71a14.47,14.47,0,0,1,7.5-1.87,12.12,12.12,0,0,1,4.5.78,8.74,8.74,0,0,1,3.21,2.12,10.81,10.81,0,0,1,2.07,3.34,18.69,18.69,0,0,1,1.14,4.22,33.52,33.52,0,0,1,.34,5,47.62,47.62,0,0,1-.35,6.09,24.87,24.87,0,0,1-1.26,5.24,13.42,13.42,0,0,1-2.37,4.22,10.31,10.31,0,0,1-3.82,2.71A13.69,13.69,0,0,1,367.68,329.48Z"/>
                <path class="cls-1" d="M388.34,329,398,282.74H384.09V276.5h21v3.6L395.54,329Z"/>
                <path class="cls-1" d="M411.07,336.46l-1.87-3.75A3.18,3.18,0,0,0,413,329H409.2v-7.5h7.5c0,2.81,0,5.18-.09,7.09q-.06,1.57-.18,2.67a10.58,10.58,0,0,1-.47,2.15,4.58,4.58,0,0,1-.94,1.7,4.13,4.13,0,0,1-1.57,1A6.43,6.43,0,0,1,411.07,336.46Z"/>
                <path class="cls-1" d="M434.33,329.48q-6.39,0-9.76-3.59t-3.37-10.06V314h7.5c0,1.17,0,2.17.1,3a14.4,14.4,0,0,0,.44,2.53,5.84,5.84,0,0,0,.92,2.07,4.33,4.33,0,0,0,1.64,1.27,6.65,6.65,0,0,0,5,0,4.33,4.33,0,0,0,1.64-1.27,5.84,5.84,0,0,0,.92-2.07,14.4,14.4,0,0,0,.44-2.53c.07-.83.1-1.83.1-3q0-4.51-1.74-6.94t-5.76-2.43v-7.5c2.73,0,4.67-.56,5.8-1.68s1.7-3.06,1.7-5.82a10.34,10.34,0,0,0-1.23-5.61q-1.23-1.89-4.39-1.89a5.88,5.88,0,0,0-2.52.5,4.33,4.33,0,0,0-1.64,1.27,5.84,5.84,0,0,0-.92,2.07,14.57,14.57,0,0,0-.44,2.53c-.07.83-.1,1.83-.1,3h-7.5v-1.87q0-6.45,3.38-10t9.74-3.6q6.39,0,9.76,3.59t3.37,10.06a12.44,12.44,0,0,1-2,7.31,10.12,10.12,0,0,1-5.51,3.94,9.82,9.82,0,0,1,5.58,4.6,17.09,17.09,0,0,1,1.92,8.53q0,7.38-3.16,11.46T434.33,329.48Z"/>
                <path class="cls-1" d="M456.51,329V287.71h-5.62v-5.62q5.66-2,7.5-5.62H464V329Z"/>
                <path class="cls-1" d="M475.26,329V287.71h-5.62v-5.62q5.66-2,7.5-5.62h5.63V329Z"/>
              </g>
              <g>
                <path class="cls-1" d="M310.53,671.85l13.58-29.26h9.24v29.26h5.32v5.88h-5.32V691.6h-6.86V677.73h-16Zm16,0V649.94L317,671.85Z"/>
                <path class="cls-1" d="M343.15,677.87c0-10.57,16-12.81,16-19.67v-5.11c0-2.94-1.68-4.76-4.55-4.76-3.22,0-4.55,2.52-4.55,4.76v6.09h-6.86v-6.79c0-5.88,3.78-10.29,11.34-10.29,6.86,0,11.48,4.13,11.48,10.57v5.81c0,11.48-16,12.67-16,20.23v6.58h15.54v6.31h-22.4Z"/>
                <path class="cls-1" d="M372.2,674.16c0-4.06,1.75-6.58,5.39-7.7-3.5-1.19-5.32-4.2-5.32-8.05V652c0-5.81,4.34-9.94,11.62-9.94s11.62,4.13,11.62,9.94v6.37c0,3.85-1.89,6.86-5.32,8.05,3.64,1.12,5.46,3.64,5.46,7.7v7.49c0,6.66-4.83,10.44-11.76,10.44s-11.69-3.78-11.69-10.44Zm6.93,6.79c0,2.87,1.75,5,4.76,5s4.76-2.11,4.76-5v-7.7c0-3.22-1.54-4.48-4.2-4.62h-.7c-2.87.07-4.62,1.19-4.62,4.62Zm4.9-17a4.37,4.37,0,0,0,4.62-4.76v-6.65a4.46,4.46,0,0,0-4.76-4.69,4.41,4.41,0,0,0-4.69,4.69v6.65c0,3.08,1.82,4.62,4.27,4.76Z"/>
                <path class="cls-1" d="M402.65,683.26H409L402.72,698h-5.05Z"/>
                <path class="cls-1" d="M414.41,652c0-5.81,4.41-9.94,11.69-9.94s11.13,4,11.13,10.22v6.37h-6.86v-6.37a4.19,4.19,0,0,0-4.41-4.48c-2.87,0-4.55,1.89-4.55,4.69v12.74a9.23,9.23,0,0,1,7-2.73c5.39,0,9.24,3.15,9.24,9.38v9.59c0,6.31-4.2,10.58-11.55,10.58-7.14,0-11.69-3.92-11.69-10.23Zm7,29.41c0,2.45,1.47,4.48,4.69,4.48a4.25,4.25,0,0,0,4.62-4.56v-8.89c0-2.66-1.4-4.76-4.62-4.76a4.35,4.35,0,0,0-4.69,4.48Z"/>
                <path class="cls-1" d="M441.42,671.85,455,642.59h9.24v29.26h5.32v5.88h-5.32V691.6h-6.86V677.73h-16Zm16,0V649.94l-9.53,21.91Z"/>
                <path class="cls-1" d="M474.39,674.3h7v7.15c0,2.45,1.47,4.48,4.7,4.48a4.25,4.25,0,0,0,4.62-4.56v-10.5c0-2.73-1.4-4.76-4.62-4.76-3,0-4.56,1.82-4.7,3.92v.42h-6.72V642.59h22.2v6.16H481.53v14.7a9.36,9.36,0,0,1,6.87-2.59c5.39,0,9.24,3.15,9.24,9.38v11.27c0,6.31-4.2,10.58-11.55,10.58-7.15,0-11.7-3.92-11.7-10.23Z"/>
              </g>
            </g>
          </g>
        </g>
        <g>
          <path class="cls-2" d="M390.75,518.9a1,1,0,0,1,.71.25.89.89,0,0,1,.25.66v1.62H381.65v-.9a1.73,1.73,0,0,1,.11-.56,1.44,1.44,0,0,1,.37-.56l4.3-4.31c.37-.36.69-.72,1-1.05a7.91,7.91,0,0,0,.7-1,4,4,0,0,0,.42-1,4,4,0,0,0,.14-1.05,2,2,0,0,0-.5-1.47,1.87,1.87,0,0,0-1.41-.51,2.11,2.11,0,0,0-.73.12,1.89,1.89,0,0,0-.6.31,2.27,2.27,0,0,0-.46.47,1.88,1.88,0,0,0-.28.59,1.16,1.16,0,0,1-.48.67,1.41,1.41,0,0,1-.87.07l-1.46-.26a5.81,5.81,0,0,1,.6-1.86,4.34,4.34,0,0,1,2.61-2.12,6,6,0,0,1,1.83-.27,5.37,5.37,0,0,1,1.88.31,4.13,4.13,0,0,1,1.44.85,3.73,3.73,0,0,1,.93,1.31,4.29,4.29,0,0,1,.33,1.7,4.64,4.64,0,0,1-.23,1.48,5.75,5.75,0,0,1-.62,1.3,9.25,9.25,0,0,1-.92,1.19c-.35.39-.71.78-1.1,1.17l-3.08,3.15a7.69,7.69,0,0,1,1-.23,5.32,5.32,0,0,1,.94-.09Z"/>
          <path class="cls-2" d="M403.71,514.17a11.9,11.9,0,0,1-.41,3.3,6.7,6.7,0,0,1-1.13,2.32,4.6,4.6,0,0,1-1.7,1.36,5.24,5.24,0,0,1-2.13.44,5.16,5.16,0,0,1-2.12-.44,4.49,4.49,0,0,1-1.69-1.36,6.86,6.86,0,0,1-1.11-2.32,13.45,13.45,0,0,1,0-6.59,6.9,6.9,0,0,1,1.11-2.31,4.4,4.4,0,0,1,1.69-1.36,5,5,0,0,1,2.12-.45,5.09,5.09,0,0,1,2.13.45,4.5,4.5,0,0,1,1.7,1.36,6.74,6.74,0,0,1,1.13,2.31A11.87,11.87,0,0,1,403.71,514.17Zm-2.85,0a12.77,12.77,0,0,0-.21-2.54,5.61,5.61,0,0,0-.57-1.58,1.93,1.93,0,0,0-1.74-1,2,2,0,0,0-.92.23,2.12,2.12,0,0,0-.79.81,5.33,5.33,0,0,0-.56,1.58,15.53,15.53,0,0,0,0,5.09,5.13,5.13,0,0,0,.56,1.58,2,2,0,0,0,.79.81,1.88,1.88,0,0,0,.92.23,1.93,1.93,0,0,0,1.74-1,5.38,5.38,0,0,0,.57-1.58A12.67,12.67,0,0,0,400.86,514.17Z"/>
          <path class="cls-2" d="M414.58,519.4v2h-8.14v-2h2.88v-7.94c0-.17,0-.35,0-.53l0-.55-1.9,1.58a.94.94,0,0,1-.75.2,1.34,1.34,0,0,1-.3-.12.9.9,0,0,1-.2-.18l-.87-1.17,4.46-3.78h2.27V519.4Z"/>
          <path class="cls-2" d="M426.73,506.92v1.18a2.41,2.41,0,0,1-.12.84,3.73,3.73,0,0,1-.22.54l-5.28,11a1.88,1.88,0,0,1-.54.65,1.44,1.44,0,0,1-.92.27h-2l5.41-10.77a7.4,7.4,0,0,1,.41-.69,6.39,6.39,0,0,1,.47-.59h-6.69a.59.59,0,0,1-.43-.19.55.55,0,0,1-.2-.43v-1.84Z"/>
        </g>
      </g>
    </g>
  </g>
</svg>
