<svg xmlns="http://www.w3.org/2000/svg" width="818.61" height="248.06" viewBox="0 0 818.61 248.06">
  <defs>
    <style>
      .cls-1 {
        fill: #f24141;
      }

      .cls-2 {
        fill: #fff;
      }
    </style>
  </defs>
  <title>2017-imUpdates</title>
  <g id="Layer_2" data-name="Layer 2">
    <g id="Layer_1-2" data-name="Layer 1">
      <g>
        <rect class="cls-1" x="61.57" width="317.04" height="37.48" rx="18.74" ry="18.74"/>
        <rect class="cls-1" x="61.57" y="68.29" width="757.04" height="37.48" rx="18.74" ry="18.74"/>
        <rect class="cls-1" x="61.57" y="136.58" width="642.04" height="37.48" rx="18.74" ry="18.74"/>
        <g>
          <path class="cls-2" d="M9.48,23.85a1,1,0,0,1,.73.26.93.93,0,0,1,.27.69v1.68H0v-.93A1.68,1.68,0,0,1,.14,25a1.5,1.5,0,0,1,.38-.58L5,19.9c.38-.38.72-.74,1-1.09a8.59,8.59,0,0,0,.73-1,4.34,4.34,0,0,0,.43-1,3.88,3.88,0,0,0,.15-1.09,2.11,2.11,0,0,0-.52-1.53,2,2,0,0,0-1.47-.52,2.33,2.33,0,0,0-.76.11,2.16,2.16,0,0,0-.62.33,2.06,2.06,0,0,0-.77,1.1,1.22,1.22,0,0,1-.5.7,1.42,1.42,0,0,1-.9.07L.25,15.65a5.84,5.84,0,0,1,.62-1.93A4.58,4.58,0,0,1,2,12.34a4.64,4.64,0,0,1,1.57-.83,6.46,6.46,0,0,1,1.9-.27,5.78,5.78,0,0,1,2,.31,4.49,4.49,0,0,1,1.5.89,3.8,3.8,0,0,1,1,1.36,4.47,4.47,0,0,1,.34,1.77A4.78,4.78,0,0,1,10,17.11a6.14,6.14,0,0,1-.65,1.34,9.82,9.82,0,0,1-.95,1.25c-.36.4-.74.8-1.14,1.21l-3.2,3.28a8,8,0,0,1,1-.25,5.65,5.65,0,0,1,1-.09Z"/>
          <path class="cls-2" d="M23,18.94a12.08,12.08,0,0,1-.43,3.43,6.9,6.9,0,0,1-1.17,2.4,4.71,4.71,0,0,1-1.77,1.42,5.43,5.43,0,0,1-2.21.46,5.35,5.35,0,0,1-2.2-.46,4.6,4.6,0,0,1-1.76-1.42,7.07,7.07,0,0,1-1.16-2.4,12.47,12.47,0,0,1-.42-3.43,12.42,12.42,0,0,1,.42-3.43,7.25,7.25,0,0,1,1.16-2.4,4.67,4.67,0,0,1,1.76-1.41,5.19,5.19,0,0,1,2.2-.46,5.27,5.27,0,0,1,2.21.46,4.78,4.78,0,0,1,1.77,1.41,7.07,7.07,0,0,1,1.17,2.4A12,12,0,0,1,23,18.94Zm-3,0a12.73,12.73,0,0,0-.23-2.64,5.33,5.33,0,0,0-.58-1.65,2,2,0,0,0-1.81-1.08,2.07,2.07,0,0,0-1,.24,2.14,2.14,0,0,0-.82.84A5.6,5.6,0,0,0,15,16.3a12.82,12.82,0,0,0-.22,2.64A12.92,12.92,0,0,0,15,21.59a5.53,5.53,0,0,0,.58,1.64,2.14,2.14,0,0,0,.82.84,2.07,2.07,0,0,0,1,.24,2,2,0,0,0,1.81-1.08,5.26,5.26,0,0,0,.58-1.64A12.84,12.84,0,0,0,20,18.94Z"/>
          <path class="cls-2" d="M34.25,24.37v2.11H25.79V24.37h3V16.12c0-.18,0-.36,0-.55l0-.57-2,1.64a1.19,1.19,0,0,1-.41.2,1,1,0,0,1-.68-.12,1,1,0,0,1-.21-.18l-.91-1.22,4.64-3.93h2.36v13Z"/>
          <path class="cls-2" d="M47,20.72v1.63a.56.56,0,0,1-.15.39.57.57,0,0,1-.42.16H45.28v3.58H42.79V22.9H36.56a.81.81,0,0,1-.49-.17.64.64,0,0,1-.27-.44l-.31-1.43,7.07-9.47h2.72v9.33Zm-4.24,0V16.23q0-.35,0-.75c0-.27,0-.54.07-.84l-4.36,6.08Z"/>
        </g>
        <g>
          <path class="cls-2" d="M9.48,92a1,1,0,0,1,.73.26.9.9,0,0,1,.27.68v1.69H0v-.94a1.63,1.63,0,0,1,.12-.58,1.36,1.36,0,0,1,.38-.58L5,88c.38-.38.72-.75,1-1.1a7.86,7.86,0,0,0,.73-1,4.11,4.11,0,0,0,.43-1,3.93,3.93,0,0,0,.15-1.09,2.11,2.11,0,0,0-.52-1.53,2,2,0,0,0-1.47-.53,2.33,2.33,0,0,0-.76.12,2.16,2.16,0,0,0-.62.33,2,2,0,0,0-.48.49,1.91,1.91,0,0,0-.29.61,1.16,1.16,0,0,1-.5.69,1.48,1.48,0,0,1-.9.08L.25,83.79a5.9,5.9,0,0,1,.62-1.94A4.71,4.71,0,0,1,2,80.47a4.8,4.8,0,0,1,1.57-.82,6.15,6.15,0,0,1,1.9-.28,5.78,5.78,0,0,1,2,.32,4.47,4.47,0,0,1,1.5.88,3.84,3.84,0,0,1,1,1.37,4.38,4.38,0,0,1,.34,1.76A4.74,4.74,0,0,1,10,85.24a6.45,6.45,0,0,1-.65,1.35,9.08,9.08,0,0,1-.95,1.24c-.36.4-.74.81-1.14,1.22l-3.2,3.27a9.92,9.92,0,0,1,1-.24,5.65,5.65,0,0,1,1-.09Z"/>
          <path class="cls-2" d="M23,87.07a12,12,0,0,1-.43,3.43,7,7,0,0,1-1.17,2.41,4.78,4.78,0,0,1-1.77,1.41,5.27,5.27,0,0,1-2.21.46,5.19,5.19,0,0,1-2.2-.46,4.67,4.67,0,0,1-1.76-1.41,7.21,7.21,0,0,1-1.16-2.41,14.18,14.18,0,0,1,0-6.85,7.07,7.07,0,0,1,1.16-2.4,4.6,4.6,0,0,1,1.76-1.42,5.19,5.19,0,0,1,2.2-.46,5.27,5.27,0,0,1,2.21.46,4.71,4.71,0,0,1,1.77,1.42,6.9,6.9,0,0,1,1.17,2.4A12,12,0,0,1,23,87.07Zm-3,0a12.87,12.87,0,0,0-.23-2.64,5.26,5.26,0,0,0-.58-1.64,2,2,0,0,0-1.81-1.08,2.07,2.07,0,0,0-1,.24,2.14,2.14,0,0,0-.82.84A5.53,5.53,0,0,0,15,84.43a16,16,0,0,0,0,5.29,5.43,5.43,0,0,0,.58,1.64,2.1,2.1,0,0,0,.82.85,2.07,2.07,0,0,0,1,.24,2.11,2.11,0,0,0,1-.24,2.08,2.08,0,0,0,.84-.85,5.17,5.17,0,0,0,.58-1.64A12.77,12.77,0,0,0,20,87.07Z"/>
          <path class="cls-2" d="M34.25,92.51v2.11H25.79V92.51h3V84.25c0-.17,0-.36,0-.55s0-.37,0-.57l-2,1.65a1.15,1.15,0,0,1-.41.19.93.93,0,0,1-.37,0,1,1,0,0,1-.31-.13,1,1,0,0,1-.21-.18l-.91-1.22,4.64-3.92h2.36v13Z"/>
          <path class="cls-2" d="M39.87,84.94a7.51,7.51,0,0,1,.9-.13,8,8,0,0,1,.84,0,5.65,5.65,0,0,1,2.09.36,4.31,4.31,0,0,1,1.53,1,4.05,4.05,0,0,1,.93,1.46,5.1,5.1,0,0,1,.31,1.81,5.43,5.43,0,0,1-.43,2.2,4.86,4.86,0,0,1-1.18,1.7,5.2,5.2,0,0,1-1.79,1.11,6.51,6.51,0,0,1-2.29.39,6.19,6.19,0,0,1-1.37-.15,6.71,6.71,0,0,1-1.22-.4,6.64,6.64,0,0,1-1-.59,6.29,6.29,0,0,1-.88-.7l.89-1.2a.85.85,0,0,1,.72-.39,1.07,1.07,0,0,1,.56.17l.61.37a5,5,0,0,0,.8.37,3.24,3.24,0,0,0,1.11.17,2.81,2.81,0,0,0,1.17-.23,2.24,2.24,0,0,0,.83-.61,2.58,2.58,0,0,0,.49-.93,3.85,3.85,0,0,0,.16-1.15,2.38,2.38,0,0,0-.67-1.81,2.71,2.71,0,0,0-2-.64,5.88,5.88,0,0,0-2.11.4L37.09,87l1.27-7.42h7.57v1.2a1.59,1.59,0,0,1-.09.55,1,1,0,0,1-.29.42A1.24,1.24,0,0,1,45,82a2.48,2.48,0,0,1-.77.1h-3.9Z"/>
        </g>
        <g>
          <path class="cls-2" d="M9.48,157.81a1,1,0,0,1,.73.26.93.93,0,0,1,.27.69v1.68H0v-.93a1.68,1.68,0,0,1,.12-.59,1.5,1.5,0,0,1,.38-.58L5,153.86c.38-.38.72-.74,1-1.09a8.59,8.59,0,0,0,.73-1,4.34,4.34,0,0,0,.43-1,3.88,3.88,0,0,0,.15-1.09,2.11,2.11,0,0,0-.52-1.53,2,2,0,0,0-1.47-.52,2.63,2.63,0,0,0-.76.11,2.16,2.16,0,0,0-.62.33,2.06,2.06,0,0,0-.77,1.1,1.22,1.22,0,0,1-.5.7,1.42,1.42,0,0,1-.9.07l-1.52-.27a5.84,5.84,0,0,1,.62-1.93A4.58,4.58,0,0,1,2,146.3a4.64,4.64,0,0,1,1.57-.83,6.46,6.46,0,0,1,1.9-.27,5.78,5.78,0,0,1,2,.31,4.49,4.49,0,0,1,1.5.89,3.8,3.8,0,0,1,1,1.36,4.47,4.47,0,0,1,.34,1.77,4.74,4.74,0,0,1-.24,1.54,6.14,6.14,0,0,1-.65,1.34,9.82,9.82,0,0,1-.95,1.25c-.36.4-.74.8-1.14,1.21l-3.2,3.28a8,8,0,0,1,1-.25,5.65,5.65,0,0,1,1-.09Z"/>
          <path class="cls-2" d="M23,152.9a12.08,12.08,0,0,1-.43,3.43,6.9,6.9,0,0,1-1.17,2.4,4.71,4.71,0,0,1-1.77,1.42,5.43,5.43,0,0,1-2.21.46,5.35,5.35,0,0,1-2.2-.46,4.6,4.6,0,0,1-1.76-1.42,7.07,7.07,0,0,1-1.16-2.4,14.22,14.22,0,0,1,0-6.86,7.25,7.25,0,0,1,1.16-2.4,4.67,4.67,0,0,1,1.76-1.41,5.19,5.19,0,0,1,2.2-.46,5.27,5.27,0,0,1,2.21.46,4.78,4.78,0,0,1,1.77,1.41,7.07,7.07,0,0,1,1.17,2.4A12,12,0,0,1,23,152.9Zm-3,0a12.73,12.73,0,0,0-.23-2.64,5.17,5.17,0,0,0-.58-1.64,2.08,2.08,0,0,0-.84-.85,2.11,2.11,0,0,0-1-.24,2.07,2.07,0,0,0-1,.24,2.1,2.1,0,0,0-.82.85,5.43,5.43,0,0,0-.58,1.64,16,16,0,0,0,0,5.29,5.53,5.53,0,0,0,.58,1.64,2.14,2.14,0,0,0,.82.84,2.07,2.07,0,0,0,1,.24,2,2,0,0,0,1.81-1.08,5.26,5.26,0,0,0,.58-1.64A12.84,12.84,0,0,0,20,152.9Z"/>
          <path class="cls-2" d="M34.25,158.33v2.11H25.79v-2.11h3v-8.25c0-.18,0-.36,0-.55l0-.57-2,1.64a1.19,1.19,0,0,1-.41.2,1,1,0,0,1-.68-.12,1,1,0,0,1-.21-.18l-.91-1.22,4.64-3.93h2.36v13Z"/>
          <path class="cls-2" d="M41.11,150.78l-.46.55a3.84,3.84,0,0,1,.85-.27,5.19,5.19,0,0,1,1-.1,4.84,4.84,0,0,1,1.64.29,3.85,3.85,0,0,1,1.42.84,4,4,0,0,1,1,1.41,4.82,4.82,0,0,1,.38,2,5.08,5.08,0,0,1-.39,2,4.94,4.94,0,0,1-1.1,1.63,5.24,5.24,0,0,1-1.71,1.1,5.8,5.8,0,0,1-2.21.41,5.92,5.92,0,0,1-2.21-.39,4.67,4.67,0,0,1-2.71-2.79,6,6,0,0,1-.37-2.16,6.33,6.33,0,0,1,.43-2.22,9.77,9.77,0,0,1,1.32-2.3l3.5-4.72a1.68,1.68,0,0,1,.61-.47,2.12,2.12,0,0,1,.93-.2h2.55Zm.37,7.52a2.71,2.71,0,0,0,1-.19,2.49,2.49,0,0,0,.82-.56,2.54,2.54,0,0,0,.54-.82,2.71,2.71,0,0,0,.2-1,3,3,0,0,0-.19-1.1,2.32,2.32,0,0,0-.53-.83,2.37,2.37,0,0,0-.82-.51,3,3,0,0,0-1.06-.18,2.56,2.56,0,0,0-1,.2,2.23,2.23,0,0,0-.78.54,2.37,2.37,0,0,0-.51.82,3,3,0,0,0-.18,1.05,3.61,3.61,0,0,0,.15,1.08,2.21,2.21,0,0,0,.47.82,2.23,2.23,0,0,0,.77.54A3,3,0,0,0,41.48,158.3Z"/>
        </g>
        <rect class="cls-1" x="61.57" y="210.58" width="674.04" height="37.48" rx="18.74" ry="18.74"/>
        <g>
          <path class="cls-2" d="M9.55,231.93a1,1,0,0,1,.74.27.9.9,0,0,1,.27.69v1.7H0v-.94a1.73,1.73,0,0,1,.12-.6,1.43,1.43,0,0,1,.38-.58L5,227.94c.38-.38.72-.75,1-1.1a7.65,7.65,0,0,0,.73-1,4.06,4.06,0,0,0,.44-1,4,4,0,0,0,.15-1.1,2.11,2.11,0,0,0-.52-1.55,2,2,0,0,0-1.49-.53,2.39,2.39,0,0,0-.77.12A2.36,2.36,0,0,0,4,222a2.23,2.23,0,0,0-.47.5,1.7,1.7,0,0,0-.3.62,1.13,1.13,0,0,1-.51.69,1.36,1.36,0,0,1-.91.08l-1.53-.27a5.74,5.74,0,0,1,.63-2A4.55,4.55,0,0,1,2,220.3a4.69,4.69,0,0,1,1.58-.83,6.32,6.32,0,0,1,1.92-.28,5.62,5.62,0,0,1,2,.32A4.49,4.49,0,0,1,9,220.4a4,4,0,0,1,1,1.38,4.5,4.5,0,0,1,.34,1.79,4.84,4.84,0,0,1-.24,1.55,5.89,5.89,0,0,1-.66,1.36,8.5,8.5,0,0,1-1,1.25c-.36.41-.75.82-1.15,1.23l-3.24,3.31A8.27,8.27,0,0,1,5.15,232a5.67,5.67,0,0,1,1-.09Z"/>
          <path class="cls-2" d="M23.16,227a12.25,12.25,0,0,1-.43,3.46,7.25,7.25,0,0,1-1.18,2.43,4.87,4.87,0,0,1-1.79,1.43,5.42,5.42,0,0,1-2.24.47,5.32,5.32,0,0,1-2.22-.47,4.69,4.69,0,0,1-1.78-1.43,7.43,7.43,0,0,1-1.17-2.43,14.46,14.46,0,0,1,0-6.92,7.43,7.43,0,0,1,1.17-2.43,4.78,4.78,0,0,1,1.78-1.43,5.32,5.32,0,0,1,2.22-.46,5.41,5.41,0,0,1,2.24.46,5,5,0,0,1,1.79,1.43,7.25,7.25,0,0,1,1.18,2.43A12.2,12.2,0,0,1,23.16,227Zm-3,0a13,13,0,0,0-.23-2.67,5.39,5.39,0,0,0-.59-1.66,2,2,0,0,0-1.83-1.09,2.11,2.11,0,0,0-1,.24,2.19,2.19,0,0,0-.83.85,5.68,5.68,0,0,0-.58,1.66,16.37,16.37,0,0,0,0,5.35,5.5,5.5,0,0,0,.58,1.65,2.22,2.22,0,0,0,.83.86,2.11,2.11,0,0,0,1,.24,2.19,2.19,0,0,0,1-.24,2.24,2.24,0,0,0,.84-.86,5.22,5.22,0,0,0,.59-1.65A13.15,13.15,0,0,0,20.17,227Z"/>
          <path class="cls-2" d="M34.58,232.46v2.13H26v-2.13h3v-8.34c0-.18,0-.37,0-.55l0-.58-2,1.66a1.19,1.19,0,0,1-.41.2,1,1,0,0,1-.38,0,1,1,0,0,1-.31-.12.78.78,0,0,1-.21-.19l-.92-1.23,4.69-4h2.38v13.12Z"/>
          <path class="cls-2" d="M47.33,219.36v1.23a2.73,2.73,0,0,1-.12.89c-.08.22-.16.41-.23.56l-5.55,11.58a2.11,2.11,0,0,1-.57.69,1.48,1.48,0,0,1-1,.28H37.8l5.68-11.31a6.85,6.85,0,0,1,.43-.72,5,5,0,0,1,.49-.62h-7a.66.66,0,0,1-.46-.2.64.64,0,0,1-.2-.45v-1.93Z"/>
        </g>
        <g>
          <path class="cls-2" d="M657.53,220.27h-2.11V217h5.74v25.9h-3.63Z"/>
          <path class="cls-2" d="M666.19,238.51h3.37l-3.33,7.77h-2.67Z"/>
          <path class="cls-2" d="M670.92,232.48,678.1,217H683v15.47h2.81v3.11H683v7.32h-3.63v-7.32h-8.44Zm8.44,0V220.9l-5,11.58Z"/>
          <path class="cls-2" d="M688.17,235.66c0-5.59,8.43-6.77,8.43-10.4v-2.7a2.26,2.26,0,0,0-2.4-2.51,2.35,2.35,0,0,0-2.41,2.51v3.22h-3.62v-3.59c0-3.11,2-5.44,6-5.44,3.63,0,6.07,2.19,6.07,5.59v3.07c0,6.07-8.44,6.7-8.44,10.69v3.48H700v3.33H688.17Z"/>
          <path class="cls-2" d="M703.71,235.66c0-5.59,8.43-6.77,8.43-10.4v-2.7a2.26,2.26,0,0,0-2.4-2.51,2.35,2.35,0,0,0-2.41,2.51v3.22h-3.62v-3.59c0-3.11,2-5.44,6-5.44,3.63,0,6.07,2.19,6.07,5.59v3.07c0,6.07-8.44,6.7-8.44,10.69v3.48h8.22v3.33H703.71Z"/>
        </g>
        <g>
          <path class="cls-2" d="M626.53,145.27h-2.11V142h5.74v25.9h-3.63Z"/>
          <path class="cls-2" d="M635.19,163.51h3.37l-3.33,7.77h-2.67Z"/>
          <path class="cls-2" d="M641.22,158.85h3.66v3.77a2.17,2.17,0,0,0,2.33,2.3,2.34,2.34,0,0,0,2.41-2.63v-3.85c0-1.81-1-2.41-3.29-2.41h-2.45V153.3h2.48c2.3,0,3.26-.82,3.26-2.52v-3.51a2.27,2.27,0,0,0-2.41-2.48,2.19,2.19,0,0,0-2.33,2.36v3.26h-3.62v-3.26c0-3.29,2.07-5.4,5.88-5.4s6.14,2.19,6.14,5.26v3.36a4.13,4.13,0,0,1-3,4.22,3.86,3.86,0,0,1,3.07,4.11v4c0,3.51-2.48,5.51-6.11,5.51-4,0-6-2.33-6-5.44Z"/>
          <path class="cls-2" d="M656.8,158.77h3.7v3.78a2.46,2.46,0,0,0,4.92,0V157a2.26,2.26,0,0,0-2.44-2.52,2.23,2.23,0,0,0-2.48,2.08v.22h-3.56V142h11.73v3.26h-8.1V153a4.91,4.91,0,0,1,3.63-1.37c2.85,0,4.88,1.66,4.88,5v6c0,3.33-2.22,5.59-6.1,5.59s-6.18-2.07-6.18-5.4Z"/>
          <path class="cls-2" d="M672.56,158.77h3.7v3.78a2.46,2.46,0,0,0,4.92,0V157a2.48,2.48,0,0,0-4.92-.44v.22h-3.55V142h11.73v3.26h-8.11V153a4.93,4.93,0,0,1,3.63-1.37c2.85,0,4.88,1.66,4.88,5v6c0,3.33-2.22,5.59-6.1,5.59s-6.18-2.07-6.18-5.4Z"/>
        </g>
        <g>
          <path class="cls-2" d="M741.53,76.27h-2.11V73h5.74v25.9h-3.63Z"/>
          <path class="cls-2" d="M750.19,94.51h3.37l-3.33,7.77h-2.67Z"/>
          <path class="cls-2" d="M756.59,89.77h3.7v3.78a2.46,2.46,0,0,0,4.92,0V88a2.48,2.48,0,0,0-4.92-.44v.22h-3.55V73h11.73v3.26h-8.11V84A4.93,4.93,0,0,1,764,82.67c2.85,0,4.89,1.66,4.89,5v6c0,3.33-2.22,5.59-6.11,5.59s-6.18-2.07-6.18-5.4Z"/>
          <path class="cls-2" d="M772.39,89.77H776v3.78a2.19,2.19,0,0,0,2.34,2.37,2.27,2.27,0,0,0,2.4-2.48V86.81a5,5,0,0,1-8.58-3.51v-5c0-3.33,2.22-5.59,6.1-5.59s6.18,2.07,6.18,5.4V93.92c0,3.07-2.33,5.25-6.18,5.25s-5.88-2.11-5.88-5.4ZM775.83,83a2.25,2.25,0,0,0,2.41,2.52,2.31,2.31,0,0,0,2.51-2.26V78.38a2.46,2.46,0,0,0-4.92,0Z"/>
          <path class="cls-2" d="M788.15,89.77h3.63v3.78a2.18,2.18,0,0,0,2.33,2.37,2.27,2.27,0,0,0,2.4-2.48V86.81a5,5,0,0,1-8.58-3.51v-5c0-3.33,2.22-5.59,6.1-5.59s6.18,2.07,6.18,5.4V93.92c0,3.07-2.33,5.25-6.18,5.25s-5.88-2.11-5.88-5.4ZM791.59,83A2.25,2.25,0,0,0,794,85.52a2.31,2.31,0,0,0,2.51-2.26V78.38a2.46,2.46,0,0,0-4.92,0Z"/>
        </g>
        <g>
          <path class="cls-2" d="M321,11c0-3.07,2.34-5.26,6.18-5.26s5.89,2.11,5.89,5.4v3.37h-3.63V11.15a2.21,2.21,0,0,0-2.33-2.36,2.27,2.27,0,0,0-2.41,2.48V18a4.9,4.9,0,0,1,3.71-1.44c2.84,0,4.88,1.66,4.88,5v5.06c0,3.33-2.22,5.59-6.11,5.59S321,30.1,321,26.77Zm3.7,15.54a2.47,2.47,0,0,0,4.93,0v-4.7a2.28,2.28,0,0,0-2.45-2.52,2.31,2.31,0,0,0-2.48,2.37Z"/>
          <path class="cls-2" d="M342.59,9.27h-7.07V6h11V8.64l-6.7,23.27H336Z"/>
          <path class="cls-2" d="M348.73,11.45c0-3.51,2.44-5.7,6.1-5.7s6.11,2.19,6.11,5.7v15c0,3.52-2.48,5.7-6.11,5.7s-6.1-2.18-6.1-5.7Zm8.55.33c0-1.62-.86-2.73-2.45-2.73a2.42,2.42,0,0,0-2.48,2.73V26.14a2.43,2.43,0,0,0,2.48,2.74c1.59,0,2.45-1.11,2.45-2.74Z"/>
        </g>
      </g>
    </g>
  </g>
</svg>
