<?xml version="1.0" encoding="utf-8"?>
<!-- Generator: Adobe Illustrator 22.0.1, SVG Export Plug-In . SVG Version: 6.00 Build 0)  -->
<svg version="1.1" id="Layer_1" xmlns="http://www.w3.org/2000/svg" xmlns:xlink="http://www.w3.org/1999/xlink" x="0px" y="0px"
	 width="489.7px" height="350.5px" viewBox="0 0 489.7 350.5" style="enable-background:new 0 0 489.7 350.5;" xml:space="preserve"
	>
<title>2017-organisations</title>
<g id="Layer_2_1_">
	<g id="Layer_1-2">
		<g>
			<g>
				<path style="fill:#FFFFFF;" d="M432.6,248.1v14.8h-1c-0.1,0-0.3,0-0.4-0.1c-0.1-0.1-0.2-0.2-0.3-0.3l-8.5-11.1v0.5
					c0,0.2,0,0.3,0,0.5v10.5h-1.7v-14.8h1.3l0.2,0.1c0.1,0,0.1,0.1,0.1,0.1c0.1,0.1,0.1,0.1,0.1,0.2l8.5,11.1c0-0.2,0-0.4,0-0.5
					s0-0.3,0-0.5v-10.4H432.6z"/>
				<path style="fill:#FFFFFF;" d="M448.3,248.1v14.8h-1c-0.1,0-0.3,0-0.4-0.1c-0.1-0.1-0.2-0.2-0.3-0.3l-8.6-11.1v0.5
					c0,0.2,0,0.3,0,0.5v10.5h-1.8v-14.8h1.3l0.2,0.1c0.1,0,0.1,0.1,0.1,0.1c0.1,0.1,0.1,0.1,0.1,0.2l8.5,11.1c0-0.2,0-0.4,0-0.5
					s0-0.3,0-0.5v-10.4H448.3z"/>
				<path style="fill:#FFFFFF;" d="M464,255.7v5.7c-0.7,0.5-1.5,0.9-2.4,1.2c-0.9,0.3-1.8,0.4-2.8,0.4c-1.1,0-2.2-0.2-3.2-0.5
					c-0.9-0.3-1.7-0.9-2.5-1.5c-0.7-0.7-1.2-1.5-1.6-2.4c-0.4-1-0.6-2-0.5-3.1c0-1.1,0.2-2.1,0.5-3.1c0.3-0.9,0.8-1.7,1.5-2.4
					c0.7-0.7,1.5-1.2,2.4-1.5c1-0.4,2.1-0.6,3.1-0.6c0.5,0,1.1,0,1.6,0.1c0.5,0.1,0.9,0.2,1.4,0.4c0.4,0.2,0.8,0.4,1.2,0.6
					c0.4,0.2,0.7,0.5,1,0.8l-0.6,0.9c-0.1,0.1-0.2,0.2-0.4,0.3c-0.2,0-0.3,0-0.5-0.1l-0.6-0.4c-0.2-0.2-0.5-0.3-0.8-0.4
					c-0.3-0.1-0.7-0.3-1.1-0.3c-0.5-0.1-1-0.1-1.5-0.1c-0.8,0-1.5,0.1-2.2,0.4c-0.7,0.3-1.2,0.7-1.7,1.2c-0.5,0.5-0.9,1.2-1.1,1.8
					c-0.3,0.8-0.4,1.6-0.4,2.4c0,0.8,0.1,1.7,0.4,2.5c0.2,0.7,0.6,1.3,1.1,1.9c0.5,0.5,1.1,0.9,1.8,1.2c0.8,0.3,1.6,0.4,2.4,0.4
					c0.6,0,1.2-0.1,1.8-0.2c0.5-0.2,1.1-0.4,1.6-0.6v-3.2H460c-0.1,0-0.2,0-0.3-0.1c-0.1-0.1-0.1-0.2-0.1-0.3v-1.1L464,255.7z"/>
				<path style="fill:#FFFFFF;" d="M480.8,255.5c0,1-0.2,2-0.5,3c-0.3,0.9-0.8,1.7-1.5,2.4c-0.6,0.7-1.4,1.2-2.3,1.5
					c-1.9,0.7-4,0.7-5.9,0c-0.9-0.3-1.7-0.9-2.3-1.5c-0.6-0.7-1.2-1.5-1.5-2.4c-0.7-2-0.7-4.1,0-6.1c0.3-0.9,0.8-1.7,1.5-2.4
					c0.6-0.7,1.4-1.2,2.3-1.6c1.9-0.7,4-0.7,5.9,0c0.9,0.4,1.7,0.9,2.3,1.6c0.7,0.7,1.2,1.5,1.5,2.4
					C480.6,253.4,480.8,254.4,480.8,255.5z M478.7,255.5c0-0.8-0.1-1.7-0.4-2.4c-0.2-0.7-0.6-1.3-1-1.8c-0.5-0.5-1-0.9-1.6-1.1
					c-1.4-0.5-2.9-0.5-4.3,0c-0.6,0.3-1.2,0.7-1.6,1.1c-0.5,0.5-0.8,1.1-1.1,1.8c-0.5,1.6-0.5,3.3,0,4.9c0.2,0.7,0.6,1.3,1.1,1.8
					c0.5,0.5,1,0.9,1.6,1.1c1.4,0.5,2.9,0.5,4.3,0c0.6-0.3,1.2-0.6,1.6-1.1c0.5-0.5,0.8-1.1,1-1.8
					C478.6,257.1,478.7,256.3,478.7,255.5z"/>
				<path style="fill:#FFFFFF;" d="M489.1,254.1c-0.1,0.1-0.2,0.2-0.4,0.2c-0.1,0-0.2,0-0.4-0.1l-0.5-0.2c-0.2-0.1-0.4-0.2-0.7-0.2
					c-0.3-0.1-0.6-0.1-0.9-0.1c-0.3,0-0.6,0-0.8,0.1c-0.2,0.1-0.4,0.2-0.6,0.3c-0.2,0.1-0.3,0.3-0.4,0.5c-0.1,0.2-0.1,0.4-0.1,0.6
					c0,0.2,0.1,0.5,0.2,0.7c0.2,0.2,0.4,0.3,0.6,0.5c0.3,0.1,0.6,0.3,0.9,0.4l1,0.3c0.3,0.1,0.7,0.2,1,0.4c0.3,0.1,0.6,0.3,0.9,0.5
					c0.3,0.2,0.5,0.5,0.6,0.8c0.2,0.3,0.2,0.7,0.2,1.1c0,0.5-0.1,0.9-0.3,1.3c-0.2,0.4-0.4,0.8-0.8,1.1c-0.4,0.3-0.8,0.6-1.2,0.7
					c-0.5,0.2-1.1,0.3-1.7,0.3c-0.7,0-1.4-0.1-2-0.4c-0.6-0.2-1.1-0.5-1.5-0.9l0.4-0.7c0.1-0.1,0.1-0.1,0.2-0.2
					c0.1-0.1,0.2-0.1,0.3-0.1c0.1,0,0.3,0.1,0.4,0.1c0.1,0.1,0.3,0.2,0.5,0.3c0.2,0.1,0.5,0.2,0.7,0.3c0.3,0.1,0.7,0.1,1,0.1
					c0.3,0,0.6,0,0.9-0.1c0.2-0.1,0.5-0.2,0.7-0.4c0.2-0.2,0.3-0.3,0.4-0.5c0.1-0.2,0.2-0.4,0.2-0.6c0-0.3-0.1-0.5-0.2-0.7
					c-0.2-0.2-0.4-0.4-0.6-0.5c-0.3-0.1-0.6-0.3-0.9-0.4l-1-0.3c-0.3-0.1-0.7-0.2-1-0.4c-0.3-0.1-0.6-0.3-0.9-0.5
					c-0.3-0.2-0.5-0.5-0.6-0.8c-0.2-0.4-0.2-0.7-0.2-1.1c0-0.4,0.1-0.8,0.2-1.1c0.2-0.4,0.4-0.7,0.7-1c0.3-0.3,0.7-0.5,1.2-0.7
					c0.5-0.2,1-0.2,1.6-0.2c0.6,0,1.3,0.1,1.9,0.3c0.5,0.2,1,0.5,1.4,0.9L489.1,254.1z"/>
			</g>
			<g>
				<path style="fill:#FFFFFF;" d="M108.4,36.3c0,1-0.2,2-0.5,3c-0.3,0.9-0.8,1.7-1.5,2.4c-0.6,0.7-1.4,1.2-2.3,1.5
					c-1.9,0.7-4,0.7-5.9,0c-0.9-0.4-1.6-0.9-2.3-1.5c-0.7-0.7-1.2-1.5-1.5-2.4c-0.7-2-0.7-4.1,0-6.1c0.3-0.9,0.8-1.7,1.5-2.4
					c0.6-0.7,1.4-1.2,2.3-1.6c1.9-0.7,4-0.7,5.9,0c0.9,0.4,1.7,0.9,2.3,1.6c0.7,0.7,1.2,1.5,1.5,2.4
					C108.3,34.2,108.4,35.2,108.4,36.3z M106.4,36.3c0-0.8-0.1-1.7-0.4-2.4c-0.2-0.7-0.6-1.3-1-1.8c-0.5-0.5-1-0.9-1.7-1.1
					c-1.4-0.5-2.9-0.5-4.3,0c-0.6,0.3-1.2,0.6-1.7,1.1c-0.5,0.5-0.8,1.2-1,1.8c-0.5,1.6-0.5,3.3,0,4.9c0.2,0.7,0.5,1.3,1,1.8
					c0.5,0.5,1,0.9,1.7,1.1c1.4,0.5,2.9,0.5,4.3,0c0.6-0.2,1.2-0.6,1.7-1.1c0.5-0.5,0.8-1.2,1-1.8C106.3,37.9,106.4,37.1,106.4,36.3
					L106.4,36.3z"/>
				<path style="fill:#FFFFFF;" d="M114,43.8c-0.7,0-1.4-0.2-1.9-0.7c-0.5-0.6-0.7-1.3-0.7-2v-6.4h-1.3c-0.1,0-0.2,0-0.3-0.1
					c-0.1-0.1-0.1-0.2-0.1-0.3v-0.7l1.7-0.2l0.4-3.2c0-0.1,0.1-0.2,0.1-0.2c0.1-0.1,0.2-0.1,0.3-0.1h0.9v3.6h3v1.3h-3V41
					c0,0.4,0.1,0.7,0.3,1c0.2,0.2,0.5,0.3,0.8,0.3c0.2,0,0.3,0,0.5-0.1c0.1,0,0.2-0.1,0.4-0.2l0.3-0.2c0.1,0,0.1-0.1,0.2-0.1
					c0.1,0,0.2,0.1,0.3,0.2l0.5,0.9c-0.3,0.3-0.7,0.5-1.1,0.7C115,43.7,114.5,43.8,114,43.8z"/>
				<path style="fill:#FFFFFF;" d="M120,34.6c0.4-0.5,0.9-0.8,1.5-1.1c0.6-0.3,1.2-0.4,1.9-0.4c0.5,0,1,0.1,1.5,0.3
					c0.4,0.2,0.8,0.5,1.1,0.8c0.3,0.4,0.5,0.8,0.7,1.2c0.2,0.5,0.2,1.1,0.2,1.6v6.6H125V37c0-0.7-0.2-1.3-0.5-1.8
					c-0.4-0.5-1-0.7-1.7-0.7c-0.5,0-1.1,0.1-1.5,0.4c-0.5,0.3-0.9,0.7-1.3,1.1v7.7h-1.8V28.5h1.8V34.6z"/>
				<path style="fill:#FFFFFF;" d="M138.1,42.2c-0.2,0.3-0.5,0.5-0.8,0.7c-0.3,0.2-0.7,0.4-1,0.5c-0.4,0.1-0.7,0.2-1.1,0.3
					c-0.4,0.1-0.8,0.1-1.1,0.1c-0.7,0-1.4-0.1-2-0.4c-0.6-0.2-1.1-0.6-1.6-1.1c-0.5-0.5-0.8-1.1-1-1.7c-0.3-0.8-0.4-1.6-0.4-2.4
					c0-0.7,0.1-1.4,0.3-2c0.2-0.6,0.6-1.2,1-1.7c0.4-0.5,1-0.8,1.5-1.1c0.6-0.3,1.3-0.4,2-0.4c0.6,0,1.2,0.1,1.7,0.3
					c0.5,0.2,1,0.5,1.4,0.9c0.4,0.4,0.7,0.9,0.9,1.5c0.2,0.6,0.3,1.3,0.3,2c0,0.2,0,0.4-0.1,0.6c-0.1,0.1-0.2,0.2-0.4,0.1h-7
					c0,0.6,0.1,1.2,0.3,1.7c0.1,0.5,0.4,0.9,0.7,1.2c0.3,0.3,0.6,0.6,1,0.7c0.4,0.2,0.9,0.3,1.3,0.2c0.4,0,0.8,0,1.2-0.2
					c0.3-0.1,0.6-0.2,0.9-0.3c0.2-0.1,0.4-0.2,0.6-0.3c0.1-0.1,0.3-0.1,0.4-0.2c0.1,0,0.3,0.1,0.4,0.2L138.1,42.2z M136.7,37.3
					c0-0.4-0.1-0.8-0.2-1.2c-0.1-0.3-0.3-0.7-0.5-0.9c-0.2-0.3-0.5-0.5-0.8-0.6c-1.1-0.4-2.3-0.2-3.2,0.6c-0.5,0.6-0.9,1.3-0.9,2.1
					H136.7z"/>
				<path style="fill:#FFFFFF;" d="M142.3,35.3c0.3-0.6,0.7-1.2,1.2-1.7c0.5-0.4,1.1-0.6,1.8-0.6c0.2,0,0.4,0,0.6,0.1
					c0.2,0,0.4,0.1,0.5,0.2l-0.1,1.4c0,0.2-0.1,0.3-0.3,0.3c0,0,0,0,0,0c-0.1,0-0.3,0-0.4-0.1c-0.2,0-0.4-0.1-0.6-0.1
					c-0.3,0-0.6,0-0.9,0.1c-0.3,0.1-0.5,0.2-0.7,0.4c-0.2,0.2-0.4,0.4-0.6,0.7c-0.2,0.3-0.3,0.7-0.4,1v6.6h-1.8V33.2h1.1
					c0.1,0,0.3,0,0.4,0.1c0.1,0.1,0.1,0.2,0.2,0.4L142.3,35.3z"/>
				<path style="fill:#FFFFFF;" d="M154.1,34.9c-0.1,0.1-0.2,0.2-0.4,0.2c-0.1,0-0.3,0-0.4-0.1l-0.5-0.2c-0.2-0.1-0.4-0.2-0.7-0.3
					c-0.3-0.1-0.6-0.1-0.9-0.1c-0.3,0-0.6,0-0.8,0.1c-0.2,0.1-0.4,0.2-0.6,0.3c-0.2,0.1-0.3,0.3-0.4,0.5c-0.1,0.2-0.1,0.4-0.1,0.6
					c0,0.2,0.1,0.5,0.2,0.7c0.2,0.2,0.4,0.3,0.6,0.5c0.3,0.1,0.6,0.3,0.9,0.3c0.3,0.1,0.6,0.2,1,0.3s0.7,0.2,1,0.4
					c0.3,0.1,0.6,0.3,0.9,0.5c0.3,0.2,0.5,0.5,0.6,0.8c0.2,0.3,0.2,0.7,0.2,1.1c0,0.5-0.1,0.9-0.2,1.3c-0.2,0.4-0.4,0.8-0.8,1.1
					c-0.4,0.3-0.8,0.5-1.2,0.7c-0.5,0.2-1.1,0.3-1.7,0.3c-0.7,0-1.4-0.1-2-0.4c-0.6-0.2-1.1-0.5-1.5-0.9l0.4-0.7
					c0-0.1,0.1-0.2,0.2-0.2c0.1-0.1,0.2-0.1,0.3-0.1c0.1,0,0.3,0.1,0.4,0.2L149,42c0.2,0.1,0.5,0.2,0.7,0.3c0.3,0.1,0.7,0.1,1.1,0.1
					c0.3,0,0.6,0,0.9-0.1c0.2-0.1,0.5-0.2,0.7-0.4c0.2-0.1,0.3-0.3,0.4-0.5c0.1-0.2,0.1-0.4,0.1-0.7c0-0.3-0.1-0.5-0.2-0.7
					c-0.2-0.2-0.4-0.4-0.6-0.5c-0.3-0.1-0.6-0.3-0.9-0.3l-1-0.3c-0.3-0.1-0.7-0.2-1-0.4c-0.3-0.1-0.6-0.3-0.9-0.5
					c-0.3-0.2-0.5-0.5-0.6-0.8c-0.2-0.4-0.3-0.7-0.2-1.1c0-0.4,0.1-0.8,0.2-1.2c0.2-0.4,0.4-0.7,0.7-1c0.3-0.3,0.7-0.5,1.2-0.7
					c0.5-0.2,1-0.3,1.6-0.2c0.6,0,1.3,0.1,1.9,0.3c0.5,0.2,1,0.5,1.4,0.9L154.1,34.9z"/>
			</g>
			<g>
				<path style="fill:#FFFFFF;" d="M245.7,13.4c0.6,0,1.1-0.1,1.6-0.3c0.5-0.2,0.9-0.5,1.2-0.9c0.3-0.4,0.6-0.8,0.8-1.3
					c0.2-0.5,0.3-1.1,0.3-1.7v-9h2v9c0,0.8-0.1,1.6-0.4,2.4c-0.3,0.7-0.7,1.3-1.2,1.9c-0.5,0.5-1.2,1-1.9,1.2
					c-1.6,0.6-3.3,0.6-4.9,0c-0.7-0.3-1.3-0.7-1.9-1.2c-0.5-0.5-0.9-1.2-1.2-1.9c-0.3-0.8-0.4-1.6-0.4-2.4v-9h2v9
					c0,0.6,0.1,1.2,0.3,1.7c0.2,0.5,0.4,0.9,0.8,1.3c0.3,0.4,0.8,0.7,1.2,0.9C244.6,13.4,245.2,13.5,245.7,13.4z"/>
				<path style="fill:#FFFFFF;" d="M267.1,0.3V15h-1c-0.1,0-0.3,0-0.4-0.1c-0.1-0.1-0.2-0.2-0.3-0.3l-8.5-11.1c0,0.2,0,0.3,0,0.5
					c0,0.2,0,0.3,0,0.5V15h-1.8V0.3h1.3h0.2c0.1,0,0.1,0.1,0.1,0.1c0.1,0.1,0.1,0.1,0.1,0.2l8.5,11.1c0-0.2,0-0.4,0-0.5s0-0.3,0-0.5
					V0.3H267.1z"/>
				<path style="fill:#FFFFFF;" d="M287.5,15h-1.5c-0.2,0-0.3,0-0.4-0.1c-0.1-0.1-0.2-0.2-0.2-0.3l-1.4-3.5h-6.6l-1.4,3.6
					c0,0.1-0.1,0.2-0.2,0.3c-0.1,0.1-0.3,0.1-0.4,0.1h-1.5l5.9-14.8h2L287.5,15z M283.3,9.5l-2.3-6c-0.1-0.2-0.1-0.4-0.2-0.6
					s-0.1-0.5-0.2-0.8c-0.1,0.5-0.3,0.9-0.4,1.4l-2.3,6L283.3,9.5z"/>
				<path style="fill:#FFFFFF;" d="M297.8,5v0.7c0,0.2-0.1,0.4-0.4,0.4l-1.2,0.2c0.2,0.5,0.4,1,0.4,1.5c0,0.5-0.1,0.9-0.3,1.4
					c-0.2,0.4-0.5,0.8-0.8,1.1c-0.4,0.3-0.8,0.5-1.2,0.7c-0.5,0.2-1,0.2-1.6,0.2c-0.5,0-0.9-0.1-1.4-0.2c-0.2,0.1-0.4,0.3-0.5,0.4
					c-0.1,0.1-0.2,0.3-0.2,0.5c0,0.2,0.1,0.4,0.3,0.6c0.2,0.1,0.5,0.2,0.8,0.3c0.4,0.1,0.8,0.1,1.1,0.1l1.3,0.1
					c0.5,0,0.9,0.1,1.3,0.2c0.4,0.1,0.8,0.2,1.1,0.4c0.7,0.3,1.2,1.1,1.1,1.9c0,0.5-0.1,0.9-0.3,1.3c-0.3,0.4-0.6,0.8-1,1.1
					c-0.5,0.4-1,0.6-1.5,0.8c-0.7,0.2-1.4,0.3-2,0.3c-0.7,0-1.3-0.1-2-0.2c-0.5-0.1-1-0.3-1.4-0.6c-0.4-0.2-0.6-0.5-0.9-0.9
					c-0.2-0.3-0.3-0.6-0.3-1c0-0.5,0.2-1,0.5-1.3c0.4-0.4,0.8-0.7,1.3-0.9c-0.3-0.1-0.5-0.3-0.7-0.6c-0.2-0.3-0.3-0.6-0.3-0.9
					c0-0.2,0-0.3,0.1-0.5c0.1-0.2,0.1-0.3,0.2-0.5c0.1-0.2,0.3-0.3,0.4-0.5c0.2-0.1,0.4-0.3,0.6-0.4c-0.5-0.3-0.9-0.7-1.2-1.1
					c-0.3-0.5-0.4-1.1-0.4-1.7c0-0.5,0.1-1,0.4-1.4c0.2-0.4,0.5-0.8,0.8-1.1c0.3-0.3,0.7-0.5,1.2-0.7c0.5-0.2,1.1-0.2,1.6-0.2
					c0.4,0,0.8,0,1.3,0.2c0.4,0.1,0.8,0.2,1.1,0.4H297.8z M295.9,15.6c0-0.2-0.1-0.4-0.2-0.6c-0.2-0.2-0.4-0.3-0.6-0.4
					c-0.3-0.1-0.6-0.2-0.9-0.2c-0.3,0-0.7-0.1-1-0.1l-1.1-0.1c-0.4,0-0.7-0.1-1.1-0.1c-0.4,0.2-0.7,0.4-0.9,0.7
					c-0.2,0.3-0.4,0.6-0.4,0.9c0,0.2,0.1,0.5,0.2,0.7c0.1,0.2,0.3,0.4,0.5,0.5c0.3,0.2,0.6,0.3,0.9,0.4c0.4,0.1,0.9,0.1,1.3,0.1
					c0.4,0,0.9,0,1.3-0.1c0.4-0.1,0.7-0.2,1-0.4c0.2-0.1,0.5-0.3,0.6-0.6C295.9,16.1,296,15.9,295.9,15.6z M292.6,9.9
					c0.3,0,0.7,0,1-0.1c0.3-0.1,0.5-0.2,0.7-0.4c0.2-0.2,0.3-0.4,0.4-0.7c0.1-0.3,0.1-0.6,0.1-0.9c0-0.6-0.2-1.1-0.6-1.5
					c-1-0.7-2.4-0.7-3.4,0c-0.4,0.4-0.6,1-0.6,1.5c0,0.3,0,0.6,0.1,0.9c0.1,0.3,0.2,0.5,0.4,0.7c0.2,0.2,0.4,0.3,0.7,0.4
					C292,9.9,292.3,9.9,292.6,9.9z"/>
				<path style="fill:#FFFFFF;" d="M308,13.6c-0.2,0.3-0.5,0.5-0.8,0.7c-0.3,0.2-0.6,0.4-1,0.5c-0.4,0.1-0.7,0.2-1.1,0.3
					c-0.4,0.1-0.8,0.1-1.1,0.1c-0.7,0-1.4-0.1-2-0.4c-0.6-0.2-1.1-0.6-1.6-1.1c-0.5-0.5-0.8-1.1-1-1.8c-0.3-0.8-0.4-1.6-0.4-2.4
					c0-0.7,0.1-1.4,0.3-2c0.2-0.6,0.6-1.2,1-1.6c0.4-0.5,0.9-0.8,1.5-1.1c0.6-0.3,1.3-0.4,2-0.4c0.6,0,1.2,0.1,1.7,0.3
					c0.5,0.2,1,0.5,1.4,0.9c0.4,0.4,0.7,0.9,0.9,1.5c0.2,0.6,0.3,1.3,0.3,2c0,0.2,0,0.4-0.1,0.6c-0.1,0.1-0.2,0.2-0.4,0.1h-7
					c0,0.6,0.1,1.2,0.3,1.7c0.1,0.4,0.4,0.9,0.7,1.2c0.3,0.3,0.6,0.6,1,0.7c0.4,0.2,0.9,0.2,1.3,0.2c0.4,0,0.8,0,1.2-0.2
					c0.3-0.1,0.6-0.2,0.9-0.3c0.2-0.1,0.4-0.2,0.6-0.4c0.1-0.1,0.3-0.1,0.4-0.2c0.1,0,0.3,0.1,0.4,0.2L308,13.6z M306.5,8.7
					c0-0.4-0.1-0.8-0.2-1.2c-0.1-0.3-0.3-0.6-0.5-0.9c-0.2-0.3-0.5-0.5-0.8-0.6c-0.4-0.1-0.7-0.2-1.1-0.2c-0.8,0-1.5,0.2-2.1,0.8
					c-0.6,0.6-0.9,1.3-1,2.1L306.5,8.7z"/>
				<path style="fill:#FFFFFF;" d="M312.2,6.1c0.2-0.3,0.5-0.5,0.7-0.7c0.2-0.2,0.5-0.4,0.8-0.5c0.3-0.2,0.6-0.3,0.9-0.3
					c0.3-0.1,0.7-0.1,1-0.1c0.5,0,1,0.1,1.5,0.3c0.4,0.2,0.8,0.5,1.1,0.8c0.3,0.4,0.5,0.8,0.7,1.2c0.2,0.5,0.2,1.1,0.2,1.6V15h-1.8
					V8.4c0-0.7-0.2-1.3-0.5-1.8c-0.4-0.5-1-0.7-1.6-0.7c-0.5,0-1.1,0.1-1.5,0.4c-0.5,0.3-0.9,0.6-1.3,1.1V15h-1.8V4.6h1.1
					c0.2,0,0.5,0.1,0.5,0.4c0,0,0,0,0,0L312.2,6.1z"/>
				<path style="fill:#FFFFFF;" d="M329.2,6.4c0,0.1-0.1,0.1-0.2,0.2c-0.1,0-0.1,0.1-0.2,0.1c-0.1,0-0.2-0.1-0.3-0.1
					c-0.1-0.1-0.3-0.2-0.5-0.3c-0.2-0.1-0.4-0.2-0.7-0.3c-0.3-0.1-0.7-0.1-1-0.1c-0.5,0-0.9,0.1-1.4,0.3c-0.4,0.2-0.7,0.5-1,0.8
					c-0.3,0.4-0.5,0.8-0.6,1.3c-0.1,0.5-0.2,1.1-0.2,1.6c0,0.6,0.1,1.1,0.2,1.7c0.1,0.4,0.3,0.9,0.6,1.2c0.3,0.3,0.6,0.6,1,0.8
					c0.4,0.2,0.8,0.3,1.3,0.3c0.4,0,0.7,0,1.1-0.2c0.3-0.1,0.5-0.2,0.7-0.4c0.2-0.1,0.3-0.2,0.5-0.4c0.1-0.1,0.2-0.2,0.4-0.2
					c0.1,0,0.3,0.1,0.4,0.2l0.5,0.7c-0.2,0.3-0.5,0.5-0.8,0.7c-0.3,0.2-0.6,0.4-0.9,0.5c-0.3,0.1-0.7,0.2-1,0.3
					c-0.4,0.1-0.7,0.1-1.1,0.1c-0.6,0-1.2-0.1-1.8-0.4c-0.6-0.2-1-0.6-1.5-1c-0.4-0.5-0.8-1.1-1-1.7c-0.2-0.7-0.4-1.5-0.4-2.3
					c0-0.7,0.1-1.5,0.3-2.2c0.2-0.6,0.5-1.2,1-1.7c0.4-0.5,0.9-0.9,1.5-1.1c0.7-0.3,1.4-0.4,2.1-0.4c0.7,0,1.3,0.1,1.9,0.3
					c0.6,0.2,1.1,0.6,1.5,1L329.2,6.4z"/>
				<path style="fill:#FFFFFF;" d="M334.1,1.3c0,0.2,0,0.3-0.1,0.5c-0.1,0.2-0.2,0.3-0.3,0.4c-0.1,0.1-0.3,0.2-0.4,0.3
					c-0.2,0.1-0.3,0.1-0.5,0.1c-0.2,0-0.3,0-0.5-0.1c-0.2-0.1-0.3-0.2-0.4-0.3c-0.1-0.1-0.2-0.3-0.3-0.4c-0.1-0.2-0.1-0.3-0.1-0.5
					c0-0.2,0-0.3,0.1-0.5c0.1-0.2,0.2-0.3,0.3-0.4c0.1-0.1,0.3-0.2,0.4-0.3c0.2-0.1,0.3-0.1,0.5-0.1c0.2,0,0.3,0,0.5,0.1
					c0.3,0.1,0.6,0.4,0.7,0.7C334.1,1,334.1,1.1,334.1,1.3z M333.7,4.6V15h-1.8V4.6H333.7z"/>
				<path style="fill:#FFFFFF;" d="M345.2,13.6c-0.2,0.3-0.5,0.5-0.8,0.7c-0.3,0.2-0.7,0.4-1,0.5c-0.4,0.1-0.7,0.2-1.1,0.3
					c-0.4,0.1-0.8,0.1-1.1,0.1c-0.7,0-1.4-0.1-2-0.4c-0.6-0.2-1.1-0.6-1.6-1.1c-0.5-0.5-0.8-1.1-1-1.8c-0.3-0.8-0.4-1.6-0.4-2.4
					c0-0.7,0.1-1.4,0.3-2c0.2-0.6,0.6-1.2,1-1.6c0.4-0.5,1-0.8,1.5-1.1c0.6-0.3,1.3-0.4,2-0.4c0.6,0,1.2,0.1,1.7,0.3
					c0.5,0.2,1,0.5,1.4,0.9c0.4,0.4,0.7,0.9,0.9,1.4c0.2,0.6,0.3,1.3,0.3,2c0,0.2,0,0.4-0.1,0.6c-0.1,0.1-0.2,0.2-0.4,0.1h-7
					c0,0.6,0.1,1.2,0.3,1.7c0.1,0.4,0.4,0.9,0.7,1.2c0.3,0.3,0.6,0.6,1,0.7c0.4,0.2,0.9,0.2,1.3,0.2c0.4,0,0.8,0,1.2-0.2
					c0.3-0.1,0.6-0.2,0.9-0.3c0.2-0.1,0.4-0.2,0.6-0.4c0.1-0.1,0.3-0.1,0.4-0.2c0.1,0,0.3,0.1,0.4,0.2L345.2,13.6z M343.7,8.7
					c0-0.4-0.1-0.8-0.2-1.2c-0.1-0.3-0.3-0.6-0.5-0.9c-0.2-0.3-0.5-0.5-0.8-0.6c-1.1-0.4-2.3-0.2-3.2,0.6c-0.5,0.6-0.9,1.3-0.9,2.1
					H343.7z"/>
				<path style="fill:#FFFFFF;" d="M353.7,6.3c-0.1,0.1-0.2,0.2-0.4,0.2c-0.1,0-0.2,0-0.4-0.1c-0.2-0.1-0.3-0.2-0.5-0.2
					c-0.2-0.1-0.4-0.2-0.7-0.3c-0.3-0.1-0.6-0.1-0.9-0.1c-0.3,0-0.6,0-0.8,0.1c-0.2,0.1-0.4,0.2-0.6,0.3c-0.2,0.1-0.3,0.3-0.4,0.5
					c-0.1,0.2-0.1,0.4-0.1,0.6c0,0.2,0.1,0.5,0.2,0.7c0.2,0.2,0.4,0.4,0.6,0.5c0.3,0.1,0.6,0.3,0.9,0.3l1,0.3c0.3,0.1,0.7,0.2,1,0.4
					c0.3,0.1,0.6,0.3,0.9,0.5c0.3,0.2,0.5,0.5,0.6,0.8c0.2,0.3,0.3,0.7,0.2,1.1c0,0.5-0.1,0.9-0.3,1.3c-0.2,0.4-0.4,0.8-0.8,1.1
					c-0.4,0.3-0.8,0.6-1.2,0.7c-0.5,0.2-1.1,0.3-1.7,0.2c-0.7,0-1.4-0.1-2-0.4c-0.5-0.2-1.1-0.5-1.5-0.9l0.4-0.7
					c0.1-0.1,0.1-0.2,0.2-0.2c0.1-0.1,0.2-0.1,0.3-0.1c0.1,0,0.3,0.1,0.4,0.1c0.2,0.1,0.3,0.2,0.5,0.3c0.2,0.1,0.5,0.2,0.7,0.3
					c0.3,0.1,0.7,0.2,1,0.1c0.3,0,0.6,0,0.9-0.1c0.2-0.1,0.5-0.2,0.7-0.4c0.2-0.2,0.3-0.3,0.4-0.6c0.1-0.2,0.1-0.4,0.1-0.6
					c0-0.3-0.1-0.5-0.2-0.7c-0.2-0.2-0.4-0.4-0.6-0.5c-0.3-0.1-0.6-0.3-0.9-0.4c-0.3-0.1-0.7-0.2-1-0.3c-0.3-0.1-0.7-0.2-1-0.4
					c-0.3-0.1-0.6-0.3-0.9-0.5c-0.3-0.2-0.5-0.5-0.6-0.8c-0.2-0.4-0.2-0.7-0.2-1.1c0-0.4,0.1-0.8,0.2-1.2c0.2-0.4,0.4-0.7,0.7-1
					c0.3-0.3,0.7-0.5,1.2-0.7c0.5-0.2,1-0.3,1.6-0.2c0.6,0,1.3,0.1,1.8,0.3c0.5,0.2,1,0.5,1.4,0.9L353.7,6.3z"/>
			</g>
			<g>
				<path style="fill:#FFFFFF;" d="M72.2,339h-2v-14.7h2V339z"/>
				<path style="fill:#FFFFFF;" d="M87.9,324.3V339h-1c-0.1,0-0.3,0-0.4-0.1c-0.1-0.1-0.2-0.2-0.3-0.3l-8.5-11.1c0,0.2,0,0.3,0,0.5
					c0,0.2,0,0.3,0,0.5V339h-1.7v-14.7h1.3h0.2c0.1,0,0.1,0.1,0.2,0.1c0.1,0,0.1,0.1,0.2,0.2l8.5,11.1v-0.5c0-0.2,0-0.3,0-0.5v-10.4
					H87.9z"/>
				<path style="fill:#FFFFFF;" d="M103.7,331.9v5.7c-0.7,0.5-1.5,0.9-2.4,1.2c-0.9,0.3-1.8,0.4-2.8,0.4c-1.1,0-2.2-0.2-3.2-0.5
					c-0.9-0.3-1.7-0.9-2.4-1.5c-0.7-0.7-1.2-1.5-1.6-2.4c-0.4-1-0.6-2-0.5-3.1c0-1.1,0.2-2.1,0.5-3.1c0.3-0.9,0.8-1.7,1.5-2.4
					c0.7-0.7,1.5-1.2,2.4-1.5c1-0.4,2.1-0.6,3.1-0.5c0.5,0,1.1,0,1.6,0.1c0.5,0.1,0.9,0.2,1.4,0.4c0.4,0.2,0.8,0.4,1.2,0.6
					c0.4,0.2,0.7,0.5,1,0.8l-0.6,0.9c-0.1,0.1-0.2,0.2-0.3,0.3c-0.2,0-0.3,0-0.5-0.1l-0.6-0.4c-0.2-0.2-0.5-0.3-0.8-0.4
					c-0.4-0.1-0.7-0.3-1.1-0.3c-0.5-0.1-1-0.1-1.5-0.1c-0.8,0-1.5,0.1-2.3,0.4c-0.7,0.3-1.2,0.7-1.7,1.2c-0.5,0.5-0.9,1.2-1.1,1.8
					c-0.3,0.8-0.4,1.6-0.4,2.4c0,0.8,0.1,1.7,0.4,2.5c0.3,0.7,0.6,1.3,1.2,1.9c0.5,0.5,1.1,0.9,1.8,1.2c0.8,0.3,1.6,0.4,2.4,0.4
					c0.6,0,1.2-0.1,1.8-0.2c0.5-0.2,1.1-0.4,1.6-0.6v-3.2h-2.3c-0.1,0-0.2,0-0.3-0.1c-0.1-0.1-0.1-0.2-0.1-0.3v-1.1L103.7,331.9z"/>
				<path style="fill:#FFFFFF;" d="M120.4,331.7c0,1-0.2,2-0.5,3c-0.3,0.9-0.8,1.7-1.5,2.4c-0.6,0.7-1.4,1.2-2.3,1.5
					c-1.9,0.7-4,0.7-5.9,0c-0.9-0.3-1.7-0.9-2.3-1.5c-0.6-0.7-1.1-1.5-1.5-2.4c-0.7-2-0.7-4.1,0-6.1c0.3-0.9,0.8-1.7,1.5-2.4
					c0.6-0.7,1.4-1.2,2.3-1.6c1.9-0.7,4-0.7,5.9,0c0.9,0.4,1.7,0.9,2.3,1.6c0.7,0.7,1.2,1.5,1.5,2.4
					C120.2,329.6,120.4,330.6,120.4,331.7z M118.4,331.7c0-0.8-0.1-1.7-0.4-2.4c-0.2-0.7-0.5-1.3-1-1.8c-0.5-0.5-1-0.9-1.7-1.1
					c-1.4-0.5-2.9-0.5-4.3,0c-0.6,0.3-1.2,0.7-1.7,1.1c-0.5,0.5-0.8,1.2-1.1,1.8c-0.5,1.6-0.5,3.3,0,4.9c0.2,0.7,0.6,1.3,1.1,1.8
					c0.5,0.5,1,0.9,1.7,1.1c1.4,0.5,2.9,0.5,4.3,0c0.6-0.2,1.2-0.6,1.7-1.1c0.5-0.5,0.8-1.2,1-1.8
					C118.2,333.3,118.3,332.5,118.4,331.7L118.4,331.7z"/>
				<path style="fill:#FFFFFF;" d="M128.7,330.3c-0.1,0.1-0.2,0.2-0.4,0.2c-0.1,0-0.2,0-0.3-0.1l-0.5-0.3c-0.2-0.1-0.4-0.2-0.7-0.2
					c-0.3-0.1-0.6-0.1-0.9-0.1c-0.3,0-0.6,0-0.8,0.1c-0.2,0.1-0.4,0.2-0.6,0.3c-0.2,0.1-0.3,0.3-0.4,0.5c-0.1,0.2-0.1,0.4-0.1,0.6
					c0,0.2,0.1,0.5,0.2,0.7c0.2,0.2,0.4,0.4,0.6,0.5c0.3,0.1,0.6,0.3,0.9,0.3l1,0.3c0.3,0.1,0.7,0.2,1,0.4c0.3,0.1,0.6,0.3,0.9,0.5
					c0.3,0.2,0.5,0.5,0.6,0.8c0.2,0.3,0.2,0.7,0.2,1.1c0,0.5-0.1,0.9-0.3,1.3c-0.2,0.4-0.4,0.8-0.8,1.1c-0.4,0.3-0.8,0.6-1.3,0.8
					c-0.5,0.2-1.1,0.3-1.7,0.2c-0.7,0-1.4-0.1-2-0.4c-0.6-0.2-1.1-0.5-1.5-0.9l0.4-0.7c0.1-0.1,0.1-0.1,0.2-0.2
					c0.1-0.1,0.2-0.1,0.3-0.1c0.1,0,0.3,0.1,0.4,0.1c0.1,0.1,0.3,0.2,0.5,0.3c0.2,0.1,0.5,0.2,0.7,0.3c0.3,0.1,0.7,0.2,1.1,0.1
					c0.3,0,0.6,0,0.9-0.1c0.2-0.1,0.5-0.2,0.7-0.4c0.2-0.2,0.3-0.3,0.4-0.5c0.1-0.2,0.1-0.4,0.1-0.7c0-0.3-0.1-0.5-0.2-0.7
					c-0.2-0.2-0.4-0.4-0.6-0.5c-0.3-0.1-0.6-0.3-0.9-0.4l-1-0.3c-0.3-0.1-0.7-0.2-1-0.4c-0.3-0.1-0.6-0.3-0.9-0.5
					c-0.3-0.2-0.5-0.5-0.6-0.8c-0.2-0.4-0.2-0.7-0.2-1.1c0-0.8,0.4-1.6,1-2.1c0.3-0.3,0.7-0.5,1.2-0.7c0.5-0.2,1-0.3,1.6-0.2
					c0.6,0,1.3,0.1,1.8,0.3c0.5,0.2,1,0.5,1.4,0.9L128.7,330.3z"/>
			</g>
			<g>
				<path style="fill:#0050AF;stroke:#FFFFFF;stroke-width:2;stroke-linecap:round;stroke-linejoin:round;" d="M252.6,40.4
					c84.1,0,152.2,68.2,152.2,152.3c0,55.5-30.2,106.6-78.9,133.4l-36.7-66.7c36.8-20.2,50.3-66.5,30-103.4
					c-13.4-24.3-39-39.5-66.7-39.5L252.6,40.4z"/>
				<path style="fill:#1868B7;stroke:#FFFFFF;stroke-width:2;stroke-linecap:round;stroke-linejoin:round;" d="M326,326.1
					c-73.7,40.5-166.3,13.6-206.8-60.1c-15.5-28.2-21.7-60.5-17.6-92.4l75.5,9.5c-5.3,41.7,24.3,79.8,66,85.1
					c16,2,32.1-1.1,46.2-8.8L326,326.1z"/>
				<path style="fill:#257BC1;stroke:#FFFFFF;stroke-width:2;stroke-linecap:round;stroke-linejoin:round;" d="M101.6,173.6
					c4-31.9,18.1-61.7,40.1-85.1l55.5,52.1c-11,11.7-18,26.6-20,42.6L101.6,173.6z"/>
				<path style="fill:#338ECC;stroke:#FFFFFF;stroke-width:2;stroke-linecap:round;stroke-linejoin:round;" d="M141.7,88.5
					c19.8-21.1,45.1-36.1,73.1-43.2l18.9,73.8c-14,3.6-26.7,11.1-36.6,21.6L141.7,88.5z"/>
				<path style="fill:#4BAAE0;stroke:#FFFFFF;stroke-width:2;stroke-linecap:round;stroke-linejoin:round;" d="M214.8,45.2
					c12.4-3.2,25.1-4.8,37.9-4.8v76.1c-6.4,0-12.7,0.8-18.9,2.4L214.8,45.2z"/>
			</g>
			<g>
				<path style="fill:#FFFFFF;" d="M356,200.4v1.8c0,0.2-0.1,0.3-0.2,0.4c-0.1,0.1-0.3,0.2-0.5,0.2h-0.9v3.4h-2.8v-3.4h-6
					c-0.2,0-0.4-0.1-0.5-0.2c-0.2-0.1-0.3-0.3-0.3-0.5l-0.3-1.6l7-9.3h3v9.2L356,200.4z M351.7,200.4v-3.9c0-0.2,0-0.5,0-0.8
					c0-0.3,0-0.6,0.1-0.9l-4,5.6L351.7,200.4z"/>
				<path style="fill:#FFFFFF;" d="M366.6,203.4c0.3,0,0.6,0.1,0.8,0.3c0.2,0.2,0.3,0.5,0.3,0.7v1.9h-10.5v-1c0-0.2,0-0.4,0.1-0.6
					c0.1-0.2,0.2-0.5,0.4-0.6l4.3-4.4c0.4-0.3,0.7-0.7,1-1.1c0.3-0.3,0.5-0.6,0.7-1c0.2-0.3,0.3-0.7,0.4-1c0.1-0.3,0.1-0.7,0.1-1
					c0-0.5-0.1-1-0.4-1.4c-0.3-0.3-0.8-0.5-1.3-0.5c-0.4,0-0.9,0.1-1.2,0.4c-0.3,0.2-0.6,0.6-0.7,0.9c-0.1,0.3-0.3,0.6-0.6,0.8
					c-0.3,0.1-0.7,0.2-1,0.1l-1.7-0.3c0.1-0.7,0.3-1.3,0.6-1.9c0.3-0.5,0.7-1,1.2-1.4c0.5-0.4,1-0.7,1.6-0.8
					c0.6-0.2,1.3-0.3,1.9-0.3c0.7,0,1.4,0.1,2,0.3c0.6,0.2,1.1,0.5,1.5,0.9c0.4,0.4,0.8,0.8,1,1.4c0.2,0.6,0.3,1.2,0.3,1.8
					c0,0.5-0.1,1-0.2,1.5c-0.2,0.5-0.4,0.9-0.6,1.3c-0.3,0.4-0.6,0.8-0.9,1.2c-0.4,0.4-0.7,0.8-1.1,1.2l-2.9,3
					c0.4-0.1,0.8-0.2,1.1-0.3c0.3-0.1,0.7-0.1,1-0.1L366.6,203.4z"/>
				<path style="fill:#FFFFFF;" d="M376.4,194.9c0,0.5-0.1,1-0.3,1.5c-0.2,0.4-0.5,0.8-0.8,1.2c-0.3,0.3-0.7,0.6-1.1,0.8
					c-0.4,0.2-0.9,0.3-1.4,0.3c-0.5,0-1-0.1-1.4-0.3c-0.4-0.2-0.8-0.4-1.1-0.8c-0.3-0.3-0.6-0.7-0.8-1.2c-0.2-0.5-0.3-1-0.3-1.5
					c0-0.5,0.1-1.1,0.3-1.6c0.2-0.4,0.4-0.8,0.8-1.2c0.3-0.3,0.7-0.6,1.1-0.8c0.9-0.4,2-0.4,2.9,0c0.4,0.2,0.8,0.4,1.1,0.8
					c0.3,0.3,0.6,0.7,0.8,1.2C376.3,193.8,376.4,194.4,376.4,194.9z M381.1,191.7c0.1-0.1,0.2-0.2,0.4-0.3c0.2-0.1,0.4-0.2,0.6-0.1
					h2.3l-11.3,14.6c-0.1,0.1-0.2,0.2-0.4,0.3c-0.2,0.1-0.4,0.1-0.6,0.1h-2.4L381.1,191.7z M373.9,194.9c0-0.3,0-0.6-0.1-0.9
					c0-0.2-0.1-0.4-0.2-0.6c-0.1-0.1-0.2-0.2-0.4-0.3c-0.1-0.1-0.3-0.1-0.5-0.1c-0.2,0-0.3,0-0.5,0.1c-0.1,0.1-0.3,0.2-0.4,0.3
					c-0.1,0.2-0.2,0.4-0.2,0.6c-0.1,0.3-0.1,0.6-0.1,0.9c0,0.3,0,0.6,0.1,0.8c0,0.2,0.1,0.4,0.2,0.5c0.1,0.1,0.2,0.2,0.4,0.3
					c0.1,0.1,0.3,0.1,0.5,0.1c0.2,0,0.3,0,0.5-0.1c0.1-0.1,0.3-0.2,0.4-0.3c0.1-0.2,0.2-0.3,0.2-0.5
					C373.9,195.4,373.9,195.2,373.9,194.9z M385,202.7c0,0.5-0.1,1-0.3,1.5c-0.2,0.4-0.5,0.8-0.8,1.2c-0.3,0.3-0.7,0.6-1.1,0.8
					c-0.4,0.2-0.9,0.3-1.4,0.3c-0.5,0-1-0.1-1.4-0.3c-0.4-0.2-0.8-0.4-1.1-0.8c-0.3-0.3-0.6-0.7-0.8-1.2c-0.2-0.5-0.3-1-0.3-1.5
					c0-0.5,0.1-1.1,0.3-1.6c0.2-0.4,0.4-0.8,0.8-1.2c0.3-0.3,0.7-0.6,1.1-0.8c0.5-0.2,0.9-0.3,1.4-0.3c0.5,0,1,0.1,1.5,0.3
					c0.4,0.2,0.8,0.4,1.2,0.8c0.3,0.3,0.6,0.7,0.8,1.2C384.9,201.7,385,202.2,385,202.7z M382.5,202.7c0-0.3,0-0.6-0.1-0.9
					c0-0.2-0.1-0.4-0.2-0.6c-0.1-0.1-0.2-0.2-0.4-0.3c-0.1-0.1-0.3-0.1-0.5-0.1c-0.2,0-0.3,0-0.5,0.1c-0.1,0.1-0.3,0.2-0.4,0.3
					c-0.1,0.2-0.2,0.4-0.2,0.6c-0.1,0.3-0.1,0.6-0.1,0.9c0,0.3,0,0.6,0.1,0.8c0,0.2,0.1,0.4,0.2,0.5c0.1,0.1,0.2,0.2,0.4,0.3
					c0.1,0.1,0.3,0.1,0.5,0.1c0.2,0,0.3,0,0.5-0.1c0.1-0.1,0.3-0.2,0.4-0.3c0.1-0.2,0.2-0.3,0.2-0.5
					C382.5,203.3,382.5,203,382.5,202.7L382.5,202.7z"/>
			</g>
			<g>
				<path style="fill:#FFFFFF;" d="M170.4,285.2c0.1-0.7,0.3-1.4,0.6-2c0.6-1.1,1.6-1.9,2.8-2.2c0.6-0.2,1.3-0.3,1.9-0.3
					c0.7,0,1.4,0.1,2,0.3c0.5,0.2,1,0.5,1.5,0.9c0.4,0.3,0.7,0.8,0.9,1.2c0.2,0.5,0.3,1,0.3,1.5c0,0.4,0,0.8-0.1,1.3
					c-0.1,0.3-0.2,0.6-0.4,0.9c-0.2,0.3-0.4,0.5-0.7,0.7c-0.3,0.2-0.6,0.3-0.9,0.5c1.5,0.4,2.6,1.8,2.5,3.4c0,0.7-0.1,1.4-0.4,2.1
					c-0.3,0.6-0.7,1.1-1.2,1.5c-0.5,0.4-1.1,0.7-1.7,0.9c-0.6,0.2-1.3,0.3-2,0.3c-0.6,0-1.3-0.1-1.9-0.2c-0.5-0.1-1-0.4-1.5-0.7
					c-0.5-0.3-0.8-0.8-1.1-1.2c-0.4-0.6-0.6-1.2-0.9-1.8l1.4-0.6c0.3-0.1,0.7-0.2,1-0.1c0.3,0.1,0.5,0.2,0.7,0.5
					c0.2,0.5,0.6,0.9,1,1.2c0.4,0.3,0.8,0.4,1.2,0.4c0.3,0,0.6-0.1,0.9-0.2c0.2-0.1,0.5-0.3,0.7-0.5c0.3-0.4,0.5-0.9,0.5-1.4
					c0-0.3,0-0.6-0.1-0.9c0-0.3-0.2-0.5-0.4-0.7c-0.3-0.2-0.6-0.4-0.9-0.4c-0.6-0.1-1.1-0.2-1.7-0.1v-2.2c0.5,0,1,0,1.5-0.1
					c0.3-0.1,0.6-0.2,0.9-0.4c0.2-0.2,0.3-0.4,0.4-0.6c0.1-0.3,0.1-0.5,0.1-0.8c0-0.5-0.1-1-0.4-1.4c-0.3-0.3-0.8-0.5-1.3-0.5
					c-0.4,0-0.9,0.1-1.2,0.4c-0.3,0.2-0.5,0.6-0.7,0.9c-0.1,0.3-0.3,0.6-0.6,0.8c-0.3,0.1-0.7,0.2-1,0.1L170.4,285.2z"/>
				<path style="fill:#FFFFFF;" d="M186,286.2c0.3-0.1,0.5-0.1,0.8-0.1c0.3,0,0.5,0,0.8,0c0.7,0,1.4,0.1,2.1,0.4
					c0.6,0.2,1.1,0.6,1.5,1c0.4,0.4,0.7,0.9,0.9,1.5c0.2,0.6,0.3,1.2,0.3,1.8c0,0.8-0.1,1.5-0.4,2.2c-0.3,0.6-0.7,1.2-1.2,1.7
					c-0.5,0.5-1.1,0.9-1.8,1.1c-0.7,0.3-1.5,0.4-2.3,0.4c-0.5,0-0.9,0-1.4-0.2c-0.4-0.1-0.8-0.2-1.2-0.4c-0.4-0.2-0.7-0.4-1.1-0.6
					c-0.3-0.2-0.6-0.5-0.9-0.7l1-1.3c0.1-0.1,0.2-0.2,0.4-0.3c0.1-0.1,0.3-0.1,0.4-0.1c0.2,0,0.4,0.1,0.6,0.2l0.6,0.4
					c0.2,0.2,0.5,0.3,0.8,0.4c0.3,0.1,0.7,0.2,1.1,0.2c0.4,0,0.8-0.1,1.1-0.2c0.3-0.1,0.5-0.3,0.7-0.6c0.2-0.2,0.3-0.5,0.4-0.9
					c0.1-0.3,0.1-0.7,0.1-1c0-0.6-0.2-1.2-0.6-1.7c-0.5-0.4-1.1-0.6-1.8-0.6c-0.7,0-1.4,0.1-2,0.4l-2-0.5l1.3-7.5h7.7v1.3
					c0,0.2,0,0.4-0.1,0.6c-0.1,0.2-0.2,0.3-0.3,0.5c-0.2,0.1-0.4,0.3-0.6,0.3c-0.3,0.1-0.6,0.1-0.9,0.1h-3.6L186,286.2z"/>
				<path style="fill:#FFFFFF;" d="M201.2,284.5c0,0.5-0.1,1-0.3,1.5c-0.4,0.9-1.1,1.6-1.9,2c-0.4,0.2-0.9,0.3-1.4,0.3
					c-0.5,0-1-0.1-1.4-0.3c-0.9-0.4-1.5-1.1-1.9-1.9c-0.2-0.5-0.3-1-0.3-1.5c0-0.5,0.1-1.1,0.3-1.5c0.3-0.9,1-1.6,1.9-2
					c0.5-0.2,0.9-0.3,1.4-0.3c0.5,0,1,0.1,1.4,0.3c0.4,0.2,0.8,0.4,1.1,0.8c0.3,0.3,0.6,0.8,0.8,1.2
					C201.2,283.5,201.3,284,201.2,284.5z M206,281.4c0.1-0.1,0.2-0.2,0.4-0.3c0.2-0.1,0.4-0.2,0.6-0.1h2.3L198,295.5
					c-0.1,0.1-0.2,0.2-0.4,0.3c-0.2,0.1-0.4,0.1-0.6,0.1h-2.4L206,281.4z M198.8,284.5c0-0.3,0-0.6-0.1-0.9c0-0.2-0.1-0.4-0.2-0.5
					c-0.1-0.1-0.2-0.2-0.4-0.3c-0.1-0.1-0.3-0.1-0.5-0.1c-0.2,0-0.3,0-0.5,0.1c-0.1,0.1-0.3,0.2-0.4,0.3c-0.1,0.2-0.2,0.4-0.2,0.5
					c-0.1,0.3-0.1,0.6-0.1,0.9c0,0.3,0,0.6,0.1,0.8c0,0.2,0.1,0.4,0.2,0.5c0.1,0.1,0.2,0.2,0.4,0.3c0.1,0.1,0.3,0.1,0.5,0.1
					c0.2,0,0.3,0,0.5-0.1c0.1-0.1,0.3-0.2,0.4-0.3c0.1-0.2,0.2-0.3,0.2-0.5C198.8,285.1,198.8,284.8,198.8,284.5z M209.9,292.4
					c0,0.5-0.1,1-0.3,1.5c-0.2,0.4-0.5,0.8-0.8,1.2c-0.3,0.3-0.7,0.6-1.1,0.8c-0.4,0.2-0.9,0.3-1.4,0.3c-0.5,0-1-0.1-1.4-0.3
					c-0.9-0.4-1.5-1.1-1.9-1.9c-0.2-0.5-0.3-1-0.3-1.5c0-0.5,0.1-1.1,0.3-1.5c0.3-0.9,1-1.6,1.9-2c0.5-0.2,0.9-0.3,1.4-0.3
					c0.5,0,1,0.1,1.4,0.3c0.4,0.2,0.8,0.4,1.1,0.8c0.3,0.3,0.6,0.7,0.8,1.2C209.8,291.3,209.9,291.8,209.9,292.4z M207.4,292.4
					c0-0.3,0-0.6-0.1-0.9c0-0.2-0.1-0.4-0.2-0.5c-0.1-0.1-0.2-0.2-0.4-0.3c-0.1-0.1-0.3-0.1-0.5-0.1c-0.2,0-0.3,0-0.4,0.1
					c-0.1,0.1-0.3,0.2-0.4,0.3c-0.1,0.2-0.2,0.4-0.2,0.5c-0.1,0.3-0.1,0.6-0.1,0.9c0,0.3,0,0.6,0.1,0.8c0,0.2,0.1,0.4,0.2,0.5
					c0.1,0.1,0.2,0.2,0.4,0.3c0.1,0.1,0.3,0.1,0.4,0.1c0.2,0,0.3,0,0.5-0.1c0.1-0.1,0.3-0.2,0.4-0.3c0.1-0.2,0.2-0.3,0.2-0.5
					C207.4,292.9,207.4,292.7,207.4,292.4z"/>
			</g>
			<g>
				<path style="fill:#FFFFFF;" d="M140.9,150.7v2.3h-8.6v-2.3h2.9v-7.6c0-0.2,0-0.4,0-0.6v-0.6l-1.7,1.4c-0.1,0.1-0.3,0.2-0.4,0.2
					c-0.1,0-0.3,0-0.4,0c-0.1,0-0.2-0.1-0.4-0.1c-0.1-0.1-0.2-0.1-0.2-0.2l-1-1.3l4.7-3.9h2.6v12.7L140.9,150.7z"/>
				<path style="fill:#FFFFFF;" d="M153.5,145.5c0,1.2-0.1,2.3-0.4,3.4c-0.2,0.9-0.6,1.7-1.2,2.4c-0.5,0.6-1.1,1.1-1.8,1.4
					c-0.7,0.3-1.5,0.5-2.2,0.5c-0.8,0-1.5-0.2-2.2-0.5c-0.7-0.3-1.3-0.8-1.8-1.4c-0.5-0.7-0.9-1.5-1.2-2.4c-0.6-2.2-0.6-4.6,0-6.8
					c0.2-0.9,0.6-1.7,1.2-2.4c0.5-0.6,1.1-1.1,1.8-1.4c0.7-0.3,1.4-0.5,2.2-0.5c0.8,0,1.5,0.1,2.2,0.5c0.7,0.3,1.3,0.8,1.8,1.4
					c0.5,0.7,0.9,1.5,1.2,2.4C153.4,143.2,153.6,144.3,153.5,145.5z M150.2,145.5c0-0.9,0-1.7-0.2-2.6c-0.1-0.5-0.3-1.1-0.5-1.6
					c-0.2-0.3-0.4-0.6-0.7-0.8c-0.3-0.1-0.5-0.2-0.8-0.2c-0.7,0-1.3,0.4-1.6,1c-0.2,0.5-0.4,1-0.5,1.6c-0.3,1.7-0.3,3.4,0,5.1
					c0.1,0.5,0.3,1.1,0.5,1.6c0.4,0.9,1.4,1.2,2.3,0.8c0,0,0.1,0,0.1,0c0.3-0.2,0.6-0.5,0.7-0.8c0.2-0.5,0.4-1,0.5-1.6
					C150.2,147.2,150.2,146.3,150.2,145.5z"/>
				<path style="fill:#FFFFFF;" d="M161.8,141.6c0,0.5-0.1,1-0.3,1.5c-0.2,0.4-0.5,0.8-0.8,1.2c-0.3,0.3-0.7,0.6-1.1,0.8
					c-0.4,0.2-0.9,0.3-1.4,0.3c-0.5,0-1-0.1-1.4-0.3c-0.4-0.2-0.8-0.4-1.1-0.8c-0.3-0.3-0.6-0.7-0.8-1.2c-0.2-0.5-0.3-1-0.3-1.5
					c0-0.5,0.1-1.1,0.3-1.6c0.2-0.4,0.4-0.8,0.8-1.2c0.3-0.3,0.7-0.6,1.1-0.8c0.9-0.4,2-0.4,2.9,0c0.4,0.2,0.8,0.4,1.1,0.8
					c0.3,0.3,0.6,0.7,0.7,1.2C161.7,140.6,161.8,141.1,161.8,141.6z M166.6,138.4c0.1-0.1,0.2-0.2,0.4-0.3c0.2-0.1,0.4-0.2,0.6-0.1
					h2.3l-11.3,14.6c-0.1,0.1-0.2,0.2-0.4,0.3c-0.2,0.1-0.4,0.1-0.6,0.1h-2.4L166.6,138.4z M159.4,141.6c0-0.3,0-0.6-0.1-0.9
					c0-0.2-0.1-0.4-0.2-0.6c-0.1-0.1-0.2-0.2-0.4-0.3c-0.1-0.1-0.3-0.1-0.4-0.1c-0.2,0-0.3,0-0.5,0.1c-0.1,0.1-0.3,0.2-0.4,0.3
					c-0.1,0.2-0.2,0.4-0.2,0.6c-0.1,0.3-0.1,0.6-0.1,0.9c0,0.3,0,0.6,0.1,0.8c0,0.2,0.1,0.4,0.2,0.5c0.1,0.1,0.2,0.2,0.4,0.3
					c0.1,0.1,0.3,0.1,0.5,0.1c0.2,0,0.3,0,0.4-0.1c0.1-0.1,0.3-0.2,0.4-0.3c0.1-0.2,0.2-0.3,0.2-0.5
					C159.4,142.2,159.4,141.9,159.4,141.6z M170.5,149.5c0,0.5-0.1,1-0.3,1.5c-0.2,0.4-0.5,0.8-0.8,1.2c-0.3,0.3-0.7,0.6-1.1,0.8
					c-0.4,0.2-0.9,0.3-1.4,0.3c-0.5,0-1-0.1-1.4-0.3c-0.4-0.2-0.8-0.4-1.1-0.8c-0.3-0.3-0.6-0.7-0.8-1.2c-0.2-0.5-0.3-1-0.3-1.5
					c0-0.5,0.1-1.1,0.3-1.6c0.2-0.4,0.4-0.8,0.8-1.2c0.3-0.3,0.7-0.6,1.1-0.8c0.5-0.2,0.9-0.3,1.4-0.3c0.5,0,1,0.1,1.4,0.3
					c0.4,0.2,0.8,0.4,1.1,0.8c0.3,0.3,0.6,0.7,0.8,1.2C170.4,148.4,170.5,148.9,170.5,149.5z M168,149.5c0-0.3,0-0.6-0.1-0.9
					c0-0.2-0.1-0.4-0.2-0.6c-0.1-0.1-0.2-0.2-0.4-0.3c-0.1-0.1-0.3-0.1-0.5-0.1c-0.2,0-0.3,0-0.5,0.1c-0.1,0.1-0.3,0.2-0.4,0.3
					c-0.1,0.2-0.2,0.4-0.2,0.6c-0.1,0.3-0.1,0.6-0.1,0.9c0,0.3,0,0.6,0.1,0.8c0,0.2,0.1,0.4,0.2,0.5c0.1,0.1,0.2,0.2,0.4,0.3
					c0.1,0.1,0.3,0.1,0.5,0.1c0.2,0,0.3,0,0.5-0.1c0.1-0.1,0.3-0.1,0.4-0.3c0.1-0.2,0.2-0.3,0.2-0.5C168,150,168,149.7,168,149.5
					L168,149.5z"/>
			</g>
			<g>
				<path style="fill:#FFFFFF;" d="M234.9,69.1v1.5c0,0.1,0,0.3-0.1,0.4c-0.1,0.1-0.2,0.2-0.4,0.1h-0.8V74h-2.4v-2.9h-5.1
					c-0.2,0-0.3-0.1-0.5-0.2c-0.1-0.1-0.2-0.2-0.3-0.4l-0.3-1.3l5.9-7.9h2.5v7.8H234.9z M231.3,69.1v-3.3c0-0.2,0-0.4,0-0.7
					c0-0.2,0-0.5,0.1-0.7l-3.4,4.7H231.3z"/>
				<path style="fill:#FFFFFF;" d="M242,64.4c0,0.4-0.1,0.9-0.3,1.3c-0.2,0.4-0.4,0.7-0.7,1c-0.3,0.3-0.6,0.5-1,0.6
					c-0.4,0.2-0.8,0.2-1.2,0.2c-0.4,0-0.8-0.1-1.2-0.2c-0.4-0.1-0.7-0.4-1-0.6c-0.3-0.3-0.5-0.6-0.6-1c-0.2-0.4-0.2-0.8-0.2-1.3
					c0-0.4,0.1-0.9,0.2-1.3c0.1-0.4,0.4-0.7,0.6-1c0.3-0.3,0.6-0.5,1-0.7c0.4-0.2,0.8-0.2,1.2-0.2c0.4,0,0.8,0.1,1.2,0.2
					c0.4,0.1,0.7,0.4,1,0.7c0.3,0.3,0.5,0.6,0.6,1C241.9,63.5,242,64,242,64.4z M246,61.7c0.1-0.1,0.2-0.2,0.3-0.3
					c0.2-0.1,0.3-0.1,0.5-0.1h2l-9.6,12.3c-0.1,0.1-0.2,0.2-0.3,0.3c-0.1,0.1-0.3,0.1-0.5,0.1h-2L246,61.7z M239.9,64.4
					c0-0.2,0-0.5-0.1-0.7c0-0.2-0.1-0.3-0.2-0.5c-0.1-0.1-0.2-0.2-0.3-0.2c-0.1,0-0.3-0.1-0.4-0.1c-0.1,0-0.3,0-0.4,0.1
					c-0.1,0-0.2,0.1-0.3,0.2c-0.1,0.1-0.2,0.3-0.2,0.5c0,0.2-0.1,0.5-0.1,0.7c0,0.2,0,0.5,0.1,0.7c0,0.2,0.1,0.3,0.2,0.4
					c0.1,0.1,0.2,0.2,0.3,0.2c0.1,0,0.3,0.1,0.4,0.1c0.1,0,0.3,0,0.4-0.1c0.1-0.1,0.2-0.1,0.3-0.2c0.1-0.1,0.2-0.3,0.2-0.4
					C239.9,64.9,239.9,64.7,239.9,64.4z M249.3,71.1c0,0.8-0.3,1.7-0.9,2.3c-0.3,0.3-0.6,0.5-1,0.6c-0.4,0.2-0.8,0.2-1.2,0.2
					c-0.4,0-0.8-0.1-1.2-0.2c-0.4-0.1-0.7-0.4-1-0.6c-0.3-0.3-0.5-0.6-0.6-1c-0.2-0.4-0.2-0.8-0.2-1.3c0-0.4,0.1-0.9,0.2-1.3
					c0.1-0.4,0.4-0.7,0.6-1c0.3-0.3,0.6-0.5,1-0.7c0.8-0.3,1.7-0.3,2.4,0c0.4,0.1,0.7,0.4,1,0.7c0.3,0.3,0.5,0.6,0.6,1
					C249.2,70.2,249.3,70.6,249.3,71.1L249.3,71.1z M247.2,71.1c0-0.2,0-0.5-0.1-0.7c0-0.2-0.1-0.3-0.2-0.5
					c-0.1-0.1-0.2-0.2-0.3-0.2c-0.1,0-0.3-0.1-0.4-0.1c-0.1,0-0.3,0-0.4,0.1c-0.1,0.1-0.2,0.1-0.3,0.2c-0.1,0.1-0.2,0.3-0.2,0.5
					c-0.1,0.2-0.1,0.5-0.1,0.7c0,0.2,0,0.5,0.1,0.7c0,0.2,0.1,0.3,0.2,0.4c0.1,0.1,0.2,0.2,0.3,0.2c0.1,0,0.3,0.1,0.4,0.1
					c0.1,0,0.3,0,0.4-0.1c0.1-0.1,0.2-0.1,0.3-0.2c0.1-0.1,0.2-0.3,0.2-0.4C247.2,71.5,247.2,71.3,247.2,71.1L247.2,71.1z"/>
			</g>
			<g>
				<path style="fill:#FFFFFF;" d="M185.4,96.1l0.3-0.3l0.2-0.3c-0.7,0.3-1.4,0.5-2.1,0.5c-0.5,0-1-0.1-1.5-0.3
					c-1-0.4-1.8-1.1-2.3-2.1c-0.3-0.6-0.4-1.3-0.4-1.9c0-0.7,0.1-1.3,0.4-1.9c0.2-0.6,0.6-1.1,1.1-1.6c0.5-0.5,1-0.8,1.7-1.1
					c0.7-0.3,1.4-0.4,2.2-0.4c0.7,0,1.5,0.1,2.2,0.4c0.6,0.2,1.2,0.6,1.6,1c0.4,0.5,0.8,1,1,1.6c0.2,0.6,0.4,1.3,0.4,2
					c0,0.9-0.1,1.8-0.4,2.6c-0.3,0.8-0.7,1.5-1.2,2.2l-3.2,4.6c-0.2,0.2-0.4,0.4-0.7,0.5c-0.3,0.1-0.7,0.2-1,0.2h-2.9L185.4,96.1z
					 M182.9,91.3c0,1.5,0.7,2.2,2.1,2.2c0.6,0,1.2-0.2,1.6-0.6c0.4-0.5,0.6-1,0.6-1.6c0-0.3,0-0.7-0.2-1c-0.2-0.5-0.6-0.9-1.1-1.1
					c-0.3-0.1-0.6-0.1-0.9-0.1c-0.3,0-0.6,0.1-0.9,0.2c-0.2,0.1-0.5,0.3-0.6,0.5c-0.2,0.2-0.3,0.4-0.4,0.7
					C182.9,90.7,182.9,91,182.9,91.3z"/>
				<path style="fill:#FFFFFF;" d="M198.9,90.4c0,0.5-0.1,1-0.3,1.5c-0.2,0.4-0.5,0.8-0.8,1.2c-0.3,0.3-0.7,0.6-1.1,0.8
					c-0.4,0.2-0.9,0.3-1.4,0.3c-0.5,0-1-0.1-1.4-0.3c-0.4-0.2-0.8-0.4-1.1-0.8c-0.3-0.3-0.6-0.7-0.8-1.2c-0.2-0.5-0.3-1-0.3-1.5
					c0-0.5,0.1-1.1,0.3-1.6c0.2-0.4,0.4-0.8,0.8-1.2c0.3-0.3,0.7-0.6,1.1-0.8c0.5-0.2,0.9-0.3,1.4-0.3c0.5,0,1,0.1,1.4,0.3
					c0.4,0.2,0.8,0.4,1.1,0.8c0.3,0.3,0.6,0.7,0.8,1.2C198.8,89.3,198.9,89.9,198.9,90.4z M203.6,87.2c0.1-0.1,0.2-0.2,0.4-0.3
					c0.2-0.1,0.4-0.2,0.6-0.2h2.4l-11.3,14.6c-0.1,0.1-0.2,0.2-0.4,0.3c-0.2,0.1-0.4,0.1-0.6,0.1h-2.4L203.6,87.2z M196.4,90.4
					c0-0.3,0-0.6-0.1-0.9c0-0.2-0.1-0.4-0.2-0.6c-0.1-0.1-0.2-0.2-0.4-0.3c-0.1-0.1-0.3-0.1-0.5-0.1c-0.2,0-0.3,0-0.4,0.1
					c-0.1,0.1-0.3,0.2-0.4,0.3c-0.1,0.2-0.2,0.4-0.2,0.6c-0.1,0.3-0.1,0.6-0.1,0.9c0,0.3,0,0.6,0.1,0.8c0,0.2,0.1,0.4,0.2,0.5
					c0.1,0.1,0.2,0.2,0.4,0.3c0.1,0.1,0.3,0.1,0.4,0.1c0.2,0,0.3,0,0.5-0.1c0.1-0.1,0.3-0.2,0.4-0.3c0.1-0.2,0.2-0.3,0.2-0.5
					C196.4,91,196.4,90.7,196.4,90.4z M207.5,98.2c0,0.5-0.1,1-0.3,1.5c-0.2,0.4-0.5,0.8-0.8,1.2c-0.3,0.3-0.7,0.6-1.1,0.8
					c-0.4,0.2-0.9,0.3-1.4,0.3c-0.5,0-1-0.1-1.4-0.3c-0.4-0.2-0.8-0.4-1.1-0.8c-0.3-0.3-0.6-0.7-0.7-1.2c-0.2-0.5-0.3-1-0.3-1.5
					c0-0.5,0.1-1.1,0.3-1.6c0.2-0.4,0.4-0.8,0.7-1.2c0.3-0.3,0.7-0.6,1.1-0.8c0.5-0.2,0.9-0.3,1.4-0.3c0.5,0,1,0.1,1.4,0.3
					c0.4,0.2,0.8,0.4,1.1,0.8c0.3,0.3,0.6,0.7,0.8,1.2C207.4,97.2,207.5,97.7,207.5,98.2z M205.1,98.2c0-0.3,0-0.6-0.1-0.9
					c0-0.2-0.1-0.4-0.2-0.6c-0.1-0.1-0.2-0.2-0.4-0.3c-0.1-0.1-0.3-0.1-0.5-0.1c-0.2,0-0.3,0-0.4,0.1c-0.1,0.1-0.3,0.2-0.4,0.3
					c-0.1,0.2-0.2,0.4-0.2,0.6c-0.1,0.3-0.1,0.6-0.1,0.9c0,0.3,0,0.6,0.1,0.8c0,0.2,0.1,0.4,0.2,0.5c0.1,0.1,0.2,0.2,0.4,0.3
					c0.1,0.1,0.3,0.1,0.4,0.1c0.2,0,0.3,0,0.5-0.1c0.1-0.1,0.3-0.2,0.4-0.3c0.1-0.2,0.2-0.3,0.2-0.5
					C205.1,98.8,205.1,98.5,205.1,98.2z"/>
			</g>
			<g>
				<path style="fill:#FFFFFF;" d="M13.9,77.8v5.7c-0.7,0.5-1.5,0.9-2.4,1.2c-0.9,0.3-1.8,0.4-2.8,0.4c-1.1,0-2.2-0.2-3.2-0.6
					c-0.9-0.3-1.7-0.9-2.4-1.6c-0.7-0.7-1.2-1.5-1.6-2.4c-0.4-1-0.5-2-0.5-3c0-1.1,0.2-2.1,0.5-3.1c0.3-0.9,0.8-1.7,1.5-2.4
					c0.7-0.7,1.5-1.2,2.4-1.5c1-0.4,2.1-0.6,3.1-0.6c0.5,0,1.1,0,1.6,0.1c0.5,0.1,0.9,0.2,1.4,0.4c0.4,0.2,0.8,0.4,1.2,0.6
					c0.4,0.2,0.7,0.5,1,0.8l-0.6,0.9C13.1,72.9,13,73,12.8,73c-0.2,0-0.3,0-0.5-0.1l-0.6-0.3c-0.2-0.2-0.5-0.3-0.8-0.4
					c-0.3-0.1-0.7-0.3-1.1-0.3c-0.5-0.1-1-0.1-1.5-0.1c-0.8,0-1.5,0.1-2.3,0.4c-0.7,0.3-1.2,0.7-1.7,1.2c-0.5,0.5-0.9,1.2-1.1,1.8
					C3.1,75.9,3,76.7,3,77.6c0,0.8,0.1,1.7,0.4,2.5c0.2,0.7,0.6,1.3,1.1,1.9c0.5,0.5,1.1,0.9,1.8,1.2c0.8,0.3,1.5,0.4,2.4,0.4
					c0.6,0,1.2-0.1,1.8-0.2c0.5-0.2,1.1-0.4,1.6-0.6v-3.2H9.8c-0.1,0-0.2,0-0.3-0.1c-0.1-0.1-0.1-0.2-0.1-0.3v-1.2H13.9z"/>
				<path style="fill:#FFFFFF;" d="M20.8,74.3c0.7,0,1.4,0.1,2.1,0.4c0.6,0.2,1.1,0.6,1.6,1.1c0.4,0.5,0.8,1.1,1,1.7
					c0.5,1.4,0.5,3,0,4.4c-0.2,0.6-0.6,1.2-1,1.7c-0.4,0.5-1,0.8-1.6,1.1c-0.7,0.3-1.4,0.4-2.1,0.4c-0.7,0-1.4-0.1-2.1-0.4
					c-0.6-0.2-1.1-0.6-1.6-1.1c-0.4-0.5-0.8-1.1-1-1.7c-0.2-0.7-0.4-1.5-0.4-2.2c0-0.8,0.1-1.5,0.4-2.2c0.2-0.6,0.6-1.2,1-1.7
					c0.4-0.5,1-0.8,1.6-1.1C19.4,74.5,20.1,74.3,20.8,74.3z M20.8,83.7c0.9,0.1,1.7-0.3,2.3-1c1-1.8,1-4,0-5.8
					c-0.6-0.7-1.4-1.1-2.3-1c-0.5,0-0.9,0.1-1.4,0.3c-0.4,0.2-0.7,0.4-1,0.8c-0.3,0.4-0.5,0.8-0.6,1.2c-0.1,0.5-0.2,1.1-0.2,1.7
					c-0.1,1,0.2,2,0.8,2.9C19,83.4,19.9,83.8,20.8,83.7z"/>
				<path style="fill:#FFFFFF;" d="M36.7,74.5L32.5,85h-1.6l-4.2-10.5H28c0.1,0,0.3,0,0.4,0.1c0.1,0.1,0.2,0.2,0.2,0.3l2.6,6.7
					c0.1,0.2,0.2,0.5,0.2,0.7l0.2,0.7c0-0.2,0.1-0.5,0.2-0.7s0.1-0.5,0.2-0.7l2.7-6.7c0-0.1,0.1-0.2,0.2-0.3
					c0.1-0.1,0.2-0.1,0.3-0.1L36.7,74.5z"/>
				<path style="fill:#FFFFFF;" d="M46.6,83.5c-0.2,0.3-0.5,0.5-0.8,0.7c-0.3,0.2-0.7,0.4-1,0.5c-0.4,0.1-0.7,0.2-1.1,0.3
					c-0.4,0.1-0.8,0.1-1.2,0.1c-0.7,0-1.4-0.1-2-0.4c-0.6-0.2-1.1-0.6-1.6-1.1c-0.5-0.5-0.8-1.1-1-1.7c-0.3-0.8-0.4-1.6-0.4-2.4
					c0-0.7,0.1-1.4,0.3-2c0.2-0.6,0.6-1.2,1-1.6c0.4-0.5,1-0.8,1.5-1.1c0.6-0.3,1.3-0.4,2-0.4c0.6,0,1.2,0.1,1.7,0.3
					c0.5,0.2,1,0.5,1.4,0.9c0.4,0.4,0.7,0.9,0.9,1.4c0.2,0.6,0.3,1.3,0.3,2c0,0.2,0,0.4-0.1,0.6c-0.1,0.1-0.2,0.1-0.3,0.1h-7
					c0,0.6,0.1,1.2,0.3,1.7c0.1,0.5,0.4,0.9,0.7,1.2c0.3,0.3,0.6,0.6,1,0.7c0.4,0.2,0.9,0.2,1.3,0.2c0.4,0,0.8,0,1.2-0.2
					c0.3-0.1,0.6-0.2,0.9-0.3c0.2-0.1,0.4-0.2,0.6-0.3c0.1-0.1,0.3-0.1,0.4-0.2c0.1,0,0.3,0.1,0.3,0.2L46.6,83.5z M45.1,78.6
					c0-0.4-0.1-0.8-0.2-1.2c-0.1-0.3-0.3-0.6-0.5-0.9c-0.2-0.3-0.5-0.5-0.8-0.6c-1.1-0.4-2.3-0.2-3.2,0.6c-0.6,0.6-0.9,1.3-1,2.1
					H45.1z"/>
				<path style="fill:#FFFFFF;" d="M50.7,76.6c0.3-0.6,0.7-1.2,1.3-1.7c0.5-0.4,1.1-0.6,1.8-0.6c0.2,0,0.4,0,0.6,0.1
					c0.2,0,0.4,0.1,0.5,0.2L54.8,76c0,0.2-0.2,0.3-0.3,0.3c-0.1,0-0.3,0-0.4-0.1c-0.2,0-0.4-0.1-0.6-0.1c-0.3,0-0.6,0-0.9,0.1
					c-0.3,0.1-0.5,0.2-0.7,0.4c-0.2,0.2-0.4,0.4-0.5,0.7c-0.2,0.3-0.3,0.6-0.4,0.9V85H49V74.5h1c0.1,0,0.3,0,0.4,0.1
					c0.1,0.1,0.2,0.2,0.2,0.4L50.7,76.6z"/>
				<path style="fill:#FFFFFF;" d="M58.2,76c0.2-0.3,0.5-0.5,0.7-0.7c0.3-0.2,0.5-0.4,0.8-0.5c0.3-0.2,0.6-0.3,0.9-0.3
					c0.3-0.1,0.7-0.1,1-0.1c0.5,0,1,0.1,1.5,0.3c0.4,0.2,0.8,0.5,1.1,0.8c0.3,0.4,0.6,0.8,0.7,1.3c0.2,0.5,0.2,1.1,0.2,1.6V85h-1.9
					v-6.7c0-0.7-0.2-1.3-0.5-1.8c-0.4-0.5-1-0.7-1.6-0.7c-0.5,0-1.1,0.1-1.5,0.4c-0.5,0.3-0.9,0.6-1.3,1.1V85h-1.8V74.5h1.1
					c0.2,0,0.4,0.1,0.5,0.4L58.2,76z"/>
				<path style="fill:#FFFFFF;" d="M68,85V74.5h1.1c0.2,0,0.4,0.1,0.5,0.4l0.1,1.1c0.4-0.5,0.8-0.9,1.3-1.2c0.5-0.3,1.1-0.5,1.7-0.4
					c0.6,0,1.2,0.2,1.7,0.6c0.5,0.4,0.8,1,0.9,1.6c0.3-0.7,0.7-1.3,1.4-1.7c0.3-0.2,0.6-0.3,0.9-0.4c0.3-0.1,0.7-0.1,1-0.1
					c0.5,0,1,0.1,1.5,0.3c0.4,0.2,0.8,0.4,1.1,0.8c0.3,0.4,0.5,0.8,0.7,1.2c0.2,0.5,0.2,1.1,0.2,1.7V85h-1.8v-6.7
					c0-0.7-0.1-1.3-0.5-1.9c-0.4-0.4-1-0.7-1.5-0.6c-0.3,0-0.6,0.1-0.9,0.2c-0.6,0.2-1,0.7-1.2,1.2C76,77.6,76,77.9,76,78.3V85h-1.9
					v-6.7c0.1-0.7-0.1-1.3-0.5-1.9c-0.4-0.4-0.9-0.7-1.5-0.6c-0.4,0-0.9,0.1-1.3,0.4c-0.4,0.3-0.8,0.6-1.1,1V85H68z"/>
				<path style="fill:#FFFFFF;" d="M93.4,83.5c-0.2,0.3-0.5,0.5-0.8,0.7c-0.3,0.2-0.6,0.4-1,0.5c-0.4,0.1-0.7,0.2-1.1,0.3
					c-0.4,0.1-0.8,0.1-1.1,0.1c-0.7,0-1.4-0.1-2-0.4c-0.6-0.2-1.1-0.6-1.6-1.1c-0.5-0.5-0.8-1.1-1-1.7c-0.3-0.8-0.4-1.6-0.4-2.4
					c0-0.7,0.1-1.4,0.3-2c0.2-0.6,0.6-1.2,1-1.6c0.4-0.5,1-0.8,1.5-1.1c0.6-0.3,1.3-0.4,2-0.4c0.6,0,1.2,0.1,1.7,0.3
					c0.5,0.2,1,0.5,1.4,0.9c0.4,0.4,0.7,0.9,0.9,1.4c0.2,0.6,0.3,1.3,0.3,2c0,0.2,0,0.4-0.1,0.6c-0.1,0.1-0.2,0.2-0.3,0.1h-7
					c0,0.6,0.1,1.2,0.3,1.7c0.1,0.5,0.4,0.9,0.7,1.2c0.3,0.3,0.6,0.6,1,0.7c0.4,0.2,0.9,0.2,1.3,0.2c0.4,0,0.8,0,1.2-0.2
					c0.3-0.1,0.6-0.2,0.9-0.3c0.2-0.1,0.4-0.2,0.6-0.3c0.1-0.1,0.3-0.1,0.4-0.2c0.1,0,0.3,0.1,0.3,0.2L93.4,83.5z M91.9,78.6
					c0-0.4-0.1-0.8-0.2-1.2c-0.1-0.3-0.3-0.6-0.5-0.9c-0.2-0.3-0.5-0.5-0.8-0.6c-1.1-0.4-2.3-0.2-3.2,0.6c-0.6,0.6-0.9,1.3-1,2.1
					H91.9z"/>
				<path style="fill:#FFFFFF;" d="M97.5,76c0.2-0.3,0.5-0.5,0.7-0.7c0.2-0.2,0.5-0.4,0.8-0.5c0.3-0.2,0.6-0.3,0.9-0.3
					c0.3-0.1,0.7-0.1,1-0.1c0.5,0,1,0.1,1.5,0.3c0.4,0.2,0.8,0.5,1.1,0.8c0.3,0.4,0.5,0.8,0.7,1.3c0.2,0.5,0.2,1.1,0.2,1.6V85h-1.8
					v-6.7c0-0.7-0.2-1.3-0.5-1.8c-0.4-0.5-1-0.7-1.6-0.7c-0.5,0-1,0.1-1.5,0.4c-0.5,0.3-0.9,0.6-1.3,1.1V85h-1.9V74.5h1.1
					c0.2,0,0.4,0.1,0.5,0.4L97.5,76z"/>
				<path style="fill:#FFFFFF;" d="M110.4,85.1c-0.7,0-1.4-0.2-1.9-0.7c-0.5-0.6-0.7-1.3-0.7-2V76h-1.3c-0.1,0-0.2,0-0.3-0.1
					c-0.1-0.1-0.1-0.2-0.1-0.3v-0.7l1.7-0.2l0.4-3.2c0-0.1,0.1-0.2,0.1-0.2c0.1-0.1,0.2-0.1,0.3-0.1h0.9v3.6h3V76h-3v6.3
					c0,0.4,0.1,0.7,0.3,1c0.2,0.2,0.5,0.3,0.8,0.3c0.2,0,0.3,0,0.5-0.1c0.1,0,0.2-0.1,0.4-0.2l0.3-0.2c0.1,0,0.1-0.1,0.2-0.1
					c0.1,0,0.2,0.1,0.2,0.2l0.5,0.9c-0.3,0.3-0.7,0.5-1.1,0.7C111.3,85,110.8,85.1,110.4,85.1z"/>
				<path style="fill:#FFFFFF;" d="M13.9,109.7h-1.6c-0.2,0-0.3,0-0.4-0.1c-0.1-0.1-0.2-0.2-0.2-0.3l-1.4-3.6H3.7l-1.4,3.6
					c0,0.1-0.1,0.2-0.2,0.3c-0.1,0.1-0.3,0.1-0.4,0.1H0.1L6,94.9h2L13.9,109.7z M9.7,104.2l-2.3-6c-0.1-0.2-0.1-0.4-0.2-0.6
					S7,97.1,7,96.8c-0.1,0.5-0.3,0.9-0.4,1.4l-2.3,6L9.7,104.2z"/>
				<path style="fill:#FFFFFF;" d="M24.2,99.6v0.7c0,0.2-0.1,0.4-0.4,0.4l-1.2,0.2c0.2,0.5,0.4,1,0.4,1.5c0,0.5-0.1,0.9-0.3,1.4
					c-0.2,0.4-0.5,0.8-0.8,1.1c-0.4,0.3-0.8,0.5-1.2,0.7c-0.5,0.2-1,0.2-1.6,0.2c-0.5,0-0.9-0.1-1.4-0.2c-0.2,0.1-0.4,0.3-0.5,0.4
					c-0.1,0.1-0.2,0.3-0.2,0.5c0,0.2,0.1,0.4,0.3,0.6c0.2,0.1,0.5,0.2,0.8,0.3c0.4,0.1,0.8,0.1,1.1,0.1l1.3,0.1
					c0.5,0,0.9,0.1,1.3,0.2c0.4,0.1,0.8,0.2,1.1,0.4c0.7,0.3,1.2,1.1,1.1,1.9c0,0.5-0.1,0.9-0.3,1.3c-0.3,0.4-0.6,0.8-1,1.1
					c-0.5,0.4-1,0.6-1.5,0.8c-0.7,0.2-1.4,0.3-2,0.3c-0.7,0-1.3-0.1-2-0.2c-0.5-0.1-1-0.3-1.4-0.6c-0.4-0.2-0.6-0.5-0.9-0.9
					c-0.2-0.3-0.3-0.6-0.3-1c0-0.5,0.2-1,0.5-1.3c0.4-0.4,0.8-0.7,1.3-0.8c-0.3-0.1-0.5-0.3-0.7-0.6c-0.2-0.3-0.3-0.6-0.3-0.9
					c0-0.2,0-0.3,0.1-0.5c0.1-0.2,0.1-0.3,0.2-0.5c0.1-0.2,0.3-0.3,0.4-0.5c0.2-0.1,0.4-0.3,0.6-0.4c-0.5-0.3-0.9-0.7-1.2-1.2
					c-0.3-0.5-0.4-1.1-0.4-1.7c0-0.5,0.1-1,0.3-1.4c0.2-0.4,0.5-0.8,0.8-1.1c0.4-0.3,0.8-0.5,1.2-0.7c0.5-0.2,1.1-0.2,1.6-0.2
					c0.4,0,0.8,0,1.3,0.2c0.4,0.1,0.7,0.2,1.1,0.4L24.2,99.6z M22.3,110.2c0-0.2-0.1-0.4-0.2-0.6c-0.2-0.2-0.4-0.3-0.6-0.4
					c-0.3-0.1-0.6-0.2-0.9-0.2c-0.3,0-0.7-0.1-1-0.1l-1.1-0.1c-0.4,0-0.7-0.1-1.1-0.1c-0.4,0.2-0.7,0.4-0.9,0.7
					c-0.3,0.3-0.4,0.6-0.4,1c0,0.2,0.1,0.5,0.2,0.7c0.1,0.2,0.3,0.4,0.6,0.5c0.3,0.2,0.6,0.3,0.9,0.3c0.4,0.1,0.9,0.1,1.3,0.1
					c0.4,0,0.9,0,1.3-0.1c0.4-0.1,0.7-0.2,1-0.4c0.2-0.1,0.5-0.3,0.6-0.6C22.3,110.8,22.4,110.5,22.3,110.2z M19,104.6
					c0.3,0,0.7,0,1-0.2c0.3-0.1,0.5-0.2,0.7-0.4c0.2-0.2,0.3-0.4,0.4-0.7c0.1-0.3,0.1-0.6,0.1-0.8c0-0.6-0.2-1.1-0.6-1.5
					c-0.5-0.4-1.1-0.6-1.7-0.6c-0.6,0-1.2,0.2-1.7,0.6c-0.4,0.4-0.6,1-0.6,1.5c0,0.3,0,0.6,0.1,0.8c0.1,0.3,0.2,0.5,0.4,0.7
					c0.2,0.2,0.4,0.3,0.7,0.4C18.3,104.5,18.7,104.6,19,104.6z"/>
				<path style="fill:#FFFFFF;" d="M34.4,108.2c-0.2,0.3-0.5,0.5-0.8,0.7c-0.3,0.2-0.6,0.4-1,0.5c-0.4,0.1-0.7,0.2-1.1,0.3
					c-0.4,0.1-0.8,0.1-1.1,0.1c-0.7,0-1.4-0.1-2-0.4c-0.6-0.2-1.1-0.6-1.6-1.1c-0.5-0.5-0.8-1.1-1-1.8c-0.3-0.8-0.4-1.6-0.4-2.4
					c0-0.7,0.1-1.4,0.3-2c0.2-0.6,0.6-1.2,1-1.6c0.4-0.5,0.9-0.8,1.5-1.1c0.6-0.3,1.3-0.4,2-0.4c0.6,0,1.2,0.1,1.7,0.3
					c0.5,0.2,1,0.5,1.4,0.9c0.4,0.4,0.7,0.9,0.9,1.5c0.2,0.6,0.3,1.3,0.3,2c0,0.2,0,0.4-0.1,0.6c-0.1,0.1-0.2,0.2-0.3,0.2h-7
					c0,0.6,0.1,1.2,0.3,1.7c0.1,0.4,0.4,0.9,0.7,1.2c0.3,0.3,0.6,0.6,1,0.7c0.4,0.2,0.9,0.2,1.3,0.2c0.4,0,0.8,0,1.2-0.2
					c0.3-0.1,0.6-0.2,0.9-0.3c0.2-0.1,0.4-0.2,0.6-0.3c0.1-0.1,0.3-0.1,0.4-0.2c0.1,0,0.3,0.1,0.3,0.2L34.4,108.2z M32.9,103.3
					c0-0.4-0.1-0.8-0.2-1.2c-0.1-0.3-0.3-0.6-0.5-0.9c-0.2-0.3-0.5-0.5-0.8-0.6c-0.4-0.1-0.7-0.2-1.1-0.2c-0.8,0-1.5,0.2-2.1,0.8
					c-0.5,0.6-0.9,1.3-1,2.1H32.9z"/>
				<path style="fill:#FFFFFF;" d="M38.6,100.7c0.2-0.3,0.5-0.5,0.7-0.7c0.2-0.2,0.5-0.4,0.8-0.5c0.3-0.2,0.6-0.3,0.9-0.3
					c0.3-0.1,0.7-0.1,1-0.1c0.5,0,1,0.1,1.5,0.3c0.4,0.2,0.8,0.5,1.1,0.8c0.3,0.4,0.5,0.8,0.7,1.2c0.2,0.5,0.2,1.1,0.2,1.6v6.7h-1.8
					V103c0-0.7-0.2-1.3-0.5-1.8c-0.4-0.5-1-0.7-1.7-0.7c-0.5,0-1.1,0.1-1.5,0.4c-0.5,0.3-0.9,0.6-1.3,1.1v7.7h-1.8V99.2h1.1
					c0.2,0,0.4,0.2,0.5,0.4L38.6,100.7z"/>
				<path style="fill:#FFFFFF;" d="M55.6,101.1c0,0.1-0.1,0.1-0.2,0.2c-0.1,0-0.1,0.1-0.2,0.1c-0.1,0-0.2-0.1-0.3-0.1
					c-0.1-0.1-0.3-0.2-0.5-0.3c-0.2-0.1-0.4-0.2-0.7-0.3c-0.3-0.1-0.7-0.1-1-0.1c-0.5,0-0.9,0.1-1.4,0.3c-0.4,0.2-0.7,0.5-1,0.8
					c-0.3,0.4-0.5,0.8-0.6,1.2c-0.1,0.5-0.2,1.1-0.2,1.6c0,0.6,0.1,1.1,0.2,1.7c0.1,0.4,0.3,0.9,0.6,1.2c0.3,0.3,0.6,0.6,1,0.8
					c0.4,0.2,0.8,0.3,1.3,0.3c0.4,0,0.7,0,1.1-0.2c0.3-0.1,0.5-0.2,0.7-0.3c0.2-0.1,0.3-0.2,0.5-0.4c0.1-0.1,0.2-0.2,0.4-0.2
					c0.1,0,0.3,0.1,0.3,0.2l0.5,0.7c-0.2,0.3-0.5,0.5-0.8,0.7c-0.3,0.2-0.6,0.4-0.9,0.5c-0.3,0.1-0.7,0.2-1,0.3
					c-0.4,0.1-0.7,0.1-1.1,0.1c-0.6,0-1.2-0.1-1.8-0.4c-0.6-0.2-1-0.6-1.5-1c-0.4-0.5-0.8-1.1-1-1.7c-0.2-0.7-0.4-1.5-0.3-2.3
					c0-0.7,0.1-1.5,0.3-2.2c0.2-0.6,0.5-1.2,1-1.7c0.4-0.5,0.9-0.9,1.5-1.1c0.7-0.3,1.4-0.4,2.1-0.4c0.7,0,1.3,0.1,1.9,0.3
					c0.6,0.2,1.1,0.6,1.5,1L55.6,101.1z"/>
				<path style="fill:#FFFFFF;" d="M60.5,96c0,0.2,0,0.3-0.1,0.5c-0.1,0.2-0.2,0.3-0.3,0.4c-0.1,0.1-0.3,0.2-0.4,0.3
					c-0.2,0.1-0.3,0.1-0.5,0.1c-0.2,0-0.3,0-0.5-0.1c-0.2-0.1-0.3-0.2-0.4-0.3c-0.1-0.1-0.2-0.3-0.3-0.4c-0.1-0.2-0.1-0.3-0.1-0.5
					c0-0.2,0-0.3,0.1-0.5c0.1-0.2,0.2-0.3,0.3-0.4c0.1-0.1,0.3-0.2,0.4-0.3c0.2-0.1,0.3-0.1,0.5-0.1c0.2,0,0.3,0,0.5,0.1
					c0.3,0.1,0.6,0.4,0.7,0.7C60.5,95.7,60.5,95.8,60.5,96z M60.1,99.3v10.4h-1.8V99.2L60.1,99.3z"/>
				<path style="fill:#FFFFFF;" d="M71.6,108.2c-0.2,0.3-0.5,0.5-0.8,0.7c-0.3,0.2-0.7,0.4-1,0.5c-0.4,0.1-0.7,0.2-1.1,0.3
					c-0.4,0.1-0.8,0.1-1.2,0.1c-0.7,0-1.4-0.1-2-0.4c-0.6-0.2-1.1-0.6-1.6-1.1c-0.5-0.5-0.8-1.1-1-1.8c-0.3-0.8-0.4-1.6-0.4-2.4
					c0-0.7,0.1-1.4,0.3-2c0.2-0.6,0.6-1.2,1-1.6c0.4-0.5,1-0.8,1.5-1.1c0.6-0.3,1.3-0.4,2-0.4c0.6,0,1.2,0.1,1.7,0.3
					c0.5,0.2,1,0.5,1.4,0.9c0.4,0.4,0.7,0.9,0.9,1.5c0.2,0.6,0.3,1.3,0.3,2c0,0.2,0,0.4-0.1,0.6c-0.1,0.1-0.2,0.2-0.3,0.2h-7
					c0,0.6,0.1,1.2,0.3,1.7c0.1,0.4,0.4,0.9,0.7,1.2c0.3,0.3,0.6,0.6,1,0.7c0.4,0.2,0.9,0.2,1.3,0.2c0.4,0,0.8,0,1.2-0.2
					c0.3-0.1,0.6-0.2,0.9-0.3c0.2-0.1,0.4-0.2,0.6-0.3c0.1-0.1,0.3-0.1,0.4-0.2c0.1,0,0.3,0.1,0.3,0.2L71.6,108.2z M70.1,103.3
					c0-0.4-0.1-0.8-0.2-1.2c-0.1-0.3-0.3-0.6-0.5-0.9c-0.2-0.3-0.5-0.5-0.8-0.6c-1.1-0.4-2.3-0.2-3.2,0.6c-0.6,0.6-0.9,1.3-1,2.1
					H70.1z"/>
				<path style="fill:#FFFFFF;" d="M80.1,101c-0.1,0.1-0.2,0.2-0.4,0.2c-0.1,0-0.2,0-0.3-0.1c-0.2-0.1-0.3-0.2-0.5-0.2
					c-0.2-0.1-0.4-0.2-0.7-0.3c-0.3-0.1-0.6-0.1-0.9-0.1c-0.3,0-0.6,0-0.8,0.1c-0.2,0.1-0.4,0.2-0.6,0.3c-0.2,0.1-0.3,0.3-0.4,0.5
					c-0.1,0.2-0.1,0.4-0.1,0.6c0,0.2,0.1,0.5,0.2,0.7c0.2,0.2,0.4,0.4,0.6,0.5c0.3,0.1,0.6,0.3,0.9,0.3l1,0.3c0.3,0.1,0.7,0.2,1,0.4
					c0.3,0.1,0.6,0.3,0.9,0.5c0.3,0.2,0.5,0.5,0.6,0.8c0.2,0.3,0.3,0.7,0.2,1.1c0,0.5-0.1,0.9-0.3,1.3c-0.2,0.4-0.4,0.8-0.8,1.1
					c-0.4,0.3-0.8,0.6-1.2,0.7c-0.5,0.2-1.1,0.3-1.7,0.2c-0.7,0-1.4-0.1-2-0.3c-0.5-0.2-1.1-0.5-1.5-0.9l0.4-0.7
					c0.1-0.1,0.1-0.2,0.2-0.2c0.1-0.1,0.2-0.1,0.3-0.1c0.1,0,0.3,0.1,0.4,0.1c0.2,0.1,0.3,0.2,0.5,0.3c0.2,0.1,0.5,0.2,0.7,0.3
					c0.3,0.1,0.7,0.2,1.1,0.2c0.3,0,0.6,0,0.9-0.1c0.2-0.1,0.5-0.2,0.7-0.4c0.2-0.2,0.3-0.3,0.4-0.6c0.1-0.2,0.1-0.4,0.1-0.7
					c0-0.3-0.1-0.5-0.2-0.7c-0.2-0.2-0.4-0.4-0.6-0.5c-0.3-0.1-0.6-0.3-0.9-0.3c-0.3-0.1-0.7-0.2-1-0.3c-0.3-0.1-0.7-0.2-1-0.4
					c-0.3-0.1-0.6-0.3-0.9-0.5c-0.3-0.2-0.5-0.5-0.6-0.8c-0.2-0.4-0.2-0.7-0.2-1.1c0-0.4,0.1-0.8,0.2-1.2c0.2-0.4,0.4-0.7,0.7-1
					c0.3-0.3,0.7-0.5,1.2-0.7c0.5-0.2,1-0.3,1.6-0.2c0.6,0,1.3,0.1,1.8,0.3c0.5,0.2,1,0.5,1.4,0.9L80.1,101z"/>
			</g>
			<polyline style="fill:none;stroke:#FFFFFF;stroke-miterlimit:10;" points="359.7,227.5 405.5,273.3 489.7,273.3 			"/>
			<polyline style="fill:none;stroke:#FFFFFF;stroke-miterlimit:10;" points="125.1,138 100,121.3 0,121.3 			"/>
			<polyline style="fill:none;stroke:#FFFFFF;stroke-miterlimit:10;" points="181.9,304.2 136.1,350 70.1,350 			"/>
			<polyline style="fill:none;stroke:#FFFFFF;stroke-miterlimit:10;" points="182.7,71.5 162.7,51.6 92.9,51.6 			"/>
			<polyline style="fill:none;stroke:#FFFFFF;stroke-miterlimit:10;" points="238.1,46.8 238.1,27 359.7,27 			"/>
		</g>
	</g>
</g>
</svg>
