<svg id="Layer_1" xmlns="http://www.w3.org/2000/svg" width="818.6" height="322.1">
  <style>
    .st0{fill:#f24141}.st1{fill:#fff}
  </style>
  <g id="Layer_1-2">
    <path class="st0" d="M80.3 0h279.6c10.3 0 18.7 8.4 18.7 18.7 0 10.3-8.4 18.7-18.7 18.7H80.3C70 37.4 61.6 29 61.6 18.7 61.6 8.4 70 0 80.3 0zM80.3 68.3h719.6c10.3 0 18.7 8.4 18.7 18.7 0 10.3-8.4 18.7-18.7 18.7H80.3c-10.3 0-18.7-8.4-18.7-18.7 0-10.3 8.4-18.7 18.7-18.7zM80.3 136.6h604.6c10.3 0 18.7 8.4 18.7 18.7 0 10.3-8.4 18.7-18.7 18.7H80.3c-10.3 0-18.7-8.4-18.7-18.7 0-10.3 8.4-18.7 18.7-18.7z"/>
    <path class="st1" d="M9.5 23.8c.3 0 .5.1.7.3.2.2.3.4.3.7v1.7H0v-.9c0-.2.1-.4.1-.6.1-.2.2-.4.4-.6L5 19.9c.4-.4.7-.7 1-1.1.3-.3.5-.6.7-1 .2-.3.3-.6.4-1s.2-.7.2-1.1c0-.6-.2-1.1-.5-1.5-.4-.4-.9-.6-1.5-.5-.3 0-.5 0-.8.1l-.6.3c-.4.3-.6.7-.8 1.1-.1.3-.3.5-.5.7-.2.1-.5.2-.8.1l-1.5-.3c.1-.7.3-1.3.6-1.9.3-.5.7-1 1.1-1.4.5-.4 1-.7 1.6-.8.6-.2 1.3-.3 1.9-.3.7 0 1.4.1 2 .3.5.1 1 .4 1.5.8.4.4.8.8 1 1.4.2.6.3 1.2.3 1.8 0 .5-.1 1-.3 1.5s-.4.9-.6 1.3c-.3.4-.6.9-.9 1.2-.4.4-.7.8-1.1 1.2l-3.2 3.3c.3-.1.7-.2 1-.2.3-.1.7-.1 1-.1h3.3zM23 18.9c0 1.2-.1 2.3-.4 3.4-.2.9-.6 1.7-1.2 2.4-.5.6-1.1 1.1-1.8 1.4-.7.3-1.4.5-2.2.5-.8 0-1.5-.2-2.2-.5s-1.3-.8-1.8-1.4c-.5-.7-.9-1.5-1.2-2.4-.3-1.1-.4-2.3-.4-3.4 0-1.2.1-2.3.4-3.4.2-.9.6-1.7 1.2-2.4.5-.6 1.1-1.1 1.8-1.4.7-.3 1.4-.5 2.2-.5s1.5.1 2.2.5c.7.3 1.3.8 1.8 1.4.5.7.9 1.5 1.2 2.4.3 1.1.4 2.3.4 3.4zm-3 0c0-.9-.1-1.8-.2-2.6-.1-.6-.3-1.1-.6-1.7-.3-.7-1.1-1.1-1.8-1.1-.3 0-.7.1-1 .2-.3.2-.6.5-.8.8-.3.5-.5 1.1-.6 1.6-.2.9-.2 1.8-.2 2.6 0 .9.1 1.8.2 2.7.1.6.3 1.1.6 1.6.2.4.5.6.8.8.3.2.7.2 1 .2.8 0 1.5-.4 1.8-1.1.3-.5.5-1.1.6-1.6.2-.6.2-1.5.2-2.4zM34.2 24.4v2.1h-8.5v-2.1h3v-8.2V15l-2 1.6c-.1.1-.3.2-.4.2-.2 0-.5 0-.7-.1-.1 0-.1-.1-.2-.2l-.9-1.2 4.6-3.9h2.4v13h2.7zM47 20.7v1.6c0 .1-.1.3-.2.4-.1.1-.3.2-.4.2h-1.2v3.6h-2.5v-3.6h-6.2c-.2 0-.3-.1-.5-.2-.1-.1-.2-.3-.3-.4l-.3-1.4 7.1-9.5h2.7v9.3H47zm-4.2 0v-4.5-.8c0-.3 0-.5.1-.8l-4.4 6.1h4.3zM9.5 92c.3 0 .5.1.7.3.2.2.3.4.3.7v1.7H0v-.9c0-.2 0-.4.1-.6s.2-.4.4-.6L5 88c.4-.4.7-.8 1-1.1.3-.3.5-.6.7-1 .2-.3.3-.6.4-1s.2-.7.2-1.1c0-.6-.2-1.1-.5-1.5-.4-.4-.9-.6-1.5-.5-.3 0-.5 0-.8.1l-.6.3c-.2.1-.3.3-.5.5l-.3.6c-.1.3-.3.5-.5.7-.3.1-.6.1-.9.1l-1.5-.3c.1-.7.3-1.3.6-1.9.3-.5.7-1 1.1-1.4.5-.4 1-.6 1.6-.8.6-.2 1.3-.3 1.9-.3.7 0 1.4.1 2 .3.6.2 1.1.5 1.6.9.4.4.8.8 1 1.4s.3 1.2.3 1.8c0 .5-.1 1-.3 1.5s-.4.9-.6 1.3c-.3.4-.6.9-.9 1.2-.5.4-.8.8-1.2 1.2l-3.2 3.3c.3-.1.7-.2 1-.2.3-.1.6-.1 1-.1h3.4zM23 87.1c0 1.2-.1 2.3-.4 3.4-.2.9-.6 1.7-1.2 2.4-.5.6-1.1 1.1-1.8 1.4-.7.3-1.4.5-2.2.5-.8 0-1.5-.1-2.2-.5-.7-.3-1.3-.8-1.8-1.4-.5-.7-.9-1.5-1.2-2.4-.6-2.2-.6-4.6 0-6.8.2-.9.6-1.7 1.2-2.4.5-.6 1.1-1.1 1.8-1.4s1.4-.5 2.2-.5 1.5.1 2.2.5c.7.3 1.3.8 1.8 1.4.5.7.9 1.5 1.2 2.4.3 1.1.4 2.2.4 3.4zm-3 0c0-.9-.1-1.8-.2-2.6-.1-.6-.3-1.1-.6-1.6-.3-.7-1.1-1.1-1.8-1.1-.3 0-.7.1-1 .2-.3.2-.6.5-.8.8-.3.5-.5 1.1-.6 1.6-.3 1.8-.3 3.5 0 5.3.1.6.3 1.1.6 1.6.2.4.5.7.8.8.3.2.7.2 1 .2s.7-.1 1-.2c.4-.2.6-.5.8-.8.3-.5.5-1.1.6-1.6.2-.9.2-1.7.2-2.6zM34.2 92.5v2.1h-8.5v-2.1h3v-8.3-.6-.6l-2 1.7c-.1.1-.3.2-.4.2h-.4c-.1 0-.2-.1-.3-.1-.1 0-.1-.1-.2-.2l-.9-1.2 4.6-3.9h2.4v13h2.7zM39.9 84.9c.3-.1.6-.1.9-.1h.8c.7 0 1.4.1 2.1.4.6.2 1.1.6 1.5 1s.7.9.9 1.5.3 1.2.3 1.8c0 .8-.1 1.5-.4 2.2-.3.6-.7 1.2-1.2 1.7s-1.1.9-1.8 1.1c-.7.3-1.5.4-2.3.4-.5 0-.9 0-1.4-.2-.4-.1-.8-.2-1.2-.4-.3-.2-.7-.4-1-.6s-.6-.4-.9-.7l.9-1.2c.2-.2.4-.4.7-.4.2 0 .4.1.6.2l.6.4c.3.1.5.3.8.4.4.1.7.2 1.1.2.4 0 .8-.1 1.2-.2.3-.1.6-.3.8-.6.2-.3.4-.6.5-.9.1-.4.2-.8.2-1.2 0-.7-.2-1.3-.7-1.8-.6-.5-1.3-.7-2-.6-.7 0-1.4.1-2.1.4l-1.7-.7 1.3-7.4H46v1.2c0 .2 0 .4-.1.6s-.2.3-.3.4c-.2.1-.4.2-.6.2-.2.1-.5.1-.8.1h-3.9l-.4 2.8zM9.5 157.8c.3 0 .5.1.7.3s.3.4.3.7v1.7H0v-.9c0-.2 0-.4.1-.6.1-.2.2-.4.4-.6l4.5-4.5c.4-.4.7-.7 1-1.1.3-.3.5-.6.7-1 .2-.3.3-.6.4-1s.2-.7.2-1.1c0-.6-.2-1.1-.5-1.5-.4-.4-.9-.6-1.5-.5-.3 0-.5 0-.8.1l-.6.3c-.4.3-.6.7-.8 1.1-.1.3-.3.5-.5.7-.3.1-.6.1-.9.1l-1.5-.3c.1-.7.3-1.3.6-1.9.3-.6.7-1 1.1-1.4.5-.4 1-.7 1.6-.8.6-.2 1.3-.3 1.9-.3.7 0 1.4.1 2 .3s1.1.5 1.5.9.8.8 1 1.4c.2.6.3 1.2.3 1.8 0 .5-.1 1-.2 1.5-.2.5-.4.9-.6 1.3-.3.4-.6.9-.9 1.2-.4.4-.7.8-1.1 1.2l-3.2 3.3c.3-.1.7-.2 1-.2.3-.1.7-.1 1-.1l3.3-.1zM23 152.9c0 1.2-.1 2.3-.4 3.4-.2.9-.6 1.7-1.2 2.4-.5.6-1.1 1.1-1.8 1.4-.7.3-1.4.5-2.2.5-.8 0-1.5-.2-2.2-.5s-1.3-.8-1.8-1.4c-.5-.7-.9-1.5-1.2-2.4-.6-2.3-.6-4.6 0-6.9.2-.9.6-1.7 1.2-2.4.5-.6 1.1-1.1 1.8-1.4.7-.3 1.4-.5 2.2-.5s1.5.1 2.2.5c.7.3 1.3.8 1.8 1.4.5.7.9 1.5 1.2 2.4.3 1.2.4 2.3.4 3.5zm-3 0c0-.9-.1-1.8-.2-2.6-.1-.6-.3-1.1-.6-1.6-.2-.4-.5-.7-.8-.9s-.7-.2-1-.2-.7.1-1 .2c-.3.2-.6.5-.8.9-.3.5-.5 1.1-.6 1.6-.3 1.8-.3 3.5 0 5.3.1.6.3 1.1.6 1.6.2.4.5.6.8.8.3.2.7.2 1 .2.8 0 1.5-.4 1.8-1.1.3-.5.5-1.1.6-1.6.1-.8.2-1.7.2-2.6zM34.2 158.3v2.1h-8.5v-2.1h3v-8.2-1.1l-2 1.6c-.1.1-.3.2-.4.2-.2 0-.5 0-.7-.1-.1 0-.1-.1-.2-.2l-.9-1.2 4.6-3.9h2.4v13l2.7-.1zM41.1 150.8l-.5.6c.3-.1.6-.2.8-.3.3-.1.7-.1 1-.1.6 0 1.1.1 1.6.3s1 .5 1.4.8c.4.4.8.9 1 1.4.3.6.4 1.3.4 2s-.1 1.4-.4 2c-.3.6-.6 1.2-1.1 1.6-.5.5-1.1.8-1.7 1.1-.7.3-1.5.4-2.2.4-.8 0-1.5-.1-2.2-.4-1.3-.5-2.3-1.5-2.7-2.8-.3-.7-.4-1.4-.4-2.2s.2-1.5.4-2.2c.3-.8.8-1.6 1.3-2.3l3.5-4.7c.2-.2.4-.4.6-.5.3-.1.6-.2.9-.2h2.5l-4.2 5.5zm.4 7.5c.3 0 .7-.1 1-.2.3-.1.6-.3.8-.6.2-.2.4-.5.5-.8s.2-.7.2-1c0-.4-.1-.7-.2-1.1-.1-.3-.3-.6-.5-.8s-.5-.4-.8-.5-.7-.2-1.1-.2c-.3 0-.7.1-1 .2-.3.1-.6.3-.8.5s-.4.5-.5.8-.2.7-.2 1.1c0 .4 0 .7.2 1.1.1.3.3.6.5.8s.5.4.8.5c.3.2.7.2 1.1.2z"/>
    <path class="st0" d="M80.3 210.6h636.6c10.3 0 18.7 8.4 18.7 18.7 0 10.3-8.4 18.7-18.7 18.7H80.3c-10.3 0-18.7-8.4-18.7-18.7 0-10.3 8.4-18.7 18.7-18.7zM80.3 281.6h611.6c10.3 0 18.7 8.4 18.7 18.7 0 10.3-8.4 18.7-18.7 18.7H80.3c-10.3 0-18.7-8.4-18.7-18.7 0-10.3 8.4-18.7 18.7-18.7z"/>
    <g>
      <path class="st1" d="M9.6 231.9c.3 0 .5.1.7.3s.3.4.3.7v1.7H0v-.9c0-.2 0-.4.1-.6.1-.2.2-.4.4-.6L5 228c.4-.4.7-.8 1-1.1s.5-.6.7-1c.2-.3.3-.6.4-1s.2-.7.2-1.1c0-.6-.1-1.1-.5-1.6-.4-.4-.9-.6-1.5-.5-.3 0-.5 0-.8.1-.2.1-.4.1-.5.2-.2.1-.3.3-.5.5l-.3.6c-.1.3-.3.5-.5.7-.3.1-.6.2-.9.1l-1.5-.3c.1-.7.3-1.4.6-2 .3-.5.6-1 1.1-1.3.5-.4 1-.7 1.6-.8.6-.2 1.3-.3 1.9-.3.7 0 1.4.1 2 .3s1.1.5 1.5.9c.4.4.8.9 1 1.4.2.6.3 1.2.3 1.8 0 .5-.1 1-.2 1.6-.2.5-.4.9-.7 1.4-.3.4-.6.9-1 1.2L7.2 229 4 232.3c.4-.1.7-.2 1.1-.3.3-.1.7-.1 1-.1h3.5zM23.2 227c0 1.2-.1 2.3-.4 3.5-.2.9-.6 1.7-1.2 2.4-.5.6-1.1 1.1-1.8 1.4-.7.3-1.5.5-2.2.5-.8 0-1.5-.2-2.2-.5s-1.3-.8-1.8-1.4c-.5-.7-.9-1.6-1.2-2.4-.6-2.3-.6-4.6 0-6.9.2-.9.6-1.7 1.2-2.4.5-.6 1.1-1.1 1.8-1.4.7-.3 1.5-.5 2.2-.5.8 0 1.5.1 2.2.5.7.3 1.3.8 1.8 1.4.5.7.9 1.6 1.2 2.4.2 1.1.4 2.2.4 3.4zm-3 0c0-.9-.1-1.8-.2-2.7-.1-.6-.3-1.1-.6-1.7-.3-.7-1.1-1.1-1.8-1.1-.3 0-.7.1-1 .2-.3.2-.6.5-.8.9-.3.5-.5 1.1-.6 1.7-.3 1.8-.3 3.6 0 5.4.1.6.3 1.1.6 1.6.2.4.5.7.8.9.3.2.7.2 1 .2s.7-.1 1-.2c.4-.2.6-.5.8-.9.3-.5.5-1.1.6-1.6.1-.9.2-1.8.2-2.7zM34.6 232.5v2.1H26v-2.1h3v-8.3-1.2l-2 1.7c-.1.1-.3.2-.4.2h-.4c-.1 0-.2-.1-.3-.1-.1 0-.2-.1-.2-.2l-.9-1.2 4.7-4h2.4v13.1h2.7zM47.3 219.4v1.2c0 .3 0 .6-.1.9-.1.2-.2.4-.2.6l-5.5 11.6c-.1.3-.3.5-.6.7s-.6.3-1 .3h-2.1l5.7-11.3c.1-.2.3-.5.4-.7.1-.2.3-.4.5-.6h-7c-.2 0-.3-.1-.5-.2-.1-.1-.2-.3-.2-.4v-1.9l10.6-.2z"/>
    </g>
    <g>
      <path class="st1" d="M657.5 220.3h-2.1V217h5.7v25.9h-3.6v-22.6zM666.2 238.5h3.4l-3.3 7.8h-2.7l2.6-7.8zM670.9 232.5l7.2-15.5h4.9v15.5h2.8v3.1H683v7.3h-3.6v-7.3H671l-.1-3.1zm8.5 0v-11.6l-5 11.6h5zM688.2 235.7c0-5.6 8.4-6.8 8.4-10.4v-2.7c.1-1.2-.8-2.4-2-2.5h-.4c-1.3 0-2.4 1-2.4 2.3V225.8h-3.6v-3.6c0-3.1 2-5.4 6-5.4 3.6 0 6.1 2.2 6.1 5.6v3.1c0 6.1-8.4 6.7-8.4 10.7v3.5h8.2v3.3h-11.8l-.1-7.3zM703.7 235.7c0-5.6 8.4-6.8 8.4-10.4v-2.7c.1-1.2-.8-2.4-2-2.5h-.4c-1.3 0-2.4 1-2.4 2.3V225.8h-3.6v-3.6c0-3.1 2-5.4 6-5.4 3.6 0 6.1 2.2 6.1 5.6v3.1c0 6.1-8.4 6.7-8.4 10.7v3.5h8.2v3.3h-11.8l-.1-7.3z"/>
    </g>
    <g>
      <path class="st1" d="M626.5 145.3h-2.1V142h5.7v25.9h-3.6v-22.6zM635.2 163.5h3.4l-3.3 7.8h-2.7l2.6-7.8zM641.2 158.8h3.7v3.8c-.1 1.2.8 2.2 2 2.3h.3c1.3 0 2.4-1 2.4-2.3v-4.3c0-1.8-1-2.4-3.3-2.4h-2.5v-2.7h2.5c2.3 0 3.3-.8 3.3-2.5v-3.5c.1-1.2-.8-2.4-2-2.5h-.4c-1.2-.1-2.3.8-2.3 2V150.3h-3.6V147c0-3.3 2.1-5.4 5.9-5.4s6.1 2.2 6.1 5.3v3.4c.1 1.9-1.1 3.7-3 4.2 1.9.4 3.2 2.2 3.1 4.1v4c0 3.5-2.5 5.5-6.1 5.5-4 0-6-2.3-6-5.4l-.1-3.9zM656.8 158.8h3.7v3.8c0 1.4 1.1 2.5 2.5 2.5s2.4-1.1 2.5-2.5V157c.1-1.2-.7-2.4-2-2.5h-.5c-1.2-.1-2.3.7-2.5 2V156.8h-3.6V142h11.7v3.3h-8.1v7.7c1-.9 2.3-1.4 3.6-1.4 2.8 0 4.9 1.7 4.9 5v6c0 3.3-2.2 5.6-6.1 5.6s-6.2-2.1-6.2-5.4l.1-4zM672.6 158.8h3.7v3.8c0 1.4 1.1 2.5 2.5 2.5s2.4-1.1 2.5-2.5V157c0-1.4-1.1-2.5-2.5-2.5-1.2 0-2.2.9-2.4 2v.2h-3.5V142h11.7v3.3h-8.1v7.7c1-.9 2.3-1.4 3.6-1.4 2.8 0 4.9 1.7 4.9 5v6c0 3.3-2.2 5.6-6.1 5.6s-6.2-2.1-6.2-5.4l-.1-4z"/>
    </g>
    <g>
      <path class="st1" d="M741.5 76.3h-2.1V73h5.7v25.9h-3.6V76.3zM750.2 94.5h3.4l-3.3 7.8h-2.7l2.6-7.8zM756.6 89.8h3.7v3.8c0 1.4 1.1 2.5 2.5 2.5s2.4-1.1 2.5-2.5V88c0-1.4-1.1-2.5-2.5-2.5-1.2 0-2.2.9-2.4 2v.2h-3.5V73h11.7v3.3h-8.1V84c1-.9 2.3-1.4 3.6-1.3 2.8 0 4.9 1.7 4.9 5v6c0 3.3-2.2 5.6-6.1 5.6s-6.2-2.1-6.2-5.4l-.1-4.1zM772.4 89.8h3.6v3.8c-.1 1.2.8 2.3 2 2.4h.3c1.3.1 2.3-.9 2.4-2.1v-7c-1.9 2-5.1 2-7.1.1-1-.9-1.5-2.2-1.5-3.6v-5c0-3.3 2.2-5.6 6.1-5.6s6.2 2.1 6.2 5.4V94c0 3.1-2.3 5.2-6.2 5.2s-5.9-2.1-5.9-5.4l.1-4zm3.4-6.8c-.2 1.2.7 2.4 2 2.5h.5c1.3.1 2.4-.8 2.5-2.1V78.3c0-1.4-1.1-2.5-2.5-2.5s-2.4 1.1-2.5 2.5V83zM788.2 89.8h3.6v3.8c-.1 1.2.8 2.3 2 2.4h.4c1.3.1 2.3-.9 2.4-2.1v-7c-1.9 2-5.1 2-7.1.1-1-.9-1.5-2.2-1.5-3.6v-5c0-3.3 2.2-5.6 6.1-5.6s6.2 2.1 6.2 5.4V94c0 3.1-2.3 5.2-6.2 5.2s-5.9-2.1-5.9-5.4v-4zm3.4-6.8c-.2 1.2.7 2.4 2 2.5h.5c1.3.1 2.4-.8 2.5-2.1V78.3c0-1.4-1.1-2.5-2.5-2.5s-2.4 1.1-2.5 2.5V83z"/>
    </g>
    <g>
      <path class="st1" d="M321 11c0-3.1 2.3-5.3 6.2-5.3s5.9 2.1 5.9 5.4v3.4h-3.6v-3.4c.1-1.2-.8-2.3-2.1-2.4h-.3c-1.3-.1-2.3.9-2.4 2.1V18c1-1 2.3-1.5 3.7-1.4 2.8 0 4.9 1.7 4.9 5v5.1c0 3.3-2.2 5.6-6.1 5.6s-6.2-2.1-6.2-5.4V11zm3.7 15.5c.1 1.4 1.3 2.4 2.6 2.3 1.2-.1 2.2-1.1 2.3-2.3v-4.7c.1-1.3-.8-2.4-2-2.5h-.4c-1.3-.1-2.4.9-2.5 2.1V26.5zM342.6 9.3h-7.1V6h11v2.6l-6.7 23.3H336l6.6-22.6zM348.7 11.4c0-3.5 2.4-5.7 6.1-5.7s6.1 2.2 6.1 5.7v15c0 3.5-2.5 5.7-6.1 5.7s-6.1-2.2-6.1-5.7v-15zm8.6.4c0-1.6-.9-2.7-2.5-2.7-1.3 0-2.5 1-2.5 2.3v14.8c-.2 1.3.8 2.5 2.1 2.7h.4c1.6 0 2.5-1.1 2.5-2.7V11.8z"/>
    </g>
  </g>
  <path class="st1" d="M9.2 304.5c.4 0 .6.1.8.3.2.2.3.4.3.8v1.9H-.4v-1c0-.2 0-.4.1-.7.1-.2.2-.4.4-.6l4.4-4.4c.4-.4.7-.7 1-1.1.3-.3.5-.7.7-1s.3-.7.4-1 .1-.7.1-1.1c0-.6-.1-1.1-.4-1.4s-.7-.5-1.3-.5c-.5 0-.9.1-1.2.4s-.6.6-.7 1-.3.6-.6.8c-.2.1-.6.2-1 .1l-1.7-.3c.1-.8.3-1.4.6-2s.7-1 1.2-1.4 1-.7 1.6-.8 1.3-.3 2-.3c.8 0 1.4.1 2 .3s1.1.5 1.5.9.8.9 1 1.4.3 1.1.3 1.8c0 .6-.1 1.1-.2 1.6-.2.5-.4.9-.6 1.4s-.6.8-1 1.2c-.4.4-.7.8-1.1 1.2l-3 3.1c.4-.1.8-.2 1.1-.3.4-.1.7-.1 1.1-.1h2.9v-.2zM22.9 299.8c0 1.3-.1 2.5-.4 3.5s-.7 1.8-1.2 2.4-1.1 1.1-1.8 1.4c-.7.3-1.5.5-2.3.5s-1.6-.2-2.3-.5-1.3-.8-1.8-1.4-.9-1.5-1.2-2.4c-.3-1-.4-2.1-.4-3.5s.1-2.5.4-3.5.7-1.8 1.2-2.4 1.1-1.1 1.8-1.4 1.4-.5 2.3-.5 1.6.2 2.3.5c.7.3 1.3.8 1.8 1.4s.9 1.5 1.2 2.4c.3 1 .4 2.2.4 3.5zm-3.3 0c0-1.1-.1-1.9-.2-2.6s-.3-1.2-.5-1.6-.5-.6-.8-.8-.6-.2-.9-.2-.6.1-.8.2-.5.4-.7.8-.4.9-.5 1.6-.2 1.5-.2 2.6.1 1.9.2 2.6.3 1.2.5 1.6.5.7.7.8c.3.1.6.2.8.2s.6-.1.9-.2.5-.4.8-.8c.2-.4.4-.9.5-1.6.1-.6.2-1.5.2-2.6zM34.4 305.1v2.4h-8.7v-2.4h2.9v-7.7-.6-.6l-1.7 1.4c-.2.1-.3.2-.5.2H26c-.1 0-.3-.1-.4-.1-.1-.1-.2-.1-.2-.2l-1-1.4 4.8-4h2.7v13h2.5zM44.5 299.5c.5.2.8.4 1.2.6.3.2.6.5.8.8s.4.6.5 1 .1.8.1 1.2c0 .7-.1 1.3-.4 1.9-.3.6-.6 1-1.1 1.4s-1.1.7-1.7.9-1.4.3-2.2.3-1.6-.1-2.2-.3c-.7-.2-1.2-.5-1.7-.9s-.9-.9-1.1-1.4c-.3-.6-.4-1.2-.4-1.9 0-.4 0-.8.1-1.2.1-.4.3-.7.5-1s.5-.6.8-.8c.3-.2.7-.4 1.2-.6-.7-.3-1.2-.8-1.6-1.3s-.5-1.2-.5-2c0-.6.1-1.1.4-1.7.2-.5.6-.9 1-1.3s1-.7 1.6-.9c.6-.2 1.3-.3 2-.3s1.4.1 2 .3c.6.2 1.1.5 1.6.9s.8.8 1 1.3.4 1.1.4 1.7c0 .8-.2 1.5-.5 2-.6.5-1.1 1-1.8 1.3zm-2.9 5.7c.4 0 .7-.1.9-.2.3-.1.5-.3.7-.5s.3-.4.4-.7c.1-.3.1-.5.1-.8s0-.6-.1-.9-.2-.5-.3-.7-.4-.3-.6-.5-.6-.2-1-.2-.7.1-1 .2-.5.3-.6.5-.3.4-.3.7c-.1.3-.1.6-.1.9s0 .6.1.8c.1.3.2.5.4.7s.4.3.7.5c0 .1.4.2.7.2zm0-10.8c-.3 0-.6.1-.8.2s-.4.2-.6.4l-.3.6c-.1.2-.1.5-.1.7 0 .3 0 .5.1.8s.1.5.3.7c.1.2.3.4.5.5s.5.2.9.2.7-.1.9-.2.4-.3.5-.5.2-.4.3-.7c0-.3.1-.5.1-.8 0-.2 0-.5-.1-.7l-.3-.6c-.1-.2-.3-.3-.6-.4-.2-.2-.4-.2-.8-.2z"/>
  <g>
    <path class="st1" d="M637.3 290.4h-2.1v-3.3h5.7V313h-3.6v-22.6zM645.9 308.6h3.4l-3.3 7.8h-2.7l2.6-7.8zM651.9 303.9h3.7v3.8c0 1.2.7 2.3 2.3 2.3s2.4-1.1 2.4-2.6v-3.8c0-1.8-1-2.4-3.3-2.4h-2.4v-2.7h2.5c2.3 0 3.3-.8 3.3-2.5v-3.5c0-1.5-.9-2.5-2.4-2.5-1.7 0-2.3 1.2-2.3 2.4v3.3H652v-3.3c0-3.3 2.1-5.4 5.9-5.4 3.8 0 6.1 2.2 6.1 5.3v3.4c0 2-1 3.6-3 4.2 2.1.6 3.1 2 3.1 4.1v4c0 3.5-2.5 5.5-6.1 5.5-4 0-6-2.3-6-5.4l-.1-4.2zM673.1 290.4H666v-3.3h11v2.6l-6.7 23.3h-3.8l6.6-22.6zM679.3 292.6c0-3.5 2.4-5.7 6.1-5.7 3.6 0 6.1 2.2 6.1 5.7v15c0 3.5-2.5 5.7-6.1 5.7-3.7 0-6.1-2.2-6.1-5.7v-15zm8.5.3c0-1.6-.9-2.7-2.4-2.7s-2.5 1.1-2.5 2.7v14.4c0 1.6.9 2.7 2.5 2.7s2.4-1.1 2.4-2.7v-14.4z"/>
  </g>
</svg>
