<?xml version="1.0" encoding="utf-8"?>
<!-- Generator: Adobe Illustrator 21.0.0, SVG Export Plug-In . SVG Version: 6.00 Build 0)  -->
<svg version="1.1" id="Layer_1" xmlns="http://www.w3.org/2000/svg" xmlns:xlink="http://www.w3.org/1999/xlink" x="0px" y="0px"
	 viewBox="0 0 527.9 354.9" style="enable-background:new 0 0 527.9 354.9;" xml:space="preserve">
<style type="text/css">
	.st0{fill:#0050AF;stroke:#FFFFFF;stroke-width:2;stroke-linecap:round;stroke-linejoin:round;}
	.st1{fill:none;stroke:#FFFFFF;stroke-width:2;stroke-linejoin:round;}
	.st2{fill:#1868B7;stroke:#FFFFFF;stroke-width:2;stroke-linecap:round;stroke-linejoin:round;}
	.st3{fill:#257BC1;stroke:#FFFFFF;stroke-width:2;stroke-linecap:round;stroke-linejoin:round;}
	.st4{fill:#338ECC;stroke:#FFFFFF;stroke-width:2;stroke-linecap:round;stroke-linejoin:round;}
	.st5{fill:#5B9BD5;}
	.st6{fill:#4BAAE0;stroke:#FFFFFF;stroke-width:2;stroke-linecap:round;stroke-linejoin:round;}
	.st7{fill:#FFFFFF;}
	.st8{fill:none;stroke:#FFFFFF;stroke-miterlimit:10;}
</style>
<g id="Layer_2">
	<g id="Layer_1-2">
		<path class="st0" d="M267.6,46.9c84.2,0,152.5,68.2,152.5,152.4c0,73.2-52,136.1-124,149.8l-14.3-74.9
			c41.4-7.9,68.5-47.9,60.6-89.2c-6.9-35.9-38.3-61.9-74.8-61.9V46.9z"/>
		<path class="st1" d="M267.6,46.9c84.2,0,152.5,68.2,152.5,152.4c0,73.2-52,136.1-124,149.8l-14.3-74.9
			c41.4-7.9,68.5-47.9,60.6-89.2c-6.9-35.9-38.3-61.9-74.8-61.9V46.9z"/>
		<path class="st2" d="M296.1,349.2C213.4,365,133.6,310.7,117.8,228c-3.6-18.9-3.6-38.3,0-57.2l74.9,14.3
			c-7.9,41.4,19.2,81.3,60.6,89.2c9.4,1.8,19.1,1.8,28.6,0L296.1,349.2z"/>
		<path class="st1" d="M296.1,349.2C213.4,365,133.6,310.7,117.8,228c-3.6-18.9-3.6-38.3,0-57.2l74.9,14.3
			c-7.9,41.4,19.2,81.3,60.6,89.2c9.4,1.8,19.1,1.8,28.6,0L296.1,349.2z"/>
		<path class="st3" d="M117.8,170.8c7.3-38.1,28.8-72,60.1-94.8l44.8,61.7c-15.7,11.4-26.4,28.3-30.1,47.4L117.8,170.8z"/>
		<path class="st1" d="M117.8,170.8c7.3-38.1,28.8-72,60.1-94.8l44.8,61.7c-15.7,11.4-26.4,28.3-30.1,47.4L117.8,170.8z"/>
		<path class="st4" d="M177.9,76c18.2-13.2,39-22.2,61.1-26.4l14.3,74.9c-11,2.1-21.4,6.6-30.5,13.2L177.9,76z"/>
		<path class="st1" d="M177.9,76c18.2-13.2,39-22.2,61.1-26.4l14.3,74.9c-11,2.1-21.4,6.6-30.5,13.2L177.9,76z"/>
		<path class="st5" d="M239,49.6c9.4-1.8,19-2.7,28.6-2.7v76.2c-4.8,0-9.6,0.5-14.3,1.3L239,49.6z"/>
		<path class="st6" d="M239,49.6c9.4-1.8,19-2.7,28.6-2.7v76.2c-4.8,0-9.6,0.5-14.3,1.3L239,49.6z"/>
		<path class="st7" d="M467.8,253.2v14.7h-1c-0.1,0-0.3,0-0.4-0.1c-0.1-0.1-0.2-0.2-0.3-0.3l-8.5-11v11.4h-1.7v-14.7h1
			c0.1,0,0.2,0,0.2,0c0.1,0,0.1,0,0.2,0.1c0.1,0,0.1,0.1,0.1,0.1c0.1,0.1,0.1,0.1,0.2,0.2l8.5,11V264v-10.8H467.8z M483.4,253.2
			v14.7h-1c-0.1,0-0.3,0-0.4-0.1c-0.1-0.1-0.2-0.2-0.3-0.3l-8.5-11v11.4h-1.7v-14.7h1c0.1,0,0.2,0,0.2,0c0.1,0,0.1,0,0.2,0.1
			c0.1,0,0.1,0.1,0.1,0.1c0.1,0.1,0.1,0.1,0.2,0.2l8.5,11V264v-10.8H483.4z M499,260.8v5.6c-0.7,0.5-1.5,0.9-2.4,1.2
			c-0.9,0.3-1.8,0.4-2.7,0.4c-1.1,0-2.2-0.2-3.2-0.5c-0.9-0.3-1.7-0.9-2.4-1.5c-0.7-0.7-1.2-1.5-1.5-2.4c-0.4-1-0.5-2-0.5-3
			c0-1,0.2-2.1,0.5-3.1c0.3-0.9,0.8-1.7,1.5-2.4c0.7-0.7,1.5-1.2,2.4-1.5c1-0.4,2-0.6,3.1-0.5c0.5,0,1.1,0,1.6,0.1
			c0.5,0.1,0.9,0.2,1.4,0.4c0.8,0.3,1.6,0.8,2.2,1.4l-0.6,0.9c-0.1,0.1-0.2,0.2-0.4,0.3c-0.2,0-0.3,0-0.5-0.1
			c-0.2-0.1-0.4-0.2-0.6-0.4c-0.3-0.1-0.5-0.3-0.8-0.4c-0.3-0.1-0.7-0.2-1.1-0.3c-0.5-0.1-1-0.1-1.5-0.1c-0.8,0-1.5,0.1-2.2,0.4
			c-0.6,0.3-1.2,0.6-1.7,1.1c-0.5,0.5-0.9,1.1-1.1,1.8c-0.3,0.8-0.4,1.6-0.4,2.4c0,0.8,0.1,1.7,0.4,2.5c0.2,0.7,0.6,1.3,1.1,1.9
			c0.5,0.5,1.1,0.9,1.8,1.2c0.7,0.3,1.5,0.4,2.3,0.4c0.6,0,1.2-0.1,1.8-0.2c0.5-0.2,1.1-0.4,1.5-0.6v-3.2H495c-0.1,0-0.2,0-0.3-0.1
			c-0.1-0.1-0.1-0.2-0.1-0.3v-1.1L499,260.8z M515.6,260.5c0,1-0.2,2-0.5,3c-0.3,0.9-0.8,1.7-1.5,2.4c-0.6,0.7-1.4,1.2-2.3,1.5
			c-1.9,0.7-4,0.7-5.9,0c-0.9-0.3-1.6-0.9-2.3-1.5c-0.6-0.7-1.1-1.5-1.5-2.4c-0.7-1.9-0.7-4.1,0-6c0.3-0.9,0.8-1.7,1.5-2.4
			c0.6-0.7,1.4-1.2,2.3-1.6c1.9-0.7,4-0.7,5.9,0c0.9,0.3,1.6,0.9,2.3,1.6c0.6,0.7,1.1,1.5,1.5,2.4
			C515.4,258.5,515.6,259.5,515.6,260.5z M513.6,260.5c0-0.8-0.1-1.6-0.4-2.4c-0.2-0.7-0.5-1.3-1-1.8c-0.5-0.5-1-0.9-1.6-1.1
			c-1.4-0.5-2.9-0.5-4.3,0c-0.6,0.3-1.2,0.6-1.6,1.1c-0.5,0.5-0.8,1.1-1,1.8c-0.5,1.6-0.5,3.3,0,4.8c0.2,0.7,0.6,1.3,1,1.8
			c0.5,0.5,1,0.9,1.6,1.1c1.4,0.5,2.9,0.5,4.3,0c0.6-0.2,1.2-0.6,1.6-1.1c0.4-0.5,0.8-1.1,1-1.8
			C513.5,262.2,513.6,261.4,513.6,260.5L513.6,260.5z M523.9,259.2c-0.1,0.1-0.2,0.2-0.4,0.2c-0.1,0-0.2,0-0.3-0.1l-0.5-0.2
			c-0.2-0.1-0.4-0.2-0.7-0.2c-0.3-0.1-0.6-0.1-0.9-0.1c-0.3,0-0.6,0-0.8,0.1c-0.2,0.1-0.4,0.2-0.6,0.3c-0.2,0.1-0.3,0.3-0.4,0.5
			c-0.1,0.2-0.1,0.4-0.1,0.6c0,0.2,0.1,0.5,0.2,0.7c0.2,0.2,0.4,0.3,0.6,0.5c0.3,0.1,0.6,0.3,0.9,0.3c0.3,0.1,0.7,0.2,1,0.3
			c0.4,0.1,0.7,0.2,1,0.4c0.3,0.1,0.6,0.3,0.9,0.5c0.2,0.2,0.5,0.5,0.6,0.8c0.2,0.3,0.2,0.7,0.2,1.1c0,0.5-0.1,0.9-0.3,1.3
			c-0.2,0.4-0.4,0.8-0.8,1.1c-0.4,0.3-0.8,0.5-1.2,0.7c-1.2,0.4-2.5,0.3-3.6-0.1c-0.5-0.2-1.1-0.5-1.5-0.9l0.4-0.7
			c0-0.1,0.1-0.2,0.2-0.2c0.1-0.1,0.2-0.1,0.3-0.1c0.1,0,0.3,0.1,0.4,0.1l0.5,0.3c0.5,0.3,1.1,0.5,1.8,0.5c0.3,0,0.6,0,0.9-0.1
			c0.2-0.1,0.5-0.2,0.7-0.4c0.2-0.1,0.3-0.3,0.4-0.5c0.1-0.2,0.1-0.4,0.1-0.6c0-0.3-0.1-0.5-0.2-0.7c-0.2-0.2-0.4-0.4-0.6-0.5
			c-0.3-0.1-0.6-0.3-0.9-0.4l-1-0.3c-0.3-0.1-0.7-0.2-1-0.4c-0.3-0.1-0.6-0.3-0.9-0.5c-0.3-0.2-0.5-0.5-0.6-0.8
			c-0.2-0.4-0.2-0.7-0.2-1.1c0-0.4,0.1-0.8,0.2-1.1c0.2-0.4,0.4-0.7,0.7-1c0.3-0.3,0.7-0.5,1.2-0.7c0.5-0.2,1-0.3,1.6-0.2
			c0.6,0,1.3,0.1,1.8,0.3c0.5,0.2,1,0.5,1.4,0.9L523.9,259.2z M77.8,86.2c0,1-0.2,2-0.5,3c-0.3,0.9-0.8,1.7-1.5,2.4
			c-0.6,0.7-1.4,1.2-2.3,1.5c-0.9,0.4-1.9,0.6-3,0.6c-1,0-2-0.2-2.9-0.6c-0.9-0.3-1.6-0.9-2.3-1.5c-0.6-0.7-1.1-1.5-1.5-2.4
			c-0.7-1.9-0.7-4.1,0-6c0.3-0.9,0.8-1.7,1.5-2.4c0.6-0.7,1.4-1.2,2.3-1.5c1-0.4,2-0.6,3-0.6c1,0,2,0.2,2.9,0.6
			c0.9,0.3,1.6,0.9,2.3,1.5c0.6,0.7,1.1,1.5,1.5,2.4C77.7,84.2,77.8,85.2,77.8,86.2z M75.8,86.2c0-0.8-0.1-1.6-0.4-2.4
			c-0.2-0.7-0.5-1.3-1-1.8c-0.5-0.5-1-0.9-1.6-1.1c-0.7-0.3-1.4-0.4-2.1-0.4c-0.7,0-1.5,0.1-2.1,0.4c-0.6,0.3-1.2,0.6-1.7,1.1
			c-0.5,0.5-0.8,1.1-1,1.8c-0.3,0.8-0.4,1.6-0.4,2.4c0,0.8,0.1,1.6,0.4,2.4c0.2,0.7,0.5,1.3,1,1.8c0.5,0.5,1,0.9,1.6,1.1
			c0.7,0.3,1.4,0.4,2.1,0.4c0.7,0,1.5-0.1,2.1-0.4c0.6-0.2,1.2-0.6,1.6-1.1c0.5-0.5,0.8-1.1,1-1.8C75.6,87.9,75.8,87.1,75.8,86.2
			L75.8,86.2z M83.3,93.7c-0.7,0-1.4-0.2-1.9-0.7c-0.5-0.6-0.7-1.3-0.7-2v-6.3h-1.2c-0.1,0-0.2,0-0.3-0.1c-0.1-0.1-0.1-0.2-0.1-0.3
			v-0.7l1.7-0.2l0.4-3.2c0-0.1,0.1-0.2,0.1-0.2c0.1-0.1,0.2-0.1,0.3-0.1h0.9v3.6h3v1.3h-3v6.2c0,0.4,0.1,0.7,0.3,1
			c0.2,0.2,0.5,0.3,0.8,0.3c0.2,0,0.3,0,0.5-0.1c0.1,0,0.2-0.1,0.4-0.2c0.1-0.1,0.2-0.1,0.3-0.2c0.1,0,0.1-0.1,0.2-0.1
			c0.1,0,0.2,0.1,0.3,0.2l0.5,0.9c-0.3,0.3-0.7,0.5-1.1,0.7C84.3,93.6,83.8,93.7,83.3,93.7L83.3,93.7z M89.3,84.6
			c0.4-0.5,0.9-0.8,1.5-1.1c0.6-0.3,1.2-0.5,1.9-0.4c0.5,0,1,0.1,1.5,0.3c0.4,0.2,0.8,0.5,1.1,0.8c0.3,0.4,0.5,0.8,0.7,1.2
			c0.2,0.5,0.2,1.1,0.2,1.6v6.6h-1.8V87c0-0.7-0.2-1.3-0.5-1.8c-0.4-0.5-1-0.7-1.6-0.7c-0.5,0-1,0.1-1.5,0.4c-0.5,0.3-0.9,0.6-1.3,1
			v7.6h-1.8V78.5h1.8V84.6z M107.3,92.1c-0.2,0.3-0.5,0.5-0.8,0.7c-0.3,0.2-0.6,0.4-1,0.5c-0.4,0.1-0.7,0.2-1.1,0.3
			c-0.4,0.1-0.8,0.1-1.1,0.1c-0.7,0-1.4-0.1-2-0.4c-0.6-0.2-1.1-0.6-1.6-1.1c-0.4-0.5-0.8-1.1-1-1.7c-0.3-0.8-0.4-1.6-0.4-2.4
			c0-0.7,0.1-1.4,0.3-2c0.2-0.6,0.6-1.2,1-1.6c0.4-0.5,0.9-0.8,1.5-1.1c0.6-0.3,1.3-0.4,2-0.4c0.6,0,1.2,0.1,1.7,0.3
			c0.5,0.2,1,0.5,1.4,0.9c0.4,0.4,0.7,0.9,0.9,1.4c0.2,0.6,0.3,1.3,0.3,2c0,0.2,0,0.4-0.1,0.6c-0.1,0.1-0.2,0.2-0.3,0.1h-7
			c0,0.6,0.1,1.2,0.3,1.7c0.1,0.4,0.3,0.8,0.6,1.2c0.3,0.3,0.6,0.6,1,0.7c0.4,0.2,0.9,0.2,1.3,0.2c0.4,0,0.8,0,1.2-0.2
			c0.3-0.1,0.6-0.2,0.8-0.3c0.2-0.1,0.4-0.2,0.6-0.3c0.1-0.1,0.3-0.1,0.4-0.2c0.1,0,0.3,0.1,0.3,0.2L107.3,92.1z M105.8,87.2
			c0-0.4-0.1-0.8-0.2-1.2c-0.1-0.3-0.3-0.6-0.5-0.9c-0.2-0.3-0.5-0.5-0.8-0.6c-1.1-0.4-2.3-0.2-3.2,0.6c-0.6,0.6-0.9,1.3-1,2.1
			H105.8z M111.4,85.3c0.3-0.6,0.7-1.2,1.2-1.7c0.5-0.4,1.1-0.6,1.7-0.6c0.2,0,0.4,0,0.6,0.1c0.2,0,0.4,0.1,0.5,0.2l-0.1,1.4
			c0,0.2-0.2,0.3-0.3,0.3c-0.1,0-0.3,0-0.4-0.1c-0.2,0-0.4-0.1-0.6-0.1c-0.3,0-0.6,0-0.9,0.1c-0.3,0.1-0.5,0.2-0.7,0.4
			c-0.2,0.2-0.4,0.4-0.5,0.7c-0.2,0.3-0.3,0.6-0.4,0.9v6.6h-1.8V83.2h1c0.1,0,0.3,0,0.4,0.1c0.1,0.1,0.1,0.2,0.2,0.4L111.4,85.3z
			 M123.1,84.9c-0.1,0.1-0.2,0.2-0.4,0.2c-0.1,0-0.2,0-0.3-0.1l-0.5-0.2c-0.2-0.1-0.4-0.2-0.7-0.3c-0.3-0.1-0.6-0.1-0.9-0.1
			c-0.3,0-0.6,0-0.8,0.1c-0.2,0.1-0.4,0.2-0.6,0.3c-0.2,0.1-0.3,0.3-0.4,0.5c-0.1,0.2-0.1,0.4-0.1,0.6c0,0.2,0.1,0.5,0.2,0.7
			c0.2,0.2,0.4,0.3,0.6,0.5c0.3,0.1,0.6,0.3,0.9,0.3l1,0.3c0.3,0.1,0.7,0.2,1,0.4c0.3,0.1,0.6,0.3,0.9,0.5c0.6,0.4,0.9,1.1,0.8,1.8
			c0,0.5-0.1,0.9-0.3,1.3c-0.2,0.4-0.4,0.7-0.8,1c-0.4,0.3-0.8,0.6-1.2,0.7c-1.2,0.4-2.5,0.3-3.6-0.1c-0.5-0.2-1.1-0.5-1.5-0.9
			l0.4-0.7c0.1-0.1,0.1-0.2,0.2-0.2c0.1,0,0.2-0.1,0.3-0.1c0.1,0,0.3,0.1,0.4,0.1c0.1,0.1,0.3,0.2,0.5,0.3c0.2,0.1,0.5,0.2,0.7,0.3
			c0.3,0.1,0.7,0.1,1,0.1c0.3,0,0.6,0,0.9-0.1c0.2-0.1,0.5-0.2,0.7-0.4c0.2-0.1,0.3-0.3,0.4-0.5c0.1-0.2,0.1-0.4,0.1-0.7
			c0-0.3-0.1-0.5-0.2-0.7c-0.2-0.2-0.4-0.4-0.6-0.5c-0.3-0.1-0.6-0.3-0.9-0.3l-1-0.3c-0.3-0.1-0.7-0.2-1-0.4
			c-0.3-0.1-0.6-0.3-0.9-0.5c-0.3-0.2-0.5-0.5-0.6-0.8c-0.2-0.3-0.2-0.7-0.2-1.1c0-0.4,0.1-0.8,0.2-1.1c0.2-0.4,0.4-0.7,0.7-1
			c0.3-0.3,0.7-0.5,1.2-0.7c0.5-0.2,1-0.2,1.6-0.2c0.6,0,1.3,0.1,1.8,0.3c0.5,0.2,1,0.5,1.4,0.9L123.1,84.9z"/>
		<g>
			<path class="st7" d="M260,20.3c0.6,0,1.1-0.1,1.6-0.3c0.5-0.2,0.9-0.5,1.2-0.9c0.3-0.4,0.6-0.8,0.8-1.3c0.2-0.5,0.3-1.1,0.3-1.7
				V7.3h2v8.9c0,0.8-0.1,1.6-0.4,2.4c-0.3,0.7-0.6,1.3-1.2,1.9c-0.5,0.5-1.1,1-1.8,1.2c-1.6,0.6-3.3,0.6-4.9,0
				c-0.7-0.3-1.3-0.7-1.8-1.2c-0.5-0.5-0.9-1.2-1.2-1.9c-0.3-0.8-0.4-1.5-0.4-2.4V7.3h2v8.9c0,0.6,0.1,1.1,0.3,1.7
				c0.2,0.5,0.4,0.9,0.8,1.3c0.3,0.4,0.7,0.7,1.2,0.9C258.9,20.2,259.5,20.3,260,20.3z M281.2,7.3v14.6h-1c-0.1,0-0.3,0-0.4-0.1
				c-0.1-0.1-0.2-0.2-0.3-0.3l-8.5-11v11.4h-1.7V7.3h1.2l0.2,0.1c0.1,0,0.1,0.1,0.1,0.1c0,0,0.1,0.1,0.2,0.2l8.5,11v-0.5V7.3
				L281.2,7.3z M301.4,21.9h-1.5c-0.2,0-0.3,0-0.4-0.1c-0.1-0.1-0.2-0.2-0.2-0.3l-1.4-3.5h-6.6l-1.4,3.5c0,0.1-0.1,0.2-0.2,0.3
				c-0.1,0.1-0.3,0.2-0.4,0.1h-1.5l5.9-14.6h2L301.4,21.9z M297.3,16.5l-2.3-6c-0.1-0.2-0.1-0.4-0.2-0.6s-0.1-0.5-0.2-0.8
				c-0.1,0.5-0.3,0.9-0.4,1.4l-2.3,6L297.3,16.5z M311.6,12v0.7c0,0.2-0.1,0.4-0.4,0.4l-1.2,0.2c0.4,0.9,0.5,1.9,0.1,2.9
				c-0.2,0.4-0.5,0.8-0.8,1.1c-0.4,0.3-0.8,0.5-1.2,0.7c-0.5,0.2-1,0.2-1.6,0.2c-0.5,0-0.9-0.1-1.4-0.2c-0.2,0.1-0.4,0.3-0.5,0.4
				c-0.1,0.1-0.2,0.3-0.2,0.5c0,0.2,0.1,0.4,0.3,0.6c0.2,0.1,0.5,0.2,0.8,0.3c0.4,0.1,0.7,0.1,1.1,0.1c0.4,0,0.9,0,1.3,0.1
				s0.9,0.1,1.3,0.1c0.4,0.1,0.8,0.2,1.1,0.4c0.3,0.2,0.6,0.4,0.8,0.7c0.2,0.3,0.3,0.8,0.3,1.2c0,0.5-0.1,0.9-0.3,1.3
				c-0.2,0.4-0.6,0.8-1,1.1c-0.5,0.3-1,0.6-1.5,0.8c-0.6,0.2-1.3,0.3-2,0.3c-0.7,0-1.3-0.1-2-0.2c-0.5-0.1-1-0.3-1.4-0.6
				c-0.3-0.2-0.6-0.5-0.8-0.9c-0.2-0.3-0.3-0.6-0.3-1c0-0.5,0.2-0.9,0.5-1.3c0.4-0.4,0.8-0.7,1.3-0.9c-0.3-0.1-0.5-0.3-0.7-0.5
				c-0.2-0.3-0.3-0.6-0.3-0.9c0-0.2,0-0.3,0.1-0.5c0.1-0.2,0.2-0.3,0.3-0.5c0.1-0.2,0.3-0.3,0.4-0.5c0.2-0.2,0.4-0.3,0.6-0.4
				c-0.5-0.3-0.9-0.7-1.2-1.2c-0.3-0.5-0.4-1.1-0.4-1.6c0-0.5,0.1-0.9,0.3-1.4c0.2-0.4,0.5-0.8,0.8-1.1c0.4-0.3,0.8-0.5,1.2-0.7
				c0.5-0.2,1-0.2,1.6-0.2c0.4,0,0.8,0,1.3,0.1c0.4,0.1,0.7,0.2,1.1,0.4L311.6,12z M309.8,22.5c0-0.2-0.1-0.4-0.2-0.6
				c-0.2-0.2-0.4-0.3-0.6-0.4c-0.3-0.1-0.6-0.2-0.8-0.2c-0.3,0-0.7-0.1-1-0.1l-1.1-0.1c-0.4,0-0.7,0-1.1-0.1
				c-0.4,0.2-0.7,0.4-0.9,0.7c-0.2,0.3-0.4,0.6-0.4,0.9c0,0.2,0.1,0.5,0.2,0.6c0.1,0.2,0.3,0.4,0.6,0.5c0.3,0.2,0.6,0.3,0.9,0.4
				c0.4,0.1,0.9,0.1,1.3,0.1c0.4,0,0.9,0,1.3-0.1c0.4-0.1,0.7-0.2,1-0.4c0.2-0.1,0.5-0.3,0.6-0.6C309.7,23,309.8,22.7,309.8,22.5
				L309.8,22.5z M306.5,16.9c0.3,0,0.7,0,1-0.2c0.3-0.1,0.5-0.2,0.7-0.4c0.2-0.2,0.3-0.4,0.4-0.7c0.1-0.3,0.1-0.6,0.1-0.8
				c0-0.6-0.2-1.1-0.6-1.5c-0.5-0.4-1.1-0.6-1.7-0.6c-0.6,0-1.2,0.2-1.7,0.6c-0.4,0.4-0.6,0.9-0.6,1.5c0,0.3,0,0.6,0.1,0.8
				c0.1,0.3,0.2,0.5,0.4,0.7c0.2,0.2,0.4,0.3,0.7,0.4C305.9,16.8,306.2,16.9,306.5,16.9L306.5,16.9z M321.8,20.5
				c-0.2,0.3-0.5,0.5-0.8,0.7c-0.3,0.2-0.7,0.4-1,0.5c-0.4,0.1-0.7,0.2-1.1,0.3c-0.4,0.1-0.8,0.1-1.1,0.1c-0.7,0-1.4-0.1-2-0.4
				c-0.6-0.2-1.1-0.6-1.6-1.1c-0.5-0.5-0.8-1.1-1-1.7c-0.3-0.8-0.4-1.6-0.4-2.4c0-0.7,0.1-1.4,0.3-2c0.2-0.6,0.6-1.2,1-1.6
				c0.4-0.5,0.9-0.8,1.5-1.1c0.6-0.3,1.3-0.4,2-0.4c0.6,0,1.2,0.1,1.7,0.3c0.5,0.2,1,0.5,1.4,0.9c0.4,0.4,0.7,0.9,0.9,1.4
				c0.2,0.6,0.3,1.3,0.3,2c0,0.2,0,0.4-0.1,0.6c-0.1,0.1-0.2,0.2-0.4,0.1h-6.9c0,0.6,0.1,1.2,0.3,1.7c0.1,0.4,0.4,0.9,0.7,1.2
				c0.3,0.3,0.6,0.6,1,0.7c0.4,0.2,0.9,0.2,1.3,0.2c0.4,0,0.8,0,1.2-0.2c0.3-0.1,0.6-0.2,0.9-0.3c0.2-0.1,0.4-0.2,0.6-0.3
				c0.1-0.1,0.3-0.1,0.4-0.2c0.1,0,0.3,0.1,0.3,0.2L321.8,20.5z M320.3,15.6c0-0.4-0.1-0.8-0.2-1.2c-0.1-0.3-0.3-0.6-0.5-0.9
				c-0.2-0.3-0.5-0.5-0.8-0.6c-0.4-0.1-0.7-0.2-1.1-0.2c-0.8,0-1.5,0.2-2.1,0.8c-0.6,0.6-0.9,1.3-1,2.1H320.3z M325.9,13.1
				c0.2-0.2,0.5-0.5,0.7-0.7c0.2-0.2,0.5-0.4,0.8-0.5c0.3-0.1,0.6-0.3,0.9-0.3c0.3-0.1,0.7-0.1,1-0.1c0.5,0,1,0.1,1.5,0.3
				c0.4,0.2,0.8,0.5,1.1,0.8c0.3,0.4,0.5,0.8,0.7,1.2c0.2,0.5,0.2,1.1,0.2,1.6v6.6H331v-6.6c0-0.7-0.2-1.3-0.5-1.8
				c-0.4-0.5-1-0.7-1.6-0.6c-0.5,0-1,0.1-1.5,0.4c-0.5,0.3-0.9,0.6-1.3,1v7.6h-1.8V11.6h1.1c0.2,0,0.4,0.1,0.5,0.4L325.9,13.1z
				 M342.8,13.4c0,0.1-0.1,0.1-0.2,0.2c-0.1,0.1-0.1,0.1-0.2,0.1c-0.1,0-0.2-0.1-0.3-0.1c-0.3-0.2-0.7-0.4-1.1-0.6
				c-0.3-0.1-0.7-0.1-1-0.1c-0.5,0-0.9,0.1-1.4,0.3c-0.4,0.2-0.7,0.4-1,0.8c-0.3,0.4-0.5,0.8-0.6,1.2c-0.1,0.5-0.2,1.1-0.2,1.6
				c0,0.6,0.1,1.1,0.2,1.7c0.1,0.4,0.3,0.9,0.6,1.2c0.3,0.3,0.6,0.6,1,0.8c0.4,0.2,0.8,0.3,1.2,0.3c0.6,0,1.3-0.2,1.8-0.5l0.5-0.4
				c0.1-0.1,0.2-0.2,0.4-0.2c0.1,0,0.3,0.1,0.4,0.2l0.5,0.7c-0.2,0.3-0.5,0.5-0.8,0.7c-0.3,0.2-0.6,0.4-0.9,0.5
				c-0.3,0.1-0.7,0.2-1,0.3c-0.4,0.1-0.7,0.1-1.1,0.1c-0.6,0-1.2-0.1-1.8-0.4c-0.5-0.2-1-0.6-1.5-1c-0.4-0.5-0.8-1.1-1-1.7
				c-0.2-0.7-0.4-1.5-0.4-2.3c0-0.7,0.1-1.4,0.3-2.1c0.2-0.6,0.5-1.2,0.9-1.7c0.4-0.5,0.9-0.9,1.5-1.1c0.7-0.3,1.4-0.4,2.1-0.4
				c0.7,0,1.3,0.1,1.9,0.4c0.6,0.2,1.1,0.6,1.5,1L342.8,13.4z M347.6,8.3c0,0.2,0,0.3-0.1,0.5c-0.1,0.2-0.2,0.3-0.3,0.4
				c-0.1,0.1-0.3,0.2-0.4,0.3c-0.2,0.1-0.3,0.1-0.5,0.1c-0.3,0-0.7-0.1-0.9-0.4c-0.1-0.1-0.2-0.3-0.3-0.4c-0.1-0.2-0.1-0.3-0.1-0.5
				c0-0.2,0-0.3,0.1-0.5c0.1-0.2,0.2-0.3,0.3-0.4c0.1-0.1,0.3-0.2,0.4-0.3C346,7,346.2,7,346.3,7c0.2,0,0.3,0,0.5,0.1
				c0.2,0.1,0.3,0.2,0.4,0.3c0.1,0.1,0.2,0.3,0.3,0.4C347.6,7.9,347.7,8.1,347.6,8.3z M347.3,11.6v10.4h-1.8V11.6H347.3z
				 M358.6,20.5c-0.2,0.3-0.5,0.5-0.8,0.7c-0.3,0.2-0.6,0.4-1,0.5c-0.4,0.1-0.7,0.2-1.1,0.3c-0.4,0.1-0.8,0.1-1.1,0.1
				c-0.7,0-1.4-0.1-2-0.4c-0.6-0.2-1.1-0.6-1.6-1.1c-0.4-0.5-0.8-1.1-1-1.7c-0.3-0.8-0.4-1.6-0.4-2.4c0-0.7,0.1-1.4,0.3-2
				c0.2-0.6,0.5-1.2,1-1.6c0.4-0.5,0.9-0.8,1.5-1.1c0.6-0.3,1.3-0.4,2-0.4c0.6,0,1.2,0.1,1.7,0.3c0.5,0.2,1,0.5,1.4,0.9
				c0.4,0.4,0.7,0.9,0.9,1.4c0.2,0.6,0.3,1.3,0.3,2c0,0.2,0,0.4-0.1,0.6c-0.1,0.1-0.2,0.2-0.3,0.1h-6.9c0,0.6,0.1,1.2,0.3,1.7
				c0.1,0.4,0.4,0.9,0.7,1.2c0.3,0.3,0.6,0.6,1,0.7c0.4,0.2,0.9,0.2,1.3,0.2c0.4,0,0.8,0,1.2-0.2c0.3-0.1,0.6-0.2,0.9-0.3
				c0.2-0.1,0.4-0.2,0.6-0.3c0.1-0.1,0.3-0.1,0.4-0.2c0.1,0,0.3,0.1,0.4,0.2L358.6,20.5z M357.2,15.6c0-0.4-0.1-0.8-0.2-1.2
				c-0.1-0.3-0.3-0.6-0.5-0.9c-0.2-0.3-0.5-0.5-0.8-0.6c-0.4-0.1-0.7-0.2-1.1-0.2c-0.8,0-1.5,0.2-2.1,0.8c-0.5,0.6-0.9,1.3-0.9,2.1
				H357.2z M367.1,13.3c-0.1,0.1-0.2,0.2-0.4,0.2c-0.1,0-0.2,0-0.4-0.1l-0.5-0.2c-0.2-0.1-0.4-0.2-0.7-0.3c-0.3-0.1-0.6-0.1-0.9-0.1
				c-0.3,0-0.6,0-0.8,0.1c-0.2,0.1-0.4,0.2-0.6,0.3c-0.2,0.1-0.3,0.3-0.4,0.5c-0.1,0.2-0.1,0.4-0.1,0.6c0,0.2,0.1,0.5,0.2,0.7
				c0.2,0.2,0.4,0.4,0.6,0.5c0.3,0.1,0.6,0.3,0.9,0.4l1,0.3c0.3,0.1,0.7,0.2,1,0.4c0.3,0.1,0.6,0.3,0.9,0.5c0.3,0.2,0.5,0.5,0.6,0.8
				c0.2,0.3,0.2,0.7,0.2,1.1c0,0.5-0.1,0.9-0.3,1.3c-0.2,0.4-0.4,0.8-0.8,1c-0.4,0.3-0.8,0.6-1.2,0.7c-0.5,0.2-1.1,0.3-1.7,0.2
				c-0.7,0-1.4-0.1-2-0.4c-0.5-0.2-1.1-0.5-1.5-0.9l0.4-0.7c0-0.1,0.1-0.2,0.2-0.2c0.1,0,0.2-0.1,0.3-0.1c0.1,0,0.3,0.1,0.4,0.1
				c0.1,0.1,0.3,0.2,0.5,0.3c0.2,0.1,0.5,0.2,0.7,0.3c0.3,0.1,0.7,0.1,1,0.1c0.3,0,0.6,0,0.9-0.1c0.2-0.1,0.5-0.2,0.7-0.4
				c0.2-0.1,0.3-0.3,0.4-0.5c0.1-0.2,0.1-0.4,0.1-0.7c0-0.3-0.1-0.5-0.2-0.7c-0.2-0.2-0.4-0.4-0.6-0.5c-0.3-0.1-0.6-0.3-0.9-0.3
				l-1-0.3c-0.3-0.1-0.7-0.2-1-0.4c-0.3-0.1-0.6-0.3-0.9-0.5c-0.3-0.2-0.5-0.5-0.6-0.8c-0.2-0.4-0.2-0.7-0.2-1.1
				c0-0.8,0.4-1.6,1-2.1c0.3-0.3,0.7-0.5,1.2-0.7c0.5-0.2,1-0.2,1.6-0.2c0.6,0,1.3,0.1,1.8,0.3c0.5,0.2,1,0.5,1.4,0.9L367.1,13.3z"
				/>
		</g>
		<g>
			<path class="st7" d="M65.8,343.5h-2v-14.6h2V343.5z M81.4,328.8v14.6h-1c-0.1,0-0.3,0-0.4-0.1c-0.1-0.1-0.2-0.2-0.3-0.3l-8.5-11
				v11.4h-1.7v-14.7h1.2c0.1,0,0.1,0,0.2,0.1c0.1,0,0.1,0.1,0.1,0.1c0.1,0.1,0.1,0.1,0.2,0.2l8.5,11v-0.5v-10.8L81.4,328.8z
				 M97,336.4v5.6c-0.7,0.5-1.5,0.9-2.4,1.2c-0.9,0.3-1.8,0.4-2.7,0.4c-1.1,0-2.2-0.2-3.2-0.5c-0.9-0.3-1.7-0.9-2.4-1.5
				c-0.7-0.7-1.2-1.5-1.6-2.4c-0.4-1-0.5-2-0.5-3c0-1,0.2-2.1,0.5-3.1c0.3-0.9,0.8-1.7,1.5-2.4c0.7-0.7,1.5-1.2,2.4-1.5
				c1-0.4,2-0.6,3.1-0.5c0.5,0,1.1,0,1.6,0.1c0.5,0.1,0.9,0.2,1.4,0.4c0.8,0.3,1.6,0.8,2.2,1.4l-0.6,0.9c-0.1,0.1-0.2,0.2-0.3,0.3
				c-0.2,0-0.3,0-0.5-0.1l-0.6-0.4c-0.2-0.2-0.5-0.3-0.8-0.4c-0.3-0.1-0.7-0.3-1.1-0.3c-0.5-0.1-1-0.1-1.5-0.1
				c-0.8,0-1.5,0.1-2.2,0.4c-0.6,0.3-1.2,0.6-1.7,1.1c-0.5,0.5-0.9,1.1-1.1,1.8c-0.3,0.8-0.4,1.6-0.4,2.4c0,0.8,0.1,1.7,0.4,2.5
				c0.2,0.7,0.6,1.3,1.1,1.9c0.5,0.5,1.1,0.9,1.8,1.2c0.7,0.3,1.5,0.4,2.3,0.4c0.6,0,1.2-0.1,1.8-0.2c0.5-0.2,1.1-0.4,1.5-0.6V338
				h-2.3c-0.1,0-0.2,0-0.3-0.1c-0.1-0.1-0.1-0.2-0.1-0.3v-1.1L97,336.4z M113.6,336.2c0,1-0.2,2-0.5,3c-0.3,0.9-0.8,1.7-1.5,2.4
				c-0.6,0.7-1.4,1.2-2.3,1.5c-1.9,0.7-4,0.7-5.9,0c-0.9-0.4-1.6-0.9-2.3-1.5c-0.6-0.7-1.1-1.5-1.5-2.4c-0.7-1.9-0.7-4.1,0-6
				c0.3-0.9,0.8-1.7,1.5-2.4c0.6-0.7,1.4-1.2,2.3-1.5c1.9-0.7,4-0.7,5.9,0c0.9,0.3,1.6,0.9,2.3,1.5c0.6,0.7,1.1,1.5,1.5,2.4
				C113.4,334.1,113.6,335.1,113.6,336.2z M111.6,336.2c0-0.8-0.1-1.6-0.4-2.4c-0.2-0.7-0.5-1.3-1-1.8c-0.5-0.5-1-0.9-1.6-1.1
				c-1.4-0.5-2.9-0.5-4.3,0c-0.6,0.3-1.2,0.6-1.6,1.1c-0.5,0.5-0.8,1.2-1,1.8c-0.5,1.6-0.5,3.3,0,4.8c0.2,0.7,0.6,1.3,1,1.8
				c0.5,0.5,1,0.9,1.6,1.1c1.4,0.5,2.9,0.5,4.3,0c0.6-0.2,1.2-0.6,1.6-1.1c0.5-0.5,0.8-1.1,1-1.8C111.4,337.8,111.6,337,111.6,336.2
				L111.6,336.2z M121.8,334.8c-0.1,0.1-0.2,0.2-0.4,0.2c-0.1,0-0.2,0-0.3-0.1l-0.5-0.2c-0.2-0.1-0.4-0.2-0.7-0.2
				c-0.3-0.1-0.6-0.1-0.9-0.1c-0.3,0-0.6,0-0.8,0.1c-0.2,0.1-0.4,0.2-0.6,0.3c-0.3,0.2-0.5,0.6-0.5,1.1c0,0.2,0.1,0.5,0.2,0.7
				c0.2,0.2,0.4,0.3,0.6,0.5c0.3,0.1,0.6,0.3,0.9,0.3c0.3,0.1,0.6,0.2,1,0.3c0.3,0.1,0.7,0.2,1,0.4c0.3,0.1,0.6,0.3,0.9,0.5
				c0.2,0.2,0.5,0.5,0.6,0.8c0.2,0.3,0.2,0.7,0.2,1.1c0,0.5-0.1,0.9-0.3,1.3c-0.2,0.4-0.4,0.8-0.8,1.1c-0.4,0.3-0.8,0.5-1.2,0.7
				c-1.2,0.4-2.5,0.3-3.6-0.1c-0.5-0.2-1.1-0.5-1.5-0.9l0.4-0.7c0-0.1,0.1-0.2,0.2-0.2c0.1-0.1,0.2-0.1,0.3-0.1
				c0.1,0,0.3,0.1,0.4,0.1l0.5,0.3c0.5,0.3,1.1,0.5,1.8,0.5c0.3,0,0.6,0,0.9-0.1c0.2-0.1,0.5-0.2,0.7-0.4c0.2-0.1,0.3-0.3,0.4-0.5
				c0.1-0.2,0.1-0.4,0.1-0.6c0-0.3-0.1-0.5-0.2-0.7c-0.2-0.2-0.4-0.4-0.6-0.5c-0.3-0.1-0.6-0.3-0.9-0.4l-1-0.3
				c-0.3-0.1-0.7-0.2-1-0.4c-0.3-0.1-0.6-0.3-0.9-0.5c-0.3-0.2-0.5-0.5-0.6-0.8c-0.2-0.4-0.2-0.7-0.2-1.1c0-0.4,0.1-0.8,0.2-1.1
				c0.2-0.4,0.4-0.7,0.7-1c0.3-0.3,0.7-0.5,1.2-0.6c0.5-0.1,1-0.2,1.5-0.2c0.6,0,1.3,0.1,1.8,0.3c0.5,0.2,1,0.5,1.4,0.9L121.8,334.8
				z"/>
		</g>
		<g>
			<path class="st7" d="M369.5,205.9v1.8c0,0.2-0.1,0.3-0.2,0.4c-0.1,0.1-0.3,0.2-0.5,0.2h-0.9v3.4h-2.8v-3.4h-6
				c-0.2,0-0.4-0.1-0.5-0.2c-0.2-0.1-0.3-0.3-0.3-0.5l-0.3-1.6l6.9-9.3h3v9.1H369.5z M365.2,205.9V202v-0.8c0-0.3,0-0.6,0.1-0.9
				l-3.9,5.5L365.2,205.9z M381.2,196.8v1.3c0,0.3,0,0.7-0.1,1c-0.1,0.2-0.2,0.4-0.2,0.6l-5.2,10.9c-0.1,0.3-0.4,0.5-0.6,0.7
				c-0.3,0.2-0.6,0.3-1,0.3h-2.3L377,201c0.1-0.3,0.3-0.5,0.5-0.8c0.2-0.2,0.3-0.5,0.5-0.7h-6.6c-0.1,0-0.2,0-0.3-0.1
				c-0.2-0.1-0.3-0.2-0.4-0.4c0-0.1-0.1-0.2-0.1-0.3v-2.1L381.2,196.8z M389.6,200.4c0,0.5-0.1,1-0.3,1.5c-0.2,0.4-0.4,0.8-0.8,1.2
				c-0.3,0.3-0.7,0.6-1.1,0.8c-0.4,0.2-0.9,0.3-1.4,0.3c-0.5,0-1-0.1-1.4-0.3c-0.4-0.2-0.8-0.4-1.1-0.8c-0.3-0.3-0.6-0.7-0.7-1.2
				c-0.2-0.5-0.3-1-0.3-1.5c0-0.5,0.1-1,0.3-1.5c0.2-0.4,0.4-0.8,0.7-1.2c0.3-0.3,0.7-0.6,1.1-0.8c0.5-0.2,0.9-0.3,1.4-0.3
				c0.5,0,1,0.1,1.4,0.3c0.4,0.2,0.8,0.4,1.1,0.8c0.3,0.3,0.6,0.7,0.7,1.2C389.5,199.4,389.6,199.9,389.6,200.4z M394.3,197.3
				c0.1-0.1,0.2-0.2,0.4-0.3c0.2-0.1,0.4-0.2,0.6-0.1h2.3l-11.2,14.4c-0.1,0.1-0.2,0.2-0.4,0.3c-0.2,0.1-0.4,0.1-0.6,0.1h-2.4
				L394.3,197.3z M387.2,200.4c0-0.3,0-0.6-0.1-0.9c0-0.2-0.1-0.4-0.2-0.6c-0.1-0.1-0.2-0.2-0.4-0.3c-0.1-0.1-0.3-0.1-0.5-0.1
				c-0.2,0-0.3,0-0.5,0.1c-0.1,0.1-0.3,0.2-0.4,0.3c-0.1,0.2-0.2,0.4-0.2,0.6c-0.1,0.3-0.1,0.6-0.1,0.9c0,0.3,0,0.6,0.1,0.8
				c0,0.2,0.1,0.4,0.2,0.5c0.1,0.1,0.2,0.2,0.4,0.3c0.1,0.1,0.3,0.1,0.5,0.1c0.2,0,0.3,0,0.5-0.1c0.1-0.1,0.3-0.2,0.4-0.3
				c0.1-0.2,0.2-0.3,0.2-0.5C387.1,201,387.2,200.7,387.2,200.4z M398.2,208.2c0,1-0.4,2-1.1,2.7c-0.3,0.3-0.7,0.6-1.1,0.8
				c-0.4,0.2-0.9,0.3-1.4,0.3c-0.5,0-1-0.1-1.4-0.3c-0.4-0.2-0.8-0.4-1.1-0.8c-0.3-0.3-0.6-0.7-0.7-1.2c-0.2-0.5-0.3-1-0.3-1.5
				c0-0.5,0.1-1,0.3-1.5c0.3-0.9,1-1.6,1.9-1.9c0.5-0.2,0.9-0.3,1.4-0.3c0.5,0,1,0.1,1.4,0.3c0.4,0.2,0.8,0.4,1.1,0.8
				c0.3,0.3,0.6,0.7,0.7,1.2C398.1,207.2,398.2,207.7,398.2,208.2L398.2,208.2z M395.7,208.2c0-0.3,0-0.6-0.1-0.9
				c0-0.2-0.1-0.4-0.2-0.6c-0.1-0.1-0.2-0.2-0.4-0.3c-0.1-0.1-0.3-0.1-0.5-0.1c-0.2,0-0.3,0-0.5,0.1c-0.1,0.1-0.3,0.2-0.4,0.3
				c-0.1,0.2-0.2,0.4-0.2,0.6c-0.1,0.3-0.1,0.6-0.1,0.9c0,0.3,0,0.6,0.1,0.8c0,0.2,0.1,0.4,0.2,0.5c0.1,0.1,0.2,0.2,0.4,0.3
				c0.1,0.1,0.3,0.1,0.5,0.1c0.2,0,0.3,0,0.5-0.1c0.1-0.1,0.3-0.2,0.4-0.3c0.1-0.2,0.2-0.3,0.2-0.5
				C395.7,208.8,395.7,208.5,395.7,208.2z"/>
		</g>
		<g>
			<path class="st7" d="M185.2,290c0.1-0.7,0.3-1.3,0.6-2c0.3-0.5,0.7-1,1.2-1.4c0.5-0.4,1-0.6,1.6-0.8c0.6-0.2,1.3-0.3,1.9-0.3
				c0.7,0,1.4,0.1,2,0.3c0.5,0.2,1,0.5,1.4,0.8c0.4,0.3,0.7,0.8,0.9,1.2c0.2,0.5,0.3,1,0.3,1.5c0,0.4,0,0.8-0.1,1.2
				c-0.1,0.3-0.2,0.6-0.4,0.9c-0.2,0.3-0.4,0.5-0.7,0.7c-0.3,0.2-0.6,0.3-0.9,0.5c1.5,0.4,2.5,1.8,2.5,3.4c0,0.7-0.1,1.4-0.4,2.1
				c-0.3,0.6-0.7,1.1-1.1,1.5c-0.5,0.4-1.1,0.7-1.7,0.9c-0.6,0.2-1.3,0.3-2,0.3c-0.6,0-1.3-0.1-1.9-0.2c-0.5-0.1-1-0.4-1.5-0.7
				c-0.4-0.3-0.8-0.8-1.1-1.2c-0.3-0.6-0.6-1.2-0.8-1.8l1.4-0.6c0.3-0.1,0.7-0.2,1-0.1c0.3,0.1,0.5,0.2,0.7,0.5
				c0.2,0.5,0.6,0.9,1,1.2c0.4,0.3,0.8,0.4,1.2,0.4c0.3,0,0.6-0.1,0.9-0.2c0.2-0.1,0.5-0.3,0.6-0.5c0.2-0.2,0.3-0.4,0.4-0.6
				c0.1-0.2,0.1-0.5,0.1-0.7c0-0.3,0-0.6-0.1-0.9c0-0.3-0.2-0.5-0.4-0.7c-0.3-0.2-0.6-0.4-0.9-0.4c-0.6-0.1-1.2-0.2-1.7-0.1V292
				c0.5,0,1,0,1.5-0.1c0.3-0.1,0.6-0.2,0.9-0.4c0.2-0.2,0.3-0.4,0.4-0.6c0.1-0.3,0.1-0.6,0.1-0.9c0-0.5-0.1-1-0.4-1.4
				c-0.3-0.3-0.8-0.5-1.3-0.5c-0.8,0-1.6,0.5-1.9,1.3c-0.1,0.3-0.3,0.6-0.6,0.7c-0.3,0.1-0.7,0.2-1,0.1L185.2,290z M206.9,298.4v2.3
				h-8.5v-2.3h2.9v-7.5v-1.2l-1.7,1.4c-0.1,0.1-0.3,0.2-0.4,0.2c-0.1,0-0.3,0-0.4,0c-0.1,0-0.2-0.1-0.4-0.1
				c-0.1-0.1-0.2-0.1-0.2-0.2l-1-1.3l4.6-3.9h2.6v12.6H206.9z M215.8,289.4c0,0.5-0.1,1-0.3,1.5c-0.2,0.4-0.5,0.8-0.8,1.2
				c-0.3,0.3-0.7,0.6-1.1,0.8c-0.4,0.2-0.9,0.3-1.4,0.3c-0.5,0-1-0.1-1.4-0.3c-0.9-0.3-1.5-1-1.9-1.9c-0.2-0.5-0.3-1-0.3-1.5
				c0-0.5,0.1-1,0.3-1.5c0.2-0.4,0.4-0.8,0.7-1.2c0.3-0.3,0.7-0.6,1.1-0.8c0.5-0.2,0.9-0.3,1.4-0.3c0.5,0,1,0.1,1.4,0.3
				c0.4,0.2,0.8,0.4,1.1,0.8c0.3,0.3,0.6,0.7,0.7,1.2C215.7,288.3,215.8,288.9,215.8,289.4L215.8,289.4z M220.5,286.2
				c0.1-0.1,0.2-0.2,0.4-0.3c0.2-0.1,0.4-0.2,0.6-0.1h2.3l-11.2,14.5c-0.1,0.1-0.2,0.2-0.4,0.3c-0.2,0.1-0.4,0.1-0.6,0.1h-2.4
				L220.5,286.2z M213.4,289.4c0-0.3,0-0.6-0.1-0.9c0-0.2-0.1-0.4-0.2-0.5c-0.1-0.1-0.2-0.2-0.4-0.3c-0.3-0.1-0.6-0.1-0.9,0
				c-0.1,0.1-0.3,0.2-0.4,0.3c-0.1,0.2-0.2,0.4-0.2,0.5c-0.1,0.3-0.1,0.6-0.1,0.9c0,0.3,0,0.6,0.1,0.8c0,0.2,0.1,0.4,0.2,0.5
				c0.1,0.1,0.2,0.2,0.4,0.3c0.3,0.1,0.6,0.1,0.9,0c0.1-0.1,0.3-0.2,0.4-0.3c0.1-0.2,0.2-0.3,0.2-0.5
				C213.4,289.9,213.4,289.7,213.4,289.4z M224.4,297.2c0,0.5-0.1,1-0.3,1.5c-0.2,0.4-0.5,0.8-0.8,1.2c-0.7,0.6-1.6,1-2.5,1
				c-0.5,0-1-0.1-1.4-0.3c-0.4-0.2-0.8-0.4-1.1-0.8c-0.3-0.3-0.6-0.7-0.8-1.2c-0.2-0.5-0.3-1-0.3-1.5c0-0.5,0.1-1,0.3-1.5
				c0.2-0.4,0.4-0.8,0.8-1.2c0.3-0.3,0.7-0.6,1.1-0.8c0.5-0.2,0.9-0.3,1.4-0.3c0.5,0,1,0.1,1.4,0.3c0.4,0.2,0.8,0.4,1.1,0.8
				c0.3,0.3,0.6,0.7,0.7,1.2C224.3,296.1,224.4,296.6,224.4,297.2L224.4,297.2z M222,297.2c0-0.3,0-0.6-0.1-0.9
				c0-0.2-0.1-0.4-0.2-0.5c-0.1-0.1-0.2-0.2-0.4-0.3c-0.1-0.1-0.3-0.1-0.4-0.1c-0.2,0-0.3,0-0.4,0.1c-0.1,0.1-0.3,0.2-0.4,0.3
				c-0.1,0.2-0.2,0.4-0.2,0.5c-0.1,0.3-0.1,0.6-0.1,0.9c0,0.3,0,0.6,0.1,0.8c0,0.2,0.1,0.4,0.2,0.5c0.1,0.1,0.2,0.2,0.4,0.3
				c0.1,0.1,0.3,0.1,0.4,0.1c0.2,0,0.3,0,0.4-0.1c0.1-0.1,0.3-0.2,0.4-0.3c0.1-0.2,0.2-0.3,0.2-0.5C221.9,297.7,222,297.4,222,297.2
				L222,297.2z"/>
		</g>
		<g>
			<path class="st7" d="M163.9,139.9v2.3h-8.5v-2.3h2.9v-7.5v-0.6v-0.6l-1.7,1.4c-0.1,0.1-0.3,0.2-0.4,0.2c-0.1,0-0.3,0-0.4,0
				c-0.1,0-0.2-0.1-0.3-0.1c-0.1-0.1-0.2-0.1-0.2-0.2l-1-1.3l4.6-3.9h2.6v12.6L163.9,139.9z M175,139.3c0.3,0,0.6,0.1,0.8,0.3
				c0.2,0.2,0.3,0.5,0.3,0.7v1.8h-10.5v-1c0-0.2,0-0.4,0.1-0.6c0.1-0.2,0.2-0.5,0.4-0.6l4.3-4.3l1-1c0.3-0.3,0.5-0.6,0.7-1
				c0.2-0.3,0.3-0.7,0.4-1c0.1-0.3,0.1-0.7,0.1-1c0-0.5-0.1-1-0.4-1.4c-0.3-0.3-0.8-0.5-1.3-0.5c-0.4,0-0.8,0.1-1.2,0.4
				c-0.3,0.2-0.5,0.6-0.7,0.9c-0.1,0.3-0.3,0.6-0.6,0.8c-0.3,0.1-0.7,0.2-1,0.1l-1.7-0.3c0.1-0.7,0.3-1.3,0.6-1.9
				c0.3-0.5,0.7-1,1.2-1.4c0.5-0.4,1-0.7,1.6-0.8c0.6-0.2,1.3-0.3,1.9-0.3c0.7,0,1.4,0.1,2,0.3c0.6,0.2,1.1,0.5,1.5,0.9
				c0.4,0.4,0.8,0.8,1,1.4c0.2,0.6,0.3,1.1,0.3,1.7c0,0.5-0.1,1-0.2,1.5c-0.2,0.5-0.4,0.9-0.6,1.3c-0.3,0.4-0.6,0.8-0.9,1.2
				c-0.3,0.4-0.7,0.8-1.1,1.2l-2.9,3c0.4-0.1,0.7-0.2,1.1-0.3c0.3-0.1,0.7-0.1,1-0.1L175,139.3z M184.7,130.9c0,1.5-0.8,2.8-2.2,3.4
				c-0.4,0.2-0.9,0.3-1.3,0.3c-0.5,0-1-0.1-1.4-0.3c-0.4-0.2-0.8-0.4-1.1-0.8c-0.3-0.3-0.6-0.7-0.7-1.2c-0.2-0.5-0.3-1-0.3-1.5
				c0-0.5,0.1-1,0.3-1.5c0.2-0.4,0.4-0.8,0.7-1.2c0.3-0.3,0.7-0.6,1.1-0.8c0.5-0.2,0.9-0.3,1.4-0.3c0.5,0,1,0.1,1.4,0.3
				c0.4,0.2,0.8,0.4,1.1,0.8c0.3,0.3,0.6,0.7,0.7,1.2C184.6,129.9,184.7,130.4,184.7,130.9L184.7,130.9z M189.4,127.8
				c0.1-0.1,0.2-0.2,0.4-0.3c0.2-0.1,0.4-0.2,0.6-0.2h2.3l-11.2,14.4c-0.1,0.1-0.2,0.2-0.4,0.3c-0.2,0.1-0.4,0.1-0.6,0.1h-2.4
				L189.4,127.8z M182.2,130.9c0-0.3,0-0.6-0.1-0.9c0-0.2-0.1-0.4-0.2-0.5c-0.1-0.1-0.2-0.2-0.4-0.3c-0.1-0.1-0.3-0.1-0.4-0.1
				c-0.2,0-0.3,0-0.4,0.1c-0.1,0.1-0.3,0.2-0.3,0.3c-0.1,0.2-0.2,0.3-0.2,0.5c-0.1,0.3-0.1,0.6-0.1,0.9c0,0.3,0,0.6,0.1,0.8
				c0,0.2,0.1,0.4,0.2,0.5c0.1,0.1,0.2,0.2,0.3,0.3c0.1,0.1,0.3,0.1,0.4,0.1c0.2,0,0.3,0,0.4-0.1c0.1-0.1,0.3-0.1,0.4-0.3
				c0.1-0.2,0.2-0.3,0.2-0.5C182.2,131.5,182.2,131.2,182.2,130.9z M193.2,138.7c0,0.5-0.1,1-0.3,1.5c-0.2,0.4-0.4,0.8-0.8,1.2
				c-0.3,0.3-0.7,0.6-1.1,0.8c-0.4,0.2-0.9,0.3-1.4,0.3c-0.5,0-1-0.1-1.4-0.3c-0.4-0.2-0.8-0.4-1.1-0.8c-0.3-0.3-0.6-0.7-0.7-1.2
				c-0.2-0.5-0.3-1-0.3-1.5c0-0.5,0.1-1,0.3-1.5c0.2-0.4,0.4-0.8,0.7-1.2c0.3-0.3,0.7-0.6,1.1-0.8c0.5-0.2,0.9-0.3,1.4-0.3
				c0.5,0,1,0.1,1.4,0.3c0.4,0.2,0.8,0.4,1.1,0.8c0.3,0.3,0.6,0.7,0.8,1.2C193.2,137.7,193.2,138.2,193.2,138.7z M190.8,138.7
				c0-0.3,0-0.6-0.1-0.9c0-0.2-0.1-0.4-0.2-0.5c-0.1-0.1-0.2-0.2-0.4-0.3c-0.1-0.1-0.3-0.1-0.5-0.1c-0.2,0-0.3,0-0.4,0.1
				c-0.1,0.1-0.3,0.2-0.3,0.3c-0.1,0.2-0.2,0.3-0.2,0.5c-0.1,0.3-0.1,0.6-0.1,0.9c0,0.3,0,0.6,0.1,0.8c0,0.2,0.1,0.4,0.2,0.5
				c0.1,0.1,0.2,0.2,0.3,0.3c0.1,0.1,0.3,0.1,0.4,0.1c0.2,0,0.3,0,0.5-0.1c0.1-0.1,0.3-0.1,0.4-0.3c0.1-0.2,0.2-0.3,0.2-0.5
				C190.8,139.3,190.8,139,190.8,138.7z"/>
		</g>
		<g>
			<path class="st7" d="M249.5,74.1c0.1-0.7,0.3-1.3,0.6-1.9c0.6-1.1,1.6-1.9,2.7-2.2c0.6-0.2,1.3-0.3,1.9-0.3c0.7,0,1.4,0.1,2,0.3
				c0.5,0.2,1,0.5,1.4,0.8c0.4,0.3,0.7,0.8,0.9,1.2c0.2,0.5,0.3,1,0.3,1.5c0,0.4,0,0.8-0.1,1.2c-0.2,0.7-0.6,1.2-1.1,1.6
				c-0.3,0.2-0.6,0.3-0.9,0.4c1.5,0.4,2.5,1.8,2.5,3.4c0,0.7-0.1,1.4-0.4,2.1c-0.3,0.6-0.7,1.1-1.1,1.5c-0.5,0.4-1.1,0.7-1.7,0.9
				c-0.6,0.2-1.3,0.3-2,0.3c-0.6,0-1.3-0.1-1.9-0.2c-0.6-0.1-1.1-0.4-1.5-0.7c-0.4-0.3-0.8-0.8-1.1-1.2c-0.4-0.6-0.6-1.2-0.8-1.8
				l1.4-0.6c0.3-0.1,0.7-0.2,1-0.1c0.3,0.1,0.5,0.2,0.7,0.5c0.2,0.5,0.6,0.9,1,1.2c0.4,0.3,0.8,0.4,1.2,0.4c0.3,0,0.6-0.1,0.9-0.2
				c0.2-0.1,0.5-0.3,0.7-0.5c0.2-0.2,0.3-0.4,0.4-0.6c0.1-0.2,0.1-0.5,0.1-0.7c0-0.3,0-0.6-0.1-0.9c-0.1-0.3-0.2-0.5-0.4-0.7
				c-0.3-0.2-0.6-0.4-0.9-0.4c-0.6-0.1-1.1-0.2-1.7-0.2V76c0.5,0,1,0,1.5-0.1c0.3-0.1,0.6-0.2,0.9-0.4c0.2-0.2,0.3-0.4,0.4-0.6
				c0.1-0.3,0.1-0.5,0.1-0.8c0-0.5-0.1-1-0.4-1.3c-0.3-0.3-0.8-0.5-1.3-0.5c-0.8,0-1.6,0.5-1.9,1.3c-0.1,0.3-0.3,0.6-0.6,0.8
				c-0.3,0.1-0.7,0.2-1,0.1L249.5,74.1z M268.3,73.5c0,1-0.4,2-1.1,2.7c-0.3,0.3-0.7,0.6-1.1,0.8c-0.4,0.2-0.9,0.3-1.4,0.3
				c-0.5,0-1-0.1-1.4-0.3c-0.4-0.2-0.8-0.4-1.1-0.8c-0.3-0.3-0.6-0.7-0.7-1.1c-0.2-0.5-0.3-1-0.3-1.5c0-0.5,0.1-1,0.3-1.5
				c0.2-0.4,0.4-0.8,0.7-1.2c0.3-0.3,0.7-0.6,1.1-0.8c0.5-0.2,0.9-0.3,1.4-0.3c0.5,0,1,0.1,1.4,0.3c0.4,0.2,0.8,0.4,1.1,0.8
				c0.3,0.3,0.6,0.7,0.8,1.2C268.2,72.5,268.3,73,268.3,73.5z M273,70.3c0.1-0.1,0.2-0.2,0.4-0.3c0.2-0.1,0.4-0.2,0.6-0.2h2.3
				L265,84.3c-0.1,0.1-0.2,0.2-0.4,0.3c-0.2,0.1-0.4,0.1-0.6,0.1h-2.4L273,70.3z M265.9,73.5c0-0.3,0-0.6-0.1-0.9
				c0-0.2-0.1-0.4-0.2-0.5c-0.1-0.1-0.2-0.2-0.4-0.3c-0.1-0.1-0.3-0.1-0.5-0.1c-0.2,0-0.3,0-0.5,0.1c-0.1,0.1-0.3,0.2-0.3,0.3
				c-0.1,0.2-0.2,0.3-0.2,0.5c-0.1,0.3-0.1,0.6-0.1,0.9c0,0.3,0,0.5,0.1,0.8c0,0.2,0.1,0.4,0.2,0.5c0.1,0.1,0.2,0.2,0.3,0.3
				c0.1,0.1,0.3,0.1,0.5,0.1c0.2,0,0.3,0,0.5-0.1c0.1-0.1,0.3-0.1,0.4-0.3c0.1-0.2,0.2-0.3,0.2-0.5C265.8,74,265.9,73.8,265.9,73.5
				L265.9,73.5z M276.9,81.3c0,0.5-0.1,1-0.3,1.5c-0.2,0.4-0.5,0.8-0.8,1.2c-0.3,0.3-0.7,0.6-1.1,0.8c-0.4,0.2-0.9,0.3-1.4,0.3
				c-0.5,0-1-0.1-1.4-0.3c-0.4-0.2-0.8-0.4-1.1-0.8c-0.3-0.3-0.6-0.7-0.7-1.2c-0.2-0.5-0.3-1-0.3-1.5c0-0.5,0.1-1,0.3-1.5
				c0.2-0.4,0.4-0.8,0.7-1.2c0.3-0.3,0.7-0.6,1.1-0.8c0.5-0.2,0.9-0.3,1.4-0.3c0.5,0,1,0.1,1.4,0.3c0.4,0.2,0.8,0.4,1.1,0.8
				c0.3,0.3,0.6,0.7,0.7,1.2C276.8,80.2,276.9,80.7,276.9,81.3L276.9,81.3z M274.5,81.3c0-0.3,0-0.6-0.1-0.9c0-0.2-0.1-0.4-0.2-0.5
				c-0.1-0.1-0.2-0.2-0.4-0.3c-0.1-0.1-0.3-0.1-0.5-0.1c-0.2,0-0.3,0-0.5,0.1c-0.1,0.1-0.3,0.2-0.3,0.3c-0.1,0.2-0.2,0.3-0.2,0.5
				c-0.1,0.3-0.1,0.6-0.1,0.9c0,0.3,0,0.5,0.1,0.8c0,0.2,0.1,0.4,0.2,0.5c0.1,0.1,0.2,0.2,0.3,0.3c0.1,0.1,0.3,0.1,0.5,0.1
				c0.2,0,0.3,0,0.5-0.1c0.1-0.1,0.3-0.1,0.4-0.3c0.1-0.2,0.2-0.3,0.2-0.5C274.4,81.8,274.4,81.5,274.5,81.3L274.5,81.3z"/>
		</g>
		<g>
			<path class="st7" d="M219,85.1v1.3c0,0.3,0,0.7-0.1,1c-0.1,0.2-0.2,0.4-0.3,0.6l-5.2,11c-0.1,0.3-0.4,0.5-0.6,0.7
				c-0.3,0.2-0.7,0.3-1.1,0.3h-2.3l5.3-10.7c0.1-0.3,0.3-0.5,0.5-0.8c0.2-0.2,0.3-0.5,0.5-0.7h-6.6c-0.1,0-0.2,0-0.3-0.1
				c-0.1,0-0.2-0.1-0.2-0.2c-0.1-0.1-0.1-0.1-0.2-0.2c0-0.1-0.1-0.2-0.1-0.3v-2.2H219z M227.4,88.7c0,0.5-0.1,1-0.3,1.5
				c-0.2,0.4-0.5,0.8-0.8,1.2c-0.3,0.3-0.7,0.6-1.1,0.8c-0.4,0.2-0.9,0.3-1.4,0.3c-0.5,0-1-0.1-1.4-0.3c-0.4-0.2-0.8-0.4-1.1-0.8
				c-0.3-0.3-0.6-0.7-0.8-1.2c-0.2-0.5-0.3-1-0.3-1.5c0-0.5,0.1-1,0.3-1.5c0.2-0.4,0.4-0.8,0.8-1.2c0.3-0.3,0.7-0.6,1.1-0.8
				c0.5-0.2,0.9-0.3,1.4-0.3c0.5,0,1,0.1,1.4,0.3c0.4,0.2,0.8,0.4,1.1,0.8c0.3,0.3,0.6,0.7,0.7,1.2
				C227.4,87.7,227.4,88.2,227.4,88.7z M232.1,85.6c0.1-0.1,0.2-0.2,0.4-0.3c0.2-0.1,0.4-0.1,0.6-0.1h2.3l-11.2,14.4
				c-0.1,0.1-0.2,0.2-0.4,0.3c-0.2,0.1-0.4,0.1-0.6,0.1h-2.4L232.1,85.6z M225,88.7c0-0.3,0-0.6-0.1-0.9c0-0.2-0.1-0.4-0.2-0.6
				c-0.1-0.1-0.2-0.2-0.4-0.3c-0.1-0.1-0.3-0.1-0.4-0.1c-0.2,0-0.3,0-0.4,0.1c-0.1,0.1-0.3,0.2-0.4,0.3c-0.1,0.2-0.2,0.4-0.2,0.6
				c-0.1,0.3-0.1,0.6-0.1,0.9c0,0.3,0,0.6,0.1,0.8c0,0.2,0.1,0.4,0.2,0.5c0.1,0.1,0.2,0.2,0.4,0.3c0.1,0.1,0.3,0.1,0.4,0.1
				c0.2,0,0.3,0,0.4-0.1c0.1-0.1,0.3-0.2,0.4-0.3c0.1-0.2,0.2-0.3,0.2-0.5C225,89.3,225,89,225,88.7z M236,96.5
				c0,1.5-0.8,2.9-2.2,3.4c-0.4,0.2-0.9,0.3-1.4,0.3c-0.5,0-1-0.1-1.4-0.3c-0.4-0.2-0.8-0.4-1.1-0.8c-0.3-0.3-0.6-0.7-0.7-1.2
				c-0.2-0.5-0.3-1-0.3-1.5c0-0.5,0.1-1,0.3-1.5c0.2-0.4,0.4-0.8,0.7-1.2c0.3-0.3,0.7-0.6,1.1-0.8c0.5-0.2,0.9-0.3,1.4-0.3
				c0.5,0,1,0.1,1.4,0.3c0.4,0.2,0.8,0.4,1.1,0.8c0.3,0.3,0.6,0.7,0.8,1.2C235.9,95.5,236,96,236,96.5z M233.6,96.5
				c0-0.3,0-0.6-0.1-0.8c0-0.2-0.1-0.4-0.2-0.6c-0.1-0.1-0.2-0.2-0.4-0.3c-0.1-0.1-0.3-0.1-0.5-0.1c-0.2,0-0.3,0-0.4,0.1
				c-0.1,0.1-0.3,0.2-0.3,0.3c-0.1,0.2-0.2,0.4-0.2,0.6c-0.1,0.3-0.1,0.6-0.1,0.8c0,0.3,0,0.6,0.1,0.8c0,0.2,0.1,0.4,0.2,0.5
				c0.1,0.1,0.2,0.2,0.3,0.3c0.1,0.1,0.3,0.1,0.4,0.1c0.2,0,0.3,0,0.5-0.1c0.1-0.1,0.3-0.2,0.4-0.3c0.1-0.2,0.2-0.3,0.2-0.5
				C233.5,97.1,233.6,96.8,233.6,96.5L233.6,96.5z"/>
		</g>
		<g>
			<path class="st7" d="M103,7.8v5.6c-0.7,0.5-1.5,0.9-2.4,1.2c-0.9,0.3-1.8,0.4-2.7,0.4c-1.1,0-2.2-0.2-3.2-0.6
				c-0.9-0.3-1.7-0.9-2.4-1.5c-0.7-0.7-1.2-1.5-1.6-2.4c-0.4-1-0.5-2-0.5-3c0-1,0.2-2,0.5-3c0.3-0.9,0.8-1.7,1.5-2.4
				c0.7-0.7,1.5-1.3,2.4-1.6c1-0.4,2-0.6,3.1-0.5c0.5,0,1.1,0,1.6,0.1c0.5,0.1,0.9,0.2,1.4,0.4c0.4,0.2,0.8,0.3,1.2,0.6
				c0.4,0.2,0.7,0.5,1,0.8l-0.6,0.9C102.2,2.9,102.1,3,102,3c-0.2,0-0.3,0-0.5-0.1c-0.2-0.1-0.4-0.2-0.6-0.3
				c-0.2-0.2-0.5-0.3-0.8-0.4c-0.3-0.1-0.7-0.2-1.1-0.3c-0.5-0.1-1-0.1-1.5-0.1c-0.8,0-1.5,0.1-2.2,0.4c-0.6,0.3-1.2,0.7-1.7,1.2
				c-0.5,0.5-0.9,1.1-1.1,1.8c-0.3,0.8-0.4,1.6-0.4,2.4c0,0.8,0.1,1.7,0.4,2.5c0.2,0.7,0.6,1.3,1.1,1.9c0.5,0.5,1.1,0.9,1.8,1.2
				c0.8,0.3,1.5,0.4,2.4,0.4c0.6,0,1.2-0.1,1.8-0.2c0.5-0.2,1.1-0.4,1.6-0.6V9.3h-2.3c-0.1,0-0.2,0-0.3-0.1
				c-0.1-0.1-0.1-0.2-0.1-0.3V7.8H103z M109.9,4.3c0.7,0,1.4,0.1,2,0.4c0.6,0.2,1.1,0.6,1.6,1.1c0.4,0.5,0.8,1.1,1,1.7
				c0.2,0.7,0.4,1.5,0.4,2.2c0,0.8-0.1,1.5-0.4,2.2c-0.2,0.6-0.6,1.2-1,1.7c-0.4,0.5-1,0.8-1.6,1.1c-0.6,0.3-1.3,0.4-2,0.4
				c-0.7,0-1.4-0.1-2.1-0.4c-0.6-0.2-1.1-0.6-1.6-1.1c-0.4-0.5-0.8-1.1-1-1.7c-0.2-0.7-0.4-1.5-0.3-2.2c0-0.7,0.1-1.5,0.3-2.2
				c0.2-0.6,0.6-1.2,1-1.7c0.4-0.5,1-0.8,1.6-1.1C108.5,4.4,109.2,4.3,109.9,4.3z M109.9,13.5c0.9,0.1,1.7-0.3,2.3-1
				c0.5-0.9,0.8-1.9,0.8-2.9c0.1-1-0.2-2-0.8-2.9c-0.5-0.7-1.4-1.1-2.3-1c-0.5,0-0.9,0-1.4,0.2c-0.4,0.2-0.7,0.4-1,0.8
				c-0.2,0.4-0.4,0.8-0.5,1.2c-0.1,0.5-0.2,1.1-0.2,1.6c-0.1,1,0.2,2,0.8,2.9C108.1,13.2,109,13.6,109.9,13.5z M125.7,4.5l-4.2,10.4
				h-1.6l-4.2-10.4h1.5c0.1,0,0.3,0,0.4,0.1c0.1,0.1,0.2,0.2,0.2,0.3l2.6,6.7c0.1,0.2,0.2,0.5,0.2,0.7s0.1,0.5,0.2,0.7l0.2-0.7
				c0.1-0.3,0.1-0.5,0.2-0.7l2.7-6.7c0-0.1,0.1-0.2,0.2-0.3c0.1-0.1,0.2-0.1,0.3-0.1H125.7z M135.5,13.4c-0.2,0.3-0.5,0.5-0.8,0.7
				c-0.3,0.2-0.6,0.4-1,0.5c-0.4,0.1-0.7,0.2-1.1,0.3c-0.4,0.1-0.8,0.1-1.1,0.1c-0.7,0-1.4-0.1-2-0.4c-0.6-0.2-1.1-0.6-1.6-1.1
				c-0.5-0.5-0.8-1.1-1-1.7c-0.3-0.8-0.4-1.6-0.4-2.4c0-0.7,0.1-1.4,0.3-2c0.2-0.6,0.6-1.2,1-1.6c0.4-0.5,0.9-0.8,1.5-1.1
				c0.6-0.3,1.3-0.4,2-0.4c0.6,0,1.1,0.1,1.7,0.3c0.5,0.2,1,0.5,1.4,0.9c0.4,0.4,0.7,0.9,0.9,1.5c0.2,0.6,0.3,1.3,0.3,2
				c0,0.2,0,0.4-0.1,0.6c-0.1,0.1-0.2,0.2-0.4,0.1h-6.9c0,0.6,0.1,1.2,0.3,1.7c0.1,0.4,0.4,0.9,0.7,1.2c0.3,0.3,0.6,0.6,1,0.7
				c0.4,0.2,0.9,0.2,1.3,0.2c0.4,0,0.8,0,1.2-0.2c0.3-0.1,0.6-0.3,0.9-0.4c0.2-0.1,0.4-0.2,0.6-0.3c0.1-0.1,0.3-0.1,0.4-0.2
				c0.1,0,0.3,0.1,0.3,0.2L135.5,13.4z M134,8.5c0-0.4,0-0.8-0.2-1.2c-0.1-0.3-0.3-0.6-0.5-0.9c-0.2-0.3-0.5-0.5-0.8-0.6
				c-0.4-0.1-0.7-0.2-1.1-0.2c-0.8,0-1.5,0.2-2.1,0.8c-0.6,0.6-0.9,1.3-1,2.1H134z M139.6,6.5c0.3-0.6,0.7-1.2,1.2-1.7
				c0.5-0.4,1.1-0.6,1.8-0.6c0.2,0,0.4,0,0.6,0.1c0.2,0,0.4,0.1,0.5,0.2l-0.1,1.4c0,0.2-0.2,0.3-0.3,0.3c-0.1,0-0.3,0-0.4-0.1
				c-0.2,0-0.4-0.1-0.6-0.1c-0.3,0-0.6,0-0.9,0.2c-0.3,0.1-0.5,0.2-0.7,0.4c-0.2,0.2-0.4,0.4-0.6,0.7c-0.2,0.3-0.3,0.6-0.4,0.9v6.5
				h-1.8V4.5h1c0.1,0,0.3,0,0.4,0.1c0.1,0.1,0.1,0.2,0.2,0.4L139.6,6.5z M147,6c0.2-0.2,0.5-0.5,0.7-0.7c0.2-0.2,0.5-0.4,0.8-0.5
				c0.3-0.2,0.6-0.3,0.9-0.3c0.3-0.1,0.7-0.1,1-0.1c0.5,0,1.1,0.1,1.6,0.2c0.4,0.2,0.8,0.4,1.1,0.8c0.3,0.4,0.5,0.8,0.7,1.2
				c0.2,0.5,0.2,1.1,0.2,1.6v6.6h-1.9V8.2c0-0.7-0.2-1.3-0.5-1.8c-0.4-0.5-1-0.7-1.6-0.7c-0.5,0-1,0.1-1.5,0.4
				c-0.5,0.3-0.9,0.6-1.3,1.1v7.6h-1.8V4.5h1.1c0.2,0,0.4,0.1,0.5,0.4L147,6z M156.7,14.8V4.5h1.1c0.2,0,0.4,0.1,0.5,0.4l0.1,1.1
				c0.4-0.5,0.8-0.8,1.3-1.2c0.5-0.3,1.1-0.5,1.7-0.4c0.6,0,1.2,0.2,1.7,0.6c0.5,0.4,0.8,1,0.9,1.6c0.1-0.4,0.3-0.7,0.6-1
				c0.2-0.3,0.5-0.5,0.8-0.7c0.3-0.2,0.6-0.3,0.9-0.4c0.3-0.1,0.7-0.1,1-0.1c0.5,0,1,0.1,1.5,0.3c0.4,0.2,0.8,0.4,1.1,0.8
				c0.3,0.4,0.5,0.8,0.7,1.2c0.2,0.5,0.2,1.1,0.2,1.7v6.6h-1.8V8.2c0-0.7-0.1-1.3-0.5-1.8c-0.4-0.4-1-0.7-1.5-0.6
				c-0.3,0-0.6,0-0.8,0.2c-0.3,0.1-0.5,0.3-0.7,0.5c-0.2,0.2-0.4,0.5-0.5,0.8c-0.1,0.3-0.2,0.7-0.2,1.1v6.6h-1.8V8.2
				c0-0.7-0.1-1.3-0.5-1.9c-0.4-0.4-0.9-0.6-1.5-0.6c-0.4,0-0.9,0.1-1.2,0.4c-0.4,0.3-0.7,0.6-1,1v7.7L156.7,14.8z M181.9,13.4
				c-0.2,0.3-0.5,0.5-0.8,0.7c-0.3,0.2-0.6,0.4-1,0.5c-0.4,0.1-0.7,0.2-1.1,0.3c-0.4,0.1-0.8,0.1-1.1,0.1c-0.7,0-1.4-0.1-2-0.4
				c-0.6-0.2-1.1-0.6-1.6-1.1c-0.4-0.5-0.8-1.1-1-1.7c-0.3-0.8-0.4-1.6-0.4-2.4c0-0.7,0.1-1.4,0.3-2c0.2-0.6,0.6-1.2,1-1.6
				c0.4-0.5,0.9-0.8,1.5-1.1c0.6-0.3,1.3-0.4,2-0.4c0.6,0,1.2,0.1,1.7,0.3c0.5,0.2,1,0.5,1.4,0.9c0.4,0.4,0.7,0.9,0.9,1.5
				c0.2,0.6,0.3,1.3,0.3,2c0,0.2,0,0.4-0.1,0.6c-0.1,0.1-0.2,0.2-0.3,0.1h-6.9c0,0.6,0.1,1.2,0.3,1.7c0.1,0.4,0.4,0.9,0.7,1.2
				c0.3,0.3,0.6,0.6,1,0.7c0.4,0.2,0.9,0.2,1.3,0.2c0.4,0,0.8,0,1.2-0.2c0.3-0.1,0.6-0.2,0.9-0.4c0.2-0.1,0.4-0.2,0.6-0.3
				c0.1-0.1,0.3-0.1,0.4-0.2c0.1,0,0.3,0.1,0.3,0.2L181.9,13.4z M180.5,8.5c0-0.4-0.1-0.8-0.2-1.2c-0.1-0.3-0.3-0.6-0.5-0.9
				c-0.2-0.3-0.5-0.5-0.8-0.6c-0.4-0.1-0.7-0.2-1.1-0.2c-0.8,0-1.5,0.2-2.1,0.8c-0.5,0.6-0.9,1.3-0.9,2.1H180.5z M186,6
				c0.2-0.2,0.5-0.5,0.7-0.7c0.2-0.2,0.5-0.4,0.8-0.5c0.3-0.2,0.6-0.3,0.9-0.3c0.3-0.1,0.7-0.1,1-0.1c0.5,0,1,0.1,1.5,0.3
				c0.4,0.2,0.8,0.4,1.1,0.8c0.3,0.4,0.5,0.8,0.7,1.2c0.2,0.5,0.3,1,0.3,1.6v6.6h-1.8V8.2c0-0.7-0.1-1.3-0.5-1.8
				c-0.4-0.5-1-0.7-1.6-0.7c-0.5,0-1,0.1-1.5,0.4c-0.5,0.3-0.9,0.6-1.3,1.1v7.6h-1.8V4.5h1.1c0.2,0,0.4,0.1,0.5,0.4L186,6z
				 M198.8,15c-0.7,0-1.4-0.2-1.9-0.7c-0.5-0.6-0.7-1.3-0.6-2V6H195c-0.1,0-0.2,0-0.3-0.1c-0.1-0.1-0.1-0.2-0.1-0.3V4.9l1.7-0.2
				l0.4-3.2c0-0.1,0.1-0.2,0.1-0.2c0.1-0.1,0.2-0.1,0.3-0.1h0.9v3.6h3V6h-3v6.2c0,0.4,0.1,0.7,0.3,1c0.2,0.2,0.5,0.3,0.8,0.3
				c0.2,0,0.3,0,0.5-0.1c0.1,0,0.2-0.1,0.4-0.2l0.3-0.2c0.1,0,0.1-0.1,0.2-0.1c0.1,0,0.2,0.1,0.2,0.2l0.5,0.9
				c-0.3,0.3-0.7,0.5-1.1,0.7C199.7,14.9,199.2,15,198.8,15L198.8,15z M103,39.3h-1.5c-0.2,0-0.3,0-0.4-0.1
				c-0.1-0.1-0.2-0.2-0.2-0.3l-1.4-3.5h-6.6l-1.4,3.5c0,0.1-0.1,0.2-0.2,0.3c-0.1,0.1-0.3,0.1-0.4,0.1h-1.5l5.9-14.6h2L103,39.3z
				 M98.9,33.9l-2.3-6c-0.1-0.2-0.1-0.4-0.2-0.6s-0.1-0.5-0.2-0.8c-0.1,0.5-0.2,1-0.4,1.5l-2.3,6L98.9,33.9z M113.3,29.4v0.7
				c0,0.2-0.1,0.4-0.4,0.4l-1.2,0.1c0.2,0.5,0.3,1,0.3,1.5c0,0.5-0.1,0.9-0.3,1.4c-0.2,0.4-0.5,0.8-0.8,1.1
				c-0.4,0.3-0.8,0.5-1.2,0.7c-0.5,0.2-1,0.2-1.5,0.2c-0.5,0-0.9-0.1-1.4-0.2c-0.2,0.1-0.4,0.3-0.5,0.4c-0.1,0.1-0.2,0.3-0.2,0.5
				c0,0.2,0.1,0.4,0.3,0.6c0.2,0.1,0.5,0.2,0.8,0.3c0.4,0.1,0.7,0.1,1.1,0.1l1.3,0.1c0.4,0,0.9,0.1,1.3,0.2c0.4,0.1,0.8,0.2,1.1,0.4
				c0.7,0.3,1.2,1.1,1.1,1.9c0,0.4-0.1,0.9-0.3,1.3c-0.2,0.4-0.6,0.8-1,1.1c-0.5,0.4-1,0.6-1.5,0.8c-0.6,0.2-1.3,0.3-2,0.3
				c-0.7,0-1.3-0.1-2-0.2c-0.5-0.1-1-0.3-1.4-0.6c-0.3-0.2-0.6-0.5-0.8-0.9c-0.2-0.3-0.3-0.6-0.3-1c0-0.5,0.2-0.9,0.5-1.3
				c0.4-0.4,0.8-0.7,1.3-0.8c-0.3-0.1-0.5-0.3-0.7-0.5c-0.2-0.3-0.3-0.6-0.3-0.9c0-0.2,0-0.3,0.1-0.5c0.1-0.2,0.1-0.3,0.2-0.5
				c0.1-0.2,0.3-0.3,0.4-0.5c0.2-0.2,0.4-0.3,0.6-0.4c-0.5-0.3-0.9-0.7-1.2-1.1c-0.3-0.5-0.4-1.1-0.4-1.7c0-0.5,0.1-0.9,0.3-1.4
				c0.2-0.4,0.5-0.8,0.8-1.1c0.4-0.3,0.8-0.5,1.2-0.7c0.5-0.2,1-0.2,1.6-0.2c0.4,0,0.8,0,1.3,0.1c0.4,0.1,0.7,0.2,1.1,0.4
				L113.3,29.4z M111.4,39.9c0-0.2-0.1-0.4-0.2-0.6c-0.2-0.2-0.4-0.3-0.6-0.4c-0.3-0.1-0.6-0.2-0.8-0.2c-0.3,0-0.7-0.1-1-0.1
				l-1.1-0.1c-0.4,0-0.7,0-1.1-0.1c-0.4,0.2-0.7,0.4-0.9,0.7c-0.2,0.3-0.4,0.6-0.4,1c0,0.2,0.1,0.5,0.2,0.7c0.1,0.2,0.3,0.4,0.5,0.5
				c0.3,0.2,0.6,0.3,0.9,0.3c0.4,0.1,0.9,0.1,1.3,0.1c0.4,0,0.9,0,1.3-0.1c0.4-0.1,0.7-0.2,1-0.4c0.2-0.1,0.5-0.3,0.6-0.6
				C111.4,40.5,111.4,40.2,111.4,39.9z M108.1,34.3c0.3,0,0.7,0,1-0.2c0.3-0.1,0.5-0.2,0.7-0.4c0.2-0.2,0.3-0.4,0.4-0.7
				c0.1-0.3,0.1-0.6,0.1-0.8c0-0.6-0.2-1.1-0.6-1.5c-1-0.7-2.4-0.7-3.4,0c-0.4,0.4-0.6,0.9-0.6,1.5c0,0.3,0,0.6,0.2,0.8
				c0.1,0.2,0.2,0.5,0.4,0.7c0.2,0.2,0.4,0.3,0.7,0.4C107.5,34.2,107.8,34.3,108.1,34.3z M123.4,37.9c-0.2,0.3-0.5,0.5-0.8,0.7
				c-0.3,0.2-0.6,0.4-1,0.5c-0.4,0.1-0.7,0.2-1.1,0.3c-0.4,0.1-0.8,0.1-1.1,0.1c-0.7,0-1.4-0.1-2-0.4c-0.6-0.2-1.1-0.6-1.6-1.1
				c-0.4-0.5-0.8-1.1-1-1.7c-0.2-0.8-0.4-1.5-0.4-2.3c0-0.7,0.1-1.4,0.3-2c0.2-0.6,0.6-1.2,1-1.6c0.4-0.5,1-0.8,1.5-1.1
				c0.6-0.3,1.3-0.4,2-0.4c0.6,0,1.2,0.1,1.7,0.3c0.5,0.2,1,0.5,1.4,0.9c0.4,0.4,0.7,0.9,0.9,1.5c0.2,0.6,0.3,1.3,0.3,2
				c0,0.2,0,0.4-0.1,0.6c-0.1,0.1-0.2,0.2-0.3,0.2h-7c0,0.6,0.1,1.1,0.3,1.7c0.1,0.4,0.4,0.9,0.7,1.2c0.3,0.3,0.6,0.6,1,0.7
				c0.4,0.2,0.9,0.2,1.3,0.2c0.4,0,0.8,0,1.2-0.2c0.3-0.1,0.6-0.2,0.8-0.3c0.2-0.1,0.4-0.2,0.6-0.3c0.1-0.1,0.3-0.1,0.4-0.2
				c0.1,0,0.3,0.1,0.4,0.2L123.4,37.9z M121.9,33c0-0.4-0.1-0.8-0.2-1.2c-0.1-0.3-0.3-0.6-0.5-0.9c-0.2-0.3-0.5-0.5-0.8-0.6
				c-0.4-0.1-0.7-0.2-1.1-0.2c-0.8,0-1.5,0.2-2.1,0.8c-0.5,0.6-0.9,1.3-0.9,2.1H121.9z M127.5,30.5c0.2-0.2,0.5-0.5,0.7-0.7
				c0.2-0.2,0.5-0.4,0.8-0.5c0.3-0.2,0.6-0.3,0.9-0.3c0.3-0.1,0.7-0.1,1-0.1c0.5,0,1,0.1,1.5,0.3c0.4,0.2,0.8,0.5,1.1,0.8
				c0.3,0.4,0.5,0.8,0.7,1.2c0.2,0.5,0.2,1.1,0.2,1.6v6.6h-1.8v-6.6c0-0.7-0.1-1.3-0.5-1.8c-0.4-0.5-1-0.7-1.6-0.6
				c-0.5,0-1,0.1-1.5,0.4c-0.5,0.3-0.9,0.6-1.3,1v7.6h-1.8V29h1.1c0.2,0,0.4,0.1,0.5,0.4L127.5,30.5z M144.4,30.8
				c0,0.1-0.1,0.1-0.2,0.2c-0.1,0-0.1,0.1-0.2,0.1c-0.1,0-0.2-0.1-0.3-0.1l-0.5-0.3c-0.2-0.1-0.4-0.2-0.7-0.3
				c-0.3-0.1-0.7-0.1-1-0.1c-0.5,0-0.9,0.1-1.4,0.3c-0.4,0.2-0.7,0.4-1,0.8c-0.3,0.4-0.5,0.8-0.6,1.2c-0.1,0.5-0.2,1.1-0.2,1.6
				c0,0.6,0.1,1.1,0.2,1.7c0.1,0.4,0.3,0.9,0.6,1.2c0.3,0.3,0.6,0.6,1,0.8c0.4,0.2,0.8,0.3,1.2,0.3c0.4,0,0.7,0,1.1-0.2
				c0.3-0.1,0.5-0.2,0.7-0.3c0.2-0.1,0.3-0.2,0.5-0.3c0.1-0.1,0.2-0.2,0.4-0.2c0.1,0,0.3,0.1,0.3,0.2l0.5,0.7
				c-0.2,0.3-0.5,0.5-0.8,0.7c-0.3,0.2-0.6,0.4-0.9,0.5c-0.3,0.1-0.7,0.2-1,0.3c-0.4,0.1-0.7,0.1-1.1,0.1c-0.6,0-1.2-0.1-1.8-0.3
				c-0.5-0.2-1-0.6-1.4-1c-0.4-0.5-0.8-1.1-1-1.7c-0.2-0.7-0.4-1.5-0.3-2.3c0-0.8,0.1-1.5,0.3-2.2c0.2-0.6,0.5-1.2,0.9-1.7
				c0.4-0.5,0.9-0.9,1.5-1.1c1.3-0.5,2.7-0.5,4,0c0.5,0.2,1,0.6,1.5,1L144.4,30.8z M149.3,25.7c0,0.2,0,0.3-0.1,0.5
				c-0.1,0.2-0.2,0.3-0.3,0.4c-0.1,0.1-0.3,0.2-0.4,0.3c-0.1,0.1-0.3,0.1-0.5,0.1c-0.2,0-0.3,0-0.5-0.1c-0.1-0.1-0.3-0.2-0.4-0.3
				c-0.1-0.1-0.2-0.3-0.3-0.4c-0.1-0.2-0.1-0.3-0.1-0.5c0-0.2,0-0.3,0.1-0.5c0.1-0.2,0.2-0.3,0.3-0.4c0.2-0.2,0.6-0.4,0.9-0.4
				c0.2,0,0.3,0,0.5,0.1c0.2,0.1,0.3,0.2,0.4,0.3c0.1,0.1,0.2,0.3,0.3,0.4C149.3,25.4,149.3,25.6,149.3,25.7z M148.9,29v10.3h-1.8
				V29H148.9z M160.3,37.9c-0.2,0.3-0.5,0.5-0.8,0.7c-0.3,0.2-0.6,0.4-1,0.5c-0.4,0.1-0.7,0.2-1.1,0.3c-0.4,0.1-0.8,0.1-1.1,0.1
				c-0.7,0-1.4-0.1-2-0.4c-0.6-0.2-1.1-0.6-1.6-1.1c-0.4-0.5-0.8-1.1-1-1.7c-0.3-0.7-0.4-1.5-0.4-2.3c0-0.7,0.1-1.4,0.3-2
				c0.2-0.6,0.6-1.2,1-1.6c0.4-0.5,0.9-0.8,1.5-1.1c0.6-0.3,1.3-0.4,2-0.4c0.6,0,1.2,0.1,1.7,0.3c0.5,0.2,1,0.5,1.4,0.9
				c0.4,0.4,0.7,0.9,0.9,1.5c0.2,0.6,0.3,1.3,0.3,2c0,0.2,0,0.4-0.1,0.6c-0.1,0.1-0.2,0.2-0.3,0.2h-6.9c0,0.6,0.1,1.1,0.3,1.7
				c0.1,0.4,0.4,0.8,0.7,1.1c0.3,0.3,0.6,0.6,1,0.7c0.4,0.2,0.9,0.2,1.3,0.2c0.4,0,0.8,0,1.2-0.2c0.3-0.1,0.6-0.2,0.9-0.3
				c0.2-0.1,0.4-0.2,0.6-0.3c0.1-0.1,0.3-0.1,0.4-0.2c0.1,0,0.3,0.1,0.4,0.2L160.3,37.9z M158.8,33c0-0.4-0.1-0.8-0.2-1.2
				c-0.1-0.3-0.3-0.6-0.5-0.8c-0.2-0.3-0.5-0.5-0.8-0.6c-1.1-0.4-2.3-0.2-3.2,0.5c-0.6,0.6-0.9,1.3-1,2.1L158.8,33z M168.7,30.7
				c-0.1,0.1-0.2,0.2-0.4,0.2c-0.1,0-0.2,0-0.3-0.1l-0.5-0.2c-0.2-0.1-0.4-0.2-0.7-0.2c-0.3-0.1-0.6-0.1-0.9-0.1
				c-0.3,0-0.6,0-0.8,0.1c-0.2,0.1-0.4,0.2-0.6,0.3c-0.2,0.1-0.3,0.3-0.4,0.5c-0.1,0.2-0.1,0.4-0.1,0.6c0,0.2,0.1,0.5,0.2,0.7
				c0.2,0.2,0.4,0.3,0.6,0.5c0.3,0.1,0.6,0.3,0.9,0.3l1,0.3c0.3,0.1,0.7,0.2,1,0.4c0.3,0.1,0.6,0.3,0.9,0.5c0.2,0.2,0.5,0.5,0.6,0.8
				c0.2,0.3,0.2,0.7,0.2,1.1c0,0.5-0.1,0.9-0.3,1.3c-0.2,0.4-0.4,0.8-0.8,1.1c-0.4,0.3-0.8,0.5-1.2,0.7c-1.2,0.4-2.5,0.3-3.6-0.1
				c-0.5-0.2-1.1-0.5-1.5-0.9l0.4-0.7c0-0.1,0.1-0.2,0.2-0.2c0.1-0.1,0.2-0.1,0.3-0.1c0.1,0,0.3,0,0.4,0.1l0.5,0.3
				c0.2,0.1,0.5,0.2,0.7,0.3c0.3,0.1,0.7,0.2,1,0.2c0.3,0,0.6,0,0.9-0.1c0.2-0.1,0.5-0.2,0.7-0.4c0.2-0.1,0.3-0.3,0.4-0.5
				c0.1-0.2,0.1-0.4,0.1-0.7c0-0.3-0.1-0.5-0.2-0.7c-0.2-0.2-0.4-0.4-0.6-0.5c-0.3-0.1-0.6-0.3-0.9-0.3l-1-0.3
				c-0.3-0.1-0.7-0.2-1-0.4c-0.3-0.1-0.6-0.3-0.9-0.5c-0.3-0.2-0.5-0.5-0.6-0.8c-0.2-0.4-0.2-0.7-0.2-1.1c0-0.4,0.1-0.8,0.2-1.1
				c0.2-0.4,0.4-0.7,0.7-1c0.3-0.3,0.7-0.5,1.2-0.6c0.5-0.2,1-0.3,1.6-0.2c0.6,0,1.3,0.1,1.8,0.3c0.5,0.2,1,0.5,1.4,0.9L168.7,30.7z
				"/>
		</g>
		<path class="st8" d="M373,232.7l45.5,45.5h108.4 M213.4,67.5l-24.9-16.6H89.2 M196.6,308.9l-45.4,45.5H61 M151.5,121.2l-19.8-19.8
			H62.4 M252.4,53.4V33.8H373"/>
	</g>
</g>
</svg>
