<svg xmlns="http://www.w3.org/2000/svg" width="465.92" height="354.86">
  <defs>
    <style>
      .cls-2,.cls-9{stroke:#fff}.cls-2{stroke-linejoin:round;stroke-width:2px}.cls-2,.cls-9{fill:none}.cls-8{fill:#fff}.cls-9{stroke-miterlimit:10}
    </style>
  </defs>
  <g id="Layer_2" data-name="Layer 2">
    <g id="Layer_1-2" data-name="Layer 1">
      <path d="M206.56 46.9a152.48 152.48 0 0 1 28.57 302.27l-14.28-74.89a76.25 76.25 0 0 0-14.29-151.14z" stroke-linejoin="round" stroke-width="2" stroke-linecap="round" stroke="#fff" fill="#0050af"/>
      <path class="cls-2" d="M206.56 46.9a152.48 152.48 0 0 1 28.57 302.27l-14.28-74.89a76.25 76.25 0 0 0-14.29-151.14z"/>
      <path d="M235.13 349.17A152.48 152.48 0 0 1 56.78 170.81l74.89 14.29a76.24 76.24 0 0 0 89.18 89.18z" fill="#1868b7" stroke-linejoin="round" stroke-width="2" stroke-linecap="round" stroke="#fff"/>
      <path class="cls-2" d="M235.13 349.17A152.48 152.48 0 0 1 56.78 170.81l74.89 14.29a76.24 76.24 0 0 0 89.18 89.18z"/>
      <path d="M56.78 170.81A152.43 152.43 0 0 1 116.93 76l44.82 61.68a76.24 76.24 0 0 0-30.08 47.4z" fill="#257bc1" stroke-linejoin="round" stroke-width="2" stroke-linecap="round" stroke="#fff"/>
      <path class="cls-2" d="M56.78 170.81A152.43 152.43 0 0 1 116.93 76l44.82 61.68a76.24 76.24 0 0 0-30.08 47.4z"/>
      <path d="M116.93 76A152.6 152.6 0 0 1 178 49.6l14.28 74.89a76.43 76.43 0 0 0-30.52 13.21z" fill="#338ecc" stroke-linejoin="round" stroke-width="2" stroke-linecap="round" stroke="#fff"/>
      <path class="cls-2" d="M116.93 76A152.6 152.6 0 0 1 178 49.6l14.28 74.89a76.43 76.43 0 0 0-30.52 13.21z"/>
      <path d="M178 49.6a152.17 152.17 0 0 1 28.57-2.7v76.24a76.18 76.18 0 0 0-14.29 1.35z" fill="#5b9bd5"/>
      <path d="M178 49.6a152.17 152.17 0 0 1 28.57-2.7v76.24a76.18 76.18 0 0 0-14.29 1.35z" fill="#4baae0" stroke-linejoin="round" stroke-width="2" stroke-linecap="round" stroke="#fff"/>
      <path class="cls-8" d="M406.79 253.21v14.65h-1a1 1 0 0 1-.4-.08 1.12 1.12 0 0 1-.31-.28l-8.47-11V267.9h-1.74v-14.69h1a.82.82 0 0 1 .23 0 .43.43 0 0 1 .16.05.41.41 0 0 1 .14.1 1.36 1.36 0 0 1 .16.17l8.47 11v-.52-10.8zM422.4 253.21v14.65h-1a1 1 0 0 1-.4-.08 1.12 1.12 0 0 1-.31-.28l-8.47-11V267.9h-1.74v-14.69h1a.79.79 0 0 1 .23 0 .43.43 0 0 1 .16.05.33.33 0 0 1 .14.1 1.36 1.36 0 0 1 .16.17l8.47 11v-.52-10.8zM438 260.82v5.62a8.19 8.19 0 0 1-2.36 1.19 9.16 9.16 0 0 1-2.74.39 8.93 8.93 0 0 1-3.19-.54 7.06 7.06 0 0 1-2.43-1.54 6.6 6.6 0 0 1-1.55-2.36 8.3 8.3 0 0 1-.54-3 8.54 8.54 0 0 1 .53-3.06 6.74 6.74 0 0 1 1.49-2.36 6.64 6.64 0 0 1 2.37-1.53 8.47 8.47 0 0 1 3.1-.54 10.27 10.27 0 0 1 1.62.12 7.71 7.71 0 0 1 1.38.37 6.46 6.46 0 0 1 2.19 1.36l-.56.9a.64.64 0 0 1-.35.26.63.63 0 0 1-.46-.1c-.17-.09-.35-.21-.56-.35a6.28 6.28 0 0 0-.78-.39 5.94 5.94 0 0 0-1.07-.32 6.92 6.92 0 0 0-1.47-.14 6 6 0 0 0-2.24.41 4.78 4.78 0 0 0-1.7 1.15 5.11 5.11 0 0 0-1.09 1.82 7.24 7.24 0 0 0-.38 2.4 7.31 7.31 0 0 0 .4 2.47 5.21 5.21 0 0 0 1.12 1.85 4.82 4.82 0 0 0 1.78 1.16 6.38 6.38 0 0 0 2.34.4 6.63 6.63 0 0 0 1.81-.23 7.68 7.68 0 0 0 1.55-.64v-3.22H434a.45.45 0 0 1-.31-.11.38.38 0 0 1-.12-.28v-1.12zM454.61 260.54a8.4 8.4 0 0 1-.52 3 7 7 0 0 1-1.47 2.37 6.65 6.65 0 0 1-2.29 1.54 8.3 8.3 0 0 1-5.89 0 6.61 6.61 0 0 1-2.28-1.54 7 7 0 0 1-1.47-2.37 9 9 0 0 1 0-6 7 7 0 0 1 1.47-2.37 6.5 6.5 0 0 1 2.28-1.55 8.16 8.16 0 0 1 5.89 0 6.54 6.54 0 0 1 2.29 1.55 7 7 0 0 1 1.47 2.37 8.4 8.4 0 0 1 .52 3zm-2 0a7.28 7.28 0 0 0-.37-2.42 5.23 5.23 0 0 0-1-1.82 4.65 4.65 0 0 0-1.64-1.14 5.92 5.92 0 0 0-4.28 0 4.65 4.65 0 0 0-1.64 1.14 5 5 0 0 0-1.05 1.82 8.1 8.1 0 0 0 0 4.84 5 5 0 0 0 1.05 1.81 4.5 4.5 0 0 0 1.64 1.13 5.92 5.92 0 0 0 4.28 0 4.5 4.5 0 0 0 1.64-1.13 5.27 5.27 0 0 0 1-1.81 7.28 7.28 0 0 0 .34-2.42zM462.88 259.21a.4.4 0 0 1-.38.23.67.67 0 0 1-.34-.12l-.48-.25a5 5 0 0 0-.67-.25 3.11 3.11 0 0 0-.92-.12 2.73 2.73 0 0 0-.83.12 1.91 1.91 0 0 0-.62.32 1.3 1.3 0 0 0-.4.48 1.16 1.16 0 0 0-.14.58 1 1 0 0 0 .23.67 2 2 0 0 0 .61.46 5.31 5.31 0 0 0 .86.34c.32.1.65.2 1 .32s.67.23 1 .37a3.83 3.83 0 0 1 .86.51 2.61 2.61 0 0 1 .61.75 2.38 2.38 0 0 1 .23 1.07 3.34 3.34 0 0 1-.26 1.32 2.84 2.84 0 0 1-.76 1.06 3.72 3.72 0 0 1-1.22.7 5.71 5.71 0 0 1-3.64-.1 5 5 0 0 1-1.5-.9l.43-.7a.55.55 0 0 1 .2-.2.49.49 0 0 1 .28-.08.64.64 0 0 1 .39.15l.5.31a3.17 3.17 0 0 0 1.75.46 2.86 2.86 0 0 0 .93-.13 1.89 1.89 0 0 0 .67-.38 1.39 1.39 0 0 0 .39-.54 1.57 1.57 0 0 0 .13-.65 1.1 1.1 0 0 0-.23-.71 1.86 1.86 0 0 0-.61-.48 4.53 4.53 0 0 0-.86-.35l-1-.31c-.34-.11-.67-.24-1-.38a3.52 3.52 0 0 1-.86-.52 2.35 2.35 0 0 1-.61-.78 2.59 2.59 0 0 1-.23-1.13 2.63 2.63 0 0 1 .25-1.14 2.67 2.67 0 0 1 .71-1 3.45 3.45 0 0 1 1.16-.66 4.44 4.44 0 0 1 1.56-.25 5.11 5.11 0 0 1 1.84.32 4.3 4.3 0 0 1 1.4.89zM16.79 86.23a8.44 8.44 0 0 1-.52 3 6.88 6.88 0 0 1-1.47 2.36 6.35 6.35 0 0 1-2.28 1.54 7.64 7.64 0 0 1-2.95.55 7.6 7.6 0 0 1-2.95-.55 6.52 6.52 0 0 1-2.28-1.54 7 7 0 0 1-1.47-2.36 9 9 0 0 1 0-6 7.12 7.12 0 0 1 1.47-2.38 6.66 6.66 0 0 1 2.28-1.54 7.6 7.6 0 0 1 3-.56 7.64 7.64 0 0 1 2.95.56 6.48 6.48 0 0 1 2.28 1.54 7 7 0 0 1 1.47 2.38 8.36 8.36 0 0 1 .47 3zm-2 0a7.38 7.38 0 0 0-.37-2.43 5 5 0 0 0-1-1.81 4.65 4.65 0 0 0-1.64-1.14 5.44 5.44 0 0 0-2.14-.4 5.44 5.44 0 0 0-2.14.4A4.65 4.65 0 0 0 5.79 82a5.2 5.2 0 0 0-1 1.81 7.65 7.65 0 0 0-.37 2.43 7.48 7.48 0 0 0 .37 2.41 5.11 5.11 0 0 0 1 1.81 4.41 4.41 0 0 0 1.64 1.14 5.63 5.63 0 0 0 2.14.4 5.63 5.63 0 0 0 2.14-.39 4.41 4.41 0 0 0 1.64-1.14 5 5 0 0 0 1-1.81 7.22 7.22 0 0 0 .41-2.43zM22.34 93.71a2.53 2.53 0 0 1-1.89-.71 2.75 2.75 0 0 1-.66-2v-6.29h-1.25a.4.4 0 0 1-.27-.09.39.39 0 0 1-.12-.31v-.72l1.7-.22.42-3.2a.48.48 0 0 1 .14-.25.41.41 0 0 1 .28-.09h.92v3.57h3v1.31h-3v6.22a1.32 1.32 0 0 0 .32 1 1.1 1.1 0 0 0 .81.32 1.46 1.46 0 0 0 .5-.08 2 2 0 0 0 .36-.17 2.36 2.36 0 0 0 .26-.17.37.37 0 0 1 .19-.07.33.33 0 0 1 .26.17l.53.87a3.46 3.46 0 0 1-1.13.69 3.82 3.82 0 0 1-1.37.22zM28.32 84.57a5.42 5.42 0 0 1 1.47-1.12 4 4 0 0 1 1.86-.45 3.75 3.75 0 0 1 1.5.28 2.88 2.88 0 0 1 1.08.8 3.42 3.42 0 0 1 .66 1.24 5.38 5.38 0 0 1 .23 1.6v6.6h-1.83V87a2.76 2.76 0 0 0-.54-1.82 2 2 0 0 0-1.63-.65 3.06 3.06 0 0 0-1.51.39 4.88 4.88 0 0 0-1.29 1v7.63h-1.83V78.49h1.83zM46.3 92.1a4 4 0 0 1-.81.71 5 5 0 0 1-1 .49 5.65 5.65 0 0 1-1.11.29 6.17 6.17 0 0 1-1.13.1 5.36 5.36 0 0 1-2-.36 4.31 4.31 0 0 1-1.56-1.07 4.86 4.86 0 0 1-1-1.73 7.19 7.19 0 0 1-.37-2.37 6.13 6.13 0 0 1 .33-2 4.92 4.92 0 0 1 1-1.63 4.39 4.39 0 0 1 1.52-1.08 5.07 5.07 0 0 1 2-.39 4.61 4.61 0 0 1 1.72.31 3.89 3.89 0 0 1 1.37.9 4 4 0 0 1 .91 1.45 5.73 5.73 0 0 1 .32 2 1.2 1.2 0 0 1-.09.57.37.37 0 0 1-.35.14H39.1a6 6 0 0 0 .27 1.71 3.52 3.52 0 0 0 .63 1.15 2.71 2.71 0 0 0 1 .73 3.54 3.54 0 0 0 1.33.24 3.85 3.85 0 0 0 1.19-.16 6.52 6.52 0 0 0 .85-.34c.24-.12.44-.24.6-.34a.74.74 0 0 1 .41-.16.39.39 0 0 1 .35.17zm-1.47-4.86a3.57 3.57 0 0 0-.18-1.16 2.55 2.55 0 0 0-.52-.91 2.29 2.29 0 0 0-.84-.59 3.14 3.14 0 0 0-3.18.55 3.6 3.6 0 0 0-1 2.11zM50.42 85.27a4.71 4.71 0 0 1 1.21-1.67 2.66 2.66 0 0 1 1.74-.6 2.59 2.59 0 0 1 .63.07 1.86 1.86 0 0 1 .54.22l-.13 1.36a.3.3 0 0 1-.31.26 2.08 2.08 0 0 1-.42-.06 2.9 2.9 0 0 0-.62-.06 2.43 2.43 0 0 0-.88.14 2.09 2.09 0 0 0-.68.42 3 3 0 0 0-.54.7 5.88 5.88 0 0 0-.44.94v6.55h-1.83V83.19h1a.59.59 0 0 1 .41.11.71.71 0 0 1 .16.39zM62.1 84.9a.39.39 0 0 1-.37.22.65.65 0 0 1-.35-.11l-.48-.25a4.48 4.48 0 0 0-.67-.26 3.51 3.51 0 0 0-.92-.11 3 3 0 0 0-.82.11 1.88 1.88 0 0 0-.63.33 1.28 1.28 0 0 0-.4.47 1.31 1.31 0 0 0-.14.59 1 1 0 0 0 .23.66 2 2 0 0 0 .61.46 5.3 5.3 0 0 0 .86.35l1 .31c.34.12.67.24 1 .38a3.21 3.21 0 0 1 .86.51 2.21 2.21 0 0 1 .84 1.82 3.38 3.38 0 0 1-.26 1.32 2.73 2.73 0 0 1-.76 1 3.74 3.74 0 0 1-1.22.71 5.71 5.71 0 0 1-3.64-.1 4.87 4.87 0 0 1-1.49-.91l.42-.69a.67.67 0 0 1 .2-.21.59.59 0 0 1 .29-.07.69.69 0 0 1 .38.14c.14.1.31.21.5.32a3.65 3.65 0 0 0 .71.32 3.44 3.44 0 0 0 1 .14 2.6 2.6 0 0 0 .93-.14 1.88 1.88 0 0 0 .67-.37 1.43 1.43 0 0 0 .39-.54 1.62 1.62 0 0 0 .13-.66 1.12 1.12 0 0 0-.23-.71 2.16 2.16 0 0 0-.61-.48 4.53 4.53 0 0 0-.86-.34l-1-.32a9.25 9.25 0 0 1-1-.37 3.26 3.26 0 0 1-.86-.53 2.49 2.49 0 0 1-.61-.78 2.56 2.56 0 0 1-.21-1.11 2.7 2.7 0 0 1 .25-1.14 2.86 2.86 0 0 1 .71-1 3.83 3.83 0 0 1 1.16-.66 4.69 4.69 0 0 1 1.56-.2 4.87 4.87 0 0 1 1.84.32 4.27 4.27 0 0 1 1.4.88z"/>
      <g>
        <path class="cls-8" d="M199 20.33a4.18 4.18 0 0 0 1.62-.3 3.42 3.42 0 0 0 1.21-.86 3.75 3.75 0 0 0 .76-1.32 5.35 5.35 0 0 0 .26-1.69v-8.9h2v8.9a6.63 6.63 0 0 1-.4 2.35 5.46 5.46 0 0 1-1.16 1.88 5.25 5.25 0 0 1-1.83 1.24 6.81 6.81 0 0 1-4.87 0 5.38 5.38 0 0 1-1.84-1.24 5.46 5.46 0 0 1-1.16-1.88 6.63 6.63 0 0 1-.4-2.35v-8.9h2v8.89a5.35 5.35 0 0 0 .26 1.69 3.91 3.91 0 0 0 .76 1.32 3.42 3.42 0 0 0 1.21.86 4.07 4.07 0 0 0 1.58.31zM220.2 7.26v14.65h-1a1 1 0 0 1-.4-.08 1.12 1.12 0 0 1-.31-.28l-8.47-11v11.36h-1.74V7.26h1.25l.16.05a.49.49 0 0 1 .14.11c.05 0 .1.1.16.16l8.47 11v-.52-10.8zM240.4 21.91h-1.53a.65.65 0 0 1-.43-.14.83.83 0 0 1-.25-.33l-1.37-3.54h-6.57l-1.37 3.54a.66.66 0 0 1-.24.32.61.61 0 0 1-.43.15h-1.53l5.86-14.65h2zm-4.13-5.44l-2.3-6c-.07-.18-.14-.39-.21-.62s-.15-.49-.22-.75a10.82 10.82 0 0 1-.44 1.38l-2.3 5.95zM250.64 12v.67c0 .23-.14.37-.43.43l-1.17.16a3.36 3.36 0 0 1 .06 2.86 3.15 3.15 0 0 1-.81 1.06 3.54 3.54 0 0 1-1.22.68 5.2 5.2 0 0 1-1.56.23 5.09 5.09 0 0 1-1.37-.17 2 2 0 0 0-.5.43.82.82 0 0 0-.17.47.63.63 0 0 0 .3.56 2.35 2.35 0 0 0 .79.27 8.79 8.79 0 0 0 1.12.1c.42 0 .85 0 1.29.07s.87.08 1.29.15a4.1 4.1 0 0 1 1.12.37 2.16 2.16 0 0 1 .79.71 2.06 2.06 0 0 1 .3 1.16 2.69 2.69 0 0 1-.33 1.29 3.35 3.35 0 0 1-1 1.11 5 5 0 0 1-1.53.78 6.74 6.74 0 0 1-2 .29 7.8 7.8 0 0 1-2-.23 4.71 4.71 0 0 1-1.41-.6 2.57 2.57 0 0 1-.84-.87 2.06 2.06 0 0 1-.28-1 1.87 1.87 0 0 1 .48-1.3 3.35 3.35 0 0 1 1.32-.85 1.9 1.9 0 0 1-.74-.54 1.47 1.47 0 0 1-.27-.93 1.6 1.6 0 0 1 .08-.47 1.89 1.89 0 0 1 .26-.48 2.46 2.46 0 0 1 .41-.45 2.69 2.69 0 0 1 .57-.38 3.18 3.18 0 0 1-1.19-1.22 3.08 3.08 0 0 1-.43-1.65 3.16 3.16 0 0 1 .29-1.38 3 3 0 0 1 .81-1.05 3.79 3.79 0 0 1 1.24-.67 5.29 5.29 0 0 1 1.58-.23 5.06 5.06 0 0 1 1.26.15 3.69 3.69 0 0 1 1.06.43zm-1.85 10.51a.87.87 0 0 0-.21-.61 1.42 1.42 0 0 0-.58-.37 3.72 3.72 0 0 0-.84-.19q-.48-.06-1-.09l-1.09-.06c-.37 0-.72 0-1.06-.1a3 3 0 0 0-.94.67 1.37 1.37 0 0 0-.36.94 1.22 1.22 0 0 0 .18.65 1.46 1.46 0 0 0 .55.52 2.9 2.9 0 0 0 .92.35 5.67 5.67 0 0 0 1.32.13 5.75 5.75 0 0 0 1.31-.13 3.47 3.47 0 0 0 1-.38 1.94 1.94 0 0 0 .62-.58 1.42 1.42 0 0 0 .18-.79zm-3.28-5.62a2.63 2.63 0 0 0 1-.16 1.88 1.88 0 0 0 .71-.43 1.76 1.76 0 0 0 .43-.66 2.47 2.47 0 0 0 .14-.84 2 2 0 0 0-.58-1.51 2.27 2.27 0 0 0-1.67-.56 2.31 2.31 0 0 0-1.68.56 2 2 0 0 0-.58 1.51 2.24 2.24 0 0 0 .15.84 1.67 1.67 0 0 0 .44.66 1.84 1.84 0 0 0 .7.43 2.63 2.63 0 0 0 .94.12zM260.78 20.46a4 4 0 0 1-.81.71 5.24 5.24 0 0 1-1 .49 6 6 0 0 1-1.11.29 6.24 6.24 0 0 1-1.13.1 5.29 5.29 0 0 1-2-.36 4.35 4.35 0 0 1-1.57-1.07 4.84 4.84 0 0 1-1-1.73 6.94 6.94 0 0 1-.37-2.37 6 6 0 0 1 .33-2 4.7 4.7 0 0 1 1-1.64 4.29 4.29 0 0 1 1.52-1.08 5.07 5.07 0 0 1 2-.39 4.61 4.61 0 0 1 1.72.31 4 4 0 0 1 1.37.9 4.15 4.15 0 0 1 .9 1.45 5.5 5.5 0 0 1 .33 2 1.2 1.2 0 0 1-.09.57.37.37 0 0 1-.35.14h-6.92a6 6 0 0 0 .27 1.71 3.28 3.28 0 0 0 .67 1.21 2.71 2.71 0 0 0 1 .73 3.54 3.54 0 0 0 1.33.24 3.74 3.74 0 0 0 1.18-.16 6.7 6.7 0 0 0 .86-.34c.23-.12.43-.24.59-.34a.77.77 0 0 1 .42-.16.4.4 0 0 1 .34.17zm-1.48-4.86a3.57 3.57 0 0 0-.18-1.16 2.41 2.41 0 0 0-.52-.91 2.25 2.25 0 0 0-.83-.59 2.82 2.82 0 0 0-1.11-.21 2.76 2.76 0 0 0-2.07.76 3.54 3.54 0 0 0-1 2.11zM264.89 13.05a5.68 5.68 0 0 1 .71-.68 4.62 4.62 0 0 1 .8-.53 4.89 4.89 0 0 1 .9-.34 4.78 4.78 0 0 1 1-.11 3.68 3.68 0 0 1 1.5.28 2.88 2.88 0 0 1 1.08.8 3.42 3.42 0 0 1 .66 1.24 5.38 5.38 0 0 1 .23 1.6v6.6H270v-6.6a2.76 2.76 0 0 0-.54-1.82 2 2 0 0 0-1.63-.65 3.06 3.06 0 0 0-1.51.39 4.88 4.88 0 0 0-1.29 1v7.63h-1.83V11.55h1.09a.45.45 0 0 1 .48.38zM281.79 13.39a.68.68 0 0 1-.17.17.31.31 0 0 1-.22.07.63.63 0 0 1-.34-.13 4.32 4.32 0 0 0-1.12-.56 3 3 0 0 0-1-.13 3.19 3.19 0 0 0-1.35.27 2.62 2.62 0 0 0-1 .78 3.48 3.48 0 0 0-.59 1.24 5.8 5.8 0 0 0-.2 1.62 6.13 6.13 0 0 0 .21 1.68 3.58 3.58 0 0 0 .61 1.22 2.58 2.58 0 0 0 .95.76 3 3 0 0 0 1.25.26 3 3 0 0 0 1.81-.51l.47-.35a.55.55 0 0 1 .37-.16.41.41 0 0 1 .35.17l.51.67a4 4 0 0 1-.77.71 4.79 4.79 0 0 1-.92.5 5.16 5.16 0 0 1-1 .29 6.74 6.74 0 0 1-1.11.09 4.52 4.52 0 0 1-1.8-.36 4.13 4.13 0 0 1-1.45-1 5.12 5.12 0 0 1-1-1.67 6.83 6.83 0 0 1-.35-2.26 6.61 6.61 0 0 1 .33-2.13 4.71 4.71 0 0 1 .94-1.69 4.13 4.13 0 0 1 1.52-1.11 5 5 0 0 1 2.08-.4 4.85 4.85 0 0 1 1.93.35 4.78 4.78 0 0 1 1.48 1zM286.65 8.3a1.08 1.08 0 0 1-.11.5 1.26 1.26 0 0 1-.28.4 1.37 1.37 0 0 1-.42.29 1.45 1.45 0 0 1-.51.1 1.22 1.22 0 0 1-.9-.39 1.23 1.23 0 0 1-.27-.4 1.22 1.22 0 0 1-.11-.5 1.26 1.26 0 0 1 .11-.51 1.32 1.32 0 0 1 .27-.42 1.49 1.49 0 0 1 .41-.28 1.34 1.34 0 0 1 .49-.1 1.45 1.45 0 0 1 .51.1 1.54 1.54 0 0 1 .42.28 1.34 1.34 0 0 1 .28.42 1.12 1.12 0 0 1 .11.51zm-.39 3.25v10.36h-1.82V11.55zM297.65 20.46a3.5 3.5 0 0 1-.81.71 4.89 4.89 0 0 1-1 .49 6 6 0 0 1-1.11.29 6.27 6.27 0 0 1-1.14.1 5.27 5.27 0 0 1-2-.36 4.26 4.26 0 0 1-1.57-1.07 4.86 4.86 0 0 1-1-1.73 7.2 7.2 0 0 1-.36-2.37 6 6 0 0 1 .33-2 4.84 4.84 0 0 1 .95-1.64 4.42 4.42 0 0 1 1.53-1.08 5 5 0 0 1 2-.39 4.58 4.58 0 0 1 1.72.31 3.89 3.89 0 0 1 1.37.9 4 4 0 0 1 .91 1.45 5.5 5.5 0 0 1 .33 2 1.06 1.06 0 0 1-.1.57.36.36 0 0 1-.34.14h-6.93a6 6 0 0 0 .28 1.71 3.28 3.28 0 0 0 .67 1.21 2.56 2.56 0 0 0 1 .73 3.5 3.5 0 0 0 1.33.24 3.78 3.78 0 0 0 1.18-.16 6.52 6.52 0 0 0 .85-.34c.24-.12.44-.24.6-.34a.77.77 0 0 1 .41-.16.41.41 0 0 1 .35.17zm-1.47-4.86a3.57 3.57 0 0 0-.18-1.16 2.55 2.55 0 0 0-.52-.91 2.33 2.33 0 0 0-.83-.59 2.83 2.83 0 0 0-1.12-.21 2.79 2.79 0 0 0-2.07.76 3.54 3.54 0 0 0-.94 2.11zM306.08 13.26a.41.41 0 0 1-.38.22.67.67 0 0 1-.35-.11l-.48-.25a4.48 4.48 0 0 0-.67-.26 3.43 3.43 0 0 0-.91-.11 3 3 0 0 0-.83.11 1.88 1.88 0 0 0-.63.33 1.28 1.28 0 0 0-.4.47 1.31 1.31 0 0 0-.14.59 1 1 0 0 0 .23.66 1.82 1.82 0 0 0 .61.46 5.3 5.3 0 0 0 .86.35l1 .31c.34.12.67.24 1 .38a3.21 3.21 0 0 1 .86.51 2.24 2.24 0 0 1 .61.75 2.35 2.35 0 0 1 .23 1.07 3.34 3.34 0 0 1-.26 1.32 2.81 2.81 0 0 1-.75 1.05 3.71 3.71 0 0 1-1.23.71 5 5 0 0 1-1.68.25 5.34 5.34 0 0 1-2-.35 5 5 0 0 1-1.49-.91l.43-.69a.65.65 0 0 1 .19-.21.62.62 0 0 1 .29-.07.69.69 0 0 1 .39.15c.13.09.3.2.49.31a4 4 0 0 0 .71.32 3.44 3.44 0 0 0 1 .14 2.7 2.7 0 0 0 .94-.14 1.92 1.92 0 0 0 .66-.37 1.43 1.43 0 0 0 .39-.54 1.62 1.62 0 0 0 .13-.66 1.12 1.12 0 0 0-.23-.71 2 2 0 0 0-.61-.48 5.31 5.31 0 0 0-.86-.34l-1-.32a8.38 8.38 0 0 1-1-.37 3.17 3.17 0 0 1-.87-.53 2.49 2.49 0 0 1-.61-.78 2.56 2.56 0 0 1-.23-1.13 2.83 2.83 0 0 1 1-2.1 3.83 3.83 0 0 1 1.16-.66 4.73 4.73 0 0 1 1.56-.24 4.83 4.83 0 0 1 1.84.32 4.27 4.27 0 0 1 1.4.88z"/>
      </g>
      <g>
        <path class="cls-8" d="M4.75 343.48h-2v-14.65h2zM20.36 328.83v14.65h-1a.87.87 0 0 1-.39-.08 1.15 1.15 0 0 1-.32-.28l-8.47-11V343.52H8.49v-14.69h1.25a.44.44 0 0 1 .16.06.33.33 0 0 1 .14.1 1.36 1.36 0 0 1 .16.17l8.47 11v-.52-10.81zM36 336.44v5.62a8.07 8.07 0 0 1-2.36 1.19 9.16 9.16 0 0 1-2.74.39 8.93 8.93 0 0 1-3.19-.54 7.06 7.06 0 0 1-2.43-1.54 6.6 6.6 0 0 1-1.55-2.36 8.3 8.3 0 0 1-.54-3 8.54 8.54 0 0 1 .53-3.06 6.62 6.62 0 0 1 1.5-2.36 6.51 6.51 0 0 1 2.36-1.53 8.49 8.49 0 0 1 3.11-.54 10.23 10.23 0 0 1 1.61.12 7.71 7.71 0 0 1 1.38.37 6.46 6.46 0 0 1 2.19 1.36l-.56.9a.64.64 0 0 1-.35.26.63.63 0 0 1-.46-.1l-.56-.35a5.14 5.14 0 0 0-.78-.39 5.23 5.23 0 0 0-1.07-.32 6.92 6.92 0 0 0-1.47-.14 6 6 0 0 0-2.24.41 4.78 4.78 0 0 0-1.7 1.15 5.26 5.26 0 0 0-1.09 1.82 7.2 7.2 0 0 0-.37 2.4 7.32 7.32 0 0 0 .39 2.47 5.3 5.3 0 0 0 1.12 1.85 4.82 4.82 0 0 0 1.78 1.16 6.38 6.38 0 0 0 2.34.4 6.58 6.58 0 0 0 1.81-.23 8.31 8.31 0 0 0 1.55-.64V338h-2.28a.45.45 0 0 1-.31-.11.38.38 0 0 1-.12-.28v-1.12zM52.57 336.16a8.4 8.4 0 0 1-.52 3 7 7 0 0 1-1.47 2.37 6.65 6.65 0 0 1-2.29 1.54 8.3 8.3 0 0 1-5.89 0 6.8 6.8 0 0 1-2.28-1.54 7 7 0 0 1-1.47-2.37 9 9 0 0 1 0-6 7 7 0 0 1 1.47-2.37 6.69 6.69 0 0 1 2.28-1.55 8.16 8.16 0 0 1 5.89 0 6.54 6.54 0 0 1 2.29 1.55 7 7 0 0 1 1.47 2.37 8.4 8.4 0 0 1 .52 3zm-2 0a7.28 7.28 0 0 0-.37-2.42 5.07 5.07 0 0 0-1-1.82 4.65 4.65 0 0 0-1.64-1.14 5.92 5.92 0 0 0-4.28 0 4.65 4.65 0 0 0-1.64 1.14 5.24 5.24 0 0 0-1 1.82 8.1 8.1 0 0 0 0 4.84 5.29 5.29 0 0 0 1 1.81 4.5 4.5 0 0 0 1.64 1.13 5.92 5.92 0 0 0 4.28 0 4.5 4.5 0 0 0 1.64-1.13 5.12 5.12 0 0 0 1-1.81 7.28 7.28 0 0 0 .34-2.42zM60.84 334.83a.39.39 0 0 1-.37.23.67.67 0 0 1-.35-.12l-.48-.25a4.55 4.55 0 0 0-.67-.25 3.11 3.11 0 0 0-.92-.12 2.62 2.62 0 0 0-.82.12 1.87 1.87 0 0 0-.63.32 1.31 1.31 0 0 0-.54 1.06 1 1 0 0 0 .23.67 2.12 2.12 0 0 0 .61.46 5.31 5.31 0 0 0 .86.34c.32.1.65.2 1 .32s.67.23 1 .37a3.83 3.83 0 0 1 .86.51 2.61 2.61 0 0 1 .61.75 2.35 2.35 0 0 1 .23 1.07 3.34 3.34 0 0 1-.26 1.32 2.84 2.84 0 0 1-.76 1.06 3.72 3.72 0 0 1-1.22.7 5.71 5.71 0 0 1-3.64-.1 4.85 4.85 0 0 1-1.49-.9l.43-.7a.46.46 0 0 1 .19-.2.5.5 0 0 1 .29-.08.64.64 0 0 1 .38.15l.5.31a3.17 3.17 0 0 0 1.75.46 2.86 2.86 0 0 0 .93-.13 2.06 2.06 0 0 0 .67-.38 1.29 1.29 0 0 0 .39-.54 1.57 1.57 0 0 0 .13-.65 1.08 1.08 0 0 0-.23-.71 1.86 1.86 0 0 0-.61-.48 4.53 4.53 0 0 0-.86-.35l-1-.31c-.34-.11-.67-.24-1-.38a3.52 3.52 0 0 1-.86-.52 2.42 2.42 0 0 1-.61-.79 2.52 2.52 0 0 1-.23-1.13 2.62 2.62 0 0 1 .25-1.13 2.8 2.8 0 0 1 .71-1 3.61 3.61 0 0 1 1.16-.65A4.48 4.48 0 0 1 58 333a5.07 5.07 0 0 1 1.84.32 4.3 4.3 0 0 1 1.4.89z"/>
      </g>
      <g>
        <path class="cls-8" d="M308.45 205.92v1.78a.57.57 0 0 1-.16.41.58.58 0 0 1-.45.17h-.92v3.43h-2.76v-3.43h-6a.88.88 0 0 1-.54-.18.78.78 0 0 1-.3-.46l-.33-1.57 6.89-9.26h3v9.11zm-4.29 0V202v-.78c0-.28.05-.56.08-.86l-3.94 5.52zM320.19 196.81v1.33a2.82 2.82 0 0 1-.14 1 5.43 5.43 0 0 1-.25.61l-5.17 10.95a2.18 2.18 0 0 1-.61.74 1.7 1.7 0 0 1-1 .31h-2.31L316 201c.15-.28.31-.54.47-.78a5.66 5.66 0 0 1 .54-.67h-6.56a.86.86 0 0 1-.27-.05.87.87 0 0 1-.38-.38.62.62 0 0 1-.06-.26v-2.09zM328.6 200.42a3.61 3.61 0 0 1-.3 1.49 3.64 3.64 0 0 1-.78 1.16 3.5 3.5 0 0 1-1.14.76 3.73 3.73 0 0 1-1.36.26 3.82 3.82 0 0 1-1.42-.26 3.26 3.26 0 0 1-1.13-.76 3.55 3.55 0 0 1-.74-1.16 4 4 0 0 1-.27-1.49 4.18 4.18 0 0 1 .27-1.54 3.64 3.64 0 0 1 .74-1.18 3.26 3.26 0 0 1 1.13-.76 3.63 3.63 0 0 1 1.42-.27 3.77 3.77 0 0 1 1.44.27 3.17 3.17 0 0 1 1.13.76 3.33 3.33 0 0 1 .74 1.18 4.18 4.18 0 0 1 .27 1.54zm4.68-3.14a2.47 2.47 0 0 1 .38-.32 1.13 1.13 0 0 1 .63-.15h2.31l-11.23 14.45a1.32 1.32 0 0 1-.38.32 1.22 1.22 0 0 1-.56.13h-2.37zm-7.11 3.14a3.43 3.43 0 0 0-.09-.86 1.65 1.65 0 0 0-.24-.55.83.83 0 0 0-.36-.29 1.34 1.34 0 0 0-.46-.08 1.33 1.33 0 0 0-.45.08.87.87 0 0 0-.35.29 1.66 1.66 0 0 0-.22.55 4.05 4.05 0 0 0-.08.86 3.72 3.72 0 0 0 .08.82 1.48 1.48 0 0 0 .22.52.93.93 0 0 0 .35.28 1.33 1.33 0 0 0 .45.08 1.34 1.34 0 0 0 .46-.08.88.88 0 0 0 .36-.28 1.48 1.48 0 0 0 .24-.52 3.15 3.15 0 0 0 .09-.82zm11 7.79a3.69 3.69 0 0 1-1.09 2.66 3.15 3.15 0 0 1-1.14.75 3.46 3.46 0 0 1-1.35.27 3.72 3.72 0 0 1-1.43-.27 3.16 3.16 0 0 1-1.12-.75 3.25 3.25 0 0 1-.74-1.16 4 4 0 0 1-.27-1.5 4.18 4.18 0 0 1 .27-1.54 3.34 3.34 0 0 1 1.86-1.94 3.72 3.72 0 0 1 1.43-.27 3.77 3.77 0 0 1 1.44.27 3.26 3.26 0 0 1 1.13.76 3.48 3.48 0 0 1 .74 1.18 4.18 4.18 0 0 1 .27 1.54zm-2.44 0a3.4 3.4 0 0 0-.08-.85 1.65 1.65 0 0 0-.24-.55.86.86 0 0 0-.37-.29 1.29 1.29 0 0 0-.45-.08 1.33 1.33 0 0 0-.45.08.81.81 0 0 0-.35.29 1.66 1.66 0 0 0-.22.55 3.4 3.4 0 0 0-.08.85 3.2 3.2 0 0 0 .08.82 1.48 1.48 0 0 0 .22.52.86.86 0 0 0 .35.28 1.33 1.33 0 0 0 .45.08 1.29 1.29 0 0 0 .45-.08.91.91 0 0 0 .37-.28 1.48 1.48 0 0 0 .24-.52 3.2 3.2 0 0 0 .08-.82z"/>
      </g>
      <g>
        <path class="cls-8" d="M124.17 290a5.66 5.66 0 0 1 .63-1.95 4.71 4.71 0 0 1 1.2-1.35 4.85 4.85 0 0 1 1.58-.82 6.53 6.53 0 0 1 1.91-.27 5.74 5.74 0 0 1 2 .31 4.57 4.57 0 0 1 1.45.84 3.76 3.76 0 0 1 .9 1.24 3.68 3.68 0 0 1 .3 1.47 4.73 4.73 0 0 1-.14 1.25 3 3 0 0 1-.42.93 2.59 2.59 0 0 1-.7.66 4.57 4.57 0 0 1-.94.46 3.32 3.32 0 0 1 2.47 3.37 4.64 4.64 0 0 1-.43 2.07 4.36 4.36 0 0 1-1.15 1.46 4.84 4.84 0 0 1-1.67.87 6.55 6.55 0 0 1-2 .29 6.92 6.92 0 0 1-1.9-.23 4.37 4.37 0 0 1-1.47-.71 4.89 4.89 0 0 1-1.13-1.25 8.52 8.52 0 0 1-.84-1.79l1.41-.58a1.77 1.77 0 0 1 1-.11 1 1 0 0 1 .68.47 3.57 3.57 0 0 0 1 1.23 2 2 0 0 0 1.21.39 2.2 2.2 0 0 0 .93-.18 2.11 2.11 0 0 0 .65-.46 1.87 1.87 0 0 0 .4-.64 2 2 0 0 0 .13-.73 4.47 4.47 0 0 0-.07-.86 1.05 1.05 0 0 0-.37-.66 2.13 2.13 0 0 0-.92-.43 8.56 8.56 0 0 0-1.73-.14V292a6.85 6.85 0 0 0 1.51-.14 2.33 2.33 0 0 0 .88-.4 1.13 1.13 0 0 0 .41-.61 2.72 2.72 0 0 0 .06-.85 2 2 0 0 0-.43-1.36 1.62 1.62 0 0 0-1.29-.47 1.89 1.89 0 0 0-1.86 1.3 1.31 1.31 0 0 1-.56.74 1.65 1.65 0 0 1-1 .08zM145.87 298.38v2.29h-8.48v-2.29h2.86v-7.52-1.16l-1.7 1.41a.89.89 0 0 1-.44.21 1.4 1.4 0 0 1-.41 0 1 1 0 0 1-.35-.13.94.94 0 0 1-.23-.2l-1-1.33 4.64-3.9h2.62v12.62zM154.82 289.38a3.69 3.69 0 0 1-.3 1.5 3.91 3.91 0 0 1-.79 1.16 3.43 3.43 0 0 1-1.14.75 3.64 3.64 0 0 1-1.35.26 3.91 3.91 0 0 1-1.43-.26 3.32 3.32 0 0 1-1.86-1.91 4 4 0 0 1-.27-1.5 4.22 4.22 0 0 1 .27-1.54 3.33 3.33 0 0 1 .74-1.18 3.47 3.47 0 0 1 1.12-.76 3.72 3.72 0 0 1 1.43-.27 3.77 3.77 0 0 1 1.44.27 3.41 3.41 0 0 1 1.13.76 3.48 3.48 0 0 1 .74 1.18 4.22 4.22 0 0 1 .27 1.54zm4.68-3.14a2.07 2.07 0 0 1 .38-.32 1.12 1.12 0 0 1 .62-.15h2.31l-11.22 14.45a1.22 1.22 0 0 1-.39.32 1.07 1.07 0 0 1-.55.13h-2.38zm-7.12 3.14a3.49 3.49 0 0 0-.08-.86 1.65 1.65 0 0 0-.24-.55.81.81 0 0 0-.37-.28 1.17 1.17 0 0 0-.9 0 .72.72 0 0 0-.35.28 1.66 1.66 0 0 0-.22.55 3.43 3.43 0 0 0-.09.86 3.15 3.15 0 0 0 .09.82 1.48 1.48 0 0 0 .22.52.86.86 0 0 0 .35.28 1.31 1.31 0 0 0 .9 0 1 1 0 0 0 .37-.28 1.48 1.48 0 0 0 .24-.52 3.2 3.2 0 0 0 .08-.82zm11 7.79a3.65 3.65 0 0 1-.29 1.5 3.83 3.83 0 0 1-.79 1.17 3.52 3.52 0 0 1-2.49 1 3.87 3.87 0 0 1-1.43-.26 3.34 3.34 0 0 1-1.12-.75 3.56 3.56 0 0 1-.75-1.17 4.22 4.22 0 0 1-.26-1.5 4.44 4.44 0 0 1 .26-1.54 3.5 3.5 0 0 1 .75-1.18 3.37 3.37 0 0 1 1.12-.76 3.68 3.68 0 0 1 1.43-.27 3.75 3.75 0 0 1 1.43.27 3.45 3.45 0 0 1 1.14.76 3.64 3.64 0 0 1 .74 1.18 4.22 4.22 0 0 1 .26 1.55zm-2.43 0a3.4 3.4 0 0 0-.09-.85 1.33 1.33 0 0 0-.24-.55.81.81 0 0 0-.36-.28 1.13 1.13 0 0 0-.45-.09 1.06 1.06 0 0 0-.45.09.73.73 0 0 0-.35.28 1.66 1.66 0 0 0-.23.55 4 4 0 0 0-.08.85 3.72 3.72 0 0 0 .08.82 1.48 1.48 0 0 0 .23.52.8.8 0 0 0 .35.28 1.25 1.25 0 0 0 .45.08 1.33 1.33 0 0 0 .45-.08.88.88 0 0 0 .36-.28 1.2 1.2 0 0 0 .24-.52 3.15 3.15 0 0 0 .14-.82z"/>
      </g>
      <g>
        <path class="cls-8" d="M102.87 139.9v2.29h-8.49v-2.29h2.87v-7.51-.58-.59l-1.7 1.41a.93.93 0 0 1-.44.21 1 1 0 0 1-.42 0 .87.87 0 0 1-.35-.13.72.72 0 0 1-.22-.2l-1-1.33 4.64-3.89h2.62v12.61zM114 139.33a1.13 1.13 0 0 1 .81.28 1 1 0 0 1 .3.74v1.84H104.6v-1a1.84 1.84 0 0 1 .12-.63 1.58 1.58 0 0 1 .43-.62l4.29-4.32 1-1a6.76 6.76 0 0 0 .68-1 4.42 4.42 0 0 0 .4-1 3.83 3.83 0 0 0 .13-1 2 2 0 0 0-.42-1.36 1.66 1.66 0 0 0-1.3-.48 2 2 0 0 0-1.19.37 2 2 0 0 0-.67.93 1.38 1.38 0 0 1-.56.75 1.61 1.61 0 0 1-1 .08l-1.68-.3a5.61 5.61 0 0 1 .63-1.94 4.74 4.74 0 0 1 1.16-1.38 4.57 4.57 0 0 1 1.58-.82 6.53 6.53 0 0 1 1.91-.28 5.69 5.69 0 0 1 2 .33 4.3 4.3 0 0 1 1.5.89 3.78 3.78 0 0 1 1 1.37 4.46 4.46 0 0 1 .33 1.74 4.6 4.6 0 0 1-.23 1.51 5.58 5.58 0 0 1-.63 1.33 8.59 8.59 0 0 1-.92 1.21c-.35.39-.73.79-1.12 1.19l-2.92 3a7.91 7.91 0 0 1 1.12-.27 6.41 6.41 0 0 1 1-.09zM123.67 130.91a3.59 3.59 0 0 1-2.22 3.4 3.46 3.46 0 0 1-1.35.27 3.68 3.68 0 0 1-1.43-.27 3.49 3.49 0 0 1-1.13-.75 3.55 3.55 0 0 1-.74-1.16 4.2 4.2 0 0 1-.26-1.49 4.4 4.4 0 0 1 .26-1.54 3.54 3.54 0 0 1 .74-1.18 3.36 3.36 0 0 1 1.13-.76 3.68 3.68 0 0 1 1.43-.27 3.75 3.75 0 0 1 1.43.27 3.31 3.31 0 0 1 1.14.76 3.54 3.54 0 0 1 .74 1.18 4.4 4.4 0 0 1 .26 1.54zm4.69-3.14a1.67 1.67 0 0 1 .37-.32 1.13 1.13 0 0 1 .63-.15h2.31l-11.23 14.44a1.35 1.35 0 0 1-.38.33 1.19 1.19 0 0 1-.56.12h-2.37zm-7.12 3.14a3.52 3.52 0 0 0-.09-.87 1.23 1.23 0 0 0-.24-.54.77.77 0 0 0-.36-.29 1.33 1.33 0 0 0-.45-.08 1.25 1.25 0 0 0-.45.08.7.7 0 0 0-.35.29 1.51 1.51 0 0 0-.23.54 4.16 4.16 0 0 0-.08.87 3.79 3.79 0 0 0 .08.82 1.57 1.57 0 0 0 .23.52.71.71 0 0 0 .35.27 1.06 1.06 0 0 0 .45.08 1.12 1.12 0 0 0 .45-.08.78.78 0 0 0 .36-.27 1.25 1.25 0 0 0 .24-.52 3.21 3.21 0 0 0 .09-.82zm11 7.79a3.72 3.72 0 0 1-.3 1.5 3.64 3.64 0 0 1-.78 1.16 3.48 3.48 0 0 1-1.14.75 3.55 3.55 0 0 1-1.36.27 3.63 3.63 0 0 1-1.42-.27 3.24 3.24 0 0 1-1.13-.75 3.39 3.39 0 0 1-.74-1.16 4.08 4.08 0 0 1-.26-1.5 4.18 4.18 0 0 1 .26-1.54 3.48 3.48 0 0 1 .74-1.18 3.26 3.26 0 0 1 1.13-.76 3.63 3.63 0 0 1 1.42-.27 3.77 3.77 0 0 1 1.44.27 3.17 3.17 0 0 1 1.13.76 3.5 3.5 0 0 1 .75 1.18 4.4 4.4 0 0 1 .26 1.54zm-2.43 0a3.49 3.49 0 0 0-.09-.86 1.59 1.59 0 0 0-.24-.54.77.77 0 0 0-.36-.29 1.34 1.34 0 0 0-.46-.08 1.33 1.33 0 0 0-.45.08.72.72 0 0 0-.34.29 1.6 1.6 0 0 0-.23.54 4.12 4.12 0 0 0-.08.86 3.79 3.79 0 0 0 .08.82 1.57 1.57 0 0 0 .23.52.73.73 0 0 0 .34.27 1.12 1.12 0 0 0 .45.08 1.14 1.14 0 0 0 .46-.08.78.78 0 0 0 .36-.27 1.57 1.57 0 0 0 .24-.52 3.21 3.21 0 0 0 .09-.82z"/>
      </g>
      <g>
        <path class="cls-8" d="M188.48 74.12a5.61 5.61 0 0 1 .63-1.94 4.53 4.53 0 0 1 2.73-2.2 6.28 6.28 0 0 1 1.92-.28 5.67 5.67 0 0 1 2 .32 4.29 4.29 0 0 1 1.45.84 3.38 3.38 0 0 1 .9 1.23 3.74 3.74 0 0 1 .31 1.48 4.63 4.63 0 0 1-.15 1.24 2.61 2.61 0 0 1-1.12 1.6 4.1 4.1 0 0 1-.94.45 3.32 3.32 0 0 1 2.47 3.37 4.61 4.61 0 0 1-.43 2.07 4.15 4.15 0 0 1-1.15 1.46 4.94 4.94 0 0 1-1.67.88 6.82 6.82 0 0 1-2 .29 7.19 7.19 0 0 1-1.89-.23A4.34 4.34 0 0 1 190 84a5 5 0 0 1-1.13-1.24 8.38 8.38 0 0 1-.84-1.8l1.41-.57a1.78 1.78 0 0 1 1-.12 1 1 0 0 1 .68.48 3.78 3.78 0 0 0 1 1.23 2 2 0 0 0 1.21.38 2.19 2.19 0 0 0 .92-.18 2.11 2.11 0 0 0 .66-.46 2 2 0 0 0 .39-.64 2 2 0 0 0 .13-.72 5.75 5.75 0 0 0-.06-.87 1.18 1.18 0 0 0-.38-.66 2.13 2.13 0 0 0-.92-.42 7.68 7.68 0 0 0-1.72-.15v-2.21a6.15 6.15 0 0 0 1.5-.14 2.41 2.41 0 0 0 .88-.39 1.21 1.21 0 0 0 .42-.61 3.22 3.22 0 0 0 .1-.79 2 2 0 0 0-.42-1.35 1.66 1.66 0 0 0-1.3-.48 1.89 1.89 0 0 0-1.86 1.3 1.38 1.38 0 0 1-.56.75 1.61 1.61 0 0 1-1 .08zM207.27 73.48a3.63 3.63 0 0 1-1.08 2.65 3.64 3.64 0 0 1-1.14.75 3.51 3.51 0 0 1-1.36.27 3.67 3.67 0 0 1-1.42-.27 3.38 3.38 0 0 1-1.13-.75 3.55 3.55 0 0 1-.74-1.13 4 4 0 0 1-.26-1.49 4.18 4.18 0 0 1 .26-1.54 3.54 3.54 0 0 1 .74-1.18 3.26 3.26 0 0 1 1.13-.76 3.67 3.67 0 0 1 1.42-.27 3.77 3.77 0 0 1 1.44.27 3.17 3.17 0 0 1 1.13.76 3.41 3.41 0 0 1 .75 1.18 4.4 4.4 0 0 1 .26 1.51zm4.73-3.14a2 2 0 0 1 .38-.32 1.13 1.13 0 0 1 .63-.15h2.31L204 84.31a1.35 1.35 0 0 1-.38.33 1.22 1.22 0 0 1-.56.12h-2.37zm-7.11 3.14a3.52 3.52 0 0 0-.09-.87 1.51 1.51 0 0 0-.24-.54.77.77 0 0 0-.36-.29 1.34 1.34 0 0 0-.46-.08 1.33 1.33 0 0 0-.45.08.72.72 0 0 0-.34.29 1.51 1.51 0 0 0-.23.54 4.16 4.16 0 0 0-.08.87 3.62 3.62 0 0 0 .08.81 1.54 1.54 0 0 0 .23.53.73.73 0 0 0 .34.27 1.12 1.12 0 0 0 .45.08 1.14 1.14 0 0 0 .46-.08.78.78 0 0 0 .36-.27 1.54 1.54 0 0 0 .24-.53 3.07 3.07 0 0 0 .04-.81zm11 7.79a3.72 3.72 0 0 1-.3 1.5 3.67 3.67 0 0 1-.79 1.16 3.49 3.49 0 0 1-1.13.75 3.55 3.55 0 0 1-1.36.27 3.72 3.72 0 0 1-1.43-.27 3.44 3.44 0 0 1-1.12-.75 3.39 3.39 0 0 1-.74-1.16 4.08 4.08 0 0 1-.27-1.5 4.18 4.18 0 0 1 .27-1.54 3.48 3.48 0 0 1 .74-1.18 3.32 3.32 0 0 1 1.12-.76 3.72 3.72 0 0 1 1.43-.27 3.77 3.77 0 0 1 1.44.27 3.26 3.26 0 0 1 1.13.76 3.33 3.33 0 0 1 .74 1.18 4.18 4.18 0 0 1 .22 1.54zm-2.43 0a3.49 3.49 0 0 0-.09-.86 1.59 1.59 0 0 0-.24-.54.77.77 0 0 0-.36-.29 1.39 1.39 0 0 0-.46-.08 1.33 1.33 0 0 0-.45.08.74.74 0 0 0-.35.29 1.6 1.6 0 0 0-.22.54 3.54 3.54 0 0 0-.08.86 3.12 3.12 0 0 0 .08.81 1.54 1.54 0 0 0 .22.53.76.76 0 0 0 .35.27 1.12 1.12 0 0 0 .45.08 1.17 1.17 0 0 0 .46-.08.78.78 0 0 0 .36-.27 1.54 1.54 0 0 0 .24-.53 3.07 3.07 0 0 0 .04-.81z"/>
      </g>
      <g>
        <path class="cls-8" d="M158 85.13v1.33a2.79 2.79 0 0 1-.13 1 6.56 6.56 0 0 1-.26.61l-5.17 11a2 2 0 0 1-.61.73 1.62 1.62 0 0 1-1.05.31h-2.28l5.32-10.66a7 7 0 0 1 .47-.78 5 5 0 0 1 .54-.67h-6.55a.6.6 0 0 1-.27-.06.91.91 0 0 1-.23-.15.94.94 0 0 1-.16-.23.58.58 0 0 1-.06-.26v-2.17zM166.44 88.73a3.65 3.65 0 0 1-.29 1.5 3.78 3.78 0 0 1-.79 1.16 3.64 3.64 0 0 1-1.14.75 3.45 3.45 0 0 1-1.35.26 3.68 3.68 0 0 1-1.43-.26 3.34 3.34 0 0 1-1.12-.75 3.51 3.51 0 0 1-.75-1.16 4.22 4.22 0 0 1-.26-1.5 4.38 4.38 0 0 1 .26-1.53 3.41 3.41 0 0 1 .75-1.18 3.25 3.25 0 0 1 1.12-.77 3.68 3.68 0 0 1 1.43-.27 3.75 3.75 0 0 1 1.43.27 3.33 3.33 0 0 1 1.14.77 3.54 3.54 0 0 1 .74 1.18 4.17 4.17 0 0 1 .26 1.53zm4.69-3.13a2 2 0 0 1 .37-.33 1.25 1.25 0 0 1 .63-.14h2.31l-11.23 14.44a1.18 1.18 0 0 1-.38.32 1.08 1.08 0 0 1-.56.13h-2.37zM164 88.73a3.49 3.49 0 0 0-.09-.86 1.33 1.33 0 0 0-.24-.55.81.81 0 0 0-.36-.28 1.12 1.12 0 0 0-.45-.08 1.06 1.06 0 0 0-.45.08.73.73 0 0 0-.35.28 1.66 1.66 0 0 0-.23.55 4.12 4.12 0 0 0-.08.86 3.72 3.72 0 0 0 .08.82 1.48 1.48 0 0 0 .23.52.73.73 0 0 0 .35.28 1.25 1.25 0 0 0 .45.08 1.33 1.33 0 0 0 .45-.08.81.81 0 0 0 .36-.28 1.2 1.2 0 0 0 .24-.52 3.15 3.15 0 0 0 .09-.82zm11 7.79a3.59 3.59 0 0 1-2.22 3.42 3.51 3.51 0 0 1-1.36.27 3.63 3.63 0 0 1-1.42-.27 3.38 3.38 0 0 1-1.13-.75 3.59 3.59 0 0 1-.74-1.17 4 4 0 0 1-.26-1.5 4.17 4.17 0 0 1 .26-1.53 3.54 3.54 0 0 1 .74-1.18A3.29 3.29 0 0 1 170 93a3.63 3.63 0 0 1 1.42-.27 3.77 3.77 0 0 1 1.44.27 3.2 3.2 0 0 1 1.13.77 3.41 3.41 0 0 1 .75 1.18 4.38 4.38 0 0 1 .26 1.57zm-2.43 0a3.4 3.4 0 0 0-.09-.85 1.65 1.65 0 0 0-.24-.55.81.81 0 0 0-.36-.28 1.14 1.14 0 0 0-.46-.08 1.12 1.12 0 0 0-.45.08.76.76 0 0 0-.34.28 1.66 1.66 0 0 0-.23.55 4 4 0 0 0-.08.85 3.72 3.72 0 0 0 .08.82 1.48 1.48 0 0 0 .23.52.76.76 0 0 0 .34.28 1.33 1.33 0 0 0 .45.08 1.34 1.34 0 0 0 .46-.08.81.81 0 0 0 .36-.28 1.48 1.48 0 0 0 .24-.52 3.15 3.15 0 0 0 .1-.82z"/>
      </g>
      <g>
        <path class="cls-8" d="M42 7.77v5.62a8.19 8.19 0 0 1-2.36 1.19 8.85 8.85 0 0 1-2.74.4 8.68 8.68 0 0 1-3.19-.55 7 7 0 0 1-2.43-1.53 6.73 6.73 0 0 1-1.55-2.37 8.26 8.26 0 0 1-.54-3 8.53 8.53 0 0 1 .52-3 7 7 0 0 1 1.5-2.37A6.69 6.69 0 0 1 33.58.54 8.57 8.57 0 0 1 36.69 0a9.17 9.17 0 0 1 1.62.13 7.35 7.35 0 0 1 1.38.37 6.38 6.38 0 0 1 1.17.58 6.91 6.91 0 0 1 1 .77l-.56.9A.58.58 0 0 1 41 3a.55.55 0 0 1-.46-.1c-.17-.09-.36-.21-.57-.34a5 5 0 0 0-.77-.4 6.88 6.88 0 0 0-1.07-.32 7 7 0 0 0-1.47-.13 6 6 0 0 0-2.24.4 4.85 4.85 0 0 0-1.71 1.16A5 5 0 0 0 31.6 5.1a7.18 7.18 0 0 0-.38 2.39 7 7 0 0 0 .4 2.47 5 5 0 0 0 1.12 1.85A4.74 4.74 0 0 0 34.51 13a6.47 6.47 0 0 0 2.35.4 6.26 6.26 0 0 0 1.81-.23 7.36 7.36 0 0 0 1.55-.64V9.28h-2.28a.41.41 0 0 1-.31-.11.36.36 0 0 1-.12-.28V7.77zM48.86 4.29a5.3 5.3 0 0 1 2 .38 4.29 4.29 0 0 1 1.56 1.08 4.66 4.66 0 0 1 1 1.68 6.64 6.64 0 0 1 .35 2.2 6.65 6.65 0 0 1-.35 2.21 4.83 4.83 0 0 1-1 1.68 4.24 4.24 0 0 1-1.56 1.06 5.3 5.3 0 0 1-2 .38 5.36 5.36 0 0 1-2.06-.38 4.24 4.24 0 0 1-1.56-1.06 4.85 4.85 0 0 1-1-1.68 6.66 6.66 0 0 1-.34-2.21 6.64 6.64 0 0 1 .34-2.2 4.68 4.68 0 0 1 1-1.68 4.29 4.29 0 0 1 1.56-1.08 5.36 5.36 0 0 1 2.06-.38zm0 9.25a2.68 2.68 0 0 0 2.29-1 4.8 4.8 0 0 0 .75-2.87 4.83 4.83 0 0 0-.75-2.88 2.66 2.66 0 0 0-2.29-1A3.21 3.21 0 0 0 47.5 6a2.56 2.56 0 0 0-1 .77A3.5 3.5 0 0 0 46 8a6.45 6.45 0 0 0-.19 1.65 4.73 4.73 0 0 0 .76 2.87 2.72 2.72 0 0 0 2.29 1.02zM64.67 4.46l-4.22 10.35h-1.63L54.59 4.46h1.49a.57.57 0 0 1 .36.11.58.58 0 0 1 .2.27l2.63 6.66c.08.25.15.5.21.74s.12.47.17.71l.18-.71a7.67 7.67 0 0 1 .22-.74l2.66-6.66a.69.69 0 0 1 .2-.28.57.57 0 0 1 .34-.1zM74.47 13.36a3.69 3.69 0 0 1-.81.71 5 5 0 0 1-1 .5 6 6 0 0 1-1.11.29 7.3 7.3 0 0 1-1.13.1 5.1 5.1 0 0 1-2-.37 4.28 4.28 0 0 1-1.56-1.06 4.8 4.8 0 0 1-1-1.73 6.94 6.94 0 0 1-.37-2.37 6.09 6.09 0 0 1 .33-2 4.66 4.66 0 0 1 1-1.63 4.29 4.29 0 0 1 1.52-1.08 5.07 5.07 0 0 1 2-.4 4.62 4.62 0 0 1 1.66.29 3.72 3.72 0 0 1 1.37.9A4 4 0 0 1 74.3 7a5.46 5.46 0 0 1 .33 2 1.23 1.23 0 0 1-.09.57.4.4 0 0 1-.35.14h-6.92a6.07 6.07 0 0 0 .27 1.71 3.36 3.36 0 0 0 .67 1.21 2.82 2.82 0 0 0 1 .73 3.54 3.54 0 0 0 1.33.24 4.06 4.06 0 0 0 1.18-.16 5.47 5.47 0 0 0 .88-.44 5.85 5.85 0 0 0 .59-.34.85.85 0 0 1 .42-.16.41.41 0 0 1 .35.18zM73 8.51a3.53 3.53 0 0 0-.17-1.16 2.48 2.48 0 0 0-.53-.91 2.19 2.19 0 0 0-.83-.6 2.82 2.82 0 0 0-1.11-.21 2.77 2.77 0 0 0-2.07.77 3.52 3.52 0 0 0-1 2.11zM78.59 6.53a4.65 4.65 0 0 1 1.2-1.66 2.64 2.64 0 0 1 1.75-.6 2.59 2.59 0 0 1 .63.08 1.62 1.62 0 0 1 .54.22l-.13 1.36a.31.31 0 0 1-.31.26 1.64 1.64 0 0 1-.42-.07 3 3 0 0 0-.62-.06 2.42 2.42 0 0 0-.88.15 1.93 1.93 0 0 0-.68.42 3.34 3.34 0 0 0-.55.7 5.88 5.88 0 0 0-.43.94v6.54h-1.83V4.46h1a.59.59 0 0 1 .41.11.68.68 0 0 1 .16.39zM86 6a5.13 5.13 0 0 1 .72-.68 4.62 4.62 0 0 1 .8-.53 3.89 3.89 0 0 1 .9-.34 4.16 4.16 0 0 1 1-.12 3.67 3.67 0 0 1 1.58.25 2.82 2.82 0 0 1 1.09.79 3.59 3.59 0 0 1 .66 1.24 5.45 5.45 0 0 1 .22 1.61v6.59H91.1V8.22a2.76 2.76 0 0 0-.54-1.82 2 2 0 0 0-1.63-.65 3.12 3.12 0 0 0-1.5.38 4.93 4.93 0 0 0-1.3 1.06v7.62H84.3V4.46h1.1a.44.44 0 0 1 .48.38zM95.71 14.81V4.46h1.1a.45.45 0 0 1 .48.38l.13 1.06a5.23 5.23 0 0 1 1.29-1.16 3 3 0 0 1 1.65-.45 2.46 2.46 0 0 1 1.7.59 3.28 3.28 0 0 1 .94 1.57 3.33 3.33 0 0 1 .58-1 3.13 3.13 0 0 1 .79-.67 3.23 3.23 0 0 1 .94-.39 3.76 3.76 0 0 1 1-.13 3.92 3.92 0 0 1 1.46.26 2.81 2.81 0 0 1 1.08.77 3.19 3.19 0 0 1 .68 1.23 5.34 5.34 0 0 1 .24 1.67v6.59h-1.83V8.22a2.83 2.83 0 0 0-.53-1.85 1.94 1.94 0 0 0-1.54-.62 2.41 2.41 0 0 0-.85.15 2.15 2.15 0 0 0-.71.47 2.21 2.21 0 0 0-.49.77 3 3 0 0 0-.18 1.08v6.59h-1.82V8.22a2.87 2.87 0 0 0-.51-1.86 1.76 1.76 0 0 0-1.46-.61 2.33 2.33 0 0 0-1.25.36 4.06 4.06 0 0 0-1 1v7.71zM120.93 13.36a3.28 3.28 0 0 1-.81.71 4.92 4.92 0 0 1-1 .5 6 6 0 0 1-1.11.29 7.31 7.31 0 0 1-1.14.1 5.08 5.08 0 0 1-2-.37 4.24 4.24 0 0 1-1.57-1.06 5 5 0 0 1-1-1.73 7.2 7.2 0 0 1-.36-2.37 6.09 6.09 0 0 1 .33-2 4.8 4.8 0 0 1 1-1.63 4.42 4.42 0 0 1 1.53-1.08 5 5 0 0 1 2-.4 4.58 4.58 0 0 1 1.72.32 3.64 3.64 0 0 1 1.37.9 4 4 0 0 1 .88 1.46 5.46 5.46 0 0 1 .33 2 1.09 1.09 0 0 1-.1.57.38.38 0 0 1-.34.14h-6.92a6.07 6.07 0 0 0 .27 1.71 3.36 3.36 0 0 0 .67 1.21 2.66 2.66 0 0 0 1 .73 3.5 3.5 0 0 0 1.33.24 4.11 4.11 0 0 0 1.18-.16 5.33 5.33 0 0 0 .85-.35 5.13 5.13 0 0 0 .6-.34.86.86 0 0 1 .41-.16.4.4 0 0 1 .35.18zm-1.47-4.85a3.53 3.53 0 0 0-.18-1.16 2.47 2.47 0 0 0-.52-.91 2.36 2.36 0 0 0-.83-.6 2.83 2.83 0 0 0-1.12-.21 2.8 2.8 0 0 0-2.07.77 3.57 3.57 0 0 0-.94 2.11zM125 6a6.54 6.54 0 0 1 .72-.68 4.62 4.62 0 0 1 .8-.53 3.89 3.89 0 0 1 .9-.34 4.22 4.22 0 0 1 1-.12 3.75 3.75 0 0 1 1.5.29 2.86 2.86 0 0 1 1.08.79 3.59 3.59 0 0 1 .66 1.24 5.45 5.45 0 0 1 .34 1.57v6.59h-1.83V8.22a2.76 2.76 0 0 0-.53-1.82 2 2 0 0 0-1.64-.65 3.13 3.13 0 0 0-1.51.38 4.74 4.74 0 0 0-1.29 1.06v7.62h-1.83V4.46h1.09a.44.44 0 0 1 .48.38zM137.77 15a2.51 2.51 0 0 1-1.89-.69 2.75 2.75 0 0 1-.65-2V6H134a.4.4 0 0 1-.28-.1.38.38 0 0 1-.11-.3v-.74l1.7-.22.42-3.2a.47.47 0 0 1 .13-.25.45.45 0 0 1 .28-.1h.93v3.57h3V6h-3v6.2a1.33 1.33 0 0 0 .31 1 1.12 1.12 0 0 0 .82.31 1.51 1.51 0 0 0 .5-.07 2 2 0 0 0 .36-.17l.26-.17a.34.34 0 0 1 .19-.08.31.31 0 0 1 .25.18l.54.87a3.62 3.62 0 0 1-1.14.69 4 4 0 0 1-1.39.24zM42 39.35h-1.51a.63.63 0 0 1-.43-.13.78.78 0 0 1-.25-.34l-1.37-3.54h-6.57l-1.37 3.54a.74.74 0 0 1-.24.33.67.67 0 0 1-.43.14H28.3l5.86-14.65h2zm-4.13-5.44l-2.3-6c-.07-.18-.14-.38-.22-.62s-.14-.48-.21-.75a10.82 10.82 0 0 1-.42 1.46l-2.3 5.95zM52.26 29.4v.68c0 .22-.14.37-.43.43l-1.17.15a3.23 3.23 0 0 1 .34 1.49 3.1 3.1 0 0 1-.29 1.38 3.2 3.2 0 0 1-.8 1.06 3.64 3.64 0 0 1-1.23.67 4.8 4.8 0 0 1-1.55.24 5.09 5.09 0 0 1-1.37-.18 1.69 1.69 0 0 0-.5.44.71.71 0 0 0-.17.46.62.62 0 0 0 .3.56 2 2 0 0 0 .79.27 8.79 8.79 0 0 0 1.12.1l1.29.07a10.41 10.41 0 0 1 1.28.16 3.44 3.44 0 0 1 1.12.37 1.92 1.92 0 0 1 1.1 1.87 2.68 2.68 0 0 1-.33 1.28 3.35 3.35 0 0 1-1 1.11 4.79 4.79 0 0 1-1.53.78 6.74 6.74 0 0 1-2 .29 7.83 7.83 0 0 1-2-.22 4.38 4.38 0 0 1-1.41-.61 2.6 2.6 0 0 1-.85-.87 2.16 2.16 0 0 1-.28-1 1.88 1.88 0 0 1 .48-1.3 3.47 3.47 0 0 1 1.32-.85 1.84 1.84 0 0 1-.73-.54 1.47 1.47 0 0 1-.27-.93 1.54 1.54 0 0 1 .08-.46 2.21 2.21 0 0 1 .25-.48 3 3 0 0 1 .42-.46 2.69 2.69 0 0 1 .57-.38 3.13 3.13 0 0 1-1.2-1.14 3.17 3.17 0 0 1-.43-1.65 3.09 3.09 0 0 1 .3-1.37 3 3 0 0 1 .81-1.06 3.77 3.77 0 0 1 1.24-.66 5 5 0 0 1 1.58-.24 5.06 5.06 0 0 1 1.26.15 4 4 0 0 1 1.06.43zm-1.85 10.51a.89.89 0 0 0-.21-.61 1.49 1.49 0 0 0-.58-.37 3.72 3.72 0 0 0-.84-.19c-.32 0-.66-.06-1-.09l-1.09-.06c-.37 0-.72-.05-1.06-.1a2.9 2.9 0 0 0-.94.67 1.39 1.39 0 0 0-.36 1 1.28 1.28 0 0 0 .18.65 1.59 1.59 0 0 0 .54.52 3.35 3.35 0 0 0 .93.34 5.63 5.63 0 0 0 1.31.13 5.9 5.9 0 0 0 1.32-.13 3.47 3.47 0 0 0 1-.38 1.93 1.93 0 0 0 .62-.58 1.39 1.39 0 0 0 .18-.8zm-3.28-5.62a2.86 2.86 0 0 0 1-.15 2.17 2.17 0 0 0 .71-.43 1.93 1.93 0 0 0 .43-.66 2.57 2.57 0 0 0 .14-.85 2 2 0 0 0-.58-1.51 2.79 2.79 0 0 0-3.35 0 2 2 0 0 0-.58 1.51 2.34 2.34 0 0 0 .15.85 1.93 1.93 0 0 0 .43.66 2.17 2.17 0 0 0 .71.43 2.86 2.86 0 0 0 .94.15zM62.39 37.9a3.28 3.28 0 0 1-.81.71 4.42 4.42 0 0 1-1 .49 7 7 0 0 1-1.11.3 7.3 7.3 0 0 1-1.14.09 5.27 5.27 0 0 1-2-.36 4.36 4.36 0 0 1-1.57-1.06 5 5 0 0 1-1-1.74A7.11 7.11 0 0 1 53.4 34a6.07 6.07 0 0 1 .33-2 4.8 4.8 0 0 1 1-1.63 4.59 4.59 0 0 1 1.53-1.09 5 5 0 0 1 2-.39 4.58 4.58 0 0 1 1.72.31 3.89 3.89 0 0 1 1.37.9 4.12 4.12 0 0 1 .91 1.45 5.54 5.54 0 0 1 .33 2 1 1 0 0 1-.1.57.36.36 0 0 1-.34.15H55.2a6 6 0 0 0 .27 1.7 3.41 3.41 0 0 0 .67 1.22 2.64 2.64 0 0 0 1 .72 3.5 3.5 0 0 0 1.33.24 3.78 3.78 0 0 0 1.18-.16 5.36 5.36 0 0 0 .85-.34c.24-.12.44-.24.6-.34a.77.77 0 0 1 .41-.16.41.41 0 0 1 .35.17zM60.92 33a3.57 3.57 0 0 0-.18-1.16 2.64 2.64 0 0 0-.52-.91 2.46 2.46 0 0 0-.83-.59 2.83 2.83 0 0 0-1.12-.21 2.79 2.79 0 0 0-2.07.76 3.6 3.6 0 0 0-.94 2.11zM66.5 30.5a6.65 6.65 0 0 1 .72-.69 4.57 4.57 0 0 1 .8-.52 3.89 3.89 0 0 1 .9-.34 4.22 4.22 0 0 1 1-.12 3.75 3.75 0 0 1 1.5.28 2.88 2.88 0 0 1 1.08.8 3.51 3.51 0 0 1 .66 1.24 5.4 5.4 0 0 1 .22 1.61v6.59h-1.8v-6.59a2.77 2.77 0 0 0-.53-1.83 2 2 0 0 0-1.63-.65 3.06 3.06 0 0 0-1.51.39 4.88 4.88 0 0 0-1.29 1v7.63h-1.83V29h1.09a.45.45 0 0 1 .48.38zM83.4 30.83a.73.73 0 0 1-.16.18.39.39 0 0 1-.23.06.56.56 0 0 1-.33-.13l-.46-.28a3.44 3.44 0 0 0-.66-.28 3.08 3.08 0 0 0-1-.13 3.19 3.19 0 0 0-1.35.27 2.54 2.54 0 0 0-1 .78 3.67 3.67 0 0 0-.6 1.24 6.33 6.33 0 0 0-.2 1.63 5.73 5.73 0 0 0 .22 1.67 3.33 3.33 0 0 0 .61 1.22 2.49 2.49 0 0 0 1 .76 2.83 2.83 0 0 0 1.25.26 3.06 3.06 0 0 0 1.09-.16 2.76 2.76 0 0 0 .71-.35c.19-.13.35-.25.47-.35a.57.57 0 0 1 .38-.16.4.4 0 0 1 .34.17l.52.67a3.44 3.44 0 0 1-.77.71 4.63 4.63 0 0 1-.93.5 5.07 5.07 0 0 1-1 .29 6.83 6.83 0 0 1-1.11.09 4.62 4.62 0 0 1-1.8-.35 4.16 4.16 0 0 1-1.45-1 4.88 4.88 0 0 1-1-1.67 6.87 6.87 0 0 1-.35-2.26 7 7 0 0 1 .34-2.21 5 5 0 0 1 .94-1.69 4.17 4.17 0 0 1 1.53-1.11 5.55 5.55 0 0 1 4-.05 4.73 4.73 0 0 1 1.47 1zM88.27 25.74a1.22 1.22 0 0 1-.11.5 1.46 1.46 0 0 1-.29.41 1.2 1.2 0 0 1-.41.28A1.25 1.25 0 0 1 87 27a1.21 1.21 0 0 1-.5-.1 1.38 1.38 0 0 1-.4-.28 1.42 1.42 0 0 1-.28-.41 1.39 1.39 0 0 1-.1-.5 1.44 1.44 0 0 1 .1-.5 1.34 1.34 0 0 1 .28-.42 1.28 1.28 0 0 1 .9-.39 1.26 1.26 0 0 1 .51.11 1.07 1.07 0 0 1 .41.28 1.37 1.37 0 0 1 .29.42 1.25 1.25 0 0 1 .06.53zM87.88 29v10.35h-1.82V29zM99.27 37.9a3.69 3.69 0 0 1-.81.71 4.5 4.5 0 0 1-1 .49 6.46 6.46 0 0 1-1.11.3 7.27 7.27 0 0 1-1.13.09 5.29 5.29 0 0 1-2-.36 4.41 4.41 0 0 1-1.56-1.06 5 5 0 0 1-1-1.74 7.1 7.1 0 0 1-.39-2.33 6.07 6.07 0 0 1 .33-2 4.82 4.82 0 0 1 1-1.63 4.55 4.55 0 0 1 1.52-1.09 5.07 5.07 0 0 1 2-.39 4.61 4.61 0 0 1 1.72.31 3.89 3.89 0 0 1 1.37.9 4.12 4.12 0 0 1 .91 1.45 5.77 5.77 0 0 1 .32 2 1.17 1.17 0 0 1-.09.57.38.38 0 0 1-.35.15h-6.93a6 6 0 0 0 .27 1.7A3.57 3.57 0 0 0 93 37.1a2.79 2.79 0 0 0 1 .72 3.54 3.54 0 0 0 1.33.24 3.74 3.74 0 0 0 1.18-.16 5.5 5.5 0 0 0 .86-.34c.24-.12.44-.24.6-.34a.74.74 0 0 1 .41-.16.41.41 0 0 1 .35.17zM97.8 33a3.57 3.57 0 0 0-.18-1.16 2.64 2.64 0 0 0-.52-.84 2.41 2.41 0 0 0-.84-.59 3.14 3.14 0 0 0-3.18.55 3.6 3.6 0 0 0-1 2.11zM107.69 30.7a.4.4 0 0 1-.38.23.67.67 0 0 1-.34-.12l-.48-.25a5 5 0 0 0-.67-.25 3.11 3.11 0 0 0-.92-.12 2.73 2.73 0 0 0-.83.12 1.91 1.91 0 0 0-.62.32 1.36 1.36 0 0 0-.4.47 1.22 1.22 0 0 0-.14.59 1 1 0 0 0 .23.67 2 2 0 0 0 .61.46 5.31 5.31 0 0 0 .86.34l1 .32c.34.11.67.23 1 .37a3.83 3.83 0 0 1 .86.51 2.61 2.61 0 0 1 .61.75 2.38 2.38 0 0 1 .23 1.07 3.34 3.34 0 0 1-.31 1.32 2.84 2.84 0 0 1-.76 1.06 3.72 3.72 0 0 1-1.22.7 5.71 5.71 0 0 1-3.64-.1 5 5 0 0 1-1.5-.9l.43-.7a.55.55 0 0 1 .2-.2.49.49 0 0 1 .28-.07.62.62 0 0 1 .39.14l.5.32a3.67 3.67 0 0 0 .71.31 3.13 3.13 0 0 0 1 .15 2.84 2.84 0 0 0 .93-.14 1.89 1.89 0 0 0 .67-.38 1.39 1.39 0 0 0 .39-.54 1.57 1.57 0 0 0 .13-.65 1.08 1.08 0 0 0-.23-.71 1.86 1.86 0 0 0-.61-.48 4.53 4.53 0 0 0-.86-.35l-1-.31c-.33-.11-.66-.24-1-.38a3.52 3.52 0 0 1-.86-.52 2.35 2.35 0 0 1-.61-.78 2.59 2.59 0 0 1-.23-1.13 2.63 2.63 0 0 1 .25-1.14 2.8 2.8 0 0 1 .71-1 3.51 3.51 0 0 1 1.16-.65 4.44 4.44 0 0 1 1.56-.25 5.11 5.11 0 0 1 1.84.32 4.3 4.3 0 0 1 1.4.89z"/>
      </g>
      <path class="cls-9" d="M312.03 232.74l45.46 45.46h108.43M152.39 67.46l-24.9-16.56H28.24M135.64 308.9l-45.45 45.46H0M90.48 121.23l-19.82-19.82H1.39M191.42 53.4V33.81h120.61"/>
    </g>
  </g>
</svg>
