<?xml version="1.0" encoding="utf-8"?>
<!-- Generator: Adobe Illustrator 23.0.3, SVG Export Plug-In . SVG Version: 6.00 Build 0)  -->
<svg version="1.1" id="Layer_1" xmlns="http://www.w3.org/2000/svg" xmlns:xlink="http://www.w3.org/1999/xlink" x="0px" y="0px"
	 viewBox="0 0 527.9 534.7" style="enable-background:new 0 0 527.9 534.7;" xml:space="preserve">
<style type="text/css">
	.st0{opacity:0.5;}
	.st1{fill:#BF331F;}
	.st2{fill:#FFFFFF;}
	.st3{fill:#F0D6D3;}
	.st4{fill:#E5AFA9;}
	.st5{fill:#CC6155;}
	.st6{fill:#BF3B2A;}
	.st7{fill:#F59589;}
</style>
<g>
	<g class="st0">
		<rect x="1246" y="314.8" class="st1" width="66.6" height="21.4"/>
		<rect x="1131.7" y="293.7" class="st1" width="69.7" height="42.2"/>
		<rect x="1018.8" y="226.1" class="st1" width="69.7" height="109.8"/>
		<rect x="907.5" y="129.6" class="st1" width="66.6" height="206.3"/>
		<rect x="793.2" y="45.9" class="st1" width="69.7" height="290"/>
	</g>
	<g>
		<path class="st2" d="M1277.1,287.2c-0.5,0.2-1.1,0.3-1.7,0.3c-0.7,0-1.2-0.1-1.7-0.3c-0.5-0.2-0.9-0.4-1.2-0.7
			c-0.3-0.3-0.6-0.7-0.8-1.2c-0.2-0.5-0.3-1-0.4-1.5c-0.1-0.6-0.1-1.2-0.1-1.9v-9.8h2.2v9.8c0,0.5,0,0.9,0,1.2c0,0.3,0.1,0.7,0.2,1
			c0.1,0.4,0.2,0.6,0.4,0.9c0.1,0.2,0.4,0.4,0.6,0.5c0.3,0.1,0.6,0.2,1,0.2s0.7-0.1,1-0.2s0.5-0.3,0.6-0.5c0.2-0.2,0.3-0.5,0.4-0.9
			s0.1-0.7,0.2-1c0-0.3,0-0.7,0-1.2v-9.8h2.2v9.8c0,0.7,0,1.3-0.1,1.9s-0.2,1.1-0.4,1.5c-0.2,0.5-0.5,0.9-0.8,1.2
			C1278,286.7,1277.6,287,1277.1,287.2z"/>
		<path class="st2" d="M1281.8,287.3v-15.2h1.6l3.8,9.4v-9.4h2.2v15.2h-1.5l-3.9-10.1v10.1H1281.8z"/>
		<path class="st2" d="M1247,308.1l3.3-15.2h2.2l3.3,15.2h-2.2l-0.8-3.8h-2.7l-0.8,3.8H1247z M1250.2,302.7h2.2l-1.1-6.5
			L1250.2,302.7z"/>
		<path class="st2" d="M1261,308.3c-0.7,0-1.3-0.1-1.8-0.3c-0.5-0.2-0.9-0.5-1.2-0.8c-0.3-0.3-0.6-0.8-0.8-1.3
			c-0.2-0.5-0.3-1.1-0.4-1.7s-0.1-1.3-0.1-2v-3.8c0-3.7,1.5-5.6,4.4-5.6c0.7,0,1.3,0.1,1.8,0.3c0.5,0.2,0.9,0.5,1.3,0.9
			c0.3,0.4,0.6,0.9,0.7,1.4c0.2,0.5,0.3,1.2,0.3,1.9c0,0.1,0,0.3,0,0.5h-2.2v-0.5c0-0.4,0-0.7-0.1-0.9c0-0.3-0.1-0.5-0.2-0.8
			c-0.1-0.2-0.2-0.5-0.3-0.6c-0.1-0.2-0.3-0.3-0.6-0.4c-0.2-0.1-0.5-0.1-0.8-0.1c-0.4,0-0.8,0.1-1.1,0.2c-0.3,0.2-0.5,0.4-0.7,0.7
			c-0.2,0.3-0.3,0.6-0.3,1c-0.1,0.4-0.1,0.8-0.1,1.3v4.9c0,0.4,0,0.7,0,1s0.1,0.6,0.1,0.9c0.1,0.3,0.1,0.6,0.2,0.8
			c0.1,0.2,0.2,0.4,0.4,0.6c0.2,0.2,0.4,0.3,0.6,0.4s0.5,0.1,0.8,0.1c0.4,0,0.7-0.1,0.9-0.2c0.3-0.1,0.5-0.3,0.6-0.5
			c0.2-0.2,0.3-0.5,0.4-0.9c0.1-0.3,0.2-0.7,0.2-1s0-0.7,0-1.2v-0.5h-2.2v-1.6h4.3v7.6h-1.6l-0.5-1.6
			C1262.7,307.7,1262,308.3,1261,308.3z"/>
		<path class="st2" d="M1267,308.1v-15.2h6v1.6h-3.8v4.9h2.7v1.6h-2.7v5.4h3.8v1.6h-6V308.1z"/>
		<path class="st2" d="M1274.3,308.1v-15.2h1.6l3.8,9.4v-9.4h2.2v15.2h-1.5l-3.9-10.1v10.1H1274.3z"/>
		<path class="st2" d="M1288,308.3c-0.6,0-1.2-0.1-1.7-0.3c-0.5-0.2-0.9-0.4-1.2-0.7c-0.3-0.3-0.6-0.7-0.8-1.2
			c-0.2-0.5-0.3-1-0.4-1.5s-0.1-1.2-0.1-1.8v-4.3c0-0.7,0-1.3,0.1-1.8s0.2-1.1,0.4-1.5c0.2-0.5,0.4-0.9,0.8-1.2
			c0.3-0.3,0.7-0.6,1.2-0.7c0.5-0.2,1-0.3,1.7-0.3s1.3,0.1,1.8,0.3c0.5,0.2,0.9,0.5,1.2,0.9c0.3,0.4,0.5,0.9,0.7,1.4
			s0.2,1.2,0.3,1.9c0,0.1,0,0.3,0,0.5h-2.2v-0.5c0-0.3,0-0.6,0-0.8c0-0.2,0-0.4-0.1-0.7c0-0.2-0.1-0.4-0.2-0.6
			c-0.1-0.1-0.2-0.3-0.3-0.4c-0.1-0.1-0.3-0.2-0.5-0.3c-0.2-0.1-0.4-0.1-0.7-0.1c-0.4,0-0.7,0.1-0.9,0.2c-0.3,0.1-0.4,0.3-0.6,0.4
			c-0.1,0.2-0.3,0.4-0.3,0.7c-0.1,0.3-0.1,0.6-0.1,0.9s0,0.6,0,1.1v5.4c0,0.4,0,0.7,0,1s0.1,0.6,0.2,0.9s0.2,0.5,0.4,0.7
			c0.1,0.2,0.3,0.4,0.6,0.5c0.2,0.1,0.5,0.2,0.8,0.2s0.6-0.1,0.8-0.2c0.2-0.1,0.4-0.3,0.5-0.5s0.2-0.4,0.3-0.7
			c0.1-0.3,0.1-0.6,0.1-0.9s0-0.6,0-1v-0.5h2.2v0.5c0,0.8-0.1,1.5-0.2,2.1s-0.4,1.1-0.7,1.6c-0.3,0.5-0.7,0.8-1.3,1
			C1289.4,308.1,1288.8,308.3,1288,308.3z"/>
		<path class="st2" d="M1293.6,308.1v-15.2h2.2v15.2H1293.6z"/>
		<path class="st2" d="M1298.1,308.1v-15.2h6v1.6h-3.8v4.9h2.7v1.6h-2.7v5.4h3.8v1.6h-6V308.1z"/>
		<path class="st2" d="M1309.4,308.3c-1.4,0-2.4-0.4-3.1-1.2c-0.7-0.8-1.1-1.9-1.2-3.3l2.2-0.5c0.1,2.2,0.8,3.3,2.2,3.3
			c1.1,0,1.6-0.5,1.6-1.6c0-0.3,0-0.6-0.1-0.9s-0.2-0.5-0.4-0.8c-0.2-0.2-0.3-0.4-0.5-0.6c-0.1-0.1-0.3-0.3-0.6-0.5l-2.7-2.2
			c-0.5-0.4-0.9-0.9-1.2-1.5c-0.3-0.6-0.4-1.3-0.4-2.1c0-1.1,0.3-2,1-2.7s1.6-1,2.8-1c1.2,0,2.2,0.3,2.9,0.9
			c0.7,0.6,1.2,1.5,1.3,2.6c0,0.1,0,0.3,0.1,0.5l-2.2,0.5c0-0.1,0-0.2,0-0.4c-0.1-0.7-0.3-1.2-0.6-1.7c-0.3-0.4-0.8-0.6-1.5-0.6
			c-0.5,0-0.9,0.1-1.2,0.4c-0.3,0.3-0.4,0.7-0.4,1.2c0,0.9,0.4,1.6,1.1,2.1l2.7,2.2c1.4,1.2,2.2,2.6,2.2,4.2c0,1.1-0.3,2-1,2.6
			C1311.4,307.9,1310.5,308.3,1309.4,308.3z"/>
	</g>
	<g>
		<path class="st2" d="M803.3,35.2V20h1.6l3.8,9.4V20h2.2v15.2h-1.5l-3.9-10.1v10.1H803.3z"/>
		<path class="st2" d="M813.1,35.2V20h1.6l3.8,9.4V20h2.2v15.2h-1.5l-3.9-10.1v10.1H813.1z"/>
		<path class="st2" d="M826.9,35.4c-0.7,0-1.3-0.1-1.8-0.3s-0.9-0.5-1.2-0.8s-0.6-0.8-0.8-1.3s-0.3-1.1-0.4-1.7
			c-0.1-0.6-0.1-1.3-0.1-2v-3.8c0-3.7,1.5-5.6,4.4-5.6c0.7,0,1.3,0.1,1.8,0.3c0.5,0.2,0.9,0.5,1.3,0.9c0.3,0.4,0.6,0.9,0.7,1.4
			c0.2,0.5,0.3,1.2,0.3,1.9c0,0.1,0,0.3,0,0.5H829v-0.5c0-0.4,0-0.7-0.1-0.9c0-0.3-0.1-0.5-0.2-0.8c-0.1-0.2-0.2-0.5-0.3-0.6
			c-0.1-0.2-0.3-0.3-0.6-0.4c-0.2-0.1-0.5-0.1-0.8-0.1c-0.4,0-0.8,0.1-1.1,0.2c-0.3,0.2-0.5,0.4-0.7,0.7c-0.2,0.3-0.3,0.6-0.3,1
			c-0.1,0.4-0.1,0.8-0.1,1.3v4.9c0,0.4,0,0.7,0,1s0.1,0.6,0.1,0.9c0.1,0.3,0.1,0.6,0.2,0.8c0.1,0.2,0.2,0.4,0.4,0.6
			c0.2,0.2,0.4,0.3,0.6,0.4c0.2,0.1,0.5,0.1,0.8,0.1c0.4,0,0.7-0.1,0.9-0.2c0.3-0.1,0.5-0.3,0.6-0.5c0.2-0.2,0.3-0.5,0.4-0.9
			c0.1-0.3,0.2-0.7,0.2-1s0-0.7,0-1.2v-0.5h-2.2v-1.6h4.3v7.6h-1.6l-0.5-1.6C828.7,34.8,828,35.4,826.9,35.4z"/>
		<path class="st2" d="M837,35.4c-0.8,0-1.4-0.1-2-0.3c-0.5-0.2-1-0.6-1.3-1s-0.6-1-0.7-1.6c-0.1-0.6-0.2-1.3-0.2-2.1v-5.5
			c0-0.8,0.1-1.5,0.2-2.1c0.1-0.6,0.4-1.1,0.7-1.5s0.8-0.8,1.3-1s1.2-0.3,2-0.3c1.5,0,2.5,0.4,3.2,1.3c0.7,0.8,1,2.1,1,3.7v5.5
			c0,0.8-0.1,1.5-0.2,2.1c-0.2,0.6-0.4,1.1-0.7,1.6c-0.3,0.4-0.8,0.8-1.3,1C838.4,35.3,837.7,35.4,837,35.4z M835.4,32.9
			c0.3,0.5,0.8,0.7,1.6,0.7s1.3-0.2,1.6-0.7s0.4-1.1,0.4-2v-6.6c0-0.9-0.1-1.5-0.4-2c-0.3-0.4-0.8-0.7-1.6-0.7s-1.3,0.2-1.6,0.7
			c-0.3,0.4-0.4,1.1-0.4,2v6.6C834.9,31.8,835.1,32.4,835.4,32.9z"/>
		<path class="st2" d="M845.8,35.4c-0.9,0-1.6-0.3-2.1-0.8s-0.9-1.2-1.1-2.1l1.6-0.5c0.4,1.1,0.9,1.6,1.6,1.6c0.3,0,0.6-0.1,0.8-0.3
			s0.3-0.5,0.3-0.8c0-0.5-0.2-0.9-0.5-1.3l-2.2-1.6c-0.2-0.2-0.4-0.3-0.6-0.5c-0.2-0.1-0.3-0.3-0.5-0.5s-0.3-0.4-0.4-0.7
			c-0.1-0.3-0.1-0.5-0.1-0.8c0-0.9,0.3-1.6,0.9-2.1c0.6-0.5,1.4-0.7,2.4-0.7c0.5,0,0.9,0.1,1.3,0.2c0.4,0.2,0.7,0.4,1,0.6
			c0.3,0.3,0.5,0.6,0.6,0.9c0.2,0.3,0.3,0.7,0.4,1.1l-1.6,0.5c-0.1-0.2-0.2-0.4-0.2-0.6c-0.1-0.2-0.2-0.3-0.3-0.5s-0.3-0.3-0.5-0.4
			S846.2,26,846,26c-0.3,0-0.6,0.1-0.8,0.3c-0.2,0.2-0.3,0.5-0.3,0.8s0.2,0.6,0.5,0.9l2.2,1.6c0.2,0.2,0.5,0.4,0.6,0.6
			c0.2,0.2,0.3,0.4,0.5,0.6s0.3,0.5,0.4,0.8c0.1,0.3,0.1,0.6,0.1,0.9c0,0.9-0.3,1.6-0.9,2.1C847.6,35.1,846.8,35.4,845.8,35.4z"/>
	</g>
	<g>
		<path class="st2" d="M921.4,123.7v-15.2h2.2v15.2H921.4z"/>
		<path class="st2" d="M925.9,123.7v-15.2h1.6l3.8,9.4v-9.4h2.2v15.2H932l-3.9-10.1v10.1H925.9z"/>
		<path class="st2" d="M939.7,123.8c-0.7,0-1.3-0.1-1.8-0.3c-0.5-0.2-0.9-0.5-1.2-0.8s-0.6-0.8-0.8-1.3s-0.3-1.1-0.4-1.7
			s-0.1-1.3-0.1-2v-3.8c0-3.7,1.5-5.6,4.4-5.6c0.7,0,1.3,0.1,1.8,0.3c0.5,0.2,0.9,0.5,1.3,0.9c0.3,0.4,0.6,0.9,0.7,1.4
			c0.2,0.5,0.3,1.2,0.3,1.9c0,0.1,0,0.3,0,0.5h-2.2v-0.5c0-0.4,0-0.7-0.1-0.9c0-0.3-0.1-0.5-0.2-0.8c-0.1-0.2-0.2-0.5-0.3-0.6
			c-0.1-0.2-0.3-0.3-0.6-0.4c-0.2-0.1-0.5-0.1-0.8-0.1c-0.4,0-0.8,0.1-1.1,0.2c-0.3,0.2-0.5,0.4-0.7,0.7c-0.2,0.3-0.3,0.6-0.3,1
			c-0.1,0.4-0.1,0.8-0.1,1.3v4.9c0,0.4,0,0.7,0,1s0.1,0.6,0.1,0.9c0.1,0.3,0.1,0.6,0.2,0.8c0.1,0.2,0.2,0.4,0.4,0.6s0.4,0.3,0.6,0.4
			c0.2,0.1,0.5,0.1,0.8,0.1c0.4,0,0.7-0.1,0.9-0.2c0.3-0.1,0.5-0.3,0.6-0.5c0.2-0.2,0.3-0.5,0.4-0.9c0.1-0.3,0.2-0.7,0.2-1
			s0-0.7,0-1.2v-0.5h-2.2V116h4.3v7.6h-1.6l-0.5-1.6C941.5,123.2,940.8,123.8,939.7,123.8z"/>
		<path class="st2" d="M949.8,123.8c-0.8,0-1.4-0.1-2-0.3c-0.5-0.2-1-0.6-1.3-1s-0.6-1-0.7-1.6c-0.1-0.6-0.2-1.3-0.2-2.1v-5.5
			c0-0.8,0.1-1.5,0.2-2.1c0.1-0.6,0.4-1.1,0.7-1.5s0.8-0.8,1.3-1s1.2-0.3,2-0.3c1.5,0,2.5,0.4,3.2,1.3s1,2.1,1,3.7v5.5
			c0,0.8-0.1,1.5-0.2,2.1c-0.2,0.6-0.4,1.1-0.7,1.6c-0.3,0.4-0.8,0.8-1.3,1C951.2,123.7,950.5,123.8,949.8,123.8z M948.2,121.4
			c0.3,0.5,0.8,0.7,1.6,0.7s1.3-0.2,1.6-0.7s0.4-1.1,0.4-2v-6.6c0-0.9-0.1-1.5-0.4-2c-0.3-0.4-0.8-0.7-1.6-0.7s-1.3,0.2-1.6,0.7
			c-0.3,0.4-0.4,1.1-0.4,2v6.6C947.7,120.2,947.9,120.9,948.2,121.4z"/>
		<path class="st2" d="M958.6,123.8c-0.9,0-1.6-0.3-2.1-0.8s-0.9-1.2-1.1-2.1l1.6-0.5c0.4,1.1,0.9,1.6,1.6,1.6
			c0.3,0,0.6-0.1,0.8-0.3c0.2-0.2,0.3-0.5,0.3-0.8c0-0.5-0.2-0.9-0.5-1.3L957,118c-0.2-0.2-0.4-0.3-0.6-0.5
			c-0.2-0.1-0.3-0.3-0.5-0.5s-0.3-0.4-0.4-0.7c-0.1-0.3-0.1-0.5-0.1-0.8c0-0.9,0.3-1.6,0.9-2.1c0.6-0.5,1.4-0.7,2.4-0.7
			c0.5,0,0.9,0.1,1.3,0.2c0.4,0.2,0.7,0.4,1,0.6c0.3,0.3,0.5,0.6,0.6,0.9c0.2,0.3,0.3,0.7,0.4,1.1l-1.6,0.5
			c-0.1-0.2-0.2-0.4-0.2-0.6c-0.1-0.2-0.2-0.3-0.3-0.5s-0.3-0.3-0.5-0.4s-0.4-0.1-0.6-0.1c-0.3,0-0.6,0.1-0.8,0.3
			c-0.2,0.2-0.3,0.5-0.3,0.8s0.2,0.6,0.5,0.9l2.2,1.6c0.2,0.2,0.5,0.4,0.6,0.6c0.2,0.2,0.3,0.4,0.5,0.6s0.3,0.5,0.4,0.8
			c0.1,0.3,0.1,0.6,0.1,0.9c0,0.9-0.3,1.6-0.9,2.1C960.4,123.6,959.6,123.8,958.6,123.8z"/>
	</g>
	<g>
		<path class="st2" d="M1150.5,284.6c-0.8,0-1.4-0.1-2-0.3c-0.5-0.2-1-0.6-1.3-1s-0.6-1-0.7-1.6s-0.2-1.3-0.2-2.1V274
			c0-0.8,0.1-1.5,0.2-2.1s0.4-1.1,0.7-1.5c0.3-0.4,0.8-0.8,1.3-1s1.2-0.3,2-0.3c1.5,0,2.5,0.4,3.2,1.3s1,2.1,1,3.7v5.5
			c0,0.8-0.1,1.5-0.2,2.1c-0.2,0.6-0.4,1.1-0.7,1.6c-0.3,0.4-0.8,0.8-1.3,1C1151.9,284.4,1151.2,284.6,1150.5,284.6z M1148.9,282.1
			c0.3,0.5,0.8,0.7,1.6,0.7c0.8,0,1.3-0.2,1.6-0.7c0.3-0.5,0.4-1.1,0.4-2v-6.6c0-0.9-0.1-1.5-0.4-2c-0.3-0.4-0.8-0.7-1.6-0.7
			c-0.8,0-1.3,0.2-1.6,0.7c-0.3,0.4-0.4,1.1-0.4,2v6.6C1148.4,281,1148.6,281.6,1148.9,282.1z"/>
		<path class="st2" d="M1158.2,284.4v-13.3h-2.7v-1.9h7.6v1.9h-2.7v13.3H1158.2z"/>
		<path class="st2" d="M1164.1,284.4v-15.2h2.2v6.5h3.8v-6.5h2.2v15.2h-2.2v-7.1h-3.8v7.1H1164.1z"/>
		<path class="st2" d="M1174.4,284.4v-15.2h6v1.6h-3.8v4.9h2.7v1.6h-2.7v5.4h3.8v1.6h-6V284.4z"/>
		<path class="st2" d="M1181.7,284.4v-15.2h2.7c1.6,0,2.8,0.3,3.7,0.9c0.8,0.6,1.2,1.7,1.2,3.1c0,0.9-0.2,1.7-0.5,2.3
			c-0.3,0.6-0.8,1-1.4,1.3l2.4,7.6h-2.2l-2.2-7.1h-1.6v7.1L1181.7,284.4L1181.7,284.4z M1183.9,275.7h0.5c0.9,0,1.6-0.2,2-0.6
			c0.5-0.4,0.7-1,0.7-1.9s-0.2-1.5-0.7-1.9s-1.1-0.6-2-0.6h-0.5V275.7z"/>
	</g>
	<g>
		<g>
			<path class="st2" d="M1013.8,201.7c-0.7,0-1.3-0.1-1.8-0.3s-0.9-0.5-1.2-0.8s-0.6-0.8-0.8-1.3s-0.3-1.1-0.4-1.7
				c-0.1-0.6-0.1-1.3-0.1-2v-3.8c0-3.7,1.5-5.6,4.4-5.6c0.7,0,1.3,0.1,1.8,0.3s0.9,0.5,1.3,0.9c0.3,0.4,0.6,0.9,0.7,1.4
				c0.2,0.5,0.3,1.2,0.3,1.9c0,0.1,0,0.3,0,0.5h-2.2v-0.5c0-0.4,0-0.7-0.1-0.9c0-0.3-0.1-0.5-0.2-0.8c-0.1-0.2-0.2-0.5-0.3-0.6
				c-0.1-0.2-0.3-0.3-0.6-0.4c-0.2-0.1-0.5-0.1-0.8-0.1c-0.4,0-0.8,0.1-1.1,0.2c-0.3,0.2-0.5,0.4-0.7,0.7s-0.3,0.6-0.3,1
				c-0.1,0.4-0.1,0.8-0.1,1.3v4.9c0,0.4,0,0.7,0,1s0.1,0.6,0.1,0.9c0.1,0.3,0.1,0.6,0.2,0.8c0.1,0.2,0.2,0.4,0.4,0.6
				c0.2,0.2,0.4,0.3,0.6,0.4c0.2,0.1,0.5,0.1,0.8,0.1c0.4,0,0.7-0.1,0.9-0.2c0.3-0.1,0.5-0.3,0.6-0.5c0.2-0.2,0.3-0.5,0.4-0.9
				s0.2-0.7,0.2-1s0-0.7,0-1.2v-0.5h-2.2v-1.6h4.3v7.6h-1.6l-0.5-1.6C1015.6,201.1,1014.8,201.7,1013.8,201.7z"/>
			<path class="st2" d="M1023.8,201.7c-0.8,0-1.4-0.1-2-0.3c-0.5-0.2-1-0.6-1.3-1s-0.6-1-0.7-1.6c-0.1-0.6-0.2-1.3-0.2-2.1v-5.5
				c0-0.8,0.1-1.5,0.2-2.1c0.1-0.6,0.4-1.1,0.7-1.5s0.8-0.8,1.3-1s1.2-0.3,2-0.3c1.5,0,2.5,0.4,3.2,1.3s1,2.1,1,3.7v5.5
				c0,0.8-0.1,1.5-0.2,2.1c-0.2,0.6-0.4,1.1-0.7,1.6c-0.3,0.4-0.8,0.8-1.3,1C1025.2,201.6,1024.6,201.7,1023.8,201.7z M1022.3,199.2
				c0.3,0.5,0.8,0.7,1.6,0.7s1.3-0.2,1.6-0.7s0.4-1.1,0.4-2v-6.6c0-0.9-0.1-1.5-0.4-2c-0.3-0.4-0.8-0.7-1.6-0.7s-1.3,0.2-1.6,0.7
				c-0.3,0.4-0.4,1.1-0.4,2v6.6C1021.8,198.1,1022,198.8,1022.3,199.2z"/>
			<path class="st2" d="M1032.2,201.5l-3.3-15.2h2.2l1.6,8.1l0.6,3.8l0.6-3.8l1.6-8.1h2.2l-3.3,15.2H1032.2z"/>
			<path class="st2" d="M1038.8,201.5v-15.2h6v1.6h-3.8v4.9h2.7v1.6h-2.7v5.4h3.8v1.6L1038.8,201.5L1038.8,201.5z"/>
			<path class="st2" d="M1046.1,201.5v-15.2h2.7c1.6,0,2.8,0.3,3.7,0.9c0.8,0.6,1.2,1.7,1.2,3.1c0,0.9-0.2,1.7-0.5,2.3
				s-0.8,1-1.4,1.3l2.4,7.6h-2.2l-2.2-7.1h-1.6v7.1L1046.1,201.5L1046.1,201.5z M1048.3,192.8h0.5c0.9,0,1.6-0.2,2-0.6
				c0.5-0.4,0.7-1,0.7-1.9s-0.2-1.5-0.7-1.9s-1.1-0.6-2-0.6h-0.5V192.8z"/>
			<path class="st2" d="M1055.5,201.5v-15.2h1.6l3.8,9.4v-9.4h2.2v15.2h-1.5l-3.9-10.1v10.1H1055.5z"/>
			<path class="st2" d="M1065.3,201.5v-15.2h3l2.2,11.6l2.2-11.6h3v15.2h-2.2v-12l-2.2,12h-1.6l-2.2-12v12H1065.3z"/>
			<path class="st2" d="M1077.7,201.5v-15.2h6v1.6h-3.8v4.9h2.7v1.6h-2.7v5.4h3.8v1.6L1077.7,201.5L1077.7,201.5z"/>
			<path class="st2" d="M1085,201.5v-15.2h1.6l3.8,9.4v-9.4h2.2v15.2h-1.5l-3.9-10.1v10.1H1085z"/>
			<path class="st2" d="M1096.4,201.5v-13.3h-2.7v-1.9h7.6v1.9h-2.7v13.3H1096.4z"/>
		</g>
		<g>
			<path class="st2" d="M1022.3,222.4l3.3-15.2h2.2l3.3,15.2h-2.2l-0.8-3.8h-2.7l-0.8,3.8H1022.3z M1025.6,216.9h2.2l-1.1-6.5
				L1025.6,216.9z"/>
			<path class="st2" d="M1036.3,222.5c-0.7,0-1.3-0.1-1.8-0.3s-0.9-0.5-1.2-0.8c-0.3-0.3-0.6-0.8-0.8-1.3c-0.2-0.5-0.3-1.1-0.4-1.7
				c-0.1-0.6-0.1-1.3-0.1-2v-3.8c0-3.7,1.5-5.6,4.4-5.6c0.7,0,1.3,0.1,1.8,0.3s0.9,0.5,1.3,0.9c0.3,0.4,0.6,0.9,0.7,1.4
				c0.2,0.5,0.3,1.2,0.3,1.9c0,0.1,0,0.3,0,0.5h-2.2v-0.5c0-0.4,0-0.7-0.1-0.9c0-0.3-0.1-0.5-0.2-0.8c-0.1-0.2-0.2-0.5-0.3-0.6
				c-0.1-0.2-0.3-0.3-0.6-0.4c-0.2-0.1-0.5-0.1-0.8-0.1c-0.4,0-0.8,0.1-1.1,0.2c-0.3,0.2-0.5,0.4-0.7,0.7s-0.3,0.6-0.3,1
				c-0.1,0.4-0.1,0.8-0.1,1.3v4.9c0,0.4,0,0.7,0,1s0.1,0.6,0.1,0.9c0.1,0.3,0.1,0.6,0.2,0.8s0.2,0.4,0.4,0.6
				c0.2,0.2,0.4,0.3,0.6,0.4c0.2,0.1,0.5,0.1,0.8,0.1c0.4,0,0.7-0.1,0.9-0.2c0.3-0.1,0.5-0.3,0.6-0.5c0.2-0.2,0.3-0.5,0.4-0.9
				c0.1-0.3,0.2-0.7,0.2-1s0-0.7,0-1.2v-0.5h-2.2v-1.6h4.3v7.6h-1.6l-0.5-1.6C1038,221.9,1037.3,222.5,1036.3,222.5z"/>
			<path class="st2" d="M1042.4,222.4v-15.2h6v1.6h-3.8v4.9h2.7v1.6h-2.7v5.4h3.8v1.6L1042.4,222.4L1042.4,222.4z"/>
			<path class="st2" d="M1049.7,222.4v-15.2h1.6l3.8,9.4v-9.4h2.2v15.2h-1.5l-3.9-10.1v10.1H1049.7z"/>
			<path class="st2" d="M1063.3,222.5c-0.6,0-1.2-0.1-1.7-0.3s-0.9-0.4-1.2-0.7c-0.3-0.3-0.6-0.7-0.8-1.2c-0.2-0.5-0.3-1-0.4-1.5
				s-0.1-1.2-0.1-1.8v-4.3c0-0.7,0-1.3,0.1-1.8s0.2-1.1,0.4-1.5c0.2-0.5,0.4-0.9,0.8-1.2c0.3-0.3,0.7-0.6,1.2-0.7s1-0.3,1.7-0.3
				s1.3,0.1,1.8,0.3s0.9,0.5,1.2,0.9c0.3,0.4,0.5,0.9,0.7,1.4s0.2,1.2,0.3,1.9c0,0.1,0,0.3,0,0.5h-2.2v-0.5c0-0.3,0-0.6,0-0.8
				s0-0.4-0.1-0.7c0-0.2-0.1-0.4-0.2-0.6c-0.1-0.1-0.2-0.3-0.3-0.4c-0.1-0.1-0.3-0.2-0.5-0.3s-0.4-0.1-0.7-0.1
				c-0.4,0-0.7,0.1-0.9,0.2c-0.3,0.1-0.4,0.3-0.6,0.4c-0.1,0.2-0.3,0.4-0.3,0.7c-0.1,0.3-0.1,0.6-0.1,0.9c0,0.3,0,0.6,0,1.1v5.4
				c0,0.4,0,0.7,0,1s0.1,0.6,0.2,0.9c0.1,0.3,0.2,0.5,0.4,0.7c0.1,0.2,0.3,0.4,0.6,0.5c0.2,0.1,0.5,0.2,0.8,0.2s0.6-0.1,0.8-0.2
				c0.2-0.1,0.4-0.3,0.5-0.5s0.2-0.4,0.3-0.7c0.1-0.3,0.1-0.6,0.1-0.9s0-0.6,0-1V217h2.2v0.5c0,0.8-0.1,1.5-0.2,2.1
				s-0.4,1.1-0.7,1.6c-0.3,0.5-0.7,0.8-1.3,1C1064.7,222.4,1064.1,222.5,1063.3,222.5z"/>
			<path class="st2" d="M1068.9,222.4v-15.2h2.2v15.2H1068.9z"/>
			<path class="st2" d="M1073.4,222.4v-15.2h6v1.6h-3.8v4.9h2.7v1.6h-2.7v5.4h3.8v1.6L1073.4,222.4L1073.4,222.4z"/>
			<path class="st2" d="M1084.7,222.5c-1.4,0-2.4-0.4-3.1-1.2s-1.1-1.9-1.2-3.3l2.2-0.5c0.1,2.2,0.8,3.3,2.2,3.3
				c1.1,0,1.6-0.5,1.6-1.6c0-0.3,0-0.6-0.1-0.9c-0.1-0.3-0.2-0.5-0.4-0.8c-0.2-0.2-0.3-0.4-0.5-0.6c-0.1-0.1-0.3-0.3-0.6-0.5
				l-2.7-2.2c-0.5-0.4-0.9-0.9-1.2-1.5c-0.3-0.6-0.4-1.3-0.4-2.1c0-1.1,0.3-2,1-2.7s1.6-1,2.8-1c1.2,0,2.2,0.3,2.9,0.9
				c0.7,0.6,1.2,1.5,1.3,2.6c0,0.1,0,0.3,0.1,0.5l-2.2,0.5c0-0.1,0-0.2,0-0.4c-0.1-0.7-0.3-1.2-0.6-1.7c-0.3-0.4-0.8-0.6-1.5-0.6
				c-0.5,0-0.9,0.1-1.2,0.4c-0.3,0.3-0.4,0.7-0.4,1.2c0,0.9,0.4,1.6,1.1,2.1l2.7,2.2c1.4,1.2,2.2,2.6,2.2,4.2c0,1.1-0.3,2-1,2.6
				C1086.8,222.2,1085.8,222.5,1084.7,222.5z"/>
		</g>
	</g>
</g>
<g>
	<g>
		<g>
			<path class="st2" d="M111,17.6h-1.3v2.6h-2.2v-2.6h-4.1v-1.9l3.8-8h2.5v8h1.3C111,15.7,111,17.6,111,17.6z M107.5,15.6V13v-1.2
				l0.1-1.1h-0.1c-0.2,0.6-0.4,1.2-0.7,1.7l-1.5,3.2C105.3,15.6,107.5,15.6,107.5,15.6z"/>
			<path class="st2" d="M119.1,17.6h-1.3v2.6h-2.2v-2.6h-4.1v-1.9l3.8-8h2.5v8h1.3C119.1,15.7,119.1,17.6,119.1,17.6z M115.7,15.6
				V13v-1.2l0.1-1.1h-0.1c-0.2,0.6-0.4,1.2-0.7,1.7l-1.5,3.2C113.5,15.6,115.7,15.6,115.7,15.6z"/>
			<path class="st2" d="M125,11.4c0,1.3-0.2,2.3-0.6,3s-1.1,1-1.9,1c-0.9,0-1.5-0.3-1.9-1s-0.6-1.6-0.6-2.9c0-2.6,0.8-4,2.5-4
				C124.1,7.4,125,8.8,125,11.4z M121.8,11.4c0,0.8,0.1,1.4,0.2,1.7c0.1,0.4,0.3,0.5,0.5,0.5s0.4-0.2,0.5-0.5
				c0.1-0.4,0.2-0.9,0.2-1.7s-0.1-1.4-0.2-1.7c-0.1-0.4-0.3-0.5-0.5-0.5s-0.4,0.2-0.5,0.5C121.8,10,121.8,10.6,121.8,11.4z
				 M129.6,7.6l-5.2,12.6h-1.8l5.2-12.6C127.8,7.6,129.6,7.6,129.6,7.6z M132.2,16.4c0,1.3-0.2,2.3-0.7,3c-0.4,0.7-1.1,1-1.9,1
				c-0.9,0-1.5-0.3-1.9-1s-0.6-1.6-0.6-2.9s0.2-2.3,0.6-2.9c0.4-0.7,1-1,1.9-1C131.4,12.5,132.2,13.8,132.2,16.4z M129,16.4
				c0,0.8,0.1,1.4,0.2,1.7s0.3,0.5,0.5,0.5s0.4-0.2,0.5-0.5s0.2-0.9,0.2-1.7c0-0.8-0.1-1.4-0.2-1.7c-0.1-0.4-0.3-0.5-0.5-0.5
				s-0.4,0.2-0.5,0.5S129,15.6,129,16.4z"/>
			<path class="st2" d="M144.1,20.2H143l-4.8-11.3h-0.1c0.1,0.8,0.1,1.5,0.1,2.3v9h-0.8V7.6h1.1l4.7,11.1h0.1c0-0.9-0.1-1.7-0.1-2.4
				V7.6h0.8v12.6H144.1z"/>
			<path class="st2" d="M153.5,20.2h-1.1l-4.8-11.3h-0.1c0.1,0.8,0.1,1.5,0.1,2.3v9h-0.8V7.6h1.1l4.7,11.1h0.1
				c0-0.9-0.1-1.7-0.1-2.4V7.6h0.8v12.6H153.5z"/>
			<path class="st2" d="M160.3,13.9h2.8v6c-1,0.4-2,0.6-3,0.6c-1.4,0-2.4-0.6-3.2-1.7s-1.1-2.7-1.1-4.8c0-2,0.4-3.6,1.2-4.7
				s1.9-1.7,3.3-1.7c1,0,1.8,0.3,2.7,0.8L162.5,9c-0.8-0.5-1.6-0.8-2.3-0.8c-1.2,0-2.1,0.5-2.7,1.4c-0.6,1-0.9,2.4-0.9,4.2
				s0.3,3.2,0.9,4.2c0.6,1,1.5,1.5,2.6,1.5c0.8,0,1.5-0.1,2.1-0.3v-4.6h-1.9L160.3,13.9L160.3,13.9z"/>
			<path class="st2" d="M172.3,13.9c0,2.1-0.3,3.7-0.9,4.8c-0.6,1.1-1.5,1.7-2.7,1.7s-2.1-0.6-2.7-1.7c-0.6-1.1-0.9-2.7-0.9-4.8
				c0-2.2,0.3-3.8,0.9-4.8c0.6-1.1,1.5-1.6,2.7-1.6s2.1,0.6,2.7,1.7C172,10.2,172.3,11.8,172.3,13.9z M165.9,13.9
				c0,1.9,0.2,3.3,0.7,4.2c0.5,1,1.1,1.4,2,1.4s1.6-0.5,2.1-1.4s0.7-2.4,0.7-4.2c0-1.9-0.2-3.3-0.7-4.2s-1.1-1.4-2-1.4
				s-1.6,0.5-2.1,1.4C166.1,10.7,165.9,12.1,165.9,13.9z"/>
			<path class="st2" d="M179.4,16.9c0,1-0.3,1.9-0.9,2.5c-0.6,0.6-1.3,1-2.2,1c-1,0-1.8-0.1-2.4-0.4v-1c0.3,0.2,0.7,0.3,1.1,0.4
				c0.4,0.1,0.9,0.1,1.3,0.1c0.6,0,1.2-0.2,1.6-0.7c0.4-0.5,0.6-1.1,0.6-1.9c0-0.7-0.1-1.2-0.4-1.7c-0.3-0.4-0.9-0.8-1.7-1.2
				c-0.6-0.3-1.1-0.6-1.5-0.9c-0.3-0.3-0.6-0.7-0.7-1.1c-0.2-0.4-0.2-0.9-0.2-1.5s0.1-1.2,0.4-1.7c0.3-0.5,0.6-0.9,1.1-1.1
				c0.5-0.3,0.9-0.4,1.5-0.4c0.5,0,0.9,0.1,1.3,0.2c0.4,0.1,0.7,0.2,0.9,0.4l-0.3,0.8c-0.6-0.3-1.3-0.5-1.9-0.5
				c-0.6,0-1.1,0.2-1.5,0.6s-0.6,1-0.6,1.7s0.1,1.3,0.4,1.6c0.3,0.4,0.8,0.8,1.7,1.2c0.8,0.4,1.5,0.9,1.9,1.4
				C179.2,15.4,179.4,16.1,179.4,16.9z"/>
		</g>
	</g>
	<g>
		<g>
			<path class="st2" d="M116,40.9c0,0.8-0.2,1.5-0.6,2s-0.9,0.9-1.7,1.1v0.1c0.8,0.1,1.4,0.4,1.8,0.9s0.6,1.2,0.6,2
				c0,1.2-0.4,2.1-1.1,2.8s-1.7,1-3,1c-1.1,0-2-0.2-2.8-0.6v-2.1c0.4,0.2,0.8,0.4,1.2,0.5c0.4,0.1,0.9,0.2,1.3,0.2
				c0.7,0,1.2-0.2,1.5-0.5s0.5-0.8,0.5-1.5c0-1.3-0.8-1.9-2.3-1.9h-0.7v-1.7h0.7c0.7,0,1.2-0.2,1.6-0.5s0.5-0.8,0.5-1.4
				c0-0.5-0.1-0.9-0.3-1.1c-0.2-0.3-0.6-0.4-1-0.4c-0.6,0-1.3,0.3-1.9,0.8l-1.1-1.5c0.8-0.8,1.9-1.3,3.2-1.3c1.1,0,1.9,0.3,2.5,0.8
				C115.7,39.2,116,40,116,40.9z"/>
			<path class="st2" d="M123.3,50.7H121v-7.4c0-0.8,0-1.7,0.1-2.8c0,0.1-0.2,0.2-0.4,0.5c-0.3,0.3-0.8,0.8-1.5,1.6l-1.3-1.4l3.3-3.1
				h2.1C123.3,38.1,123.3,50.7,123.3,50.7z"/>
			<path class="st2" d="M130.7,41.8c0,1.3-0.2,2.3-0.6,3c-0.4,0.7-1.1,1-1.9,1c-0.9,0-1.5-0.3-1.9-1s-0.6-1.6-0.6-2.9
				c0-2.6,0.8-4,2.5-4C129.9,37.9,130.7,39.2,130.7,41.8z M127.5,41.9c0,0.8,0.1,1.4,0.2,1.7c0.1,0.4,0.3,0.5,0.5,0.5
				s0.4-0.2,0.5-0.5c0.1-0.4,0.2-0.9,0.2-1.7s-0.1-1.4-0.2-1.7c-0.1-0.4-0.3-0.5-0.5-0.5s-0.4,0.2-0.5,0.5S127.5,41.1,127.5,41.9z
				 M135.3,38.1l-5.2,12.6h-1.8l5.2-12.6H135.3z M138,46.9c0,1.3-0.2,2.3-0.7,3c-0.4,0.7-1.1,1-1.9,1c-0.9,0-1.5-0.3-1.9-1
				s-0.6-1.6-0.6-2.9c0-1.3,0.2-2.3,0.6-2.9c0.4-0.7,1-1,1.9-1C137.2,42.9,138,44.2,138,46.9z M134.8,46.9c0,0.8,0.1,1.4,0.2,1.7
				c0.1,0.4,0.3,0.5,0.5,0.5s0.4-0.2,0.5-0.5c0.1-0.4,0.2-0.9,0.2-1.7s-0.1-1.4-0.2-1.7c-0.1-0.4-0.3-0.5-0.5-0.5s-0.4,0.2-0.5,0.5
				S134.8,46.1,134.8,46.9z"/>
			<path class="st2" d="M143.2,50.7V38.1h0.8v12.6C144,50.7,143.2,50.7,143.2,50.7z"/>
			<path class="st2" d="M153.5,50.7h-1.1l-4.8-11.3h-0.1c0.1,0.8,0.1,1.5,0.1,2.3v9h-0.8V38.1h1.1l4.7,11.1h0.1
				c0-0.9-0.1-1.7-0.1-2.4V38h0.8v12.7H153.5z"/>
			<path class="st2" d="M160.3,44.3h2.8v6c-1,0.4-2,0.6-3,0.6c-1.4,0-2.4-0.6-3.2-1.7c-0.8-1.1-1.1-2.7-1.1-4.8c0-2,0.4-3.6,1.2-4.7
				c0.8-1.1,1.9-1.7,3.3-1.7c1,0,1.8,0.3,2.7,0.8l-0.4,0.7c-0.8-0.5-1.6-0.8-2.3-0.8c-1.2,0-2.1,0.5-2.7,1.4c-0.6,1-0.9,2.4-0.9,4.2
				s0.3,3.2,0.9,4.2c0.6,1,1.5,1.5,2.6,1.5c0.8,0,1.5-0.1,2.1-0.3v-4.6h-1.9v-0.8H160.3z"/>
			<path class="st2" d="M172.3,44.4c0,2.1-0.3,3.7-0.9,4.8c-0.6,1.1-1.5,1.7-2.7,1.7s-2.1-0.6-2.7-1.7c-0.6-1.1-0.9-2.7-0.9-4.8
				c0-2.2,0.3-3.8,0.9-4.8c0.6-1.1,1.5-1.6,2.7-1.6s2.1,0.6,2.7,1.7C172,40.7,172.3,42.3,172.3,44.4z M165.9,44.4
				c0,1.9,0.2,3.3,0.7,4.2c0.5,1,1.1,1.4,2,1.4s1.6-0.5,2.1-1.4s0.7-2.4,0.7-4.2c0-1.9-0.2-3.3-0.7-4.2s-1.1-1.4-2-1.4
				s-1.6,0.5-2.1,1.4C166.1,41.1,165.9,42.5,165.9,44.4z"/>
			<path class="st2" d="M179.4,47.4c0,1-0.3,1.9-0.9,2.5c-0.6,0.6-1.3,1-2.2,1c-1,0-1.8-0.1-2.4-0.4v-0.9c0.3,0.2,0.7,0.3,1.1,0.4
				c0.4,0.1,0.9,0.1,1.3,0.1c0.6,0,1.2-0.2,1.6-0.7c0.4-0.5,0.6-1.1,0.6-1.9c0-0.7-0.1-1.2-0.4-1.7c-0.3-0.4-0.9-0.8-1.7-1.2
				c-0.6-0.3-1.1-0.6-1.5-0.9c-0.3-0.3-0.6-0.7-0.7-1.1c-0.2-0.4-0.2-0.9-0.2-1.5s0.1-1.2,0.4-1.7c0.3-0.5,0.6-0.9,1.1-1.1
				c0.5-0.3,0.9-0.4,1.5-0.4c0.5,0,0.9,0.1,1.3,0.2c0.4,0.1,0.7,0.2,0.9,0.4l-0.3,0.8c-0.6-0.3-1.3-0.5-1.9-0.5
				c-0.6,0-1.1,0.2-1.5,0.6c-0.4,0.4-0.6,1-0.6,1.7s0.1,1.3,0.4,1.6c0.3,0.4,0.8,0.8,1.7,1.2c0.8,0.4,1.5,0.9,1.9,1.4
				C179.2,45.9,179.4,46.6,179.4,47.4z"/>
		</g>
	</g>
	<g>
		<g>
			<path class="st2" d="M71.4,80.5h-2.3v-7.4c0-0.8,0-1.7,0.1-2.8c0,0.1-0.2,0.2-0.4,0.5c-0.3,0.3-0.8,0.8-1.5,1.6L65.9,71l3.3-3
				h2.1V80.5z"/>
			<path class="st2" d="M74.8,80.5L78.2,70h-4.4v-2h6.7v1.6l-3.5,11L74.8,80.5L74.8,80.5z"/>
			<path class="st2" d="M86.9,71.7c0,1.3-0.2,2.3-0.6,3c-0.4,0.7-1.1,1-1.9,1c-0.9,0-1.5-0.3-1.9-1c-0.4-0.7-0.6-1.6-0.6-2.9
				c0-2.6,0.8-4,2.5-4C86.1,67.8,86.9,69.1,86.9,71.7z M83.8,71.7c0,0.8,0.1,1.4,0.2,1.7c0.1,0.4,0.3,0.5,0.5,0.5s0.4-0.2,0.5-0.5
				c0.1-0.4,0.2-0.9,0.2-1.7c0-0.8-0.1-1.4-0.2-1.7c-0.1-0.4-0.3-0.5-0.5-0.5s-0.4,0.2-0.5,0.5C83.9,70.4,83.8,70.9,83.8,71.7z
				 M91.6,68l-5.2,12.6h-1.8L89.8,68H91.6z M94.2,76.7c0,1.3-0.2,2.3-0.7,3c-0.4,0.7-1.1,1-1.9,1c-0.9,0-1.5-0.3-1.9-1
				s-0.6-1.6-0.6-2.9s0.2-2.3,0.6-2.9c0.4-0.7,1-1,1.9-1C93.4,72.8,94.2,74.1,94.2,76.7z M91.1,76.8c0,0.8,0.1,1.4,0.2,1.7
				c0.1,0.4,0.3,0.5,0.5,0.5s0.4-0.2,0.5-0.5c0.1-0.4,0.2-0.9,0.2-1.7c0-0.8-0.1-1.4-0.2-1.7c-0.1-0.4-0.3-0.5-0.5-0.5
				s-0.4,0.2-0.5,0.5S91.1,76,91.1,76.8z"/>
			<g>
				<g>
					<path class="st2" d="M102.5,74.1h2.8v6c-1,0.4-2,0.6-3,0.6c-1.4,0-2.4-0.6-3.2-1.7c-0.8-1.1-1.1-2.7-1.1-4.8
						c0-2,0.4-3.6,1.2-4.7c0.8-1.1,1.9-1.7,3.3-1.7c1,0,1.8,0.3,2.7,0.8l-0.4,0.7c-0.8-0.5-1.6-0.8-2.3-0.8c-1.2,0-2.1,0.5-2.7,1.4
						c-0.6,1-0.9,2.4-0.9,4.2c0,1.8,0.3,3.2,0.9,4.2s1.5,1.5,2.6,1.5c0.8,0,1.5-0.1,2.1-0.3v-4.6h-1.9L102.5,74.1L102.5,74.1z"/>
					<path class="st2" d="M114.5,74.2c0,2.1-0.3,3.7-0.9,4.8c-0.6,1.1-1.5,1.7-2.7,1.7s-2.1-0.6-2.7-1.7s-0.9-2.7-0.9-4.8
						c0-2.2,0.3-3.8,0.9-4.8c0.6-1.1,1.5-1.6,2.7-1.6s2.1,0.6,2.7,1.7C114.1,70.5,114.5,72.1,114.5,74.2z M108.1,74.2
						c0,1.9,0.2,3.3,0.7,4.2c0.5,1,1.1,1.4,2,1.4s1.6-0.5,2.1-1.4s0.7-2.4,0.7-4.2c0-1.9-0.2-3.3-0.7-4.2c-0.5-0.9-1.1-1.4-2-1.4
						s-1.6,0.5-2.1,1.4C108.3,70.9,108.1,72.3,108.1,74.2z"/>
					<path class="st2" d="M121.4,67.9h0.9l-3,12.6h-0.9l-3-12.6h0.9l2,8.8c0.2,0.7,0.3,1.2,0.3,1.5c0.1,0.3,0.1,0.7,0.2,1.2
						c0-0.3,0.1-0.7,0.1-1c0.1-0.3,0.1-0.6,0.2-0.8C119.2,77.4,119.9,74.2,121.4,67.9z"/>
					<path class="st2" d="M128.2,80.5h-4.6V67.9h4.6v0.8h-3.7v4.8h3.5v0.8h-3.5v5.4h3.7V80.5z"/>
					<path class="st2" d="M131.3,75v5.5h-0.8V67.9h1.7c1.2,0,2.1,0.3,2.7,0.9c0.6,0.6,0.9,1.4,0.9,2.6c0,0.9-0.2,1.6-0.5,2.2
						s-0.8,1-1.6,1.3l2.5,5.7h-0.9l-2.3-5.5L131.3,75L131.3,75z M131.3,74.2h1.2c0.8,0,1.4-0.2,1.8-0.7c0.4-0.5,0.6-1.2,0.6-2.1
						s-0.2-1.6-0.6-2c-0.4-0.4-1.1-0.6-2-0.6h-0.9v5.4H131.3z"/>
					<path class="st2" d="M144.5,80.5h-1.1l-4.8-11.3h-0.1c0.1,0.8,0.1,1.5,0.1,2.3v9h-0.8V67.9h1.1l4.7,11.1h0.1
						c0-0.9-0.1-1.7-0.1-2.4v-8.8h0.8v12.7H144.5z"/>
					<path class="st2" d="M151.4,80.5l-3.3-11.4H148c0.1,1.2,0.1,2,0.1,2.3v9.2h-0.8V67.9h1.2l2.8,9.6c0.3,0.8,0.4,1.6,0.5,2.2h0.1
						c0.1-0.4,0.2-1.1,0.5-2.2l2.8-9.6h1.3v12.6h-0.8v-9.1c0-0.4,0-1.1,0.1-2.3h-0.1l-3.3,11.4H151.4z"/>
					<path class="st2" d="M163.9,80.5h-4.6V67.9h4.6v0.8h-3.7v4.8h3.5v0.8h-3.5v5.4h3.7V80.5z"/>
					<path class="st2" d="M172.7,80.5h-1.1l-4.8-11.3h-0.1c0.1,0.8,0.1,1.5,0.1,2.3v9H166V67.9h1.1l4.7,11.1h0.1
						c0-0.9-0.1-1.7-0.1-2.4v-8.8h0.8v12.7H172.7z"/>
					<path class="st2" d="M177.5,80.5h-0.8V68.7h-2.5v-0.8h5.8v0.8h-2.5V80.5z"/>
				</g>
			</g>
		</g>
	</g>
	<g>
		<g>
			<path class="st2" d="M150,105.8c0,2.1-0.3,3.7-0.9,4.8c-0.6,1.1-1.5,1.7-2.7,1.7s-2.1-0.6-2.7-1.7c-0.6-1.1-0.9-2.7-0.9-4.8
				c0-2.2,0.3-3.8,0.9-4.8c0.6-1.1,1.5-1.6,2.7-1.6s2.1,0.6,2.7,1.7C149.7,102.2,150,103.8,150,105.8z M143.7,105.8
				c0,1.9,0.2,3.3,0.7,4.2c0.5,1,1.1,1.4,2,1.4s1.6-0.5,2.1-1.4s0.7-2.4,0.7-4.2c0-1.9-0.2-3.3-0.7-4.2c-0.5-0.9-1.1-1.4-2-1.4
				s-1.6,0.5-2.1,1.4C143.9,102.6,143.7,104,143.7,105.8z"/>
			<path class="st2" d="M154.5,112.1h-0.8v-11.7h-2.5v-0.8h5.8v0.8h-2.5V112.1z"/>
			<path class="st2" d="M164.6,112.1h-0.8v-6.2h-4.4v6.2h-0.8V99.6h0.8v5.6h4.4v-5.6h0.8V112.1z"/>
			<path class="st2" d="M171.9,112.1h-4.6V99.6h4.6v0.8h-3.7v4.8h3.5v0.8h-3.5v5.4h3.7V112.1z"/>
			<path class="st2" d="M174.9,106.6v5.5h-0.8V99.6h1.7c1.2,0,2.1,0.3,2.7,0.9c0.6,0.6,0.9,1.4,0.9,2.6c0,0.9-0.2,1.6-0.5,2.2
				s-0.8,1-1.6,1.3l2.5,5.7h-0.9l-2.3-5.5h-1.7V106.6z M174.9,105.9h1.2c0.8,0,1.4-0.2,1.8-0.7c0.4-0.5,0.6-1.2,0.6-2.1
				s-0.2-1.6-0.6-2c-0.4-0.4-1.1-0.6-2-0.6H175v5.4H174.9z"/>
			<path class="st2" d="M119.2,107.2c0-2.6,0.4-4.4,1.2-5.6s2-1.8,3.6-1.8c0.3,0,0.5,0,0.8,0s0.5,0.1,0.6,0.1v1.9
				c-0.4-0.1-0.8-0.1-1.2-0.1c-0.7,0-1.2,0.1-1.6,0.4c-0.4,0.3-0.7,0.7-1,1.3c-0.2,0.6-0.4,1.4-0.4,2.4h0.2c0.2-0.5,0.5-0.8,0.8-1.1
				c0.3-0.2,0.8-0.4,1.2-0.4c0.8,0,1.5,0.3,2,1s0.7,1.7,0.7,2.9c0,1.3-0.3,2.4-0.9,3.2c-0.6,0.8-1.5,1.2-2.5,1.2
				c-1.1,0-2-0.5-2.6-1.4C119.4,110.4,119.2,109.1,119.2,107.2z M122.7,110.8c0.3,0,0.6-0.2,0.8-0.6c0.2-0.4,0.3-1,0.3-1.8
				c0-0.6-0.1-1.2-0.3-1.5c-0.2-0.4-0.5-0.6-0.8-0.6s-0.6,0.2-0.8,0.5s-0.3,0.8-0.3,1.3c0,0.8,0.1,1.5,0.3,1.9
				C121.9,110.6,122.2,110.8,122.7,110.8z"/>
			<path class="st2" d="M132.2,103.8c0,1.3-0.2,2.3-0.6,3c-0.4,0.7-1.1,1-1.9,1c-0.9,0-1.5-0.3-1.9-1c-0.4-0.7-0.6-1.6-0.6-2.9
				c0-2.6,0.8-4,2.5-4C131.4,99.8,132.2,101.1,132.2,103.8z M129.1,103.8c0,0.8,0.1,1.4,0.2,1.7c0.1,0.4,0.3,0.5,0.5,0.5
				s0.4-0.2,0.5-0.5c0.1-0.4,0.2-0.9,0.2-1.7c0-0.8-0.1-1.4-0.2-1.7c-0.1-0.4-0.3-0.5-0.5-0.5s-0.4,0.2-0.5,0.5
				C129.1,102.4,129.1,103,129.1,103.8z M136.9,100l-5.2,12.6h-1.8l5.2-12.6H136.9z M139.4,108.8c0,1.3-0.2,2.3-0.7,3
				c-0.4,0.7-1.1,1-1.9,1c-0.9,0-1.5-0.3-1.9-1c-0.4-0.7-0.6-1.6-0.6-2.9s0.2-2.3,0.6-2.9c0.4-0.7,1-1,1.9-1
				C138.7,104.8,139.4,106.2,139.4,108.8z M136.4,108.8c0,0.8,0.1,1.4,0.2,1.7c0.1,0.4,0.3,0.5,0.5,0.5s0.4-0.2,0.5-0.5
				c0.1-0.4,0.2-0.9,0.2-1.7c0-0.8-0.1-1.4-0.2-1.7c-0.1-0.4-0.3-0.5-0.5-0.5s-0.4,0.2-0.5,0.5C136.4,107.4,136.4,108,136.4,108.8z"
				/>
		</g>
	</g>
	<g>
		<g>
			<path class="st2" d="M82.9,134.1c0,0.8-0.2,1.5-0.6,2s-0.9,0.9-1.7,1.1v0.1c0.8,0.1,1.4,0.4,1.8,0.9s0.6,1.2,0.6,2
				c0,1.2-0.4,2.1-1.1,2.8s-1.7,1-3,1c-1.1,0-2-0.2-2.8-0.6v-2.1c0.4,0.2,0.8,0.4,1.2,0.5c0.4,0.1,0.9,0.2,1.3,0.2
				c0.7,0,1.2-0.2,1.5-0.5s0.5-0.8,0.5-1.5c0-1.3-0.8-1.9-2.3-1.9h-0.7v-1.7h0.7c0.7,0,1.2-0.2,1.6-0.5s0.5-0.8,0.5-1.4
				c0-0.5-0.1-0.9-0.3-1.1c-0.2-0.3-0.6-0.4-1-0.4c-0.6,0-1.3,0.3-1.9,0.8l-1.1-1.5c0.8-0.8,1.9-1.3,3.2-1.3c1.1,0,1.9,0.3,2.5,0.8
				C82.6,132.4,82.9,133.1,82.9,134.1z"/>
			<path class="st2" d="M89.5,135c0,1.3-0.2,2.3-0.6,3s-1.1,1-1.9,1c-0.9,0-1.5-0.3-1.9-1s-0.6-1.6-0.6-2.9c0-2.6,0.8-4,2.5-4
				S89.5,132.4,89.5,135z M86.3,135c0,0.8,0.1,1.4,0.2,1.7c0.1,0.4,0.3,0.5,0.5,0.5s0.4-0.2,0.5-0.5c0.1-0.4,0.2-0.9,0.2-1.7
				s-0.1-1.4-0.2-1.7c-0.1-0.4-0.3-0.5-0.5-0.5s-0.4,0.2-0.5,0.5S86.3,134.2,86.3,135z M94.1,131.2l-5.2,12.6h-1.8l5.2-12.6H94.1z
				 M96.8,140c0,1.3-0.2,2.3-0.7,3c-0.4,0.7-1.1,1-1.9,1c-0.9,0-1.5-0.3-1.9-1s-0.6-1.6-0.6-2.9c0-1.3,0.2-2.3,0.6-2.9
				c0.4-0.7,1-1,1.9-1C95.9,136.1,96.8,137.4,96.8,140z M93.6,140c0,0.8,0.1,1.4,0.2,1.7c0.1,0.4,0.3,0.5,0.5,0.5s0.4-0.2,0.5-0.5
				c0.1-0.4,0.2-0.9,0.2-1.7s-0.1-1.4-0.2-1.7c-0.1-0.4-0.3-0.5-0.5-0.5s-0.4,0.2-0.5,0.5C93.6,138.7,93.6,139.2,93.6,140z"/>
			<path class="st2" d="M109.1,131.2v8.5c0,2.8-1,4.3-3,4.3c-1,0-1.8-0.4-2.3-1.1c-0.5-0.7-0.8-1.8-0.8-3.2v-8.5h0.9v8.6
				c0,1.1,0.2,1.9,0.6,2.5s1,0.9,1.7,0.9s1.3-0.3,1.6-0.9s0.6-1.4,0.6-2.5v-8.6H109.1z"/>
			<path class="st2" d="M118.4,143.8h-1.1l-4.8-11.3h-0.1c0.1,0.8,0.1,1.5,0.1,2.3v9h-0.8v-12.6h1.1l4.7,11.1h0.1
				c0-0.9-0.1-1.7-0.1-2.4v-8.8h0.8v12.7H118.4z"/>
			<path class="st2" d="M129.2,143.8l-1.1-4.6H125l-1.1,4.6H123l3-12.6h0.9l3.1,12.6H129.2z M127.9,138.4l-1.1-4.7
				c-0.1-0.5-0.2-1-0.3-1.5c-0.1,0.5-0.1,1-0.2,1.5l-1.1,4.7H127.9z"/>
			<path class="st2" d="M135.6,137.5h2.8v6c-1,0.4-2,0.6-3,0.6c-1.4,0-2.4-0.6-3.2-1.7c-0.8-1.1-1.1-2.7-1.1-4.8
				c0-2,0.4-3.6,1.2-4.7c0.8-1.1,1.9-1.7,3.3-1.7c1,0,1.8,0.3,2.7,0.8l-0.4,0.7c-0.8-0.5-1.6-0.8-2.3-0.8c-1.2,0-2.1,0.5-2.7,1.4
				c-0.6,1-0.9,2.4-0.9,4.2s0.3,3.2,0.9,4.2c0.6,1,1.5,1.5,2.6,1.5c0.8,0,1.5-0.1,2.1-0.3v-4.6h-1.9v-0.8H135.6z"/>
			<path class="st2" d="M145.2,143.8h-4.6v-12.6h4.6v0.8h-3.7v4.8h3.5v0.8h-3.5v5.4h3.7V143.8z"/>
			<path class="st2" d="M154.1,143.8H153l-4.8-11.3h-0.1c0.1,0.8,0.1,1.5,0.1,2.3v9h-0.8v-12.6h1.1l4.7,11.1h0.1
				c0-0.9-0.1-1.7-0.1-2.4v-8.8h0.8v12.7H154.1z"/>
			<path class="st2" d="M160.4,131.9c-0.9,0-1.7,0.5-2.3,1.5s-0.8,2.4-0.8,4.2c0,1.2,0.1,2.2,0.4,3c0.3,0.9,0.6,1.5,1.1,2
				s1,0.7,1.7,0.7s1.2-0.1,1.7-0.4v0.8c-0.4,0.3-1,0.4-1.8,0.4s-1.5-0.3-2.1-0.8s-1.1-1.3-1.4-2.2c-0.3-1-0.5-2.1-0.5-3.5
				c0-2,0.4-3.6,1.1-4.7c0.7-1.1,1.7-1.7,2.9-1.7c0.8,0,1.4,0.2,2,0.5l-0.4,0.7C161.6,132,161,131.9,160.4,131.9z"/>
			<path class="st2" d="M164.2,143.8v-12.6h0.8v12.6H164.2z"/>
			<path class="st2" d="M172.4,143.8h-4.6v-12.6h4.6v0.8h-3.7v4.8h3.5v0.8h-3.5v5.4h3.7V143.8z"/>
			<path class="st2" d="M179.4,140.5c0,1-0.3,1.9-0.9,2.5c-0.6,0.6-1.3,1-2.2,1c-1,0-1.8-0.1-2.4-0.4v-0.9c0.3,0.2,0.7,0.3,1.1,0.4
				c0.4,0.1,0.9,0.1,1.3,0.1c0.6,0,1.2-0.2,1.6-0.7c0.4-0.5,0.6-1.1,0.6-1.9c0-0.7-0.1-1.2-0.4-1.7c-0.3-0.4-0.9-0.8-1.7-1.2
				c-0.6-0.3-1.1-0.6-1.5-0.9c-0.3-0.3-0.6-0.7-0.7-1.1c-0.2-0.4-0.2-0.9-0.2-1.5s0.1-1.2,0.4-1.7c0.3-0.5,0.6-0.9,1.1-1.1
				c0.5-0.3,0.9-0.4,1.5-0.4c0.5,0,0.9,0.1,1.3,0.2c0.4,0.1,0.7,0.2,0.9,0.4l-0.3,0.8c-0.6-0.3-1.3-0.5-1.9-0.5
				c-0.6,0-1.1,0.2-1.5,0.6c-0.4,0.4-0.6,1-0.6,1.7s0.1,1.3,0.4,1.6c0.3,0.4,0.8,0.8,1.7,1.2c0.8,0.4,1.5,0.9,1.9,1.4
				C179.2,139.1,179.4,139.7,179.4,140.5z"/>
		</g>
	</g>
	<g>
		<path class="st2" d="M133.9,235.9H94.6v-18.2h61.3v14.6L118.6,362H97L133.9,235.9z"/>
		<path class="st2" d="M176.6,235.9h-11.8v-18.2h32v144.4h-20.2V235.9z"/>
		<path class="st2" d="M223.5,311.1h20.6v21c0,7.2,4.3,13.2,13.8,13.2c8.9,0,13.6-5.6,13.6-13.4V301c0-8-4.1-14-13.6-14
			c-8.9,0-13.4,5.4-13.8,11.6v1.2h-19.8v-82.1h65.4v18.2h-45.2v43.3c4.5-4.5,11.1-7.6,20.2-7.6c15.9,0,27.2,9.3,27.2,27.6v33.2
			c0,18.6-12.4,31.1-34,31.1c-21,0-34.4-11.6-34.4-30.1V311.1z"/>
	</g>
	<g>
		<path class="st2" d="M177.2,400c0,1.9-0.4,3.4-1.3,4.3c-0.9,0.9-2.2,1.4-4,1.4h-1.3v7.8h-1.3v-18.9h2.6c1.8,0,3.2,0.4,4,1.3
			C176.7,396.8,177.2,398.1,177.2,400z M170.5,404.5h1.3c1.5,0,2.5-0.3,3.1-1s0.9-1.8,0.9-3.4c0-1.5-0.3-2.6-1-3.3
			c-0.6-0.7-1.6-1-3-1h-1.4L170.5,404.5L170.5,404.5z"/>
		<path class="st2" d="M187.3,413.5l-1.7-6.8H181l-1.6,6.8h-1.3l4.5-18.9h1.3l4.6,18.9H187.3z M185.3,405.3l-1.7-7
			c-0.2-0.8-0.3-1.5-0.4-2.2c-0.1,0.7-0.2,1.5-0.4,2.2l-1.6,7H185.3z"/>
		<path class="st2" d="M191.9,405.2v8.2h-1.3v-18.9h2.6c1.8,0,3.2,0.4,4,1.3c0.9,0.9,1.3,2.2,1.3,3.9c0,1.3-0.2,2.4-0.7,3.2
			s-1.2,1.5-2.3,1.9l3.7,8.5h-1.4l-3.5-8.2h-2.4V405.2z M191.9,404h1.8c1.1,0,2-0.4,2.6-1.1s0.9-1.8,0.9-3.1c0-1.4-0.3-2.4-0.9-3.1
			c-0.6-0.6-1.6-0.9-3-0.9h-1.4L191.9,404L191.9,404z"/>
		<path class="st2" d="M205,413.5h-1.3v-17.7h-3.8v-1.2h8.8v1.2H205V413.5z"/>
		<path class="st2" d="M220.9,413.5h-1.6l-7.1-16.9h-0.1c0.1,1.2,0.2,2.3,0.2,3.4v13.5H211v-18.9h1.6l7.1,16.7h0.1
			c-0.1-1.4-0.1-2.6-0.1-3.5v-13.2h1.2L220.9,413.5L220.9,413.5z"/>
		<path class="st2" d="M231.9,413.5h-6.8v-18.9h6.8v1.2h-5.6v7.2h5.3v1.2h-5.3v8.1h5.6V413.5z"/>
		<path class="st2" d="M236.5,405.2v8.2h-1.3v-18.9h2.6c1.8,0,3.2,0.4,4,1.3c0.9,0.9,1.3,2.2,1.3,3.9c0,1.3-0.2,2.4-0.7,3.2
			c-0.5,0.8-1.2,1.5-2.3,1.9l3.7,8.5h-1.4l-3.5-8.2h-2.4V405.2z M236.5,404h1.8c1.1,0,2-0.4,2.6-1.1s0.9-1.8,0.9-3.1
			c0-1.4-0.3-2.4-0.9-3.1c-0.6-0.6-1.6-0.9-3-0.9h-1.4L236.5,404L236.5,404z"/>
		<path class="st2" d="M253.7,408.5c0,1.5-0.4,2.8-1.3,3.8c-0.9,1-2,1.4-3.3,1.4c-1.5,0-2.7-0.2-3.6-0.7v-1.4c0.4,0.2,1,0.4,1.7,0.6
			c0.7,0.1,1.3,0.2,2,0.2c1,0,1.8-0.4,2.4-1.1c0.6-0.7,0.9-1.7,0.9-2.8c0-1-0.2-1.9-0.7-2.5c-0.4-0.6-1.3-1.2-2.5-1.8
			c-1-0.5-1.7-1-2.2-1.4c-0.5-0.5-0.8-1-1.1-1.6c-0.2-0.6-0.3-1.3-0.3-2.2c0-0.9,0.2-1.8,0.6-2.5c0.4-0.7,0.9-1.3,1.6-1.7
			c0.7-0.4,1.4-0.6,2.2-0.6c0.7,0,1.4,0.1,2,0.2c0.6,0.2,1.1,0.3,1.4,0.5l-0.5,1.2c-1-0.5-1.9-0.7-2.9-0.7c-0.9,0-1.7,0.3-2.3,0.9
			s-0.9,1.5-0.9,2.5c0,1.1,0.2,1.9,0.6,2.5c0.4,0.6,1.2,1.2,2.5,1.8c1.3,0.6,2.2,1.3,2.8,2.2C253.4,406.3,253.7,407.3,253.7,408.5z"
			/>
	</g>
	<g>
		<path class="st3" d="M223.1,136.3c-0.9,4-1.9,7.9-2.8,11.9c-9.2-1.8-19-2.8-29.5-2.8c0-4.1,0-8.1,0-12.2
			C202.2,133.3,213,134.3,223.1,136.3z"/>
		<path class="st4" d="M277.7,122.7c-2.1,3.7-4.3,7.4-6.4,11.1c-22.2-12-49-19.1-80.6-19.1c0-4.2,0-8.4,0-12.7
			C224.8,102.1,253.8,109.7,277.7,122.7z"/>
		<path class="st5" d="M400.7,380.3c-3.7-1.9-7.3-3.7-11-5.6c61.2-130.9-5.1-322.3-199-322.3c0-4.1,0-8.1,0-12.2
			C395.3,40.3,465.3,242.2,400.7,380.3z"/>
		<g>
			<path class="st6" d="M254.7,518.5c270.1-59.6,248.7-496.7-64-496.7c0-4.2,0-8.4,0-12.7c329.8,0,351,462.8,63.7,522.4L254.7,518.5
				z"/>
		</g>
		<g>
			<path class="st7" d="M374.7,224.3c-17.3-76.9-78.6-143-184-143c0-3.5,0-6.9,0-10.4C303,71,367.9,142,385.4,224.2L374.7,224.3z"/>
		</g>
	</g>
</g>
</svg>
