<?xml version="1.0" encoding="utf-8"?>
<!-- Generator: Adobe Illustrator 25.1.0, SVG Export Plug-In . SVG Version: 6.00 Build 0)  -->
<svg version="1.1" id="Layer_1" xmlns="http://www.w3.org/2000/svg" xmlns:xlink="http://www.w3.org/1999/xlink" x="0px" y="0px"
	 viewBox="0 0 527.9 534.7" style="enable-background:new 0 0 527.9 534.7;" xml:space="preserve">
<style type="text/css">
	.st0{opacity:0.5;}
	.st1{fill:#BF331F;}
	.st2{fill:#FFFFFF;}
	.st3{fill:#E5AFA9;}
	.st4{fill:#F0D6D3;}
	.st5{fill:#D39C98;}
	.st6{fill:#CC6155;}
	.st7{fill:#BF3B2A;}
</style>
<g>
	<g class="st0">
		<rect x="1246" y="314.8" class="st1" width="66.6" height="21.4"/>
		<rect x="1131.7" y="293.7" class="st1" width="69.7" height="42.2"/>
		<rect x="1018.8" y="226.1" class="st1" width="69.7" height="109.8"/>
		<rect x="907.5" y="129.6" class="st1" width="66.6" height="206.3"/>
		<rect x="793.2" y="45.9" class="st1" width="69.7" height="290"/>
	</g>
	<g>
		<path class="st2" d="M1277.1,287.2c-0.5,0.2-1.1,0.3-1.7,0.3c-0.7,0-1.2-0.1-1.7-0.3c-0.5-0.2-0.9-0.4-1.2-0.7
			c-0.3-0.3-0.6-0.7-0.8-1.2c-0.2-0.5-0.3-1-0.4-1.5c-0.1-0.6-0.1-1.2-0.1-1.9v-9.8h2.2v9.8c0,0.5,0,0.9,0,1.2c0,0.3,0.1,0.7,0.2,1
			c0.1,0.4,0.2,0.6,0.4,0.9c0.1,0.2,0.4,0.4,0.6,0.5c0.3,0.1,0.6,0.2,1,0.2s0.7-0.1,1-0.2s0.5-0.3,0.6-0.5c0.2-0.2,0.3-0.5,0.4-0.9
			s0.1-0.7,0.2-1c0-0.3,0-0.7,0-1.2v-9.8h2.2v9.8c0,0.7,0,1.3-0.1,1.9s-0.2,1.1-0.4,1.5c-0.2,0.5-0.5,0.9-0.8,1.2
			C1278,286.7,1277.6,287,1277.1,287.2z"/>
		<path class="st2" d="M1281.8,287.3v-15.2h1.6l3.8,9.4v-9.4h2.2v15.2h-1.5l-3.9-10.1v10.1H1281.8z"/>
		<path class="st2" d="M1247,308.1l3.3-15.2h2.2l3.3,15.2h-2.2l-0.8-3.8h-2.7l-0.8,3.8H1247z M1250.2,302.7h2.2l-1.1-6.5
			L1250.2,302.7z"/>
		<path class="st2" d="M1261,308.3c-0.7,0-1.3-0.1-1.8-0.3c-0.5-0.2-0.9-0.5-1.2-0.8c-0.3-0.3-0.6-0.8-0.8-1.3
			c-0.2-0.5-0.3-1.1-0.4-1.7s-0.1-1.3-0.1-2v-3.8c0-3.7,1.5-5.6,4.4-5.6c0.7,0,1.3,0.1,1.8,0.3c0.5,0.2,0.9,0.5,1.3,0.9
			c0.3,0.4,0.6,0.9,0.7,1.4c0.2,0.5,0.3,1.2,0.3,1.9c0,0.1,0,0.3,0,0.5h-2.2v-0.5c0-0.4,0-0.7-0.1-0.9c0-0.3-0.1-0.5-0.2-0.8
			c-0.1-0.2-0.2-0.5-0.3-0.6c-0.1-0.2-0.3-0.3-0.6-0.4c-0.2-0.1-0.5-0.1-0.8-0.1c-0.4,0-0.8,0.1-1.1,0.2c-0.3,0.2-0.5,0.4-0.7,0.7
			c-0.2,0.3-0.3,0.6-0.3,1c-0.1,0.4-0.1,0.8-0.1,1.3v4.9c0,0.4,0,0.7,0,1s0.1,0.6,0.1,0.9c0.1,0.3,0.1,0.6,0.2,0.8
			c0.1,0.2,0.2,0.4,0.4,0.6c0.2,0.2,0.4,0.3,0.6,0.4s0.5,0.1,0.8,0.1c0.4,0,0.7-0.1,0.9-0.2c0.3-0.1,0.5-0.3,0.6-0.5
			c0.2-0.2,0.3-0.5,0.4-0.9c0.1-0.3,0.2-0.7,0.2-1s0-0.7,0-1.2v-0.5h-2.2v-1.6h4.3v7.6h-1.6l-0.5-1.6
			C1262.7,307.7,1262,308.3,1261,308.3z"/>
		<path class="st2" d="M1267,308.1v-15.2h6v1.6h-3.8v4.9h2.7v1.6h-2.7v5.4h3.8v1.6h-6V308.1z"/>
		<path class="st2" d="M1274.3,308.1v-15.2h1.6l3.8,9.4v-9.4h2.2v15.2h-1.5l-3.9-10.1v10.1H1274.3z"/>
		<path class="st2" d="M1288,308.3c-0.6,0-1.2-0.1-1.7-0.3c-0.5-0.2-0.9-0.4-1.2-0.7c-0.3-0.3-0.6-0.7-0.8-1.2
			c-0.2-0.5-0.3-1-0.4-1.5s-0.1-1.2-0.1-1.8v-4.3c0-0.7,0-1.3,0.1-1.8s0.2-1.1,0.4-1.5c0.2-0.5,0.4-0.9,0.8-1.2
			c0.3-0.3,0.7-0.6,1.2-0.7c0.5-0.2,1-0.3,1.7-0.3s1.3,0.1,1.8,0.3c0.5,0.2,0.9,0.5,1.2,0.9c0.3,0.4,0.5,0.9,0.7,1.4
			s0.2,1.2,0.3,1.9c0,0.1,0,0.3,0,0.5h-2.2v-0.5c0-0.3,0-0.6,0-0.8c0-0.2,0-0.4-0.1-0.7c0-0.2-0.1-0.4-0.2-0.6
			c-0.1-0.1-0.2-0.3-0.3-0.4c-0.1-0.1-0.3-0.2-0.5-0.3c-0.2-0.1-0.4-0.1-0.7-0.1c-0.4,0-0.7,0.1-0.9,0.2c-0.3,0.1-0.4,0.3-0.6,0.4
			c-0.1,0.2-0.3,0.4-0.3,0.7c-0.1,0.3-0.1,0.6-0.1,0.9s0,0.6,0,1.1v5.4c0,0.4,0,0.7,0,1s0.1,0.6,0.2,0.9s0.2,0.5,0.4,0.7
			c0.1,0.2,0.3,0.4,0.6,0.5c0.2,0.1,0.5,0.2,0.8,0.2s0.6-0.1,0.8-0.2c0.2-0.1,0.4-0.3,0.5-0.5s0.2-0.4,0.3-0.7
			c0.1-0.3,0.1-0.6,0.1-0.9s0-0.6,0-1v-0.5h2.2v0.5c0,0.8-0.1,1.5-0.2,2.1s-0.4,1.1-0.7,1.6c-0.3,0.5-0.7,0.8-1.3,1
			C1289.4,308.1,1288.8,308.3,1288,308.3z"/>
		<path class="st2" d="M1293.6,308.1v-15.2h2.2v15.2H1293.6z"/>
		<path class="st2" d="M1298.1,308.1v-15.2h6v1.6h-3.8v4.9h2.7v1.6h-2.7v5.4h3.8v1.6h-6V308.1z"/>
		<path class="st2" d="M1309.4,308.3c-1.4,0-2.4-0.4-3.1-1.2c-0.7-0.8-1.1-1.9-1.2-3.3l2.2-0.5c0.1,2.2,0.8,3.3,2.2,3.3
			c1.1,0,1.6-0.5,1.6-1.6c0-0.3,0-0.6-0.1-0.9s-0.2-0.5-0.4-0.8c-0.2-0.2-0.3-0.4-0.5-0.6c-0.1-0.1-0.3-0.3-0.6-0.5l-2.7-2.2
			c-0.5-0.4-0.9-0.9-1.2-1.5c-0.3-0.6-0.4-1.3-0.4-2.1c0-1.1,0.3-2,1-2.7s1.6-1,2.8-1c1.2,0,2.2,0.3,2.9,0.9
			c0.7,0.6,1.2,1.5,1.3,2.6c0,0.1,0,0.3,0.1,0.5l-2.2,0.5c0-0.1,0-0.2,0-0.4c-0.1-0.7-0.3-1.2-0.6-1.7c-0.3-0.4-0.8-0.6-1.5-0.6
			c-0.5,0-0.9,0.1-1.2,0.4c-0.3,0.3-0.4,0.7-0.4,1.2c0,0.9,0.4,1.6,1.1,2.1l2.7,2.2c1.4,1.2,2.2,2.6,2.2,4.2c0,1.1-0.3,2-1,2.6
			C1311.4,307.9,1310.5,308.3,1309.4,308.3z"/>
	</g>
	<g>
		<path class="st2" d="M803.3,35.2V20h1.6l3.8,9.4V20h2.2v15.2h-1.5l-3.9-10.1v10.1H803.3z"/>
		<path class="st2" d="M813.1,35.2V20h1.6l3.8,9.4V20h2.2v15.2h-1.5l-3.9-10.1v10.1H813.1z"/>
		<path class="st2" d="M826.9,35.4c-0.7,0-1.3-0.1-1.8-0.3s-0.9-0.5-1.2-0.8s-0.6-0.8-0.8-1.3s-0.3-1.1-0.4-1.7
			c-0.1-0.6-0.1-1.3-0.1-2v-3.8c0-3.7,1.5-5.6,4.4-5.6c0.7,0,1.3,0.1,1.8,0.3c0.5,0.2,0.9,0.5,1.3,0.9c0.3,0.4,0.6,0.9,0.7,1.4
			c0.2,0.5,0.3,1.2,0.3,1.9c0,0.1,0,0.3,0,0.5H829v-0.5c0-0.4,0-0.7-0.1-0.9c0-0.3-0.1-0.5-0.2-0.8c-0.1-0.2-0.2-0.5-0.3-0.6
			c-0.1-0.2-0.3-0.3-0.6-0.4c-0.2-0.1-0.5-0.1-0.8-0.1c-0.4,0-0.8,0.1-1.1,0.2c-0.3,0.2-0.5,0.4-0.7,0.7c-0.2,0.3-0.3,0.6-0.3,1
			c-0.1,0.4-0.1,0.8-0.1,1.3v4.9c0,0.4,0,0.7,0,1s0.1,0.6,0.1,0.9c0.1,0.3,0.1,0.6,0.2,0.8c0.1,0.2,0.2,0.4,0.4,0.6
			c0.2,0.2,0.4,0.3,0.6,0.4c0.2,0.1,0.5,0.1,0.8,0.1c0.4,0,0.7-0.1,0.9-0.2c0.3-0.1,0.5-0.3,0.6-0.5c0.2-0.2,0.3-0.5,0.4-0.9
			c0.1-0.3,0.2-0.7,0.2-1s0-0.7,0-1.2v-0.5h-2.2v-1.6h4.3v7.6h-1.6l-0.5-1.6C828.7,34.8,828,35.4,826.9,35.4z"/>
		<path class="st2" d="M837,35.4c-0.8,0-1.4-0.1-2-0.3c-0.5-0.2-1-0.6-1.3-1s-0.6-1-0.7-1.6c-0.1-0.6-0.2-1.3-0.2-2.1v-5.5
			c0-0.8,0.1-1.5,0.2-2.1c0.1-0.6,0.4-1.1,0.7-1.5s0.8-0.8,1.3-1s1.2-0.3,2-0.3c1.5,0,2.5,0.4,3.2,1.3c0.7,0.8,1,2.1,1,3.7v5.5
			c0,0.8-0.1,1.5-0.2,2.1c-0.2,0.6-0.4,1.1-0.7,1.6c-0.3,0.4-0.8,0.8-1.3,1C838.4,35.3,837.7,35.4,837,35.4z M835.4,32.9
			c0.3,0.5,0.8,0.7,1.6,0.7s1.3-0.2,1.6-0.7s0.4-1.1,0.4-2v-6.6c0-0.9-0.1-1.5-0.4-2c-0.3-0.4-0.8-0.7-1.6-0.7s-1.3,0.2-1.6,0.7
			c-0.3,0.4-0.4,1.1-0.4,2v6.6C834.9,31.8,835.1,32.4,835.4,32.9z"/>
		<path class="st2" d="M845.8,35.4c-0.9,0-1.6-0.3-2.1-0.8s-0.9-1.2-1.1-2.1l1.6-0.5c0.4,1.1,0.9,1.6,1.6,1.6c0.3,0,0.6-0.1,0.8-0.3
			s0.3-0.5,0.3-0.8c0-0.5-0.2-0.9-0.5-1.3l-2.2-1.6c-0.2-0.2-0.4-0.3-0.6-0.5c-0.2-0.1-0.3-0.3-0.5-0.5s-0.3-0.4-0.4-0.7
			c-0.1-0.3-0.1-0.5-0.1-0.8c0-0.9,0.3-1.6,0.9-2.1c0.6-0.5,1.4-0.7,2.4-0.7c0.5,0,0.9,0.1,1.3,0.2c0.4,0.2,0.7,0.4,1,0.6
			c0.3,0.3,0.5,0.6,0.6,0.9c0.2,0.3,0.3,0.7,0.4,1.1l-1.6,0.5c-0.1-0.2-0.2-0.4-0.2-0.6c-0.1-0.2-0.2-0.3-0.3-0.5s-0.3-0.3-0.5-0.4
			S846.2,26,846,26c-0.3,0-0.6,0.1-0.8,0.3c-0.2,0.2-0.3,0.5-0.3,0.8s0.2,0.6,0.5,0.9l2.2,1.6c0.2,0.2,0.5,0.4,0.6,0.6
			c0.2,0.2,0.3,0.4,0.5,0.6s0.3,0.5,0.4,0.8c0.1,0.3,0.1,0.6,0.1,0.9c0,0.9-0.3,1.6-0.9,2.1C847.6,35.1,846.8,35.4,845.8,35.4z"/>
	</g>
	<g>
		<path class="st2" d="M921.4,123.7v-15.2h2.2v15.2H921.4z"/>
		<path class="st2" d="M925.9,123.7v-15.2h1.6l3.8,9.4v-9.4h2.2v15.2H932l-3.9-10.1v10.1H925.9z"/>
		<path class="st2" d="M939.7,123.8c-0.7,0-1.3-0.1-1.8-0.3c-0.5-0.2-0.9-0.5-1.2-0.8s-0.6-0.8-0.8-1.3s-0.3-1.1-0.4-1.7
			s-0.1-1.3-0.1-2v-3.8c0-3.7,1.5-5.6,4.4-5.6c0.7,0,1.3,0.1,1.8,0.3c0.5,0.2,0.9,0.5,1.3,0.9c0.3,0.4,0.6,0.9,0.7,1.4
			c0.2,0.5,0.3,1.2,0.3,1.9c0,0.1,0,0.3,0,0.5h-2.2v-0.5c0-0.4,0-0.7-0.1-0.9c0-0.3-0.1-0.5-0.2-0.8c-0.1-0.2-0.2-0.5-0.3-0.6
			c-0.1-0.2-0.3-0.3-0.6-0.4c-0.2-0.1-0.5-0.1-0.8-0.1c-0.4,0-0.8,0.1-1.1,0.2c-0.3,0.2-0.5,0.4-0.7,0.7c-0.2,0.3-0.3,0.6-0.3,1
			c-0.1,0.4-0.1,0.8-0.1,1.3v4.9c0,0.4,0,0.7,0,1s0.1,0.6,0.1,0.9c0.1,0.3,0.1,0.6,0.2,0.8c0.1,0.2,0.2,0.4,0.4,0.6s0.4,0.3,0.6,0.4
			c0.2,0.1,0.5,0.1,0.8,0.1c0.4,0,0.7-0.1,0.9-0.2c0.3-0.1,0.5-0.3,0.6-0.5c0.2-0.2,0.3-0.5,0.4-0.9c0.1-0.3,0.2-0.7,0.2-1
			s0-0.7,0-1.2v-0.5h-2.2V116h4.3v7.6h-1.6l-0.5-1.6C941.5,123.2,940.8,123.8,939.7,123.8z"/>
		<path class="st2" d="M949.8,123.8c-0.8,0-1.4-0.1-2-0.3c-0.5-0.2-1-0.6-1.3-1s-0.6-1-0.7-1.6c-0.1-0.6-0.2-1.3-0.2-2.1v-5.5
			c0-0.8,0.1-1.5,0.2-2.1c0.1-0.6,0.4-1.1,0.7-1.5s0.8-0.8,1.3-1s1.2-0.3,2-0.3c1.5,0,2.5,0.4,3.2,1.3s1,2.1,1,3.7v5.5
			c0,0.8-0.1,1.5-0.2,2.1c-0.2,0.6-0.4,1.1-0.7,1.6c-0.3,0.4-0.8,0.8-1.3,1C951.2,123.7,950.5,123.8,949.8,123.8z M948.2,121.4
			c0.3,0.5,0.8,0.7,1.6,0.7s1.3-0.2,1.6-0.7s0.4-1.1,0.4-2v-6.6c0-0.9-0.1-1.5-0.4-2c-0.3-0.4-0.8-0.7-1.6-0.7s-1.3,0.2-1.6,0.7
			c-0.3,0.4-0.4,1.1-0.4,2v6.6C947.7,120.2,947.9,120.9,948.2,121.4z"/>
		<path class="st2" d="M958.6,123.8c-0.9,0-1.6-0.3-2.1-0.8s-0.9-1.2-1.1-2.1l1.6-0.5c0.4,1.1,0.9,1.6,1.6,1.6
			c0.3,0,0.6-0.1,0.8-0.3c0.2-0.2,0.3-0.5,0.3-0.8c0-0.5-0.2-0.9-0.5-1.3L957,118c-0.2-0.2-0.4-0.3-0.6-0.5
			c-0.2-0.1-0.3-0.3-0.5-0.5s-0.3-0.4-0.4-0.7c-0.1-0.3-0.1-0.5-0.1-0.8c0-0.9,0.3-1.6,0.9-2.1c0.6-0.5,1.4-0.7,2.4-0.7
			c0.5,0,0.9,0.1,1.3,0.2c0.4,0.2,0.7,0.4,1,0.6c0.3,0.3,0.5,0.6,0.6,0.9c0.2,0.3,0.3,0.7,0.4,1.1l-1.6,0.5
			c-0.1-0.2-0.2-0.4-0.2-0.6c-0.1-0.2-0.2-0.3-0.3-0.5s-0.3-0.3-0.5-0.4s-0.4-0.1-0.6-0.1c-0.3,0-0.6,0.1-0.8,0.3
			c-0.2,0.2-0.3,0.5-0.3,0.8s0.2,0.6,0.5,0.9l2.2,1.6c0.2,0.2,0.5,0.4,0.6,0.6c0.2,0.2,0.3,0.4,0.5,0.6s0.3,0.5,0.4,0.8
			c0.1,0.3,0.1,0.6,0.1,0.9c0,0.9-0.3,1.6-0.9,2.1C960.4,123.6,959.6,123.8,958.6,123.8z"/>
	</g>
	<g>
		<path class="st2" d="M1150.5,284.6c-0.8,0-1.4-0.1-2-0.3c-0.5-0.2-1-0.6-1.3-1s-0.6-1-0.7-1.6s-0.2-1.3-0.2-2.1V274
			c0-0.8,0.1-1.5,0.2-2.1s0.4-1.1,0.7-1.5c0.3-0.4,0.8-0.8,1.3-1s1.2-0.3,2-0.3c1.5,0,2.5,0.4,3.2,1.3s1,2.1,1,3.7v5.5
			c0,0.8-0.1,1.5-0.2,2.1c-0.2,0.6-0.4,1.1-0.7,1.6c-0.3,0.4-0.8,0.8-1.3,1C1151.9,284.4,1151.2,284.6,1150.5,284.6z M1148.9,282.1
			c0.3,0.5,0.8,0.7,1.6,0.7c0.8,0,1.3-0.2,1.6-0.7c0.3-0.5,0.4-1.1,0.4-2v-6.6c0-0.9-0.1-1.5-0.4-2c-0.3-0.4-0.8-0.7-1.6-0.7
			c-0.8,0-1.3,0.2-1.6,0.7c-0.3,0.4-0.4,1.1-0.4,2v6.6C1148.4,281,1148.6,281.6,1148.9,282.1z"/>
		<path class="st2" d="M1158.2,284.4v-13.3h-2.7v-1.9h7.6v1.9h-2.7v13.3H1158.2z"/>
		<path class="st2" d="M1164.1,284.4v-15.2h2.2v6.5h3.8v-6.5h2.2v15.2h-2.2v-7.1h-3.8v7.1H1164.1z"/>
		<path class="st2" d="M1174.4,284.4v-15.2h6v1.6h-3.8v4.9h2.7v1.6h-2.7v5.4h3.8v1.6h-6V284.4z"/>
		<path class="st2" d="M1181.7,284.4v-15.2h2.7c1.6,0,2.8,0.3,3.7,0.9c0.8,0.6,1.2,1.7,1.2,3.1c0,0.9-0.2,1.7-0.5,2.3
			c-0.3,0.6-0.8,1-1.4,1.3l2.4,7.6h-2.2l-2.2-7.1h-1.6v7.1L1181.7,284.4L1181.7,284.4z M1183.9,275.7h0.5c0.9,0,1.6-0.2,2-0.6
			c0.5-0.4,0.7-1,0.7-1.9s-0.2-1.5-0.7-1.9s-1.1-0.6-2-0.6h-0.5V275.7z"/>
	</g>
	<g>
		<g>
			<path class="st2" d="M1013.8,201.7c-0.7,0-1.3-0.1-1.8-0.3s-0.9-0.5-1.2-0.8s-0.6-0.8-0.8-1.3s-0.3-1.1-0.4-1.7
				c-0.1-0.6-0.1-1.3-0.1-2v-3.8c0-3.7,1.5-5.6,4.4-5.6c0.7,0,1.3,0.1,1.8,0.3s0.9,0.5,1.3,0.9c0.3,0.4,0.6,0.9,0.7,1.4
				c0.2,0.5,0.3,1.2,0.3,1.9c0,0.1,0,0.3,0,0.5h-2.2v-0.5c0-0.4,0-0.7-0.1-0.9c0-0.3-0.1-0.5-0.2-0.8c-0.1-0.2-0.2-0.5-0.3-0.6
				c-0.1-0.2-0.3-0.3-0.6-0.4c-0.2-0.1-0.5-0.1-0.8-0.1c-0.4,0-0.8,0.1-1.1,0.2c-0.3,0.2-0.5,0.4-0.7,0.7s-0.3,0.6-0.3,1
				c-0.1,0.4-0.1,0.8-0.1,1.3v4.9c0,0.4,0,0.7,0,1s0.1,0.6,0.1,0.9c0.1,0.3,0.1,0.6,0.2,0.8c0.1,0.2,0.2,0.4,0.4,0.6
				c0.2,0.2,0.4,0.3,0.6,0.4c0.2,0.1,0.5,0.1,0.8,0.1c0.4,0,0.7-0.1,0.9-0.2c0.3-0.1,0.5-0.3,0.6-0.5c0.2-0.2,0.3-0.5,0.4-0.9
				s0.2-0.7,0.2-1s0-0.7,0-1.2v-0.5h-2.2v-1.6h4.3v7.6h-1.6l-0.5-1.6C1015.6,201.1,1014.8,201.7,1013.8,201.7z"/>
			<path class="st2" d="M1023.8,201.7c-0.8,0-1.4-0.1-2-0.3c-0.5-0.2-1-0.6-1.3-1s-0.6-1-0.7-1.6c-0.1-0.6-0.2-1.3-0.2-2.1v-5.5
				c0-0.8,0.1-1.5,0.2-2.1c0.1-0.6,0.4-1.1,0.7-1.5s0.8-0.8,1.3-1s1.2-0.3,2-0.3c1.5,0,2.5,0.4,3.2,1.3s1,2.1,1,3.7v5.5
				c0,0.8-0.1,1.5-0.2,2.1c-0.2,0.6-0.4,1.1-0.7,1.6c-0.3,0.4-0.8,0.8-1.3,1C1025.2,201.6,1024.6,201.7,1023.8,201.7z M1022.3,199.2
				c0.3,0.5,0.8,0.7,1.6,0.7s1.3-0.2,1.6-0.7s0.4-1.1,0.4-2v-6.6c0-0.9-0.1-1.5-0.4-2c-0.3-0.4-0.8-0.7-1.6-0.7s-1.3,0.2-1.6,0.7
				c-0.3,0.4-0.4,1.1-0.4,2v6.6C1021.8,198.1,1022,198.8,1022.3,199.2z"/>
			<path class="st2" d="M1032.2,201.5l-3.3-15.2h2.2l1.6,8.1l0.6,3.8l0.6-3.8l1.6-8.1h2.2l-3.3,15.2H1032.2z"/>
			<path class="st2" d="M1038.8,201.5v-15.2h6v1.6h-3.8v4.9h2.7v1.6h-2.7v5.4h3.8v1.6L1038.8,201.5L1038.8,201.5z"/>
			<path class="st2" d="M1046.1,201.5v-15.2h2.7c1.6,0,2.8,0.3,3.7,0.9c0.8,0.6,1.2,1.7,1.2,3.1c0,0.9-0.2,1.7-0.5,2.3
				s-0.8,1-1.4,1.3l2.4,7.6h-2.2l-2.2-7.1h-1.6v7.1L1046.1,201.5L1046.1,201.5z M1048.3,192.8h0.5c0.9,0,1.6-0.2,2-0.6
				c0.5-0.4,0.7-1,0.7-1.9s-0.2-1.5-0.7-1.9s-1.1-0.6-2-0.6h-0.5V192.8z"/>
			<path class="st2" d="M1055.5,201.5v-15.2h1.6l3.8,9.4v-9.4h2.2v15.2h-1.5l-3.9-10.1v10.1H1055.5z"/>
			<path class="st2" d="M1065.3,201.5v-15.2h3l2.2,11.6l2.2-11.6h3v15.2h-2.2v-12l-2.2,12h-1.6l-2.2-12v12H1065.3z"/>
			<path class="st2" d="M1077.7,201.5v-15.2h6v1.6h-3.8v4.9h2.7v1.6h-2.7v5.4h3.8v1.6L1077.7,201.5L1077.7,201.5z"/>
			<path class="st2" d="M1085,201.5v-15.2h1.6l3.8,9.4v-9.4h2.2v15.2h-1.5l-3.9-10.1v10.1H1085z"/>
			<path class="st2" d="M1096.4,201.5v-13.3h-2.7v-1.9h7.6v1.9h-2.7v13.3H1096.4z"/>
		</g>
		<g>
			<path class="st2" d="M1022.3,222.4l3.3-15.2h2.2l3.3,15.2h-2.2l-0.8-3.8h-2.7l-0.8,3.8H1022.3z M1025.6,216.9h2.2l-1.1-6.5
				L1025.6,216.9z"/>
			<path class="st2" d="M1036.3,222.5c-0.7,0-1.3-0.1-1.8-0.3s-0.9-0.5-1.2-0.8c-0.3-0.3-0.6-0.8-0.8-1.3c-0.2-0.5-0.3-1.1-0.4-1.7
				c-0.1-0.6-0.1-1.3-0.1-2v-3.8c0-3.7,1.5-5.6,4.4-5.6c0.7,0,1.3,0.1,1.8,0.3s0.9,0.5,1.3,0.9c0.3,0.4,0.6,0.9,0.7,1.4
				c0.2,0.5,0.3,1.2,0.3,1.9c0,0.1,0,0.3,0,0.5h-2.2v-0.5c0-0.4,0-0.7-0.1-0.9c0-0.3-0.1-0.5-0.2-0.8c-0.1-0.2-0.2-0.5-0.3-0.6
				c-0.1-0.2-0.3-0.3-0.6-0.4c-0.2-0.1-0.5-0.1-0.8-0.1c-0.4,0-0.8,0.1-1.1,0.2c-0.3,0.2-0.5,0.4-0.7,0.7s-0.3,0.6-0.3,1
				c-0.1,0.4-0.1,0.8-0.1,1.3v4.9c0,0.4,0,0.7,0,1s0.1,0.6,0.1,0.9c0.1,0.3,0.1,0.6,0.2,0.8s0.2,0.4,0.4,0.6
				c0.2,0.2,0.4,0.3,0.6,0.4c0.2,0.1,0.5,0.1,0.8,0.1c0.4,0,0.7-0.1,0.9-0.2c0.3-0.1,0.5-0.3,0.6-0.5c0.2-0.2,0.3-0.5,0.4-0.9
				c0.1-0.3,0.2-0.7,0.2-1s0-0.7,0-1.2v-0.5h-2.2v-1.6h4.3v7.6h-1.6l-0.5-1.6C1038,221.9,1037.3,222.5,1036.3,222.5z"/>
			<path class="st2" d="M1042.4,222.4v-15.2h6v1.6h-3.8v4.9h2.7v1.6h-2.7v5.4h3.8v1.6L1042.4,222.4L1042.4,222.4z"/>
			<path class="st2" d="M1049.7,222.4v-15.2h1.6l3.8,9.4v-9.4h2.2v15.2h-1.5l-3.9-10.1v10.1H1049.7z"/>
			<path class="st2" d="M1063.3,222.5c-0.6,0-1.2-0.1-1.7-0.3s-0.9-0.4-1.2-0.7c-0.3-0.3-0.6-0.7-0.8-1.2c-0.2-0.5-0.3-1-0.4-1.5
				s-0.1-1.2-0.1-1.8v-4.3c0-0.7,0-1.3,0.1-1.8s0.2-1.1,0.4-1.5c0.2-0.5,0.4-0.9,0.8-1.2c0.3-0.3,0.7-0.6,1.2-0.7s1-0.3,1.7-0.3
				s1.3,0.1,1.8,0.3s0.9,0.5,1.2,0.9c0.3,0.4,0.5,0.9,0.7,1.4s0.2,1.2,0.3,1.9c0,0.1,0,0.3,0,0.5h-2.2v-0.5c0-0.3,0-0.6,0-0.8
				s0-0.4-0.1-0.7c0-0.2-0.1-0.4-0.2-0.6c-0.1-0.1-0.2-0.3-0.3-0.4c-0.1-0.1-0.3-0.2-0.5-0.3s-0.4-0.1-0.7-0.1
				c-0.4,0-0.7,0.1-0.9,0.2c-0.3,0.1-0.4,0.3-0.6,0.4c-0.1,0.2-0.3,0.4-0.3,0.7c-0.1,0.3-0.1,0.6-0.1,0.9c0,0.3,0,0.6,0,1.1v5.4
				c0,0.4,0,0.7,0,1s0.1,0.6,0.2,0.9c0.1,0.3,0.2,0.5,0.4,0.7c0.1,0.2,0.3,0.4,0.6,0.5c0.2,0.1,0.5,0.2,0.8,0.2s0.6-0.1,0.8-0.2
				c0.2-0.1,0.4-0.3,0.5-0.5s0.2-0.4,0.3-0.7c0.1-0.3,0.1-0.6,0.1-0.9s0-0.6,0-1V217h2.2v0.5c0,0.8-0.1,1.5-0.2,2.1
				s-0.4,1.1-0.7,1.6c-0.3,0.5-0.7,0.8-1.3,1C1064.7,222.4,1064.1,222.5,1063.3,222.5z"/>
			<path class="st2" d="M1068.9,222.4v-15.2h2.2v15.2H1068.9z"/>
			<path class="st2" d="M1073.4,222.4v-15.2h6v1.6h-3.8v4.9h2.7v1.6h-2.7v5.4h3.8v1.6L1073.4,222.4L1073.4,222.4z"/>
			<path class="st2" d="M1084.7,222.5c-1.4,0-2.4-0.4-3.1-1.2s-1.1-1.9-1.2-3.3l2.2-0.5c0.1,2.2,0.8,3.3,2.2,3.3
				c1.1,0,1.6-0.5,1.6-1.6c0-0.3,0-0.6-0.1-0.9c-0.1-0.3-0.2-0.5-0.4-0.8c-0.2-0.2-0.3-0.4-0.5-0.6c-0.1-0.1-0.3-0.3-0.6-0.5
				l-2.7-2.2c-0.5-0.4-0.9-0.9-1.2-1.5c-0.3-0.6-0.4-1.3-0.4-2.1c0-1.1,0.3-2,1-2.7s1.6-1,2.8-1c1.2,0,2.2,0.3,2.9,0.9
				c0.7,0.6,1.2,1.5,1.3,2.6c0,0.1,0,0.3,0.1,0.5l-2.2,0.5c0-0.1,0-0.2,0-0.4c-0.1-0.7-0.3-1.2-0.6-1.7c-0.3-0.4-0.8-0.6-1.5-0.6
				c-0.5,0-0.9,0.1-1.2,0.4c-0.3,0.3-0.4,0.7-0.4,1.2c0,0.9,0.4,1.6,1.1,2.1l2.7,2.2c1.4,1.2,2.2,2.6,2.2,4.2c0,1.1-0.3,2-1,2.6
				C1086.8,222.2,1085.8,222.5,1084.7,222.5z"/>
		</g>
	</g>
</g>
<g>
	<g>
		<g>
			<path class="st2" d="M144.1,20.2H143l-4.8-11.3h-0.1c0.1,0.8,0.1,1.5,0.1,2.3v9h-0.8V7.6h1.1l4.7,11.1h0.1c0-0.9-0.1-1.7-0.1-2.4
				V7.6h0.8v12.6H144.1z"/>
			<path class="st2" d="M153.5,20.2h-1.1l-4.8-11.3h-0.1c0.1,0.8,0.1,1.5,0.1,2.3v9h-0.8V7.6h1.1l4.7,11.1h0.1
				c0-0.9-0.1-1.7-0.1-2.4V7.6h0.8v12.6H153.5z"/>
			<path class="st2" d="M160.3,13.9h2.8v6c-1,0.4-2,0.6-3,0.6c-1.4,0-2.4-0.6-3.2-1.7s-1.1-2.7-1.1-4.8c0-2,0.4-3.6,1.2-4.7
				s1.9-1.7,3.3-1.7c1,0,1.8,0.3,2.7,0.8L162.5,9c-0.8-0.5-1.6-0.8-2.3-0.8c-1.2,0-2.1,0.5-2.7,1.4c-0.6,1-0.9,2.4-0.9,4.2
				s0.3,3.2,0.9,4.2c0.6,1,1.5,1.5,2.6,1.5c0.8,0,1.5-0.1,2.1-0.3v-4.6h-1.9L160.3,13.9L160.3,13.9z"/>
			<path class="st2" d="M172.3,13.9c0,2.1-0.3,3.7-0.9,4.8c-0.6,1.1-1.5,1.7-2.7,1.7s-2.1-0.6-2.7-1.7c-0.6-1.1-0.9-2.7-0.9-4.8
				c0-2.2,0.3-3.8,0.9-4.8c0.6-1.1,1.5-1.6,2.7-1.6s2.1,0.6,2.7,1.7C172,10.2,172.3,11.8,172.3,13.9z M165.9,13.9
				c0,1.9,0.2,3.3,0.7,4.2c0.5,1,1.1,1.4,2,1.4s1.6-0.5,2.1-1.4s0.7-2.4,0.7-4.2c0-1.9-0.2-3.3-0.7-4.2s-1.1-1.4-2-1.4
				s-1.6,0.5-2.1,1.4C166.1,10.7,165.9,12.1,165.9,13.9z"/>
			<path class="st2" d="M179.4,16.9c0,1-0.3,1.9-0.9,2.5c-0.6,0.6-1.3,1-2.2,1c-1,0-1.8-0.1-2.4-0.4v-1c0.3,0.2,0.7,0.3,1.1,0.4
				c0.4,0.1,0.9,0.1,1.3,0.1c0.6,0,1.2-0.2,1.6-0.7c0.4-0.5,0.6-1.1,0.6-1.9c0-0.7-0.1-1.2-0.4-1.7c-0.3-0.4-0.9-0.8-1.7-1.2
				c-0.6-0.3-1.1-0.6-1.5-0.9c-0.3-0.3-0.6-0.7-0.7-1.1c-0.2-0.4-0.2-0.9-0.2-1.5s0.1-1.2,0.4-1.7c0.3-0.5,0.6-0.9,1.1-1.1
				c0.5-0.3,0.9-0.4,1.5-0.4c0.5,0,0.9,0.1,1.3,0.2c0.4,0.1,0.7,0.2,0.9,0.4l-0.3,0.8c-0.6-0.3-1.3-0.5-1.9-0.5
				c-0.6,0-1.1,0.2-1.5,0.6s-0.6,1-0.6,1.7s0.1,1.3,0.4,1.6c0.3,0.4,0.8,0.8,1.7,1.2c0.8,0.4,1.5,0.9,1.9,1.4
				C179.2,15.4,179.4,16.1,179.4,16.9z"/>
			<g>
				<path class="st2" d="M111.1,17.6h-1.3v2.6h-2.2v-2.6h-4.1v-1.9l3.8-8h2.5v7.9h1.3V17.6z M107.7,15.7v-2.6l0-1.2l0.1-1.1h-0.1
					c-0.2,0.6-0.4,1.2-0.6,1.7l-1.5,3.2H107.7z"/>
				<path class="st2" d="M115.4,7.6c1,0,1.7,0.3,2.3,0.8c0.6,0.6,0.9,1.3,0.9,2.2c0,0.6-0.1,1.1-0.4,1.6c-0.3,0.5-0.7,0.9-1.4,1.4
					c0.7,0.5,1.2,1,1.6,1.6c0.3,0.5,0.5,1.1,0.5,1.8c0,1-0.3,1.8-0.9,2.5c-0.6,0.6-1.5,0.9-2.5,0.9c-1.1,0-1.9-0.3-2.5-0.9
					S112,18.1,112,17c0-0.7,0.2-1.3,0.5-1.9c0.3-0.5,0.8-1,1.4-1.4c-0.6-0.5-1-0.9-1.3-1.4s-0.4-1-0.4-1.6c0-0.9,0.3-1.7,0.9-2.2
					C113.7,7.9,114.5,7.6,115.4,7.6z M114.2,16.9c0,0.5,0.1,0.9,0.3,1.2s0.5,0.4,0.9,0.4c0.4,0,0.7-0.1,0.9-0.4
					c0.2-0.3,0.3-0.7,0.3-1.2c0-0.4-0.1-0.7-0.2-1c-0.2-0.3-0.5-0.7-1-1.1l-0.1-0.1c-0.4,0.3-0.7,0.6-0.8,0.9
					C114.3,16,114.2,16.4,114.2,16.9z M115.4,9.4c-0.3,0-0.6,0.1-0.7,0.4s-0.2,0.6-0.2,1c0,0.4,0.1,0.7,0.2,1s0.4,0.6,0.8,0.9
					c0.4-0.3,0.6-0.6,0.8-0.9c0.1-0.3,0.2-0.6,0.2-1C116.4,9.8,116.1,9.4,115.4,9.4z"/>
				<path class="st2" d="M125,11.5c0,1.3-0.2,2.3-0.6,2.9c-0.4,0.7-1.1,1-1.9,1c-0.8,0-1.5-0.3-1.9-1s-0.6-1.6-0.6-2.9
					c0-2.6,0.8-3.9,2.5-3.9C124.1,7.6,125,8.9,125,11.5z M121.8,11.5c0,0.8,0.1,1.4,0.2,1.7s0.3,0.5,0.5,0.5c0.2,0,0.4-0.2,0.5-0.5
					s0.2-0.9,0.2-1.7s-0.1-1.4-0.2-1.7s-0.3-0.5-0.5-0.5c-0.2,0-0.4,0.2-0.5,0.5S121.8,10.7,121.8,11.5z M129.5,7.8l-5.1,12.5h-1.8
					l5.1-12.5H129.5z M132.2,16.4c0,1.3-0.2,2.3-0.6,2.9s-1.1,1-1.9,1c-0.9,0-1.5-0.3-1.9-1c-0.4-0.7-0.6-1.6-0.6-2.9
					c0-1.3,0.2-2.2,0.6-2.9c0.4-0.7,1-1,1.9-1C131.3,12.5,132.2,13.8,132.2,16.4z M129,16.5c0,0.8,0.1,1.4,0.2,1.7s0.3,0.5,0.5,0.5
					s0.4-0.2,0.5-0.5s0.2-0.9,0.2-1.7s-0.1-1.4-0.2-1.7s-0.3-0.5-0.5-0.5s-0.4,0.2-0.5,0.5C129.1,15.1,129,15.7,129,16.5z"/>
			</g>
		</g>
		<g>
			<path class="st2" d="M115.2,41.2c0,0.8-0.2,1.4-0.6,2s-0.9,0.9-1.6,1.1v0.1c0.8,0.1,1.4,0.4,1.8,0.9c0.4,0.5,0.6,1.2,0.6,2
				c0,1.1-0.4,2.1-1.1,2.7s-1.7,1-2.9,1c-1.1,0-2-0.2-2.8-0.6v-2.1c0.4,0.2,0.8,0.4,1.2,0.5s0.9,0.2,1.3,0.2c0.7,0,1.2-0.2,1.5-0.5
				c0.3-0.3,0.5-0.8,0.5-1.4c0-1.2-0.8-1.9-2.3-1.9h-0.7v-1.7h0.7c0.7,0,1.2-0.2,1.6-0.5c0.4-0.3,0.5-0.8,0.5-1.4
				c0-0.5-0.1-0.9-0.3-1.1c-0.2-0.3-0.6-0.4-1-0.4c-0.6,0-1.3,0.3-1.9,0.8l-1-1.5c0.8-0.8,1.9-1.3,3.2-1.3c1.1,0,1.9,0.3,2.5,0.8
				S115.2,40.3,115.2,41.2z"/>
			<path class="st2" d="M120.2,38.3c1,0,1.7,0.3,2.3,0.8c0.6,0.6,0.9,1.3,0.9,2.2c0,0.6-0.1,1.1-0.4,1.6c-0.3,0.5-0.7,0.9-1.4,1.4
				c0.7,0.5,1.2,1,1.6,1.6c0.3,0.5,0.5,1.1,0.5,1.8c0,1-0.3,1.8-0.9,2.5c-0.6,0.6-1.5,0.9-2.5,0.9c-1.1,0-1.9-0.3-2.5-0.9
				s-0.9-1.4-0.9-2.5c0-0.7,0.2-1.3,0.5-1.9c0.3-0.5,0.8-1,1.4-1.4c-0.6-0.5-1-0.9-1.3-1.4s-0.4-1-0.4-1.6c0-0.9,0.3-1.7,0.9-2.2
				C118.5,38.6,119.3,38.3,120.2,38.3z M119,47.6c0,0.5,0.1,0.9,0.3,1.2s0.5,0.4,0.9,0.4c0.4,0,0.7-0.1,0.9-0.4
				c0.2-0.3,0.3-0.7,0.3-1.2c0-0.4-0.1-0.7-0.2-1c-0.2-0.3-0.5-0.7-1-1.1l-0.1-0.1c-0.4,0.3-0.7,0.6-0.8,0.9
				C119.1,46.7,119,47.1,119,47.6z M120.2,40.1c-0.3,0-0.6,0.1-0.7,0.4s-0.2,0.6-0.2,1c0,0.4,0.1,0.7,0.2,1s0.4,0.6,0.8,0.9
				c0.4-0.3,0.6-0.6,0.8-0.9c0.1-0.3,0.2-0.6,0.2-1C121.2,40.5,120.9,40.1,120.2,40.1z"/>
			<path class="st2" d="M129.8,42.2c0,1.3-0.2,2.3-0.6,2.9c-0.4,0.7-1.1,1-1.9,1c-0.8,0-1.5-0.3-1.9-1s-0.6-1.6-0.6-2.9
				c0-2.6,0.8-3.9,2.5-3.9C128.9,38.3,129.8,39.6,129.8,42.2z M126.6,42.2c0,0.8,0.1,1.4,0.2,1.7s0.3,0.5,0.5,0.5
				c0.2,0,0.4-0.2,0.5-0.5s0.2-0.9,0.2-1.7s-0.1-1.4-0.2-1.7s-0.3-0.5-0.5-0.5c-0.2,0-0.4,0.2-0.5,0.5S126.6,41.4,126.6,42.2z
				 M134.3,38.4l-5.1,12.5h-1.8l5.1-12.5H134.3z M137,47.1c0,1.3-0.2,2.3-0.6,2.9s-1.1,1-1.9,1c-0.9,0-1.5-0.3-1.9-1
				c-0.4-0.7-0.6-1.6-0.6-2.9c0-1.3,0.2-2.2,0.6-2.9c0.4-0.7,1-1,1.9-1C136.1,43.2,137,44.5,137,47.1z M133.8,47.2
				c0,0.8,0.1,1.4,0.2,1.7s0.3,0.5,0.5,0.5s0.4-0.2,0.5-0.5s0.2-0.9,0.2-1.7s-0.1-1.4-0.2-1.7s-0.3-0.5-0.5-0.5s-0.4,0.2-0.5,0.5
				C133.9,45.8,133.8,46.4,133.8,47.2z"/>
		</g>
	</g>
	<path class="st2" d="M143.2,50.7V38.1h0.8v12.6C144,50.7,143.2,50.7,143.2,50.7z"/>
	<path class="st2" d="M153.5,50.7h-1.1l-4.8-11.3h-0.1c0.1,0.8,0.1,1.5,0.1,2.3v9h-0.8V38.1h1.1l4.7,11.1h0.1c0-0.9-0.1-1.7-0.1-2.4
		V38h0.8v12.7H153.5z"/>
	<path class="st2" d="M160.3,44.3h2.8v6c-1,0.4-2,0.6-3,0.6c-1.4,0-2.4-0.6-3.2-1.7c-0.8-1.1-1.1-2.7-1.1-4.8c0-2,0.4-3.6,1.2-4.7
		c0.8-1.1,1.9-1.7,3.3-1.7c1,0,1.8,0.3,2.7,0.8l-0.4,0.7c-0.8-0.5-1.6-0.8-2.3-0.8c-1.2,0-2.1,0.5-2.7,1.4c-0.6,1-0.9,2.4-0.9,4.2
		s0.3,3.2,0.9,4.2c0.6,1,1.5,1.5,2.6,1.5c0.8,0,1.5-0.1,2.1-0.3v-4.6h-1.9v-0.8C160.4,44.3,160.3,44.3,160.3,44.3z"/>
	<path class="st2" d="M172.3,44.4c0,2.1-0.3,3.7-0.9,4.8c-0.6,1.1-1.5,1.7-2.7,1.7s-2.1-0.6-2.7-1.7c-0.6-1.1-0.9-2.7-0.9-4.8
		c0-2.2,0.3-3.8,0.9-4.8c0.6-1.1,1.5-1.6,2.7-1.6s2.1,0.6,2.7,1.7C172,40.7,172.3,42.3,172.3,44.4z M165.9,44.4
		c0,1.9,0.2,3.3,0.7,4.2c0.5,1,1.1,1.4,2,1.4s1.6-0.5,2.1-1.4s0.7-2.4,0.7-4.2c0-1.9-0.2-3.3-0.7-4.2s-1.1-1.4-2-1.4
		s-1.6,0.5-2.1,1.4C166.1,41.1,165.9,42.5,165.9,44.4z"/>
	<path class="st2" d="M179.4,47.4c0,1-0.3,1.9-0.9,2.5c-0.6,0.6-1.3,1-2.2,1c-1,0-1.8-0.1-2.4-0.4v-0.9c0.3,0.2,0.7,0.3,1.1,0.4
		c0.4,0.1,0.9,0.1,1.3,0.1c0.6,0,1.2-0.2,1.6-0.7c0.4-0.5,0.6-1.1,0.6-1.9c0-0.7-0.1-1.2-0.4-1.7c-0.3-0.4-0.9-0.8-1.7-1.2
		c-0.6-0.3-1.1-0.6-1.5-0.9c-0.3-0.3-0.6-0.7-0.7-1.1c-0.2-0.4-0.2-0.9-0.2-1.5s0.1-1.2,0.4-1.7c0.3-0.5,0.6-0.9,1.1-1.1
		c0.5-0.3,0.9-0.4,1.5-0.4c0.5,0,0.9,0.1,1.3,0.2c0.4,0.1,0.7,0.2,0.9,0.4l-0.3,0.8c-0.6-0.3-1.3-0.5-1.9-0.5
		c-0.6,0-1.1,0.2-1.5,0.6c-0.4,0.4-0.6,1-0.6,1.7s0.1,1.3,0.4,1.6c0.3,0.4,0.8,0.8,1.7,1.2c0.8,0.4,1.5,0.9,1.9,1.4
		C179.2,45.9,179.4,46.6,179.4,47.4z"/>
	<path class="st2" d="M109.1,102.5v8.5c0,2.8-1,4.3-3,4.3c-1,0-1.8-0.4-2.3-1.1c-0.5-0.7-0.8-1.8-0.8-3.2v-8.5h0.9v8.6
		c0,1.1,0.2,1.9,0.6,2.5s1,0.9,1.7,0.9s1.3-0.3,1.6-0.9s0.6-1.4,0.6-2.5v-8.6H109.1z"/>
	<path class="st2" d="M118.4,115.1h-1.1l-4.8-11.3h-0.1c0.1,0.8,0.1,1.5,0.1,2.3v9h-0.8v-12.6h1.1l4.7,11.1h0.1
		c0-0.9-0.1-1.7-0.1-2.4v-8.8h0.8v12.7H118.4z"/>
	<path class="st2" d="M129.2,115.1l-1.1-4.6H125l-1.1,4.6H123l3-12.6h0.9l3.1,12.6H129.2z M127.9,109.7l-1.1-4.7
		c-0.1-0.5-0.2-1-0.3-1.5c-0.1,0.5-0.1,1-0.2,1.5l-1.1,4.7H127.9z"/>
	<path class="st2" d="M135.6,108.8h2.8v6c-1,0.4-2,0.6-3,0.6c-1.4,0-2.4-0.6-3.2-1.7c-0.8-1.1-1.1-2.7-1.1-4.8c0-2,0.4-3.6,1.2-4.7
		c0.8-1.1,1.9-1.7,3.3-1.7c1,0,1.8,0.3,2.7,0.8l-0.4,0.7c-0.8-0.5-1.6-0.8-2.3-0.8c-1.2,0-2.1,0.5-2.7,1.4c-0.6,1-0.9,2.4-0.9,4.2
		s0.3,3.2,0.9,4.2c0.6,1,1.5,1.5,2.6,1.5c0.8,0,1.5-0.1,2.1-0.3v-4.6h-1.9v-0.8L135.6,108.8L135.6,108.8z"/>
	<path class="st2" d="M145.2,115.1h-4.6v-12.6h4.6v0.8h-3.7v4.8h3.5v0.8h-3.5v5.4h3.7V115.1z"/>
	<path class="st2" d="M154.1,115.1H153l-4.8-11.3h-0.1c0.1,0.8,0.1,1.5,0.1,2.3v9h-0.8v-12.6h1.1l4.7,11.1h0.1
		c0-0.9-0.1-1.7-0.1-2.4v-8.8h0.8v12.7H154.1z"/>
	<path class="st2" d="M160.4,103.2c-0.9,0-1.7,0.5-2.3,1.5s-0.8,2.4-0.8,4.2c0,1.2,0.1,2.2,0.4,3c0.3,0.9,0.6,1.5,1.1,2
		s1,0.7,1.7,0.7s1.2-0.1,1.7-0.4v0.8c-0.4,0.3-1,0.4-1.8,0.4s-1.5-0.3-2.1-0.8s-1.1-1.3-1.4-2.2c-0.3-1-0.5-2.1-0.5-3.5
		c0-2,0.4-3.6,1.1-4.7c0.7-1.1,1.7-1.7,2.9-1.7c0.8,0,1.4,0.2,2,0.5l-0.4,0.7C161.6,103.3,161,103.2,160.4,103.2z"/>
	<path class="st2" d="M164.2,115.1v-12.6h0.8v12.6H164.2z"/>
	<path class="st2" d="M172.4,115.1h-4.6v-12.6h4.6v0.8h-3.7v4.8h3.5v0.8h-3.5v5.4h3.7V115.1z"/>
	<path class="st2" d="M179.4,111.8c0,1-0.3,1.9-0.9,2.5c-0.6,0.6-1.3,1-2.2,1c-1,0-1.8-0.1-2.4-0.4V114c0.3,0.2,0.7,0.3,1.1,0.4
		c0.4,0.1,0.9,0.1,1.3,0.1c0.6,0,1.2-0.2,1.6-0.7c0.4-0.5,0.6-1.1,0.6-1.9c0-0.7-0.1-1.2-0.4-1.7c-0.3-0.4-0.9-0.8-1.7-1.2
		c-0.6-0.3-1.1-0.6-1.5-0.9c-0.3-0.3-0.6-0.7-0.7-1.1c-0.2-0.4-0.2-0.9-0.2-1.5s0.1-1.2,0.4-1.7c0.3-0.5,0.6-0.9,1.1-1.1
		c0.5-0.3,0.9-0.4,1.5-0.4c0.5,0,0.9,0.1,1.3,0.2c0.4,0.1,0.7,0.2,0.9,0.4l-0.3,0.8c-0.6-0.3-1.3-0.5-1.9-0.5
		c-0.6,0-1.1,0.2-1.5,0.6c-0.4,0.4-0.6,1-0.6,1.7s0.1,1.3,0.4,1.6c0.3,0.4,0.8,0.8,1.7,1.2c0.8,0.4,1.5,0.9,1.9,1.4
		C179.2,110.4,179.4,111,179.4,111.8z"/>
	<g>
		<path class="st2" d="M177.2,400c0,1.9-0.4,3.4-1.3,4.3c-0.9,0.9-2.2,1.4-4,1.4h-1.3v7.8h-1.3v-18.9h2.6c1.8,0,3.2,0.4,4,1.3
			C176.7,396.8,177.2,398.1,177.2,400z M170.5,404.5h1.3c1.5,0,2.5-0.3,3.1-1s0.9-1.8,0.9-3.4c0-1.5-0.3-2.6-1-3.3
			c-0.6-0.7-1.6-1-3-1h-1.4L170.5,404.5L170.5,404.5z"/>
		<path class="st2" d="M187.3,413.5l-1.7-6.8H181l-1.6,6.8h-1.3l4.5-18.9h1.3l4.6,18.9H187.3z M185.3,405.3l-1.7-7
			c-0.2-0.8-0.3-1.5-0.4-2.2c-0.1,0.7-0.2,1.5-0.4,2.2l-1.6,7H185.3z"/>
		<path class="st2" d="M191.9,405.2v8.2h-1.3v-18.9h2.6c1.8,0,3.2,0.4,4,1.3c0.9,0.9,1.3,2.2,1.3,3.9c0,1.3-0.2,2.4-0.7,3.2
			s-1.2,1.5-2.3,1.9l3.7,8.5h-1.4l-3.5-8.2h-2.4L191.9,405.2L191.9,405.2z M191.9,404h1.8c1.1,0,2-0.4,2.6-1.1s0.9-1.8,0.9-3.1
			c0-1.4-0.3-2.4-0.9-3.1c-0.6-0.6-1.6-0.9-3-0.9h-1.4L191.9,404L191.9,404z"/>
		<path class="st2" d="M205,413.5h-1.3v-17.7h-3.8v-1.2h8.8v1.2H205V413.5z"/>
		<path class="st2" d="M220.9,413.5h-1.6l-7.1-16.9h-0.1c0.1,1.2,0.2,2.3,0.2,3.4v13.5H211v-18.9h1.6l7.1,16.7h0.1
			c-0.1-1.4-0.1-2.6-0.1-3.5v-13.2h1.2L220.9,413.5L220.9,413.5z"/>
		<path class="st2" d="M231.9,413.5h-6.8v-18.9h6.8v1.2h-5.6v7.2h5.3v1.2h-5.3v8.1h5.6V413.5z"/>
		<path class="st2" d="M236.5,405.2v8.2h-1.3v-18.9h2.6c1.8,0,3.2,0.4,4,1.3c0.9,0.9,1.3,2.2,1.3,3.9c0,1.3-0.2,2.4-0.7,3.2
			c-0.5,0.8-1.2,1.5-2.3,1.9l3.7,8.5h-1.4l-3.5-8.2h-2.4L236.5,405.2L236.5,405.2z M236.5,404h1.8c1.1,0,2-0.4,2.6-1.1
			s0.9-1.8,0.9-3.1c0-1.4-0.3-2.4-0.9-3.1c-0.6-0.6-1.6-0.9-3-0.9h-1.4L236.5,404L236.5,404z"/>
		<path class="st2" d="M253.7,408.5c0,1.5-0.4,2.8-1.3,3.8c-0.9,1-2,1.4-3.3,1.4c-1.5,0-2.7-0.2-3.6-0.7v-1.4c0.4,0.2,1,0.4,1.7,0.6
			c0.7,0.1,1.3,0.2,2,0.2c1,0,1.8-0.4,2.4-1.1c0.6-0.7,0.9-1.7,0.9-2.8c0-1-0.2-1.9-0.7-2.5c-0.4-0.6-1.3-1.2-2.5-1.8
			c-1-0.5-1.7-1-2.2-1.4c-0.5-0.5-0.8-1-1.1-1.6c-0.2-0.6-0.3-1.3-0.3-2.2c0-0.9,0.2-1.8,0.6-2.5c0.4-0.7,0.9-1.3,1.6-1.7
			c0.7-0.4,1.4-0.6,2.2-0.6c0.7,0,1.4,0.1,2,0.2c0.6,0.2,1.1,0.3,1.4,0.5l-0.5,1.2c-1-0.5-1.9-0.7-2.9-0.7c-0.9,0-1.7,0.3-2.3,0.9
			s-0.9,1.5-0.9,2.5c0,1.1,0.2,1.9,0.6,2.5c0.4,0.6,1.2,1.2,2.5,1.8c1.3,0.6,2.2,1.3,2.8,2.2C253.4,406.3,253.7,407.3,253.7,408.5z"
			/>
	</g>
	<g>
		<path class="st3" d="M210.4,115.7c-6.4-0.6-12.9-1-19.7-1c0-4.2,0-8.4,0-12.7c6.8,0,13.4,0.3,19.8,0.9L210.4,115.7z"/>
		<path class="st4" d="M210.4,145.9c-6.4-0.6-12.9-1-19.7-1c0-4.2,0-8.4,0-12.7c6.8,0,13.4,0.3,19.8,0.9L210.4,145.9z"/>
		<path class="st5" d="M229.7,86.5c-12.1-2.6-25.1-3.9-39-3.9c0-4.2,0-8.4,0-12.7c14,0,27.2,1.4,39.5,3.8L229.7,86.5z"/>
		<path class="st6" d="M400.7,380.3c-3.7-1.9-7.3-3.7-11-5.6c61.2-130.9-5.1-322.3-199-322.3c0-4.1,0-8.1,0-12.2
			C395.3,40.3,465.3,242.2,400.7,380.3z"/>
		<g>
			<path class="st7" d="M254.7,518.5c270.1-59.6,248.7-496.7-64-496.7c0-4.2,0-8.4,0-12.7c329.8,0,351,462.8,63.7,522.4L254.7,518.5
				z"/>
		</g>
	</g>
	<g>
		<g>
			<g>
				<path class="st2" d="M102.9,138.9h2.8v6c-1,0.4-2,0.6-3,0.6c-1.4,0-2.4-0.6-3.2-1.7c-0.8-1.1-1.1-2.7-1.1-4.8
					c0-2,0.4-3.6,1.2-4.7c0.8-1.1,1.9-1.7,3.3-1.7c1,0,1.8,0.3,2.7,0.8l-0.4,0.7c-0.8-0.5-1.6-0.8-2.3-0.8c-1.2,0-2.1,0.5-2.7,1.4
					c-0.6,1-0.9,2.4-0.9,4.2c0,1.8,0.3,3.2,0.9,4.2s1.5,1.5,2.6,1.5c0.8,0,1.5-0.1,2.1-0.3v-4.6H103L102.9,138.9L102.9,138.9z"/>
				<path class="st2" d="M114.9,139c0,2.1-0.3,3.7-0.9,4.8c-0.6,1.1-1.5,1.7-2.7,1.7s-2.1-0.6-2.7-1.7c-0.6-1.1-0.9-2.7-0.9-4.8
					c0-2.2,0.3-3.8,0.9-4.8c0.6-1.1,1.5-1.6,2.7-1.6s2.1,0.6,2.7,1.7C114.5,135.3,114.9,136.9,114.9,139z M108.5,139
					c0,1.9,0.2,3.3,0.7,4.2c0.5,1,1.1,1.4,2,1.4s1.6-0.5,2.1-1.4c0.5-0.9,0.7-2.4,0.7-4.2c0-1.9-0.2-3.3-0.7-4.2
					c-0.5-0.9-1.1-1.4-2-1.4s-1.6,0.5-2.1,1.4C108.7,135.7,108.5,137.1,108.5,139z"/>
				<path class="st2" d="M121.8,132.7h0.9l-3,12.6h-0.9l-3-12.6h0.9l2,8.8c0.2,0.7,0.3,1.2,0.3,1.5c0.1,0.3,0.1,0.7,0.2,1.2
					c0-0.3,0.1-0.7,0.1-1c0.1-0.3,0.1-0.6,0.2-0.8C119.6,142.2,120.3,139,121.8,132.7z"/>
				<path class="st2" d="M128.6,145.3H124v-12.6h4.6v0.8h-3.7v4.8h3.5v0.8h-3.5v5.4h3.7V145.3z"/>
				<path class="st2" d="M131.7,139.8v5.5h-0.8v-12.6h1.7c1.2,0,2.1,0.3,2.7,0.9c0.6,0.6,0.9,1.4,0.9,2.6c0,0.9-0.2,1.6-0.5,2.2
					c-0.3,0.6-0.8,1-1.6,1.3l2.5,5.7h-0.9l-2.3-5.5L131.7,139.8L131.7,139.8z M131.7,139h1.2c0.8,0,1.4-0.2,1.8-0.7
					c0.4-0.5,0.6-1.2,0.6-2.1c0-0.9-0.2-1.6-0.6-2c-0.4-0.4-1.1-0.6-2-0.6h-0.9v5.4C131.8,139,131.7,139,131.7,139z"/>
				<path class="st2" d="M144.9,145.3h-1.1L139,134h-0.1c0.1,0.8,0.1,1.5,0.1,2.3v9h-0.8v-12.6h1.1l4.7,11.1h0.1
					c0-0.9-0.1-1.7-0.1-2.4v-8.8h0.8v12.7C144.8,145.3,144.9,145.3,144.9,145.3z"/>
				<path class="st2" d="M151.8,145.3l-3.3-11.4h-0.1c0.1,1.2,0.1,2,0.1,2.3v9.2h-0.8v-12.7h1.2l2.8,9.6c0.3,0.8,0.4,1.6,0.5,2.2
					h0.1c0.1-0.4,0.2-1.1,0.5-2.2l2.8-9.6h1.3v12.6h-0.8v-9.1c0-0.4,0-1.1,0.1-2.3h-0.1l-3.3,11.4H151.8z"/>
				<path class="st2" d="M164.3,145.3h-4.6v-12.6h4.6v0.8h-3.7v4.8h3.5v0.8h-3.5v5.4h3.7V145.3z"/>
				<path class="st2" d="M173.1,145.3H172l-4.8-11.3h-0.1c0.1,0.8,0.1,1.5,0.1,2.3v9h-0.8v-12.6h1.1l4.7,11.1h0.1
					c0-0.9-0.1-1.7-0.1-2.4v-8.8h0.8L173.1,145.3C173,145.3,173.1,145.3,173.1,145.3z"/>
				<path class="st2" d="M177.9,145.3h-0.8v-11.8h-2.5v-0.8h5.8v0.8h-2.5V145.3z"/>
			</g>
		</g>
		<g>
			<path class="st2" d="M79.8,135.8c0,0.8-0.2,1.4-0.6,2s-0.9,0.9-1.6,1.1v0.1c0.8,0.1,1.4,0.4,1.8,0.9c0.4,0.5,0.6,1.2,0.6,2
				c0,1.1-0.4,2.1-1.1,2.7s-1.7,1-2.9,1c-1.1,0-2-0.2-2.8-0.6V143c0.4,0.2,0.8,0.4,1.2,0.5s0.9,0.2,1.3,0.2c0.7,0,1.2-0.2,1.5-0.5
				c0.3-0.3,0.5-0.8,0.5-1.4c0-1.2-0.8-1.9-2.3-1.9h-0.7v-1.7h0.7c0.7,0,1.2-0.2,1.6-0.5c0.4-0.3,0.5-0.8,0.5-1.4
				c0-0.5-0.1-0.9-0.3-1.1c-0.2-0.3-0.6-0.4-1-0.4c-0.6,0-1.3,0.3-1.9,0.8l-1-1.5c0.8-0.8,1.9-1.3,3.2-1.3c1.1,0,1.9,0.3,2.5,0.8
				S79.8,134.9,79.8,135.8z"/>
			<path class="st2" d="M86.3,136.7c0,1.3-0.2,2.3-0.6,2.9c-0.4,0.7-1.1,1-1.9,1c-0.8,0-1.5-0.3-1.9-1s-0.6-1.6-0.6-2.9
				c0-2.6,0.8-3.9,2.5-3.9C85.5,132.8,86.3,134.1,86.3,136.7z M83.1,136.8c0,0.8,0.1,1.4,0.2,1.7c0.1,0.4,0.3,0.5,0.5,0.5
				c0.2,0,0.4-0.2,0.5-0.5c0.1-0.4,0.2-0.9,0.2-1.7c0-0.8-0.1-1.4-0.2-1.7c-0.1-0.4-0.3-0.5-0.5-0.5c-0.2,0-0.4,0.2-0.5,0.5
				C83.2,135.4,83.1,136,83.1,136.8z M90.9,133l-5.1,12.5h-1.8l5.1-12.5H90.9z M93.5,141.7c0,1.3-0.2,2.3-0.6,2.9
				c-0.4,0.7-1.1,1-1.9,1c-0.9,0-1.5-0.3-1.9-1c-0.4-0.7-0.6-1.6-0.6-2.9c0-1.3,0.2-2.2,0.6-2.9s1-1,1.9-1
				C92.6,137.8,93.5,139.1,93.5,141.7z M90.3,141.7c0,0.8,0.1,1.4,0.2,1.7c0.1,0.4,0.3,0.5,0.5,0.5s0.4-0.2,0.5-0.5
				c0.1-0.4,0.2-0.9,0.2-1.7c0-0.8-0.1-1.4-0.2-1.7c-0.1-0.4-0.3-0.5-0.5-0.5s-0.4,0.2-0.5,0.5C90.4,140.4,90.3,140.9,90.3,141.7z"
				/>
		</g>
	</g>
	<g>
		<path class="st2" d="M150,76.3c0,2.1-0.3,3.7-0.9,4.8c-0.6,1.1-1.5,1.7-2.7,1.7s-2.1-0.6-2.7-1.7c-0.6-1.1-0.9-2.7-0.9-4.8
			c0-2.2,0.3-3.8,0.9-4.8c0.6-1.1,1.5-1.6,2.7-1.6s2.1,0.6,2.7,1.7S150,74.3,150,76.3z M143.7,76.3c0,1.9,0.2,3.3,0.7,4.2
			c0.5,1,1.1,1.4,2,1.4s1.6-0.5,2.1-1.4s0.7-2.4,0.7-4.2c0-1.9-0.2-3.3-0.7-4.2c-0.5-0.9-1.1-1.4-2-1.4s-1.6,0.5-2.1,1.4
			C143.9,73.1,143.7,74.5,143.7,76.3z"/>
		<path class="st2" d="M154.5,82.6h-0.8V70.9h-2.5v-0.8h5.8v0.8h-2.5V82.6z"/>
		<path class="st2" d="M164.6,82.6h-0.8v-6.2h-4.4v6.2h-0.8V70.1h0.8v5.6h4.4v-5.6h0.8V82.6z"/>
		<path class="st2" d="M171.9,82.6h-4.6V70.1h4.6v0.8h-3.7v4.8h3.5v0.8h-3.5v5.4h3.7V82.6z"/>
		<path class="st2" d="M174.9,77.1v5.5h-0.8V70.1h1.7c1.2,0,2.1,0.3,2.7,0.9c0.6,0.6,0.9,1.4,0.9,2.6c0,0.9-0.2,1.6-0.5,2.2
			s-0.8,1-1.6,1.3l2.5,5.7h-0.9l-2.3-5.5h-1.7L174.9,77.1L174.9,77.1z M174.9,76.4h1.2c0.8,0,1.4-0.2,1.8-0.7
			c0.4-0.5,0.6-1.2,0.6-2.1s-0.2-1.6-0.6-2c-0.4-0.4-1.1-0.6-2-0.6H175v5.4C175,76.4,174.9,76.4,174.9,76.4z"/>
		<g>
			<path class="st2" d="M119.9,82.8l3.5-10.4h-4.3v-2.1h6.7v1.6l-3.4,10.9H119.9z"/>
			<path class="st2" d="M132,74.1c0,1.3-0.2,2.3-0.6,2.9c-0.4,0.7-1.1,1-1.9,1c-0.8,0-1.5-0.3-1.9-1s-0.6-1.6-0.6-2.9
				c0-2.6,0.8-3.9,2.5-3.9C131.2,70.2,132,71.5,132,74.1z M128.8,74.1c0,0.8,0.1,1.4,0.2,1.7s0.3,0.5,0.5,0.5c0.2,0,0.4-0.2,0.5-0.5
				s0.2-0.9,0.2-1.7s-0.1-1.4-0.2-1.7s-0.3-0.5-0.5-0.5c-0.2,0-0.4,0.2-0.5,0.5S128.8,73.3,128.8,74.1z M136.6,70.3l-5.1,12.5h-1.8
				l5.1-12.5H136.6z M139.2,79c0,1.3-0.2,2.3-0.6,2.9s-1.1,1-1.9,1c-0.9,0-1.5-0.3-1.9-1c-0.4-0.7-0.6-1.6-0.6-2.9
				c0-1.3,0.2-2.2,0.6-2.9c0.4-0.7,1-1,1.9-1C138.3,75.1,139.2,76.4,139.2,79z M136,79.1c0,0.8,0.1,1.4,0.2,1.7s0.3,0.5,0.5,0.5
				s0.4-0.2,0.5-0.5s0.2-0.9,0.2-1.7s-0.1-1.4-0.2-1.7s-0.3-0.5-0.5-0.5s-0.4,0.2-0.5,0.5C136.1,77.7,136,78.3,136,79.1z"/>
		</g>
	</g>
	<g>
		<path class="st2" d="M84.5,112.5h-1.3v2.6h-2.2v-2.6H77v-1.9l3.8-8h2.5v7.9h1.3V112.5z M81.1,110.5v-2.6l0-1.2l0.1-1.1h-0.1
			c-0.2,0.6-0.4,1.2-0.6,1.7l-1.5,3.2H81.1z"/>
		<path class="st2" d="M90.3,106.3c0,1.3-0.2,2.3-0.6,2.9c-0.4,0.7-1.1,1-1.9,1c-0.8,0-1.5-0.3-1.9-1s-0.6-1.6-0.6-2.9
			c0-2.6,0.8-3.9,2.5-3.9C89.5,102.4,90.3,103.7,90.3,106.3z M87.2,106.4c0,0.8,0.1,1.4,0.2,1.7s0.3,0.5,0.5,0.5
			c0.2,0,0.4-0.2,0.5-0.5s0.2-0.9,0.2-1.7s-0.1-1.4-0.2-1.7s-0.3-0.5-0.5-0.5c-0.2,0-0.4,0.2-0.5,0.5S87.2,105.6,87.2,106.4z
			 M94.9,102.6l-5.1,12.5H88l5.1-12.5H94.9z M97.5,111.3c0,1.3-0.2,2.3-0.6,2.9s-1.1,1-1.9,1c-0.9,0-1.5-0.3-1.9-1
			c-0.4-0.7-0.6-1.6-0.6-2.9c0-1.3,0.2-2.2,0.6-2.9c0.4-0.7,1-1,1.9-1C96.7,107.4,97.5,108.7,97.5,111.3z M94.3,111.3
			c0,0.8,0.1,1.4,0.2,1.7s0.3,0.5,0.5,0.5s0.4-0.2,0.5-0.5s0.2-0.9,0.2-1.7s-0.1-1.4-0.2-1.7s-0.3-0.5-0.5-0.5s-0.4,0.2-0.5,0.5
			C94.4,110,94.3,110.5,94.3,111.3z"/>
	</g>
	<g>
		<path class="st2" d="M108.3,272.2c10.6,0,19,3.7,25.2,11c6.2,7.4,9.4,17.4,9.4,30.2c0,15.3-3.9,27.2-11.7,35.7
			c-7.8,8.5-18.6,12.8-32.4,12.8c-12.3,0-22.2-2.3-29.9-7v-24.4c3.3,2.4,7.5,4.5,12.6,6.3c5.2,1.8,9.9,2.7,14.4,2.7
			c13.8,0,20.6-8,20.6-24c0-14.9-6.7-22.4-20.1-22.4c-5.3,0-10.9,1-16.9,3.1l-8.4-6.2l4.3-70.4h59.9V243H97.8l-1.9,30.3
			C99.5,272.6,103.6,272.2,108.3,272.2z"/>
		<path class="st2" d="M239.4,330.6h-14.2v29.5h-24.6v-29.5h-45.8v-21.2l42.4-89.7h27.9V309h14.2V330.6z M200.6,309v-29.6l0.5-13.1
			l0.7-12.5H201c-2.2,7-4.7,13.3-7.3,18.9L176.8,309H200.6z"/>
		<path class="st2" d="M321.9,251.3c0,8.8-2.2,16.2-6.5,22.2c-4.4,6-10.5,10.1-18.4,12.4v0.8c8.8,1.4,15.7,4.9,20.5,10.4
			c4.8,5.5,7.2,13,7.2,22.5c0,12.9-4,23.2-12,30.9c-8,7.7-19,11.5-33,11.5c-12.4,0-22.8-2.2-31.3-6.6v-23.4c4.2,2.6,8.8,4.6,13.7,6
			c4.9,1.5,9.7,2.2,14.2,2.2c7.4,0,13-1.7,16.8-5.1c3.8-3.4,5.7-8.8,5.7-16.3c0-14-8.6-21-25.8-21h-8v-19.5h7.6
			c7.6,0,13.5-1.8,17.5-5.4c4.1-3.6,6.1-8.9,6.1-16c0-5.6-1.3-9.8-3.9-12.6c-2.6-2.8-6.3-4.3-11-4.3c-7.2,0-14.3,3.1-21.1,9.2
			l-11.8-17.3c9.5-9.5,21.4-14.2,35.8-14.2c11.8,0,21.1,3,27.7,9C318.6,232.7,321.9,240.9,321.9,251.3z"/>
	</g>
</g>
</svg>
