<?xml version="1.0" encoding="utf-8"?>
<!-- Generator: Adobe Illustrator 22.0.1, SVG Export Plug-In . SVG Version: 6.00 Build 0)  -->
<svg version="1.1" id="Layer_1" xmlns="http://www.w3.org/2000/svg" xmlns:xlink="http://www.w3.org/1999/xlink" x="0px" y="0px"
	 width="41px" height="43.9px" viewBox="0 0 41 43.9" style="enable-background:new 0 0 41 43.9;" xml:space="preserve">
<title>coordination</title>
<g transform="translate(0,-952.36218)">
	<path style="fill:#C03A2B;" d="M17.5,952.4c-0.7,0.1-1.3,0.7-1.3,1.4v1c0,0.7,0.7,1.4,1.4,1.4h1.4v1.2c0,0.3,0,0.3-0.1,0.4
		s-0.2,0.2-0.8,0.5c0,0,0,0,0,0c-2,0.9-3.4,2.9-3.4,5.3c0,1.6,0.6,3,1.6,4.1l-10.5,5.6H1.4c0,0-0.1,0-0.1,0
		c-0.7,0.1-1.3,0.7-1.3,1.4v20c0,0.7,0.7,1.4,1.4,1.4h38.1c0.7,0,1.4-0.7,1.4-1.4v-20c0-0.7-0.7-1.4-1.4-1.4h-4.4l-10.5-5.6
		c1-1.1,1.6-2.5,1.6-4.1c0-0.8-0.7-1.5-1.4-1.5s-1.4,0.7-1.4,1.5c0,1.2-0.6,2.1-1.4,2.7l-0.5-0.3c0,0,0,0-0.1,0l0,0
		c-0.1-0.1-0.2-0.1-0.4-0.1c0,0,0,0,0,0c-0.1,0-0.2,0-0.2,0c0,0,0,0,0,0c0,0-0.1,0-0.1,0c0,0-0.1,0-0.1,0c0,0-0.1,0-0.1,0
		c0,0,0,0,0,0c-0.2,0-0.4,0.1-0.6,0.3l-0.5,0.3c-0.9-0.5-1.4-1.5-1.4-2.7c0-1.3,0.7-2.2,1.7-2.7c0,0,0,0,0,0c0.9-0.4,1.6-0.9,2-1.5
		c0.4-0.7,0.5-1.4,0.5-2v-1.2h1.4c0.7,0,1.4-0.7,1.4-1.4v-1c0-0.7-0.7-1.4-1.4-1.4C21.4,952.4,19.4,952.4,17.5,952.4z M19.3,969.4
		c0.4,0.1,0.8,0.1,1.2,0.1c0.4,0,0.8,0,1.2-0.1l7.4,3.9H11.9L19.3,969.4z M2.9,976.2h1.9v17.2H2.9V976.2z M7.6,976.2h1.9v17.2H7.6
		V976.2z M12.4,976.2h1.9v17.2h-1.9V976.2z M17.2,976.2h1.9v17.2h-1.9V976.2z M21.9,976.2h1.9v17.2h-1.9V976.2z M26.7,976.2h1.9
		v17.2h-1.9V976.2z M31.5,976.2h1.9v17.2h-1.9V976.2z M36.2,976.2h1.9v17.2h-1.9V976.2z"/>
</g>
</svg>
