<?xml version="1.0" encoding="utf-8"?>
<!-- Generator: Adobe Illustrator 20.1.0, SVG Export Plug-In . SVG Version: 6.00 Build 0)  -->
<svg version="1.1" id="Layer_1" xmlns="http://www.w3.org/2000/svg" xmlns:xlink="http://www.w3.org/1999/xlink" x="0px" y="0px"
	 viewBox="0 0 41.8 34.3" style="enable-background:new 0 0 41.8 34.3;" xml:space="preserve">
<style type="text/css">
	.st0{fill:none;stroke:#C03A2B;stroke-miterlimit:10;}
	.st1{opacity:0.5;}
	.st2{fill:#C03A2B;}
</style>
<title>storage</title>
<g>
	<g>
		<path class="st0" d="M38.9,26.5c0,1.6-1.7,1.4-2.7,1.4c0,3-2.5,5.5-5.5,5.5c-3,0-5.4-2.4-5.4-5.5H17c0,3-2.4,5.5-5.4,5.5
			c-3,0-5.5-2.4-5.5-5.5H4.8c-1.1,0-2.7,0.2-2.7-1.4c0-0.7,0.6-1.4,1.4-1.4v-6.8c0-1.5-0.2-3.2,1-4.4l4.2-4.2c0.5-0.5,1.6-1,2.3-1
			h3.4V4.7c0-0.7,0.6-1.4,1.4-1.4h21.8c0.8,0,1.4,0.6,1.4,1.4V26.5z M14.3,17v-5.5H11c-0.1,0-0.4,0.1-0.5,0.2l-4.1,4.2
			c-0.1,0.1-0.2,0.4-0.2,0.5V17H14.3z M11.6,25.1c-1.5,0-2.7,1.2-2.7,2.7c0,1.5,1.2,2.7,2.7,2.7c1.5,0,2.7-1.2,2.7-2.7
			C14.3,26.4,13.1,25.1,11.6,25.1z M30.7,25.1c-1.5,0-2.7,1.2-2.7,2.7c0,1.5,1.2,2.7,2.7,2.7c1.5,0,2.7-1.2,2.7-2.7
			C33.4,26.4,32.2,25.1,30.7,25.1z"/>
		<g class="st1">
			<g>
				<path class="st2" d="M22.9,9.5c0,0.2-0.2,0.2-0.4,0.2c0,0.4-0.4,0.8-0.8,0.8c-0.4,0-0.8-0.4-0.8-0.8h-1.2c0,0.4-0.4,0.8-0.8,0.8
					c-0.4,0-0.8-0.4-0.8-0.8h-0.2c-0.2,0-0.4,0-0.4-0.2c0-0.1,0.1-0.2,0.2-0.2v-1c0-0.2,0-0.5,0.1-0.6L18.5,7
					c0.1-0.1,0.2-0.1,0.3-0.1h0.5V6.2c0-0.1,0.1-0.2,0.2-0.2h3.2c0.1,0,0.2,0.1,0.2,0.2V9.5z M19.3,8V7.2h-0.5c0,0-0.1,0-0.1,0
					l-0.6,0.6c0,0,0,0.1,0,0.1V8H19.3z M18.9,9.3c-0.2,0-0.4,0.2-0.4,0.4c0,0.2,0.2,0.4,0.4,0.4c0.2,0,0.4-0.2,0.4-0.4
					C19.3,9.4,19.1,9.3,18.9,9.3z M21.7,9.3c-0.2,0-0.4,0.2-0.4,0.4c0,0.2,0.2,0.4,0.4,0.4c0.2,0,0.4-0.2,0.4-0.4
					C22.1,9.4,22,9.3,21.7,9.3z"/>
			</g>
			<g>
				<path class="st2" d="M29.4,9.5c0,0.2-0.2,0.2-0.4,0.2c0,0.4-0.4,0.8-0.8,0.8c-0.4,0-0.8-0.4-0.8-0.8h-1.2c0,0.4-0.4,0.8-0.8,0.8
					s-0.8-0.4-0.8-0.8h-0.2c-0.2,0-0.4,0-0.4-0.2c0-0.1,0.1-0.2,0.2-0.2v-1c0-0.2,0-0.5,0.1-0.6L24.9,7c0.1-0.1,0.2-0.1,0.3-0.1h0.5
					V6.2C25.8,6.1,25.8,6,26,6h3.2c0.1,0,0.2,0.1,0.2,0.2V9.5z M25.8,8V7.2h-0.5c0,0-0.1,0-0.1,0l-0.6,0.6c0,0,0,0.1,0,0.1V8H25.8z
					 M25.3,9.3c-0.2,0-0.4,0.2-0.4,0.4c0,0.2,0.2,0.4,0.4,0.4c0.2,0,0.4-0.2,0.4-0.4C25.8,9.4,25.6,9.3,25.3,9.3z M28.2,9.3
					c-0.2,0-0.4,0.2-0.4,0.4c0,0.2,0.2,0.4,0.4,0.4c0.2,0,0.4-0.2,0.4-0.4C28.6,9.4,28.4,9.3,28.2,9.3z"/>
			</g>
			<g>
				<path class="st2" d="M35.7,9.5c0,0.2-0.2,0.2-0.4,0.2c0,0.4-0.4,0.8-0.8,0.8c-0.4,0-0.8-0.4-0.8-0.8h-1.2c0,0.4-0.4,0.8-0.8,0.8
					c-0.4,0-0.8-0.4-0.8-0.8h-0.2c-0.2,0-0.4,0-0.4-0.2c0-0.1,0.1-0.2,0.2-0.2v-1c0-0.2,0-0.5,0.1-0.6L31.3,7
					c0.1-0.1,0.2-0.1,0.3-0.1h0.5V6.2c0-0.1,0.1-0.2,0.2-0.2h3.2c0.1,0,0.2,0.1,0.2,0.2V9.5z M32.1,8V7.2h-0.5c0,0-0.1,0-0.1,0
					l-0.6,0.6c0,0,0,0.1,0,0.1V8H32.1z M31.7,9.3c-0.2,0-0.4,0.2-0.4,0.4c0,0.2,0.2,0.4,0.4,0.4c0.2,0,0.4-0.2,0.4-0.4
					C32.1,9.4,31.9,9.3,31.7,9.3z M34.5,9.3c-0.2,0-0.4,0.2-0.4,0.4c0,0.2,0.2,0.4,0.4,0.4c0.2,0,0.4-0.2,0.4-0.4
					C34.9,9.4,34.7,9.3,34.5,9.3z"/>
			</g>
		</g>
		<g class="st1">
			<g>
				<path class="st2" d="M22.9,15.9c0,0.2-0.2,0.2-0.4,0.2c0,0.4-0.4,0.8-0.8,0.8c-0.4,0-0.8-0.4-0.8-0.8h-1.2
					c0,0.4-0.4,0.8-0.8,0.8c-0.4,0-0.8-0.4-0.8-0.8h-0.2c-0.2,0-0.4,0-0.4-0.2c0-0.1,0.1-0.2,0.2-0.2v-1c0-0.2,0-0.5,0.1-0.6
					l0.6-0.6c0.1-0.1,0.2-0.1,0.3-0.1h0.5v-0.6c0-0.1,0.1-0.2,0.2-0.2h3.2c0.1,0,0.2,0.1,0.2,0.2V15.9z M19.3,14.5v-0.8h-0.5
					c0,0-0.1,0-0.1,0l-0.6,0.6c0,0,0,0.1,0,0.1v0.1H19.3z M18.9,15.7c-0.2,0-0.4,0.2-0.4,0.4c0,0.2,0.2,0.4,0.4,0.4
					c0.2,0,0.4-0.2,0.4-0.4C19.3,15.9,19.1,15.7,18.9,15.7z M21.7,15.7c-0.2,0-0.4,0.2-0.4,0.4c0,0.2,0.2,0.4,0.4,0.4
					c0.2,0,0.4-0.2,0.4-0.4C22.1,15.9,22,15.7,21.7,15.7z"/>
			</g>
			<g>
				<path class="st2" d="M29.4,15.9c0,0.2-0.2,0.2-0.4,0.2c0,0.4-0.4,0.8-0.8,0.8c-0.4,0-0.8-0.4-0.8-0.8h-1.2
					c0,0.4-0.4,0.8-0.8,0.8s-0.8-0.4-0.8-0.8h-0.2c-0.2,0-0.4,0-0.4-0.2c0-0.1,0.1-0.2,0.2-0.2v-1c0-0.2,0-0.5,0.1-0.6l0.6-0.6
					c0.1-0.1,0.2-0.1,0.3-0.1h0.5v-0.6c0-0.1,0.1-0.2,0.2-0.2h3.2c0.1,0,0.2,0.1,0.2,0.2V15.9z M25.8,14.5v-0.8h-0.5
					c0,0-0.1,0-0.1,0l-0.6,0.6c0,0,0,0.1,0,0.1v0.1H25.8z M25.3,15.7c-0.2,0-0.4,0.2-0.4,0.4c0,0.2,0.2,0.4,0.4,0.4
					c0.2,0,0.4-0.2,0.4-0.4C25.8,15.9,25.6,15.7,25.3,15.7z M28.2,15.7c-0.2,0-0.4,0.2-0.4,0.4c0,0.2,0.2,0.4,0.4,0.4
					c0.2,0,0.4-0.2,0.4-0.4C28.6,15.9,28.4,15.7,28.2,15.7z"/>
			</g>
			<g>
				<path class="st2" d="M35.7,15.9c0,0.2-0.2,0.2-0.4,0.2c0,0.4-0.4,0.8-0.8,0.8c-0.4,0-0.8-0.4-0.8-0.8h-1.2
					c0,0.4-0.4,0.8-0.8,0.8c-0.4,0-0.8-0.4-0.8-0.8h-0.2c-0.2,0-0.4,0-0.4-0.2c0-0.1,0.1-0.2,0.2-0.2v-1c0-0.2,0-0.5,0.1-0.6
					l0.6-0.6c0.1-0.1,0.2-0.1,0.3-0.1h0.5v-0.6c0-0.1,0.1-0.2,0.2-0.2h3.2c0.1,0,0.2,0.1,0.2,0.2V15.9z M32.1,14.5v-0.8h-0.5
					c0,0-0.1,0-0.1,0l-0.6,0.6c0,0,0,0.1,0,0.1v0.1H32.1z M31.7,15.7c-0.2,0-0.4,0.2-0.4,0.4c0,0.2,0.2,0.4,0.4,0.4
					c0.2,0,0.4-0.2,0.4-0.4C32.1,15.9,31.9,15.7,31.7,15.7z M34.5,15.7c-0.2,0-0.4,0.2-0.4,0.4c0,0.2,0.2,0.4,0.4,0.4
					c0.2,0,0.4-0.2,0.4-0.4C34.9,15.9,34.7,15.7,34.5,15.7z"/>
			</g>
		</g>
		<g class="st1">
			<g>
				<path class="st2" d="M22.9,22.4c0,0.2-0.2,0.2-0.4,0.2c0,0.4-0.4,0.8-0.8,0.8c-0.4,0-0.8-0.4-0.8-0.8h-1.2
					c0,0.4-0.4,0.8-0.8,0.8c-0.4,0-0.8-0.4-0.8-0.8h-0.2c-0.2,0-0.4,0-0.4-0.2c0-0.1,0.1-0.2,0.2-0.2v-1c0-0.2,0-0.5,0.1-0.6
					l0.6-0.6c0.1-0.1,0.2-0.1,0.3-0.1h0.5v-0.6c0-0.1,0.1-0.2,0.2-0.2h3.2c0.1,0,0.2,0.1,0.2,0.2V22.4z M19.3,21v-0.8h-0.5
					c0,0-0.1,0-0.1,0l-0.6,0.6c0,0,0,0.1,0,0.1V21H19.3z M18.9,22.2c-0.2,0-0.4,0.2-0.4,0.4s0.2,0.4,0.4,0.4c0.2,0,0.4-0.2,0.4-0.4
					S19.1,22.2,18.9,22.2z M21.7,22.2c-0.2,0-0.4,0.2-0.4,0.4s0.2,0.4,0.4,0.4c0.2,0,0.4-0.2,0.4-0.4S22,22.2,21.7,22.2z"/>
			</g>
			<g>
				<path class="st2" d="M29.4,22.4c0,0.2-0.2,0.2-0.4,0.2c0,0.4-0.4,0.8-0.8,0.8c-0.4,0-0.8-0.4-0.8-0.8h-1.2
					c0,0.4-0.4,0.8-0.8,0.8s-0.8-0.4-0.8-0.8h-0.2c-0.2,0-0.4,0-0.4-0.2c0-0.1,0.1-0.2,0.2-0.2v-1c0-0.2,0-0.5,0.1-0.6l0.6-0.6
					c0.1-0.1,0.2-0.1,0.3-0.1h0.5v-0.6c0-0.1,0.1-0.2,0.2-0.2h3.2c0.1,0,0.2,0.1,0.2,0.2V22.4z M25.8,21v-0.8h-0.5c0,0-0.1,0-0.1,0
					l-0.6,0.6c0,0,0,0.1,0,0.1V21H25.8z M25.3,22.2c-0.2,0-0.4,0.2-0.4,0.4s0.2,0.4,0.4,0.4c0.2,0,0.4-0.2,0.4-0.4
					S25.6,22.2,25.3,22.2z M28.2,22.2c-0.2,0-0.4,0.2-0.4,0.4s0.2,0.4,0.4,0.4c0.2,0,0.4-0.2,0.4-0.4S28.4,22.2,28.2,22.2z"/>
			</g>
			<g>
				<path class="st2" d="M35.7,22.4c0,0.2-0.2,0.2-0.4,0.2c0,0.4-0.4,0.8-0.8,0.8c-0.4,0-0.8-0.4-0.8-0.8h-1.2
					c0,0.4-0.4,0.8-0.8,0.8c-0.4,0-0.8-0.4-0.8-0.8h-0.2c-0.2,0-0.4,0-0.4-0.2c0-0.1,0.1-0.2,0.2-0.2v-1c0-0.2,0-0.5,0.1-0.6
					l0.6-0.6c0.1-0.1,0.2-0.1,0.3-0.1h0.5v-0.6c0-0.1,0.1-0.2,0.2-0.2h3.2c0.1,0,0.2,0.1,0.2,0.2V22.4z M32.1,21v-0.8h-0.5
					c0,0-0.1,0-0.1,0l-0.6,0.6c0,0,0,0.1,0,0.1V21H32.1z M31.7,22.2c-0.2,0-0.4,0.2-0.4,0.4s0.2,0.4,0.4,0.4c0.2,0,0.4-0.2,0.4-0.4
					S31.9,22.2,31.7,22.2z M34.5,22.2c-0.2,0-0.4,0.2-0.4,0.4s0.2,0.4,0.4,0.4c0.2,0,0.4-0.2,0.4-0.4S34.7,22.2,34.5,22.2z"/>
			</g>
		</g>
	</g>
</g>
</svg>
