<svg xmlns="http://www.w3.org/2000/svg" width="41.13" height="41.13" viewBox="0 0 41.13 41.13">
  <title>coordination</title>
  <g id="Layer_2" data-name="Layer 2">
    <g id="Layer_1-2" data-name="Layer 1">
      <path d="M41.13,23.59a1,1,0,0,1-.75,1l-5,.75a15.29,15.29,0,0,1-1,2.44c.91,1.31,1.87,2.49,2.87,3.7a1.06,1.06,0,0,1,.27.67.9.9,0,0,1-.24.62c-.64.86-4.26,4.79-5.17,4.79a1.37,1.37,0,0,1-.7-.24l-3.7-2.89a16.09,16.09,0,0,1-2.44,1,35.09,35.09,0,0,1-.78,5,1,1,0,0,1-1,.75H17.59a1,1,0,0,1-1-.8l-.75-4.93a15.88,15.88,0,0,1-2.41-1L9.7,37.28a1,1,0,0,1-.67.24,1,1,0,0,1-.67-.29,33.49,33.49,0,0,1-4.42-4.5,1,1,0,0,1-.19-.62A1,1,0,0,1,4,31.49c.91-1.23,1.9-2.41,2.81-3.67a14.18,14.18,0,0,1-1.1-2.65l-4.9-.72a1,1,0,0,1-.78-1V17.54a1,1,0,0,1,.72-1l5-.75a14.06,14.06,0,0,1,1-2.46c-.91-1.29-1.87-2.49-2.87-3.7A1,1,0,0,1,3.62,9a1,1,0,0,1,.24-.62C4.5,7.53,8.12,3.62,9,3.62a1.19,1.19,0,0,1,.7.27l3.7,2.87a16.1,16.1,0,0,1,2.44-1,34.86,34.86,0,0,1,.78-5,1,1,0,0,1,1-.75h5.95a1,1,0,0,1,1,.8l.75,4.93a15.68,15.68,0,0,1,2.41,1l3.8-2.87a.91.91,0,0,1,.64-.24,1.06,1.06,0,0,1,.67.27A33.8,33.8,0,0,1,37.2,8.44a.92.92,0,0,1,.19.59,1,1,0,0,1-.21.62c-.91,1.23-1.9,2.41-2.81,3.67a14.76,14.76,0,0,1,1.1,2.62l4.9.75a1,1,0,0,1,.78,1ZM20.57,13.71a6.86,6.86,0,1,0,6.86,6.86A6.87,6.87,0,0,0,20.57,13.71Z" style="fill: #c03a2b"/>
    </g>
  </g>
</svg>
