<?xml version="1.0" encoding="utf-8"?>
<!-- Generator: Adobe Illustrator 20.1.0, SVG Export Plug-In . SVG Version: 6.00 Build 0)  -->
<svg version="1.1" id="Layer_1" xmlns="http://www.w3.org/2000/svg" xmlns:xlink="http://www.w3.org/1999/xlink" x="0px" y="0px"
	 viewBox="0 0 135 135" style="enable-background:new 0 0 135 135;" xml:space="preserve">
<style type="text/css">
	.st0{fill:#FFFFFF;}
	.st1{font-family:'Lato-Black';}
	.st2{font-size:34.0159px;}
	.st3{fill:#3B5998;}
	.st4{opacity:0.1;fill:#3B5998;}
</style>
<text transform="matrix(1 0 0 1 33.576 77.1294)" class="st0 st1 st2">32%</text>
<g>
	<path class="st3" d="M67.5,0C104.8,0,135,30.2,135,67.5c0,11.4-2.9,22.6-8.4,32.5l-14.8-8.1c13.5-24.5,4.5-55.3-20-68.8
		c-7.5-4.1-15.9-6.3-24.4-6.3L67.5,0z"/>
	<path class="st4" d="M126.7,100c-18,32.7-59,44.6-91.7,26.6C2.3,108.7-9.6,67.7,8.4,35C20.2,13.4,42.9,0,67.5,0l0,16.9
		c-28,0-50.6,22.7-50.6,50.6s22.7,50.6,50.6,50.6c18.5,0,35.5-10.1,44.4-26.2L126.7,100z"/>
</g>
</svg>
