<svg xmlns="http://www.w3.org/2000/svg" width="159" height="137.32" viewBox="0 0 159 137.32">
  <title>family</title>
  <g id="Layer_2" data-name="Layer 2">
    <g id="Layer_1-2" data-name="Layer 1">
      <path d="M79.49,113s3.22,22.38,3.22,22.4a2.9,2.9,0,0,0,5.48-.15,9.11,9.11,0,0,0,0-1.6l-1.32-27.5.42-9.45c.37-3.21.45-2.24,4.09-4.43s10.08-12.07,10.39-12.55a8,8,0,0,0,1-1.9,1.83,1.83,0,0,0-1.44-2.14,2.09,2.09,0,0,0-1.86.79C99,77,91.69,86.75,86.22,87.69a23.85,23.85,0,0,0-6-.83H78.8a24,24,0,0,0-6,.83C67.28,86.75,60,77,59.48,76.51a2,2,0,0,0-1.83-.79,1.82,1.82,0,0,0-1.44,2.14,7.46,7.46,0,0,0,1,1.9c.32.47,6.67,10.31,10.38,12.55s3.74,1.22,4.09,4.43l.42,9.45-1.32,27.5a6.55,6.55,0,0,0,.05,1.6,2.87,2.87,0,0,0,5.44.15S79.49,113,79.49,113m0-42.13A7.14,7.14,0,1,0,86.65,78a7.15,7.15,0,0,0-7.16-7.14m59.21-2.26.78-25.36,14.24,31.55a2.75,2.75,0,0,0,5.06-2.16s-10-31.39-12.9-37.23S138.6,26,127.72,26h-2.24c-10.88,0-15.31,3.56-18.18,9.4S94.42,72.68,94.42,72.68a2.75,2.75,0,0,0,1.45,3.6,2.71,2.71,0,0,0,3.57-1.45l14.27-31.55.78,25.36-2.25,63.77a4.59,4.59,0,0,0,4.24,4.88,1.72,1.72,0,0,0,.33,0,4.62,4.62,0,0,0,4.6-4.27l5.16-52.52L131.81,133a4.56,4.56,0,0,0,4.54,4.27,1.55,1.55,0,0,0,.33,0,4.58,4.58,0,0,0,4.25-4.88l-2.26-63.77ZM126.61,0a11.66,11.66,0,1,0,11.65,11.66A11.67,11.67,0,0,0,126.61,0m-93,91.55,2.52,43a2.73,2.73,0,1,0,5.46,0l2.33-43h7.61L43.68,43.31,59.52,74.85a2.74,2.74,0,1,0,5-2.13S53,41.33,50.08,35.48s-5.69-9.41-16.59-9.41H31.27c-10.87,0-13.72,3.56-16.58,9.41S.22,72.72.22,72.72a2.72,2.72,0,0,0,1.43,3.59,2.76,2.76,0,0,0,3.6-1.46L21.09,43.31,13.22,91.55h7.6l2.36,43a2.74,2.74,0,0,0,5.48,0l2.35-43ZM44.06,11.69A11.68,11.68,0,1,1,32.38,0,11.67,11.67,0,0,1,44.06,11.69" style="fill: #c03b29"/>
    </g>
  </g>
</svg>
