<?xml version="1.0" encoding="utf-8"?>
<!-- Generator: Adobe Illustrator 23.0.3, SVG Export Plug-In . SVG Version: 6.00 Build 0)  -->
<svg version="1.1" id="Layer_1" xmlns="http://www.w3.org/2000/svg" xmlns:xlink="http://www.w3.org/1999/xlink" x="0px" y="0px"
	 viewBox="0 0 34.1 34.3" style="enable-background:new 0 0 34.1 34.3;" xml:space="preserve">
<style type="text/css">
	.st0{fill:#C03A2B;}
</style>
<title>storage</title>
<path class="st0" d="M32,7.5c0.6,0,1-0.4,1-1s-0.4-1-1-1H6.7c-0.6,0-1,0.4-1,1s0.4,1,1,1h11.7v4.7h-0.2H6.9c-0.4-1.2-1.5-2-2.8-2
	c-1.7,0-3,1.3-3,3s1.3,3,3,3c1.2,0,2.2-0.6,2.7-1.6l5.7,2.3v1.3h0c0,0,0,0.1,0,0.1c0,3.2,2.5,5.7,5.7,5.9c0,0,0,0,0,0
	c0.1,0,0.2,0,0.3,0H19v2.7h-5.7c-0.5,0-0.9,0.4-0.9,0.9v0.1c0,0.5,0.4,0.9,0.9,0.9h14.9c0.1,0,0.2,0,0.3,0l3.2-1.1
	c0.4-0.1,0.6-0.5,0.6-0.9c0-0.6-0.6-1.1-1.2-0.9l-2.6,0.9c-0.1,0-0.2,0-0.3,0H27v-2.7c3-0.3,5.3-2.9,5.3-6c0-3.3-2.7-6-6-6h0h-6V7.5
	H32z M4,14.1c-0.6,0-1-0.4-1-1s0.4-1,1-1s1,0.4,1,1S4.6,14.1,4,14.1z M21,26.8v-2.7h4v2.7H21z M30.4,18.1h-4h-0.6v-4
	c0.2,0,0.4,0,0.6,0C28.6,14.5,30.4,16.1,30.4,18.1z"/>
</svg>
