<svg xmlns="http://www.w3.org/2000/svg" width="896.59" height="174.06" viewBox="0 0 896.59 174.06">
  <title>imUpdates</title>
  <g id="Layer_2" data-name="Layer 2">
    <g id="Layer_1-2" data-name="Layer 1">
      <g>
        <rect x="61.54" width="349.89" height="37.48" rx="18.74" ry="18.74" style="fill: #f24141"/>
        <rect x="61.54" y="68.29" width="835.04" height="37.48" rx="18.74" ry="18.74" style="fill: #f24141"/>
        <rect x="61.54" y="136.58" width="707.62" height="37.48" rx="18.74" ry="18.74" style="fill: #f24141"/>
        <g>
          <path d="M9.46,23.85a1,1,0,0,1,.73.26.92.92,0,0,1,.27.69v1.68H0v-.94A1.75,1.75,0,0,1,.11,25a1.5,1.5,0,0,1,.38-.58L5,19.9q.57-.57,1-1.1a7.41,7.41,0,0,0,.73-1,4.44,4.44,0,0,0,.44-1,4.05,4.05,0,0,0,.15-1.09,2.09,2.09,0,0,0-.52-1.53,2,2,0,0,0-1.46-.52,2.34,2.34,0,0,0-.76.12,2.22,2.22,0,0,0-.62.33,2.18,2.18,0,0,0-.47.49,2,2,0,0,0-.29.61,1.2,1.2,0,0,1-.5.69,1.44,1.44,0,0,1-.9.08L.23,15.65a5.78,5.78,0,0,1,.62-1.93A4.59,4.59,0,0,1,2,12.34a4.71,4.71,0,0,1,1.57-.83,6.33,6.33,0,0,1,1.9-.28,5.7,5.7,0,0,1,1.95.32,4.46,4.46,0,0,1,1.5.88,3.92,3.92,0,0,1,1,1.37,4.45,4.45,0,0,1,.34,1.77A4.77,4.77,0,0,1,10,17.11a6.13,6.13,0,0,1-.65,1.35,9.85,9.85,0,0,1-1,1.24q-.54.6-1.14,1.22L4,24.19a9.37,9.37,0,0,1,1-.24,5.81,5.81,0,0,1,1-.09Z" style="fill: #fff"/>
          <path d="M22.93,18.94a12.26,12.26,0,0,1-.43,3.43,7,7,0,0,1-1.17,2.41,4.71,4.71,0,0,1-1.77,1.41,5.5,5.5,0,0,1-4.41,0,4.62,4.62,0,0,1-1.76-1.41,7.08,7.08,0,0,1-1.16-2.41,12.4,12.4,0,0,1-.42-3.43,12.34,12.34,0,0,1,.42-3.42,7.1,7.1,0,0,1,1.16-2.4,4.62,4.62,0,0,1,1.76-1.41,5.5,5.5,0,0,1,4.41,0,4.71,4.71,0,0,1,1.77,1.41,7.07,7.07,0,0,1,1.17,2.4A12.2,12.2,0,0,1,22.93,18.94Zm-3,0a12.91,12.91,0,0,0-.22-2.64,5.44,5.44,0,0,0-.59-1.64,2.16,2.16,0,0,0-.84-.84,2.13,2.13,0,0,0-1-.24,2.07,2.07,0,0,0-1,.24,2.15,2.15,0,0,0-.82.84A5.44,5.44,0,0,0,15,16.3a13.2,13.2,0,0,0-.22,2.64A13.26,13.26,0,0,0,15,21.59a5.44,5.44,0,0,0,.58,1.64,2.14,2.14,0,0,0,.82.84,2.07,2.07,0,0,0,1,.24,2,2,0,0,0,1.81-1.08,5.44,5.44,0,0,0,.59-1.64A13,13,0,0,0,20,18.94Z" style="fill: #fff"/>
          <path d="M34.23,24.37v2.11H25.77V24.37h3V16.12c0-.18,0-.36,0-.55s0-.38,0-.57l-2,1.64a1,1,0,0,1-.41.2.91.91,0,0,1-.69-.12.84.84,0,0,1-.21-.18l-.9-1.22,4.64-3.93h2.36v13Z" style="fill: #fff"/>
          <path d="M47,20.72v1.62a.53.53,0,0,1-.57.55H45.26v3.59H42.77V22.9H36.54a.8.8,0,0,1-.49-.17.68.68,0,0,1-.28-.44l-.3-1.43,7.07-9.47h2.72v9.33Zm-4.24,0V16.23c0-.24,0-.49,0-.75s0-.55.08-.84l-4.37,6.08Z" style="fill: #fff"/>
        </g>
        <g>
          <path d="M9.46,92a1,1,0,0,1,.73.26.92.92,0,0,1,.27.69v1.68H0v-.94a1.75,1.75,0,0,1,.11-.59,1.5,1.5,0,0,1,.38-.58L5,88q.57-.57,1-1.1a7.41,7.41,0,0,0,.73-1,4.44,4.44,0,0,0,.44-1,4.05,4.05,0,0,0,.15-1.09,2.09,2.09,0,0,0-.52-1.53,2,2,0,0,0-1.46-.52,2.34,2.34,0,0,0-.76.12,2.22,2.22,0,0,0-.62.33,2.18,2.18,0,0,0-.47.49,2,2,0,0,0-.29.61,1.2,1.2,0,0,1-.5.69,1.44,1.44,0,0,1-.9.08L.23,83.79a5.78,5.78,0,0,1,.62-1.93A4.59,4.59,0,0,1,2,80.47a4.71,4.71,0,0,1,1.57-.83,6.33,6.33,0,0,1,1.9-.28,5.7,5.7,0,0,1,1.95.32,4.46,4.46,0,0,1,1.5.88,3.92,3.92,0,0,1,1,1.37,4.45,4.45,0,0,1,.34,1.77A4.77,4.77,0,0,1,10,85.24a6.13,6.13,0,0,1-.65,1.35,9.85,9.85,0,0,1-1,1.24q-.54.6-1.14,1.22L4,92.32a9.37,9.37,0,0,1,1-.24,5.81,5.81,0,0,1,1-.09Z" style="fill: #fff"/>
          <path d="M22.93,87.07a12.26,12.26,0,0,1-.43,3.43,7,7,0,0,1-1.17,2.41,4.71,4.71,0,0,1-1.77,1.41,5.5,5.5,0,0,1-4.41,0,4.62,4.62,0,0,1-1.76-1.41,7.08,7.08,0,0,1-1.16-2.41,14.15,14.15,0,0,1,0-6.85,7.1,7.1,0,0,1,1.16-2.4,4.62,4.62,0,0,1,1.76-1.41,5.5,5.5,0,0,1,4.41,0,4.71,4.71,0,0,1,1.77,1.41,7.07,7.07,0,0,1,1.17,2.4A12.2,12.2,0,0,1,22.93,87.07Zm-3,0a12.91,12.91,0,0,0-.22-2.64,5.44,5.44,0,0,0-.59-1.64,2.16,2.16,0,0,0-.84-.84,2.13,2.13,0,0,0-1-.24,2.07,2.07,0,0,0-1,.24,2.15,2.15,0,0,0-.82.84A5.44,5.44,0,0,0,15,84.43a16.14,16.14,0,0,0,0,5.29,5.44,5.44,0,0,0,.58,1.64,2.14,2.14,0,0,0,.82.84,2.07,2.07,0,0,0,1,.24,2,2,0,0,0,1.81-1.08,5.44,5.44,0,0,0,.59-1.64A13,13,0,0,0,20,87.07Z" style="fill: #fff"/>
          <path d="M34.23,92.51v2.11H25.77V92.51h3V84.25c0-.18,0-.36,0-.55s0-.38,0-.57l-2,1.64a1,1,0,0,1-.41.2.91.91,0,0,1-.69-.12.84.84,0,0,1-.21-.18l-.9-1.22,4.64-3.93h2.36v13Z" style="fill: #fff"/>
          <path d="M39.85,84.94a8.72,8.72,0,0,1,.9-.14c.29,0,.57,0,.84,0a5.69,5.69,0,0,1,2.09.36,4.39,4.39,0,0,1,1.53,1,4.06,4.06,0,0,1,.93,1.46,5.16,5.16,0,0,1,.31,1.81,5.51,5.51,0,0,1-.43,2.2,5.05,5.05,0,0,1-1.18,1.7A5.32,5.32,0,0,1,43,94.39a6.42,6.42,0,0,1-2.28.39,6,6,0,0,1-1.37-.15,6.57,6.57,0,0,1-1.22-.4,6.87,6.87,0,0,1-1.05-.59,7,7,0,0,1-.87-.7l.88-1.21a.87.87,0,0,1,.73-.38,1,1,0,0,1,.55.17l.61.37a4.68,4.68,0,0,0,.8.37,3.25,3.25,0,0,0,1.11.17,2.85,2.85,0,0,0,1.17-.22,2.28,2.28,0,0,0,.83-.61,2.58,2.58,0,0,0,.49-.93,4,4,0,0,0,.16-1.15,2.39,2.39,0,0,0-.67-1.81A2.72,2.72,0,0,0,41,87.06a6,6,0,0,0-2.11.4L37.07,87l1.27-7.42h7.57v1.21a1.58,1.58,0,0,1-.09.54,1,1,0,0,1-.29.43A1.37,1.37,0,0,1,45,82a2.63,2.63,0,0,1-.77.1h-3.9Z" style="fill: #fff"/>
        </g>
        <g>
          <path d="M9.46,157.81a1,1,0,0,1,.73.26.92.92,0,0,1,.27.69v1.68H0v-.94a1.75,1.75,0,0,1,.11-.59,1.5,1.5,0,0,1,.38-.58L5,153.86q.57-.57,1-1.1a7.41,7.41,0,0,0,.73-1,4.44,4.44,0,0,0,.44-1,4.05,4.05,0,0,0,.15-1.09,2.09,2.09,0,0,0-.52-1.53,2,2,0,0,0-1.46-.52,2.34,2.34,0,0,0-.76.12,2.22,2.22,0,0,0-.62.33,2.18,2.18,0,0,0-.47.49,2,2,0,0,0-.29.61,1.2,1.2,0,0,1-.5.69,1.44,1.44,0,0,1-.9.08l-1.52-.27a5.78,5.78,0,0,1,.62-1.93A4.59,4.59,0,0,1,2,146.3a4.71,4.71,0,0,1,1.57-.83,6.33,6.33,0,0,1,1.9-.28,5.7,5.7,0,0,1,1.95.32,4.46,4.46,0,0,1,1.5.88,3.92,3.92,0,0,1,1,1.37,4.45,4.45,0,0,1,.34,1.77,4.77,4.77,0,0,1-.24,1.54,6.13,6.13,0,0,1-.65,1.35,9.85,9.85,0,0,1-1,1.24q-.54.6-1.14,1.22L4,158.15a9.37,9.37,0,0,1,1-.24,5.81,5.81,0,0,1,1-.09Z" style="fill: #fff"/>
          <path d="M22.93,152.9a12.26,12.26,0,0,1-.43,3.43,7,7,0,0,1-1.17,2.41,4.71,4.71,0,0,1-1.77,1.41,5.5,5.5,0,0,1-4.41,0,4.62,4.62,0,0,1-1.76-1.41,7.08,7.08,0,0,1-1.16-2.41,14.15,14.15,0,0,1,0-6.85,7.1,7.1,0,0,1,1.16-2.4,4.62,4.62,0,0,1,1.76-1.41,5.5,5.5,0,0,1,4.41,0,4.71,4.71,0,0,1,1.77,1.41,7.07,7.07,0,0,1,1.17,2.4A12.2,12.2,0,0,1,22.93,152.9Zm-3,0a12.91,12.91,0,0,0-.22-2.64,5.44,5.44,0,0,0-.59-1.64,2.16,2.16,0,0,0-.84-.84,2.13,2.13,0,0,0-1-.24,2.07,2.07,0,0,0-1,.24,2.15,2.15,0,0,0-.82.84,5.44,5.44,0,0,0-.58,1.64,16.14,16.14,0,0,0,0,5.29,5.44,5.44,0,0,0,.58,1.64,2.14,2.14,0,0,0,.82.84,2.07,2.07,0,0,0,1,.24,2,2,0,0,0,1.81-1.08,5.44,5.44,0,0,0,.59-1.64A13,13,0,0,0,20,152.9Z" style="fill: #fff"/>
          <path d="M34.23,158.33v2.11H25.77v-2.11h3v-8.25c0-.18,0-.36,0-.55s0-.38,0-.57l-2,1.64a1,1,0,0,1-.41.2.91.91,0,0,1-.69-.12.84.84,0,0,1-.21-.18l-.9-1.22,4.64-3.93h2.36v13Z" style="fill: #fff"/>
          <path d="M41.08,150.78l-.46.55a4.07,4.07,0,0,1,.85-.27,5.06,5.06,0,0,1,2.63.19,4.07,4.07,0,0,1,2.43,2.25,4.83,4.83,0,0,1,.38,2,5.12,5.12,0,0,1-.39,2,4.89,4.89,0,0,1-1.1,1.63,5.23,5.23,0,0,1-1.7,1.1,5.81,5.81,0,0,1-2.21.4,5.92,5.92,0,0,1-2.21-.39,4.74,4.74,0,0,1-1.66-1.1,4.79,4.79,0,0,1-1-1.69,6.21,6.21,0,0,1-.36-2.17,6.13,6.13,0,0,1,.43-2.21A9.73,9.73,0,0,1,38,150.75l3.5-4.72a1.7,1.7,0,0,1,.61-.47,2.08,2.08,0,0,1,.92-.2h2.55Zm.37,7.52a2.72,2.72,0,0,0,1-.2,2.42,2.42,0,0,0,.82-.55,2.64,2.64,0,0,0,.54-.83,2.66,2.66,0,0,0,.2-1,3.06,3.06,0,0,0-.19-1.1,2.23,2.23,0,0,0-1.35-1.34,3.07,3.07,0,0,0-1.06-.18,2.56,2.56,0,0,0-1,.19,2.25,2.25,0,0,0-.78.54,2.46,2.46,0,0,0-.51.83,2.91,2.91,0,0,0-.18,1,3.49,3.49,0,0,0,.16,1.08,2.22,2.22,0,0,0,.47.83,2.08,2.08,0,0,0,.77.53A2.91,2.91,0,0,0,41.46,158.3Z" style="fill: #fff"/>
        </g>
        <g>
          <path d="M685.9,168.13V148.55h-2.67v-3.88q.41-.25,1.1-.58l1.07-.54a3.84,3.84,0,0,0,.85-.67,4.16,4.16,0,0,0,.79-1.13h3.9v26.38Z" style="fill: #fff"/>
          <path d="M694.75,171.71l-.59-2.43h.74a.43.43,0,0,0,.27-.13.52.52,0,0,0,.15-.33c0-.14,0-.36,0-.66h-1.61v-4.66h4.73v1.29q0,1.68,0,2.49a16,16,0,0,1-.2,1.94,3.41,3.41,0,0,1-.56,1.6,2.79,2.79,0,0,1-1.12.76A3.54,3.54,0,0,1,694.75,171.71Z" style="fill: #fff"/>
          <path d="M700.43,159.61h5.1v1c0,.18,0,.43,0,.78a6.43,6.43,0,0,0,.1.83,5.75,5.75,0,0,0,.21.73,1.9,1.9,0,0,0,.35.64,1.81,1.81,0,0,0,.54.39,1.59,1.59,0,0,0,.74.17,1.75,1.75,0,0,0,.73-.15,1.84,1.84,0,0,0,.53-.34,1.58,1.58,0,0,0,.35-.57,5.24,5.24,0,0,0,.21-.64,4.68,4.68,0,0,0,.1-.74c0-.32,0-.55,0-.69v-.67a4.09,4.09,0,0,0-.9-2.83,3.35,3.35,0,0,0-2.72-1v-5.13a7.31,7.31,0,0,0,1.51-.08,3.26,3.26,0,0,0,1.12-.41,1.78,1.78,0,0,0,.75-.9,4.09,4.09,0,0,0,.24-1.51,6.44,6.44,0,0,0-.07-1,3.75,3.75,0,0,0-.26-.89,1.44,1.44,0,0,0-.6-.68,2,2,0,0,0-1-.24,1.6,1.6,0,0,0-.74.17,1.84,1.84,0,0,0-.54.39,1.92,1.92,0,0,0-.35.63,5.35,5.35,0,0,0-.21.72,6.68,6.68,0,0,0-.1.83c0,.34,0,.59,0,.77v1h-5.11v-1.67a7.46,7.46,0,0,1,1.85-5.36,8,8,0,0,1,10.47,0,7.46,7.46,0,0,1,1.86,5.35,7.66,7.66,0,0,1-.68,3.17,5.2,5.2,0,0,1-2,2.34,5.86,5.86,0,0,1,2,2.7,10.07,10.07,0,0,1,.64,3.61,12.92,12.92,0,0,1-.39,3.3,8,8,0,0,1-1.2,2.61A5.24,5.24,0,0,1,710.8,168a8.1,8.1,0,0,1-3.3.62,9,9,0,0,1-2.84-.41,5.65,5.65,0,0,1-2-1.11,5.45,5.45,0,0,1-1.28-1.76,8.7,8.7,0,0,1-.7-2.23,17.41,17.41,0,0,1-.23-2.64Z" style="fill: #fff"/>
          <path d="M716.8,159.77h5.07q0,.72,0,1.21t.06,1.07a4.65,4.65,0,0,0,.15.94,3.59,3.59,0,0,0,.29.7,1.18,1.18,0,0,0,.47.48,1.38,1.38,0,0,0,.67.15,1.91,1.91,0,0,0,.86-.19,1.63,1.63,0,0,0,.62-.52,3.46,3.46,0,0,0,.4-.76,4.24,4.24,0,0,0,.24-.92c0-.33.09-.66.13-1a7.55,7.55,0,0,0,0-1q0-.47,0-.88v-.4c0-.29,0-.55,0-.77s0-.49-.07-.82a3.47,3.47,0,0,0-.53-1.55,1.48,1.48,0,0,0-.56-.52,1.69,1.69,0,0,0-.8-.18,1.66,1.66,0,0,0-1.27.62,4.91,4.91,0,0,0-.87,1.43h-4.32V141.75h12.55v5H722.1v4.76a5,5,0,0,1,2.56-.86,6.46,6.46,0,0,1,2.5.45,4.77,4.77,0,0,1,1.76,1.2,6.19,6.19,0,0,1,1.1,1.82,9.41,9.41,0,0,1,.59,2.19,17.2,17.2,0,0,1,.16,2.44,23.36,23.36,0,0,1-.12,2.42,17.73,17.73,0,0,1-.4,2.29,7.69,7.69,0,0,1-.8,2.07,7.21,7.21,0,0,1-1.27,1.62,5.1,5.1,0,0,1-1.88,1.11,7.88,7.88,0,0,1-2.56.39,8,8,0,0,1-2.86-.47,5.45,5.45,0,0,1-2-1.26,6,6,0,0,1-1.24-2,10.25,10.25,0,0,1-.66-2.41A19.24,19.24,0,0,1,716.8,159.77Z" style="fill: #fff"/>
          <path d="M733.13,159.77h5.07q0,.72,0,1.21t.06,1.07a4.65,4.65,0,0,0,.15.94,3.59,3.59,0,0,0,.29.7,1.18,1.18,0,0,0,.47.48,1.38,1.38,0,0,0,.67.15,1.91,1.91,0,0,0,.86-.19,1.63,1.63,0,0,0,.62-.52,3.46,3.46,0,0,0,.4-.76,4.24,4.24,0,0,0,.24-.92c0-.33.09-.66.13-1a7.55,7.55,0,0,0,0-1q0-.47,0-.88v-.4c0-.29,0-.55,0-.77s0-.49-.07-.82a3.47,3.47,0,0,0-.53-1.55,1.48,1.48,0,0,0-.56-.52,1.69,1.69,0,0,0-.8-.18,1.66,1.66,0,0,0-1.27.62,4.91,4.91,0,0,0-.87,1.43h-4.32V141.75h12.55v5h-7.81v4.76a5,5,0,0,1,2.56-.86,6.46,6.46,0,0,1,2.5.45,4.77,4.77,0,0,1,1.76,1.2,6.19,6.19,0,0,1,1.1,1.82,9.41,9.41,0,0,1,.59,2.19,17.2,17.2,0,0,1,.16,2.44,23.36,23.36,0,0,1-.12,2.42,17.73,17.73,0,0,1-.4,2.29,7.69,7.69,0,0,1-.8,2.07,7.21,7.21,0,0,1-1.27,1.62,5.1,5.1,0,0,1-1.88,1.11,7.88,7.88,0,0,1-2.56.39,8,8,0,0,1-2.86-.47,5.45,5.45,0,0,1-2-1.26,6,6,0,0,1-1.24-2,10.25,10.25,0,0,1-.66-2.41A19.24,19.24,0,0,1,733.13,159.77Z" style="fill: #fff"/>
        </g>
        <g>
          <path d="M348.64,23.65V14.3a18,18,0,0,1,.19-2.67,11.8,11.8,0,0,1,.69-2.54,7.78,7.78,0,0,1,1.27-2.2,5.64,5.64,0,0,1,2.05-1.49,7,7,0,0,1,2.9-.57,6.92,6.92,0,0,1,2.91.59A5.56,5.56,0,0,1,360.75,7,7.34,7.34,0,0,1,362,9.45a10.21,10.21,0,0,1,.42,3v.47h-5q0-.56,0-.94a7.43,7.43,0,0,0-.11-.94,3.37,3.37,0,0,0-.26-.9,1.69,1.69,0,0,0-.5-.6,1.3,1.3,0,0,0-.81-.26q-2,0-2,5.16V16a5.3,5.3,0,0,1,3-.91,6.64,6.64,0,0,1,2.48.43A4.82,4.82,0,0,1,361,16.63a5.55,5.55,0,0,1,1.09,1.77,9.65,9.65,0,0,1,.58,2.18,17.51,17.51,0,0,1,.16,2.48,14.91,14.91,0,0,1-.23,2.69,10.53,10.53,0,0,1-.77,2.46,7.44,7.44,0,0,1-1.34,2,5.85,5.85,0,0,1-2,1.37,7.57,7.57,0,0,1-5.42,0,5.86,5.86,0,0,1-2-1.31,7.65,7.65,0,0,1-1.36-1.92,9,9,0,0,1-.8-2.29A12.49,12.49,0,0,1,348.64,23.65Zm5.14-3.11V24c0,.3,0,.6,0,.89a7.82,7.82,0,0,0,.15,1,3.88,3.88,0,0,0,.32,1,1.92,1.92,0,0,0,.58.68,1.42,1.42,0,0,0,.87.28,1.79,1.79,0,0,0,.55-.08,1.07,1.07,0,0,0,.45-.27q.19-.19.34-.37a1.47,1.47,0,0,0,.25-.51c.07-.22.13-.4.18-.53a2.44,2.44,0,0,0,.12-.62c0-.27,0-.47.07-.59a4.7,4.7,0,0,0,0-.6c0-.28,0-.45,0-.51v-.46q0-.5,0-.81c0-.21,0-.49-.07-.84a3.42,3.42,0,0,0-.18-.86,4.52,4.52,0,0,0-.34-.69,1.33,1.33,0,0,0-.56-.52,1.86,1.86,0,0,0-.83-.18A2.28,2.28,0,0,0,353.78,20.54Z" style="fill: #fff"/>
          <path d="M365.93,31.7,370.5,9.79h-6.42V5.35h11.35V7.94L370.89,31.7Z" style="fill: #fff"/>
          <path d="M377,24V13.12a11.76,11.76,0,0,1,.42-3.23,8.13,8.13,0,0,1,1.25-2.62,5.64,5.64,0,0,1,2.22-1.79,8.31,8.31,0,0,1,6.42,0,5.6,5.6,0,0,1,2.22,1.79,8.28,8.28,0,0,1,1.25,2.61,11.77,11.77,0,0,1,.42,3.22V24a11,11,0,0,1-.44,3.16,8.26,8.26,0,0,1-1.3,2.62,6,6,0,0,1-2.23,1.81,7.07,7.07,0,0,1-3.12.67,7.26,7.26,0,0,1-3.16-.66,5.88,5.88,0,0,1-2.23-1.8,8.23,8.23,0,0,1-1.28-2.61A11.22,11.22,0,0,1,377,24Zm9.08,0V13.12q0-3.79-2-3.79a1.52,1.52,0,0,0-.92.28,1.89,1.89,0,0,0-.58.66,3.52,3.52,0,0,0-.31,1,7.66,7.66,0,0,0-.13,1c0,.26,0,.57,0,.92V24q0,.45,0,.89a8,8,0,0,0,.15,1,3.88,3.88,0,0,0,.32,1,1.94,1.94,0,0,0,.58.68,1.42,1.42,0,0,0,.87.28,1.48,1.48,0,0,0,1-.39,2.2,2.2,0,0,0,.62-1,7.19,7.19,0,0,0,.26-1.2A9.63,9.63,0,0,0,386.08,24Z" style="fill: #fff"/>
        </g>
        <g>
          <path d="M815.33,99.77V80.18h-2.67V76.3q.41-.25,1.1-.58l1.07-.54a3.84,3.84,0,0,0,.85-.67,4.16,4.16,0,0,0,.79-1.13h3.9V99.77Z" style="fill: #fff"/>
          <path d="M824.17,103.34l-.59-2.43h.74a.43.43,0,0,0,.27-.13.52.52,0,0,0,.15-.33c0-.14,0-.36,0-.66h-1.61V95.12h4.73v1.29q0,1.68,0,2.49a16,16,0,0,1-.2,1.94,3.41,3.41,0,0,1-.56,1.6,2.79,2.79,0,0,1-1.12.76A3.54,3.54,0,0,1,824.17,103.34Z" style="fill: #fff"/>
          <path d="M830.19,91.4h5.07q0,.72,0,1.21t.06,1.07a4.65,4.65,0,0,0,.15.94,3.59,3.59,0,0,0,.29.7,1.18,1.18,0,0,0,.47.48,1.38,1.38,0,0,0,.67.15,1.91,1.91,0,0,0,.86-.19,1.63,1.63,0,0,0,.62-.52,3.46,3.46,0,0,0,.4-.76,4.24,4.24,0,0,0,.24-.92c0-.33.09-.66.13-1a7.55,7.55,0,0,0,0-1q0-.47,0-.88v-.4c0-.29,0-.55,0-.77s0-.49-.07-.82a3.47,3.47,0,0,0-.53-1.55,1.48,1.48,0,0,0-.56-.52,1.69,1.69,0,0,0-.8-.18,1.66,1.66,0,0,0-1.27.62,4.91,4.91,0,0,0-.87,1.43h-4.32V73.39H843.3v5H835.5v4.76a5,5,0,0,1,2.56-.86,6.46,6.46,0,0,1,2.5.45,4.77,4.77,0,0,1,1.76,1.2,6.19,6.19,0,0,1,1.1,1.82A9.41,9.41,0,0,1,844,88a17.2,17.2,0,0,1,.16,2.44,23.36,23.36,0,0,1-.12,2.42,17.73,17.73,0,0,1-.4,2.29,7.69,7.69,0,0,1-.8,2.07,7.21,7.21,0,0,1-1.27,1.62,5.1,5.1,0,0,1-1.88,1.11,7.88,7.88,0,0,1-2.56.39,8,8,0,0,1-2.86-.47,5.45,5.45,0,0,1-2-1.26,6,6,0,0,1-1.24-2,10.25,10.25,0,0,1-.66-2.41A19.24,19.24,0,0,1,830.19,91.4Z" style="fill: #fff"/>
          <path d="M846.61,92.6v-.44h5q0,.45,0,.76t.06.78a3,3,0,0,0,.17.8,4.25,4.25,0,0,0,.31.64,1.22,1.22,0,0,0,.51.48,1.65,1.65,0,0,0,.75.16,1.3,1.3,0,0,0,.76-.23,1.93,1.93,0,0,0,.54-.56,3.31,3.31,0,0,0,.35-.87q.15-.54.22-1a10.05,10.05,0,0,0,.11-1.08q0-.65,0-1v-1.8a5.93,5.93,0,0,1-2.93.73q-6.2,0-6.2-8a14.85,14.85,0,0,1,.23-2.67,10.57,10.57,0,0,1,.78-2.47,7.73,7.73,0,0,1,1.35-2.07,5.84,5.84,0,0,1,2-1.39,6.86,6.86,0,0,1,2.72-.52,6.62,6.62,0,0,1,2.67.53,5.85,5.85,0,0,1,2,1.41,8.31,8.31,0,0,1,1.36,2.07,10.52,10.52,0,0,1,.81,2.47,13.85,13.85,0,0,1,.25,2.64v8.2a21.25,21.25,0,0,1-.18,2.85,12.62,12.62,0,0,1-.68,2.68A8,8,0,0,1,858.39,98a5.76,5.76,0,0,1-2.05,1.55,6.76,6.76,0,0,1-2.92.6,7.3,7.3,0,0,1-3-.57,5.42,5.42,0,0,1-2.11-1.6,7.64,7.64,0,0,1-1.25-2.4A10.73,10.73,0,0,1,846.61,92.6Zm8.8-8V81.15a8.91,8.91,0,0,0-.07-1.15,8.42,8.42,0,0,0-.26-1.21,2.18,2.18,0,0,0-.62-1,1.49,1.49,0,0,0-1-.4,1.46,1.46,0,0,0-.73.18,1.7,1.7,0,0,0-.52.44,2.34,2.34,0,0,0-.34.7,6.18,6.18,0,0,0-.21.78,7,7,0,0,0-.1.86q0,.53,0,.78c0,.17,0,.4,0,.69v.67c0,.15,0,.39,0,.72a5.44,5.44,0,0,0,.1.79,5.86,5.86,0,0,0,.21.68,1.61,1.61,0,0,0,.88,1,1.62,1.62,0,0,0,.73.16,2.07,2.07,0,0,0,1.12-.34A2.85,2.85,0,0,0,855.42,84.62Z" style="fill: #fff"/>
          <path d="M863.24,92.6v-.44h5q0,.45,0,.76t.06.78a3,3,0,0,0,.17.8,4.25,4.25,0,0,0,.31.64,1.22,1.22,0,0,0,.51.48,1.65,1.65,0,0,0,.75.16,1.3,1.3,0,0,0,.76-.23,1.93,1.93,0,0,0,.54-.56,3.31,3.31,0,0,0,.35-.87q.15-.54.22-1a10.05,10.05,0,0,0,.11-1.08q0-.65,0-1v-1.8a5.93,5.93,0,0,1-2.93.73q-6.2,0-6.2-8a14.85,14.85,0,0,1,.23-2.67,10.57,10.57,0,0,1,.78-2.47,7.73,7.73,0,0,1,1.35-2.07,5.84,5.84,0,0,1,2-1.39,6.86,6.86,0,0,1,2.72-.52,6.62,6.62,0,0,1,2.67.53,5.85,5.85,0,0,1,2,1.41,8.31,8.31,0,0,1,1.36,2.07,10.52,10.52,0,0,1,.81,2.47,13.85,13.85,0,0,1,.25,2.64v8.2a21.25,21.25,0,0,1-.18,2.85,12.62,12.62,0,0,1-.68,2.68A8,8,0,0,1,875,98,5.76,5.76,0,0,1,873,99.59a6.76,6.76,0,0,1-2.92.6,7.3,7.3,0,0,1-3-.57A5.42,5.42,0,0,1,865,98a7.64,7.64,0,0,1-1.25-2.4A10.73,10.73,0,0,1,863.24,92.6Zm8.8-8V81.15A8.91,8.91,0,0,0,872,80a8.42,8.42,0,0,0-.26-1.21,2.18,2.18,0,0,0-.62-1,1.49,1.49,0,0,0-1-.4,1.46,1.46,0,0,0-.73.18,1.7,1.7,0,0,0-.52.44,2.34,2.34,0,0,0-.34.7,6.18,6.18,0,0,0-.21.78,7,7,0,0,0-.1.86q0,.53,0,.78c0,.17,0,.4,0,.69v.67c0,.15,0,.39,0,.72a5.44,5.44,0,0,0,.1.79,5.86,5.86,0,0,0,.21.68,1.61,1.61,0,0,0,.88,1,1.62,1.62,0,0,0,.73.16,2.07,2.07,0,0,0,1.12-.34A2.85,2.85,0,0,0,872,84.62Z" style="fill: #fff"/>
        </g>
      </g>
    </g>
  </g>
</svg>
