<?xml version="1.0" encoding="utf-8"?>
<!-- Generator: Adobe Illustrator 16.0.0, SVG Export Plug-In . SVG Version: 6.00 Build 0)  -->
<!DOCTYPE svg PUBLIC "-//W3C//DTD SVG 1.1//EN" "http://www.w3.org/Graphics/SVG/1.1/DTD/svg11.dtd">
<svg version="1.1" id="Layer_1" xmlns="http://www.w3.org/2000/svg" xmlns:xlink="http://www.w3.org/1999/xlink" x="0px" y="0px"
	 width="841.89px" height="595.28px" viewBox="0 0 841.89 595.28" enable-background="new 0 0 841.89 595.28" xml:space="preserve">
<g>
	<g>
		<polygon fill="#C03A2B" points="262.966,156.964 173.517,208.948 38.459,130.972 127.91,78.987 		"/>
	</g>
	<g>
		<polygon fill="#C03A2B" points="132.862,498.787 397.639,344.916 307.599,292.934 132.862,394.479 		"/>
		<polygon fill="#C03A2B" points="128.499,498.787 128.499,188.408 38.459,136.423 38.459,446.805 		"/>
	</g>
</g>
<g>
	<path fill="#ffffff" d="M354.922,156.82h13.466v87.57h23.227v12.756h-36.693V156.82z"/>
	<path fill="#ffffff" d="M399.72,177.892c0-13.623,9.208-22.075,22.668-22.075c13.605,0,22.812,8.453,22.812,22.075v58.186
		c0,13.618-9.206,22.071-22.812,22.071c-13.46,0-22.668-8.453-22.668-22.071V177.892z M431.737,179.176
		c0-6.305-3.438-10.601-9.35-10.601c-5.909,0-9.197,4.296-9.197,10.601v55.615c0,6.303,3.288,10.605,9.197,10.605
		c5.911,0,9.35-4.302,9.35-10.605V179.176z"/>
	<path fill="#ffffff" d="M460.04,177.892c0-13.623,9.208-22.075,22.678-22.075c14.836,0,22.803,9.027,22.803,21.065v14.62h-13.462
		v-12.897c0-4.873-2.335-10.03-9.341-10.03c-6.195,0-9.213,4.296-9.213,10.601v55.615c0,6.303,3.018,10.605,9.213,10.605
		c7.006,0,9.341-4.727,9.341-9.177v-22.646h-9.487v-12.178h22.949v35.684c0,12.042-7.967,21.069-22.803,21.069
		c-13.47,0-22.678-8.453-22.678-22.071V177.892z"/>
	<path fill="#ffffff" d="M521.597,156.82h13.466v100.326h-13.466V156.82z"/>
	<path fill="#ffffff" d="M549.9,223.611h13.469v12.037c0,4.871,2.472,9.748,8.794,9.748c5.906,0,9.065-3.867,9.065-9.888v-16.77
		c0-3.729-1.781-6.308-5.495-6.453l-11.401-0.575c-9.348-0.426-14.432-6.014-14.432-14.616v-19.201
		c0-13.623,9.071-22.075,22.53-22.075c14.842,0,22.267,9.027,22.267,21.065v12.046h-13.469v-10.608c0-4.587-2.613-9.745-8.934-9.745
		c-5.764,0-8.926,3.871-8.926,9.885v16.056c0,3.725,1.787,6.304,5.356,6.449l11.539,0.575c9.344,0.43,14.433,5.869,14.433,14.471
		v20.066c0,13.618-9.07,22.071-22.671,22.071c-14.701,0-22.126-9.028-22.126-21.069V223.611z"/>
	<path fill="#ffffff" d="M618.872,169.576h-17.168V156.82h47.951v12.756h-17.176v87.57h-13.607V169.576z"/>
	<path fill="#ffffff" d="M659.68,156.82h13.472v100.326H659.68V156.82z"/>
	<path fill="#ffffff" d="M689.501,177.892c0-13.623,8.938-22.075,22.394-22.075c14.842,0,22.13,9.027,22.13,21.065v16.197h-13.469
		v-14.474c0-4.873-2.336-10.03-8.796-10.03c-5.909,0-8.79,4.296-8.79,10.601v55.615c0,6.303,2.881,10.605,8.79,10.605
		c6.46,0,8.796-5.158,8.796-10.033v-15.912h13.469v17.628c0,12.042-7.288,21.069-22.13,21.069c-13.455,0-22.394-8.453-22.394-22.071
		V177.892z"/>
	<path fill="#ffffff" d="M744.047,223.611h13.467v12.037c0,4.871,2.472,9.748,8.794,9.748c5.908,0,9.069-3.867,9.069-9.888v-16.77
		c0-3.729-1.789-6.308-5.489-6.453l-11.409-0.575c-9.347-0.426-14.432-6.014-14.432-14.616v-19.201
		c0-13.623,9.072-22.075,22.534-22.075c14.847,0,22.267,9.027,22.267,21.065v12.046h-13.471v-10.608
		c0-4.587-2.615-9.745-8.932-9.745c-5.772,0-8.932,3.871-8.932,9.885v16.056c0,3.725,1.786,6.304,5.358,6.449l11.544,0.575
		c9.342,0.43,14.432,5.869,14.432,14.471v20.066c0,13.618-9.069,22.071-22.676,22.071c-14.699,0-22.125-9.028-22.125-21.069V223.611
		z"/>
</g>
<g>
	<path fill="#ffffff" d="M437.506,313.764c0-13.635,8.393-22.108,21.034-22.108c13.947,0,20.788,9.045,20.788,21.102v16.228h-12.652
		v-14.501c0-4.88-2.194-10.051-8.26-10.051c-5.554,0-8.263,4.311-8.263,10.622v55.713c0,6.318,2.709,10.622,8.263,10.622
		c6.065,0,8.26-5.171,8.26-10.045v-15.938h12.652v17.658c0,12.062-6.841,21.105-20.788,21.105c-12.642,0-21.034-8.468-21.034-22.112
		V313.764z"/>
	<path fill="#ffffff" d="M491.585,292.66h12.653v87.724h21.809v12.783h-34.462V292.66z"/>
	<path fill="#ffffff" d="M534.572,292.66h12.646v78.538c0,5.746,2.841,10.191,9.17,10.191c6.318,0,9.159-4.445,9.159-10.191V292.66
		h12.778v79.834c0,12.92-8.648,21.677-21.938,21.677c-13.167,0-21.815-8.757-21.815-21.677V292.66z"/>
	<path fill="#ffffff" d="M591.62,359.567h12.65v12.062c0,4.88,2.321,9.761,8.261,9.761c5.549,0,8.524-3.874,8.524-9.906v-16.794
		c0-3.737-1.684-6.321-5.171-6.464l-10.711-0.575c-8.78-0.427-13.554-6.029-13.554-14.646v-19.24
		c0-13.635,8.52-22.108,21.169-22.108c13.944,0,20.908,9.045,20.908,21.102v12.062h-12.642v-10.621c0-4.595-2.455-9.766-8.389-9.766
		c-5.431,0-8.396,3.876-8.396,9.91v16.078c0,3.734,1.671,6.316,5.037,6.465l10.835,0.568c8.779,0.435,13.555,5.894,13.555,14.504
		v20.101c0,13.645-8.517,22.112-21.298,22.112c-13.806,0-20.779-9.044-20.779-21.105V359.567z"/>
	<path fill="#ffffff" d="M656.416,305.438h-16.138V292.66h45.049v12.778h-16.125v87.729h-12.786V305.438z"/>
	<path fill="#ffffff" d="M694.756,292.66h35.748v12.778h-23.101v30.442h22.197v12.345h-22.197v32.158h23.229v12.783h-35.876V292.66z
		"/>
	<path fill="#ffffff" d="M742.771,292.66h21.426c15.358,0,21.164,7.033,21.164,20.822v10.046c0,10.051-3.605,16.938-10.971,19.53
		c6.842,1.437,11.104,6.027,11.104,15.075v25.695c0,3.307,0.771,7.466,3.481,8.912v0.426h-13.162
		c-2.71-1.438-2.967-6.467-2.967-10.052v-22.683c0-7.184-2.842-10.916-11.874-10.916c-0.521,0-4.902,0.145-5.55,0.285v43.365
		h-12.651V292.66z M772.969,315.342c0-6.459-2.965-10.188-10.842-10.188h-6.705v32.014h6.705c7.877,0,10.842-4.88,10.842-11.343
		V315.342z"/>
</g>
</svg>
