<svg xmlns="http://www.w3.org/2000/svg" width="984" height="749.18" viewBox="0 0 984 749.18">
  <title>lots of people</title>
  <g id="Layer_2" data-name="Layer 2">
    <g id="Layer_1-2" data-name="Layer 1">
      <path d="M79.49,113s3.22,22.38,3.22,22.4a2.9,2.9,0,0,0,5.48-.15,9.11,9.11,0,0,0,0-1.6l-1.32-27.5.42-9.45c.37-3.21.45-2.24,4.09-4.43s10.08-12.07,10.39-12.55a8,8,0,0,0,1-1.9,1.83,1.83,0,0,0-1.44-2.14,2.09,2.09,0,0,0-1.86.79C99,77,91.69,86.75,86.22,87.69a23.85,23.85,0,0,0-6-.83H78.8a24,24,0,0,0-6,.83C67.28,86.75,60,77,59.48,76.51a2,2,0,0,0-1.83-.79,1.82,1.82,0,0,0-1.44,2.14,7.46,7.46,0,0,0,1,1.9c.32.47,6.67,10.31,10.38,12.55s3.74,1.22,4.09,4.43l.42,9.45-1.32,27.5a6.55,6.55,0,0,0,.05,1.6,2.87,2.87,0,0,0,5.44.15S79.49,113,79.49,113m0-42.13A7.14,7.14,0,1,0,86.65,78a7.15,7.15,0,0,0-7.16-7.14m59.21-2.26.78-25.36,14.24,31.55a2.75,2.75,0,0,0,5.06-2.16s-10-31.39-12.9-37.23S138.6,26,127.72,26h-2.24c-10.88,0-15.31,3.56-18.18,9.4S94.42,72.68,94.42,72.68a2.75,2.75,0,0,0,1.45,3.6,2.71,2.71,0,0,0,3.57-1.45l14.27-31.55.78,25.36-2.25,63.77a4.59,4.59,0,0,0,4.24,4.88,1.72,1.72,0,0,0,.33,0,4.62,4.62,0,0,0,4.6-4.27l5.16-52.52L131.81,133a4.56,4.56,0,0,0,4.54,4.27,1.55,1.55,0,0,0,.33,0,4.58,4.58,0,0,0,4.25-4.88l-2.26-63.77ZM126.61,0a11.66,11.66,0,1,0,11.65,11.66A11.67,11.67,0,0,0,126.61,0m-93,91.55,2.52,43a2.73,2.73,0,1,0,5.46,0l2.33-43h7.61L43.68,43.31,59.52,74.85a2.74,2.74,0,1,0,5-2.13S53,41.33,50.08,35.48s-5.69-9.41-16.59-9.41H31.27c-10.87,0-13.72,3.56-16.58,9.41S.22,72.72.22,72.72a2.72,2.72,0,0,0,1.43,3.59,2.76,2.76,0,0,0,3.6-1.46L21.09,43.31,13.22,91.55h7.6l2.36,43a2.74,2.74,0,0,0,5.48,0l2.35-43ZM44.06,11.69A11.68,11.68,0,1,1,32.38,0,11.67,11.67,0,0,1,44.06,11.69" style="fill: #c03b29"/>
      <path d="M244.49,113s3.22,22.38,3.22,22.4a2.9,2.9,0,0,0,5.48-.15,9.11,9.11,0,0,0,0-1.6l-1.32-27.5.42-9.45c.37-3.21.45-2.24,4.09-4.43s10.08-12.07,10.39-12.55a8,8,0,0,0,1-1.9,1.83,1.83,0,0,0-1.44-2.14,2.09,2.09,0,0,0-1.86.79c-.48.53-7.78,10.25-13.26,11.18a23.85,23.85,0,0,0-6-.83H243.8a24,24,0,0,0-6,.83C232.28,86.75,225,77,224.48,76.51a2,2,0,0,0-1.83-.79,1.82,1.82,0,0,0-1.44,2.14,7.46,7.46,0,0,0,1,1.9c.32.47,6.67,10.31,10.38,12.55s3.74,1.22,4.09,4.43l.42,9.45-1.32,27.5a6.55,6.55,0,0,0,.05,1.6,2.87,2.87,0,0,0,5.44.15s3.23-22.4,3.23-22.4m0-42.13A7.14,7.14,0,1,0,251.65,78a7.15,7.15,0,0,0-7.16-7.14m59.21-2.26.78-25.36,14.24,31.55a2.75,2.75,0,0,0,5.06-2.16s-10-31.39-12.9-37.23S303.6,26,292.72,26h-2.24c-10.88,0-15.31,3.56-18.18,9.4s-12.88,37.23-12.88,37.23a2.75,2.75,0,0,0,1.45,3.6,2.71,2.71,0,0,0,3.57-1.45l14.27-31.55.78,25.36-2.25,63.77a4.59,4.59,0,0,0,4.24,4.88,1.72,1.72,0,0,0,.33,0,4.62,4.62,0,0,0,4.6-4.27l5.16-52.52L296.81,133a4.56,4.56,0,0,0,4.54,4.27,1.55,1.55,0,0,0,.33,0,4.58,4.58,0,0,0,4.25-4.88l-2.26-63.77ZM291.61,0a11.66,11.66,0,1,0,11.65,11.66A11.67,11.67,0,0,0,291.61,0m-93,91.55,2.52,43a2.73,2.73,0,1,0,5.46,0l2.33-43h7.61l-7.86-48.24,15.84,31.54a2.74,2.74,0,1,0,5-2.13S218,41.33,215.08,35.48s-5.69-9.41-16.59-9.41h-2.22c-10.87,0-13.72,3.56-16.58,9.41s-14.47,37.24-14.47,37.24a2.72,2.72,0,0,0,1.43,3.59,2.76,2.76,0,0,0,3.6-1.46l15.84-31.54-7.88,48.24h7.6l2.36,43a2.74,2.74,0,0,0,5.48,0l2.35-43Zm10.45-79.86A11.68,11.68,0,1,1,197.38,0a11.67,11.67,0,0,1,11.68,11.65" style="fill: #c03b29"/>
      <path d="M409.49,113s3.22,22.38,3.22,22.4a2.9,2.9,0,0,0,5.48-.15,9.11,9.11,0,0,0,0-1.6l-1.32-27.5.42-9.45c.37-3.21.45-2.24,4.09-4.43s10.08-12.07,10.39-12.55a8,8,0,0,0,1-1.9,1.83,1.83,0,0,0-1.44-2.14,2.09,2.09,0,0,0-1.86.79c-.48.53-7.78,10.25-13.26,11.18a23.85,23.85,0,0,0-6-.83H408.8a24,24,0,0,0-6,.83C397.28,86.75,390,77,389.48,76.51a2,2,0,0,0-1.83-.79,1.82,1.82,0,0,0-1.44,2.14,7.46,7.46,0,0,0,1,1.9c.32.47,6.67,10.31,10.38,12.55s3.74,1.22,4.09,4.43l.42,9.45-1.32,27.5a6.55,6.55,0,0,0,.05,1.6,2.87,2.87,0,0,0,5.44.15s3.23-22.4,3.23-22.4m0-42.13A7.14,7.14,0,1,0,416.65,78a7.15,7.15,0,0,0-7.16-7.14m59.21-2.26.78-25.36,14.24,31.55a2.75,2.75,0,0,0,5.06-2.16s-10-31.39-12.9-37.23S468.6,26,457.72,26h-2.24c-10.88,0-15.31,3.56-18.18,9.4s-12.88,37.23-12.88,37.23a2.75,2.75,0,0,0,1.45,3.6,2.71,2.71,0,0,0,3.57-1.45l14.27-31.55.78,25.36-2.25,63.77a4.59,4.59,0,0,0,4.24,4.88,1.72,1.72,0,0,0,.33,0,4.62,4.62,0,0,0,4.6-4.27l5.16-52.52L461.81,133a4.56,4.56,0,0,0,4.54,4.27,1.55,1.55,0,0,0,.33,0,4.58,4.58,0,0,0,4.25-4.88l-2.26-63.77ZM456.61,0a11.66,11.66,0,1,0,11.65,11.66A11.67,11.67,0,0,0,456.61,0m-93,91.55,2.52,43a2.73,2.73,0,1,0,5.46,0l2.33-43h7.61l-7.86-48.24,15.84,31.54a2.74,2.74,0,1,0,5-2.13S383,41.33,380.08,35.48s-5.69-9.41-16.59-9.41h-2.22c-10.87,0-13.72,3.56-16.58,9.41s-14.47,37.24-14.47,37.24a2.72,2.72,0,0,0,1.43,3.59,2.76,2.76,0,0,0,3.6-1.46l15.84-31.54-7.88,48.24h7.6l2.36,43a2.74,2.74,0,0,0,5.48,0l2.35-43Zm10.45-79.86A11.68,11.68,0,1,1,362.38,0a11.67,11.67,0,0,1,11.68,11.65" style="fill: #c03b29"/>
      <path d="M574.49,113s3.22,22.38,3.22,22.4a2.9,2.9,0,0,0,5.48-.15,9.11,9.11,0,0,0,0-1.6l-1.32-27.5.42-9.45c.37-3.21.45-2.24,4.09-4.43s10.08-12.07,10.39-12.55a8,8,0,0,0,1-1.9,1.83,1.83,0,0,0-1.44-2.14,2.09,2.09,0,0,0-1.86.79c-.48.53-7.78,10.25-13.26,11.18a23.85,23.85,0,0,0-6-.83H573.8a24,24,0,0,0-6,.83C562.28,86.75,555,77,554.48,76.51a2,2,0,0,0-1.83-.79,1.82,1.82,0,0,0-1.44,2.14,7.46,7.46,0,0,0,1,1.9c.32.47,6.67,10.31,10.38,12.55s3.74,1.22,4.09,4.43l.42,9.45-1.32,27.5a6.55,6.55,0,0,0,.05,1.6,2.87,2.87,0,0,0,5.44.15s3.23-22.4,3.23-22.4m0-42.13A7.14,7.14,0,1,0,581.65,78a7.15,7.15,0,0,0-7.16-7.14m59.21-2.26.78-25.36,14.24,31.55a2.75,2.75,0,0,0,5.06-2.16s-10-31.39-12.9-37.23S633.6,26,622.72,26h-2.24c-10.88,0-15.31,3.56-18.18,9.4s-12.88,37.23-12.88,37.23a2.75,2.75,0,0,0,1.45,3.6,2.71,2.71,0,0,0,3.57-1.45l14.27-31.55.78,25.36-2.25,63.77a4.59,4.59,0,0,0,4.24,4.88,1.72,1.72,0,0,0,.33,0,4.62,4.62,0,0,0,4.6-4.27l5.16-52.52L626.81,133a4.56,4.56,0,0,0,4.54,4.27,1.55,1.55,0,0,0,.33,0,4.58,4.58,0,0,0,4.25-4.88l-2.26-63.77ZM621.61,0a11.66,11.66,0,1,0,11.65,11.66A11.67,11.67,0,0,0,621.61,0m-93,91.55,2.52,43a2.73,2.73,0,1,0,5.46,0l2.33-43h7.61l-7.86-48.24,15.84,31.54a2.74,2.74,0,1,0,5-2.13S548,41.33,545.08,35.48s-5.69-9.41-16.59-9.41h-2.22c-10.87,0-13.72,3.56-16.58,9.41s-14.47,37.24-14.47,37.24a2.72,2.72,0,0,0,1.43,3.59,2.76,2.76,0,0,0,3.6-1.46l15.84-31.54-7.88,48.24h7.6l2.36,43a2.74,2.74,0,0,0,5.48,0l2.35-43Zm10.45-79.86A11.68,11.68,0,1,1,527.38,0a11.67,11.67,0,0,1,11.68,11.65" style="fill: #c03b29"/>
      <path d="M739.49,113s3.22,22.38,3.22,22.4a2.9,2.9,0,0,0,5.48-.15,9.11,9.11,0,0,0,0-1.6l-1.32-27.5.42-9.45c.37-3.21.45-2.24,4.09-4.43s10.08-12.07,10.39-12.55a8,8,0,0,0,1-1.9,1.83,1.83,0,0,0-1.44-2.14,2.09,2.09,0,0,0-1.86.79c-.48.53-7.78,10.25-13.26,11.18a23.85,23.85,0,0,0-6-.83H738.8a24,24,0,0,0-6,.83C727.28,86.75,720,77,719.48,76.51a2,2,0,0,0-1.83-.79,1.82,1.82,0,0,0-1.44,2.14,7.46,7.46,0,0,0,1,1.9c.32.47,6.67,10.31,10.38,12.55s3.74,1.22,4.09,4.43l.42,9.45-1.32,27.5a6.55,6.55,0,0,0,.05,1.6,2.87,2.87,0,0,0,5.44.15s3.23-22.4,3.23-22.4m0-42.13A7.14,7.14,0,1,0,746.65,78a7.15,7.15,0,0,0-7.16-7.14m59.21-2.26.78-25.36,14.24,31.55a2.75,2.75,0,0,0,5.06-2.16s-10-31.39-12.9-37.23S798.6,26,787.72,26h-2.24c-10.88,0-15.31,3.56-18.18,9.4s-12.88,37.23-12.88,37.23a2.75,2.75,0,0,0,1.45,3.6,2.71,2.71,0,0,0,3.57-1.45l14.27-31.55.78,25.36-2.25,63.77a4.59,4.59,0,0,0,4.24,4.88,1.72,1.72,0,0,0,.33,0,4.62,4.62,0,0,0,4.6-4.27l5.16-52.52L791.81,133a4.56,4.56,0,0,0,4.54,4.27,1.55,1.55,0,0,0,.33,0,4.58,4.58,0,0,0,4.25-4.88l-2.26-63.77ZM786.61,0a11.66,11.66,0,1,0,11.65,11.66A11.67,11.67,0,0,0,786.61,0m-93,91.55,2.52,43a2.73,2.73,0,1,0,5.46,0l2.33-43h7.61l-7.86-48.24,15.84,31.54a2.74,2.74,0,1,0,5-2.13S713,41.33,710.08,35.48s-5.69-9.41-16.59-9.41h-2.22c-10.87,0-13.72,3.56-16.58,9.41s-14.47,37.24-14.47,37.24a2.72,2.72,0,0,0,1.43,3.59,2.76,2.76,0,0,0,3.6-1.46l15.84-31.54-7.88,48.24h7.6l2.36,43a2.74,2.74,0,0,0,5.48,0l2.35-43Zm10.45-79.86A11.68,11.68,0,1,1,692.38,0a11.67,11.67,0,0,1,11.68,11.65" style="fill: #c03b29"/>
      <path d="M904.49,113s3.22,22.38,3.22,22.4a2.9,2.9,0,0,0,5.48-.15,9.11,9.11,0,0,0,0-1.6l-1.32-27.5.42-9.45c.37-3.21.45-2.24,4.09-4.43s10.08-12.07,10.39-12.55a8,8,0,0,0,1-1.9,1.83,1.83,0,0,0-1.44-2.14,2.09,2.09,0,0,0-1.86.79c-.48.53-7.78,10.25-13.26,11.18a23.85,23.85,0,0,0-6-.83H903.8a24,24,0,0,0-6,.83C892.28,86.75,885,77,884.48,76.51a2,2,0,0,0-1.83-.79,1.82,1.82,0,0,0-1.44,2.14,7.46,7.46,0,0,0,1,1.9c.32.47,6.67,10.31,10.38,12.55s3.74,1.22,4.09,4.43l.42,9.45-1.32,27.5a6.55,6.55,0,0,0,.05,1.6,2.87,2.87,0,0,0,5.44.15s3.23-22.4,3.23-22.4m0-42.13A7.14,7.14,0,1,0,911.65,78a7.15,7.15,0,0,0-7.16-7.14m59.21-2.26.78-25.36,14.24,31.55a2.75,2.75,0,0,0,5.06-2.16s-10-31.39-12.9-37.23S963.6,26,952.72,26h-2.24c-10.88,0-15.31,3.56-18.18,9.4s-12.88,37.23-12.88,37.23a2.75,2.75,0,0,0,1.45,3.6,2.71,2.71,0,0,0,3.57-1.45l14.27-31.55.78,25.36-2.25,63.77a4.59,4.59,0,0,0,4.24,4.88,1.72,1.72,0,0,0,.33,0,4.62,4.62,0,0,0,4.6-4.27l5.16-52.52L956.81,133a4.56,4.56,0,0,0,4.54,4.27,1.55,1.55,0,0,0,.33,0,4.58,4.58,0,0,0,4.25-4.88l-2.26-63.77ZM951.61,0a11.66,11.66,0,1,0,11.65,11.66A11.67,11.67,0,0,0,951.61,0m-93,91.55,2.52,43a2.73,2.73,0,1,0,5.46,0l2.33-43h7.61l-7.86-48.24,15.84,31.54a2.74,2.74,0,1,0,5-2.13S878,41.33,875.08,35.48s-5.69-9.41-16.59-9.41h-2.22c-10.87,0-13.72,3.56-16.58,9.41s-14.47,37.24-14.47,37.24a2.72,2.72,0,0,0,1.43,3.59,2.76,2.76,0,0,0,3.6-1.46l15.84-31.54-7.88,48.24h7.6l2.36,43a2.74,2.74,0,0,0,5.48,0l2.35-43Zm10.45-79.86A11.68,11.68,0,1,1,857.38,0a11.67,11.67,0,0,1,11.68,11.65" style="fill: #c03b29"/>
      <g style="opacity: 0.8">
        <path d="M79.49,269.05s3.22,22.38,3.22,22.4a2.9,2.9,0,0,0,5.48-.15,9.11,9.11,0,0,0,0-1.6l-1.32-27.5.42-9.45c.37-3.21.45-2.24,4.09-4.43s10.08-12.07,10.39-12.55a8,8,0,0,0,1-1.9,1.83,1.83,0,0,0-1.44-2.14,2.09,2.09,0,0,0-1.86.79c-.48.53-7.78,10.25-13.26,11.18a23.85,23.85,0,0,0-6-.83H78.8a24,24,0,0,0-6,.83c-5.48-.93-12.77-10.65-13.28-11.18a2,2,0,0,0-1.83-.79,1.82,1.82,0,0,0-1.44,2.14,7.46,7.46,0,0,0,1,1.9c.32.47,6.67,10.31,10.38,12.55s3.74,1.22,4.09,4.43l.42,9.45-1.32,27.5a6.55,6.55,0,0,0,.05,1.6,2.87,2.87,0,0,0,5.44.15s3.23-22.4,3.23-22.4m0-42.13a7.14,7.14,0,1,0,7.16,7.14,7.15,7.15,0,0,0-7.16-7.14m59.21-2.26.78-25.36,14.24,31.55a2.75,2.75,0,0,0,5.06-2.16s-10-31.39-12.9-37.23-7.29-9.4-18.17-9.4h-2.24c-10.88,0-15.31,3.56-18.18,9.4S94.42,228.7,94.42,228.7a2.75,2.75,0,0,0,1.45,3.6,2.71,2.71,0,0,0,3.57-1.45l14.27-31.55.78,25.36-2.25,63.77a4.59,4.59,0,0,0,4.24,4.88,1.72,1.72,0,0,0,.33,0,4.62,4.62,0,0,0,4.6-4.27l5.16-52.52,5.23,52.52a4.56,4.56,0,0,0,4.54,4.27,1.55,1.55,0,0,0,.33,0,4.58,4.58,0,0,0,4.25-4.88l-2.26-63.77ZM126.61,156a11.66,11.66,0,1,0,11.65,11.66A11.67,11.67,0,0,0,126.61,156m-93,91.55,2.52,43a2.73,2.73,0,1,0,5.46,0l2.33-43h7.61l-7.86-48.24,15.84,31.54a2.74,2.74,0,1,0,5-2.13S53,197.36,50.08,191.51s-5.69-9.41-16.59-9.41H31.27c-10.87,0-13.72,3.56-16.58,9.41S.22,228.75.22,228.75a2.72,2.72,0,0,0,1.43,3.59,2.76,2.76,0,0,0,3.6-1.46l15.84-31.54-7.88,48.24h7.6l2.36,43a2.74,2.74,0,0,0,5.48,0l2.35-43Zm10.45-79.86a11.68,11.68,0,1,1-11.68-11.65,11.67,11.67,0,0,1,11.68,11.65" style="fill: #c03b29"/>
        <path d="M244.49,269.05s3.22,22.38,3.22,22.4a2.9,2.9,0,0,0,5.48-.15,9.11,9.11,0,0,0,0-1.6l-1.32-27.5.42-9.45c.37-3.21.45-2.24,4.09-4.43s10.08-12.07,10.39-12.55a8,8,0,0,0,1-1.9,1.83,1.83,0,0,0-1.44-2.14,2.09,2.09,0,0,0-1.86.79c-.48.53-7.78,10.25-13.26,11.18a23.85,23.85,0,0,0-6-.83H243.8a24,24,0,0,0-6,.83c-5.48-.93-12.77-10.65-13.28-11.18a2,2,0,0,0-1.83-.79,1.82,1.82,0,0,0-1.44,2.14,7.46,7.46,0,0,0,1,1.9c.32.47,6.67,10.31,10.38,12.55s3.74,1.22,4.09,4.43l.42,9.45-1.32,27.5a6.55,6.55,0,0,0,.05,1.6,2.87,2.87,0,0,0,5.44.15s3.23-22.4,3.23-22.4m0-42.13a7.14,7.14,0,1,0,7.16,7.14,7.15,7.15,0,0,0-7.16-7.14m59.21-2.26.78-25.36,14.24,31.55a2.75,2.75,0,0,0,5.06-2.16s-10-31.39-12.9-37.23-7.29-9.4-18.17-9.4h-2.24c-10.88,0-15.31,3.56-18.18,9.4s-12.88,37.23-12.88,37.23a2.75,2.75,0,0,0,1.45,3.6,2.71,2.71,0,0,0,3.57-1.45l14.27-31.55.78,25.36-2.25,63.77a4.59,4.59,0,0,0,4.24,4.88,1.72,1.72,0,0,0,.33,0,4.62,4.62,0,0,0,4.6-4.27l5.16-52.52,5.23,52.52a4.56,4.56,0,0,0,4.54,4.27,1.55,1.55,0,0,0,.33,0,4.58,4.58,0,0,0,4.25-4.88l-2.26-63.77ZM291.61,156a11.66,11.66,0,1,0,11.65,11.66A11.67,11.67,0,0,0,291.61,156m-93,91.55,2.52,43a2.73,2.73,0,1,0,5.46,0l2.33-43h7.61l-7.86-48.24,15.84,31.54a2.74,2.74,0,1,0,5-2.13s-11.6-31.39-14.48-37.24-5.69-9.41-16.59-9.41h-2.22c-10.87,0-13.72,3.56-16.58,9.41s-14.47,37.24-14.47,37.24a2.72,2.72,0,0,0,1.43,3.59,2.76,2.76,0,0,0,3.6-1.46l15.84-31.54-7.88,48.24h7.6l2.36,43a2.74,2.74,0,0,0,5.48,0l2.35-43Zm10.45-79.86a11.68,11.68,0,1,1-11.68-11.65,11.67,11.67,0,0,1,11.68,11.65" style="fill: #c03b29"/>
        <path d="M409.49,269.05s3.22,22.38,3.22,22.4a2.9,2.9,0,0,0,5.48-.15,9.11,9.11,0,0,0,0-1.6l-1.32-27.5.42-9.45c.37-3.21.45-2.24,4.09-4.43s10.08-12.07,10.39-12.55a8,8,0,0,0,1-1.9,1.83,1.83,0,0,0-1.44-2.14,2.09,2.09,0,0,0-1.86.79c-.48.53-7.78,10.25-13.26,11.18a23.85,23.85,0,0,0-6-.83H408.8a24,24,0,0,0-6,.83c-5.48-.93-12.77-10.65-13.28-11.18a2,2,0,0,0-1.83-.79,1.82,1.82,0,0,0-1.44,2.14,7.46,7.46,0,0,0,1,1.9c.32.47,6.67,10.31,10.38,12.55s3.74,1.22,4.09,4.43l.42,9.45-1.32,27.5a6.55,6.55,0,0,0,.05,1.6,2.87,2.87,0,0,0,5.44.15s3.23-22.4,3.23-22.4m0-42.13a7.14,7.14,0,1,0,7.16,7.14,7.15,7.15,0,0,0-7.16-7.14m59.21-2.26.78-25.36,14.24,31.55a2.75,2.75,0,0,0,5.06-2.16s-10-31.39-12.9-37.23-7.29-9.4-18.17-9.4h-2.24c-10.88,0-15.31,3.56-18.18,9.4s-12.88,37.23-12.88,37.23a2.75,2.75,0,0,0,1.45,3.6,2.71,2.71,0,0,0,3.57-1.45l14.27-31.55.78,25.36-2.25,63.77a4.59,4.59,0,0,0,4.24,4.88,1.72,1.72,0,0,0,.33,0,4.62,4.62,0,0,0,4.6-4.27l5.16-52.52,5.23,52.52a4.56,4.56,0,0,0,4.54,4.27,1.55,1.55,0,0,0,.33,0,4.58,4.58,0,0,0,4.25-4.88l-2.26-63.77ZM456.61,156a11.66,11.66,0,1,0,11.65,11.66A11.67,11.67,0,0,0,456.61,156m-93,91.55,2.52,43a2.73,2.73,0,1,0,5.46,0l2.33-43h7.61l-7.86-48.24,15.84,31.54a2.74,2.74,0,1,0,5-2.13s-11.6-31.39-14.48-37.24-5.69-9.41-16.59-9.41h-2.22c-10.87,0-13.72,3.56-16.58,9.41s-14.47,37.24-14.47,37.24a2.72,2.72,0,0,0,1.43,3.59,2.76,2.76,0,0,0,3.6-1.46l15.84-31.54-7.88,48.24h7.6l2.36,43a2.74,2.74,0,0,0,5.48,0l2.35-43Zm10.45-79.86a11.68,11.68,0,1,1-11.68-11.65,11.67,11.67,0,0,1,11.68,11.65" style="fill: #c03b29"/>
        <path d="M574.49,269.05s3.22,22.38,3.22,22.4a2.9,2.9,0,0,0,5.48-.15,9.11,9.11,0,0,0,0-1.6l-1.32-27.5.42-9.45c.37-3.21.45-2.24,4.09-4.43s10.08-12.07,10.39-12.55a8,8,0,0,0,1-1.9,1.83,1.83,0,0,0-1.44-2.14,2.09,2.09,0,0,0-1.86.79c-.48.53-7.78,10.25-13.26,11.18a23.85,23.85,0,0,0-6-.83H573.8a24,24,0,0,0-6,.83c-5.48-.93-12.77-10.65-13.28-11.18a2,2,0,0,0-1.83-.79,1.82,1.82,0,0,0-1.44,2.14,7.46,7.46,0,0,0,1,1.9c.32.47,6.67,10.31,10.38,12.55s3.74,1.22,4.09,4.43l.42,9.45-1.32,27.5a6.55,6.55,0,0,0,.05,1.6,2.87,2.87,0,0,0,5.44.15s3.23-22.4,3.23-22.4m0-42.13a7.14,7.14,0,1,0,7.16,7.14,7.15,7.15,0,0,0-7.16-7.14m59.21-2.26.78-25.36,14.24,31.55a2.75,2.75,0,0,0,5.06-2.16s-10-31.39-12.9-37.23-7.29-9.4-18.17-9.4h-2.24c-10.88,0-15.31,3.56-18.18,9.4s-12.88,37.23-12.88,37.23a2.75,2.75,0,0,0,1.45,3.6,2.71,2.71,0,0,0,3.57-1.45l14.27-31.55.78,25.36-2.25,63.77a4.59,4.59,0,0,0,4.24,4.88,1.72,1.72,0,0,0,.33,0,4.62,4.62,0,0,0,4.6-4.27l5.16-52.52,5.23,52.52a4.56,4.56,0,0,0,4.54,4.27,1.55,1.55,0,0,0,.33,0,4.58,4.58,0,0,0,4.25-4.88l-2.26-63.77ZM621.61,156a11.66,11.66,0,1,0,11.65,11.66A11.67,11.67,0,0,0,621.61,156m-93,91.55,2.52,43a2.73,2.73,0,1,0,5.46,0l2.33-43h7.61l-7.86-48.24,15.84,31.54a2.74,2.74,0,1,0,5-2.13s-11.6-31.39-14.48-37.24-5.69-9.41-16.59-9.41h-2.22c-10.87,0-13.72,3.56-16.58,9.41s-14.47,37.24-14.47,37.24a2.72,2.72,0,0,0,1.43,3.59,2.76,2.76,0,0,0,3.6-1.46l15.84-31.54-7.88,48.24h7.6l2.36,43a2.74,2.74,0,0,0,5.48,0l2.35-43Zm10.45-79.86a11.68,11.68,0,1,1-11.68-11.65,11.67,11.67,0,0,1,11.68,11.65" style="fill: #c03b29"/>
        <path d="M739.49,269.05s3.22,22.38,3.22,22.4a2.9,2.9,0,0,0,5.48-.15,9.11,9.11,0,0,0,0-1.6l-1.32-27.5.42-9.45c.37-3.21.45-2.24,4.09-4.43s10.08-12.07,10.39-12.55a8,8,0,0,0,1-1.9,1.83,1.83,0,0,0-1.44-2.14,2.09,2.09,0,0,0-1.86.79c-.48.53-7.78,10.25-13.26,11.18a23.85,23.85,0,0,0-6-.83H738.8a24,24,0,0,0-6,.83c-5.48-.93-12.77-10.65-13.28-11.18a2,2,0,0,0-1.83-.79,1.82,1.82,0,0,0-1.44,2.14,7.46,7.46,0,0,0,1,1.9c.32.47,6.67,10.31,10.38,12.55s3.74,1.22,4.09,4.43l.42,9.45-1.32,27.5a6.55,6.55,0,0,0,.05,1.6,2.87,2.87,0,0,0,5.44.15s3.23-22.4,3.23-22.4m0-42.13a7.14,7.14,0,1,0,7.16,7.14,7.15,7.15,0,0,0-7.16-7.14m59.21-2.26.78-25.36,14.24,31.55a2.75,2.75,0,0,0,5.06-2.16s-10-31.39-12.9-37.23-7.29-9.4-18.17-9.4h-2.24c-10.88,0-15.31,3.56-18.18,9.4s-12.88,37.23-12.88,37.23a2.75,2.75,0,0,0,1.45,3.6,2.71,2.71,0,0,0,3.57-1.45l14.27-31.55.78,25.36-2.25,63.77a4.59,4.59,0,0,0,4.24,4.88,1.72,1.72,0,0,0,.33,0,4.62,4.62,0,0,0,4.6-4.27l5.16-52.52,5.23,52.52a4.56,4.56,0,0,0,4.54,4.27,1.55,1.55,0,0,0,.33,0,4.58,4.58,0,0,0,4.25-4.88l-2.26-63.77ZM786.61,156a11.66,11.66,0,1,0,11.65,11.66A11.67,11.67,0,0,0,786.61,156m-93,91.55,2.52,43a2.73,2.73,0,1,0,5.46,0l2.33-43h7.61l-7.86-48.24,15.84,31.54a2.74,2.74,0,1,0,5-2.13s-11.6-31.39-14.48-37.24-5.69-9.41-16.59-9.41h-2.22c-10.87,0-13.72,3.56-16.58,9.41s-14.47,37.24-14.47,37.24a2.72,2.72,0,0,0,1.43,3.59,2.76,2.76,0,0,0,3.6-1.46l15.84-31.54-7.88,48.24h7.6l2.36,43a2.74,2.74,0,0,0,5.48,0l2.35-43Zm10.45-79.86a11.68,11.68,0,1,1-11.68-11.65,11.67,11.67,0,0,1,11.68,11.65" style="fill: #c03b29"/>
        <path d="M904.49,269.05s3.22,22.38,3.22,22.4a2.9,2.9,0,0,0,5.48-.15,9.11,9.11,0,0,0,0-1.6l-1.32-27.5.42-9.45c.37-3.21.45-2.24,4.09-4.43s10.08-12.07,10.39-12.55a8,8,0,0,0,1-1.9,1.83,1.83,0,0,0-1.44-2.14,2.09,2.09,0,0,0-1.86.79c-.48.53-7.78,10.25-13.26,11.18a23.85,23.85,0,0,0-6-.83H903.8a24,24,0,0,0-6,.83c-5.48-.93-12.77-10.65-13.28-11.18a2,2,0,0,0-1.83-.79,1.82,1.82,0,0,0-1.44,2.14,7.46,7.46,0,0,0,1,1.9c.32.47,6.67,10.31,10.38,12.55s3.74,1.22,4.09,4.43l.42,9.45-1.32,27.5a6.55,6.55,0,0,0,.05,1.6,2.87,2.87,0,0,0,5.44.15s3.23-22.4,3.23-22.4m0-42.13a7.14,7.14,0,1,0,7.16,7.14,7.15,7.15,0,0,0-7.16-7.14m59.21-2.26.78-25.36,14.24,31.55a2.75,2.75,0,0,0,5.06-2.16s-10-31.39-12.9-37.23-7.29-9.4-18.17-9.4h-2.24c-10.88,0-15.31,3.56-18.18,9.4s-12.88,37.23-12.88,37.23a2.75,2.75,0,0,0,1.45,3.6,2.71,2.71,0,0,0,3.57-1.45l14.27-31.55.78,25.36-2.25,63.77a4.59,4.59,0,0,0,4.24,4.88,1.72,1.72,0,0,0,.33,0,4.62,4.62,0,0,0,4.6-4.27l5.16-52.52,5.23,52.52a4.56,4.56,0,0,0,4.54,4.27,1.55,1.55,0,0,0,.33,0,4.58,4.58,0,0,0,4.25-4.88l-2.26-63.77ZM951.61,156a11.66,11.66,0,1,0,11.65,11.66A11.67,11.67,0,0,0,951.61,156m-93,91.55,2.52,43a2.73,2.73,0,1,0,5.46,0l2.33-43h7.61l-7.86-48.24,15.84,31.54a2.74,2.74,0,1,0,5-2.13s-11.6-31.39-14.48-37.24-5.69-9.41-16.59-9.41h-2.22c-10.87,0-13.72,3.56-16.58,9.41s-14.47,37.24-14.47,37.24a2.72,2.72,0,0,0,1.43,3.59,2.76,2.76,0,0,0,3.6-1.46l15.84-31.54-7.88,48.24h7.6l2.36,43a2.74,2.74,0,0,0,5.48,0l2.35-43Zm10.45-79.86a11.68,11.68,0,1,1-11.68-11.65,11.67,11.67,0,0,1,11.68,11.65" style="fill: #c03b29"/>
      </g>
      <g style="opacity: 0.6">
        <path d="M79.49,419.4s3.22,22.38,3.22,22.4a2.9,2.9,0,0,0,5.48-.15,9.11,9.11,0,0,0,0-1.6l-1.32-27.5.42-9.45c.37-3.21.45-2.24,4.09-4.43s10.08-12.07,10.39-12.55a8,8,0,0,0,1-1.9,1.83,1.83,0,0,0-1.44-2.14,2.09,2.09,0,0,0-1.86.79c-.48.53-7.78,10.25-13.26,11.18a23.85,23.85,0,0,0-6-.83H78.8a24,24,0,0,0-6,.83c-5.48-.93-12.77-10.65-13.28-11.18a2,2,0,0,0-1.83-.79,1.82,1.82,0,0,0-1.44,2.14,7.46,7.46,0,0,0,1,1.9c.32.47,6.67,10.31,10.38,12.55s3.74,1.22,4.09,4.43l.42,9.45-1.32,27.5a6.55,6.55,0,0,0,.05,1.6,2.87,2.87,0,0,0,5.44.15s3.23-22.4,3.23-22.4m0-42.13a7.14,7.14,0,1,0,7.16,7.14,7.15,7.15,0,0,0-7.16-7.14M138.7,375l.78-25.36,14.24,31.55a2.75,2.75,0,0,0,5.06-2.16s-10-31.39-12.9-37.23-7.29-9.4-18.17-9.4h-2.24c-10.88,0-15.31,3.56-18.18,9.4S94.42,379,94.42,379a2.75,2.75,0,0,0,1.45,3.6,2.71,2.71,0,0,0,3.57-1.45l14.27-31.55.78,25.36-2.25,63.77a4.59,4.59,0,0,0,4.24,4.88,1.72,1.72,0,0,0,.33,0,4.62,4.62,0,0,0,4.6-4.27l5.16-52.52,5.23,52.52a4.56,4.56,0,0,0,4.54,4.27,1.55,1.55,0,0,0,.33,0,4.58,4.58,0,0,0,4.25-4.88L138.68,375Zm-12.09-68.64A11.66,11.66,0,1,0,138.26,318a11.67,11.67,0,0,0-11.65-11.66m-93,91.55,2.52,43a2.73,2.73,0,1,0,5.46,0l2.33-43h7.61l-7.86-48.24,15.84,31.54a2.74,2.74,0,1,0,5-2.13S53,347.7,50.08,341.85s-5.69-9.41-16.59-9.41H31.27c-10.87,0-13.72,3.56-16.58,9.41S.22,379.09.22,379.09a2.72,2.72,0,0,0,1.43,3.59,2.76,2.76,0,0,0,3.6-1.46l15.84-31.54-7.88,48.24h7.6l2.36,43a2.74,2.74,0,0,0,5.48,0l2.35-43Zm10.45-79.86a11.68,11.68,0,1,1-11.68-11.65,11.67,11.67,0,0,1,11.68,11.65" style="fill: #c03b29"/>
        <path d="M244.49,419.4s3.22,22.38,3.22,22.4a2.9,2.9,0,0,0,5.48-.15,9.11,9.11,0,0,0,0-1.6l-1.32-27.5.42-9.45c.37-3.21.45-2.24,4.09-4.43s10.08-12.07,10.39-12.55a8,8,0,0,0,1-1.9,1.83,1.83,0,0,0-1.44-2.14,2.09,2.09,0,0,0-1.86.79c-.48.53-7.78,10.25-13.26,11.18a23.85,23.85,0,0,0-6-.83H243.8a24,24,0,0,0-6,.83c-5.48-.93-12.77-10.65-13.28-11.18a2,2,0,0,0-1.83-.79,1.82,1.82,0,0,0-1.44,2.14,7.46,7.46,0,0,0,1,1.9c.32.47,6.67,10.31,10.38,12.55s3.74,1.22,4.09,4.43l.42,9.45-1.32,27.5a6.55,6.55,0,0,0,.05,1.6,2.87,2.87,0,0,0,5.44.15s3.23-22.4,3.23-22.4m0-42.13a7.14,7.14,0,1,0,7.16,7.14,7.15,7.15,0,0,0-7.16-7.14M303.7,375l.78-25.36,14.24,31.55a2.75,2.75,0,0,0,5.06-2.16s-10-31.39-12.9-37.23-7.29-9.4-18.17-9.4h-2.24c-10.88,0-15.31,3.56-18.18,9.4S259.42,379,259.42,379a2.75,2.75,0,0,0,1.45,3.6,2.71,2.71,0,0,0,3.57-1.45l14.27-31.55.78,25.36-2.25,63.77a4.59,4.59,0,0,0,4.24,4.88,1.72,1.72,0,0,0,.33,0,4.62,4.62,0,0,0,4.6-4.27l5.16-52.52,5.23,52.52a4.56,4.56,0,0,0,4.54,4.27,1.55,1.55,0,0,0,.33,0,4.58,4.58,0,0,0,4.25-4.88L303.68,375Zm-12.09-68.64A11.66,11.66,0,1,0,303.26,318a11.67,11.67,0,0,0-11.65-11.66m-93,91.55,2.52,43a2.73,2.73,0,1,0,5.46,0l2.33-43h7.61l-7.86-48.24,15.84,31.54a2.74,2.74,0,1,0,5-2.13S218,347.7,215.08,341.85s-5.69-9.41-16.59-9.41h-2.22c-10.87,0-13.72,3.56-16.58,9.41s-14.47,37.24-14.47,37.24a2.72,2.72,0,0,0,1.43,3.59,2.76,2.76,0,0,0,3.6-1.46l15.84-31.54-7.88,48.24h7.6l2.36,43a2.74,2.74,0,0,0,5.48,0l2.35-43Zm10.45-79.86a11.68,11.68,0,1,1-11.68-11.65,11.67,11.67,0,0,1,11.68,11.65" style="fill: #c03b29"/>
        <path d="M409.49,419.4s3.22,22.38,3.22,22.4a2.9,2.9,0,0,0,5.48-.15,9.11,9.11,0,0,0,0-1.6l-1.32-27.5.42-9.45c.37-3.21.45-2.24,4.09-4.43s10.08-12.07,10.39-12.55a8,8,0,0,0,1-1.9,1.83,1.83,0,0,0-1.44-2.14,2.09,2.09,0,0,0-1.86.79c-.48.53-7.78,10.25-13.26,11.18a23.85,23.85,0,0,0-6-.83H408.8a24,24,0,0,0-6,.83c-5.48-.93-12.77-10.65-13.28-11.18a2,2,0,0,0-1.83-.79,1.82,1.82,0,0,0-1.44,2.14,7.46,7.46,0,0,0,1,1.9c.32.47,6.67,10.31,10.38,12.55s3.74,1.22,4.09,4.43l.42,9.45-1.32,27.5a6.55,6.55,0,0,0,.05,1.6,2.87,2.87,0,0,0,5.44.15s3.23-22.4,3.23-22.4m0-42.13a7.14,7.14,0,1,0,7.16,7.14,7.15,7.15,0,0,0-7.16-7.14M468.7,375l.78-25.36,14.24,31.55a2.75,2.75,0,0,0,5.06-2.16s-10-31.39-12.9-37.23-7.29-9.4-18.17-9.4h-2.24c-10.88,0-15.31,3.56-18.18,9.4S424.42,379,424.42,379a2.75,2.75,0,0,0,1.45,3.6,2.71,2.71,0,0,0,3.57-1.45l14.27-31.55.78,25.36-2.25,63.77a4.59,4.59,0,0,0,4.24,4.88,1.72,1.72,0,0,0,.33,0,4.62,4.62,0,0,0,4.6-4.27l5.16-52.52,5.23,52.52a4.56,4.56,0,0,0,4.54,4.27,1.55,1.55,0,0,0,.33,0,4.58,4.58,0,0,0,4.25-4.88L468.68,375Zm-12.09-68.64A11.66,11.66,0,1,0,468.26,318a11.67,11.67,0,0,0-11.65-11.66m-93,91.55,2.52,43a2.73,2.73,0,1,0,5.46,0l2.33-43h7.61l-7.86-48.24,15.84,31.54a2.74,2.74,0,1,0,5-2.13S383,347.7,380.08,341.85s-5.69-9.41-16.59-9.41h-2.22c-10.87,0-13.72,3.56-16.58,9.41s-14.47,37.24-14.47,37.24a2.72,2.72,0,0,0,1.43,3.59,2.76,2.76,0,0,0,3.6-1.46l15.84-31.54-7.88,48.24h7.6l2.36,43a2.74,2.74,0,0,0,5.48,0l2.35-43Zm10.45-79.86a11.68,11.68,0,1,1-11.68-11.65,11.67,11.67,0,0,1,11.68,11.65" style="fill: #c03b29"/>
        <path d="M574.49,419.4s3.22,22.38,3.22,22.4a2.9,2.9,0,0,0,5.48-.15,9.11,9.11,0,0,0,0-1.6l-1.32-27.5.42-9.45c.37-3.21.45-2.24,4.09-4.43s10.08-12.07,10.39-12.55a8,8,0,0,0,1-1.9,1.83,1.83,0,0,0-1.44-2.14,2.09,2.09,0,0,0-1.86.79c-.48.53-7.78,10.25-13.26,11.18a23.85,23.85,0,0,0-6-.83H573.8a24,24,0,0,0-6,.83c-5.48-.93-12.77-10.65-13.28-11.18a2,2,0,0,0-1.83-.79,1.82,1.82,0,0,0-1.44,2.14,7.46,7.46,0,0,0,1,1.9c.32.47,6.67,10.31,10.38,12.55s3.74,1.22,4.09,4.43l.42,9.45-1.32,27.5a6.55,6.55,0,0,0,.05,1.6,2.87,2.87,0,0,0,5.44.15s3.23-22.4,3.23-22.4m0-42.13a7.14,7.14,0,1,0,7.16,7.14,7.15,7.15,0,0,0-7.16-7.14M633.7,375l.78-25.36,14.24,31.55a2.75,2.75,0,0,0,5.06-2.16s-10-31.39-12.9-37.23-7.29-9.4-18.17-9.4h-2.24c-10.88,0-15.31,3.56-18.18,9.4S589.42,379,589.42,379a2.75,2.75,0,0,0,1.45,3.6,2.71,2.71,0,0,0,3.57-1.45l14.27-31.55.78,25.36-2.25,63.77a4.59,4.59,0,0,0,4.24,4.88,1.72,1.72,0,0,0,.33,0,4.62,4.62,0,0,0,4.6-4.27l5.16-52.52,5.23,52.52a4.56,4.56,0,0,0,4.54,4.27,1.55,1.55,0,0,0,.33,0,4.58,4.58,0,0,0,4.25-4.88L633.68,375Zm-12.09-68.64A11.66,11.66,0,1,0,633.26,318a11.67,11.67,0,0,0-11.65-11.66m-93,91.55,2.52,43a2.73,2.73,0,1,0,5.46,0l2.33-43h7.61l-7.86-48.24,15.84,31.54a2.74,2.74,0,1,0,5-2.13S548,347.7,545.08,341.85s-5.69-9.41-16.59-9.41h-2.22c-10.87,0-13.72,3.56-16.58,9.41s-14.47,37.24-14.47,37.24a2.72,2.72,0,0,0,1.43,3.59,2.76,2.76,0,0,0,3.6-1.46l15.84-31.54-7.88,48.24h7.6l2.36,43a2.74,2.74,0,0,0,5.48,0l2.35-43Zm10.45-79.86a11.68,11.68,0,1,1-11.68-11.65,11.67,11.67,0,0,1,11.68,11.65" style="fill: #c03b29"/>
        <path d="M739.49,419.4s3.22,22.38,3.22,22.4a2.9,2.9,0,0,0,5.48-.15,9.11,9.11,0,0,0,0-1.6l-1.32-27.5.42-9.45c.37-3.21.45-2.24,4.09-4.43s10.08-12.07,10.39-12.55a8,8,0,0,0,1-1.9,1.83,1.83,0,0,0-1.44-2.14,2.09,2.09,0,0,0-1.86.79c-.48.53-7.78,10.25-13.26,11.18a23.85,23.85,0,0,0-6-.83H738.8a24,24,0,0,0-6,.83c-5.48-.93-12.77-10.65-13.28-11.18a2,2,0,0,0-1.83-.79,1.82,1.82,0,0,0-1.44,2.14,7.46,7.46,0,0,0,1,1.9c.32.47,6.67,10.31,10.38,12.55s3.74,1.22,4.09,4.43l.42,9.45-1.32,27.5a6.55,6.55,0,0,0,.05,1.6,2.87,2.87,0,0,0,5.44.15s3.23-22.4,3.23-22.4m0-42.13a7.14,7.14,0,1,0,7.16,7.14,7.15,7.15,0,0,0-7.16-7.14M798.7,375l.78-25.36,14.24,31.55a2.75,2.75,0,0,0,5.06-2.16s-10-31.39-12.9-37.23-7.29-9.4-18.17-9.4h-2.24c-10.88,0-15.31,3.56-18.18,9.4S754.42,379,754.42,379a2.75,2.75,0,0,0,1.45,3.6,2.71,2.71,0,0,0,3.57-1.45l14.27-31.55.78,25.36-2.25,63.77a4.59,4.59,0,0,0,4.24,4.88,1.72,1.72,0,0,0,.33,0,4.62,4.62,0,0,0,4.6-4.27l5.16-52.52,5.23,52.52a4.56,4.56,0,0,0,4.54,4.27,1.55,1.55,0,0,0,.33,0,4.58,4.58,0,0,0,4.25-4.88L798.68,375Zm-12.09-68.64A11.66,11.66,0,1,0,798.26,318a11.67,11.67,0,0,0-11.65-11.66m-93,91.55,2.52,43a2.73,2.73,0,1,0,5.46,0l2.33-43h7.61l-7.86-48.24,15.84,31.54a2.74,2.74,0,1,0,5-2.13S713,347.7,710.08,341.85s-5.69-9.41-16.59-9.41h-2.22c-10.87,0-13.72,3.56-16.58,9.41s-14.47,37.24-14.47,37.24a2.72,2.72,0,0,0,1.43,3.59,2.76,2.76,0,0,0,3.6-1.46l15.84-31.54-7.88,48.24h7.6l2.36,43a2.74,2.74,0,0,0,5.48,0l2.35-43Zm10.45-79.86a11.68,11.68,0,1,1-11.68-11.65,11.67,11.67,0,0,1,11.68,11.65" style="fill: #c03b29"/>
        <path d="M904.49,419.4s3.22,22.38,3.22,22.4a2.9,2.9,0,0,0,5.48-.15,9.11,9.11,0,0,0,0-1.6l-1.32-27.5.42-9.45c.37-3.21.45-2.24,4.09-4.43s10.08-12.07,10.39-12.55a8,8,0,0,0,1-1.9,1.83,1.83,0,0,0-1.44-2.14,2.09,2.09,0,0,0-1.86.79c-.48.53-7.78,10.25-13.26,11.18a23.85,23.85,0,0,0-6-.83H903.8a24,24,0,0,0-6,.83c-5.48-.93-12.77-10.65-13.28-11.18a2,2,0,0,0-1.83-.79,1.82,1.82,0,0,0-1.44,2.14,7.46,7.46,0,0,0,1,1.9c.32.47,6.67,10.31,10.38,12.55s3.74,1.22,4.09,4.43l.42,9.45-1.32,27.5a6.55,6.55,0,0,0,.05,1.6,2.87,2.87,0,0,0,5.44.15s3.23-22.4,3.23-22.4m0-42.13a7.14,7.14,0,1,0,7.16,7.14,7.15,7.15,0,0,0-7.16-7.14M963.7,375l.78-25.36,14.24,31.55a2.75,2.75,0,0,0,5.06-2.16s-10-31.39-12.9-37.23-7.29-9.4-18.17-9.4h-2.24c-10.88,0-15.31,3.56-18.18,9.4S919.42,379,919.42,379a2.75,2.75,0,0,0,1.45,3.6,2.71,2.71,0,0,0,3.57-1.45l14.27-31.55.78,25.36-2.25,63.77a4.59,4.59,0,0,0,4.24,4.88,1.72,1.72,0,0,0,.33,0,4.62,4.62,0,0,0,4.6-4.27l5.16-52.52,5.23,52.52a4.56,4.56,0,0,0,4.54,4.27,1.55,1.55,0,0,0,.33,0,4.58,4.58,0,0,0,4.25-4.88L963.68,375Zm-12.09-68.64A11.66,11.66,0,1,0,963.26,318a11.67,11.67,0,0,0-11.65-11.66m-93,91.55,2.52,43a2.73,2.73,0,1,0,5.46,0l2.33-43h7.61l-7.86-48.24,15.84,31.54a2.74,2.74,0,1,0,5-2.13S878,347.7,875.08,341.85s-5.69-9.41-16.59-9.41h-2.22c-10.87,0-13.72,3.56-16.58,9.41s-14.47,37.24-14.47,37.24a2.72,2.72,0,0,0,1.43,3.59,2.76,2.76,0,0,0,3.6-1.46l15.84-31.54-7.88,48.24h7.6l2.36,43a2.74,2.74,0,0,0,5.48,0l2.35-43Zm10.45-79.86a11.68,11.68,0,1,1-11.68-11.65,11.67,11.67,0,0,1,11.68,11.65" style="fill: #c03b29"/>
      </g>
      <g style="opacity: 0.4">
        <path d="M79.49,566.53s3.22,22.38,3.22,22.4a2.9,2.9,0,0,0,5.48-.15,9.11,9.11,0,0,0,0-1.6l-1.32-27.5.42-9.45c.37-3.21.45-2.24,4.09-4.43s10.08-12.07,10.39-12.55a8,8,0,0,0,1-1.9,1.83,1.83,0,0,0-1.44-2.14,2.09,2.09,0,0,0-1.86.79c-.48.53-7.78,10.25-13.26,11.18a23.85,23.85,0,0,0-6-.83H78.8a24,24,0,0,0-6,.83C67.28,540.26,60,530.54,59.48,530a2,2,0,0,0-1.83-.79,1.82,1.82,0,0,0-1.44,2.14,7.46,7.46,0,0,0,1,1.9c.32.47,6.67,10.31,10.38,12.55s3.74,1.22,4.09,4.43l.42,9.45-1.32,27.5a6.55,6.55,0,0,0,.05,1.6,2.87,2.87,0,0,0,5.44.15s3.23-22.4,3.23-22.4m0-42.13a7.14,7.14,0,1,0,7.16,7.14,7.15,7.15,0,0,0-7.16-7.14m59.21-2.26.78-25.36,14.24,31.55a2.75,2.75,0,0,0,5.06-2.16s-10-31.39-12.9-37.23-7.29-9.4-18.17-9.4h-2.24c-10.88,0-15.31,3.56-18.18,9.4s-12.88,37.23-12.88,37.23a2.75,2.75,0,0,0,1.45,3.6,2.71,2.71,0,0,0,3.57-1.45l14.27-31.55.78,25.36-2.25,63.77a4.59,4.59,0,0,0,4.24,4.88,1.72,1.72,0,0,0,.33,0,4.62,4.62,0,0,0,4.6-4.27L126.58,534l5.23,52.52a4.56,4.56,0,0,0,4.54,4.27,1.55,1.55,0,0,0,.33,0,4.58,4.58,0,0,0,4.25-4.88l-2.26-63.77ZM126.61,453.5a11.66,11.66,0,1,0,11.65,11.66,11.67,11.67,0,0,0-11.65-11.66m-93,91.55,2.52,43a2.73,2.73,0,1,0,5.46,0l2.33-43h7.61l-7.86-48.24,15.84,31.54a2.74,2.74,0,1,0,5-2.13S53,494.83,50.08,489s-5.69-9.41-16.59-9.41H31.27c-10.87,0-13.72,3.56-16.58,9.41S.22,526.22.22,526.22a2.72,2.72,0,0,0,1.43,3.59,2.76,2.76,0,0,0,3.6-1.46l15.84-31.54-7.88,48.24h7.6l2.36,43a2.74,2.74,0,0,0,5.48,0l2.35-43Zm10.45-79.86a11.68,11.68,0,1,1-11.68-11.65,11.67,11.67,0,0,1,11.68,11.65" style="fill: #c03b29"/>
        <path d="M244.49,566.53s3.22,22.38,3.22,22.4a2.9,2.9,0,0,0,5.48-.15,9.11,9.11,0,0,0,0-1.6l-1.32-27.5.42-9.45c.37-3.21.45-2.24,4.09-4.43s10.08-12.07,10.39-12.55a8,8,0,0,0,1-1.9,1.83,1.83,0,0,0-1.44-2.14,2.09,2.09,0,0,0-1.86.79c-.48.53-7.78,10.25-13.26,11.18a23.85,23.85,0,0,0-6-.83H243.8a24,24,0,0,0-6,.83c-5.48-.93-12.77-10.65-13.28-11.18a2,2,0,0,0-1.83-.79,1.82,1.82,0,0,0-1.44,2.14,7.46,7.46,0,0,0,1,1.9c.32.47,6.67,10.31,10.38,12.55s3.74,1.22,4.09,4.43l.42,9.45-1.32,27.5a6.55,6.55,0,0,0,.05,1.6,2.87,2.87,0,0,0,5.44.15s3.23-22.4,3.23-22.4m0-42.13a7.14,7.14,0,1,0,7.16,7.14,7.15,7.15,0,0,0-7.16-7.14m59.21-2.26.78-25.36,14.24,31.55a2.75,2.75,0,0,0,5.06-2.16s-10-31.39-12.9-37.23-7.29-9.4-18.17-9.4h-2.24c-10.88,0-15.31,3.56-18.18,9.4s-12.88,37.23-12.88,37.23a2.75,2.75,0,0,0,1.45,3.6,2.71,2.71,0,0,0,3.57-1.45l14.27-31.55.78,25.36-2.25,63.77a4.59,4.59,0,0,0,4.24,4.88,1.72,1.72,0,0,0,.33,0,4.62,4.62,0,0,0,4.6-4.27L291.58,534l5.23,52.52a4.56,4.56,0,0,0,4.54,4.27,1.55,1.55,0,0,0,.33,0,4.58,4.58,0,0,0,4.25-4.88l-2.26-63.77ZM291.61,453.5a11.66,11.66,0,1,0,11.65,11.66,11.67,11.67,0,0,0-11.65-11.66m-93,91.55,2.52,43a2.73,2.73,0,1,0,5.46,0l2.33-43h7.61l-7.86-48.24,15.84,31.54a2.74,2.74,0,1,0,5-2.13S218,494.83,215.08,489s-5.69-9.41-16.59-9.41h-2.22c-10.87,0-13.72,3.56-16.58,9.41s-14.47,37.24-14.47,37.24a2.72,2.72,0,0,0,1.43,3.59,2.76,2.76,0,0,0,3.6-1.46l15.84-31.54-7.88,48.24h7.6l2.36,43a2.74,2.74,0,0,0,5.48,0l2.35-43Zm10.45-79.86a11.68,11.68,0,1,1-11.68-11.65,11.67,11.67,0,0,1,11.68,11.65" style="fill: #c03b29"/>
        <path d="M409.49,566.53s3.22,22.38,3.22,22.4a2.9,2.9,0,0,0,5.48-.15,9.11,9.11,0,0,0,0-1.6l-1.32-27.5.42-9.45c.37-3.21.45-2.24,4.09-4.43s10.08-12.07,10.39-12.55a8,8,0,0,0,1-1.9,1.83,1.83,0,0,0-1.44-2.14,2.09,2.09,0,0,0-1.86.79c-.48.53-7.78,10.25-13.26,11.18a23.85,23.85,0,0,0-6-.83H408.8a24,24,0,0,0-6,.83c-5.48-.93-12.77-10.65-13.28-11.18a2,2,0,0,0-1.83-.79,1.82,1.82,0,0,0-1.44,2.14,7.46,7.46,0,0,0,1,1.9c.32.47,6.67,10.31,10.38,12.55s3.74,1.22,4.09,4.43l.42,9.45-1.32,27.5a6.55,6.55,0,0,0,.05,1.6,2.87,2.87,0,0,0,5.44.15s3.23-22.4,3.23-22.4m0-42.13a7.14,7.14,0,1,0,7.16,7.14,7.15,7.15,0,0,0-7.16-7.14m59.21-2.26.78-25.36,14.24,31.55a2.75,2.75,0,0,0,5.06-2.16s-10-31.39-12.9-37.23-7.29-9.4-18.17-9.4h-2.24c-10.88,0-15.31,3.56-18.18,9.4s-12.88,37.23-12.88,37.23a2.75,2.75,0,0,0,1.45,3.6,2.71,2.71,0,0,0,3.57-1.45l14.27-31.55.78,25.36-2.25,63.77a4.59,4.59,0,0,0,4.24,4.88,1.72,1.72,0,0,0,.33,0,4.62,4.62,0,0,0,4.6-4.27L456.58,534l5.23,52.52a4.56,4.56,0,0,0,4.54,4.27,1.55,1.55,0,0,0,.33,0,4.58,4.58,0,0,0,4.25-4.88l-2.26-63.77ZM456.61,453.5a11.66,11.66,0,1,0,11.65,11.66,11.67,11.67,0,0,0-11.65-11.66m-93,91.55,2.52,43a2.73,2.73,0,1,0,5.46,0l2.33-43h7.61l-7.86-48.24,15.84,31.54a2.74,2.74,0,1,0,5-2.13S383,494.83,380.08,489s-5.69-9.41-16.59-9.41h-2.22c-10.87,0-13.72,3.56-16.58,9.41s-14.47,37.24-14.47,37.24a2.72,2.72,0,0,0,1.43,3.59,2.76,2.76,0,0,0,3.6-1.46l15.84-31.54-7.88,48.24h7.6l2.36,43a2.74,2.74,0,0,0,5.48,0l2.35-43Zm10.45-79.86a11.68,11.68,0,1,1-11.68-11.65,11.67,11.67,0,0,1,11.68,11.65" style="fill: #c03b29"/>
        <path d="M574.49,566.53s3.22,22.38,3.22,22.4a2.9,2.9,0,0,0,5.48-.15,9.11,9.11,0,0,0,0-1.6l-1.32-27.5.42-9.45c.37-3.21.45-2.24,4.09-4.43s10.08-12.07,10.39-12.55a8,8,0,0,0,1-1.9,1.83,1.83,0,0,0-1.44-2.14,2.09,2.09,0,0,0-1.86.79c-.48.53-7.78,10.25-13.26,11.18a23.85,23.85,0,0,0-6-.83H573.8a24,24,0,0,0-6,.83c-5.48-.93-12.77-10.65-13.28-11.18a2,2,0,0,0-1.83-.79,1.82,1.82,0,0,0-1.44,2.14,7.46,7.46,0,0,0,1,1.9c.32.47,6.67,10.31,10.38,12.55s3.74,1.22,4.09,4.43l.42,9.45-1.32,27.5a6.55,6.55,0,0,0,.05,1.6,2.87,2.87,0,0,0,5.44.15s3.23-22.4,3.23-22.4m0-42.13a7.14,7.14,0,1,0,7.16,7.14,7.15,7.15,0,0,0-7.16-7.14m59.21-2.26.78-25.36,14.24,31.55a2.75,2.75,0,0,0,5.06-2.16s-10-31.39-12.9-37.23-7.29-9.4-18.17-9.4h-2.24c-10.88,0-15.31,3.56-18.18,9.4s-12.88,37.23-12.88,37.23a2.75,2.75,0,0,0,1.45,3.6,2.71,2.71,0,0,0,3.57-1.45l14.27-31.55.78,25.36-2.25,63.77a4.59,4.59,0,0,0,4.24,4.88,1.72,1.72,0,0,0,.33,0,4.62,4.62,0,0,0,4.6-4.27L621.58,534l5.23,52.52a4.56,4.56,0,0,0,4.54,4.27,1.55,1.55,0,0,0,.33,0,4.58,4.58,0,0,0,4.25-4.88l-2.26-63.77ZM621.61,453.5a11.66,11.66,0,1,0,11.65,11.66,11.67,11.67,0,0,0-11.65-11.66m-93,91.55,2.52,43a2.73,2.73,0,1,0,5.46,0l2.33-43h7.61l-7.86-48.24,15.84,31.54a2.74,2.74,0,1,0,5-2.13S548,494.83,545.08,489s-5.69-9.41-16.59-9.41h-2.22c-10.87,0-13.72,3.56-16.58,9.41s-14.47,37.24-14.47,37.24a2.72,2.72,0,0,0,1.43,3.59,2.76,2.76,0,0,0,3.6-1.46l15.84-31.54-7.88,48.24h7.6l2.36,43a2.74,2.74,0,0,0,5.48,0l2.35-43Zm10.45-79.86a11.68,11.68,0,1,1-11.68-11.65,11.67,11.67,0,0,1,11.68,11.65" style="fill: #c03b29"/>
        <path d="M739.49,566.53s3.22,22.38,3.22,22.4a2.9,2.9,0,0,0,5.48-.15,9.11,9.11,0,0,0,0-1.6l-1.32-27.5.42-9.45c.37-3.21.45-2.24,4.09-4.43s10.08-12.07,10.39-12.55a8,8,0,0,0,1-1.9,1.83,1.83,0,0,0-1.44-2.14,2.09,2.09,0,0,0-1.86.79c-.48.53-7.78,10.25-13.26,11.18a23.85,23.85,0,0,0-6-.83H738.8a24,24,0,0,0-6,.83c-5.48-.93-12.77-10.65-13.28-11.18a2,2,0,0,0-1.83-.79,1.82,1.82,0,0,0-1.44,2.14,7.46,7.46,0,0,0,1,1.9c.32.47,6.67,10.31,10.38,12.55s3.74,1.22,4.09,4.43l.42,9.45-1.32,27.5a6.55,6.55,0,0,0,.05,1.6,2.87,2.87,0,0,0,5.44.15s3.23-22.4,3.23-22.4m0-42.13a7.14,7.14,0,1,0,7.16,7.14,7.15,7.15,0,0,0-7.16-7.14m59.21-2.26.78-25.36,14.24,31.55a2.75,2.75,0,0,0,5.06-2.16s-10-31.39-12.9-37.23-7.29-9.4-18.17-9.4h-2.24c-10.88,0-15.31,3.56-18.18,9.4s-12.88,37.23-12.88,37.23a2.75,2.75,0,0,0,1.45,3.6,2.71,2.71,0,0,0,3.57-1.45l14.27-31.55.78,25.36-2.25,63.77a4.59,4.59,0,0,0,4.24,4.88,1.72,1.72,0,0,0,.33,0,4.62,4.62,0,0,0,4.6-4.27L786.58,534l5.23,52.52a4.56,4.56,0,0,0,4.54,4.27,1.55,1.55,0,0,0,.33,0,4.58,4.58,0,0,0,4.25-4.88l-2.26-63.77ZM786.61,453.5a11.66,11.66,0,1,0,11.65,11.66,11.67,11.67,0,0,0-11.65-11.66m-93,91.55,2.52,43a2.73,2.73,0,1,0,5.46,0l2.33-43h7.61l-7.86-48.24,15.84,31.54a2.74,2.74,0,1,0,5-2.13S713,494.83,710.08,489s-5.69-9.41-16.59-9.41h-2.22c-10.87,0-13.72,3.56-16.58,9.41s-14.47,37.24-14.47,37.24a2.72,2.72,0,0,0,1.43,3.59,2.76,2.76,0,0,0,3.6-1.46l15.84-31.54-7.88,48.24h7.6l2.36,43a2.74,2.74,0,0,0,5.48,0l2.35-43Zm10.45-79.86a11.68,11.68,0,1,1-11.68-11.65,11.67,11.67,0,0,1,11.68,11.65" style="fill: #c03b29"/>
        <path d="M904.49,566.53s3.22,22.38,3.22,22.4a2.9,2.9,0,0,0,5.48-.15,9.11,9.11,0,0,0,0-1.6l-1.32-27.5.42-9.45c.37-3.21.45-2.24,4.09-4.43s10.08-12.07,10.39-12.55a8,8,0,0,0,1-1.9,1.83,1.83,0,0,0-1.44-2.14,2.09,2.09,0,0,0-1.86.79c-.48.53-7.78,10.25-13.26,11.18a23.85,23.85,0,0,0-6-.83H903.8a24,24,0,0,0-6,.83c-5.48-.93-12.77-10.65-13.28-11.18a2,2,0,0,0-1.83-.79,1.82,1.82,0,0,0-1.44,2.14,7.46,7.46,0,0,0,1,1.9c.32.47,6.67,10.31,10.38,12.55s3.74,1.22,4.09,4.43l.42,9.45-1.32,27.5a6.55,6.55,0,0,0,.05,1.6,2.87,2.87,0,0,0,5.44.15s3.23-22.4,3.23-22.4m0-42.13a7.14,7.14,0,1,0,7.16,7.14,7.15,7.15,0,0,0-7.16-7.14m59.21-2.26.78-25.36,14.24,31.55a2.75,2.75,0,0,0,5.06-2.16s-10-31.39-12.9-37.23-7.29-9.4-18.17-9.4h-2.24c-10.88,0-15.31,3.56-18.18,9.4s-12.88,37.23-12.88,37.23a2.75,2.75,0,0,0,1.45,3.6,2.71,2.71,0,0,0,3.57-1.45l14.27-31.55.78,25.36-2.25,63.77a4.59,4.59,0,0,0,4.24,4.88,1.72,1.72,0,0,0,.33,0,4.62,4.62,0,0,0,4.6-4.27L951.58,534l5.23,52.52a4.56,4.56,0,0,0,4.54,4.27,1.55,1.55,0,0,0,.33,0,4.58,4.58,0,0,0,4.25-4.88l-2.26-63.77ZM951.61,453.5a11.66,11.66,0,1,0,11.65,11.66,11.67,11.67,0,0,0-11.65-11.66m-93,91.55,2.52,43a2.73,2.73,0,1,0,5.46,0l2.33-43h7.61l-7.86-48.24,15.84,31.54a2.74,2.74,0,1,0,5-2.13S878,494.83,875.08,489s-5.69-9.41-16.59-9.41h-2.22c-10.87,0-13.72,3.56-16.58,9.41s-14.47,37.24-14.47,37.24a2.72,2.72,0,0,0,1.43,3.59,2.76,2.76,0,0,0,3.6-1.46l15.84-31.54-7.88,48.24h7.6l2.36,43a2.74,2.74,0,0,0,5.48,0l2.35-43Zm10.45-79.86a11.68,11.68,0,1,1-11.68-11.65,11.67,11.67,0,0,1,11.68,11.65" style="fill: #c03b29"/>
      </g>
      <g style="opacity: 0.2">
        <path d="M79.49,724.89s3.22,22.38,3.22,22.4a2.9,2.9,0,0,0,5.48-.15,9.11,9.11,0,0,0,0-1.6L86.88,718l.42-9.45c.37-3.21.45-2.24,4.09-4.43s10.08-12.07,10.39-12.55a8,8,0,0,0,1-1.9,1.83,1.83,0,0,0-1.44-2.14,2.09,2.09,0,0,0-1.86.79c-.48.53-7.78,10.25-13.26,11.18a23.85,23.85,0,0,0-6-.83H78.8a24,24,0,0,0-6,.83c-5.48-.93-12.77-10.65-13.28-11.18a2,2,0,0,0-1.83-.79,1.82,1.82,0,0,0-1.44,2.14,7.46,7.46,0,0,0,1,1.9c.32.47,6.67,10.31,10.38,12.55s3.74,1.22,4.09,4.43l.42,9.45-1.32,27.5a6.55,6.55,0,0,0,.05,1.6,2.87,2.87,0,0,0,5.44.15s3.23-22.4,3.23-22.4m0-42.13a7.14,7.14,0,1,0,7.16,7.14,7.15,7.15,0,0,0-7.16-7.14m59.21-2.26.78-25.36,14.24,31.55a2.75,2.75,0,0,0,5.06-2.16s-10-31.39-12.9-37.23-7.29-9.4-18.17-9.4h-2.24c-10.88,0-15.31,3.56-18.18,9.4s-12.88,37.23-12.88,37.23a2.75,2.75,0,0,0,1.45,3.6,2.71,2.71,0,0,0,3.57-1.45l14.27-31.55.78,25.36-2.25,63.77a4.59,4.59,0,0,0,4.24,4.88,1.72,1.72,0,0,0,.33,0,4.62,4.62,0,0,0,4.6-4.27l5.16-52.52,5.23,52.52a4.56,4.56,0,0,0,4.54,4.27,1.55,1.55,0,0,0,.33,0,4.58,4.58,0,0,0,4.25-4.88l-2.26-63.77Zm-12.09-68.64a11.66,11.66,0,1,0,11.65,11.66,11.67,11.67,0,0,0-11.65-11.66m-93,91.55,2.52,43a2.73,2.73,0,1,0,5.46,0l2.33-43h7.61l-7.86-48.24,15.84,31.54a2.74,2.74,0,1,0,5-2.13S53,653.19,50.08,647.34s-5.69-9.41-16.59-9.41H31.27c-10.87,0-13.72,3.56-16.58,9.41S.22,684.58.22,684.58a2.72,2.72,0,0,0,1.43,3.59,2.76,2.76,0,0,0,3.6-1.46l15.84-31.54-7.88,48.24h7.6l2.36,43a2.74,2.74,0,0,0,5.48,0l2.35-43Zm10.45-79.86a11.68,11.68,0,1,1-11.68-11.65,11.67,11.67,0,0,1,11.68,11.65" style="fill: #c03b29"/>
        <path d="M244.49,724.89s3.22,22.38,3.22,22.4a2.9,2.9,0,0,0,5.48-.15,9.11,9.11,0,0,0,0-1.6L251.88,718l.42-9.45c.37-3.21.45-2.24,4.09-4.43s10.08-12.07,10.39-12.55a8,8,0,0,0,1-1.9,1.83,1.83,0,0,0-1.44-2.14,2.09,2.09,0,0,0-1.86.79c-.48.53-7.78,10.25-13.26,11.18a23.85,23.85,0,0,0-6-.83H243.8a24,24,0,0,0-6,.83c-5.48-.93-12.77-10.65-13.28-11.18a2,2,0,0,0-1.83-.79,1.82,1.82,0,0,0-1.44,2.14,7.46,7.46,0,0,0,1,1.9c.32.47,6.67,10.31,10.38,12.55s3.74,1.22,4.09,4.43l.42,9.45-1.32,27.5a6.55,6.55,0,0,0,.05,1.6,2.87,2.87,0,0,0,5.44.15s3.23-22.4,3.23-22.4m0-42.13a7.14,7.14,0,1,0,7.16,7.14,7.15,7.15,0,0,0-7.16-7.14m59.21-2.26.78-25.36,14.24,31.55a2.75,2.75,0,0,0,5.06-2.16s-10-31.39-12.9-37.23-7.29-9.4-18.17-9.4h-2.24c-10.88,0-15.31,3.56-18.18,9.4s-12.88,37.23-12.88,37.23a2.75,2.75,0,0,0,1.45,3.6,2.71,2.71,0,0,0,3.57-1.45l14.27-31.55.78,25.36-2.25,63.77a4.59,4.59,0,0,0,4.24,4.88,1.72,1.72,0,0,0,.33,0,4.62,4.62,0,0,0,4.6-4.27l5.16-52.52,5.23,52.52a4.56,4.56,0,0,0,4.54,4.27,1.55,1.55,0,0,0,.33,0,4.58,4.58,0,0,0,4.25-4.88l-2.26-63.77Zm-12.09-68.64a11.66,11.66,0,1,0,11.65,11.66,11.67,11.67,0,0,0-11.65-11.66m-93,91.55,2.52,43a2.73,2.73,0,1,0,5.46,0l2.33-43h7.61l-7.86-48.24,15.84,31.54a2.74,2.74,0,1,0,5-2.13s-11.6-31.39-14.48-37.24-5.69-9.41-16.59-9.41h-2.22c-10.87,0-13.72,3.56-16.58,9.41s-14.47,37.24-14.47,37.24a2.72,2.72,0,0,0,1.43,3.59,2.76,2.76,0,0,0,3.6-1.46l15.84-31.54-7.88,48.24h7.6l2.36,43a2.74,2.74,0,0,0,5.48,0l2.35-43Zm10.45-79.86a11.68,11.68,0,1,1-11.68-11.65,11.67,11.67,0,0,1,11.68,11.65" style="fill: #c03b29"/>
        <path d="M409.49,724.89s3.22,22.38,3.22,22.4a2.9,2.9,0,0,0,5.48-.15,9.11,9.11,0,0,0,0-1.6L416.88,718l.42-9.45c.37-3.21.45-2.24,4.09-4.43s10.08-12.07,10.39-12.55a8,8,0,0,0,1-1.9,1.83,1.83,0,0,0-1.44-2.14,2.09,2.09,0,0,0-1.86.79c-.48.53-7.78,10.25-13.26,11.18a23.85,23.85,0,0,0-6-.83H408.8a24,24,0,0,0-6,.83c-5.48-.93-12.77-10.65-13.28-11.18a2,2,0,0,0-1.83-.79,1.82,1.82,0,0,0-1.44,2.14,7.46,7.46,0,0,0,1,1.9c.32.47,6.67,10.31,10.38,12.55s3.74,1.22,4.09,4.43l.42,9.45-1.32,27.5a6.55,6.55,0,0,0,.05,1.6,2.87,2.87,0,0,0,5.44.15s3.23-22.4,3.23-22.4m0-42.13a7.14,7.14,0,1,0,7.16,7.14,7.15,7.15,0,0,0-7.16-7.14m59.21-2.26.78-25.36,14.24,31.55a2.75,2.75,0,0,0,5.06-2.16s-10-31.39-12.9-37.23-7.29-9.4-18.17-9.4h-2.24c-10.88,0-15.31,3.56-18.18,9.4s-12.88,37.23-12.88,37.23a2.75,2.75,0,0,0,1.45,3.6,2.71,2.71,0,0,0,3.57-1.45l14.27-31.55.78,25.36-2.25,63.77a4.59,4.59,0,0,0,4.24,4.88,1.72,1.72,0,0,0,.33,0,4.62,4.62,0,0,0,4.6-4.27l5.16-52.52,5.23,52.52a4.56,4.56,0,0,0,4.54,4.27,1.55,1.55,0,0,0,.33,0,4.58,4.58,0,0,0,4.25-4.88l-2.26-63.77Zm-12.09-68.64a11.66,11.66,0,1,0,11.65,11.66,11.67,11.67,0,0,0-11.65-11.66m-93,91.55,2.52,43a2.73,2.73,0,1,0,5.46,0l2.33-43h7.61l-7.86-48.24,15.84,31.54a2.74,2.74,0,1,0,5-2.13s-11.6-31.39-14.48-37.24-5.69-9.41-16.59-9.41h-2.22c-10.87,0-13.72,3.56-16.58,9.41s-14.47,37.24-14.47,37.24a2.72,2.72,0,0,0,1.43,3.59,2.76,2.76,0,0,0,3.6-1.46l15.84-31.54-7.88,48.24h7.6l2.36,43a2.74,2.74,0,0,0,5.48,0l2.35-43Zm10.45-79.86a11.68,11.68,0,1,1-11.68-11.65,11.67,11.67,0,0,1,11.68,11.65" style="fill: #c03b29"/>
        <path d="M574.49,724.89s3.22,22.38,3.22,22.4a2.9,2.9,0,0,0,5.48-.15,9.11,9.11,0,0,0,0-1.6L581.88,718l.42-9.45c.37-3.21.45-2.24,4.09-4.43s10.08-12.07,10.39-12.55a8,8,0,0,0,1-1.9,1.83,1.83,0,0,0-1.44-2.14,2.09,2.09,0,0,0-1.86.79c-.48.53-7.78,10.25-13.26,11.18a23.85,23.85,0,0,0-6-.83H573.8a24,24,0,0,0-6,.83c-5.48-.93-12.77-10.65-13.28-11.18a2,2,0,0,0-1.83-.79,1.82,1.82,0,0,0-1.44,2.14,7.46,7.46,0,0,0,1,1.9c.32.47,6.67,10.31,10.38,12.55s3.74,1.22,4.09,4.43l.42,9.45-1.32,27.5a6.55,6.55,0,0,0,.05,1.6,2.87,2.87,0,0,0,5.44.15s3.23-22.4,3.23-22.4m0-42.13a7.14,7.14,0,1,0,7.16,7.14,7.15,7.15,0,0,0-7.16-7.14m59.21-2.26.78-25.36,14.24,31.55a2.75,2.75,0,0,0,5.06-2.16s-10-31.39-12.9-37.23-7.29-9.4-18.17-9.4h-2.24c-10.88,0-15.31,3.56-18.18,9.4s-12.88,37.23-12.88,37.23a2.75,2.75,0,0,0,1.45,3.6,2.71,2.71,0,0,0,3.57-1.45l14.27-31.55.78,25.36-2.25,63.77a4.59,4.59,0,0,0,4.24,4.88,1.72,1.72,0,0,0,.33,0,4.62,4.62,0,0,0,4.6-4.27l5.16-52.52,5.23,52.52a4.56,4.56,0,0,0,4.54,4.27,1.55,1.55,0,0,0,.33,0,4.58,4.58,0,0,0,4.25-4.88l-2.26-63.77Zm-12.09-68.64a11.66,11.66,0,1,0,11.65,11.66,11.67,11.67,0,0,0-11.65-11.66m-93,91.55,2.52,43a2.73,2.73,0,1,0,5.46,0l2.33-43h7.61l-7.86-48.24,15.84,31.54a2.74,2.74,0,1,0,5-2.13s-11.6-31.39-14.48-37.24-5.69-9.41-16.59-9.41h-2.22c-10.87,0-13.72,3.56-16.58,9.41s-14.47,37.24-14.47,37.24a2.72,2.72,0,0,0,1.43,3.59,2.76,2.76,0,0,0,3.6-1.46l15.84-31.54-7.88,48.24h7.6l2.36,43a2.74,2.74,0,0,0,5.48,0l2.35-43Zm10.45-79.86a11.68,11.68,0,1,1-11.68-11.65,11.67,11.67,0,0,1,11.68,11.65" style="fill: #c03b29"/>
        <path d="M739.49,724.89s3.22,22.38,3.22,22.4a2.9,2.9,0,0,0,5.48-.15,9.11,9.11,0,0,0,0-1.6L746.88,718l.42-9.45c.37-3.21.45-2.24,4.09-4.43s10.08-12.07,10.39-12.55a8,8,0,0,0,1-1.9,1.83,1.83,0,0,0-1.44-2.14,2.09,2.09,0,0,0-1.86.79c-.48.53-7.78,10.25-13.26,11.18a23.85,23.85,0,0,0-6-.83H738.8a24,24,0,0,0-6,.83c-5.48-.93-12.77-10.65-13.28-11.18a2,2,0,0,0-1.83-.79,1.82,1.82,0,0,0-1.44,2.14,7.46,7.46,0,0,0,1,1.9c.32.47,6.67,10.31,10.38,12.55s3.74,1.22,4.09,4.43l.42,9.45-1.32,27.5a6.55,6.55,0,0,0,.05,1.6,2.87,2.87,0,0,0,5.44.15s3.23-22.4,3.23-22.4m0-42.13a7.14,7.14,0,1,0,7.16,7.14,7.15,7.15,0,0,0-7.16-7.14m59.21-2.26.78-25.36,14.24,31.55a2.75,2.75,0,0,0,5.06-2.16s-10-31.39-12.9-37.23-7.29-9.4-18.17-9.4h-2.24c-10.88,0-15.31,3.56-18.18,9.4s-12.88,37.23-12.88,37.23a2.75,2.75,0,0,0,1.45,3.6,2.71,2.71,0,0,0,3.57-1.45l14.27-31.55.78,25.36-2.25,63.77a4.59,4.59,0,0,0,4.24,4.88,1.72,1.72,0,0,0,.33,0,4.62,4.62,0,0,0,4.6-4.27l5.16-52.52,5.23,52.52a4.56,4.56,0,0,0,4.54,4.27,1.55,1.55,0,0,0,.33,0,4.58,4.58,0,0,0,4.25-4.88l-2.26-63.77Zm-12.09-68.64a11.66,11.66,0,1,0,11.65,11.66,11.67,11.67,0,0,0-11.65-11.66m-93,91.55,2.52,43a2.73,2.73,0,1,0,5.46,0l2.33-43h7.61l-7.86-48.24,15.84,31.54a2.74,2.74,0,1,0,5-2.13s-11.6-31.39-14.48-37.24-5.69-9.41-16.59-9.41h-2.22c-10.87,0-13.72,3.56-16.58,9.41s-14.47,37.24-14.47,37.24a2.72,2.72,0,0,0,1.43,3.59,2.76,2.76,0,0,0,3.6-1.46l15.84-31.54-7.88,48.24h7.6l2.36,43a2.74,2.74,0,0,0,5.48,0l2.35-43Zm10.45-79.86a11.68,11.68,0,1,1-11.68-11.65,11.67,11.67,0,0,1,11.68,11.65" style="fill: #c03b29"/>
        <path d="M904.49,724.89s3.22,22.38,3.22,22.4a2.9,2.9,0,0,0,5.48-.15,9.11,9.11,0,0,0,0-1.6L911.88,718l.42-9.45c.37-3.21.45-2.24,4.09-4.43s10.08-12.07,10.39-12.55a8,8,0,0,0,1-1.9,1.83,1.83,0,0,0-1.44-2.14,2.09,2.09,0,0,0-1.86.79c-.48.53-7.78,10.25-13.26,11.18a23.85,23.85,0,0,0-6-.83H903.8a24,24,0,0,0-6,.83c-5.48-.93-12.77-10.65-13.28-11.18a2,2,0,0,0-1.83-.79,1.82,1.82,0,0,0-1.44,2.14,7.46,7.46,0,0,0,1,1.9c.32.47,6.67,10.31,10.38,12.55s3.74,1.22,4.09,4.43l.42,9.45-1.32,27.5a6.55,6.55,0,0,0,.05,1.6,2.87,2.87,0,0,0,5.44.15s3.23-22.4,3.23-22.4m0-42.13a7.14,7.14,0,1,0,7.16,7.14,7.15,7.15,0,0,0-7.16-7.14m59.21-2.26.78-25.36,14.24,31.55a2.75,2.75,0,0,0,5.06-2.16s-10-31.39-12.9-37.23-7.29-9.4-18.17-9.4h-2.24c-10.88,0-15.31,3.56-18.18,9.4s-12.88,37.23-12.88,37.23a2.75,2.75,0,0,0,1.45,3.6,2.71,2.71,0,0,0,3.57-1.45l14.27-31.55.78,25.36-2.25,63.77a4.59,4.59,0,0,0,4.24,4.88,1.72,1.72,0,0,0,.33,0,4.62,4.62,0,0,0,4.6-4.27l5.16-52.52,5.23,52.52a4.56,4.56,0,0,0,4.54,4.27,1.55,1.55,0,0,0,.33,0,4.58,4.58,0,0,0,4.25-4.88l-2.26-63.77Zm-12.09-68.64a11.66,11.66,0,1,0,11.65,11.66,11.67,11.67,0,0,0-11.65-11.66m-93,91.55,2.52,43a2.73,2.73,0,1,0,5.46,0l2.33-43h7.61l-7.86-48.24,15.84,31.54a2.74,2.74,0,1,0,5-2.13s-11.6-31.39-14.48-37.24-5.69-9.41-16.59-9.41h-2.22c-10.87,0-13.72,3.56-16.58,9.41s-14.47,37.24-14.47,37.24a2.72,2.72,0,0,0,1.43,3.59,2.76,2.76,0,0,0,3.6-1.46l15.84-31.54-7.88,48.24h7.6l2.36,43a2.74,2.74,0,0,0,5.48,0l2.35-43Zm10.45-79.86a11.68,11.68,0,1,1-11.68-11.65,11.67,11.67,0,0,1,11.68,11.65" style="fill: #c03b29"/>
      </g>
    </g>
  </g>
</svg>
