<?xml version="1.0" encoding="utf-8"?>
<!-- Generator: Adobe Illustrator 20.1.0, SVG Export Plug-In . SVG Version: 6.00 Build 0)  -->
<svg version="1.1" id="Layer_1" xmlns="http://www.w3.org/2000/svg" xmlns:xlink="http://www.w3.org/1999/xlink" x="0px" y="0px"
	 viewBox="0 0 629.7 379" style="enable-background:new 0 0 629.7 379;" xml:space="preserve">
<style type="text/css">
	.st0{fill:#0050AF;}
	.st1{fill:#FFFFFF;}
	.st2{fill:#1868B7;}
	.st3{fill:#257BC1;}
	.st4{fill:#338ECC;}
	.st5{fill:#4BAAE0;}
	.st6{fill:#62C4EF;}
</style>
<title>organisations</title>
<g>
	<g>
		<path class="st0" d="M15.6,70c0-1.7,1.4-3,3-3h61.3c1.7,0,3,1.3,3,3v255.8c0,1.6-1.3,3-3,3H18.6c-1.6,0-3-1.4-3-3V70z"/>
	</g>
	<g>
		<path class="st1" d="M38.8,84.3c0,1.1-0.3,2-1,2.7s-1.6,1.3-2.7,1.5v0.1c1.4,0.2,2.4,0.6,3.1,1.3s1.1,1.6,1.1,2.7
			c0,1.6-0.6,2.9-1.8,3.8s-2.9,1.4-5.1,1.4c-1.9,0-3.5-0.3-4.9-0.9v-3.1c0.7,0.3,1.4,0.6,2.2,0.8S31.2,95,32,95
			c1.2,0,2.1-0.2,2.6-0.6s0.9-1.1,0.9-2c0-0.8-0.3-1.4-1-1.7s-1.7-0.5-3.1-0.5h-1.3v-2.8h1.3c1.3,0,2.3-0.2,2.9-0.5s0.9-0.9,0.9-1.8
			c0-1.3-0.8-1.9-2.4-1.9c-0.6,0-1.1,0.1-1.7,0.3s-1.2,0.5-1.9,1l-1.7-2.5c1.6-1.1,3.4-1.7,5.6-1.7c1.8,0,3.2,0.4,4.2,1.1
			S38.8,83,38.8,84.3z"/>
		<path class="st1" d="M52.7,87.8c0,3.4-0.7,5.9-2.1,7.6s-3.6,2.5-6.5,2.5c-1,0-1.8-0.1-2.3-0.2v-2.9c0.7,0.2,1.3,0.2,2.1,0.2
			c1.2,0,2.2-0.2,3-0.5s1.4-0.9,1.8-1.7s0.7-1.8,0.7-3.1h-0.1c-0.5,0.7-1,1.2-1.6,1.5s-1.3,0.4-2.2,0.4c-1.5,0-2.7-0.5-3.5-1.4
			s-1.3-2.3-1.3-4c0-1.8,0.5-3.3,1.6-4.4s2.5-1.6,4.3-1.6c1.3,0,2.4,0.3,3.3,0.9s1.7,1.5,2.2,2.6S52.7,86.2,52.7,87.8z M46.5,83.2
			c-0.8,0-1.3,0.3-1.8,0.8s-0.6,1.3-0.6,2.2c0,0.8,0.2,1.5,0.6,2s1,0.7,1.7,0.7c0.7,0,1.4-0.2,1.9-0.7s0.8-1,0.8-1.7
			c0-0.9-0.2-1.7-0.7-2.4S47.3,83.2,46.5,83.2z"/>
		<path class="st1" d="M62.1,85.6c0,1.8-0.3,3.1-1,4S59.3,91,58,91c-1.3,0-2.3-0.5-3-1.4s-1.1-2.3-1.1-4c0-3.6,1.3-5.4,4-5.4
			c1.3,0,2.3,0.5,3,1.4S62.1,83.9,62.1,85.6z M56.9,85.6c0,1,0.1,1.7,0.3,2.2s0.5,0.7,0.8,0.7c0.8,0,1.1-1,1.1-3
			c0-2-0.4-2.9-1.1-2.9c-0.4,0-0.7,0.2-0.8,0.7S56.9,84.6,56.9,85.6z M70.1,80.5l-9.5,17.1h-2.8l9.5-17.1H70.1z M74.1,92.4
			c0,1.8-0.3,3.1-1,4s-1.7,1.4-3.1,1.4c-1.3,0-2.3-0.5-3-1.4s-1.1-2.3-1.1-4c0-3.6,1.3-5.4,4-5.4c1.3,0,2.3,0.5,3,1.4
			S74.1,90.7,74.1,92.4z M68.9,92.5c0,1,0.1,1.7,0.3,2.2s0.5,0.7,0.8,0.7c0.8,0,1.1-1,1.1-3c0-2-0.4-2.9-1.1-2.9
			c-0.4,0-0.7,0.2-0.8,0.7S68.9,91.5,68.9,92.5z"/>
	</g>
	<g>
		<path class="st1" d="M12.1,346.5v-9.3h1.1v9.3H12.1z"/>
		<path class="st1" d="M19.9,346.5V342c0-0.6-0.1-1-0.4-1.3s-0.7-0.4-1.2-0.4c-0.7,0-1.3,0.2-1.6,0.6s-0.5,1-0.5,1.9v3.7h-1.1v-7H16
			l0.2,1h0.1c0.2-0.3,0.5-0.6,0.9-0.8s0.8-0.3,1.3-0.3c0.8,0,1.5,0.2,1.9,0.6s0.6,1,0.6,1.9v4.5H19.9z"/>
		<path class="st1" d="M25,345.8c0.2,0,0.4,0,0.5,0s0.3-0.1,0.4-0.1v0.8c-0.1,0.1-0.3,0.1-0.5,0.1c-0.2,0-0.4,0.1-0.6,0.1
			c-1.3,0-2-0.7-2-2.1v-4.1h-1v-0.5l1-0.4l0.4-1.5h0.6v1.6h2v0.8h-2v4.1c0,0.4,0.1,0.7,0.3,1S24.7,345.8,25,345.8z"/>
		<path class="st1" d="M30,346.7c-1,0-1.8-0.3-2.4-0.9c-0.6-0.6-0.9-1.5-0.9-2.6c0-1.1,0.3-2,0.8-2.7c0.6-0.7,1.3-1,2.2-1
			c0.9,0,1.6,0.3,2.1,0.9s0.8,1.3,0.8,2.3v0.7h-4.8c0,0.8,0.2,1.4,0.6,1.9c0.4,0.4,0.9,0.6,1.7,0.6c0.7,0,1.5-0.2,2.2-0.5v0.9
			c-0.4,0.2-0.7,0.3-1.1,0.3C30.9,346.6,30.5,346.7,30,346.7z M29.7,340.3c-0.6,0-1,0.2-1.3,0.5c-0.3,0.4-0.5,0.9-0.6,1.5h3.6
			c0-0.7-0.1-1.2-0.4-1.5S30.3,340.3,29.7,340.3z"/>
		<path class="st1" d="M37.8,339.4c0.3,0,0.6,0,0.8,0.1l-0.1,1c-0.3-0.1-0.5-0.1-0.8-0.1c-0.6,0-1,0.2-1.4,0.7
			c-0.4,0.5-0.6,1-0.6,1.7v3.7h-1.1v-7h0.9l0.1,1.3h0.1c0.3-0.5,0.6-0.8,0.9-1S37.4,339.4,37.8,339.4z"/>
		<path class="st1" d="M44.8,346.5V342c0-0.6-0.1-1-0.4-1.3s-0.7-0.4-1.2-0.4c-0.7,0-1.3,0.2-1.6,0.6s-0.5,1-0.5,1.9v3.7h-1.1v-7
			h0.9l0.2,1h0.1c0.2-0.3,0.5-0.6,0.9-0.8s0.8-0.3,1.3-0.3c0.8,0,1.5,0.2,1.9,0.6s0.6,1,0.6,1.9v4.5H44.8z"/>
		<path class="st1" d="M51.9,346.5l-0.2-1h-0.1c-0.3,0.4-0.7,0.7-1,0.9c-0.3,0.2-0.8,0.2-1.3,0.2c-0.7,0-1.2-0.2-1.6-0.5
			c-0.4-0.4-0.6-0.9-0.6-1.5c0-1.4,1.1-2.1,3.4-2.2l1.2,0v-0.4c0-0.5-0.1-0.9-0.4-1.2c-0.2-0.3-0.6-0.4-1.1-0.4
			c-0.6,0-1.2,0.2-2,0.5l-0.3-0.8c0.3-0.2,0.7-0.3,1.1-0.4c0.4-0.1,0.8-0.2,1.2-0.2c0.8,0,1.4,0.2,1.8,0.6c0.4,0.4,0.6,1,0.6,1.8
			v4.7H51.9z M49.5,345.8c0.7,0,1.2-0.2,1.5-0.5c0.4-0.4,0.6-0.9,0.6-1.5v-0.6l-1.1,0c-0.8,0-1.4,0.2-1.8,0.4
			c-0.4,0.2-0.6,0.6-0.6,1.1c0,0.4,0.1,0.7,0.3,0.9C48.8,345.7,49.1,345.8,49.5,345.8z"/>
		<path class="st1" d="M57.5,345.8c0.2,0,0.4,0,0.5,0s0.3-0.1,0.4-0.1v0.8c-0.1,0.1-0.3,0.1-0.5,0.1c-0.2,0-0.4,0.1-0.6,0.1
			c-1.3,0-2-0.7-2-2.1v-4.1h-1v-0.5l1-0.4l0.4-1.5h0.6v1.6h2v0.8h-2v4.1c0,0.4,0.1,0.7,0.3,1S57.1,345.8,57.5,345.8z"/>
		<path class="st1" d="M59.5,337.7c0-0.2,0.1-0.4,0.2-0.5s0.3-0.2,0.4-0.2c0.2,0,0.3,0.1,0.4,0.2s0.2,0.3,0.2,0.5
			c0,0.2-0.1,0.4-0.2,0.5s-0.3,0.2-0.4,0.2c-0.2,0-0.3-0.1-0.4-0.2S59.5,337.9,59.5,337.7z M60.6,346.5h-1.1v-7h1.1V346.5z"/>
		<path class="st1" d="M68.8,343c0,1.1-0.3,2-0.9,2.7s-1.4,1-2.4,1c-0.6,0-1.2-0.1-1.7-0.4c-0.5-0.3-0.9-0.7-1.1-1.3
			c-0.3-0.5-0.4-1.2-0.4-1.9c0-1.1,0.3-2,0.9-2.7s1.4-0.9,2.4-0.9c1,0,1.7,0.3,2.3,1C68.5,341.1,68.8,341.9,68.8,343z M63.5,343
			c0,0.9,0.2,1.6,0.5,2c0.4,0.5,0.9,0.7,1.6,0.7s1.2-0.2,1.6-0.7c0.4-0.5,0.5-1.1,0.5-2c0-0.9-0.2-1.6-0.5-2
			c-0.4-0.5-0.9-0.7-1.6-0.7c-0.7,0-1.2,0.2-1.6,0.7S63.5,342.1,63.5,343z"/>
		<path class="st1" d="M75.2,346.5V342c0-0.6-0.1-1-0.4-1.3s-0.7-0.4-1.2-0.4c-0.7,0-1.3,0.2-1.6,0.6s-0.5,1-0.5,1.9v3.7h-1.1v-7
			h0.9l0.2,1h0.1c0.2-0.3,0.5-0.6,0.9-0.8s0.8-0.3,1.3-0.3c0.8,0,1.5,0.2,1.9,0.6s0.6,1,0.6,1.9v4.5H75.2z"/>
		<path class="st1" d="M82.3,346.5l-0.2-1H82c-0.3,0.4-0.7,0.7-1,0.9c-0.3,0.2-0.8,0.2-1.3,0.2c-0.7,0-1.2-0.2-1.6-0.5
			c-0.4-0.4-0.6-0.9-0.6-1.5c0-1.4,1.1-2.1,3.4-2.2l1.2,0v-0.4c0-0.5-0.1-0.9-0.4-1.2c-0.2-0.3-0.6-0.4-1.1-0.4
			c-0.6,0-1.2,0.2-2,0.5l-0.3-0.8c0.3-0.2,0.7-0.3,1.1-0.4c0.4-0.1,0.8-0.2,1.2-0.2c0.8,0,1.4,0.2,1.8,0.6c0.4,0.4,0.6,1,0.6,1.8
			v4.7H82.3z M79.9,345.8c0.7,0,1.2-0.2,1.5-0.5c0.4-0.4,0.6-0.9,0.6-1.5v-0.6l-1.1,0c-0.8,0-1.4,0.2-1.8,0.4
			c-0.4,0.2-0.6,0.6-0.6,1.1c0,0.4,0.1,0.7,0.3,0.9C79.2,345.7,79.5,345.8,79.9,345.8z"/>
		<path class="st1" d="M86.6,346.5h-1.1v-9.9h1.1V346.5z"/>
		<path class="st1" d="M40.1,362.1h-1.2l-5.1-7.8h-0.1c0.1,0.9,0.1,1.8,0.1,2.5v5.3h-1v-9.3H34l5.1,7.8h0.1c0-0.1,0-0.5-0.1-1.1
			s0-1.1,0-1.3v-5.3h1V362.1z"/>
		<path class="st1" d="M46.6,357.3h3.2v4.5c-0.5,0.2-1,0.3-1.5,0.4c-0.5,0.1-1.1,0.1-1.8,0.1c-1.4,0-2.5-0.4-3.3-1.3s-1.2-2-1.2-3.5
			c0-1,0.2-1.8,0.6-2.5c0.4-0.7,0.9-1.3,1.7-1.7s1.6-0.6,2.6-0.6c1,0,1.9,0.2,2.8,0.5l-0.4,1c-0.8-0.4-1.6-0.5-2.4-0.5
			c-1.1,0-2,0.3-2.6,1s-1,1.6-1,2.8c0,1.3,0.3,2.2,0.9,2.9c0.6,0.6,1.5,1,2.7,1c0.6,0,1.3-0.1,1.9-0.2v-2.9h-2.1V357.3z"/>
		<path class="st1" d="M60.4,357.5c0,1.5-0.4,2.7-1.1,3.5c-0.8,0.8-1.8,1.3-3.1,1.3c-1.4,0-2.4-0.4-3.2-1.3c-0.7-0.8-1.1-2-1.1-3.5
			c0-1.5,0.4-2.7,1.1-3.5c0.7-0.8,1.8-1.2,3.2-1.2c1.3,0,2.4,0.4,3.1,1.3C60,354.8,60.4,356,60.4,357.5z M53,357.5
			c0,1.3,0.3,2.2,0.8,2.9c0.5,0.6,1.3,1,2.3,1c1,0,1.8-0.3,2.3-1s0.8-1.6,0.8-2.9c0-1.2-0.3-2.2-0.8-2.8c-0.5-0.6-1.3-1-2.3-1
			c-1,0-1.8,0.3-2.3,1C53.2,355.3,53,356.2,53,357.5z"/>
		<path class="st1" d="M66.4,360.2c0,0.6-0.2,1.1-0.7,1.5c-0.5,0.4-1.2,0.5-2,0.5c-0.9,0-1.6-0.1-2.2-0.4v-1
			c0.3,0.2,0.7,0.3,1.1,0.4c0.4,0.1,0.8,0.1,1.1,0.1c0.6,0,1-0.1,1.3-0.3s0.4-0.4,0.4-0.8c0-0.3-0.1-0.5-0.4-0.7
			c-0.2-0.2-0.7-0.4-1.4-0.7c-0.6-0.2-1.1-0.5-1.4-0.6c-0.3-0.2-0.5-0.4-0.6-0.6c-0.1-0.2-0.2-0.5-0.2-0.8c0-0.6,0.2-1,0.7-1.3
			s1.1-0.5,1.9-0.5c0.7,0,1.5,0.2,2.2,0.5l-0.4,0.9c-0.7-0.3-1.3-0.4-1.9-0.4c-0.5,0-0.9,0.1-1.1,0.2s-0.4,0.4-0.4,0.6
			c0,0.2,0,0.3,0.1,0.5c0.1,0.1,0.2,0.3,0.5,0.4s0.6,0.3,1.2,0.5c0.8,0.3,1.4,0.6,1.7,0.9C66.2,359.4,66.4,359.8,66.4,360.2z"/>
	</g>
</g>
<g>
	<g>
		<path class="st2" d="M110.8,96.6c0-1.7,1.3-3,3-3h60.5c1.7,0,3,1.3,3,3v229.2c0,1.7-1.3,3-3,3h-60.5c-1.7,0-3-1.3-3-3V96.6z"/>
	</g>
	<g>
		<path class="st1" d="M132.5,109.2c0,1.1-0.3,2-1,2.7s-1.6,1.3-2.7,1.5v0.1c1.4,0.2,2.4,0.6,3.1,1.3s1.1,1.6,1.1,2.7
			c0,1.6-0.6,2.9-1.8,3.8s-2.9,1.4-5.1,1.4c-1.9,0-3.5-0.3-4.9-0.9v-3.1c0.7,0.3,1.4,0.6,2.2,0.8s1.6,0.3,2.4,0.3
			c1.2,0,2.1-0.2,2.6-0.6s0.9-1.1,0.9-2c0-0.8-0.3-1.4-1-1.7s-1.7-0.5-3.1-0.5h-1.3v-2.8h1.3c1.3,0,2.3-0.2,2.9-0.5s0.9-0.9,0.9-1.8
			c0-1.3-0.8-1.9-2.4-1.9c-0.6,0-1.1,0.1-1.7,0.3s-1.2,0.5-1.9,1l-1.7-2.5c1.6-1.1,3.4-1.7,5.6-1.7c1.8,0,3.2,0.4,4.2,1.1
			S132.5,107.9,132.5,109.2z"/>
		<path class="st1" d="M140.8,111.5c1.7,0,3,0.5,4,1.4s1.5,2.2,1.5,3.8c0,1.9-0.6,3.4-1.8,4.4s-2.9,1.5-5.1,1.5
			c-1.9,0-3.4-0.3-4.6-0.9v-3.1c0.6,0.3,1.3,0.6,2.2,0.8s1.6,0.3,2.3,0.3c2.2,0,3.3-0.9,3.3-2.7c0-1.7-1.1-2.6-3.4-2.6
			c-0.4,0-0.9,0-1.4,0.1s-0.9,0.2-1.2,0.3l-1.4-0.8l0.6-8.7h9.3v3.1h-6.1l-0.3,3.4l0.4-0.1C139.5,111.6,140.1,111.5,140.8,111.5z"/>
		<path class="st1" d="M155.8,110.5c0,1.8-0.3,3.1-1,4s-1.7,1.4-3.1,1.4c-1.3,0-2.3-0.5-3-1.4s-1.1-2.3-1.1-4c0-3.6,1.3-5.4,4-5.4
			c1.3,0,2.3,0.5,3,1.4S155.8,108.7,155.8,110.5z M150.6,110.5c0,1,0.1,1.7,0.3,2.2s0.5,0.7,0.8,0.7c0.8,0,1.1-1,1.1-3
			c0-2-0.4-2.9-1.1-2.9c-0.4,0-0.7,0.2-0.8,0.7S150.6,109.5,150.6,110.5z M163.9,105.4l-9.5,17.1h-2.8l9.5-17.1H163.9z M167.8,117.3
			c0,1.8-0.3,3.1-1,4s-1.7,1.4-3.1,1.4c-1.3,0-2.3-0.5-3-1.4s-1.1-2.3-1.1-4c0-3.6,1.3-5.4,4-5.4c1.3,0,2.3,0.5,3,1.4
			S167.8,115.6,167.8,117.3z M162.6,117.3c0,1,0.1,1.7,0.3,2.2s0.5,0.7,0.8,0.7c0.8,0,1.1-1,1.1-3c0-2-0.4-2.9-1.1-2.9
			c-0.4,0-0.7,0.2-0.8,0.7S162.6,116.3,162.6,117.3z"/>
	</g>
	<g>
		<path class="st1" d="M108.4,346.5v-9.3h1.1v8.3h4.1v1H108.4z"/>
		<path class="st1" d="M120.7,343c0,1.1-0.3,2-0.9,2.7s-1.4,1-2.4,1c-0.6,0-1.2-0.1-1.7-0.4c-0.5-0.3-0.9-0.7-1.1-1.3
			c-0.3-0.5-0.4-1.2-0.4-1.9c0-1.1,0.3-2,0.9-2.7s1.4-0.9,2.4-0.9c1,0,1.7,0.3,2.3,1C120.4,341.1,120.7,341.9,120.7,343z M115.4,343
			c0,0.9,0.2,1.6,0.5,2c0.4,0.5,0.9,0.7,1.6,0.7s1.2-0.2,1.6-0.7c0.4-0.5,0.5-1.1,0.5-2c0-0.9-0.2-1.6-0.5-2
			c-0.4-0.5-0.9-0.7-1.6-0.7c-0.7,0-1.2,0.2-1.6,0.7S115.4,342.1,115.4,343z"/>
		<path class="st1" d="M125.1,346.7c-1,0-1.8-0.3-2.3-0.9c-0.6-0.6-0.8-1.5-0.8-2.6c0-1.2,0.3-2.1,0.8-2.7c0.6-0.6,1.4-1,2.4-1
			c0.3,0,0.7,0,1,0.1c0.3,0.1,0.6,0.2,0.8,0.3l-0.3,0.9c-0.2-0.1-0.5-0.2-0.8-0.2s-0.5-0.1-0.7-0.1c-1.4,0-2.1,0.9-2.1,2.7
			c0,0.9,0.2,1.5,0.5,2c0.3,0.5,0.9,0.7,1.5,0.7c0.6,0,1.2-0.1,1.8-0.4v0.9C126.4,346.5,125.8,346.7,125.1,346.7z"/>
		<path class="st1" d="M133.1,346.5l-0.2-1h-0.1c-0.3,0.4-0.7,0.7-1,0.9c-0.3,0.2-0.8,0.2-1.3,0.2c-0.7,0-1.2-0.2-1.6-0.5
			c-0.4-0.4-0.6-0.9-0.6-1.5c0-1.4,1.1-2.1,3.4-2.2l1.2,0v-0.4c0-0.5-0.1-0.9-0.4-1.2c-0.2-0.3-0.6-0.4-1.1-0.4
			c-0.6,0-1.2,0.2-2,0.5l-0.3-0.8c0.3-0.2,0.7-0.3,1.1-0.4c0.4-0.1,0.8-0.2,1.2-0.2c0.8,0,1.4,0.2,1.8,0.6c0.4,0.4,0.6,1,0.6,1.8
			v4.7H133.1z M130.7,345.8c0.7,0,1.2-0.2,1.5-0.5c0.4-0.4,0.6-0.9,0.6-1.5v-0.6l-1.1,0c-0.8,0-1.4,0.2-1.8,0.4
			c-0.4,0.2-0.6,0.6-0.6,1.1c0,0.4,0.1,0.7,0.3,0.9C130,345.7,130.3,345.8,130.7,345.8z"/>
		<path class="st1" d="M137.4,346.5h-1.1v-9.9h1.1V346.5z"/>
		<path class="st1" d="M150.3,346.5h-1.2l-5.1-7.8h-0.1c0.1,0.9,0.1,1.8,0.1,2.5v5.3h-1v-9.3h1.2l5.1,7.8h0.1c0-0.1,0-0.5-0.1-1.1
			s0-1.1,0-1.3v-5.3h1V346.5z"/>
		<path class="st1" d="M156.9,341.7h3.2v4.5c-0.5,0.2-1,0.3-1.5,0.4c-0.5,0.1-1.1,0.1-1.8,0.1c-1.4,0-2.5-0.4-3.3-1.3
			s-1.2-2-1.2-3.5c0-1,0.2-1.8,0.6-2.5c0.4-0.7,0.9-1.3,1.7-1.7s1.6-0.6,2.6-0.6c1,0,1.9,0.2,2.8,0.5l-0.4,1
			c-0.8-0.4-1.6-0.5-2.4-0.5c-1.1,0-2,0.3-2.6,1s-1,1.6-1,2.8c0,1.3,0.3,2.2,0.9,2.9c0.6,0.6,1.5,1,2.7,1c0.6,0,1.3-0.1,1.9-0.2
			v-2.9h-2.1V341.7z"/>
		<path class="st1" d="M170.6,341.9c0,1.5-0.4,2.7-1.1,3.5c-0.8,0.8-1.8,1.3-3.1,1.3c-1.4,0-2.4-0.4-3.2-1.3c-0.7-0.8-1.1-2-1.1-3.5
			c0-1.5,0.4-2.7,1.1-3.5c0.7-0.8,1.8-1.2,3.2-1.2c1.3,0,2.4,0.4,3.1,1.3C170.2,339.2,170.6,340.4,170.6,341.9z M163.2,341.9
			c0,1.3,0.3,2.2,0.8,2.9c0.5,0.6,1.3,1,2.3,1c1,0,1.8-0.3,2.3-1s0.8-1.6,0.8-2.9c0-1.2-0.3-2.2-0.8-2.8c-0.5-0.6-1.3-1-2.3-1
			c-1,0-1.8,0.3-2.3,1C163.5,339.7,163.2,340.6,163.2,341.9z"/>
		<path class="st1" d="M176.6,344.6c0,0.6-0.2,1.1-0.7,1.5c-0.5,0.4-1.2,0.5-2,0.5c-0.9,0-1.6-0.1-2.2-0.4v-1
			c0.3,0.2,0.7,0.3,1.1,0.4c0.4,0.1,0.8,0.1,1.1,0.1c0.6,0,1-0.1,1.3-0.3s0.4-0.4,0.4-0.8c0-0.3-0.1-0.5-0.4-0.7
			c-0.2-0.2-0.7-0.4-1.4-0.7c-0.6-0.2-1.1-0.5-1.4-0.6c-0.3-0.2-0.5-0.4-0.6-0.6c-0.1-0.2-0.2-0.5-0.2-0.8c0-0.6,0.2-1,0.7-1.3
			s1.1-0.5,1.9-0.5c0.7,0,1.5,0.2,2.2,0.5l-0.4,0.9c-0.7-0.3-1.3-0.4-1.9-0.4c-0.5,0-0.9,0.1-1.1,0.2s-0.4,0.4-0.4,0.6
			c0,0.2,0,0.3,0.1,0.5c0.1,0.1,0.2,0.3,0.5,0.4s0.6,0.3,1.2,0.5c0.8,0.3,1.4,0.6,1.7,0.9C176.5,343.8,176.6,344.2,176.6,344.6z"/>
	</g>
</g>
<g>
	<g>
		<path class="st3" d="M204.7,257.8c0-1.6,1.3-3,3-3H269c1.7,0,3,1.4,3,3v68c0,1.7-1.3,3-3,3h-61.3c-1.7,0-3-1.3-3-3V257.8z"/>
	</g>
	<g>
		<path class="st1" d="M225.9,281.7h-3.6v-9.9l0-1.6l0.1-1.8c-0.6,0.6-1,1-1.3,1.2l-2,1.6l-1.7-2.2l5.5-4.4h3V281.7z"/>
		<path class="st1" d="M239.2,281.7h-3.6v-9.9l0-1.6l0.1-1.8c-0.6,0.6-1,1-1.3,1.2l-2,1.6l-1.7-2.2l5.5-4.4h3V281.7z"/>
		<path class="st1" d="M251.5,269.7c0,1.8-0.3,3.1-1,4s-1.7,1.4-3.1,1.4c-1.3,0-2.3-0.5-3-1.4s-1.1-2.3-1.1-4c0-3.6,1.3-5.4,4-5.4
			c1.3,0,2.3,0.5,3,1.4S251.5,268,251.5,269.7z M246.3,269.7c0,1,0.1,1.7,0.3,2.2s0.5,0.7,0.8,0.7c0.8,0,1.1-1,1.1-3
			c0-2-0.4-2.9-1.1-2.9c-0.4,0-0.7,0.2-0.8,0.7S246.3,268.8,246.3,269.7z M259.6,264.6l-9.5,17.1h-2.8l9.5-17.1H259.6z M263.5,276.6
			c0,1.8-0.3,3.1-1,4s-1.7,1.4-3.1,1.4c-1.3,0-2.3-0.5-3-1.4s-1.1-2.3-1.1-4c0-3.6,1.3-5.4,4-5.4c1.3,0,2.3,0.5,3,1.4
			S263.5,274.8,263.5,276.6z M258.3,276.6c0,1,0.1,1.7,0.3,2.2s0.5,0.7,0.8,0.7c0.8,0,1.1-1,1.1-3c0-2-0.4-2.9-1.1-2.9
			c-0.4,0-0.7,0.2-0.8,0.7S258.3,275.6,258.3,276.6z"/>
	</g>
	<g>
		<path class="st1" d="M205.6,341.7h3.2v4.5c-0.5,0.2-1,0.3-1.5,0.4c-0.5,0.1-1.1,0.1-1.8,0.1c-1.4,0-2.5-0.4-3.3-1.3
			s-1.2-2-1.2-3.5c0-1,0.2-1.8,0.6-2.5c0.4-0.7,0.9-1.3,1.7-1.7s1.6-0.6,2.6-0.6c1,0,1.9,0.2,2.8,0.5l-0.4,1
			c-0.8-0.4-1.6-0.5-2.4-0.5c-1.1,0-2,0.3-2.6,1s-1,1.6-1,2.8c0,1.3,0.3,2.2,0.9,2.9c0.6,0.6,1.5,1,2.7,1c0.6,0,1.3-0.1,1.9-0.2
			v-2.9h-2.1V341.7z"/>
		<path class="st1" d="M217.1,343c0,1.1-0.3,2-0.9,2.7s-1.4,1-2.4,1c-0.6,0-1.2-0.1-1.7-0.4c-0.5-0.3-0.9-0.7-1.1-1.3
			c-0.3-0.5-0.4-1.2-0.4-1.9c0-1.1,0.3-2,0.9-2.7s1.4-0.9,2.4-0.9c1,0,1.7,0.3,2.3,1C216.9,341.1,217.1,341.9,217.1,343z M211.8,343
			c0,0.9,0.2,1.6,0.5,2c0.4,0.5,0.9,0.7,1.6,0.7s1.2-0.2,1.6-0.7c0.4-0.5,0.5-1.1,0.5-2c0-0.9-0.2-1.6-0.5-2
			c-0.4-0.5-0.9-0.7-1.6-0.7c-0.7,0-1.2,0.2-1.6,0.7S211.8,342.1,211.8,343z"/>
		<path class="st1" d="M220.3,346.5l-2.6-7h1.1l1.5,4.1c0.3,1,0.5,1.6,0.6,1.9h0.1c0-0.2,0.2-0.7,0.4-1.4c0.2-0.7,0.8-2.2,1.7-4.6
			h1.1l-2.6,7H220.3z"/>
		<path class="st1" d="M228.2,346.7c-1,0-1.8-0.3-2.4-0.9c-0.6-0.6-0.9-1.5-0.9-2.6c0-1.1,0.3-2,0.8-2.7c0.6-0.7,1.3-1,2.2-1
			c0.9,0,1.6,0.3,2.1,0.9s0.8,1.3,0.8,2.3v0.7H226c0,0.8,0.2,1.4,0.6,1.9c0.4,0.4,0.9,0.6,1.7,0.6c0.7,0,1.5-0.2,2.2-0.5v0.9
			c-0.4,0.2-0.7,0.3-1.1,0.3C229.1,346.6,228.7,346.7,228.2,346.7z M227.9,340.3c-0.6,0-1,0.2-1.3,0.5c-0.3,0.4-0.5,0.9-0.6,1.5h3.6
			c0-0.7-0.1-1.2-0.4-1.5S228.5,340.3,227.9,340.3z"/>
		<path class="st1" d="M236,339.4c0.3,0,0.6,0,0.8,0.1l-0.1,1c-0.3-0.1-0.5-0.1-0.8-0.1c-0.6,0-1,0.2-1.4,0.7
			c-0.4,0.5-0.6,1-0.6,1.7v3.7h-1.1v-7h0.9l0.1,1.3h0.1c0.3-0.5,0.6-0.8,0.9-1S235.6,339.4,236,339.4z"/>
		<path class="st1" d="M243,346.5V342c0-0.6-0.1-1-0.4-1.3s-0.7-0.4-1.2-0.4c-0.7,0-1.3,0.2-1.6,0.6s-0.5,1-0.5,1.9v3.7h-1.1v-7h0.9
			l0.2,1h0.1c0.2-0.3,0.5-0.6,0.9-0.8s0.8-0.3,1.3-0.3c0.8,0,1.5,0.2,1.9,0.6s0.6,1,0.6,1.9v4.5H243z"/>
		<path class="st1" d="M254.7,346.5V342c0-0.6-0.1-1-0.4-1.2s-0.6-0.4-1.1-0.4c-0.7,0-1.1,0.2-1.5,0.6s-0.5,1-0.5,1.7v3.9h-1.1V342
			c0-0.6-0.1-1-0.4-1.2s-0.6-0.4-1.1-0.4c-0.7,0-1.1,0.2-1.5,0.6c-0.3,0.4-0.5,1-0.5,1.9v3.7h-1.1v-7h0.9l0.2,1h0.1
			c0.2-0.3,0.5-0.6,0.8-0.8c0.4-0.2,0.8-0.3,1.2-0.3c1.1,0,1.8,0.4,2.1,1.2h0.1c0.2-0.4,0.5-0.7,0.9-0.9s0.8-0.3,1.3-0.3
			c0.8,0,1.4,0.2,1.8,0.6c0.4,0.4,0.6,1,0.6,1.9v4.5H254.7z"/>
		<path class="st1" d="M260.7,346.7c-1,0-1.8-0.3-2.4-0.9c-0.6-0.6-0.9-1.5-0.9-2.6c0-1.1,0.3-2,0.8-2.7c0.6-0.7,1.3-1,2.2-1
			c0.9,0,1.6,0.3,2.1,0.9s0.8,1.3,0.8,2.3v0.7h-4.8c0,0.8,0.2,1.4,0.6,1.9c0.4,0.4,0.9,0.6,1.7,0.6c0.7,0,1.5-0.2,2.2-0.5v0.9
			c-0.4,0.2-0.7,0.3-1.1,0.3C261.5,346.6,261.1,346.7,260.7,346.7z M260.4,340.3c-0.6,0-1,0.2-1.3,0.5c-0.3,0.4-0.5,0.9-0.6,1.5h3.6
			c0-0.7-0.1-1.2-0.4-1.5S260.9,340.3,260.4,340.3z"/>
		<path class="st1" d="M270.1,346.5V342c0-0.6-0.1-1-0.4-1.3s-0.7-0.4-1.2-0.4c-0.7,0-1.3,0.2-1.6,0.6s-0.5,1-0.5,1.9v3.7h-1.1v-7
			h0.9l0.2,1h0.1c0.2-0.3,0.5-0.6,0.9-0.8s0.8-0.3,1.3-0.3c0.8,0,1.5,0.2,1.9,0.6s0.6,1,0.6,1.9v4.5H270.1z"/>
		<path class="st1" d="M275.1,345.8c0.2,0,0.4,0,0.5,0s0.3-0.1,0.4-0.1v0.8c-0.1,0.1-0.3,0.1-0.5,0.1c-0.2,0-0.4,0.1-0.6,0.1
			c-1.3,0-2-0.7-2-2.1v-4.1h-1v-0.5l1-0.4l0.4-1.5h0.6v1.6h2v0.8h-2v4.1c0,0.4,0.1,0.7,0.3,1S274.8,345.8,275.1,345.8z"/>
	</g>
</g>
<g>
	<g>
		<path class="st4" d="M308.8,277.8c0-1.6,1.4-3,3-3h61.3c1.6,0,3,1.4,3,3v48c0,1.6-1.4,3-3,3h-61.3c-1.6,0-3-1.4-3-3V277.8z"/>
	</g>
	<g>
		<path class="st1" d="M331.8,284.4c1.6,0,3,0.4,4,1.1s1.5,1.8,1.5,3c0,0.9-0.2,1.7-0.7,2.3s-1.3,1.3-2.3,1.8
			c1.3,0.7,2.2,1.4,2.8,2.2s0.8,1.6,0.8,2.5c0,1.4-0.6,2.5-1.7,3.4s-2.6,1.3-4.3,1.3c-1.9,0-3.3-0.4-4.4-1.2s-1.6-1.9-1.6-3.4
			c0-1,0.3-1.8,0.8-2.6s1.4-1.4,2.5-2c-1-0.6-1.7-1.3-2.1-2s-0.6-1.5-0.6-2.3c0-1.2,0.5-2.2,1.5-3S330.2,284.4,331.8,284.4z
			 M329.1,297.2c0,0.7,0.2,1.2,0.7,1.6s1.1,0.6,1.9,0.6c0.9,0,1.6-0.2,2-0.6s0.7-0.9,0.7-1.5c0-0.5-0.2-1-0.7-1.5s-1.2-0.9-2.2-1.5
			C330,295.1,329.1,296.1,329.1,297.2z M331.8,287.1c-0.6,0-1.1,0.2-1.5,0.5s-0.6,0.7-0.6,1.3c0,0.5,0.2,0.9,0.5,1.3
			s0.8,0.8,1.6,1.1c0.8-0.4,1.3-0.7,1.6-1.1s0.5-0.8,0.5-1.3c0-0.5-0.2-1-0.6-1.3S332.4,287.1,331.8,287.1z"/>
		<path class="st1" d="M347.2,289.8c0,1.8-0.3,3.1-1,4s-1.7,1.4-3.1,1.4c-1.3,0-2.3-0.5-3-1.4s-1.1-2.3-1.1-4c0-3.6,1.3-5.4,4-5.4
			c1.3,0,2.3,0.5,3,1.4S347.2,288.1,347.2,289.8z M342,289.8c0,1,0.1,1.7,0.3,2.2s0.5,0.7,0.8,0.7c0.8,0,1.1-1,1.1-3
			c0-2-0.4-2.9-1.1-2.9c-0.4,0-0.7,0.2-0.8,0.7S342,288.8,342,289.8z M355.2,284.7l-9.5,17.1h-2.8l9.5-17.1H355.2z M359.2,296.6
			c0,1.8-0.3,3.1-1,4s-1.7,1.4-3.1,1.4c-1.3,0-2.3-0.5-3-1.4s-1.1-2.3-1.1-4c0-3.6,1.3-5.4,4-5.4c1.3,0,2.3,0.5,3,1.4
			S359.2,294.9,359.2,296.6z M354,296.6c0,1,0.1,1.7,0.3,2.2s0.5,0.7,0.8,0.7c0.8,0,1.1-1,1.1-3c0-2-0.4-2.9-1.1-2.9
			c-0.4,0-0.7,0.2-0.8,0.7S354,295.6,354,296.6z"/>
	</g>
	<g>
		<path class="st1" d="M301.3,346.5h-1.1v-9.3h5.2v1h-4.1v3.4h3.8v1h-3.8V346.5z"/>
		<path class="st1" d="M312.5,343c0,1.1-0.3,2-0.9,2.7s-1.4,1-2.4,1c-0.6,0-1.2-0.1-1.7-0.4c-0.5-0.3-0.9-0.7-1.1-1.3
			c-0.3-0.5-0.4-1.2-0.4-1.9c0-1.1,0.3-2,0.9-2.7s1.4-0.9,2.4-0.9c1,0,1.7,0.3,2.3,1C312.2,341.1,312.5,341.9,312.5,343z M307.2,343
			c0,0.9,0.2,1.6,0.5,2c0.4,0.5,0.9,0.7,1.6,0.7c0.7,0,1.2-0.2,1.6-0.7c0.4-0.5,0.5-1.1,0.5-2c0-0.9-0.2-1.6-0.5-2
			c-0.4-0.5-0.9-0.7-1.6-0.7c-0.7,0-1.2,0.2-1.6,0.7S307.2,342.1,307.2,343z"/>
		<path class="st1" d="M315.1,339.6v4.5c0,0.6,0.1,1,0.4,1.3c0.3,0.3,0.7,0.4,1.2,0.4c0.7,0,1.3-0.2,1.6-0.6c0.3-0.4,0.5-1,0.5-1.9
			v-3.7h1.1v7H319l-0.2-0.9h-0.1c-0.2,0.3-0.5,0.6-0.9,0.8c-0.4,0.2-0.8,0.3-1.3,0.3c-0.8,0-1.5-0.2-1.9-0.6c-0.4-0.4-0.6-1-0.6-1.9
			v-4.6H315.1z"/>
		<path class="st1" d="M326.5,346.5V342c0-0.6-0.1-1-0.4-1.3c-0.3-0.3-0.7-0.4-1.2-0.4c-0.7,0-1.3,0.2-1.6,0.6
			c-0.3,0.4-0.5,1-0.5,1.9v3.7h-1.1v-7h0.9l0.2,1h0.1c0.2-0.3,0.5-0.6,0.9-0.8c0.4-0.2,0.8-0.3,1.3-0.3c0.8,0,1.5,0.2,1.9,0.6
			c0.4,0.4,0.6,1,0.6,1.9v4.5H326.5z"/>
		<path class="st1" d="M334,345.6L334,345.6c-0.5,0.7-1.3,1.1-2.2,1.1c-0.9,0-1.6-0.3-2.1-0.9c-0.5-0.6-0.8-1.5-0.8-2.7
			c0-1.1,0.3-2,0.8-2.7s1.2-1,2.1-1c0.9,0,1.7,0.3,2.2,1h0.1l0-0.5l0-0.5v-2.8h1.1v9.9h-0.9L334,345.6z M331.9,345.8
			c0.7,0,1.2-0.2,1.6-0.6c0.3-0.4,0.5-1,0.5-1.9v-0.2c0-1-0.2-1.7-0.5-2.1s-0.9-0.6-1.6-0.6c-0.6,0-1.1,0.2-1.4,0.7
			c-0.3,0.5-0.5,1.2-0.5,2c0,0.9,0.2,1.6,0.5,2C330.8,345.5,331.3,345.8,331.9,345.8z"/>
		<path class="st1" d="M341.2,346.5l-0.2-1h-0.1c-0.3,0.4-0.7,0.7-1,0.9c-0.3,0.2-0.8,0.2-1.3,0.2c-0.7,0-1.2-0.2-1.6-0.5
			s-0.6-0.9-0.6-1.5c0-1.4,1.1-2.1,3.4-2.2l1.2,0v-0.4c0-0.5-0.1-0.9-0.4-1.2c-0.2-0.3-0.6-0.4-1.1-0.4c-0.6,0-1.2,0.2-2,0.5
			l-0.3-0.8c0.3-0.2,0.7-0.3,1.1-0.4c0.4-0.1,0.8-0.2,1.2-0.2c0.8,0,1.4,0.2,1.8,0.6c0.4,0.4,0.6,1,0.6,1.8v4.7H341.2z M338.8,345.8
			c0.7,0,1.2-0.2,1.5-0.5c0.4-0.4,0.6-0.9,0.6-1.5v-0.6l-1.1,0c-0.8,0-1.4,0.2-1.8,0.4c-0.4,0.2-0.6,0.6-0.6,1.1
			c0,0.4,0.1,0.7,0.3,0.9S338.4,345.8,338.8,345.8z"/>
		<path class="st1" d="M346.7,345.8c0.2,0,0.4,0,0.5,0c0.2,0,0.3-0.1,0.4-0.1v0.8c-0.1,0.1-0.3,0.1-0.5,0.1c-0.2,0-0.4,0.1-0.6,0.1
			c-1.3,0-2-0.7-2-2.1v-4.1h-1v-0.5l1-0.4l0.4-1.5h0.6v1.6h2v0.8h-2v4.1c0,0.4,0.1,0.7,0.3,1C346.1,345.7,346.4,345.8,346.7,345.8z"
			/>
		<path class="st1" d="M348.7,337.7c0-0.2,0.1-0.4,0.2-0.5c0.1-0.1,0.3-0.2,0.4-0.2c0.2,0,0.3,0.1,0.4,0.2c0.1,0.1,0.2,0.3,0.2,0.5
			c0,0.2-0.1,0.4-0.2,0.5c-0.1,0.1-0.3,0.2-0.4,0.2c-0.2,0-0.3-0.1-0.4-0.2C348.8,338.1,348.7,337.9,348.7,337.7z M349.8,346.5h-1.1
			v-7h1.1V346.5z"/>
		<path class="st1" d="M358.1,343c0,1.1-0.3,2-0.9,2.7s-1.4,1-2.4,1c-0.6,0-1.2-0.1-1.7-0.4c-0.5-0.3-0.9-0.7-1.1-1.3
			c-0.3-0.5-0.4-1.2-0.4-1.9c0-1.1,0.3-2,0.9-2.7c0.6-0.6,1.4-0.9,2.4-0.9c1,0,1.7,0.3,2.3,1C357.8,341.1,358.1,341.9,358.1,343z
			 M352.8,343c0,0.9,0.2,1.6,0.5,2c0.4,0.5,0.9,0.7,1.6,0.7c0.7,0,1.2-0.2,1.6-0.7c0.4-0.5,0.5-1.1,0.5-2c0-0.9-0.2-1.6-0.5-2
			c-0.4-0.5-0.9-0.7-1.6-0.7c-0.7,0-1.2,0.2-1.6,0.7C352.9,341.5,352.8,342.1,352.8,343z"/>
		<path class="st1" d="M364.4,346.5V342c0-0.6-0.1-1-0.4-1.3c-0.3-0.3-0.7-0.4-1.2-0.4c-0.7,0-1.3,0.2-1.6,0.6s-0.5,1-0.5,1.9v3.7
			h-1.1v-7h0.9l0.2,1h0.1c0.2-0.3,0.5-0.6,0.9-0.8c0.4-0.2,0.8-0.3,1.3-0.3c0.8,0,1.5,0.2,1.9,0.6s0.6,1,0.6,1.9v4.5H364.4z"/>
		<path class="st1" d="M371.7,344.6c0,0.6-0.2,1.1-0.7,1.5c-0.5,0.4-1.2,0.5-2,0.5c-0.9,0-1.6-0.1-2.2-0.4v-1
			c0.3,0.2,0.7,0.3,1.1,0.4s0.8,0.1,1.1,0.1c0.6,0,1-0.1,1.3-0.3c0.3-0.2,0.4-0.4,0.4-0.8c0-0.3-0.1-0.5-0.4-0.7
			c-0.2-0.2-0.7-0.4-1.4-0.7c-0.6-0.2-1.1-0.5-1.4-0.6c-0.3-0.2-0.5-0.4-0.6-0.6c-0.1-0.2-0.2-0.5-0.2-0.8c0-0.6,0.2-1,0.7-1.3
			c0.5-0.3,1.1-0.5,1.9-0.5c0.7,0,1.5,0.2,2.2,0.5l-0.4,0.9c-0.7-0.3-1.3-0.4-1.9-0.4c-0.5,0-0.9,0.1-1.1,0.2s-0.4,0.4-0.4,0.6
			c0,0.2,0,0.3,0.1,0.5c0.1,0.1,0.2,0.3,0.5,0.4c0.2,0.1,0.6,0.3,1.2,0.5c0.8,0.3,1.4,0.6,1.7,0.9S371.7,344.2,371.7,344.6z"/>
		<path class="st1" d="M377,344.1c0-0.5,0.1-1,0.4-1.5c0.3-0.4,0.8-0.9,1.6-1.3c-0.4-0.4-0.6-0.7-0.7-0.9c-0.1-0.2-0.2-0.4-0.3-0.6
			c-0.1-0.2-0.1-0.5-0.1-0.7c0-0.6,0.2-1.1,0.6-1.5s1-0.5,1.7-0.5c0.7,0,1.2,0.2,1.6,0.5s0.6,0.8,0.6,1.5c0,0.5-0.1,0.9-0.4,1.3
			c-0.3,0.4-0.8,0.8-1.4,1.2l2.6,2.5c0.2-0.3,0.4-0.6,0.6-0.9s0.3-0.7,0.4-1.2h1.1c-0.3,1.2-0.7,2.1-1.3,2.8l1.9,1.8h-1.5l-1.2-1.1
			c-0.5,0.4-1,0.8-1.5,1c-0.5,0.2-1.1,0.3-1.7,0.3c-0.9,0-1.6-0.2-2.1-0.7C377.2,345.5,377,344.9,377,344.1z M379.9,345.7
			c1,0,1.9-0.3,2.5-1l-2.8-2.7c-0.5,0.3-0.8,0.5-1,0.7c-0.2,0.2-0.3,0.4-0.4,0.6c-0.1,0.2-0.1,0.5-0.1,0.7c0,0.5,0.2,0.9,0.5,1.2
			S379.3,345.7,379.9,345.7z M378.9,339.1c0,0.3,0.1,0.6,0.2,0.8s0.4,0.6,0.8,1c0.5-0.3,0.9-0.6,1.1-0.9s0.3-0.6,0.3-0.9
			c0-0.3-0.1-0.6-0.3-0.8s-0.5-0.3-0.9-0.3c-0.4,0-0.7,0.1-0.9,0.3C379,338.5,378.9,338.8,378.9,339.1z"/>
		<path class="st1" d="M306.8,358.6c0,1.1-0.3,2-0.9,2.7s-1.4,1-2.4,1c-0.6,0-1.2-0.1-1.7-0.4c-0.5-0.3-0.9-0.7-1.1-1.3
			c-0.3-0.5-0.4-1.2-0.4-1.9c0-1.1,0.3-2,0.9-2.7s1.4-0.9,2.4-0.9c1,0,1.7,0.3,2.3,1C306.5,356.7,306.8,357.5,306.8,358.6z
			 M301.5,358.6c0,0.9,0.2,1.6,0.5,2c0.4,0.5,0.9,0.7,1.6,0.7s1.2-0.2,1.6-0.7c0.4-0.5,0.5-1.1,0.5-2c0-0.9-0.2-1.6-0.5-2
			c-0.4-0.5-0.9-0.7-1.6-0.7c-0.7,0-1.2,0.2-1.6,0.7S301.5,357.7,301.5,358.6z"/>
		<path class="st1" d="M311.2,361.4c0.2,0,0.4,0,0.5,0c0.2,0,0.3-0.1,0.4-0.1v0.8c-0.1,0.1-0.3,0.1-0.5,0.1c-0.2,0-0.4,0.1-0.6,0.1
			c-1.3,0-2-0.7-2-2.1V356h-1v-0.5l1-0.4l0.4-1.5h0.6v1.6h2v0.8h-2v4.1c0,0.4,0.1,0.7,0.3,1C310.6,361.3,310.9,361.4,311.2,361.4z"
			/>
		<path class="st1" d="M318.7,362.1v-4.5c0-0.6-0.1-1-0.4-1.3c-0.3-0.3-0.7-0.4-1.2-0.4c-0.7,0-1.3,0.2-1.6,0.6
			c-0.3,0.4-0.5,1-0.5,2v3.6h-1.1v-9.9h1.1v3c0,0.4,0,0.7-0.1,0.9h0.1c0.2-0.3,0.5-0.6,0.9-0.8s0.8-0.3,1.3-0.3
			c0.9,0,1.5,0.2,1.9,0.6c0.4,0.4,0.6,1,0.6,1.9v4.5H318.7z"/>
		<path class="st1" d="M325.2,362.3c-1,0-1.8-0.3-2.4-0.9s-0.9-1.5-0.9-2.6c0-1.1,0.3-2,0.8-2.7c0.6-0.7,1.3-1,2.2-1
			c0.9,0,1.6,0.3,2.1,0.9s0.8,1.3,0.8,2.3v0.7h-4.8c0,0.8,0.2,1.4,0.6,1.9c0.4,0.4,0.9,0.6,1.7,0.6c0.7,0,1.5-0.2,2.2-0.5v0.9
			c-0.4,0.2-0.7,0.3-1.1,0.3C326,362.2,325.6,362.3,325.2,362.3z M324.9,355.9c-0.6,0-1,0.2-1.3,0.5c-0.3,0.4-0.5,0.9-0.6,1.5h3.6
			c0-0.7-0.1-1.2-0.4-1.5C325.8,356.1,325.4,355.9,324.9,355.9z"/>
		<path class="st1" d="M333,355c0.3,0,0.6,0,0.8,0.1l-0.1,1c-0.3-0.1-0.5-0.1-0.8-0.1c-0.6,0-1,0.2-1.4,0.7c-0.4,0.5-0.6,1-0.6,1.7
			v3.7h-1.1v-7h0.9l0.1,1.3h0.1c0.3-0.5,0.6-0.8,0.9-1C332.2,355.2,332.6,355,333,355z"/>
		<path class="st1" d="M342.2,362.3c-1,0-1.8-0.3-2.4-0.9c-0.6-0.6-0.9-1.5-0.9-2.6c0-1.1,0.3-2,0.8-2.7c0.6-0.7,1.3-1,2.2-1
			c0.9,0,1.6,0.3,2.1,0.9s0.8,1.3,0.8,2.3v0.7h-4.8c0,0.8,0.2,1.4,0.6,1.9c0.4,0.4,0.9,0.6,1.7,0.6c0.7,0,1.5-0.2,2.2-0.5v0.9
			c-0.4,0.2-0.7,0.3-1.1,0.3C343,362.2,342.6,362.3,342.2,362.3z M341.9,355.9c-0.6,0-1,0.2-1.3,0.5c-0.3,0.4-0.5,0.9-0.6,1.5h3.6
			c0-0.7-0.1-1.2-0.4-1.5C342.8,356.1,342.4,355.9,341.9,355.9z"/>
		<path class="st1" d="M351.6,362.1v-4.5c0-0.6-0.1-1-0.4-1.3c-0.3-0.3-0.7-0.4-1.2-0.4c-0.7,0-1.3,0.2-1.6,0.6
			c-0.3,0.4-0.5,1-0.5,1.9v3.7h-1.1v-7h0.9l0.2,1h0.1c0.2-0.3,0.5-0.6,0.9-0.8c0.4-0.2,0.8-0.3,1.3-0.3c0.8,0,1.5,0.2,1.9,0.6
			c0.4,0.4,0.6,1,0.6,1.9v4.5H351.6z"/>
		<path class="st1" d="M357.4,361.4c0.2,0,0.4,0,0.5,0c0.2,0,0.3-0.1,0.4-0.1v0.8c-0.1,0.1-0.3,0.1-0.5,0.1c-0.2,0-0.4,0.1-0.6,0.1
			c-1.3,0-2-0.7-2-2.1V356h-1v-0.5l1-0.4l0.4-1.5h0.6v1.6h2v0.8h-2v4.1c0,0.4,0.1,0.7,0.3,1C356.8,361.3,357.1,361.4,357.4,361.4z"
			/>
		<path class="st1" d="M360,353.3c0-0.2,0.1-0.4,0.2-0.5s0.3-0.2,0.4-0.2c0.2,0,0.3,0.1,0.4,0.2c0.1,0.1,0.2,0.3,0.2,0.5
			c0,0.2-0.1,0.4-0.2,0.5c-0.1,0.1-0.3,0.2-0.4,0.2c-0.2,0-0.3-0.1-0.4-0.2S360,353.5,360,353.3z M361.1,362.1h-1.1v-7h1.1V362.1z"
			/>
		<path class="st1" d="M366,361.4c0.2,0,0.4,0,0.5,0c0.2,0,0.3-0.1,0.4-0.1v0.8c-0.1,0.1-0.3,0.1-0.5,0.1c-0.2,0-0.4,0.1-0.6,0.1
			c-1.3,0-2-0.7-2-2.1V356h-1v-0.5l1-0.4l0.4-1.5h0.6v1.6h2v0.8h-2v4.1c0,0.4,0.1,0.7,0.3,1C365.3,361.3,365.6,361.4,366,361.4z"/>
		<path class="st1" d="M368.6,353.3c0-0.2,0.1-0.4,0.2-0.5s0.3-0.2,0.4-0.2c0.2,0,0.3,0.1,0.4,0.2c0.1,0.1,0.2,0.3,0.2,0.5
			c0,0.2-0.1,0.4-0.2,0.5c-0.1,0.1-0.3,0.2-0.4,0.2c-0.2,0-0.3-0.1-0.4-0.2S368.6,353.5,368.6,353.3z M369.7,362.1h-1.1v-7h1.1
			V362.1z"/>
		<path class="st1" d="M375.2,362.3c-1,0-1.8-0.3-2.4-0.9s-0.9-1.5-0.9-2.6c0-1.1,0.3-2,0.8-2.7c0.6-0.7,1.3-1,2.2-1
			c0.9,0,1.6,0.3,2.1,0.9s0.8,1.3,0.8,2.3v0.7H373c0,0.8,0.2,1.4,0.6,1.9c0.4,0.4,0.9,0.6,1.7,0.6c0.8,0,1.5-0.2,2.2-0.5v0.9
			c-0.4,0.2-0.7,0.3-1.1,0.3C376.1,362.2,375.7,362.3,375.2,362.3z M374.9,355.9c-0.6,0-1,0.2-1.3,0.5c-0.3,0.4-0.5,0.9-0.6,1.5h3.6
			c0-0.7-0.1-1.2-0.4-1.5S375.5,355.9,374.9,355.9z"/>
		<path class="st1" d="M384.4,360.2c0,0.6-0.2,1.1-0.7,1.5c-0.5,0.4-1.2,0.5-2,0.5c-0.9,0-1.6-0.1-2.2-0.4v-1
			c0.3,0.2,0.7,0.3,1.1,0.4s0.8,0.1,1.1,0.1c0.6,0,1-0.1,1.3-0.3c0.3-0.2,0.4-0.4,0.4-0.8c0-0.3-0.1-0.5-0.4-0.7
			c-0.2-0.2-0.7-0.4-1.4-0.7c-0.6-0.2-1.1-0.5-1.4-0.6c-0.3-0.2-0.5-0.4-0.6-0.6c-0.1-0.2-0.2-0.5-0.2-0.8c0-0.6,0.2-1,0.7-1.3
			c0.5-0.3,1.1-0.5,1.9-0.5c0.7,0,1.5,0.2,2.2,0.5l-0.4,0.9c-0.7-0.3-1.3-0.4-1.9-0.4c-0.5,0-0.9,0.1-1.1,0.2s-0.4,0.4-0.4,0.6
			c0,0.2,0,0.3,0.1,0.5c0.1,0.1,0.2,0.3,0.5,0.4c0.2,0.1,0.6,0.3,1.2,0.5c0.8,0.3,1.4,0.6,1.7,0.9S384.4,359.8,384.4,360.2z"/>
	</g>
</g>
<g>
	<g>
		<path class="st5" d="M413.3,296.9c0-1.7,1.4-3,3-3h61.3c1.6,0,3,1.3,3,3V325c0,1.6-1.4,3-3,3h-61.3c-1.6,0-3-1.4-3-3V296.9z"/>
	</g>
	<g>
		<path class="st1" d="M436.2,307.6c1.7,0,3,0.5,4,1.4s1.5,2.2,1.5,3.8c0,1.9-0.6,3.4-1.8,4.4s-2.9,1.5-5.1,1.5
			c-1.9,0-3.4-0.3-4.6-0.9v-3.1c0.6,0.3,1.3,0.6,2.2,0.8s1.6,0.3,2.3,0.3c2.2,0,3.3-0.9,3.3-2.7c0-1.7-1.1-2.6-3.4-2.6
			c-0.4,0-0.9,0-1.4,0.1s-0.9,0.2-1.2,0.3l-1.4-0.8l0.6-8.7h9.3v3.1h-6.1l-0.3,3.4l0.4-0.1C434.9,307.7,435.5,307.6,436.2,307.6z"/>
		<path class="st1" d="M451.2,306.5c0,1.8-0.3,3.1-1,4s-1.7,1.4-3.1,1.4c-1.3,0-2.3-0.5-3-1.4s-1.1-2.3-1.1-4c0-3.6,1.3-5.4,4-5.4
			c1.3,0,2.3,0.5,3,1.4S451.2,304.8,451.2,306.5z M446,306.6c0,1,0.1,1.7,0.3,2.2s0.5,0.7,0.8,0.7c0.8,0,1.1-1,1.1-3
			c0-2-0.4-2.9-1.1-2.9c-0.4,0-0.7,0.2-0.8,0.7S446,305.6,446,306.6z M459.3,301.4l-9.5,17.1H447l9.5-17.1H459.3z M463.2,313.4
			c0,1.8-0.3,3.1-1,4s-1.7,1.4-3.1,1.4c-1.3,0-2.3-0.5-3-1.4s-1.1-2.3-1.1-4c0-3.6,1.3-5.4,4-5.4c1.3,0,2.3,0.5,3,1.4
			S463.2,311.7,463.2,313.4z M458,313.4c0,1,0.1,1.7,0.3,2.2s0.5,0.7,0.8,0.7c0.8,0,1.1-1,1.1-3c0-2-0.4-2.9-1.1-2.9
			c-0.4,0-0.7,0.2-0.8,0.7S458,312.4,458,313.4z"/>
	</g>
	<g>
		<path class="st1" d="M416.9,336.4v6c0,1.1-0.3,1.9-1,2.5c-0.6,0.6-1.5,0.9-2.6,0.9s-2-0.3-2.6-0.9s-0.9-1.4-0.9-2.5v-6h1.1v6.1
			c0,0.8,0.2,1.4,0.6,1.8c0.4,0.4,1,0.6,1.9,0.6c0.8,0,1.4-0.2,1.8-0.6c0.4-0.4,0.6-1,0.6-1.8v-6H416.9z"/>
		<path class="st1" d="M426.9,345.7h-1.2l-5.1-7.8h-0.1c0.1,0.9,0.1,1.8,0.1,2.5v5.3h-1v-9.3h1.2l5.1,7.8h0.1c0-0.1,0-0.5-0.1-1.1
			c0-0.6,0-1.1,0-1.3v-5.3h1V345.7z"/>
		<path class="st1" d="M436.8,345.7l-0.2-1h-0.1c-0.3,0.4-0.7,0.7-1,0.9s-0.8,0.2-1.3,0.2c-0.7,0-1.2-0.2-1.6-0.5s-0.6-0.9-0.6-1.5
			c0-1.4,1.1-2.1,3.4-2.2l1.2,0v-0.4c0-0.5-0.1-0.9-0.4-1.2c-0.2-0.3-0.6-0.4-1.1-0.4c-0.6,0-1.2,0.2-2,0.5l-0.3-0.8
			c0.3-0.2,0.7-0.3,1.1-0.4c0.4-0.1,0.8-0.2,1.2-0.2c0.8,0,1.4,0.2,1.8,0.6c0.4,0.4,0.6,1,0.6,1.8v4.7H436.8z M434.4,345
			c0.7,0,1.2-0.2,1.5-0.5c0.4-0.4,0.6-0.9,0.6-1.5v-0.6l-1.1,0c-0.8,0-1.4,0.2-1.8,0.4s-0.6,0.6-0.6,1.1c0,0.4,0.1,0.7,0.3,0.9
			S434,345,434.4,345z"/>
		<path class="st1" d="M445.8,338.7v0.7l-1.3,0.2c0.1,0.1,0.2,0.3,0.3,0.6s0.1,0.5,0.1,0.8c0,0.7-0.2,1.2-0.7,1.6s-1.1,0.6-1.9,0.6
			c-0.2,0-0.4,0-0.6-0.1c-0.4,0.2-0.7,0.5-0.7,0.9c0,0.2,0.1,0.3,0.2,0.4c0.2,0.1,0.4,0.1,0.8,0.1h1.2c0.8,0,1.3,0.2,1.7,0.5
			c0.4,0.3,0.6,0.8,0.6,1.4c0,0.8-0.3,1.4-0.9,1.8c-0.6,0.4-1.5,0.6-2.7,0.6c-0.9,0-1.6-0.2-2.1-0.5s-0.7-0.8-0.7-1.4
			c0-0.4,0.1-0.8,0.4-1.1c0.3-0.3,0.7-0.5,1.1-0.6c-0.2-0.1-0.3-0.2-0.4-0.4c-0.1-0.2-0.2-0.4-0.2-0.6c0-0.3,0.1-0.5,0.2-0.7
			c0.1-0.2,0.3-0.4,0.6-0.6c-0.4-0.1-0.7-0.4-0.9-0.8s-0.3-0.8-0.3-1.2c0-0.8,0.2-1.3,0.7-1.8c0.5-0.4,1.1-0.6,1.9-0.6
			c0.4,0,0.7,0,1,0.1H445.8z M440.2,346.9c0,0.4,0.2,0.7,0.5,0.9c0.3,0.2,0.8,0.3,1.4,0.3c0.9,0,1.5-0.1,2-0.4
			c0.4-0.3,0.6-0.6,0.6-1.1c0-0.4-0.1-0.6-0.3-0.8c-0.2-0.1-0.7-0.2-1.3-0.2h-1.3c-0.5,0-0.9,0.1-1.1,0.3S440.2,346.4,440.2,346.9z
			 M440.8,341c0,0.5,0.1,0.9,0.4,1.1c0.3,0.2,0.7,0.4,1.1,0.4c1,0,1.5-0.5,1.5-1.5c0-1-0.5-1.6-1.6-1.6c-0.5,0-0.9,0.1-1.1,0.4
			S440.8,340.4,440.8,341z"/>
		<path class="st1" d="M450.6,345.8c-1,0-1.8-0.3-2.4-0.9s-0.9-1.5-0.9-2.6c0-1.1,0.3-2,0.8-2.7c0.6-0.7,1.3-1,2.2-1
			c0.9,0,1.6,0.3,2.1,0.9s0.8,1.3,0.8,2.3v0.7h-4.8c0,0.8,0.2,1.4,0.6,1.9c0.4,0.4,0.9,0.6,1.7,0.6c0.8,0,1.5-0.2,2.2-0.5v0.9
			c-0.4,0.2-0.7,0.3-1.1,0.3C451.5,345.8,451.1,345.8,450.6,345.8z M450.3,339.5c-0.6,0-1,0.2-1.3,0.5c-0.3,0.4-0.5,0.9-0.6,1.5h3.6
			c0-0.7-0.1-1.2-0.4-1.5S450.9,339.5,450.3,339.5z"/>
		<path class="st1" d="M460,345.7v-4.5c0-0.6-0.1-1-0.4-1.3c-0.3-0.3-0.7-0.4-1.2-0.4c-0.7,0-1.3,0.2-1.6,0.6s-0.5,1-0.5,1.9v3.7
			h-1.1v-7h0.9l0.2,1h0.1c0.2-0.3,0.5-0.6,0.9-0.8c0.4-0.2,0.8-0.3,1.3-0.3c0.8,0,1.5,0.2,1.9,0.6s0.6,1,0.6,1.9v4.5H460z"/>
		<path class="st1" d="M465.6,345.8c-1,0-1.8-0.3-2.3-0.9c-0.6-0.6-0.8-1.5-0.8-2.6c0-1.2,0.3-2.1,0.8-2.7s1.4-1,2.4-1
			c0.3,0,0.7,0,1,0.1c0.3,0.1,0.6,0.2,0.8,0.3l-0.3,0.9c-0.2-0.1-0.5-0.2-0.8-0.2s-0.5-0.1-0.7-0.1c-1.4,0-2.1,0.9-2.1,2.7
			c0,0.9,0.2,1.5,0.5,2s0.9,0.7,1.5,0.7c0.6,0,1.2-0.1,1.8-0.4v0.9C466.9,345.7,466.3,345.8,465.6,345.8z"/>
		<path class="st1" d="M469.2,336.9c0-0.2,0.1-0.4,0.2-0.5s0.3-0.2,0.4-0.2c0.2,0,0.3,0.1,0.4,0.2c0.1,0.1,0.2,0.3,0.2,0.5
			c0,0.2-0.1,0.4-0.2,0.5c-0.1,0.1-0.3,0.2-0.4,0.2c-0.2,0-0.3-0.1-0.4-0.2S469.2,337.1,469.2,336.9z M470.3,345.7h-1.1v-7h1.1
			V345.7z"/>
		<path class="st1" d="M475.5,345.8c-1,0-1.8-0.3-2.4-0.9s-0.9-1.5-0.9-2.6c0-1.1,0.3-2,0.8-2.7c0.6-0.7,1.3-1,2.2-1
			c0.9,0,1.6,0.3,2.1,0.9s0.8,1.3,0.8,2.3v0.7h-4.8c0,0.8,0.2,1.4,0.6,1.9c0.4,0.4,0.9,0.6,1.7,0.6c0.8,0,1.5-0.2,2.2-0.5v0.9
			c-0.4,0.2-0.7,0.3-1.1,0.3C476.4,345.8,476,345.8,475.5,345.8z M475.2,339.5c-0.6,0-1,0.2-1.3,0.5c-0.3,0.4-0.5,0.9-0.6,1.5h3.6
			c0-0.7-0.1-1.2-0.4-1.5S475.8,339.5,475.2,339.5z"/>
		<path class="st1" d="M484.6,343.8c0,0.6-0.2,1.1-0.7,1.5c-0.5,0.4-1.2,0.5-2,0.5c-0.9,0-1.6-0.1-2.2-0.4v-1
			c0.3,0.2,0.7,0.3,1.1,0.4s0.8,0.1,1.1,0.1c0.6,0,1-0.1,1.3-0.3c0.3-0.2,0.4-0.4,0.4-0.8c0-0.3-0.1-0.5-0.4-0.7
			c-0.2-0.2-0.7-0.4-1.4-0.7c-0.6-0.2-1.1-0.5-1.4-0.6c-0.3-0.2-0.5-0.4-0.6-0.6c-0.1-0.2-0.2-0.5-0.2-0.8c0-0.6,0.2-1,0.7-1.3
			c0.5-0.3,1.1-0.5,1.9-0.5c0.7,0,1.5,0.2,2.2,0.5l-0.4,0.9c-0.7-0.3-1.3-0.4-1.9-0.4c-0.5,0-0.9,0.1-1.1,0.2s-0.4,0.4-0.4,0.6
			c0,0.2,0,0.3,0.1,0.5c0.1,0.1,0.2,0.3,0.5,0.4c0.2,0.1,0.6,0.3,1.2,0.5c0.8,0.3,1.4,0.6,1.7,0.9S484.6,343.3,484.6,343.8z"/>
	</g>
</g>
<g>
	<g>
		<path class="st6" d="M529.1,318.5c0-1.6,1.3-3,3-3h60.5c1.7,0,3,1.4,3,3v7.3c0,1.6-1.3,3-3,3h-60.5c-1.7,0-3-1.4-3-3V318.5z"/>
	</g>
	<g>
		<path class="st1" d="M558.4,322.5h-12v-2.5l4.3-4.3c1.3-1.3,2.1-2.2,2.5-2.7s0.7-1,0.8-1.4s0.3-0.9,0.3-1.3c0-0.7-0.2-1.2-0.6-1.5
			s-0.9-0.5-1.5-0.5c-0.7,0-1.3,0.2-1.9,0.5s-1.3,0.7-2,1.3l-2-2.3c0.8-0.7,1.5-1.2,2.1-1.5s1.2-0.5,1.8-0.7s1.4-0.2,2.2-0.2
			c1.1,0,2,0.2,2.8,0.6s1.5,0.9,1.9,1.6s0.7,1.5,0.7,2.4c0,0.8-0.1,1.5-0.4,2.2s-0.7,1.4-1.3,2.1s-1.6,1.8-3.1,3.1l-2.2,2.1v0.2h7.5
			V322.5z"/>
		<path class="st1" d="M567.7,310.4c0,1.8-0.3,3.1-1,4s-1.7,1.4-3.1,1.4c-1.3,0-2.3-0.5-3-1.4s-1.1-2.3-1.1-4c0-3.6,1.3-5.4,4-5.4
			c1.3,0,2.3,0.5,3,1.4S567.7,308.7,567.7,310.4z M562.5,310.5c0,1,0.1,1.7,0.3,2.2s0.5,0.7,0.8,0.7c0.8,0,1.1-1,1.1-3
			c0-2-0.4-2.9-1.1-2.9c-0.4,0-0.7,0.2-0.8,0.7S562.5,309.5,562.5,310.5z M575.7,305.3l-9.5,17.1h-2.8l9.5-17.1H575.7z M579.7,317.3
			c0,1.8-0.3,3.1-1,4s-1.7,1.4-3.1,1.4c-1.3,0-2.3-0.5-3-1.4s-1.1-2.3-1.1-4c0-3.6,1.3-5.4,4-5.4c1.3,0,2.3,0.5,3,1.4
			S579.7,315.6,579.7,317.3z M574.5,317.3c0,1,0.1,1.7,0.3,2.2s0.5,0.7,0.8,0.7c0.8,0,1.1-1,1.1-3c0-2-0.4-2.9-1.1-2.9
			c-0.4,0-0.7,0.2-0.8,0.7S574.5,316.3,574.5,317.3z"/>
	</g>
	<g>
		<path class="st1" d="M505.6,346.5v-9.3h1.1v9.3H505.6z"/>
		<path class="st1" d="M513.5,346.5V342c0-0.6-0.1-1-0.4-1.3c-0.3-0.3-0.7-0.4-1.2-0.4c-0.7,0-1.3,0.2-1.6,0.6s-0.5,1-0.5,1.9v3.7
			h-1.1v-7h0.9l0.2,1h0.1c0.2-0.3,0.5-0.6,0.9-0.8c0.4-0.2,0.8-0.3,1.3-0.3c0.8,0,1.5,0.2,1.9,0.6s0.6,1,0.6,1.9v4.5H513.5z"/>
		<path class="st1" d="M518.5,345.8c0.2,0,0.4,0,0.5,0c0.2,0,0.3-0.1,0.4-0.1v0.8c-0.1,0.1-0.3,0.1-0.5,0.1c-0.2,0-0.4,0.1-0.6,0.1
			c-1.3,0-2-0.7-2-2.1v-4.1h-1v-0.5l1-0.4l0.4-1.5h0.6v1.6h2v0.8h-2v4.1c0,0.4,0.1,0.7,0.3,1C517.9,345.7,518.2,345.8,518.5,345.8z"
			/>
		<path class="st1" d="M523.6,346.7c-1,0-1.8-0.3-2.4-0.9s-0.9-1.5-0.9-2.6c0-1.1,0.3-2,0.8-2.7c0.6-0.7,1.3-1,2.2-1
			c0.9,0,1.6,0.3,2.1,0.9s0.8,1.3,0.8,2.3v0.7h-4.8c0,0.8,0.2,1.4,0.6,1.9c0.4,0.4,0.9,0.6,1.7,0.6c0.8,0,1.5-0.2,2.2-0.5v0.9
			c-0.4,0.2-0.7,0.3-1.1,0.3C524.4,346.6,524,346.7,523.6,346.7z M523.3,340.3c-0.6,0-1,0.2-1.3,0.5c-0.3,0.4-0.5,0.9-0.6,1.5h3.6
			c0-0.7-0.1-1.2-0.4-1.5S523.8,340.3,523.3,340.3z"/>
		<path class="st1" d="M531.4,339.4c0.3,0,0.6,0,0.8,0.1l-0.1,1c-0.3-0.1-0.5-0.1-0.8-0.1c-0.6,0-1,0.2-1.4,0.7
			c-0.4,0.5-0.6,1-0.6,1.7v3.7h-1.1v-7h0.9l0.1,1.3h0.1c0.3-0.5,0.6-0.8,0.9-1C530.5,339.6,530.9,339.4,531.4,339.4z"/>
		<path class="st1" d="M539.3,339.6v0.7l-1.3,0.2c0.1,0.1,0.2,0.3,0.3,0.6s0.1,0.5,0.1,0.8c0,0.7-0.2,1.2-0.7,1.6s-1.1,0.6-1.9,0.6
			c-0.2,0-0.4,0-0.6-0.1c-0.4,0.2-0.7,0.5-0.7,0.9c0,0.2,0.1,0.3,0.2,0.4c0.2,0.1,0.4,0.1,0.8,0.1h1.2c0.8,0,1.3,0.2,1.7,0.5
			c0.4,0.3,0.6,0.8,0.6,1.4c0,0.8-0.3,1.4-0.9,1.8c-0.6,0.4-1.5,0.6-2.7,0.6c-0.9,0-1.6-0.2-2.1-0.5s-0.7-0.8-0.7-1.4
			c0-0.4,0.1-0.8,0.4-1.1c0.3-0.3,0.7-0.5,1.1-0.6c-0.2-0.1-0.3-0.2-0.4-0.4c-0.1-0.2-0.2-0.4-0.2-0.6c0-0.3,0.1-0.5,0.2-0.7
			c0.1-0.2,0.3-0.4,0.6-0.6c-0.4-0.1-0.7-0.4-0.9-0.8s-0.3-0.8-0.3-1.2c0-0.8,0.2-1.3,0.7-1.8c0.5-0.4,1.1-0.6,1.9-0.6
			c0.4,0,0.7,0,1,0.1H539.3z M533.7,347.7c0,0.4,0.2,0.7,0.5,0.9c0.3,0.2,0.8,0.3,1.4,0.3c0.9,0,1.5-0.1,2-0.4
			c0.4-0.3,0.6-0.6,0.6-1.1c0-0.4-0.1-0.6-0.3-0.8c-0.2-0.1-0.7-0.2-1.3-0.2h-1.3c-0.5,0-0.9,0.1-1.1,0.3S533.7,347.3,533.7,347.7z
			 M534.3,341.8c0,0.5,0.1,0.9,0.4,1.1c0.3,0.2,0.7,0.4,1.1,0.4c1,0,1.5-0.5,1.5-1.5c0-1-0.5-1.6-1.6-1.6c-0.5,0-0.9,0.1-1.1,0.4
			S534.3,341.3,534.3,341.8z"/>
		<path class="st1" d="M547.2,343c0,1.1-0.3,2-0.9,2.7c-0.6,0.6-1.4,1-2.4,1c-0.6,0-1.2-0.1-1.7-0.4c-0.5-0.3-0.9-0.7-1.1-1.3
			c-0.3-0.5-0.4-1.2-0.4-1.9c0-1.1,0.3-2,0.8-2.7c0.6-0.6,1.4-0.9,2.4-0.9c1,0,1.7,0.3,2.3,1C546.9,341.1,547.2,341.9,547.2,343z
			 M541.9,343c0,0.9,0.2,1.6,0.5,2c0.4,0.5,0.9,0.7,1.6,0.7s1.2-0.2,1.6-0.7c0.4-0.5,0.5-1.1,0.5-2c0-0.9-0.2-1.6-0.5-2
			s-0.9-0.7-1.6-0.7c-0.7,0-1.2,0.2-1.6,0.7S541.9,342.1,541.9,343z"/>
		<path class="st1" d="M550.3,346.5l-2.6-7h1.1l1.5,4.1c0.3,1,0.5,1.6,0.6,1.9h0.1c0-0.2,0.2-0.7,0.4-1.4c0.2-0.7,0.8-2.2,1.7-4.6
			h1.1l-2.6,7H550.3z"/>
		<path class="st1" d="M558.2,346.7c-1,0-1.8-0.3-2.4-0.9s-0.9-1.5-0.9-2.6c0-1.1,0.3-2,0.8-2.7c0.6-0.7,1.3-1,2.2-1
			c0.9,0,1.6,0.3,2.1,0.9s0.8,1.3,0.8,2.3v0.7H556c0,0.8,0.2,1.4,0.6,1.9c0.4,0.4,0.9,0.6,1.7,0.6c0.8,0,1.5-0.2,2.2-0.5v0.9
			c-0.4,0.2-0.7,0.3-1.1,0.3C559.1,346.6,558.7,346.7,558.2,346.7z M557.9,340.3c-0.6,0-1,0.2-1.3,0.5c-0.3,0.4-0.5,0.9-0.6,1.5h3.6
			c0-0.7-0.1-1.2-0.4-1.5S558.5,340.3,557.9,340.3z"/>
		<path class="st1" d="M566,339.4c0.3,0,0.6,0,0.8,0.1l-0.1,1c-0.3-0.1-0.5-0.1-0.8-0.1c-0.6,0-1,0.2-1.4,0.7
			c-0.4,0.5-0.6,1-0.6,1.7v3.7h-1.1v-7h0.9l0.1,1.3h0.1c0.3-0.5,0.6-0.8,0.9-1C565.2,339.6,565.6,339.4,566,339.4z"/>
		<path class="st1" d="M573,346.5V342c0-0.6-0.1-1-0.4-1.3c-0.3-0.3-0.7-0.4-1.2-0.4c-0.7,0-1.3,0.2-1.6,0.6s-0.5,1-0.5,1.9v3.7
			h-1.1v-7h0.9l0.2,1h0.1c0.2-0.3,0.5-0.6,0.9-0.8c0.4-0.2,0.8-0.3,1.3-0.3c0.8,0,1.5,0.2,1.9,0.6s0.6,1,0.6,1.9v4.5H573z"/>
		<path class="st1" d="M584.7,346.5V342c0-0.6-0.1-1-0.4-1.2c-0.2-0.3-0.6-0.4-1.1-0.4c-0.7,0-1.1,0.2-1.5,0.6s-0.5,1-0.5,1.7v3.9
			h-1.1V342c0-0.6-0.1-1-0.4-1.2s-0.6-0.4-1.1-0.4c-0.7,0-1.1,0.2-1.5,0.6s-0.5,1-0.5,1.9v3.7h-1.1v-7h0.9l0.2,1h0.1
			c0.2-0.3,0.5-0.6,0.8-0.8c0.4-0.2,0.8-0.3,1.2-0.3c1.1,0,1.8,0.4,2.1,1.2h0.1c0.2-0.4,0.5-0.7,0.9-0.9s0.8-0.3,1.3-0.3
			c0.8,0,1.4,0.2,1.8,0.6s0.6,1,0.6,1.9v4.5H584.7z"/>
		<path class="st1" d="M590.7,346.7c-1,0-1.8-0.3-2.4-0.9s-0.9-1.5-0.9-2.6c0-1.1,0.3-2,0.8-2.7c0.6-0.7,1.3-1,2.2-1
			c0.9,0,1.6,0.3,2.1,0.9s0.8,1.3,0.8,2.3v0.7h-4.8c0,0.8,0.2,1.4,0.6,1.9c0.4,0.4,0.9,0.6,1.7,0.6c0.8,0,1.5-0.2,2.2-0.5v0.9
			c-0.4,0.2-0.7,0.3-1.1,0.3C591.6,346.6,591.2,346.7,590.7,346.7z M590.4,340.3c-0.6,0-1,0.2-1.3,0.5c-0.3,0.4-0.5,0.9-0.6,1.5h3.6
			c0-0.7-0.1-1.2-0.4-1.5S591,340.3,590.4,340.3z"/>
		<path class="st1" d="M600.1,346.5V342c0-0.6-0.1-1-0.4-1.3c-0.3-0.3-0.7-0.4-1.2-0.4c-0.7,0-1.3,0.2-1.6,0.6s-0.5,1-0.5,1.9v3.7
			h-1.1v-7h0.9l0.2,1h0.1c0.2-0.3,0.5-0.6,0.9-0.8c0.4-0.2,0.8-0.3,1.3-0.3c0.8,0,1.5,0.2,1.9,0.6s0.6,1,0.6,1.9v4.5H600.1z"/>
		<path class="st1" d="M605.2,345.8c0.2,0,0.4,0,0.5,0c0.2,0,0.3-0.1,0.4-0.1v0.8c-0.1,0.1-0.3,0.1-0.5,0.1c-0.2,0-0.4,0.1-0.6,0.1
			c-1.3,0-2-0.7-2-2.1v-4.1h-1v-0.5l1-0.4l0.4-1.5h0.6v1.6h2v0.8h-2v4.1c0,0.4,0.1,0.7,0.3,1C604.5,345.7,604.8,345.8,605.2,345.8z"
			/>
		<path class="st1" d="M611.5,346.5l-0.2-1h-0.1c-0.3,0.4-0.7,0.7-1,0.9s-0.8,0.2-1.3,0.2c-0.7,0-1.2-0.2-1.6-0.5s-0.6-0.9-0.6-1.5
			c0-1.4,1.1-2.1,3.4-2.2l1.2,0v-0.4c0-0.5-0.1-0.9-0.4-1.2c-0.2-0.3-0.6-0.4-1.1-0.4c-0.6,0-1.2,0.2-2,0.5l-0.3-0.8
			c0.3-0.2,0.7-0.3,1.1-0.4c0.4-0.1,0.8-0.2,1.2-0.2c0.8,0,1.4,0.2,1.8,0.6c0.4,0.4,0.6,1,0.6,1.8v4.7H611.5z M609.2,345.8
			c0.7,0,1.2-0.2,1.5-0.5c0.4-0.4,0.6-0.9,0.6-1.5v-0.6l-1.1,0c-0.8,0-1.4,0.2-1.8,0.4s-0.6,0.6-0.6,1.1c0,0.4,0.1,0.7,0.3,0.9
			S608.7,345.8,609.2,345.8z"/>
		<path class="st1" d="M615.9,346.5h-1.1v-9.9h1.1V346.5z"/>
		<path class="st1" d="M528.4,358.6c0,1.1-0.3,2-0.9,2.7c-0.6,0.6-1.4,1-2.4,1c-0.6,0-1.2-0.1-1.7-0.4c-0.5-0.3-0.9-0.7-1.1-1.3
			c-0.3-0.5-0.4-1.2-0.4-1.9c0-1.1,0.3-2,0.8-2.7c0.6-0.6,1.4-0.9,2.4-0.9c1,0,1.7,0.3,2.3,1C528.1,356.7,528.4,357.5,528.4,358.6z
			 M523.1,358.6c0,0.9,0.2,1.6,0.5,2c0.4,0.5,0.9,0.7,1.6,0.7s1.2-0.2,1.6-0.7c0.4-0.5,0.5-1.1,0.5-2c0-0.9-0.2-1.6-0.5-2
			s-0.9-0.7-1.6-0.7c-0.7,0-1.2,0.2-1.6,0.7S523.1,357.7,523.1,358.6z"/>
		<path class="st1" d="M533.4,355c0.3,0,0.6,0,0.8,0.1l-0.1,1c-0.3-0.1-0.5-0.1-0.8-0.1c-0.6,0-1,0.2-1.4,0.7
			c-0.4,0.5-0.6,1-0.6,1.7v3.7h-1.1v-7h0.9l0.1,1.3h0.1c0.3-0.5,0.6-0.8,0.9-1C532.6,355.2,533,355,533.4,355z"/>
		<path class="st1" d="M541.2,355.2v0.7L540,356c0.1,0.1,0.2,0.3,0.3,0.6s0.1,0.5,0.1,0.8c0,0.7-0.2,1.2-0.7,1.6s-1.1,0.6-1.9,0.6
			c-0.2,0-0.4,0-0.6-0.1c-0.4,0.2-0.7,0.5-0.7,0.9c0,0.2,0.1,0.3,0.2,0.4c0.2,0.1,0.4,0.1,0.8,0.1h1.2c0.8,0,1.3,0.2,1.7,0.5
			c0.4,0.3,0.6,0.8,0.6,1.4c0,0.8-0.3,1.4-0.9,1.8c-0.6,0.4-1.5,0.6-2.7,0.6c-0.9,0-1.6-0.2-2.1-0.5s-0.7-0.8-0.7-1.4
			c0-0.4,0.1-0.8,0.4-1.1c0.3-0.3,0.7-0.5,1.1-0.6c-0.2-0.1-0.3-0.2-0.4-0.4c-0.1-0.2-0.2-0.4-0.2-0.6c0-0.3,0.1-0.5,0.2-0.7
			c0.1-0.2,0.3-0.4,0.6-0.6c-0.4-0.1-0.7-0.4-0.9-0.8s-0.3-0.8-0.3-1.2c0-0.8,0.2-1.3,0.7-1.8c0.5-0.4,1.1-0.6,1.9-0.6
			c0.4,0,0.7,0,1,0.1H541.2z M535.7,363.3c0,0.4,0.2,0.7,0.5,0.9c0.3,0.2,0.8,0.3,1.4,0.3c0.9,0,1.5-0.1,2-0.4
			c0.4-0.3,0.6-0.6,0.6-1.1c0-0.4-0.1-0.6-0.3-0.8c-0.2-0.1-0.7-0.2-1.3-0.2h-1.3c-0.5,0-0.9,0.1-1.1,0.3S535.7,362.9,535.7,363.3z
			 M536.3,357.4c0,0.5,0.1,0.9,0.4,1.1c0.3,0.2,0.7,0.4,1.1,0.4c1,0,1.5-0.5,1.5-1.5c0-1-0.5-1.6-1.6-1.6c-0.5,0-0.9,0.1-1.1,0.4
			S536.3,356.9,536.3,357.4z"/>
		<path class="st1" d="M547,362.1l-0.2-1h-0.1c-0.3,0.4-0.7,0.7-1,0.9s-0.8,0.2-1.3,0.2c-0.7,0-1.2-0.2-1.6-0.5s-0.6-0.9-0.6-1.5
			c0-1.4,1.1-2.1,3.4-2.2l1.2,0v-0.4c0-0.5-0.1-0.9-0.4-1.2c-0.2-0.3-0.6-0.4-1.1-0.4c-0.6,0-1.2,0.2-2,0.5l-0.3-0.8
			c0.3-0.2,0.7-0.3,1.1-0.4c0.4-0.1,0.8-0.2,1.2-0.2c0.8,0,1.4,0.2,1.8,0.6c0.4,0.4,0.6,1,0.6,1.8v4.7H547z M544.6,361.4
			c0.7,0,1.2-0.2,1.5-0.5c0.4-0.4,0.6-0.9,0.6-1.5v-0.6l-1.1,0c-0.8,0-1.4,0.2-1.8,0.4s-0.6,0.6-0.6,1.1c0,0.4,0.1,0.7,0.3,0.9
			S544.2,361.4,544.6,361.4z"/>
		<path class="st1" d="M554.7,362.1v-4.5c0-0.6-0.1-1-0.4-1.3c-0.3-0.3-0.7-0.4-1.2-0.4c-0.7,0-1.3,0.2-1.6,0.6s-0.5,1-0.5,1.9v3.7
			h-1.1v-7h0.9l0.2,1h0.1c0.2-0.3,0.5-0.6,0.9-0.8c0.4-0.2,0.8-0.3,1.3-0.3c0.8,0,1.5,0.2,1.9,0.6s0.6,1,0.6,1.9v4.5H554.7z"/>
		<path class="st1" d="M557.8,353.3c0-0.2,0.1-0.4,0.2-0.5s0.3-0.2,0.4-0.2c0.2,0,0.3,0.1,0.4,0.2c0.1,0.1,0.2,0.3,0.2,0.5
			c0,0.2-0.1,0.4-0.2,0.5c-0.1,0.1-0.3,0.2-0.4,0.2c-0.2,0-0.3-0.1-0.4-0.2S557.8,353.5,557.8,353.3z M558.9,362.1h-1.1v-7h1.1
			V362.1z"/>
		<path class="st1" d="M565.7,360.2c0,0.6-0.2,1.1-0.7,1.5c-0.5,0.4-1.2,0.5-2,0.5c-0.9,0-1.6-0.1-2.2-0.4v-1
			c0.3,0.2,0.7,0.3,1.1,0.4s0.8,0.1,1.1,0.1c0.6,0,1-0.1,1.3-0.3c0.3-0.2,0.4-0.4,0.4-0.8c0-0.3-0.1-0.5-0.4-0.7
			c-0.2-0.2-0.7-0.4-1.4-0.7c-0.6-0.2-1.1-0.5-1.4-0.6c-0.3-0.2-0.5-0.4-0.6-0.6c-0.1-0.2-0.2-0.5-0.2-0.8c0-0.6,0.2-1,0.7-1.3
			c0.5-0.3,1.1-0.5,1.9-0.5c0.7,0,1.5,0.2,2.2,0.5l-0.4,0.9c-0.7-0.3-1.3-0.4-1.9-0.4c-0.5,0-0.9,0.1-1.1,0.2s-0.4,0.4-0.4,0.6
			c0,0.2,0,0.3,0.1,0.5c0.1,0.1,0.2,0.3,0.5,0.4c0.2,0.1,0.6,0.3,1.2,0.5c0.8,0.3,1.4,0.6,1.7,0.9S565.7,359.8,565.7,360.2z"/>
		<path class="st1" d="M571.6,362.1l-0.2-1h-0.1c-0.3,0.4-0.7,0.7-1,0.9s-0.8,0.2-1.3,0.2c-0.7,0-1.2-0.2-1.6-0.5s-0.6-0.9-0.6-1.5
			c0-1.4,1.1-2.1,3.4-2.2l1.2,0v-0.4c0-0.5-0.1-0.9-0.4-1.2c-0.2-0.3-0.6-0.4-1.1-0.4c-0.6,0-1.2,0.2-2,0.5l-0.3-0.8
			c0.3-0.2,0.7-0.3,1.1-0.4c0.4-0.1,0.8-0.2,1.2-0.2c0.8,0,1.4,0.2,1.8,0.6c0.4,0.4,0.6,1,0.6,1.8v4.7H571.6z M569.3,361.4
			c0.7,0,1.2-0.2,1.5-0.5c0.4-0.4,0.6-0.9,0.6-1.5v-0.6l-1.1,0c-0.8,0-1.4,0.2-1.8,0.4s-0.6,0.6-0.6,1.1c0,0.4,0.1,0.7,0.3,0.9
			S568.9,361.4,569.3,361.4z"/>
		<path class="st1" d="M576.8,361.4c0.2,0,0.4,0,0.5,0c0.2,0,0.3-0.1,0.4-0.1v0.8c-0.1,0.1-0.3,0.1-0.5,0.1c-0.2,0-0.4,0.1-0.6,0.1
			c-1.3,0-2-0.7-2-2.1V356h-1v-0.5l1-0.4l0.4-1.5h0.6v1.6h2v0.8h-2v4.1c0,0.4,0.1,0.7,0.3,1C576.2,361.3,576.5,361.4,576.8,361.4z"
			/>
		<path class="st1" d="M579.1,353.3c0-0.2,0.1-0.4,0.2-0.5s0.3-0.2,0.4-0.2c0.2,0,0.3,0.1,0.4,0.2c0.1,0.1,0.2,0.3,0.2,0.5
			c0,0.2-0.1,0.4-0.2,0.5c-0.1,0.1-0.3,0.2-0.4,0.2c-0.2,0-0.3-0.1-0.4-0.2S579.1,353.5,579.1,353.3z M580.2,362.1h-1.1v-7h1.1
			V362.1z"/>
		<path class="st1" d="M588.5,358.6c0,1.1-0.3,2-0.9,2.7c-0.6,0.6-1.4,1-2.4,1c-0.6,0-1.2-0.1-1.7-0.4c-0.5-0.3-0.9-0.7-1.1-1.3
			c-0.3-0.5-0.4-1.2-0.4-1.9c0-1.1,0.3-2,0.8-2.7c0.6-0.6,1.4-0.9,2.4-0.9c1,0,1.7,0.3,2.3,1C588.2,356.7,588.5,357.5,588.5,358.6z
			 M583.2,358.6c0,0.9,0.2,1.6,0.5,2c0.4,0.5,0.9,0.7,1.6,0.7s1.2-0.2,1.6-0.7c0.4-0.5,0.5-1.1,0.5-2c0-0.9-0.2-1.6-0.5-2
			s-0.9-0.7-1.6-0.7c-0.7,0-1.2,0.2-1.6,0.7S583.2,357.7,583.2,358.6z"/>
		<path class="st1" d="M595.1,362.1v-4.5c0-0.6-0.1-1-0.4-1.3c-0.3-0.3-0.7-0.4-1.2-0.4c-0.7,0-1.3,0.2-1.6,0.6s-0.5,1-0.5,1.9v3.7
			h-1.1v-7h0.9l0.2,1h0.1c0.2-0.3,0.5-0.6,0.9-0.8c0.4-0.2,0.8-0.3,1.3-0.3c0.8,0,1.5,0.2,1.9,0.6s0.6,1,0.6,1.9v4.5H595.1z"/>
		<path class="st1" d="M602.8,360.2c0,0.6-0.2,1.1-0.7,1.5c-0.5,0.4-1.2,0.5-2,0.5c-0.9,0-1.6-0.1-2.2-0.4v-1
			c0.3,0.2,0.7,0.3,1.1,0.4s0.8,0.1,1.1,0.1c0.6,0,1-0.1,1.3-0.3c0.3-0.2,0.4-0.4,0.4-0.8c0-0.3-0.1-0.5-0.4-0.7
			c-0.2-0.2-0.7-0.4-1.4-0.7c-0.6-0.2-1.1-0.5-1.4-0.6c-0.3-0.2-0.5-0.4-0.6-0.6c-0.1-0.2-0.2-0.5-0.2-0.8c0-0.6,0.2-1,0.7-1.3
			c0.5-0.3,1.1-0.5,1.9-0.5c0.7,0,1.5,0.2,2.2,0.5l-0.4,0.9c-0.7-0.3-1.3-0.4-1.9-0.4c-0.5,0-0.9,0.1-1.1,0.2s-0.4,0.4-0.4,0.6
			c0,0.2,0,0.3,0.1,0.5c0.1,0.1,0.2,0.3,0.5,0.4c0.2,0.1,0.6,0.3,1.2,0.5c0.8,0.3,1.4,0.6,1.7,0.9S602.8,359.8,602.8,360.2z"/>
	</g>
</g>
</svg>
