<svg xmlns="http://www.w3.org/2000/svg" width="34.97" height="22.68" viewBox="0 0 34.97 22.68">
  <title>organisations-icon</title>
  <g id="Layer_2" data-name="Layer 2">
    <g id="Layer_1-2" data-name="Layer 1">
      <path d="M31.33,8.94H29.17a3.62,3.62,0,0,0-2.31.86l-.07,0a8.71,8.71,0,0,0-1.89,1.92,9.12,9.12,0,0,1-7,4,1.74,1.74,0,0,0,.19,3.46h.2a12.55,12.55,0,0,0,7.28-3v6.5H35V12.58a3.65,3.65,0,0,0-3.64-3.64M15.27,17.76a2.75,2.75,0,0,1,.79-2.21,9.06,9.06,0,0,1-6-3.79A8.67,8.67,0,0,0,8.19,9.83l-.07,0a3.63,3.63,0,0,0-2.32-.86H3.64A3.65,3.65,0,0,0,0,12.58V22.68H9.45V16.15A12.32,12.32,0,0,0,15.77,19a2.76,2.76,0,0,1-.5-1.25M26.25,4a4,4,0,1,0,4-4,4,4,0,0,0-4,4M8.73,4a4,4,0,1,1-4-4,4,4,0,0,1,4,4" style="fill: #bf3b29"/>
    </g>
  </g>
</svg>
