<svg xmlns="http://www.w3.org/2000/svg" width="615.69" height="291.5" viewBox="0 0 615.69 291.5">
  <title>organisations</title>
  <g id="Layer_2" data-name="Layer 2">
    <g id="Layer_1-2" data-name="Layer 1">
      <path d="M145.75,1V73.81a71.94,71.94,0,0,1,45.86,127.37L238,257.28A144.75,144.75,0,0,0,145.75,1Z" style="fill: #0050af;stroke: #fff;stroke-linecap: round;stroke-linejoin: round;stroke-width: 2px"/>
      <path d="M191.61,201.18A71.93,71.93,0,0,1,74,150.27L1.29,154.84A144.75,144.75,0,0,0,238,257.28Z" style="fill: #1868b7;stroke: #fff;stroke-linecap: round;stroke-linejoin: round;stroke-width: 2px"/>
      <path d="M73.81,145.75a71.6,71.6,0,0,1,13.75-42.28L28.65,60.67A144.75,144.75,0,0,0,1.29,154.84L74,150.27C73.87,148.77,73.81,147.27,73.81,145.75Z" style="fill: #257bc1;stroke: #fff;stroke-linecap: round;stroke-linejoin: round;stroke-width: 2px"/>
      <path d="M115.12,80.65l-31-65.88A144.75,144.75,0,0,0,28.64,60.67l58.91,42.8A72.21,72.21,0,0,1,115.12,80.65Z" style="fill: #338ecc;stroke: #fff;stroke-linecap: round;stroke-linejoin: round;stroke-width: 2px"/>
      <path d="M136.74,74.39,127.61,2.14A144.75,144.75,0,0,0,84.12,14.78l31,65.88A71.44,71.44,0,0,1,136.74,74.39Z" style="fill: #4baae0;stroke: #fff;stroke-linecap: round;stroke-linejoin: round;stroke-width: 2px"/>
      <path d="M145.75,73.81h0V1a144.76,144.76,0,0,0-18.14,1.14l9.13,72.25A72.52,72.52,0,0,1,145.75,73.81Z" style="fill: #62c4ef;stroke: #fff;stroke-linecap: round;stroke-linejoin: round;stroke-width: 2px"/>
      <g>
        <path d="M314.26,56.72A5.78,5.78,0,1,1,320,62.5,5.79,5.79,0,0,1,314.26,56.72Z" style="fill: #0050af"/>
        <path d="M314.26,56.72A5.78,5.78,0,1,1,320,62.5,5.79,5.79,0,0,1,314.26,56.72Z" style="fill: none;stroke: #fff;stroke-linecap: round;stroke-linejoin: round;stroke-width: 2px"/>
      </g>
      <g>
        <path d="M340,64.59h-1.06V50.06H340Z" style="fill: #fff"/>
        <path d="M344.51,56.16a5.79,5.79,0,0,1,1.64-1.42,4.08,4.08,0,0,1,2.07-.53,3.84,3.84,0,0,1,1.48.27,2.73,2.73,0,0,1,1.06.77,3.4,3.4,0,0,1,.64,1.21,5.49,5.49,0,0,1,.22,1.6v6.53h-1V58.06a3.5,3.5,0,0,0-.66-2.25,2.42,2.42,0,0,0-2-.82,3.62,3.62,0,0,0-1.86.51,5.27,5.27,0,0,0-1.55,1.41v7.68h-1V54.38h.54a.27.27,0,0,1,.3.26Z" style="fill: #fff"/>
        <path d="M357.46,64.76a2.19,2.19,0,0,1-1.62-.58,2.4,2.4,0,0,1-.58-1.78v-7h-1.47a.27.27,0,0,1-.18-.06.22.22,0,0,1-.07-.17v-.38l1.75-.12.25-3.66a.36.36,0,0,1,.08-.16.22.22,0,0,1,.17-.07h.46v3.9h3.22v.73h-3.22v6.93a2.18,2.18,0,0,0,.11.72,1.36,1.36,0,0,0,.3.5,1.17,1.17,0,0,0,.45.29,1.6,1.6,0,0,0,.56.09,1.71,1.71,0,0,0,.64-.11,2.68,2.68,0,0,0,.46-.24,3,3,0,0,0,.32-.24.35.35,0,0,1,.2-.11.22.22,0,0,1,.16.1l.27.43a2.85,2.85,0,0,1-1,.69A3.09,3.09,0,0,1,357.46,64.76Z" style="fill: #fff"/>
        <path d="M361.84,59.08v.2a6.93,6.93,0,0,0,.27,2,4.14,4.14,0,0,0,.76,1.46,3.14,3.14,0,0,0,1.19.89,3.93,3.93,0,0,0,1.56.3,4.68,4.68,0,0,0,1.33-.17,5,5,0,0,0,1-.38,5.18,5.18,0,0,0,.61-.38.69.69,0,0,1,.33-.17.24.24,0,0,1,.21.1l.27.33a2.81,2.81,0,0,1-.65.58,4.62,4.62,0,0,1-.9.46,6.55,6.55,0,0,1-1.07.3,5.88,5.88,0,0,1-1.14.11,4.88,4.88,0,0,1-1.91-.36,4,4,0,0,1-1.48-1.06,4.83,4.83,0,0,1-1-1.71,7.36,7.36,0,0,1-.33-2.31,6.26,6.26,0,0,1,.31-2,4.61,4.61,0,0,1,.9-1.6,4.11,4.11,0,0,1,1.45-1.05,4.75,4.75,0,0,1,1.95-.38,4.26,4.26,0,0,1,1.6.3,3.65,3.65,0,0,1,1.28.87,4.1,4.1,0,0,1,.86,1.4,5.41,5.41,0,0,1,.31,1.91.54.54,0,0,1-.06.31.24.24,0,0,1-.21.08Zm6.82-.63a4.35,4.35,0,0,0-.23-1.47,3.11,3.11,0,0,0-.65-1.1,2.85,2.85,0,0,0-1-.69,3.31,3.31,0,0,0-1.28-.24,3.84,3.84,0,0,0-1.42.25,3.11,3.11,0,0,0-1.08.71,3.54,3.54,0,0,0-.73,1.11,5.17,5.17,0,0,0-.37,1.45Z" style="fill: #fff"/>
        <path d="M372.93,56.84a6.35,6.35,0,0,1,.54-1.11,3.54,3.54,0,0,1,.7-.83,2.89,2.89,0,0,1,.88-.52,3.14,3.14,0,0,1,1.08-.18,3.47,3.47,0,0,1,.63.06,1.6,1.6,0,0,1,.55.2l-.08.68a.2.2,0,0,1-.19.16,1.54,1.54,0,0,1-.38-.07,2.5,2.5,0,0,0-.66-.07,2.86,2.86,0,0,0-1.05.18,2.45,2.45,0,0,0-.82.54,3.44,3.44,0,0,0-.64.89A8.34,8.34,0,0,0,373,58v6.61h-1V54.38h.52a.34.34,0,0,1,.25.07.43.43,0,0,1,.09.25Z" style="fill: #fff"/>
        <path d="M380,56.16a5.81,5.81,0,0,1,1.64-1.42,4.08,4.08,0,0,1,2.07-.53,3.84,3.84,0,0,1,1.48.27,2.74,2.74,0,0,1,1.06.77,3.44,3.44,0,0,1,.64,1.21,5.53,5.53,0,0,1,.22,1.6v6.53h-1V58.06a3.49,3.49,0,0,0-.66-2.25,2.42,2.42,0,0,0-2-.82,3.63,3.63,0,0,0-1.86.51A5.25,5.25,0,0,0,380,56.91v7.68h-1V54.38h.54a.27.27,0,0,1,.3.26Z" style="fill: #fff"/>
        <path d="M389.85,55.82a6,6,0,0,1,1.68-1.21,4.7,4.7,0,0,1,2-.41,3.64,3.64,0,0,1,1.44.26,2.65,2.65,0,0,1,1,.75,3.28,3.28,0,0,1,.61,1.18,5.43,5.43,0,0,1,.21,1.55v6.65h-.39a.35.35,0,0,1-.38-.29L395.9,63a10.71,10.71,0,0,1-.84.74,5,5,0,0,1-.87.55,4.5,4.5,0,0,1-1,.35,5.07,5.07,0,0,1-1.15.12,3.39,3.39,0,0,1-1-.15,2.57,2.57,0,0,1-.88-.47,2.3,2.3,0,0,1-.62-.82,2.82,2.82,0,0,1-.23-1.2,2.12,2.12,0,0,1,.37-1.2,3,3,0,0,1,1.16-1,7.7,7.7,0,0,1,2-.66,17.48,17.48,0,0,1,3-.29V57.94a3.43,3.43,0,0,0-.61-2.18,2.18,2.18,0,0,0-1.81-.77,3.43,3.43,0,0,0-1.26.21,4.49,4.49,0,0,0-.88.45,5.6,5.6,0,0,0-.59.45.63.63,0,0,1-.38.21.32.32,0,0,1-.19-.05.46.46,0,0,1-.12-.13Zm6,3.83a19,19,0,0,0-2.51.23,7.22,7.22,0,0,0-1.73.49,2.6,2.6,0,0,0-1,.73,1.55,1.55,0,0,0-.33,1,2.15,2.15,0,0,0,.17.89,1.73,1.73,0,0,0,.45.62,1.81,1.81,0,0,0,.65.35,2.63,2.63,0,0,0,.77.11,4.33,4.33,0,0,0,1.09-.13,4,4,0,0,0,.92-.36,4.54,4.54,0,0,0,.8-.55q.37-.32.73-.69Z" style="fill: #fff"/>
        <path d="M408.35,64.59h-1V55.42h-5.91v6.93a2.15,2.15,0,0,0,.11.72,1.35,1.35,0,0,0,.3.5,1.16,1.16,0,0,0,.45.29,1.6,1.6,0,0,0,.55.09,1.71,1.71,0,0,0,.64-.11,2.63,2.63,0,0,0,.46-.24,2.88,2.88,0,0,0,.32-.24.36.36,0,0,1,.2-.11.22.22,0,0,1,.16.1l.27.43a2.84,2.84,0,0,1-1,.69,3.1,3.1,0,0,1-1.25.26,2.19,2.19,0,0,1-1.62-.58,2.41,2.41,0,0,1-.58-1.78v-7H399a.27.27,0,0,1-.19-.06.22.22,0,0,1-.07-.17v-.38l1.75-.12.25-3.66a.38.38,0,0,1,.08-.16.22.22,0,0,1,.17-.07h.46v3.9h6.9Zm.45-13.86a.79.79,0,0,1-.08.34,1,1,0,0,1-.21.28,1,1,0,0,1-.29.19.87.87,0,0,1-.7,0,.93.93,0,0,1-.48-.48.83.83,0,0,1-.07-.34.9.9,0,0,1,.07-.35.89.89,0,0,1,.2-.29.93.93,0,0,1,.29-.2.89.89,0,0,1,.7,0,1,1,0,0,1,.5.49A.86.86,0,0,1,408.81,50.73Z" style="fill: #fff"/>
        <path d="M415.67,54.21a4.92,4.92,0,0,1,2,.37,4,4,0,0,1,1.46,1.06,4.73,4.73,0,0,1,.91,1.66,7.69,7.69,0,0,1,0,4.34,4.74,4.74,0,0,1-.91,1.65,4,4,0,0,1-1.46,1.06,5.43,5.43,0,0,1-3.93,0,4,4,0,0,1-1.47-1.06,4.68,4.68,0,0,1-.91-1.65,7.66,7.66,0,0,1,0-4.34,4.67,4.67,0,0,1,.91-1.66,4,4,0,0,1,1.47-1.06A4.92,4.92,0,0,1,415.67,54.21Zm0,9.74a3.79,3.79,0,0,0,1.6-.31,3,3,0,0,0,1.14-.9,4,4,0,0,0,.68-1.41,7.7,7.7,0,0,0,0-3.7,4,4,0,0,0-.68-1.42,3.07,3.07,0,0,0-1.14-.91,4.16,4.16,0,0,0-3.19,0,3.06,3.06,0,0,0-1.14.91,4.08,4.08,0,0,0-.69,1.42,7.54,7.54,0,0,0,0,3.7,4,4,0,0,0,.69,1.41,3,3,0,0,0,1.14.9A3.79,3.79,0,0,0,415.67,64Z" style="fill: #fff"/>
        <path d="M423.82,56.16a5.79,5.79,0,0,1,1.64-1.42,4.08,4.08,0,0,1,2.07-.53,3.84,3.84,0,0,1,1.48.27,2.73,2.73,0,0,1,1.06.77,3.4,3.4,0,0,1,.64,1.21,5.49,5.49,0,0,1,.22,1.6v6.53h-1V58.06a3.5,3.5,0,0,0-.66-2.25,2.42,2.42,0,0,0-2-.82,3.62,3.62,0,0,0-1.86.51,5.27,5.27,0,0,0-1.55,1.41v7.68h-1V54.38h.54a.27.27,0,0,1,.3.26Z" style="fill: #fff"/>
        <path d="M433.68,55.82a6,6,0,0,1,1.68-1.21,4.7,4.7,0,0,1,2-.41,3.64,3.64,0,0,1,1.44.26,2.64,2.64,0,0,1,1,.75,3.28,3.28,0,0,1,.61,1.18,5.39,5.39,0,0,1,.21,1.55v6.65h-.39a.35.35,0,0,1-.38-.29L439.73,63a10.93,10.93,0,0,1-.84.74,5,5,0,0,1-.87.55,4.51,4.51,0,0,1-1,.35,5.07,5.07,0,0,1-1.15.12,3.39,3.39,0,0,1-1-.15,2.55,2.55,0,0,1-.88-.47,2.31,2.31,0,0,1-.62-.82,2.84,2.84,0,0,1-.23-1.2,2.12,2.12,0,0,1,.37-1.2,3,3,0,0,1,1.16-1,7.72,7.72,0,0,1,2-.66,17.5,17.5,0,0,1,3-.29V57.94a3.42,3.42,0,0,0-.61-2.18,2.18,2.18,0,0,0-1.81-.77,3.42,3.42,0,0,0-1.26.21,4.51,4.51,0,0,0-.88.45,5.57,5.57,0,0,0-.59.45.63.63,0,0,1-.38.21.31.31,0,0,1-.18-.05.45.45,0,0,1-.12-.13Zm6,3.83a19,19,0,0,0-2.51.23,7.25,7.25,0,0,0-1.74.49,2.59,2.59,0,0,0-1,.73,1.55,1.55,0,0,0-.33,1,2.15,2.15,0,0,0,.17.89,1.75,1.75,0,0,0,.45.62,1.8,1.8,0,0,0,.65.35,2.62,2.62,0,0,0,.77.11,4.32,4.32,0,0,0,1.09-.13,4,4,0,0,0,.92-.36A4.53,4.53,0,0,0,439,63c.25-.21.49-.44.73-.69Z" style="fill: #fff"/>
        <path d="M444.78,49.65V64.59h-1V49.65Z" style="fill: #fff"/>
        <path d="M465.08,50.06V64.59h-.49a.46.46,0,0,1-.22,0,.51.51,0,0,1-.17-.16l-9.44-12.61c0,.21,0,.4,0,.59V64.59h-.92V50.06h.52a.54.54,0,0,1,.22,0,.49.49,0,0,1,.17.16l9.42,12.58c0-.21,0-.4,0-.59V50.06Z" style="fill: #fff"/>
        <path d="M480.77,58v5.16a8.8,8.8,0,0,1-2.32,1.18,8.71,8.71,0,0,1-2.77.41,8.57,8.57,0,0,1-3.1-.53,6.63,6.63,0,0,1-2.35-1.5,6.52,6.52,0,0,1-1.49-2.35,9.37,9.37,0,0,1,0-6.11,6.57,6.57,0,0,1,1.46-2.34,6.5,6.5,0,0,1,2.29-1.5,8.23,8.23,0,0,1,3-.53A9.71,9.71,0,0,1,477,50a7.17,7.17,0,0,1,1.31.33,6.1,6.1,0,0,1,1.13.54,7.69,7.69,0,0,1,1,.74l-.29.45a.3.3,0,0,1-.43.11,2.08,2.08,0,0,1-.44-.29,4.52,4.52,0,0,0-.79-.47,6.77,6.77,0,0,0-1.25-.44,7.23,7.23,0,0,0-1.81-.2,6.9,6.9,0,0,0-2.56.45,5.4,5.4,0,0,0-2,1.29,5.73,5.73,0,0,0-1.24,2.05,8,8,0,0,0-.44,2.72,8.15,8.15,0,0,0,.44,2.75A5.67,5.67,0,0,0,471,62.15a5.49,5.49,0,0,0,2,1.3,7.41,7.41,0,0,0,2.66.45,8.26,8.26,0,0,0,1.2-.08,7.42,7.42,0,0,0,1-.23,6.64,6.64,0,0,0,1-.37q.47-.22,1-.5V58.81H477a.27.27,0,0,1-.19-.07.23.23,0,0,1-.08-.17V58Z" style="fill: #fff"/>
        <path d="M497,57.32a8.83,8.83,0,0,1-.5,3.05A6.76,6.76,0,0,1,495,62.72a6.25,6.25,0,0,1-2.19,1.5,7.76,7.76,0,0,1-5.63,0,6.26,6.26,0,0,1-2.19-1.5,6.74,6.74,0,0,1-1.42-2.34,9.5,9.5,0,0,1,0-6.1A6.74,6.74,0,0,1,485,51.94a6.32,6.32,0,0,1,2.19-1.5A7.21,7.21,0,0,1,490,49.9a7.31,7.31,0,0,1,2.82.53,6.21,6.21,0,0,1,2.19,1.5,6.82,6.82,0,0,1,1.42,2.35A8.8,8.8,0,0,1,497,57.32Zm-1.09,0a8.29,8.29,0,0,0-.42-2.73,5.82,5.82,0,0,0-1.19-2.05,5.15,5.15,0,0,0-1.85-1.29,6.56,6.56,0,0,0-4.76,0,5.19,5.19,0,0,0-1.85,1.29,5.84,5.84,0,0,0-1.2,2.05,9,9,0,0,0,0,5.47,5.86,5.86,0,0,0,1.2,2,5.14,5.14,0,0,0,1.85,1.28,6.63,6.63,0,0,0,4.76,0,5.1,5.1,0,0,0,1.85-1.28,5.84,5.84,0,0,0,1.19-2A8.27,8.27,0,0,0,495.87,57.32Z" style="fill: #fff"/>
        <path d="M505.26,55.64a.26.26,0,0,1-.24.14.53.53,0,0,1-.29-.13,4.39,4.39,0,0,0-.47-.29,3.81,3.81,0,0,0-.72-.29,3.73,3.73,0,0,0-1-.13,3,3,0,0,0-1,.16,2.49,2.49,0,0,0-.78.43,1.88,1.88,0,0,0-.5.62,1.66,1.66,0,0,0-.17.74,1.28,1.28,0,0,0,.25.8,2.14,2.14,0,0,0,.64.54,4.7,4.7,0,0,0,.91.39l1,.33q.53.16,1,.36a3.79,3.79,0,0,1,.91.5,2.39,2.39,0,0,1,.64.73,2.09,2.09,0,0,1,.25,1,3.25,3.25,0,0,1-.24,1.24,2.76,2.76,0,0,1-.69,1,3.34,3.34,0,0,1-1.12.67,4.38,4.38,0,0,1-1.53.25,4.59,4.59,0,0,1-1.86-.34,5.22,5.22,0,0,1-1.4-.9l.23-.35a.4.4,0,0,1,.12-.12.34.34,0,0,1,.18,0,.55.55,0,0,1,.32.16,3.53,3.53,0,0,0,.51.35,4.39,4.39,0,0,0,.78.35,3.53,3.53,0,0,0,1.16.16,3.3,3.3,0,0,0,1.14-.18,2.35,2.35,0,0,0,.82-.49,2,2,0,0,0,.5-.72,2.31,2.31,0,0,0,.17-.88,1.4,1.4,0,0,0-.25-.85,2.1,2.1,0,0,0-.65-.57,4.45,4.45,0,0,0-.91-.4l-1-.33c-.36-.11-.7-.23-1-.36a3.82,3.82,0,0,1-.91-.49,2.37,2.37,0,0,1-.65-.72,2.09,2.09,0,0,1-.25-1.06,2.43,2.43,0,0,1,.24-1A2.66,2.66,0,0,1,500,55a3.29,3.29,0,0,1,1.06-.61,4.12,4.12,0,0,1,1.41-.23,4.77,4.77,0,0,1,1.66.27,3.92,3.92,0,0,1,1.32.82Z" style="fill: #fff"/>
      </g>
      <g>
        <path d="M314.26,91.38A5.78,5.78,0,1,1,320,97.15,5.79,5.79,0,0,1,314.26,91.38Z" style="fill: #1868b7"/>
        <path d="M314.26,91.38A5.78,5.78,0,1,1,320,97.15,5.79,5.79,0,0,1,314.26,91.38Z" style="fill: none;stroke: #fff;stroke-linecap: round;stroke-linejoin: round;stroke-width: 2px"/>
      </g>
      <g>
        <path d="M346.83,98.36v.89h-7.94V84.73H340V98.36Z" style="fill: #fff"/>
        <path d="M352.75,88.88a4.92,4.92,0,0,1,2,.37,4,4,0,0,1,1.46,1.06,4.73,4.73,0,0,1,.91,1.66,7.69,7.69,0,0,1,0,4.34,4.74,4.74,0,0,1-.91,1.65A4,4,0,0,1,354.71,99a5.43,5.43,0,0,1-3.93,0A4,4,0,0,1,349.31,98a4.68,4.68,0,0,1-.91-1.65,7.66,7.66,0,0,1,0-4.34,4.67,4.67,0,0,1,.91-1.66,4,4,0,0,1,1.47-1.06A4.92,4.92,0,0,1,352.75,88.88Zm0,9.74a3.79,3.79,0,0,0,1.6-.31,3,3,0,0,0,1.14-.9,4,4,0,0,0,.68-1.41,7.7,7.7,0,0,0,0-3.7,4,4,0,0,0-.68-1.42,3.07,3.07,0,0,0-1.14-.91,4.16,4.16,0,0,0-3.19,0,3.06,3.06,0,0,0-1.14.91,4.08,4.08,0,0,0-.69,1.42,7.54,7.54,0,0,0,0,3.7,4,4,0,0,0,.69,1.41,3,3,0,0,0,1.14.9A3.79,3.79,0,0,0,352.75,98.62Z" style="fill: #fff"/>
        <path d="M366.9,90.4l-.1.09a.2.2,0,0,1-.13,0,.52.52,0,0,1-.28-.14,3.45,3.45,0,0,0-.47-.3,4,4,0,0,0-.74-.3,3.68,3.68,0,0,0-1.08-.14,3.74,3.74,0,0,0-1.57.31,3.17,3.17,0,0,0-1.15.9,4,4,0,0,0-.71,1.42,6.73,6.73,0,0,0-.24,1.87,6.59,6.59,0,0,0,.25,1.91,4.07,4.07,0,0,0,.71,1.4,3,3,0,0,0,1.12.87,3.51,3.51,0,0,0,1.46.3,3.77,3.77,0,0,0,1.24-.17,4,4,0,0,0,.82-.38,3.45,3.45,0,0,0,.51-.38.51.51,0,0,1,.31-.18.25.25,0,0,1,.2.1l.26.33a3,3,0,0,1-.6.58,4.06,4.06,0,0,1-.81.46,5,5,0,0,1-1,.3,5.48,5.48,0,0,1-1.11.11A4.38,4.38,0,0,1,362,99a3.86,3.86,0,0,1-1.39-1,4.8,4.8,0,0,1-.9-1.65,7.66,7.66,0,0,1,0-4.35,4.77,4.77,0,0,1,.9-1.66,4.09,4.09,0,0,1,1.45-1.08,4.75,4.75,0,0,1,2-.38,4.6,4.6,0,0,1,1.77.32,4.34,4.34,0,0,1,1.34.86Z" style="fill: #fff"/>
        <path d="M369.31,90.49A6,6,0,0,1,371,89.28a4.7,4.7,0,0,1,2-.41,3.64,3.64,0,0,1,1.44.26,2.65,2.65,0,0,1,1,.75,3.28,3.28,0,0,1,.61,1.18,5.48,5.48,0,0,1,.21,1.55v6.65h-.39a.35.35,0,0,1-.38-.29l-.14-1.31a10.48,10.48,0,0,1-.84.74,4.94,4.94,0,0,1-.87.55,4.5,4.5,0,0,1-1,.35,5.05,5.05,0,0,1-1.15.12,3.38,3.38,0,0,1-1-.15,2.56,2.56,0,0,1-.88-.47A2.27,2.27,0,0,1,369,98a2.82,2.82,0,0,1-.23-1.2,2.13,2.13,0,0,1,.37-1.2,3,3,0,0,1,1.16-1,7.72,7.72,0,0,1,2-.66,17.49,17.49,0,0,1,3-.29V92.6a3.42,3.42,0,0,0-.61-2.18,2.18,2.18,0,0,0-1.81-.77,3.43,3.43,0,0,0-1.26.21,4.57,4.57,0,0,0-.88.45,5.7,5.7,0,0,0-.59.45.63.63,0,0,1-.38.21.32.32,0,0,1-.19-.05.48.48,0,0,1-.12-.13Zm6,3.83a19,19,0,0,0-2.51.23,7.24,7.24,0,0,0-1.73.49,2.59,2.59,0,0,0-1,.73,1.55,1.55,0,0,0-.33,1,2.15,2.15,0,0,0,.17.89,1.73,1.73,0,0,0,.45.62,1.81,1.81,0,0,0,.65.35,2.62,2.62,0,0,0,.77.11,4.35,4.35,0,0,0,1.09-.13,4.05,4.05,0,0,0,.92-.36,4.48,4.48,0,0,0,.8-.55q.37-.32.73-.69Z" style="fill: #fff"/>
        <path d="M380.49,84.32V99.26h-1V84.32Z" style="fill: #fff"/>
        <path d="M401,84.73V99.26h-.49a.46.46,0,0,1-.22,0,.51.51,0,0,1-.17-.16l-9.44-12.61c0,.21,0,.4,0,.59V99.26h-.92V84.73h.52a.54.54,0,0,1,.22,0,.49.49,0,0,1,.17.16l9.42,12.58c0-.21,0-.4,0-.59V84.73Z" style="fill: #fff"/>
        <path d="M416.72,92.66v5.16A8.82,8.82,0,0,1,414.4,99a8.71,8.71,0,0,1-2.77.41,8.57,8.57,0,0,1-3.1-.53,6.63,6.63,0,0,1-2.35-1.5A6.52,6.52,0,0,1,404.69,95a8.63,8.63,0,0,1-.52-3.06,8.74,8.74,0,0,1,.51-3.05,6.56,6.56,0,0,1,1.46-2.34,6.48,6.48,0,0,1,2.29-1.5,8.24,8.24,0,0,1,3-.53,9.71,9.71,0,0,1,1.53.11,7.13,7.13,0,0,1,1.31.33,6.15,6.15,0,0,1,1.13.54,7.59,7.59,0,0,1,1,.74l-.29.45a.3.3,0,0,1-.43.11,2.12,2.12,0,0,1-.44-.29,4.45,4.45,0,0,0-.79-.47,6.82,6.82,0,0,0-1.25-.44,7.23,7.23,0,0,0-1.81-.2,6.91,6.91,0,0,0-2.56.45,5.41,5.41,0,0,0-2,1.29,5.75,5.75,0,0,0-1.24,2.05,8,8,0,0,0-.44,2.72,8.15,8.15,0,0,0,.44,2.75,5.67,5.67,0,0,0,1.26,2.07,5.49,5.49,0,0,0,2,1.3,7.41,7.41,0,0,0,2.66.45,8.23,8.23,0,0,0,1.2-.08,7.48,7.48,0,0,0,1-.23,6.69,6.69,0,0,0,1-.37q.47-.22,1-.5V93.48H413a.27.27,0,0,1-.19-.07.22.22,0,0,1-.08-.17v-.57Z" style="fill: #fff"/>
        <path d="M433,92a8.8,8.8,0,0,1-.5,3.05,6.78,6.78,0,0,1-1.42,2.34,6.26,6.26,0,0,1-2.19,1.5,7.76,7.76,0,0,1-5.63,0,6.26,6.26,0,0,1-2.19-1.5A6.78,6.78,0,0,1,419.65,95a9.48,9.48,0,0,1,0-6.1,6.78,6.78,0,0,1,1.42-2.34,6.32,6.32,0,0,1,2.19-1.5,7.19,7.19,0,0,1,2.81-.53,7.31,7.31,0,0,1,2.82.53,6.22,6.22,0,0,1,2.19,1.5,6.83,6.83,0,0,1,1.42,2.35A8.77,8.77,0,0,1,433,92Zm-1.09,0a8.29,8.29,0,0,0-.42-2.73,5.84,5.84,0,0,0-1.19-2.05,5.13,5.13,0,0,0-1.85-1.29,6.55,6.55,0,0,0-4.75,0,5.18,5.18,0,0,0-1.85,1.29,5.84,5.84,0,0,0-1.2,2.05,9,9,0,0,0,0,5.47,5.86,5.86,0,0,0,1.2,2,5.14,5.14,0,0,0,1.85,1.28,6.62,6.62,0,0,0,4.75,0,5.08,5.08,0,0,0,1.85-1.28,5.86,5.86,0,0,0,1.19-2A8.27,8.27,0,0,0,431.91,92Z" style="fill: #fff"/>
        <path d="M441.37,90.3a.26.26,0,0,1-.24.14.54.54,0,0,1-.29-.13,4.24,4.24,0,0,0-.47-.29,3.82,3.82,0,0,0-.72-.29,3.73,3.73,0,0,0-1-.13,3,3,0,0,0-1,.16,2.48,2.48,0,0,0-.78.43,1.87,1.87,0,0,0-.5.62,1.65,1.65,0,0,0-.18.74,1.27,1.27,0,0,0,.25.8,2.11,2.11,0,0,0,.64.54,4.68,4.68,0,0,0,.91.39l1,.33c.35.11.7.23,1,.36a3.78,3.78,0,0,1,.91.5,2.37,2.37,0,0,1,.64.73,2.08,2.08,0,0,1,.25,1,3.22,3.22,0,0,1-.24,1.24,2.78,2.78,0,0,1-.69,1,3.34,3.34,0,0,1-1.12.67,4.37,4.37,0,0,1-1.53.25,4.59,4.59,0,0,1-1.86-.34,5.24,5.24,0,0,1-1.4-.9l.23-.35a.38.38,0,0,1,.12-.12.34.34,0,0,1,.18,0,.54.54,0,0,1,.32.16,3.6,3.6,0,0,0,.51.35,4.43,4.43,0,0,0,.78.35,3.53,3.53,0,0,0,1.16.16,3.31,3.31,0,0,0,1.14-.18,2.36,2.36,0,0,0,.82-.49,2,2,0,0,0,.5-.72,2.31,2.31,0,0,0,.17-.88,1.41,1.41,0,0,0-.25-.85A2.09,2.09,0,0,0,440,95a4.44,4.44,0,0,0-.91-.4l-1-.33q-.53-.16-1-.36a3.79,3.79,0,0,1-.91-.49,2.33,2.33,0,0,1-.65-.72,2.08,2.08,0,0,1-.25-1.06,2.43,2.43,0,0,1,.24-1,2.66,2.66,0,0,1,.67-.88,3.29,3.29,0,0,1,1.06-.61,4.13,4.13,0,0,1,1.41-.23,4.77,4.77,0,0,1,1.66.27,3.91,3.91,0,0,1,1.32.82Z" style="fill: #fff"/>
      </g>
      <g>
        <path d="M314.26,126a5.78,5.78,0,1,1,5.78,5.78A5.79,5.79,0,0,1,314.26,126Z" style="fill: #257bc1"/>
        <path d="M314.26,126a5.78,5.78,0,1,1,5.78,5.78A5.79,5.79,0,0,1,314.26,126Z" style="fill: none;stroke: #fff;stroke-linecap: round;stroke-linejoin: round;stroke-width: 2px"/>
      </g>
      <g>
        <path d="M350.5,127.33v5.16a8.82,8.82,0,0,1-2.32,1.18,8.71,8.71,0,0,1-2.77.41,8.57,8.57,0,0,1-3.1-.53,6.63,6.63,0,0,1-2.35-1.5,6.52,6.52,0,0,1-1.49-2.35,8.63,8.63,0,0,1-.52-3.06,8.74,8.74,0,0,1,.51-3.05,6.56,6.56,0,0,1,1.46-2.34,6.48,6.48,0,0,1,2.29-1.5,8.24,8.24,0,0,1,3-.53,9.71,9.71,0,0,1,1.53.11,7.13,7.13,0,0,1,1.31.33,6.15,6.15,0,0,1,1.13.54,7.59,7.59,0,0,1,1,.74l-.29.45a.3.3,0,0,1-.43.11,2.12,2.12,0,0,1-.44-.29,4.45,4.45,0,0,0-.79-.47,6.82,6.82,0,0,0-1.25-.44,7.23,7.23,0,0,0-1.81-.2,6.91,6.91,0,0,0-2.56.45,5.41,5.41,0,0,0-2,1.29,5.75,5.75,0,0,0-1.24,2.05,8,8,0,0,0-.44,2.72,8.15,8.15,0,0,0,.44,2.75,5.67,5.67,0,0,0,1.26,2.07,5.49,5.49,0,0,0,2,1.3,7.41,7.41,0,0,0,2.66.45,8.23,8.23,0,0,0,1.2-.08,7.48,7.48,0,0,0,1-.23,6.69,6.69,0,0,0,1-.37q.47-.22,1-.5v-3.91h-2.78a.27.27,0,0,1-.19-.07.22.22,0,0,1-.08-.17v-.57Z" style="fill: #fff"/>
        <path d="M357.88,123.54a4.92,4.92,0,0,1,2,.37,4,4,0,0,1,1.46,1.06,4.73,4.73,0,0,1,.91,1.66,7.69,7.69,0,0,1,0,4.34,4.74,4.74,0,0,1-.91,1.65,4,4,0,0,1-1.46,1.06,5.43,5.43,0,0,1-3.93,0,4,4,0,0,1-1.47-1.06,4.68,4.68,0,0,1-.91-1.65,7.66,7.66,0,0,1,0-4.34,4.67,4.67,0,0,1,.91-1.66,4,4,0,0,1,1.47-1.06A4.92,4.92,0,0,1,357.88,123.54Zm0,9.74a3.79,3.79,0,0,0,1.6-.31,3,3,0,0,0,1.14-.9,4,4,0,0,0,.68-1.41,7.7,7.7,0,0,0,0-3.7,4,4,0,0,0-.68-1.42,3.07,3.07,0,0,0-1.14-.91,4.16,4.16,0,0,0-3.19,0,3.06,3.06,0,0,0-1.14.91,4.08,4.08,0,0,0-.69,1.42,7.54,7.54,0,0,0,0,3.7,4,4,0,0,0,.69,1.41,3,3,0,0,0,1.14.9A3.79,3.79,0,0,0,357.88,133.28Z" style="fill: #fff"/>
        <path d="M373.81,123.7l-4.31,10.22h-.86l-4.31-10.22h.77a.36.36,0,0,1,.24.08.38.38,0,0,1,.12.17l3.38,8.06a7.57,7.57,0,0,1,.25.89,6.43,6.43,0,0,1,.26-.89l3.39-8.06a.46.46,0,0,1,.14-.18.34.34,0,0,1,.21-.07Z" style="fill: #fff"/>
        <path d="M376.55,128.41v.2a6.92,6.92,0,0,0,.27,2,4.14,4.14,0,0,0,.76,1.46,3.12,3.12,0,0,0,1.19.89,3.93,3.93,0,0,0,1.56.3,4.67,4.67,0,0,0,1.33-.17,5,5,0,0,0,1-.38,5.44,5.44,0,0,0,.61-.38.68.68,0,0,1,.33-.17.24.24,0,0,1,.21.1l.27.33a2.77,2.77,0,0,1-.65.58,4.66,4.66,0,0,1-.9.46,6.59,6.59,0,0,1-1.07.3,5.87,5.87,0,0,1-1.14.11,4.88,4.88,0,0,1-1.91-.36,4.07,4.07,0,0,1-1.48-1.06,4.87,4.87,0,0,1-1-1.71,7.4,7.4,0,0,1-.33-2.31,6.33,6.33,0,0,1,.31-2,4.64,4.64,0,0,1,.9-1.6,4.11,4.11,0,0,1,1.45-1.05,4.76,4.76,0,0,1,1.95-.38,4.25,4.25,0,0,1,1.6.3,3.63,3.63,0,0,1,1.28.87,4.06,4.06,0,0,1,.86,1.4,5.38,5.38,0,0,1,.31,1.91.55.55,0,0,1-.06.31.24.24,0,0,1-.21.08Zm6.82-.63a4.42,4.42,0,0,0-.23-1.47,3.12,3.12,0,0,0-.65-1.1,2.84,2.84,0,0,0-1-.69,3.31,3.31,0,0,0-1.28-.24,3.85,3.85,0,0,0-1.42.25,3.11,3.11,0,0,0-1.08.71,3.56,3.56,0,0,0-.73,1.11,5.13,5.13,0,0,0-.37,1.45Z" style="fill: #fff"/>
        <path d="M388.16,126.17a6.27,6.27,0,0,1,.54-1.11,3.5,3.5,0,0,1,.7-.83,2.91,2.91,0,0,1,.88-.52,3.13,3.13,0,0,1,1.08-.18,3.48,3.48,0,0,1,.63.06,1.6,1.6,0,0,1,.55.2l-.08.68a.2.2,0,0,1-.2.16,1.53,1.53,0,0,1-.37-.07,2.5,2.5,0,0,0-.66-.07,2.85,2.85,0,0,0-1.05.18,2.44,2.44,0,0,0-.82.54,3.41,3.41,0,0,0-.64.89,8.34,8.34,0,0,0-.5,1.22v6.61h-1V123.7h.52a.34.34,0,0,1,.25.07.42.42,0,0,1,.09.25Z" style="fill: #fff"/>
        <path d="M395.73,125.49a5.79,5.79,0,0,1,1.64-1.42,4.07,4.07,0,0,1,2.07-.53,3.84,3.84,0,0,1,1.48.27,2.73,2.73,0,0,1,1.06.77,3.42,3.42,0,0,1,.64,1.21,5.53,5.53,0,0,1,.22,1.6v6.53h-1v-6.53a3.5,3.5,0,0,0-.66-2.25,2.42,2.42,0,0,0-2-.82,3.63,3.63,0,0,0-1.86.51,5.25,5.25,0,0,0-1.55,1.41v7.68h-1V123.7h.54a.27.27,0,0,1,.3.26Z" style="fill: #fff"/>
        <path d="M406.39,133.92V123.7h.54a.27.27,0,0,1,.3.26l.09,1.48a5.31,5.31,0,0,1,1.36-1.37,3,3,0,0,1,1.74-.52,2.48,2.48,0,0,1,1.79.65,3.36,3.36,0,0,1,.91,1.8,3.55,3.55,0,0,1,.52-1.09,3.21,3.21,0,0,1,.76-.76,3.07,3.07,0,0,1,.94-.45,3.78,3.78,0,0,1,1-.14,3.52,3.52,0,0,1,1.36.25,2.67,2.67,0,0,1,1,.74,3.41,3.41,0,0,1,.65,1.21,5.49,5.49,0,0,1,.23,1.64v6.53h-1v-6.53a3.52,3.52,0,0,0-.65-2.28,2.26,2.26,0,0,0-1.85-.79,2.72,2.72,0,0,0-1,.2,2.47,2.47,0,0,0-.86.58,2.77,2.77,0,0,0-.6,1,3.72,3.72,0,0,0-.22,1.33v6.53h-1v-6.53a3.76,3.76,0,0,0-.59-2.28,2,2,0,0,0-1.73-.79,2.64,2.64,0,0,0-1.54.49,4.71,4.71,0,0,0-1.26,1.36v7.74Z" style="fill: #fff"/>
        <path d="M423.58,128.41v.2a6.93,6.93,0,0,0,.27,2,4.14,4.14,0,0,0,.76,1.46,3.14,3.14,0,0,0,1.19.89,3.93,3.93,0,0,0,1.56.3,4.68,4.68,0,0,0,1.33-.17,5,5,0,0,0,1-.38,5.18,5.18,0,0,0,.61-.38.69.69,0,0,1,.33-.17.24.24,0,0,1,.21.1l.27.33a2.81,2.81,0,0,1-.65.58,4.62,4.62,0,0,1-.9.46,6.55,6.55,0,0,1-1.07.3,5.88,5.88,0,0,1-1.14.11,4.88,4.88,0,0,1-1.91-.36,4,4,0,0,1-1.48-1.06,4.83,4.83,0,0,1-1-1.71,7.36,7.36,0,0,1-.33-2.31,6.26,6.26,0,0,1,.31-2,4.61,4.61,0,0,1,.9-1.6,4.11,4.11,0,0,1,1.45-1.05,4.75,4.75,0,0,1,1.95-.38,4.26,4.26,0,0,1,1.6.3,3.65,3.65,0,0,1,1.28.87,4.1,4.1,0,0,1,.86,1.4,5.41,5.41,0,0,1,.31,1.91.54.54,0,0,1-.06.31.24.24,0,0,1-.21.08Zm6.82-.63a4.35,4.35,0,0,0-.23-1.47,3.11,3.11,0,0,0-.65-1.1,2.85,2.85,0,0,0-1-.69,3.31,3.31,0,0,0-1.28-.24,3.84,3.84,0,0,0-1.42.25,3.1,3.1,0,0,0-1.08.71,3.54,3.54,0,0,0-.73,1.11,5.17,5.17,0,0,0-.37,1.45Z" style="fill: #fff"/>
        <path d="M435.18,125.49a5.81,5.81,0,0,1,1.64-1.42,4.08,4.08,0,0,1,2.07-.53,3.84,3.84,0,0,1,1.48.27,2.74,2.74,0,0,1,1.06.77,3.44,3.44,0,0,1,.64,1.21,5.53,5.53,0,0,1,.22,1.6v6.53h-1v-6.53a3.49,3.49,0,0,0-.66-2.25,2.42,2.42,0,0,0-2-.82,3.63,3.63,0,0,0-1.86.51,5.25,5.25,0,0,0-1.54,1.41v7.68h-1V123.7h.54a.27.27,0,0,1,.3.26Z" style="fill: #fff"/>
        <path d="M448.64,134.08a2.19,2.19,0,0,1-1.62-.58,2.4,2.4,0,0,1-.58-1.78v-7H445a.27.27,0,0,1-.18-.06.22.22,0,0,1-.07-.17v-.38l1.75-.12.25-3.66a.36.36,0,0,1,.08-.16.22.22,0,0,1,.17-.07h.46V124h3.22v.73h-3.22v6.93a2.18,2.18,0,0,0,.11.72,1.36,1.36,0,0,0,.3.5,1.17,1.17,0,0,0,.45.29,1.6,1.6,0,0,0,.56.09,1.71,1.71,0,0,0,.64-.11,2.68,2.68,0,0,0,.46-.24,3,3,0,0,0,.32-.24.35.35,0,0,1,.2-.11.22.22,0,0,1,.16.1l.27.43a2.85,2.85,0,0,1-1,.69A3.09,3.09,0,0,1,448.64,134.08Z" style="fill: #fff"/>
      </g>
      <g>
        <path d="M314.26,161.33A5.78,5.78,0,1,1,320,167.1,5.79,5.79,0,0,1,314.26,161.33Z" style="fill: #338ecc"/>
        <path d="M314.26,161.33A5.78,5.78,0,1,1,320,167.1,5.79,5.79,0,0,1,314.26,161.33Z" style="fill: none;stroke: #fff;stroke-linecap: round;stroke-linejoin: round;stroke-width: 2px"/>
      </g>
      <g>
        <path d="M340,154.93V161h6.62v.87H340v6.67h-1.06V154.05h8.71v.87Z" style="fill: #fff"/>
        <path d="M354,158.2a4.92,4.92,0,0,1,2,.37,4,4,0,0,1,1.46,1.06,4.74,4.74,0,0,1,.91,1.66,7.69,7.69,0,0,1,0,4.34,4.75,4.75,0,0,1-.91,1.65,4,4,0,0,1-1.46,1.06,5.43,5.43,0,0,1-3.93,0,4,4,0,0,1-1.47-1.06,4.67,4.67,0,0,1-.91-1.65,7.66,7.66,0,0,1,0-4.34,4.66,4.66,0,0,1,.91-1.66,4.05,4.05,0,0,1,1.47-1.06A4.92,4.92,0,0,1,354,158.2Zm0,9.74a3.79,3.79,0,0,0,1.6-.31,3,3,0,0,0,1.14-.9,4,4,0,0,0,.68-1.41,7.7,7.7,0,0,0,0-3.7,4,4,0,0,0-.68-1.42,3.07,3.07,0,0,0-1.14-.91,4.16,4.16,0,0,0-3.19,0,3.06,3.06,0,0,0-1.14.91,4.08,4.08,0,0,0-.69,1.42,7.54,7.54,0,0,0,0,3.7,4,4,0,0,0,.69,1.41,3,3,0,0,0,1.14.9A3.79,3.79,0,0,0,354,167.95Z" style="fill: #fff"/>
        <path d="M369.37,158.37v10.22h-.54a.28.28,0,0,1-.3-.27l-.09-1.52a5.79,5.79,0,0,1-1.64,1.42,4.07,4.07,0,0,1-2.07.53,3.82,3.82,0,0,1-1.49-.27,2.74,2.74,0,0,1-1.06-.77,3.4,3.4,0,0,1-.64-1.21,5.49,5.49,0,0,1-.22-1.6v-6.53h1v6.53a3.5,3.5,0,0,0,.66,2.25,2.42,2.42,0,0,0,2,.82,3.63,3.63,0,0,0,1.86-.51,5.27,5.27,0,0,0,1.55-1.41v-7.68Z" style="fill: #fff"/>
        <path d="M373.64,160.15a5.81,5.81,0,0,1,1.64-1.42,4.08,4.08,0,0,1,2.07-.53,3.84,3.84,0,0,1,1.48.27,2.74,2.74,0,0,1,1.06.77,3.44,3.44,0,0,1,.64,1.21,5.53,5.53,0,0,1,.22,1.6v6.53h-1v-6.53a3.49,3.49,0,0,0-.66-2.25,2.42,2.42,0,0,0-2-.82,3.63,3.63,0,0,0-1.86.51,5.25,5.25,0,0,0-1.54,1.41v7.68h-1V158.37h.54a.27.27,0,0,1,.3.26Z" style="fill: #fff"/>
        <path d="M391.93,153.64v14.94h-.53a.28.28,0,0,1-.31-.27l-.1-1.61a5.42,5.42,0,0,1-1.58,1.47,3.86,3.86,0,0,1-2,.54,3.55,3.55,0,0,1-2.94-1.3,6.16,6.16,0,0,1-1-3.91,7.19,7.19,0,0,1,.29-2.09,5,5,0,0,1,.86-1.68,4.06,4.06,0,0,1,1.39-1.12,4.24,4.24,0,0,1,1.91-.41,4,4,0,0,1,1.8.38A3.76,3.76,0,0,1,391,159.7v-6.06Zm-1,6.92a3.5,3.5,0,0,0-1.3-1.24,3.91,3.91,0,0,0-3.21,0,3.12,3.12,0,0,0-1.14.93,4.18,4.18,0,0,0-.69,1.44,6.87,6.87,0,0,0-.23,1.84,5.45,5.45,0,0,0,.84,3.35,2.88,2.88,0,0,0,2.42,1.07,3.38,3.38,0,0,0,1.84-.52,5,5,0,0,0,1.47-1.47Z" style="fill: #fff"/>
        <path d="M395,159.81a6,6,0,0,1,1.68-1.21,4.7,4.7,0,0,1,2-.41,3.64,3.64,0,0,1,1.44.26,2.65,2.65,0,0,1,1,.75,3.28,3.28,0,0,1,.61,1.18,5.48,5.48,0,0,1,.21,1.55v6.65h-.39a.35.35,0,0,1-.38-.29L401,167a10.48,10.48,0,0,1-.84.74,4.94,4.94,0,0,1-.87.55,4.5,4.5,0,0,1-1,.35,5.05,5.05,0,0,1-1.15.12,3.38,3.38,0,0,1-1-.15,2.56,2.56,0,0,1-.88-.47,2.27,2.27,0,0,1-.62-.82,2.82,2.82,0,0,1-.23-1.2,2.13,2.13,0,0,1,.37-1.2,3,3,0,0,1,1.16-1,7.72,7.72,0,0,1,2-.66,17.49,17.49,0,0,1,3-.29v-1.07a3.42,3.42,0,0,0-.61-2.18,2.18,2.18,0,0,0-1.81-.77,3.43,3.43,0,0,0-1.26.21,4.57,4.57,0,0,0-.88.45,5.7,5.7,0,0,0-.59.45.63.63,0,0,1-.38.21.32.32,0,0,1-.19-.05.48.48,0,0,1-.12-.13Zm6,3.83a19,19,0,0,0-2.51.23,7.24,7.24,0,0,0-1.73.49,2.59,2.59,0,0,0-1,.73,1.55,1.55,0,0,0-.33,1,2.15,2.15,0,0,0,.17.89,1.73,1.73,0,0,0,.45.62,1.81,1.81,0,0,0,.65.35,2.62,2.62,0,0,0,.77.11,4.35,4.35,0,0,0,1.09-.13,4.05,4.05,0,0,0,.92-.36,4.48,4.48,0,0,0,.8-.55q.37-.32.73-.69Z" style="fill: #fff"/>
        <path d="M413.67,168.58h-1v-9.17h-5.91v6.93a2.15,2.15,0,0,0,.11.72,1.35,1.35,0,0,0,.3.5,1.16,1.16,0,0,0,.45.29,1.6,1.6,0,0,0,.55.09,1.71,1.71,0,0,0,.64-.11,2.63,2.63,0,0,0,.46-.24,2.88,2.88,0,0,0,.32-.24.36.36,0,0,1,.2-.11.22.22,0,0,1,.16.1l.27.43a2.84,2.84,0,0,1-1,.69,3.1,3.1,0,0,1-1.25.26,2.19,2.19,0,0,1-1.62-.58,2.41,2.41,0,0,1-.58-1.78v-7h-1.47a.27.27,0,0,1-.19-.06.22.22,0,0,1-.07-.17v-.38l1.75-.12.25-3.66a.38.38,0,0,1,.08-.16.22.22,0,0,1,.17-.07h.46v3.9h6.9Zm.45-13.86a.79.79,0,0,1-.08.34,1,1,0,0,1-.21.28,1,1,0,0,1-.29.19.87.87,0,0,1-.7,0,.93.93,0,0,1-.48-.48.83.83,0,0,1-.07-.34.9.9,0,0,1,.07-.35.89.89,0,0,1,.2-.29.93.93,0,0,1,.29-.2.89.89,0,0,1,.7,0,1,1,0,0,1,.5.49A.86.86,0,0,1,414.12,154.72Z" style="fill: #fff"/>
        <path d="M421.18,158.2a4.93,4.93,0,0,1,2,.37,4,4,0,0,1,1.46,1.06,4.71,4.71,0,0,1,.91,1.66,7.66,7.66,0,0,1,0,4.34,4.72,4.72,0,0,1-.91,1.65,4,4,0,0,1-1.46,1.06,5.43,5.43,0,0,1-3.93,0,4,4,0,0,1-1.47-1.06,4.67,4.67,0,0,1-.91-1.65,7.66,7.66,0,0,1,0-4.34,4.66,4.66,0,0,1,.91-1.66,4.05,4.05,0,0,1,1.47-1.06A4.92,4.92,0,0,1,421.18,158.2Zm0,9.74a3.79,3.79,0,0,0,1.6-.31,3,3,0,0,0,1.14-.9,4,4,0,0,0,.68-1.41,7.66,7.66,0,0,0,0-3.7,4,4,0,0,0-.68-1.42,3.06,3.06,0,0,0-1.14-.91,4.16,4.16,0,0,0-3.19,0,3,3,0,0,0-1.14.91,4.08,4.08,0,0,0-.69,1.42,7.54,7.54,0,0,0,0,3.7,4,4,0,0,0,.69,1.41,3,3,0,0,0,1.14.9A3.78,3.78,0,0,0,421.18,167.95Z" style="fill: #fff"/>
        <path d="M429.5,160.15a5.81,5.81,0,0,1,1.64-1.42,4.08,4.08,0,0,1,2.07-.53,3.84,3.84,0,0,1,1.48.27,2.74,2.74,0,0,1,1.06.77,3.44,3.44,0,0,1,.64,1.21,5.53,5.53,0,0,1,.22,1.6v6.53h-1v-6.53a3.49,3.49,0,0,0-.66-2.25,2.42,2.42,0,0,0-2-.82,3.63,3.63,0,0,0-1.86.51,5.25,5.25,0,0,0-1.54,1.41v7.68h-1V158.37h.54a.27.27,0,0,1,.3.26Z" style="fill: #fff"/>
        <path d="M445.46,159.63a.26.26,0,0,1-.24.14.54.54,0,0,1-.29-.13,4.12,4.12,0,0,0-.47-.29,3.82,3.82,0,0,0-.72-.29,3.72,3.72,0,0,0-1-.13,3,3,0,0,0-1,.16,2.49,2.49,0,0,0-.78.43,1.89,1.89,0,0,0-.5.62,1.66,1.66,0,0,0-.17.74,1.26,1.26,0,0,0,.25.8,2.1,2.1,0,0,0,.64.54,4.71,4.71,0,0,0,.91.39l1,.33q.53.16,1,.36a3.79,3.79,0,0,1,.91.5,2.36,2.36,0,0,1,.64.73,2.06,2.06,0,0,1,.25,1,3.22,3.22,0,0,1-.24,1.24,2.77,2.77,0,0,1-.69,1,3.35,3.35,0,0,1-1.13.67,4.37,4.37,0,0,1-1.53.25,4.58,4.58,0,0,1-1.86-.34,5.22,5.22,0,0,1-1.4-.9l.23-.35a.36.36,0,0,1,.12-.12.33.33,0,0,1,.18,0,.55.55,0,0,1,.32.16,3.58,3.58,0,0,0,.51.35,4.44,4.44,0,0,0,.79.35,3.53,3.53,0,0,0,1.15.16,3.31,3.31,0,0,0,1.14-.18,2.38,2.38,0,0,0,.82-.49,2,2,0,0,0,.5-.72,2.29,2.29,0,0,0,.17-.88,1.42,1.42,0,0,0-.25-.85,2.12,2.12,0,0,0-.65-.57,4.48,4.48,0,0,0-.91-.4l-1-.33c-.36-.11-.7-.23-1-.36a3.82,3.82,0,0,1-.91-.49,2.37,2.37,0,0,1-.65-.72,2.09,2.09,0,0,1-.25-1.06,2.43,2.43,0,0,1,.24-1,2.68,2.68,0,0,1,.67-.88,3.31,3.31,0,0,1,1.06-.61,4.14,4.14,0,0,1,1.41-.23,4.78,4.78,0,0,1,1.66.27,3.91,3.91,0,0,1,1.32.82Z" style="fill: #fff"/>
        <path d="M453.82,159.81a6,6,0,0,1,1.68-1.21,4.7,4.7,0,0,1,2-.41,3.64,3.64,0,0,1,1.44.26,2.65,2.65,0,0,1,1,.75,3.28,3.28,0,0,1,.61,1.18,5.43,5.43,0,0,1,.21,1.55v6.65h-.39a.35.35,0,0,1-.38-.29l-.14-1.31a10.71,10.71,0,0,1-.84.74,5,5,0,0,1-.87.55,4.5,4.5,0,0,1-1,.35,5.07,5.07,0,0,1-1.15.12,3.39,3.39,0,0,1-1-.15,2.57,2.57,0,0,1-.88-.47,2.3,2.3,0,0,1-.62-.82,2.82,2.82,0,0,1-.23-1.2,2.12,2.12,0,0,1,.37-1.2,3,3,0,0,1,1.16-1,7.7,7.7,0,0,1,2-.66,17.48,17.48,0,0,1,3-.29v-1.07a3.43,3.43,0,0,0-.61-2.18,2.18,2.18,0,0,0-1.81-.77,3.43,3.43,0,0,0-1.26.21,4.49,4.49,0,0,0-.88.45,5.6,5.6,0,0,0-.59.45.63.63,0,0,1-.38.21.32.32,0,0,1-.19-.05.46.46,0,0,1-.12-.13Zm6,3.83a19,19,0,0,0-2.51.23,7.22,7.22,0,0,0-1.73.49,2.6,2.6,0,0,0-1,.73,1.55,1.55,0,0,0-.33,1,2.15,2.15,0,0,0,.17.89,1.73,1.73,0,0,0,.45.62,1.81,1.81,0,0,0,.65.35,2.63,2.63,0,0,0,.77.11,4.33,4.33,0,0,0,1.09-.13,4,4,0,0,0,.92-.36,4.54,4.54,0,0,0,.8-.55q.37-.32.73-.69Z" style="fill: #fff"/>
        <path d="M465,160.15a5.79,5.79,0,0,1,1.64-1.42,4.07,4.07,0,0,1,2.07-.53,3.84,3.84,0,0,1,1.48.27,2.73,2.73,0,0,1,1.06.77,3.42,3.42,0,0,1,.64,1.21,5.53,5.53,0,0,1,.22,1.6v6.53h-1v-6.53a3.5,3.5,0,0,0-.66-2.25,2.42,2.42,0,0,0-2-.82,3.63,3.63,0,0,0-1.86.51A5.25,5.25,0,0,0,465,160.9v7.68h-1V158.37h.54a.27.27,0,0,1,.3.26Z" style="fill: #fff"/>
        <path d="M483.24,153.64v14.94h-.53a.28.28,0,0,1-.31-.27l-.1-1.61a5.45,5.45,0,0,1-1.58,1.47,3.86,3.86,0,0,1-2,.54,3.55,3.55,0,0,1-2.94-1.3,6.17,6.17,0,0,1-1-3.91,7.19,7.19,0,0,1,.29-2.09,5,5,0,0,1,.86-1.68,4.06,4.06,0,0,1,1.39-1.12,4.24,4.24,0,0,1,1.91-.41,4,4,0,0,1,1.8.38,3.75,3.75,0,0,1,1.32,1.13v-6.06Zm-1,6.92a3.48,3.48,0,0,0-1.3-1.24,3.91,3.91,0,0,0-3.21,0,3.11,3.11,0,0,0-1.13.93,4.18,4.18,0,0,0-.69,1.44,6.92,6.92,0,0,0-.23,1.84,5.44,5.44,0,0,0,.84,3.35,2.88,2.88,0,0,0,2.42,1.07,3.39,3.39,0,0,0,1.84-.52,5,5,0,0,0,1.47-1.47Z" style="fill: #fff"/>
        <path d="M496.19,158.2a4.93,4.93,0,0,1,2,.37,4,4,0,0,1,1.46,1.06,4.71,4.71,0,0,1,.91,1.66,7.66,7.66,0,0,1,0,4.34,4.72,4.72,0,0,1-.91,1.65,4,4,0,0,1-1.46,1.06,5.43,5.43,0,0,1-3.93,0,4,4,0,0,1-1.47-1.06,4.67,4.67,0,0,1-.91-1.65,7.66,7.66,0,0,1,0-4.34,4.66,4.66,0,0,1,.91-1.66,4.05,4.05,0,0,1,1.47-1.06A4.92,4.92,0,0,1,496.19,158.2Zm0,9.74a3.79,3.79,0,0,0,1.6-.31,3,3,0,0,0,1.14-.9,4,4,0,0,0,.68-1.41,7.66,7.66,0,0,0,0-3.7,4,4,0,0,0-.68-1.42,3.06,3.06,0,0,0-1.14-.91,4.16,4.16,0,0,0-3.19,0,3,3,0,0,0-1.14.91,4.08,4.08,0,0,0-.69,1.42,7.54,7.54,0,0,0,0,3.7,4,4,0,0,0,.69,1.41,3,3,0,0,0,1.14.9A3.78,3.78,0,0,0,496.19,167.95Z" style="fill: #fff"/>
        <path d="M506.38,168.75a2.2,2.2,0,0,1-1.62-.58,2.4,2.4,0,0,1-.58-1.78v-7h-1.47a.27.27,0,0,1-.18-.06.22.22,0,0,1-.07-.17v-.38l1.74-.12.25-3.66a.39.39,0,0,1,.08-.16.22.22,0,0,1,.18-.07h.46v3.9h3.22v.73h-3.22v6.93a2.18,2.18,0,0,0,.11.72,1.37,1.37,0,0,0,.3.5,1.16,1.16,0,0,0,.45.29,1.6,1.6,0,0,0,.56.09,1.71,1.71,0,0,0,.64-.11,2.69,2.69,0,0,0,.46-.24,3.14,3.14,0,0,0,.32-.24.35.35,0,0,1,.19-.11.23.23,0,0,1,.16.1l.27.43a2.82,2.82,0,0,1-1,.69A3.09,3.09,0,0,1,506.38,168.75Z" style="fill: #fff"/>
        <path d="M511.58,160.09a5.8,5.8,0,0,1,1.62-1.38,4.08,4.08,0,0,1,2-.51,3.84,3.84,0,0,1,1.48.27,2.73,2.73,0,0,1,1.06.77,3.4,3.4,0,0,1,.64,1.21,5.49,5.49,0,0,1,.22,1.6v6.53h-1v-6.53a3.5,3.5,0,0,0-.66-2.25,2.42,2.42,0,0,0-2-.82,3.62,3.62,0,0,0-1.86.51,5.27,5.27,0,0,0-1.55,1.41v7.68h-1V153.64h1Z" style="fill: #fff"/>
        <path d="M522.22,163.07v.2a6.93,6.93,0,0,0,.27,2,4.14,4.14,0,0,0,.76,1.46,3.13,3.13,0,0,0,1.19.89,3.93,3.93,0,0,0,1.56.3,4.66,4.66,0,0,0,1.33-.17,4.92,4.92,0,0,0,1-.38,5.22,5.22,0,0,0,.61-.38.69.69,0,0,1,.33-.17.24.24,0,0,1,.21.1l.27.33a2.78,2.78,0,0,1-.65.58,4.65,4.65,0,0,1-.9.46,6.62,6.62,0,0,1-1.07.3,5.9,5.9,0,0,1-1.15.11,4.89,4.89,0,0,1-1.91-.36,4.05,4.05,0,0,1-1.48-1.06,4.85,4.85,0,0,1-1-1.71,7.4,7.4,0,0,1-.33-2.31,6.29,6.29,0,0,1,.31-2,4.64,4.64,0,0,1,.9-1.6,4.1,4.1,0,0,1,1.45-1.05,4.75,4.75,0,0,1,1.95-.38,4.25,4.25,0,0,1,1.6.3,3.64,3.64,0,0,1,1.28.87,4.1,4.1,0,0,1,.86,1.4,5.38,5.38,0,0,1,.31,1.91.55.55,0,0,1-.06.31.24.24,0,0,1-.21.08Zm6.82-.63a4.39,4.39,0,0,0-.23-1.47,3.11,3.11,0,0,0-.65-1.1,2.85,2.85,0,0,0-1-.69,3.32,3.32,0,0,0-1.28-.24,3.85,3.85,0,0,0-1.42.25,3.13,3.13,0,0,0-1.08.71,3.56,3.56,0,0,0-.73,1.11,5.17,5.17,0,0,0-.37,1.45Z" style="fill: #fff"/>
        <path d="M533.49,160.83a6.44,6.44,0,0,1,.54-1.11,3.54,3.54,0,0,1,.7-.83,2.89,2.89,0,0,1,.88-.52,3.13,3.13,0,0,1,1.08-.18,3.48,3.48,0,0,1,.63.06,1.6,1.6,0,0,1,.54.2l-.08.68a.2.2,0,0,1-.2.16,1.53,1.53,0,0,1-.37-.07,2.5,2.5,0,0,0-.66-.07,2.84,2.84,0,0,0-1.05.18,2.43,2.43,0,0,0-.82.54,3.44,3.44,0,0,0-.64.89,8.49,8.49,0,0,0-.5,1.22v6.61h-1V158.37h.52a.35.35,0,0,1,.25.07.41.41,0,0,1,.09.25Z" style="fill: #fff"/>
        <path d="M545.7,163.07v.2a6.93,6.93,0,0,0,.27,2,4.14,4.14,0,0,0,.76,1.46,3.13,3.13,0,0,0,1.19.89,3.92,3.92,0,0,0,1.56.3,4.69,4.69,0,0,0,1.34-.17,5,5,0,0,0,1-.38,5.4,5.4,0,0,0,.61-.38.68.68,0,0,1,.33-.17.24.24,0,0,1,.21.1l.27.33a2.8,2.8,0,0,1-.65.58,4.63,4.63,0,0,1-.9.46,6.51,6.51,0,0,1-1.07.3,5.86,5.86,0,0,1-1.14.11,4.87,4.87,0,0,1-1.91-.36,4.06,4.06,0,0,1-1.48-1.06,4.85,4.85,0,0,1-1-1.71,7.36,7.36,0,0,1-.33-2.31,6.29,6.29,0,0,1,.31-2,4.61,4.61,0,0,1,.9-1.6,4.12,4.12,0,0,1,1.45-1.05,4.75,4.75,0,0,1,1.95-.38,4.25,4.25,0,0,1,1.6.3,3.64,3.64,0,0,1,1.28.87,4.06,4.06,0,0,1,.86,1.4,5.41,5.41,0,0,1,.31,1.91.54.54,0,0,1-.06.31.24.24,0,0,1-.21.08Zm6.82-.63a4.39,4.39,0,0,0-.23-1.47,3.12,3.12,0,0,0-.65-1.1,2.84,2.84,0,0,0-1-.69,3.3,3.3,0,0,0-1.28-.24,3.85,3.85,0,0,0-1.42.25,3.09,3.09,0,0,0-1.08.71,3.54,3.54,0,0,0-.73,1.11,5.13,5.13,0,0,0-.37,1.45Z" style="fill: #fff"/>
        <path d="M557,160.15a5.79,5.79,0,0,1,1.64-1.42,4.07,4.07,0,0,1,2.07-.53,3.84,3.84,0,0,1,1.48.27,2.73,2.73,0,0,1,1.06.77,3.42,3.42,0,0,1,.64,1.21,5.53,5.53,0,0,1,.22,1.6v6.53h-1v-6.53a3.5,3.5,0,0,0-.66-2.25,2.42,2.42,0,0,0-2-.82,3.63,3.63,0,0,0-1.86.51A5.25,5.25,0,0,0,557,160.9v7.68h-1V158.37h.54a.27.27,0,0,1,.3.26Z" style="fill: #fff"/>
        <path d="M575.79,168.58h-1v-9.17H568.9v6.93a2.15,2.15,0,0,0,.11.72,1.35,1.35,0,0,0,.3.5,1.16,1.16,0,0,0,.45.29,1.6,1.6,0,0,0,.55.09,1.71,1.71,0,0,0,.64-.11,2.63,2.63,0,0,0,.46-.24,2.88,2.88,0,0,0,.32-.24.36.36,0,0,1,.2-.11.22.22,0,0,1,.16.1l.27.43a2.84,2.84,0,0,1-1,.69,3.1,3.1,0,0,1-1.25.26,2.19,2.19,0,0,1-1.62-.58,2.41,2.41,0,0,1-.58-1.78v-7h-1.47a.27.27,0,0,1-.19-.06.22.22,0,0,1-.07-.17v-.38l1.75-.12.25-3.66a.38.38,0,0,1,.08-.16.22.22,0,0,1,.17-.07h.46v3.9h6.9Zm.45-13.86a.79.79,0,0,1-.08.34,1,1,0,0,1-.21.28,1,1,0,0,1-.29.19.87.87,0,0,1-.7,0,.93.93,0,0,1-.48-.48.83.83,0,0,1-.07-.34.9.9,0,0,1,.07-.35.89.89,0,0,1,.2-.29.93.93,0,0,1,.29-.2.89.89,0,0,1,.7,0,1,1,0,0,1,.5.49A.86.86,0,0,1,576.25,154.72Z" style="fill: #fff"/>
        <path d="M587.74,168.58h-1v-9.17h-5.91v6.93a2.18,2.18,0,0,0,.11.72,1.37,1.37,0,0,0,.3.5,1.16,1.16,0,0,0,.45.29,1.6,1.6,0,0,0,.56.09,1.71,1.71,0,0,0,.64-.11,2.69,2.69,0,0,0,.46-.24,3.14,3.14,0,0,0,.32-.24.35.35,0,0,1,.19-.11.23.23,0,0,1,.16.1l.27.43a2.82,2.82,0,0,1-1,.69,3.09,3.09,0,0,1-1.25.26,2.2,2.2,0,0,1-1.62-.58,2.4,2.4,0,0,1-.58-1.78v-7h-1.47a.27.27,0,0,1-.18-.06.22.22,0,0,1-.07-.17v-.38l1.74-.12.25-3.66a.39.39,0,0,1,.08-.16.22.22,0,0,1,.18-.07h.46v3.9h6.9Zm.45-13.86a.76.76,0,0,1-.08.34,1,1,0,0,1-.21.28,1,1,0,0,1-.29.19.88.88,0,0,1-.7,0,.93.93,0,0,1-.29-.19,1,1,0,0,1-.2-.28.83.83,0,0,1-.07-.34.9.9,0,0,1,.07-.35.93.93,0,0,1,.2-.29.91.91,0,0,1,.29-.2.89.89,0,0,1,.7,0,1,1,0,0,1,.29.2.9.9,0,0,1,.21.29A.83.83,0,0,1,588.19,154.72Z" style="fill: #fff"/>
        <path d="M591.54,163.07v.2a6.92,6.92,0,0,0,.27,2,4.14,4.14,0,0,0,.76,1.46,3.12,3.12,0,0,0,1.19.89,3.93,3.93,0,0,0,1.56.3,4.67,4.67,0,0,0,1.33-.17,5,5,0,0,0,1-.38,5.44,5.44,0,0,0,.61-.38.68.68,0,0,1,.33-.17.24.24,0,0,1,.21.1l.27.33a2.77,2.77,0,0,1-.65.58,4.66,4.66,0,0,1-.9.46,6.59,6.59,0,0,1-1.07.3,5.87,5.87,0,0,1-1.14.11,4.88,4.88,0,0,1-1.91-.36,4.07,4.07,0,0,1-1.48-1.06,4.87,4.87,0,0,1-1-1.71,7.4,7.4,0,0,1-.33-2.31,6.33,6.33,0,0,1,.31-2,4.64,4.64,0,0,1,.9-1.6,4.11,4.11,0,0,1,1.45-1.05,4.76,4.76,0,0,1,1.95-.38,4.25,4.25,0,0,1,1.6.3,3.63,3.63,0,0,1,1.28.87,4.06,4.06,0,0,1,.86,1.4,5.38,5.38,0,0,1,.31,1.91.55.55,0,0,1-.06.31.24.24,0,0,1-.21.08Zm6.82-.63a4.42,4.42,0,0,0-.23-1.47,3.12,3.12,0,0,0-.65-1.1,2.84,2.84,0,0,0-1-.69,3.31,3.31,0,0,0-1.28-.24,3.85,3.85,0,0,0-1.42.25,3.11,3.11,0,0,0-1.08.71A3.56,3.56,0,0,0,592,161a5.13,5.13,0,0,0-.37,1.45Z" style="fill: #fff"/>
        <path d="M607.5,159.63a.26.26,0,0,1-.24.14.54.54,0,0,1-.29-.13,4.27,4.27,0,0,0-.47-.29,3.81,3.81,0,0,0-.72-.29,3.72,3.72,0,0,0-1-.13,3.05,3.05,0,0,0-1,.16,2.5,2.5,0,0,0-.78.43,1.9,1.9,0,0,0-.5.62,1.68,1.68,0,0,0-.17.74,1.27,1.27,0,0,0,.25.8,2.13,2.13,0,0,0,.64.54,4.72,4.72,0,0,0,.91.39l1,.33c.35.11.7.23,1,.36a3.8,3.8,0,0,1,.91.5,2.37,2.37,0,0,1,.64.73,2.08,2.08,0,0,1,.25,1,3.25,3.25,0,0,1-.24,1.24,2.76,2.76,0,0,1-.69,1,3.34,3.34,0,0,1-1.12.67,4.37,4.37,0,0,1-1.53.25,4.58,4.58,0,0,1-1.86-.34,5.2,5.2,0,0,1-1.4-.9l.23-.35a.37.37,0,0,1,.12-.12.34.34,0,0,1,.18,0,.55.55,0,0,1,.32.16,3.51,3.51,0,0,0,.51.35,4.4,4.4,0,0,0,.79.35,3.52,3.52,0,0,0,1.15.16,3.3,3.3,0,0,0,1.14-.18,2.36,2.36,0,0,0,.82-.49,2,2,0,0,0,.5-.72,2.29,2.29,0,0,0,.17-.88,1.41,1.41,0,0,0-.25-.85,2.13,2.13,0,0,0-.65-.57,4.49,4.49,0,0,0-.91-.4l-1-.33q-.53-.16-1-.36a3.86,3.86,0,0,1-.91-.49,2.4,2.4,0,0,1-.65-.72,2.1,2.1,0,0,1-.25-1.06,2.43,2.43,0,0,1,.24-1,2.68,2.68,0,0,1,.67-.88,3.31,3.31,0,0,1,1.06-.61,4.13,4.13,0,0,1,1.41-.23,4.77,4.77,0,0,1,1.66.27,3.91,3.91,0,0,1,1.32.82Z" style="fill: #fff"/>
      </g>
      <g>
        <path d="M314.26,195.34a5.78,5.78,0,1,1,5.78,5.78A5.79,5.79,0,0,1,314.26,195.34Z" style="fill: #4baae0"/>
        <path d="M314.26,195.34a5.78,5.78,0,1,1,5.78,5.78A5.79,5.79,0,0,1,314.26,195.34Z" style="fill: none;stroke: #fff;stroke-linecap: round;stroke-linejoin: round;stroke-width: 2px"/>
      </g>
      <g>
        <path d="M344.21,202.5a4.59,4.59,0,0,0,1.87-.36,4,4,0,0,0,1.4-1,4.48,4.48,0,0,0,.88-1.52,5.78,5.78,0,0,0,.3-1.9v-9h1v9a6.5,6.5,0,0,1-.38,2.24,5.36,5.36,0,0,1-1.09,1.82,5,5,0,0,1-1.74,1.22,6.19,6.19,0,0,1-4.59,0,5,5,0,0,1-1.74-1.22,5.36,5.36,0,0,1-1.09-1.82,6.5,6.5,0,0,1-.38-2.24v-9h1.06v9a5.81,5.81,0,0,0,.3,1.9,4.53,4.53,0,0,0,.87,1.52,4,4,0,0,0,1.4,1A4.53,4.53,0,0,0,344.21,202.5Z" style="fill: #fff"/>
        <path d="M365.51,188.72v14.53H365a.46.46,0,0,1-.22,0,.51.51,0,0,1-.17-.16l-9.44-12.61c0,.21,0,.4,0,.59v12.23h-.92V188.72h.52a.53.53,0,0,1,.22,0,.5.5,0,0,1,.17.16l9.42,12.58c0-.21,0-.4,0-.59V188.72Z" style="fill: #fff"/>
        <path d="M375.57,194.48a6,6,0,0,1,1.68-1.21,4.7,4.7,0,0,1,2-.41,3.64,3.64,0,0,1,1.44.26,2.64,2.64,0,0,1,1,.75,3.28,3.28,0,0,1,.61,1.18,5.39,5.39,0,0,1,.21,1.55v6.65h-.39a.35.35,0,0,1-.38-.29l-.14-1.31a10.93,10.93,0,0,1-.84.74,5,5,0,0,1-.87.55,4.51,4.51,0,0,1-1,.35,5.07,5.07,0,0,1-1.15.12,3.39,3.39,0,0,1-1-.15,2.55,2.55,0,0,1-.88-.47,2.31,2.31,0,0,1-.62-.82,2.84,2.84,0,0,1-.23-1.2,2.12,2.12,0,0,1,.37-1.2,3,3,0,0,1,1.16-1,7.72,7.72,0,0,1,2-.66,17.5,17.5,0,0,1,3-.29v-1.07a3.42,3.42,0,0,0-.61-2.18,2.18,2.18,0,0,0-1.81-.77,3.42,3.42,0,0,0-1.26.21,4.51,4.51,0,0,0-.88.45,5.57,5.57,0,0,0-.59.45.63.63,0,0,1-.38.21.31.31,0,0,1-.18-.05.45.45,0,0,1-.12-.13Zm6,3.83a19,19,0,0,0-2.51.23,7.25,7.25,0,0,0-1.74.49,2.59,2.59,0,0,0-1,.73,1.55,1.55,0,0,0-.33,1,2.15,2.15,0,0,0,.17.89,1.75,1.75,0,0,0,.45.62,1.8,1.8,0,0,0,.65.35,2.62,2.62,0,0,0,.77.11,4.32,4.32,0,0,0,1.09-.13,4,4,0,0,0,.92-.36,4.53,4.53,0,0,0,.8-.55c.25-.21.49-.44.73-.69Z" style="fill: #fff"/>
        <path d="M394.49,193.48v.34c0,.15-.1.24-.29.28l-1.56.11a3,3,0,0,1,.44.87,3.43,3.43,0,0,1,.15,1,3.34,3.34,0,0,1-.26,1.34,2.93,2.93,0,0,1-.74,1,3.39,3.39,0,0,1-1.15.66,4.47,4.47,0,0,1-1.48.24,4.55,4.55,0,0,1-1.59-.27,2.22,2.22,0,0,0-.68.58,1.1,1.1,0,0,0-.25.66.8.8,0,0,0,.31.68,2.05,2.05,0,0,0,.82.34,7.13,7.13,0,0,0,1.16.14l1.33.07c.45,0,.89.07,1.33.13a4.24,4.24,0,0,1,1.16.32,2.1,2.1,0,0,1,.82.65,1.78,1.78,0,0,1,.31,1.1A2.52,2.52,0,0,1,394,205a3.24,3.24,0,0,1-.92,1,4.87,4.87,0,0,1-1.45.72,6.25,6.25,0,0,1-1.91.27,7.24,7.24,0,0,1-1.89-.22,4.49,4.49,0,0,1-1.36-.6,2.62,2.62,0,0,1-.83-.87,2.11,2.11,0,0,1-.28-1,2,2,0,0,1,.53-1.39,3.56,3.56,0,0,1,1.46-.91,2,2,0,0,1-.83-.51,1.27,1.27,0,0,1-.31-.91,1.37,1.37,0,0,1,.08-.45,1.83,1.83,0,0,1,.25-.47,2.48,2.48,0,0,1,.4-.44,3.07,3.07,0,0,1,.53-.37,3,3,0,0,1-1.13-1.12,3.19,3.19,0,0,1-.41-1.63,3.32,3.32,0,0,1,.26-1.34,2.92,2.92,0,0,1,.74-1,3.4,3.4,0,0,1,1.15-.67,4.84,4.84,0,0,1,2.74-.07,3.72,3.72,0,0,1,1,.46Zm-1.07,10.45a1.15,1.15,0,0,0-.25-.78,1.67,1.67,0,0,0-.67-.46,4,4,0,0,0-1-.23q-.55-.07-1.15-.1l-1.21-.06a9.72,9.72,0,0,1-1.14-.12,4.61,4.61,0,0,0-.72.35,2.55,2.55,0,0,0-.57.46,2.07,2.07,0,0,0-.37.56,1.65,1.65,0,0,0,.1,1.49,2.05,2.05,0,0,0,.68.67,3.82,3.82,0,0,0,1.09.45,6.1,6.1,0,0,0,1.49.16,5.76,5.76,0,0,0,1.45-.18,4.06,4.06,0,0,0,1.17-.49,2.5,2.5,0,0,0,.78-.76A1.76,1.76,0,0,0,393.43,203.93Zm-3.82-5.21a3.36,3.36,0,0,0,1.17-.19,2.43,2.43,0,0,0,.86-.53,2.25,2.25,0,0,0,.53-.81,2.86,2.86,0,0,0,.19-1,2.8,2.8,0,0,0-.19-1.05,2.3,2.3,0,0,0-.54-.82,2.43,2.43,0,0,0-.86-.52,3.69,3.69,0,0,0-2.31,0,2.43,2.43,0,0,0-.86.52,2.25,2.25,0,0,0-.54.82,2.9,2.9,0,0,0-.18,1.05,2.86,2.86,0,0,0,.18,1,2.25,2.25,0,0,0,.54.81,2.5,2.5,0,0,0,.86.53A3.28,3.28,0,0,0,389.6,198.73Z" style="fill: #fff"/>
        <path d="M397.57,197.73v.2a6.93,6.93,0,0,0,.27,2,4.14,4.14,0,0,0,.76,1.46,3.14,3.14,0,0,0,1.19.89,3.93,3.93,0,0,0,1.56.3,4.68,4.68,0,0,0,1.33-.17,5,5,0,0,0,1-.38,5.18,5.18,0,0,0,.61-.38.69.69,0,0,1,.33-.17.24.24,0,0,1,.21.1l.27.33a2.81,2.81,0,0,1-.65.58,4.62,4.62,0,0,1-.9.46,6.55,6.55,0,0,1-1.07.3,5.88,5.88,0,0,1-1.14.11,4.88,4.88,0,0,1-1.91-.36,4,4,0,0,1-1.48-1.06,4.83,4.83,0,0,1-1-1.71,7.36,7.36,0,0,1-.33-2.31,6.26,6.26,0,0,1,.31-2,4.61,4.61,0,0,1,.9-1.6,4.11,4.11,0,0,1,1.45-1.05,4.75,4.75,0,0,1,1.95-.38,4.26,4.26,0,0,1,1.6.3,3.65,3.65,0,0,1,1.28.87,4.1,4.1,0,0,1,.86,1.4,5.41,5.41,0,0,1,.31,1.91.54.54,0,0,1-.06.31.24.24,0,0,1-.21.08Zm6.82-.63a4.35,4.35,0,0,0-.23-1.47,3.11,3.11,0,0,0-.65-1.1,2.85,2.85,0,0,0-1-.69,3.31,3.31,0,0,0-1.28-.24,3.84,3.84,0,0,0-1.42.25,3.11,3.11,0,0,0-1.08.71,3.54,3.54,0,0,0-.73,1.11,5.17,5.17,0,0,0-.37,1.45Z" style="fill: #fff"/>
        <path d="M409.34,194.81A5.79,5.79,0,0,1,411,193.4a4.08,4.08,0,0,1,2.07-.53,3.84,3.84,0,0,1,1.48.27,2.73,2.73,0,0,1,1.06.77,3.4,3.4,0,0,1,.64,1.21,5.49,5.49,0,0,1,.22,1.6v6.53h-1v-6.53a3.5,3.5,0,0,0-.66-2.25,2.42,2.42,0,0,0-2-.82,3.62,3.62,0,0,0-1.86.51,5.27,5.27,0,0,0-1.55,1.41v7.68h-1V193h.54a.27.27,0,0,1,.3.26Z" style="fill: #fff"/>
        <path d="M427,194.39l-.1.09a.2.2,0,0,1-.13,0,.52.52,0,0,1-.28-.14,3.45,3.45,0,0,0-.47-.3,4,4,0,0,0-.74-.3,3.68,3.68,0,0,0-1.08-.14,3.74,3.74,0,0,0-1.57.31,3.17,3.17,0,0,0-1.15.9,4,4,0,0,0-.71,1.42,6.73,6.73,0,0,0-.24,1.87,6.59,6.59,0,0,0,.25,1.91,4.07,4.07,0,0,0,.71,1.4,3,3,0,0,0,1.12.87,3.51,3.51,0,0,0,1.46.3,3.77,3.77,0,0,0,1.24-.17,4,4,0,0,0,.82-.38,3.45,3.45,0,0,0,.51-.38.51.51,0,0,1,.31-.18.25.25,0,0,1,.2.1l.26.33a3,3,0,0,1-.6.58,4.06,4.06,0,0,1-.81.46,5,5,0,0,1-1,.3,5.48,5.48,0,0,1-1.11.11,4.38,4.38,0,0,1-1.78-.35,3.86,3.86,0,0,1-1.39-1,4.8,4.8,0,0,1-.9-1.65,7.66,7.66,0,0,1,0-4.35,4.77,4.77,0,0,1,.9-1.66,4.09,4.09,0,0,1,1.45-1.08,4.75,4.75,0,0,1,2-.38,4.6,4.6,0,0,1,1.77.32,4.34,4.34,0,0,1,1.34.86Z" style="fill: #fff"/>
        <path d="M431.84,189.51a.78.78,0,0,1-.08.34,1,1,0,0,1-.2.28.93.93,0,0,1-.29.19.87.87,0,0,1-.7,0,.93.93,0,0,1-.29-.19,1,1,0,0,1-.19-.28.84.84,0,0,1-.07-.34.91.91,0,0,1,.07-.35.92.92,0,0,1,.19-.29.94.94,0,0,1,.29-.2.89.89,0,0,1,.7,0,.93.93,0,0,1,.29.2,1,1,0,0,1,.2.29A.85.85,0,0,1,431.84,189.51Zm-.42,3.52v10.22h-1V193Z" style="fill: #fff"/>
        <path d="M435.72,197.73v.2a6.93,6.93,0,0,0,.27,2,4.14,4.14,0,0,0,.76,1.46,3.13,3.13,0,0,0,1.19.89,3.92,3.92,0,0,0,1.56.3,4.69,4.69,0,0,0,1.34-.17,5,5,0,0,0,1-.38,5.4,5.4,0,0,0,.61-.38.68.68,0,0,1,.33-.17.24.24,0,0,1,.21.1l.27.33a2.8,2.8,0,0,1-.65.58,4.63,4.63,0,0,1-.9.46,6.51,6.51,0,0,1-1.07.3,5.86,5.86,0,0,1-1.14.11,4.87,4.87,0,0,1-1.91-.36A4.06,4.06,0,0,1,436,202a4.85,4.85,0,0,1-1-1.71,7.36,7.36,0,0,1-.33-2.31,6.29,6.29,0,0,1,.31-2,4.61,4.61,0,0,1,.9-1.6,4.12,4.12,0,0,1,1.45-1.05,4.75,4.75,0,0,1,1.95-.38,4.25,4.25,0,0,1,1.6.3,3.64,3.64,0,0,1,1.28.87,4.06,4.06,0,0,1,.86,1.4,5.41,5.41,0,0,1,.31,1.91.54.54,0,0,1-.06.31.24.24,0,0,1-.21.08Zm6.82-.63a4.39,4.39,0,0,0-.23-1.47,3.12,3.12,0,0,0-.65-1.1,2.84,2.84,0,0,0-1-.69,3.3,3.3,0,0,0-1.28-.24,3.85,3.85,0,0,0-1.42.25,3.09,3.09,0,0,0-1.08.71,3.54,3.54,0,0,0-.73,1.11,5.13,5.13,0,0,0-.37,1.45Z" style="fill: #fff"/>
        <path d="M452.17,194.29a.26.26,0,0,1-.24.14.54.54,0,0,1-.29-.13,4.24,4.24,0,0,0-.47-.29,3.82,3.82,0,0,0-.72-.29,3.73,3.73,0,0,0-1-.13,3,3,0,0,0-1,.16,2.48,2.48,0,0,0-.78.43,1.87,1.87,0,0,0-.5.62,1.65,1.65,0,0,0-.18.74,1.27,1.27,0,0,0,.25.8,2.11,2.11,0,0,0,.64.54,4.68,4.68,0,0,0,.91.39l1,.33c.35.11.7.23,1,.36a3.78,3.78,0,0,1,.91.5,2.37,2.37,0,0,1,.64.73,2.08,2.08,0,0,1,.25,1,3.22,3.22,0,0,1-.24,1.24,2.78,2.78,0,0,1-.69,1,3.34,3.34,0,0,1-1.12.67,4.37,4.37,0,0,1-1.53.25,4.59,4.59,0,0,1-1.86-.34,5.24,5.24,0,0,1-1.4-.9l.23-.35a.38.38,0,0,1,.12-.12.34.34,0,0,1,.18,0,.54.54,0,0,1,.32.16,3.6,3.6,0,0,0,.51.35,4.43,4.43,0,0,0,.78.35,3.53,3.53,0,0,0,1.16.16,3.31,3.31,0,0,0,1.14-.18A2.36,2.36,0,0,0,451,202a2,2,0,0,0,.5-.72,2.31,2.31,0,0,0,.17-.88,1.41,1.41,0,0,0-.25-.85,2.09,2.09,0,0,0-.65-.57,4.44,4.44,0,0,0-.91-.4l-1-.33q-.53-.16-1-.36a3.79,3.79,0,0,1-.91-.49,2.33,2.33,0,0,1-.65-.72,2.08,2.08,0,0,1-.25-1.06,2.43,2.43,0,0,1,.24-1,2.66,2.66,0,0,1,.67-.88,3.29,3.29,0,0,1,1.06-.61,4.13,4.13,0,0,1,1.41-.23,4.77,4.77,0,0,1,1.66.27,3.91,3.91,0,0,1,1.32.82Z" style="fill: #fff"/>
      </g>
      <g>
        <path d="M314.26,230a5.78,5.78,0,1,1,5.78,5.78A5.79,5.79,0,0,1,314.26,230Z" style="fill: #62c4ef"/>
        <path d="M314.26,230a5.78,5.78,0,1,1,5.78,5.78A5.79,5.79,0,0,1,314.26,230Z" style="fill: none;stroke: #fff;stroke-linecap: round;stroke-linejoin: round;stroke-width: 2px"/>
      </g>
      <g>
        <path d="M340,237.91h-1.06V223.38H340Z" style="fill: #fff"/>
        <path d="M344.51,229.48a5.79,5.79,0,0,1,1.64-1.42,4.08,4.08,0,0,1,2.07-.53,3.84,3.84,0,0,1,1.48.27,2.73,2.73,0,0,1,1.06.77,3.4,3.4,0,0,1,.64,1.21,5.49,5.49,0,0,1,.22,1.6v6.53h-1v-6.53a3.5,3.5,0,0,0-.66-2.25,2.42,2.42,0,0,0-2-.82,3.62,3.62,0,0,0-1.86.51,5.27,5.27,0,0,0-1.55,1.41v7.68h-1V227.69h.54a.27.27,0,0,1,.3.26Z" style="fill: #fff"/>
        <path d="M357.46,238.07a2.19,2.19,0,0,1-1.62-.58,2.4,2.4,0,0,1-.58-1.78v-7h-1.47a.27.27,0,0,1-.18-.06.22.22,0,0,1-.07-.17v-.38l1.75-.12.25-3.66a.36.36,0,0,1,.08-.16.22.22,0,0,1,.17-.07h.46V228h3.22v.73h-3.22v6.93a2.18,2.18,0,0,0,.11.72,1.36,1.36,0,0,0,.3.5,1.17,1.17,0,0,0,.45.29,1.6,1.6,0,0,0,.56.09,1.71,1.71,0,0,0,.64-.11,2.68,2.68,0,0,0,.46-.24,3,3,0,0,0,.32-.24.35.35,0,0,1,.2-.11.22.22,0,0,1,.16.1l.27.43a2.85,2.85,0,0,1-1,.69A3.09,3.09,0,0,1,357.46,238.07Z" style="fill: #fff"/>
        <path d="M361.84,232.39v.2a6.93,6.93,0,0,0,.27,2,4.14,4.14,0,0,0,.76,1.46,3.14,3.14,0,0,0,1.19.89,3.93,3.93,0,0,0,1.56.3,4.68,4.68,0,0,0,1.33-.17,5,5,0,0,0,1-.38,5.18,5.18,0,0,0,.61-.38.69.69,0,0,1,.33-.17.24.24,0,0,1,.21.1l.27.33a2.81,2.81,0,0,1-.65.58,4.62,4.62,0,0,1-.9.46,6.55,6.55,0,0,1-1.07.3,5.88,5.88,0,0,1-1.14.11,4.88,4.88,0,0,1-1.91-.36,4,4,0,0,1-1.48-1.06,4.83,4.83,0,0,1-1-1.71,7.36,7.36,0,0,1-.33-2.31,6.26,6.26,0,0,1,.31-2,4.61,4.61,0,0,1,.9-1.6,4.11,4.11,0,0,1,1.45-1.05,4.75,4.75,0,0,1,1.95-.38,4.26,4.26,0,0,1,1.6.3,3.65,3.65,0,0,1,1.28.87,4.1,4.1,0,0,1,.86,1.4,5.41,5.41,0,0,1,.31,1.91.54.54,0,0,1-.06.31.24.24,0,0,1-.21.08Zm6.82-.63a4.35,4.35,0,0,0-.23-1.47,3.11,3.11,0,0,0-.65-1.1,2.85,2.85,0,0,0-1-.69,3.31,3.31,0,0,0-1.28-.24,3.84,3.84,0,0,0-1.42.25,3.11,3.11,0,0,0-1.08.71,3.54,3.54,0,0,0-.73,1.11,5.17,5.17,0,0,0-.37,1.45Z" style="fill: #fff"/>
        <path d="M372.93,230.16a6.35,6.35,0,0,1,.54-1.11,3.54,3.54,0,0,1,.7-.83,2.89,2.89,0,0,1,.88-.52,3.14,3.14,0,0,1,1.08-.18,3.47,3.47,0,0,1,.63.06,1.6,1.6,0,0,1,.55.2l-.08.68a.2.2,0,0,1-.19.16,1.54,1.54,0,0,1-.38-.07,2.5,2.5,0,0,0-.66-.07,2.86,2.86,0,0,0-1.05.18,2.45,2.45,0,0,0-.82.54,3.44,3.44,0,0,0-.64.89,8.34,8.34,0,0,0-.5,1.22v6.61h-1V227.69h.52a.34.34,0,0,1,.25.07.43.43,0,0,1,.09.25Z" style="fill: #fff"/>
        <path d="M387.27,228.14v.34c0,.15-.1.24-.29.28l-1.56.11a3,3,0,0,1,.44.87,3.43,3.43,0,0,1,.16,1,3.3,3.3,0,0,1-.26,1.34,2.92,2.92,0,0,1-.74,1,3.39,3.39,0,0,1-1.15.66,4.47,4.47,0,0,1-1.48.24,4.54,4.54,0,0,1-1.59-.27,2.18,2.18,0,0,0-.68.58,1.1,1.1,0,0,0-.25.66.8.8,0,0,0,.31.68,2,2,0,0,0,.82.34,7.12,7.12,0,0,0,1.16.14l1.33.07q.68,0,1.33.13a4.2,4.2,0,0,1,1.16.32,2.09,2.09,0,0,1,.82.65,1.79,1.79,0,0,1,.31,1.1,2.53,2.53,0,0,1-.32,1.22,3.24,3.24,0,0,1-.92,1,4.87,4.87,0,0,1-1.45.72,6.26,6.26,0,0,1-1.91.27,7.26,7.26,0,0,1-1.89-.22,4.49,4.49,0,0,1-1.36-.6,2.59,2.59,0,0,1-.83-.87,2.1,2.1,0,0,1-.28-1,2,2,0,0,1,.53-1.39,3.57,3.57,0,0,1,1.46-.91,2,2,0,0,1-.83-.51,1.28,1.28,0,0,1-.31-.91,1.37,1.37,0,0,1,.08-.45,1.91,1.91,0,0,1,.25-.47,2.59,2.59,0,0,1,.4-.44,3.17,3.17,0,0,1,.53-.37,3,3,0,0,1-1.14-1.12,3.2,3.2,0,0,1-.4-1.63,3.3,3.3,0,0,1,.26-1.34,2.92,2.92,0,0,1,.74-1,3.39,3.39,0,0,1,1.16-.67,4.5,4.5,0,0,1,1.49-.24,4.45,4.45,0,0,1,1.25.16,3.7,3.7,0,0,1,1,.46Zm-1.07,10.45a1.15,1.15,0,0,0-.25-.78,1.66,1.66,0,0,0-.67-.46,4,4,0,0,0-1-.23c-.37,0-.75-.08-1.15-.1L382,237a9.72,9.72,0,0,1-1.14-.12,4.69,4.69,0,0,0-.72.35,2.63,2.63,0,0,0-.56.46,2,2,0,0,0-.37.56,1.64,1.64,0,0,0,.1,1.49,2,2,0,0,0,.68.67,3.8,3.8,0,0,0,1.09.45,6.1,6.1,0,0,0,1.49.16,5.75,5.75,0,0,0,1.45-.18,4.08,4.08,0,0,0,1.17-.49,2.5,2.5,0,0,0,.78-.76A1.76,1.76,0,0,0,386.21,238.6Zm-3.82-5.21a3.37,3.37,0,0,0,1.17-.19,2.45,2.45,0,0,0,.86-.53,2.29,2.29,0,0,0,.53-.81,3,3,0,0,0,0-2.1,2.3,2.3,0,0,0-.55-.82,2.43,2.43,0,0,0-.86-.52,3.69,3.69,0,0,0-2.31,0,2.43,2.43,0,0,0-.86.52,2.22,2.22,0,0,0-.54.82,2.9,2.9,0,0,0-.19,1.05,2.86,2.86,0,0,0,.19,1,2.22,2.22,0,0,0,.54.81,2.49,2.49,0,0,0,.86.53A3.29,3.29,0,0,0,382.39,233.39Z" style="fill: #fff"/>
        <path d="M393.37,227.53a4.93,4.93,0,0,1,2,.37A4,4,0,0,1,396.8,229a4.71,4.71,0,0,1,.91,1.66,7.66,7.66,0,0,1,0,4.34,4.72,4.72,0,0,1-.91,1.65,4,4,0,0,1-1.46,1.06,5.43,5.43,0,0,1-3.93,0,4,4,0,0,1-1.47-1.06A4.67,4.67,0,0,1,389,235a7.66,7.66,0,0,1,0-4.34,4.66,4.66,0,0,1,.91-1.66,4.05,4.05,0,0,1,1.47-1.06A4.92,4.92,0,0,1,393.37,227.53Zm0,9.74A3.79,3.79,0,0,0,395,237a3,3,0,0,0,1.14-.9,4,4,0,0,0,.68-1.41,7.66,7.66,0,0,0,0-3.7,4,4,0,0,0-.68-1.42,3.06,3.06,0,0,0-1.14-.91,4.16,4.16,0,0,0-3.19,0,3,3,0,0,0-1.14.91,4.08,4.08,0,0,0-.69,1.42,7.54,7.54,0,0,0,0,3.7,4,4,0,0,0,.69,1.41,3,3,0,0,0,1.14.9A3.78,3.78,0,0,0,393.37,237.27Z" style="fill: #fff"/>
        <path d="M408.79,227.69l-4.31,10.22h-.86l-4.31-10.22h.77a.36.36,0,0,1,.24.08.36.36,0,0,1,.12.17l3.38,8.06a7.56,7.56,0,0,1,.25.89,6.79,6.79,0,0,1,.26-.89l3.39-8.06a.47.47,0,0,1,.14-.18.34.34,0,0,1,.21-.07Z" style="fill: #fff"/>
        <path d="M411,232.39v.2a6.93,6.93,0,0,0,.27,2,4.14,4.14,0,0,0,.76,1.46,3.13,3.13,0,0,0,1.19.89,3.93,3.93,0,0,0,1.56.3,4.66,4.66,0,0,0,1.33-.17,4.92,4.92,0,0,0,1-.38,5.22,5.22,0,0,0,.61-.38.69.69,0,0,1,.33-.17.24.24,0,0,1,.21.1l.27.33a2.78,2.78,0,0,1-.65.58,4.65,4.65,0,0,1-.9.46,6.62,6.62,0,0,1-1.07.3,5.9,5.9,0,0,1-1.15.11,4.89,4.89,0,0,1-1.91-.36,4.05,4.05,0,0,1-1.48-1.06,4.85,4.85,0,0,1-1-1.71,7.4,7.4,0,0,1-.33-2.31,6.29,6.29,0,0,1,.31-2,4.64,4.64,0,0,1,.9-1.6,4.1,4.1,0,0,1,1.45-1.05,4.75,4.75,0,0,1,1.95-.38,4.25,4.25,0,0,1,1.6.3,3.64,3.64,0,0,1,1.28.87,4.1,4.1,0,0,1,.86,1.4,5.38,5.38,0,0,1,.31,1.91.55.55,0,0,1-.06.31.24.24,0,0,1-.21.08Zm6.82-.63a4.39,4.39,0,0,0-.23-1.47,3.11,3.11,0,0,0-.65-1.1,2.85,2.85,0,0,0-1-.69,3.32,3.32,0,0,0-1.28-.24,3.85,3.85,0,0,0-1.42.25,3.13,3.13,0,0,0-1.08.71,3.56,3.56,0,0,0-.73,1.11,5.17,5.17,0,0,0-.37,1.45Z" style="fill: #fff"/>
        <path d="M422.11,230.16a6.44,6.44,0,0,1,.54-1.11,3.54,3.54,0,0,1,.7-.83,2.89,2.89,0,0,1,.88-.52,3.13,3.13,0,0,1,1.08-.18,3.48,3.48,0,0,1,.63.06,1.6,1.6,0,0,1,.54.2l-.08.68a.2.2,0,0,1-.2.16,1.53,1.53,0,0,1-.37-.07,2.5,2.5,0,0,0-.66-.07,2.84,2.84,0,0,0-1.05.18,2.43,2.43,0,0,0-.82.54,3.44,3.44,0,0,0-.64.89,8.49,8.49,0,0,0-.5,1.22v6.61h-1V227.69h.52a.35.35,0,0,1,.25.07.41.41,0,0,1,.09.25Z" style="fill: #fff"/>
        <path d="M429.17,229.48a5.81,5.81,0,0,1,1.64-1.42,4.08,4.08,0,0,1,2.07-.53,3.84,3.84,0,0,1,1.48.27,2.74,2.74,0,0,1,1.06.77,3.42,3.42,0,0,1,.64,1.21,5.49,5.49,0,0,1,.22,1.6v6.53h-1v-6.53a3.49,3.49,0,0,0-.66-2.25,2.42,2.42,0,0,0-2-.82,3.63,3.63,0,0,0-1.86.51,5.27,5.27,0,0,0-1.55,1.41v7.68h-1V227.69h.54a.27.27,0,0,1,.3.26Z" style="fill: #fff"/>
        <path d="M439.32,237.91V227.69h.54a.27.27,0,0,1,.3.26l.09,1.48a5.33,5.33,0,0,1,1.36-1.37,3,3,0,0,1,1.74-.52,2.48,2.48,0,0,1,1.79.65,3.35,3.35,0,0,1,.91,1.8,3.58,3.58,0,0,1,.52-1.09,3.21,3.21,0,0,1,.77-.76,3.05,3.05,0,0,1,.94-.45,3.79,3.79,0,0,1,1-.14,3.53,3.53,0,0,1,1.37.25,2.67,2.67,0,0,1,1,.74,3.43,3.43,0,0,1,.65,1.21,5.49,5.49,0,0,1,.23,1.64v6.53h-1v-6.53a3.51,3.51,0,0,0-.65-2.28,2.26,2.26,0,0,0-1.85-.79,2.71,2.71,0,0,0-1,.2,2.45,2.45,0,0,0-.86.58,2.79,2.79,0,0,0-.6,1,3.72,3.72,0,0,0-.22,1.33v6.53h-1v-6.53a3.76,3.76,0,0,0-.59-2.28,2,2,0,0,0-1.73-.79,2.64,2.64,0,0,0-1.54.49,4.68,4.68,0,0,0-1.26,1.36v7.74Z" style="fill: #fff"/>
        <path d="M456,232.39v.2a6.93,6.93,0,0,0,.27,2,4.14,4.14,0,0,0,.76,1.46,3.13,3.13,0,0,0,1.19.89,3.93,3.93,0,0,0,1.56.3,4.66,4.66,0,0,0,1.33-.17,4.92,4.92,0,0,0,1-.38,5.22,5.22,0,0,0,.61-.38.69.69,0,0,1,.33-.17.24.24,0,0,1,.21.1l.27.33a2.78,2.78,0,0,1-.65.58,4.65,4.65,0,0,1-.9.46,6.62,6.62,0,0,1-1.07.3,5.9,5.9,0,0,1-1.15.11,4.89,4.89,0,0,1-1.91-.36,4.05,4.05,0,0,1-1.48-1.06,4.85,4.85,0,0,1-1-1.71,7.4,7.4,0,0,1-.33-2.31,6.29,6.29,0,0,1,.31-2,4.64,4.64,0,0,1,.9-1.6,4.1,4.1,0,0,1,1.45-1.05,4.75,4.75,0,0,1,1.95-.38,4.25,4.25,0,0,1,1.6.3,3.64,3.64,0,0,1,1.28.87,4.1,4.1,0,0,1,.86,1.4,5.38,5.38,0,0,1,.31,1.91.55.55,0,0,1-.06.31.24.24,0,0,1-.21.08Zm6.82-.63a4.39,4.39,0,0,0-.23-1.47,3.1,3.1,0,0,0-.65-1.1,2.85,2.85,0,0,0-1-.69,3.32,3.32,0,0,0-1.28-.24,3.85,3.85,0,0,0-1.42.25,3.13,3.13,0,0,0-1.08.71,3.56,3.56,0,0,0-.73,1.11,5.17,5.17,0,0,0-.37,1.45Z" style="fill: #fff"/>
        <path d="M467.08,229.48a5.81,5.81,0,0,1,1.64-1.42,4.08,4.08,0,0,1,2.07-.53,3.84,3.84,0,0,1,1.48.27,2.74,2.74,0,0,1,1.06.77,3.44,3.44,0,0,1,.64,1.21,5.53,5.53,0,0,1,.22,1.6v6.53h-1v-6.53a3.49,3.49,0,0,0-.66-2.25,2.42,2.42,0,0,0-2-.82,3.63,3.63,0,0,0-1.86.51,5.25,5.25,0,0,0-1.54,1.41v7.68h-1V227.69h.54a.27.27,0,0,1,.3.26Z" style="fill: #fff"/>
        <path d="M480,238.07a2.19,2.19,0,0,1-1.62-.58,2.41,2.41,0,0,1-.58-1.78v-7h-1.47a.27.27,0,0,1-.19-.06.22.22,0,0,1-.07-.17v-.38l1.75-.12.25-3.66a.38.38,0,0,1,.08-.16.22.22,0,0,1,.17-.07h.46V228H482v.73h-3.22v6.93a2.15,2.15,0,0,0,.11.72,1.35,1.35,0,0,0,.3.5,1.16,1.16,0,0,0,.45.29,1.6,1.6,0,0,0,.55.09,1.71,1.71,0,0,0,.64-.11,2.63,2.63,0,0,0,.46-.24,2.88,2.88,0,0,0,.32-.24.36.36,0,0,1,.2-.11.22.22,0,0,1,.16.1l.27.43a2.84,2.84,0,0,1-1,.69A3.1,3.1,0,0,1,480,238.07Z" style="fill: #fff"/>
        <path d="M483.78,229.14a6,6,0,0,1,1.68-1.21,4.7,4.7,0,0,1,2-.41,3.64,3.64,0,0,1,1.44.26,2.65,2.65,0,0,1,1,.75,3.28,3.28,0,0,1,.61,1.18,5.43,5.43,0,0,1,.21,1.55v6.65h-.39a.35.35,0,0,1-.38-.29l-.14-1.31a10.71,10.71,0,0,1-.84.74,5,5,0,0,1-.87.55,4.5,4.5,0,0,1-1,.35,5.07,5.07,0,0,1-1.15.12,3.39,3.39,0,0,1-1-.15,2.57,2.57,0,0,1-.88-.47,2.3,2.3,0,0,1-.62-.82,2.82,2.82,0,0,1-.23-1.2,2.12,2.12,0,0,1,.37-1.2,3,3,0,0,1,1.16-1,7.7,7.7,0,0,1,2-.66,17.48,17.48,0,0,1,3-.29v-1.07a3.43,3.43,0,0,0-.61-2.18,2.18,2.18,0,0,0-1.81-.77,3.43,3.43,0,0,0-1.26.21,4.49,4.49,0,0,0-.88.45,5.6,5.6,0,0,0-.59.45.63.63,0,0,1-.38.21.32.32,0,0,1-.19-.05.46.46,0,0,1-.12-.13Zm6,3.83a19,19,0,0,0-2.51.23,7.22,7.22,0,0,0-1.73.49,2.6,2.6,0,0,0-1,.73,1.55,1.55,0,0,0-.33,1,2.15,2.15,0,0,0,.17.89,1.73,1.73,0,0,0,.45.62,1.81,1.81,0,0,0,.65.35,2.63,2.63,0,0,0,.77.11,4.33,4.33,0,0,0,1.09-.13,4,4,0,0,0,.92-.36,4.54,4.54,0,0,0,.8-.55q.37-.32.73-.69Z" style="fill: #fff"/>
        <path d="M494.88,223v14.94h-1V223Z" style="fill: #fff"/>
        <path d="M507.55,227.53a4.93,4.93,0,0,1,2,.37A4,4,0,0,1,511,229a4.71,4.71,0,0,1,.91,1.66,7.66,7.66,0,0,1,0,4.34,4.72,4.72,0,0,1-.91,1.65,4,4,0,0,1-1.46,1.06,5.43,5.43,0,0,1-3.93,0,4,4,0,0,1-1.47-1.06,4.67,4.67,0,0,1-.91-1.65,7.66,7.66,0,0,1,0-4.34,4.66,4.66,0,0,1,.91-1.66,4.05,4.05,0,0,1,1.47-1.06A4.92,4.92,0,0,1,507.55,227.53Zm0,9.74a3.79,3.79,0,0,0,1.6-.31,3,3,0,0,0,1.14-.9,4,4,0,0,0,.68-1.41,7.66,7.66,0,0,0,0-3.7,4,4,0,0,0-.68-1.42,3.06,3.06,0,0,0-1.14-.91,4.16,4.16,0,0,0-3.19,0,3,3,0,0,0-1.14.91,4.08,4.08,0,0,0-.69,1.42,7.54,7.54,0,0,0,0,3.7,4,4,0,0,0,.69,1.41,3,3,0,0,0,1.14.9A3.78,3.78,0,0,0,507.55,237.27Z" style="fill: #fff"/>
        <path d="M515.69,230.16a6.35,6.35,0,0,1,.54-1.11,3.54,3.54,0,0,1,.7-.83,2.89,2.89,0,0,1,.88-.52,3.14,3.14,0,0,1,1.08-.18,3.47,3.47,0,0,1,.63.06,1.6,1.6,0,0,1,.55.2l-.08.68a.2.2,0,0,1-.19.16,1.54,1.54,0,0,1-.38-.07,2.5,2.5,0,0,0-.66-.07,2.86,2.86,0,0,0-1.05.18,2.45,2.45,0,0,0-.82.54,3.44,3.44,0,0,0-.64.89,8.34,8.34,0,0,0-.5,1.22v6.61h-1V227.69h.52a.34.34,0,0,1,.25.07.43.43,0,0,1,.09.25Z" style="fill: #fff"/>
        <path d="M530,228.14v.34c0,.15-.1.24-.29.28l-1.56.11a3,3,0,0,1,.44.87,3.43,3.43,0,0,1,.16,1,3.3,3.3,0,0,1-.26,1.34,2.92,2.92,0,0,1-.74,1,3.39,3.39,0,0,1-1.15.66,4.47,4.47,0,0,1-1.48.24,4.54,4.54,0,0,1-1.59-.27,2.19,2.19,0,0,0-.68.58,1.1,1.1,0,0,0-.25.66.8.8,0,0,0,.31.68,2,2,0,0,0,.82.34,7.12,7.12,0,0,0,1.16.14l1.33.07q.68,0,1.33.13a4.2,4.2,0,0,1,1.16.32,2.09,2.09,0,0,1,.82.65,1.79,1.79,0,0,1,.31,1.1,2.53,2.53,0,0,1-.32,1.22,3.24,3.24,0,0,1-.92,1,4.87,4.87,0,0,1-1.45.72,6.26,6.26,0,0,1-1.91.27,7.26,7.26,0,0,1-1.89-.22,4.49,4.49,0,0,1-1.36-.6,2.59,2.59,0,0,1-.83-.87,2.1,2.1,0,0,1-.28-1,2,2,0,0,1,.53-1.39,3.57,3.57,0,0,1,1.46-.91,2,2,0,0,1-.83-.51,1.28,1.28,0,0,1-.31-.91,1.37,1.37,0,0,1,.08-.45,1.91,1.91,0,0,1,.25-.47,2.59,2.59,0,0,1,.4-.44,3.17,3.17,0,0,1,.53-.37,3,3,0,0,1-1.14-1.12,3.2,3.2,0,0,1-.4-1.63,3.3,3.3,0,0,1,.26-1.34,2.92,2.92,0,0,1,.74-1,3.39,3.39,0,0,1,1.16-.67,4.5,4.5,0,0,1,1.49-.24,4.45,4.45,0,0,1,1.25.16,3.7,3.7,0,0,1,1,.46ZM529,238.6a1.15,1.15,0,0,0-.25-.78,1.66,1.66,0,0,0-.67-.46,4,4,0,0,0-1-.23c-.37,0-.75-.08-1.15-.1l-1.21-.06a9.72,9.72,0,0,1-1.14-.12,4.69,4.69,0,0,0-.72.35,2.63,2.63,0,0,0-.56.46,2,2,0,0,0-.37.56,1.64,1.64,0,0,0,.1,1.49,2,2,0,0,0,.68.67,3.8,3.8,0,0,0,1.09.45,6.1,6.1,0,0,0,1.49.16,5.75,5.75,0,0,0,1.45-.18,4.08,4.08,0,0,0,1.17-.49,2.5,2.5,0,0,0,.78-.76A1.76,1.76,0,0,0,529,238.6Zm-3.82-5.21a3.37,3.37,0,0,0,1.17-.19,2.45,2.45,0,0,0,.86-.53,2.29,2.29,0,0,0,.53-.81,3,3,0,0,0,0-2.1,2.3,2.3,0,0,0-.55-.82,2.43,2.43,0,0,0-.86-.52,3.69,3.69,0,0,0-2.31,0,2.43,2.43,0,0,0-.86.52,2.22,2.22,0,0,0-.54.82,2.9,2.9,0,0,0-.19,1.05,2.86,2.86,0,0,0,.19,1,2.22,2.22,0,0,0,.54.81,2.49,2.49,0,0,0,.86.53A3.29,3.29,0,0,0,525.15,233.39Z" style="fill: #fff"/>
        <path d="M531.8,229.14a6,6,0,0,1,1.68-1.21,4.7,4.7,0,0,1,2-.41,3.64,3.64,0,0,1,1.44.26,2.64,2.64,0,0,1,1,.75,3.28,3.28,0,0,1,.61,1.18,5.39,5.39,0,0,1,.21,1.55v6.65h-.39a.35.35,0,0,1-.38-.29l-.14-1.31a10.93,10.93,0,0,1-.84.74,5,5,0,0,1-.87.55,4.51,4.51,0,0,1-1,.35,5.07,5.07,0,0,1-1.15.12,3.39,3.39,0,0,1-1-.15,2.55,2.55,0,0,1-.88-.47,2.31,2.31,0,0,1-.62-.82,2.84,2.84,0,0,1-.23-1.2,2.12,2.12,0,0,1,.37-1.2,3,3,0,0,1,1.16-1,7.72,7.72,0,0,1,2-.66,17.5,17.5,0,0,1,3-.29v-1.07a3.42,3.42,0,0,0-.61-2.18,2.18,2.18,0,0,0-1.81-.77,3.42,3.42,0,0,0-1.26.21,4.51,4.51,0,0,0-.88.45,5.57,5.57,0,0,0-.59.45.63.63,0,0,1-.38.21.31.31,0,0,1-.18-.05.45.45,0,0,1-.12-.13Zm6,3.83a19,19,0,0,0-2.51.23,7.25,7.25,0,0,0-1.74.49,2.59,2.59,0,0,0-1,.73,1.55,1.55,0,0,0-.33,1,2.15,2.15,0,0,0,.17.89,1.75,1.75,0,0,0,.45.62,1.8,1.8,0,0,0,.65.35,2.62,2.62,0,0,0,.77.11,4.32,4.32,0,0,0,1.09-.13,4,4,0,0,0,.92-.36,4.53,4.53,0,0,0,.8-.55c.25-.21.49-.44.73-.69Z" style="fill: #fff"/>
        <path d="M542.75,229.48a5.79,5.79,0,0,1,1.64-1.42,4.07,4.07,0,0,1,2.07-.53,3.84,3.84,0,0,1,1.48.27,2.73,2.73,0,0,1,1.06.77,3.42,3.42,0,0,1,.64,1.21,5.53,5.53,0,0,1,.22,1.6v6.53h-1v-6.53a3.5,3.5,0,0,0-.66-2.25,2.42,2.42,0,0,0-2-.82,3.63,3.63,0,0,0-1.86.51,5.25,5.25,0,0,0-1.55,1.41v7.68h-1V227.69h.54a.27.27,0,0,1,.3.26Z" style="fill: #fff"/>
        <path d="M554.42,224.17a.8.8,0,0,1-.08.34,1.1,1.1,0,0,1-.2.28.93.93,0,0,1-.29.19.87.87,0,0,1-.7,0,.94.94,0,0,1-.48-.48.84.84,0,0,1-.07-.34.93.93,0,0,1,.27-.65,1,1,0,0,1,.29-.2.89.89,0,0,1,.7,0,.94.94,0,0,1,.29.2,1,1,0,0,1,.2.29A.87.87,0,0,1,554.42,224.17Zm-.42,3.52v10.22h-1V227.69Z" style="fill: #fff"/>
        <path d="M562.89,229a.26.26,0,0,1-.24.14.54.54,0,0,1-.29-.13,4.27,4.27,0,0,0-.47-.29,3.81,3.81,0,0,0-.72-.29,3.72,3.72,0,0,0-1-.13,3.05,3.05,0,0,0-1,.16,2.5,2.5,0,0,0-.78.43,1.9,1.9,0,0,0-.5.62,1.68,1.68,0,0,0-.17.74,1.27,1.27,0,0,0,.25.8,2.13,2.13,0,0,0,.64.54,4.72,4.72,0,0,0,.91.39l1,.33c.35.11.7.23,1,.36a3.8,3.8,0,0,1,.91.5,2.37,2.37,0,0,1,.64.73,2.08,2.08,0,0,1,.25,1,3.25,3.25,0,0,1-.24,1.24,2.76,2.76,0,0,1-.69,1,3.34,3.34,0,0,1-1.12.67,4.37,4.37,0,0,1-1.53.25,4.58,4.58,0,0,1-1.86-.34,5.2,5.2,0,0,1-1.4-.9l.23-.35a.37.37,0,0,1,.12-.12.34.34,0,0,1,.18,0,.55.55,0,0,1,.32.16,3.51,3.51,0,0,0,.51.35,4.4,4.4,0,0,0,.79.35,3.52,3.52,0,0,0,1.15.16,3.3,3.3,0,0,0,1.14-.18,2.36,2.36,0,0,0,.82-.49,2,2,0,0,0,.5-.72,2.29,2.29,0,0,0,.17-.88,1.41,1.41,0,0,0-.25-.85,2.13,2.13,0,0,0-.65-.57,4.49,4.49,0,0,0-.91-.4l-1-.33q-.53-.16-1-.36a3.86,3.86,0,0,1-.91-.49,2.4,2.4,0,0,1-.65-.72,2.1,2.1,0,0,1-.25-1.06,2.43,2.43,0,0,1,.24-1,2.68,2.68,0,0,1,.67-.88,3.31,3.31,0,0,1,1.06-.61,4.13,4.13,0,0,1,1.41-.23,4.77,4.77,0,0,1,1.66.27,3.91,3.91,0,0,1,1.32.82Z" style="fill: #fff"/>
        <path d="M565.51,229.14a6,6,0,0,1,1.68-1.21,4.7,4.7,0,0,1,2-.41,3.64,3.64,0,0,1,1.44.26,2.65,2.65,0,0,1,1,.75,3.28,3.28,0,0,1,.61,1.18,5.43,5.43,0,0,1,.21,1.55v6.65h-.39a.35.35,0,0,1-.38-.29l-.15-1.31a10.7,10.7,0,0,1-.84.74,5,5,0,0,1-.87.55,4.51,4.51,0,0,1-1,.35,5.05,5.05,0,0,1-1.15.12,3.38,3.38,0,0,1-1-.15,2.54,2.54,0,0,1-.88-.47,2.28,2.28,0,0,1-.62-.82,2.84,2.84,0,0,1-.23-1.2,2.13,2.13,0,0,1,.37-1.2,3.05,3.05,0,0,1,1.16-1,7.73,7.73,0,0,1,2-.66,17.5,17.5,0,0,1,3-.29v-1.07a3.41,3.41,0,0,0-.61-2.18,2.18,2.18,0,0,0-1.81-.77,3.43,3.43,0,0,0-1.26.21,4.58,4.58,0,0,0-.88.45,5.67,5.67,0,0,0-.58.45.63.63,0,0,1-.38.21.31.31,0,0,1-.18-.05.46.46,0,0,1-.12-.13Zm6,3.83a19,19,0,0,0-2.51.23,7.27,7.27,0,0,0-1.74.49,2.59,2.59,0,0,0-1,.73,1.55,1.55,0,0,0-.33,1,2.15,2.15,0,0,0,.17.89,1.75,1.75,0,0,0,.45.62,1.8,1.8,0,0,0,.65.35,2.61,2.61,0,0,0,.77.11,4.34,4.34,0,0,0,1.09-.13,4.06,4.06,0,0,0,.92-.36,4.47,4.47,0,0,0,.79-.55c.25-.21.49-.44.73-.69Z" style="fill: #fff"/>
        <path d="M584,237.91h-1v-9.17h-5.91v6.93a2.18,2.18,0,0,0,.11.72,1.37,1.37,0,0,0,.3.5,1.16,1.16,0,0,0,.45.29,1.6,1.6,0,0,0,.56.09,1.71,1.71,0,0,0,.64-.11,2.69,2.69,0,0,0,.46-.24,3.14,3.14,0,0,0,.32-.24.35.35,0,0,1,.19-.11.23.23,0,0,1,.16.1l.27.43a2.82,2.82,0,0,1-1,.69,3.09,3.09,0,0,1-1.25.26,2.2,2.2,0,0,1-1.62-.58,2.4,2.4,0,0,1-.58-1.78v-7h-1.47a.27.27,0,0,1-.18-.06.22.22,0,0,1-.07-.17v-.38l1.74-.12.25-3.66a.39.39,0,0,1,.08-.16.22.22,0,0,1,.18-.07h.46V228H584Zm.45-13.86a.76.76,0,0,1-.08.34,1,1,0,0,1-.21.28,1,1,0,0,1-.29.19.88.88,0,0,1-.7,0,.93.93,0,0,1-.29-.19,1,1,0,0,1-.2-.28.83.83,0,0,1-.07-.34.9.9,0,0,1,.07-.35.93.93,0,0,1,.2-.29.91.91,0,0,1,.29-.2.89.89,0,0,1,.7,0,1,1,0,0,1,.29.2.9.9,0,0,1,.21.29A.83.83,0,0,1,584.46,224Z" style="fill: #fff"/>
        <path d="M591.33,227.53a4.92,4.92,0,0,1,2,.37,4,4,0,0,1,1.46,1.06,4.74,4.74,0,0,1,.91,1.66,7.69,7.69,0,0,1,0,4.34,4.75,4.75,0,0,1-.91,1.65,4,4,0,0,1-1.46,1.06,5.43,5.43,0,0,1-3.93,0,4,4,0,0,1-1.47-1.06A4.67,4.67,0,0,1,587,235a7.66,7.66,0,0,1,0-4.34,4.66,4.66,0,0,1,.91-1.66,4.05,4.05,0,0,1,1.47-1.06A4.92,4.92,0,0,1,591.33,227.53Zm0,9.74a3.79,3.79,0,0,0,1.6-.31,3,3,0,0,0,1.14-.9,4,4,0,0,0,.68-1.41,7.7,7.7,0,0,0,0-3.7,4,4,0,0,0-.68-1.42,3.07,3.07,0,0,0-1.14-.91,4.16,4.16,0,0,0-3.19,0,3.06,3.06,0,0,0-1.14.91,4.08,4.08,0,0,0-.69,1.42,7.54,7.54,0,0,0,0,3.7,4,4,0,0,0,.69,1.41,3,3,0,0,0,1.14.9A3.79,3.79,0,0,0,591.33,237.27Z" style="fill: #fff"/>
        <path d="M599.47,229.48a5.81,5.81,0,0,1,1.64-1.42,4.08,4.08,0,0,1,2.07-.53,3.84,3.84,0,0,1,1.48.27,2.74,2.74,0,0,1,1.06.77,3.44,3.44,0,0,1,.64,1.21,5.53,5.53,0,0,1,.22,1.6v6.53h-1v-6.53a3.49,3.49,0,0,0-.66-2.25,2.42,2.42,0,0,0-2-.82,3.63,3.63,0,0,0-1.86.51,5.25,5.25,0,0,0-1.54,1.41v7.68h-1V227.69h.54a.27.27,0,0,1,.3.26Z" style="fill: #fff"/>
        <path d="M615.24,229a.26.26,0,0,1-.24.14.54.54,0,0,1-.29-.13,4.27,4.27,0,0,0-.47-.29,3.81,3.81,0,0,0-.72-.29,3.72,3.72,0,0,0-1-.13,3.05,3.05,0,0,0-1,.16,2.5,2.5,0,0,0-.78.43,1.9,1.9,0,0,0-.5.62,1.68,1.68,0,0,0-.17.74,1.27,1.27,0,0,0,.25.8,2.13,2.13,0,0,0,.64.54,4.72,4.72,0,0,0,.91.39l1,.33c.35.11.7.23,1,.36a3.8,3.8,0,0,1,.91.5,2.37,2.37,0,0,1,.64.73,2.08,2.08,0,0,1,.25,1,3.25,3.25,0,0,1-.24,1.24,2.76,2.76,0,0,1-.69,1,3.34,3.34,0,0,1-1.12.67,4.37,4.37,0,0,1-1.53.25,4.58,4.58,0,0,1-1.86-.34,5.2,5.2,0,0,1-1.4-.9l.23-.35a.37.37,0,0,1,.12-.12.34.34,0,0,1,.18,0,.55.55,0,0,1,.32.16,3.51,3.51,0,0,0,.51.35,4.4,4.4,0,0,0,.79.35,3.52,3.52,0,0,0,1.15.16,3.3,3.3,0,0,0,1.14-.18,2.36,2.36,0,0,0,.82-.49,2,2,0,0,0,.5-.72,2.29,2.29,0,0,0,.17-.88,1.41,1.41,0,0,0-.25-.85,2.13,2.13,0,0,0-.65-.57,4.49,4.49,0,0,0-.91-.4l-1-.33q-.53-.16-1-.36a3.86,3.86,0,0,1-.91-.49,2.4,2.4,0,0,1-.65-.72,2.1,2.1,0,0,1-.25-1.06,2.43,2.43,0,0,1,.24-1,2.68,2.68,0,0,1,.67-.88,3.31,3.31,0,0,1,1.06-.61,4.13,4.13,0,0,1,1.41-.23,4.77,4.77,0,0,1,1.66.27,3.91,3.91,0,0,1,1.32.82Z" style="fill: #fff"/>
      </g>
    </g>
  </g>
</svg>
