<?xml version="1.0" encoding="utf-8"?>
<!-- Generator: Adobe Illustrator 20.1.0, SVG Export Plug-In . SVG Version: 6.00 Build 0)  -->
<svg version="1.1" id="Layer_1" xmlns="http://www.w3.org/2000/svg" xmlns:xlink="http://www.w3.org/1999/xlink" x="0px" y="0px"
	 viewBox="0 0 485 379" style="enable-background:new 0 0 485 379;" xml:space="preserve">
<style type="text/css">
	.st0{fill:#0050AF;stroke:#FFFFFF;stroke-width:2;stroke-linecap:round;stroke-linejoin:round;}
	.st1{fill:#1868B7;stroke:#FFFFFF;stroke-width:2;stroke-linecap:round;stroke-linejoin:round;}
	.st2{fill:#257BC1;stroke:#FFFFFF;stroke-width:2;stroke-linecap:round;stroke-linejoin:round;}
	.st3{fill:#338ECC;stroke:#FFFFFF;stroke-width:2;stroke-linecap:round;stroke-linejoin:round;}
	.st4{fill:#4BAAE0;stroke:#FFFFFF;stroke-width:2;stroke-linecap:round;stroke-linejoin:round;}
	.st5{fill:#62C4EF;stroke:#FFFFFF;stroke-width:2;stroke-linecap:round;stroke-linejoin:round;}
	.st6{fill:#FFFFFF;}
	.st7{fill:none;stroke:#FFFFFF;stroke-miterlimit:10;}
</style>
<title>organisations</title>
<path class="st0" d="M242.6,59.5v72.8c39.7,0,71.9,32.2,71.9,71.9c0,21.4-9.6,41.8-26.1,55.4l46.4,56.1
	c61.6-51,70.2-142.2,19.3-203.8C326.6,78.7,285.8,59.5,242.6,59.5z"/>
<path class="st1" d="M288.5,259.6c-30.6,25.3-76,21-101.3-9.6c-9.7-11.7-15.4-26.1-16.3-41.3l-72.7,4.6
	c5,79.8,73.8,140.4,153.6,135.4c30.5-1.9,59.6-13.4,83.1-32.9L288.5,259.6z"/>
<path class="st2" d="M170.7,204.2c0-15.2,4.8-30,13.8-42.3l-58.9-42.8c-19.8,27.3-29.5,60.6-27.4,94.2l72.7-4.6
	C170.8,207.2,170.7,205.7,170.7,204.2z"/>
<path class="st3" d="M212,139.1l-31-65.9c-22.1,10.4-41.1,26.2-55.5,45.9l58.9,42.8C191.6,152.1,201,144.3,212,139.1z"/>
<path class="st4" d="M233.6,132.9l-9.1-72.2c-15.1,1.9-29.7,6.2-43.5,12.6l31,65.9C218.8,135.9,226.1,133.8,233.6,132.9z"/>
<path class="st5" d="M242.6,132.3L242.6,132.3V59.5c-6.1,0-12.1,0.4-18.1,1.1l9.1,72.2C236.6,132.5,239.6,132.3,242.6,132.3z"/>
<g>
	<path class="st6" d="M389.4,256.9v-10h1.2v10H389.4z"/>
	<path class="st6" d="M398.3,256.9v-4.8c0-0.6-0.1-1.1-0.4-1.4s-0.7-0.5-1.3-0.5c-0.8,0-1.4,0.2-1.7,0.6s-0.5,1.1-0.5,2.1v3.9h-1.2
		v-7.5h0.9l0.2,1h0.1c0.2-0.4,0.6-0.7,1-0.9s0.9-0.3,1.4-0.3c0.9,0,1.6,0.2,2,0.7c0.5,0.4,0.7,1.1,0.7,2.1v4.9L398.3,256.9
		L398.3,256.9z"/>
	<path class="st6" d="M404.2,256.1c0.2,0,0.4,0,0.6,0s0.3-0.1,0.4-0.1v0.9c-0.1,0.1-0.3,0.1-0.5,0.1s-0.5,0.1-0.6,0.1
		c-1.4,0-2.2-0.8-2.2-2.3v-4.5h-1.1v-0.5l1.1-0.5l0.5-1.6h0.7v1.7h2.2v0.9h-2.2v4.4c0,0.5,0.1,0.8,0.3,1
		C403.5,256,403.8,256.1,404.2,256.1z"/>
	<path class="st6" d="M409.9,257.1c-1.1,0-2-0.3-2.6-1c-0.6-0.7-1-1.6-1-2.8s0.3-2.2,0.9-2.9s1.4-1.1,2.4-1.1c0.9,0,1.7,0.3,2.2,0.9
		c0.5,0.6,0.8,1.4,0.8,2.4v0.7h-5.2c0,0.9,0.2,1.5,0.7,2c0.4,0.5,1,0.7,1.8,0.7s1.6-0.2,2.4-0.5v1c-0.4,0.2-0.8,0.3-1.1,0.4
		C410.8,257,410.4,257.1,409.9,257.1z M409.6,250.3c-0.6,0-1.1,0.2-1.4,0.6c-0.4,0.4-0.6,0.9-0.6,1.6h3.9c0-0.7-0.2-1.3-0.5-1.6
		C410.6,250.4,410.1,250.3,409.6,250.3z"/>
	<path class="st6" d="M418,249.3c0.3,0,0.6,0,0.9,0.1l-0.2,1.1c-0.3-0.1-0.6-0.1-0.8-0.1c-0.6,0-1.1,0.2-1.6,0.7
		c-0.4,0.5-0.6,1.1-0.6,1.8v4h-1.1v-7.5h0.9l0.1,1.4h0.1c0.3-0.5,0.6-0.9,1-1.1C417.1,249.4,417.5,249.3,418,249.3z"/>
	<path class="st6" d="M425.4,256.9v-4.8c0-0.6-0.1-1.1-0.4-1.4s-0.7-0.5-1.3-0.5c-0.8,0-1.4,0.2-1.7,0.6s-0.5,1.1-0.5,2.1v3.9h-1.1
		v-7.5h0.9l0.2,1h0.1c0.2-0.4,0.6-0.7,1-0.9s0.9-0.3,1.4-0.3c0.9,0,1.6,0.2,2,0.7c0.5,0.4,0.7,1.1,0.7,2.1v4.9L425.4,256.9
		L425.4,256.9z"/>
	<path class="st6" d="M433.5,256.9l-0.2-1.1h-0.1c-0.4,0.5-0.7,0.8-1.1,1c-0.4,0.2-0.8,0.2-1.4,0.2c-0.7,0-1.3-0.2-1.7-0.6
		s-0.6-0.9-0.6-1.6c0-1.5,1.2-2.3,3.6-2.4h1.3v-0.5c0-0.6-0.1-1-0.4-1.3c-0.3-0.3-0.7-0.4-1.2-0.4c-0.6,0-1.3,0.2-2.1,0.6l-0.3-0.9
		c0.4-0.2,0.8-0.4,1.2-0.5s0.9-0.2,1.3-0.2c0.9,0,1.6,0.2,2,0.6c0.4,0.4,0.6,1,0.6,1.9v5.1L433.5,256.9L433.5,256.9z M430.9,256.1
		c0.7,0,1.3-0.2,1.7-0.6c0.4-0.4,0.6-0.9,0.6-1.6v-0.7h-1.1c-0.9,0-1.6,0.2-2,0.4s-0.6,0.6-0.6,1.2c0,0.4,0.1,0.7,0.4,0.9
		C430.1,256,430.5,256.1,430.9,256.1z"/>
	<path class="st6" d="M439.1,256.1c0.2,0,0.4,0,0.6,0c0.2,0,0.3-0.1,0.4-0.1v0.9c-0.1,0.1-0.3,0.1-0.5,0.1s-0.5,0.1-0.6,0.1
		c-1.4,0-2.2-0.8-2.2-2.3v-4.5h-1.1v-0.5l1.1-0.5l0.5-1.6h0.7v1.7h2.2v0.9H438v4.4c0,0.5,0.1,0.8,0.3,1
		C438.4,256,438.7,256.1,439.1,256.1z"/>
	<path class="st6" d="M441.5,247.4c0-0.3,0.1-0.5,0.2-0.6c0.1-0.1,0.3-0.2,0.5-0.2s0.3,0.1,0.5,0.2s0.2,0.3,0.2,0.6
		s-0.1,0.4-0.2,0.6c-0.1,0.1-0.3,0.2-0.5,0.2s-0.4-0.1-0.5-0.2C441.6,247.9,441.5,247.7,441.5,247.4z M442.7,256.9h-1.1v-7.5h1.1
		V256.9z"/>
	<path class="st6" d="M451.6,253.2c0,1.2-0.3,2.2-0.9,2.9c-0.6,0.7-1.5,1-2.5,1c-0.7,0-1.3-0.2-1.8-0.5c-0.5-0.3-0.9-0.8-1.2-1.4
		s-0.4-1.3-0.4-2.1c0-1.2,0.3-2.2,0.9-2.9c0.6-0.7,1.5-1,2.5-1s1.9,0.3,2.5,1C451.3,251,451.6,252,451.6,253.2z M445.9,253.2
		c0,1,0.2,1.7,0.6,2.2c0.4,0.5,0.9,0.8,1.7,0.8s1.3-0.2,1.7-0.7s0.6-1.2,0.6-2.2s-0.2-1.7-0.6-2.2c-0.4-0.5-1-0.7-1.7-0.7
		s-1.3,0.2-1.7,0.7C446.1,251.5,445.9,252.2,445.9,253.2z"/>
	<path class="st6" d="M458.7,256.9v-4.8c0-0.6-0.1-1.1-0.4-1.4s-0.7-0.5-1.3-0.5c-0.8,0-1.4,0.2-1.7,0.6s-0.5,1.1-0.5,2.1v3.9h-1.1
		v-7.5h0.9l0.2,1h0.1c0.2-0.4,0.6-0.7,1-0.9s0.9-0.3,1.4-0.3c0.9,0,1.6,0.2,2,0.7c0.5,0.4,0.7,1.1,0.7,2.1v4.9L458.7,256.9
		L458.7,256.9z"/>
	<path class="st6" d="M466.8,256.9l-0.2-1.1h-0.1c-0.4,0.5-0.7,0.8-1.1,1c-0.4,0.2-0.8,0.2-1.4,0.2c-0.7,0-1.3-0.2-1.7-0.6
		s-0.6-0.9-0.6-1.6c0-1.5,1.2-2.3,3.6-2.4h1.3v-0.5c0-0.6-0.1-1-0.4-1.3c-0.3-0.3-0.7-0.4-1.2-0.4c-0.6,0-1.3,0.2-2.1,0.6l-0.3-0.9
		c0.4-0.2,0.8-0.4,1.2-0.5s0.9-0.2,1.3-0.2c0.9,0,1.6,0.2,2,0.6c0.4,0.4,0.6,1,0.6,1.9v5.1L466.8,256.9L466.8,256.9z M464.2,256.1
		c0.7,0,1.3-0.2,1.7-0.6c0.4-0.4,0.6-0.9,0.6-1.6v-0.7h-1.1c-0.9,0-1.6,0.2-2,0.4s-0.6,0.6-0.6,1.2c0,0.4,0.1,0.7,0.4,0.9
		C463.4,256,463.8,256.1,464.2,256.1z"/>
	<path class="st6" d="M471.1,256.9H470v-10.6h1.1V256.9z"/>
	<path class="st6" d="M398.1,268.7c0,1.6-0.4,2.9-1.2,3.8c-0.8,0.9-1.9,1.4-3.4,1.4s-2.6-0.5-3.4-1.3c-0.8-0.9-1.2-2.2-1.2-3.8
		s0.4-2.9,1.2-3.8c0.8-0.9,1.9-1.3,3.4-1.3c1.4,0,2.6,0.5,3.4,1.4C397.7,265.9,398.1,267.1,398.1,268.7z M390.1,268.7
		c0,1.4,0.3,2.4,0.9,3.1c0.6,0.7,1.4,1,2.5,1s1.9-0.3,2.5-1c0.6-0.7,0.8-1.7,0.8-3.1c0-1.3-0.3-2.4-0.8-3.1c-0.6-0.7-1.4-1-2.5-1
		s-1.9,0.3-2.5,1C390.4,266.4,390.1,267.4,390.1,268.7z"/>
	<path class="st6" d="M403.6,266.1c0.3,0,0.6,0,0.9,0.1l-0.2,1.1c-0.3-0.1-0.6-0.1-0.8-0.1c-0.6,0-1.1,0.2-1.6,0.7
		c-0.4,0.5-0.6,1.1-0.6,1.8v4h-1.1v-7.5h0.9l0.1,1.4h0.1c0.3-0.5,0.6-0.9,1-1.1C402.7,266.2,403.1,266.1,403.6,266.1z"/>
	<path class="st6" d="M412,266.2v0.7l-1.4,0.2c0.1,0.2,0.2,0.4,0.3,0.6c0.1,0.3,0.2,0.5,0.2,0.9c0,0.7-0.3,1.3-0.8,1.8
		s-1.2,0.7-2.1,0.7c-0.2,0-0.4,0-0.6-0.1c-0.5,0.3-0.7,0.6-0.7,1c0,0.2,0.1,0.4,0.3,0.5c0.2,0.1,0.5,0.1,0.9,0.1h1.3
		c0.8,0,1.4,0.2,1.9,0.5c0.4,0.3,0.7,0.8,0.7,1.5c0,0.8-0.3,1.5-1,1.9s-1.6,0.7-2.9,0.7c-1,0-1.7-0.2-2.3-0.5
		c-0.5-0.4-0.8-0.9-0.8-1.5c0-0.5,0.1-0.8,0.4-1.2c0.3-0.3,0.7-0.6,1.2-0.7c-0.2-0.1-0.4-0.2-0.5-0.4c-0.1-0.2-0.2-0.4-0.2-0.6
		c0-0.3,0.1-0.5,0.2-0.7c0.1-0.2,0.4-0.4,0.7-0.6c-0.4-0.2-0.7-0.4-0.9-0.8c-0.2-0.4-0.4-0.8-0.4-1.3c0-0.8,0.2-1.5,0.7-1.9
		s1.2-0.7,2.1-0.7c0.4,0,0.7,0,1.1,0.1h2.6V266.2z M406,275c0,0.4,0.2,0.7,0.5,0.9c0.3,0.2,0.8,0.3,1.5,0.3c1,0,1.7-0.1,2.1-0.4
		c0.5-0.3,0.7-0.7,0.7-1.2c0-0.4-0.1-0.7-0.4-0.8s-0.7-0.2-1.4-0.2h-1.4c-0.5,0-0.9,0.1-1.2,0.4S406,274.5,406,275z M406.6,268.6
		c0,0.5,0.1,0.9,0.4,1.2c0.3,0.3,0.7,0.4,1.2,0.4c1.1,0,1.7-0.5,1.7-1.6s-0.6-1.7-1.7-1.7c-0.5,0-0.9,0.1-1.2,0.4
		S406.6,268.1,406.6,268.6z"/>
	<path class="st6" d="M418.2,273.7l-0.2-1.1h-0.1c-0.4,0.5-0.7,0.8-1.1,1c-0.4,0.2-0.8,0.2-1.4,0.2c-0.7,0-1.3-0.2-1.7-0.6
		c-0.4-0.4-0.6-0.9-0.6-1.6c0-1.5,1.2-2.3,3.6-2.4h1.3v-0.5c0-0.6-0.1-1-0.4-1.3c-0.3-0.3-0.7-0.4-1.2-0.4c-0.6,0-1.3,0.2-2.1,0.6
		l-0.3-0.9c0.4-0.2,0.8-0.4,1.2-0.5c0.4-0.1,0.9-0.2,1.3-0.2c0.9,0,1.6,0.2,2,0.6s0.6,1,0.6,1.9v5.1h-0.9V273.7z M415.6,272.9
		c0.7,0,1.3-0.2,1.7-0.6c0.4-0.4,0.6-0.9,0.6-1.6V270h-1.1c-0.9,0-1.6,0.2-2,0.4c-0.4,0.2-0.6,0.6-0.6,1.2c0,0.4,0.1,0.7,0.4,0.9
		C414.8,272.8,415.1,272.9,415.6,272.9z"/>
	<path class="st6" d="M426.5,273.7v-4.8c0-0.6-0.1-1.1-0.4-1.4s-0.7-0.5-1.3-0.5c-0.8,0-1.4,0.2-1.7,0.6c-0.3,0.4-0.5,1.1-0.5,2.1
		v3.9h-1.1v-7.5h0.9l0.2,1h0.1c0.2-0.4,0.6-0.7,1-0.9c0.4-0.2,0.9-0.3,1.4-0.3c0.9,0,1.6,0.2,2,0.7c0.5,0.4,0.7,1.1,0.7,2.1v4.9
		h-1.3V273.7z"/>
	<path class="st6" d="M429.8,264.2c0-0.3,0.1-0.5,0.2-0.6c0.1-0.1,0.3-0.2,0.5-0.2s0.3,0.1,0.5,0.2c0.2,0.1,0.2,0.3,0.2,0.6
		c0,0.3-0.1,0.4-0.2,0.6c-0.1,0.1-0.3,0.2-0.5,0.2s-0.4-0.1-0.5-0.2C429.9,264.7,429.8,264.5,429.8,264.2z M431.1,273.7H430v-7.5
		h1.1V273.7z"/>
	<path class="st6" d="M438.3,271.7c0,0.7-0.3,1.2-0.8,1.6c-0.5,0.4-1.2,0.6-2.2,0.6s-1.8-0.2-2.3-0.5v-1.1c0.4,0.2,0.7,0.3,1.2,0.4
		c0.4,0.1,0.8,0.2,1.2,0.2c0.6,0,1-0.1,1.4-0.3c0.3-0.2,0.5-0.5,0.5-0.9c0-0.3-0.1-0.5-0.4-0.7c-0.3-0.2-0.7-0.5-1.5-0.7
		c-0.7-0.3-1.2-0.5-1.5-0.7c-0.3-0.2-0.5-0.4-0.7-0.7c-0.1-0.2-0.2-0.5-0.2-0.9c0-0.6,0.2-1.1,0.7-1.4c0.5-0.4,1.2-0.5,2-0.5
		s1.6,0.2,2.4,0.5l-0.4,0.9c-0.8-0.3-1.4-0.5-2-0.5c-0.5,0-0.9,0.1-1.2,0.3c-0.3,0.2-0.4,0.4-0.4,0.7c0,0.2,0.1,0.4,0.2,0.5
		c0.1,0.1,0.3,0.3,0.5,0.4s0.7,0.3,1.3,0.6c0.9,0.3,1.5,0.6,1.8,1C438.1,270.8,438.3,271.2,438.3,271.7z"/>
	<path class="st6" d="M444.8,273.7l-0.2-1.1h-0.1c-0.4,0.5-0.7,0.8-1.1,1c-0.4,0.2-0.8,0.2-1.4,0.2c-0.7,0-1.3-0.2-1.7-0.6
		c-0.4-0.4-0.6-0.9-0.6-1.6c0-1.5,1.2-2.3,3.6-2.4h1.3v-0.5c0-0.6-0.1-1-0.4-1.3c-0.3-0.3-0.7-0.4-1.2-0.4c-0.6,0-1.3,0.2-2.1,0.6
		l-0.3-0.9c0.4-0.2,0.8-0.4,1.2-0.5s0.9-0.2,1.3-0.2c0.9,0,1.6,0.2,2,0.6s0.6,1,0.6,1.9v5.1h-0.9V273.7z M442.2,272.9
		c0.7,0,1.3-0.2,1.7-0.6c0.4-0.4,0.6-0.9,0.6-1.6V270h-1.1c-0.9,0-1.6,0.2-2,0.4c-0.4,0.2-0.6,0.6-0.6,1.2c0,0.4,0.1,0.7,0.4,0.9
		C441.4,272.8,441.7,272.9,442.2,272.9z"/>
	<path class="st6" d="M450.4,272.9c0.2,0,0.4,0,0.6,0c0.2,0,0.3-0.1,0.4-0.1v0.9c-0.1,0.1-0.3,0.1-0.5,0.1s-0.5,0.1-0.6,0.1
		c-1.4,0-2.2-0.8-2.2-2.3v-4.5H447v-0.5l1.1-0.5l0.5-1.6h0.7v1.7h2.2v0.9h-2.2v4.4c0,0.5,0.1,0.8,0.3,1
		C449.7,272.8,450,272.9,450.4,272.9z"/>
	<path class="st6" d="M452.8,264.2c0-0.3,0.1-0.5,0.2-0.6c0.1-0.1,0.3-0.2,0.5-0.2s0.3,0.1,0.5,0.2c0.2,0.1,0.2,0.3,0.2,0.6
		c0,0.3-0.1,0.4-0.2,0.6c-0.1,0.1-0.3,0.2-0.5,0.2s-0.4-0.1-0.5-0.2C452.8,264.7,452.8,264.5,452.8,264.2z M454,273.7h-1.1v-7.5h1.1
		V273.7z"/>
	<path class="st6" d="M462.9,270c0,1.2-0.3,2.2-0.9,2.9c-0.6,0.7-1.5,1-2.5,1c-0.7,0-1.3-0.2-1.8-0.5c-0.5-0.3-0.9-0.8-1.2-1.4
		c-0.3-0.6-0.4-1.3-0.4-2.1c0-1.2,0.3-2.2,0.9-2.9c0.6-0.7,1.5-1,2.5-1s1.9,0.3,2.5,1C462.6,267.8,462.9,268.8,462.9,270z
		 M457.2,270c0,1,0.2,1.7,0.6,2.2c0.4,0.5,0.9,0.8,1.7,0.8s1.3-0.2,1.7-0.7s0.6-1.2,0.6-2.2s-0.2-1.7-0.6-2.2
		c-0.4-0.5-1-0.7-1.7-0.7s-1.3,0.2-1.7,0.7C457.4,268.3,457.2,269,457.2,270z"/>
	<path class="st6" d="M470,273.7v-4.8c0-0.6-0.1-1.1-0.4-1.4s-0.7-0.5-1.3-0.5c-0.8,0-1.4,0.2-1.7,0.6c-0.3,0.4-0.5,1.1-0.5,2.1v3.9
		H465v-7.5h0.9l0.2,1h0.1c0.2-0.4,0.6-0.7,1-0.9c0.4-0.2,0.9-0.3,1.4-0.3c0.9,0,1.6,0.2,2,0.7c0.5,0.4,0.7,1.1,0.7,2.1v4.9H470
		V273.7z"/>
	<path class="st6" d="M478.3,271.7c0,0.7-0.3,1.2-0.8,1.6c-0.5,0.4-1.2,0.6-2.2,0.6s-1.8-0.2-2.3-0.5v-1.1c0.4,0.2,0.7,0.3,1.2,0.4
		c0.4,0.1,0.8,0.2,1.2,0.2c0.6,0,1-0.1,1.4-0.3c0.3-0.2,0.5-0.5,0.5-0.9c0-0.3-0.1-0.5-0.4-0.7c-0.3-0.2-0.7-0.5-1.5-0.7
		c-0.7-0.3-1.2-0.5-1.5-0.7c-0.3-0.2-0.5-0.4-0.7-0.7c-0.1-0.2-0.2-0.5-0.2-0.9c0-0.6,0.2-1.1,0.7-1.4c0.5-0.4,1.2-0.5,2-0.5
		s1.6,0.2,2.4,0.5l-0.4,0.9c-0.8-0.3-1.4-0.5-2-0.5c-0.5,0-0.9,0.1-1.2,0.3c-0.3,0.2-0.4,0.4-0.4,0.7c0,0.2,0.1,0.4,0.2,0.5
		c0.1,0.1,0.3,0.3,0.5,0.4s0.7,0.3,1.3,0.6c0.9,0.3,1.5,0.6,1.8,1C478.1,270.8,478.3,271.2,478.3,271.7z"/>
</g>
<g>
	<path class="st6" d="M342.3,228.1c0,0.8-0.2,1.5-0.7,2s-1.2,0.9-2,1.2v0.1c1,0.1,1.8,0.4,2.4,0.9s0.8,1.2,0.8,2
		c0,1.2-0.4,2.2-1.3,2.9s-2.2,1-3.8,1c-1.4,0-2.6-0.2-3.7-0.7v-2.3c0.5,0.3,1,0.5,1.6,0.6s1.2,0.2,1.8,0.2c0.9,0,1.6-0.2,2-0.5
		s0.6-0.8,0.6-1.5c0-0.6-0.2-1-0.7-1.3s-1.3-0.4-2.4-0.4h-1v-2.1h1c1,0,1.7-0.1,2.2-0.4s0.7-0.7,0.7-1.3c0-1-0.6-1.5-1.8-1.5
		c-0.4,0-0.9,0.1-1.3,0.2s-0.9,0.4-1.5,0.7l-1.3-1.9c1.2-0.8,2.6-1.3,4.2-1.3c1.3,0,2.4,0.3,3.2,0.8
		C341.9,226.4,342.3,227.1,342.3,228.1z"/>
	<path class="st6" d="M353,230.7c0,2.5-0.5,4.4-1.6,5.7s-2.7,1.9-4.8,1.9c-0.8,0-1.3,0-1.7-0.1V236c0.5,0.1,1,0.2,1.5,0.2
		c0.9,0,1.7-0.1,2.2-0.4s1-0.7,1.3-1.3s0.5-1.4,0.5-2.4h-0.1c-0.3,0.6-0.7,0.9-1.2,1.2s-1,0.3-1.7,0.3c-1.1,0-2-0.4-2.6-1.1
		s-1-1.7-1-3c0-1.4,0.4-2.5,1.2-3.3c0.8-0.8,1.8-1.2,3.2-1.2c0.9,0,1.8,0.2,2.5,0.7c0.7,0.4,1.3,1.1,1.6,1.9S353,229.5,353,230.7z
		 M348.4,227.2c-0.6,0-1,0.2-1.3,0.6s-0.5,0.9-0.5,1.7c0,0.6,0.1,1.1,0.4,1.5s0.7,0.5,1.3,0.5c0.6,0,1-0.2,1.4-0.5s0.6-0.8,0.6-1.2
		c0-0.7-0.2-1.3-0.5-1.8S348.9,227.2,348.4,227.2z"/>
	<path class="st6" d="M360.3,229c0,1.3-0.3,2.4-0.8,3s-1.3,1-2.3,1s-1.7-0.3-2.2-1s-0.8-1.7-0.8-3c0-2.7,1-4,3-4c1,0,1.8,0.3,2.3,1
		C360,226.8,360.3,227.8,360.3,229z M356.4,229.1c0,0.7,0.1,1.3,0.2,1.7s0.3,0.5,0.6,0.5c0.6,0,0.8-0.7,0.8-2.2s-0.3-2.2-0.8-2.2
		c-0.3,0-0.5,0.2-0.6,0.5C356.5,227.8,356.4,228.3,356.4,229.1z M366.3,225.2l-7.1,12.8h-2.1l7.1-12.8H366.3z M369.3,234.2
		c0,1.3-0.3,2.4-0.8,3s-1.3,1-2.3,1s-1.7-0.3-2.2-1s-0.8-1.7-0.8-3c0-2.7,1-4,3-4c1,0,1.8,0.3,2.3,1S369.3,232.9,369.3,234.2z
		 M365.4,234.2c0,0.7,0.1,1.3,0.2,1.7s0.3,0.5,0.6,0.5c0.6,0,0.8-0.7,0.8-2.2s-0.3-2.2-0.8-2.2c-0.3,0-0.5,0.2-0.6,0.5
		C365.5,232.9,365.4,233.4,365.4,234.2z"/>
</g>
<g>
	<path class="st6" d="M191.6,297.6c0,0.8-0.2,1.5-0.7,2s-1.2,0.9-2,1.2v0.1c1,0.1,1.8,0.4,2.4,0.9s0.8,1.2,0.8,2
		c0,1.2-0.4,2.2-1.3,2.9s-2.2,1-3.8,1c-1.4,0-2.6-0.2-3.7-0.7v-2.3c0.5,0.3,1,0.5,1.6,0.6s1.2,0.2,1.8,0.2c0.9,0,1.6-0.2,2-0.5
		s0.6-0.8,0.6-1.5c0-0.6-0.2-1-0.7-1.3s-1.3-0.4-2.4-0.4h-1v-2.1h1c1,0,1.7-0.1,2.2-0.4s0.7-0.7,0.7-1.3c0-1-0.6-1.5-1.8-1.5
		c-0.4,0-0.9,0.1-1.3,0.2s-0.9,0.4-1.5,0.7l-1.3-1.9c1.2-0.8,2.6-1.3,4.2-1.3c1.3,0,2.4,0.3,3.2,0.8
		C191.3,295.9,191.6,296.6,191.6,297.6z"/>
	<path class="st6" d="M198.1,299.3c1.2,0,2.2,0.3,3,1c0.7,0.7,1.1,1.7,1.1,2.9c0,1.4-0.4,2.5-1.3,3.3s-2.2,1.2-3.8,1.2
		c-1.4,0-2.6-0.2-3.5-0.7v-2.3c0.5,0.2,1,0.4,1.6,0.6s1.2,0.2,1.7,0.2c1.7,0,2.5-0.7,2.5-2s-0.9-1.9-2.6-1.9c-0.3,0-0.7,0-1,0.1
		s-0.7,0.1-0.9,0.2l-1.1-0.6l0.5-6.5h7v2.3h-4.6l-0.2,2.5l0.3-0.1C197.1,299.4,197.6,299.3,198.1,299.3z"/>
	<path class="st6" d="M209.7,298.5c0,1.3-0.3,2.4-0.8,3s-1.3,1-2.3,1s-1.7-0.3-2.2-1s-0.8-1.7-0.8-3c0-2.7,1-4,3-4
		c1,0,1.8,0.3,2.3,1C209.4,296.3,209.7,297.3,209.7,298.5z M205.8,298.6c0,0.7,0.1,1.3,0.2,1.7c0.1,0.4,0.3,0.5,0.6,0.5
		c0.6,0,0.8-0.7,0.8-2.2s-0.3-2.2-0.8-2.2c-0.3,0-0.5,0.2-0.6,0.5C205.8,297.3,205.8,297.8,205.8,298.6z M215.7,294.7l-7.1,12.8
		h-2.1l7.1-12.8H215.7z M218.7,303.7c0,1.3-0.3,2.4-0.8,3s-1.3,1-2.3,1s-1.7-0.3-2.2-1s-0.8-1.7-0.8-3c0-2.7,1-4,3-4
		c1,0,1.8,0.3,2.3,1C218.4,301.4,218.7,302.4,218.7,303.7z M214.8,303.7c0,0.7,0.1,1.3,0.2,1.7c0.1,0.4,0.3,0.5,0.6,0.5
		c0.6,0,0.8-0.7,0.8-2.2s-0.3-2.2-0.8-2.2c-0.3,0-0.5,0.2-0.6,0.5C214.8,302.4,214.8,302.9,214.8,303.7z"/>
</g>
<g>
	<path class="st6" d="M121,183.5h-2.7v-7.4v-1.2v-1.3c-0.5,0.5-0.8,0.7-0.9,0.9l-1.5,1.2l-1.3-1.6l4.1-3.3h2.2L121,183.5L121,183.5z
		"/>
	<path class="st6" d="M131.3,183.5h-2.7v-7.4v-1.2v-1.3c-0.5,0.5-0.8,0.7-0.9,0.9l-1.5,1.2l-1.3-1.6l4.1-3.3h2.2L131.3,183.5
		L131.3,183.5z"/>
	<path class="st6" d="M140.8,174.4c0,1.3-0.3,2.4-0.8,3s-1.3,1-2.3,1s-1.7-0.3-2.2-1s-0.8-1.7-0.8-3c0-2.7,1-4,3-4
		c1,0,1.8,0.3,2.3,1C140.5,172.2,140.8,173.2,140.8,174.4z M136.9,174.5c0,0.7,0.1,1.3,0.2,1.7c0.1,0.4,0.3,0.5,0.6,0.5
		c0.6,0,0.8-0.7,0.8-2.2s-0.3-2.2-0.8-2.2c-0.3,0-0.5,0.2-0.6,0.5C136.9,173.2,136.9,173.7,136.9,174.5z M146.8,170.6l-7.1,12.8
		h-2.1l7.1-12.8H146.8z M149.8,179.6c0,1.3-0.3,2.4-0.8,3s-1.3,1-2.3,1s-1.7-0.3-2.2-1s-0.8-1.7-0.8-3c0-2.7,1-4,3-4
		c1,0,1.8,0.3,2.3,1S149.8,178.3,149.8,179.6z M145.9,179.6c0,0.7,0.1,1.3,0.2,1.7c0.1,0.4,0.3,0.5,0.6,0.5c0.6,0,0.8-0.7,0.8-2.2
		s-0.3-2.2-0.8-2.2c-0.3,0-0.5,0.2-0.6,0.5C145.9,178.3,145.9,178.8,145.9,179.6z"/>
</g>
<g>
	<path class="st6" d="M161.7,106.5c1.2,0,2.2,0.3,3,0.8s1.1,1.3,1.1,2.3c0,0.7-0.2,1.2-0.5,1.8s-0.9,1-1.8,1.4
		c1,0.5,1.7,1.1,2.1,1.6s0.6,1.2,0.6,1.8c0,1.1-0.4,1.9-1.2,2.5s-1.9,1-3.3,1c-1.4,0-2.5-0.3-3.3-0.9s-1.2-1.4-1.2-2.5
		c0-0.7,0.2-1.4,0.6-2s1-1.1,1.9-1.5c-0.7-0.5-1.3-1-1.6-1.5s-0.5-1.1-0.5-1.7c0-0.9,0.4-1.7,1.1-2.2S160.5,106.5,161.7,106.5z
		 M159.7,116.1c0,0.5,0.2,0.9,0.5,1.2s0.8,0.4,1.4,0.4c0.7,0,1.2-0.1,1.5-0.4s0.5-0.7,0.5-1.1s-0.2-0.8-0.5-1.1s-0.9-0.7-1.6-1.1
		C160.3,114.5,159.7,115.2,159.7,116.1z M161.7,108.5c-0.5,0-0.8,0.1-1.1,0.4s-0.4,0.6-0.4,1s0.1,0.7,0.3,0.9s0.6,0.6,1.2,0.9
		c0.6-0.3,1-0.5,1.2-0.8s0.3-0.6,0.3-1s-0.1-0.7-0.4-1S162.2,108.5,161.7,108.5z"/>
	<path class="st6" d="M173.5,110.5c0,1.3-0.3,2.4-0.8,3s-1.3,1-2.3,1s-1.7-0.3-2.2-1s-0.8-1.7-0.8-3c0-2.7,1-4,3-4
		c1,0,1.8,0.3,2.3,1S173.5,109.2,173.5,110.5z M169.6,110.5c0,0.7,0.1,1.3,0.2,1.7c0.1,0.4,0.3,0.5,0.6,0.5c0.6,0,0.8-0.7,0.8-2.2
		s-0.3-2.2-0.8-2.2c-0.3,0-0.5,0.2-0.6,0.5C169.7,109.2,169.6,109.7,169.6,110.5z M179.6,106.6l-7.1,12.8h-2.1l7.1-12.8H179.6z
		 M182.5,115.6c0,1.3-0.3,2.4-0.8,3s-1.3,1-2.3,1s-1.7-0.3-2.2-1s-0.8-1.7-0.8-3c0-2.7,1-4,3-4c1,0,1.8,0.3,2.3,1
		S182.5,114.3,182.5,115.6z M178.6,115.6c0,0.7,0.1,1.3,0.2,1.7c0.1,0.4,0.3,0.5,0.6,0.5c0.6,0,0.8-0.7,0.8-2.2s-0.3-2.2-0.8-2.2
		c-0.3,0-0.5,0.2-0.6,0.5C178.7,114.3,178.6,114.9,178.6,115.6z"/>
</g>
<g>
	<path class="st6" d="M203.3,86.5c1,0,1.7,0.3,2.3,0.8s0.9,1.3,0.9,2.2c0,1.1-0.3,2-1,2.6s-1.7,0.9-3,0.9c-1.1,0-2-0.2-2.7-0.5v-1.8
		c0.4,0.2,0.8,0.3,1.3,0.5s0.9,0.2,1.4,0.2c1.3,0,1.9-0.5,1.9-1.6c0-1-0.7-1.5-2-1.5c-0.2,0-0.5,0-0.8,0.1s-0.5,0.1-0.7,0.2
		l-0.8-0.5l0.4-5.1h5.4v1.8h-3.6l-0.2,2h0.2C202.6,86.5,202.9,86.5,203.3,86.5z"/>
	<path class="st6" d="M212.3,85.9c0,1-0.2,1.8-0.6,2.4s-1,0.8-1.8,0.8s-1.3-0.3-1.7-0.8s-0.6-1.3-0.6-2.3c0-2.1,0.8-3.1,2.4-3.1
		c0.8,0,1.4,0.3,1.8,0.8C212.1,84.1,212.3,84.9,212.3,85.9z M209.3,85.9c0,0.6,0.1,1,0.2,1.3s0.3,0.4,0.5,0.4c0.4,0,0.7-0.6,0.7-1.7
		s-0.2-1.7-0.7-1.7c-0.2,0-0.4,0.1-0.5,0.4C209.3,84.9,209.3,85.3,209.3,85.9z M217,82.9l-5.5,10h-1.6l5.5-10H217z M219.3,89.9
		c0,1-0.2,1.8-0.6,2.4s-1,0.8-1.8,0.8s-1.3-0.3-1.7-0.8s-0.6-1.3-0.6-2.3c0-2.1,0.8-3.1,2.4-3.1c0.8,0,1.4,0.3,1.8,0.8
		C219.1,88.1,219.3,88.9,219.3,89.9z M216.3,89.9c0,0.6,0.1,1,0.2,1.3s0.3,0.4,0.5,0.4c0.4,0,0.7-0.6,0.7-1.7s-0.2-1.7-0.7-1.7
		c-0.2,0-0.4,0.1-0.5,0.4C216.3,88.9,216.3,89.3,216.3,89.9z"/>
</g>
<g>
	<path class="st6" d="M237.4,82.3h-7v-1.5l2.5-2.5c0.7-0.8,1.2-1.3,1.5-1.6c0.3-0.3,0.4-0.6,0.5-0.8c0.1-0.2,0.2-0.5,0.2-0.8
		c0-0.4-0.1-0.7-0.3-0.9c-0.2-0.2-0.5-0.3-0.9-0.3s-0.8,0.1-1.1,0.3s-0.7,0.4-1.1,0.8l-1.1-1.4c0.5-0.4,0.9-0.7,1.2-0.9
		s0.7-0.3,1.1-0.4c0.4-0.1,0.8-0.1,1.3-0.1c0.6,0,1.2,0.1,1.7,0.3c0.5,0.2,0.8,0.5,1.1,1s0.4,0.9,0.4,1.4s-0.1,0.9-0.2,1.3
		c-0.2,0.4-0.4,0.8-0.8,1.2c-0.3,0.4-0.9,1-1.8,1.8l-1.3,1.2v0.1h4.4v1.8H237.4z"/>
	<path class="st6" d="M243,75.3c0,1-0.2,1.8-0.6,2.4s-1,0.8-1.8,0.8s-1.3-0.3-1.7-0.8s-0.6-1.3-0.6-2.3c0-2.1,0.8-3.1,2.4-3.1
		c0.8,0,1.4,0.3,1.8,0.8C242.8,73.5,243,74.2,243,75.3z M240,75.3c0,0.6,0.1,1,0.2,1.3c0.1,0.3,0.3,0.4,0.5,0.4
		c0.4,0,0.7-0.6,0.7-1.7c0-1.1-0.2-1.7-0.7-1.7c-0.2,0-0.4,0.1-0.5,0.4C240,74.3,240,74.7,240,75.3z M247.7,72.3l-5.5,10h-1.6
		l5.5-10H247.7z M250,79.2c0,1-0.2,1.8-0.6,2.4c-0.4,0.6-1,0.8-1.8,0.8s-1.3-0.3-1.7-0.8s-0.6-1.3-0.6-2.3c0-2.1,0.8-3.1,2.4-3.1
		c0.8,0,1.4,0.3,1.8,0.8C249.8,77.5,250,78.2,250,79.2z M247,79.3c0,0.6,0.1,1,0.2,1.3c0.1,0.3,0.3,0.4,0.5,0.4
		c0.4,0,0.7-0.6,0.7-1.7c0-1.1-0.2-1.7-0.7-1.7c-0.2,0-0.4,0.1-0.5,0.4C247,78.2,247,78.7,247,79.3z"/>
</g>
<g>
	<path class="st6" d="M84.7,346.7v-10h1.2v8.9h4.4v1.1H84.7z"/>
	<path class="st6" d="M98.2,342.9c0,1.2-0.3,2.2-0.9,2.9c-0.6,0.7-1.5,1-2.5,1c-0.7,0-1.3-0.2-1.8-0.5s-0.9-0.8-1.2-1.4
		s-0.4-1.3-0.4-2.1c0-1.2,0.3-2.2,0.9-2.9c0.6-0.7,1.5-1,2.5-1s1.9,0.3,2.5,1C97.9,340.8,98.2,341.7,98.2,342.9z M92.5,342.9
		c0,1,0.2,1.7,0.6,2.2c0.4,0.5,0.9,0.8,1.7,0.8s1.3-0.2,1.7-0.7s0.6-1.2,0.6-2.2s-0.2-1.7-0.6-2.2c-0.4-0.5-1-0.7-1.7-0.7
		s-1.3,0.2-1.7,0.7C92.7,341.2,92.5,341.9,92.5,342.9z"/>
	<path class="st6" d="M103.2,346.8c-1.1,0-1.9-0.3-2.5-1s-0.9-1.6-0.9-2.8c0-1.3,0.3-2.2,0.9-2.9c0.6-0.7,1.5-1,2.6-1
		c0.4,0,0.7,0,1.1,0.1c0.4,0.1,0.6,0.2,0.8,0.3l-0.3,1c-0.3-0.1-0.5-0.2-0.8-0.2c-0.3-0.1-0.6-0.1-0.8-0.1c-1.5,0-2.3,1-2.3,2.9
		c0,0.9,0.2,1.6,0.6,2.1c0.4,0.5,0.9,0.7,1.7,0.7c0.6,0,1.3-0.1,1.9-0.4v1C104.6,346.7,104,346.8,103.2,346.8z"/>
	<path class="st6" d="M111.5,346.7l-0.2-1.1h-0.1c-0.4,0.5-0.7,0.8-1.1,1c-0.4,0.2-0.8,0.2-1.4,0.2c-0.7,0-1.3-0.2-1.7-0.6
		s-0.6-0.9-0.6-1.6c0-1.5,1.2-2.3,3.6-2.4h1.3v-0.5c0-0.6-0.1-1-0.4-1.3c-0.3-0.3-0.7-0.4-1.2-0.4c-0.6,0-1.3,0.2-2.1,0.6l-0.3-0.9
		c0.4-0.2,0.8-0.4,1.2-0.5s0.9-0.2,1.3-0.2c0.9,0,1.6,0.2,2,0.6s0.6,1,0.6,1.9v5.1L111.5,346.7L111.5,346.7z M108.9,345.9
		c0.7,0,1.3-0.2,1.7-0.6s0.6-0.9,0.6-1.6V343h-1.1c-0.9,0-1.6,0.2-2,0.4c-0.4,0.2-0.6,0.6-0.6,1.2c0,0.4,0.1,0.7,0.4,0.9
		C108.1,345.8,108.5,345.9,108.9,345.9z"/>
	<path class="st6" d="M115.8,346.7h-1.1v-10.6h1.1V346.7z"/>
	<path class="st6" d="M129.8,346.7h-1.3l-5.5-8.4l0,0c0.1,1,0.1,1.9,0.1,2.7v5.7H122v-10h1.3l5.4,8.4h0.1c0-0.1,0-0.5-0.1-1.2
		c0-0.7,0-1.1,0-1.4v-5.7h1.1V346.7z"/>
	<path class="st6" d="M137,341.4h3.4v4.9c-0.5,0.2-1.1,0.3-1.6,0.4s-1.2,0.1-1.9,0.1c-1.5,0-2.7-0.5-3.5-1.3
		c-0.8-0.9-1.3-2.2-1.3-3.8c0-1,0.2-1.9,0.6-2.7c0.4-0.8,1-1.4,1.8-1.8s1.7-0.6,2.8-0.6s2.1,0.2,3,0.6l-0.5,1
		c-0.9-0.4-1.8-0.6-2.6-0.6c-1.2,0-2.2,0.4-2.9,1.1s-1,1.7-1,3s0.3,2.4,1,3.1s1.6,1,2.9,1c0.7,0,1.4-0.1,2-0.2v-3.1H137V341.4z"/>
	<path class="st6" d="M151.5,341.7c0,1.6-0.4,2.9-1.2,3.8s-1.9,1.4-3.4,1.4s-2.6-0.5-3.4-1.3c-0.8-0.9-1.2-2.2-1.2-3.8
		c0-1.6,0.4-2.9,1.2-3.8s1.9-1.3,3.4-1.3c1.4,0,2.6,0.5,3.4,1.4C151.1,338.8,151.5,340.1,151.5,341.7z M143.5,341.7
		c0,1.4,0.3,2.4,0.9,3.1c0.6,0.7,1.4,1,2.5,1s1.9-0.3,2.5-1s0.8-1.7,0.8-3.1c0-1.3-0.3-2.4-0.8-3.1c-0.6-0.7-1.4-1-2.5-1
		s-1.9,0.3-2.5,1C143.8,339.3,143.5,340.3,143.5,341.7z"/>
	<path class="st6" d="M158.3,344.6c0,0.7-0.3,1.2-0.8,1.6s-1.2,0.6-2.2,0.6s-1.8-0.2-2.3-0.5v-1.1c0.4,0.2,0.7,0.3,1.2,0.4
		c0.4,0.1,0.8,0.2,1.2,0.2c0.6,0,1-0.1,1.4-0.3c0.3-0.2,0.5-0.5,0.5-0.9c0-0.3-0.1-0.5-0.4-0.7c-0.3-0.2-0.7-0.5-1.5-0.7
		c-0.7-0.3-1.2-0.5-1.5-0.7s-0.5-0.4-0.7-0.7c-0.1-0.2-0.2-0.5-0.2-0.9c0-0.6,0.2-1.1,0.7-1.4c0.5-0.4,1.2-0.5,2-0.5
		s1.6,0.2,2.4,0.5l-0.4,0.9c-0.8-0.3-1.4-0.5-2-0.5c-0.5,0-0.9,0.1-1.2,0.3c-0.3,0.2-0.4,0.4-0.4,0.7c0,0.2,0.1,0.4,0.2,0.5
		c0.1,0.1,0.3,0.3,0.5,0.4s0.7,0.3,1.3,0.6c0.9,0.3,1.5,0.6,1.8,1C158.2,343.7,158.3,344.1,158.3,344.6z"/>
</g>
<g>
	<path class="st6" d="M21,137.7h3.4v4.9c-0.5,0.2-1.1,0.3-1.6,0.4s-1.2,0.1-1.9,0.1c-1.5,0-2.7-0.5-3.5-1.4s-1.3-2.2-1.3-3.8
		c0-1,0.2-1.9,0.6-2.7c0.4-0.8,1-1.4,1.8-1.8c0.8-0.4,1.7-0.6,2.8-0.6s2.1,0.2,3,0.6l-0.5,1c-0.9-0.4-1.8-0.6-2.6-0.6
		c-1.2,0-2.2,0.4-2.9,1.1c-0.7,0.7-1,1.7-1,3c0,1.3,0.3,2.4,1,3.1s1.6,1,2.9,1c0.7,0,1.4-0.1,2-0.2v-3.1H21
		C21,138.7,21,137.7,21,137.7z"/>
	<path class="st6" d="M33.1,139.1c0,1.2-0.3,2.2-0.9,2.9c-0.6,0.7-1.5,1-2.5,1c-0.7,0-1.3-0.2-1.8-0.5c-0.5-0.3-0.9-0.8-1.2-1.4
		c-0.3-0.6-0.4-1.3-0.4-2.1c0-1.2,0.3-2.2,0.9-2.9c0.6-0.7,1.5-1,2.5-1s1.9,0.3,2.5,1C32.8,137,33.1,138,33.1,139.1z M27.4,139.1
		c0,1,0.2,1.7,0.6,2.2c0.4,0.5,0.9,0.8,1.7,0.8s1.3-0.2,1.7-0.7s0.6-1.2,0.6-2.2s-0.2-1.7-0.6-2.2c-0.4-0.5-1-0.7-1.7-0.7
		s-1.3,0.2-1.7,0.7C27.6,137.5,27.4,138.2,27.4,139.1z"/>
	<path class="st6" d="M36.8,142.9l-2.8-7.5h1.2l1.6,4.4c0.4,1,0.6,1.7,0.6,2h0.1c0-0.2,0.2-0.7,0.5-1.5c0.3-0.8,0.9-2.4,1.8-5h1.1
		l-2.8,7.5h-1.3V142.9z"/>
	<path class="st6" d="M45.3,143c-1.1,0-2-0.3-2.6-1c-0.6-0.7-1-1.6-1-2.8c0-1.2,0.3-2.2,0.9-2.9c0.6-0.7,1.4-1.1,2.4-1.1
		c0.9,0,1.7,0.3,2.2,0.9c0.5,0.6,0.8,1.4,0.8,2.4v0.7h-5.1c0,0.9,0.2,1.5,0.7,2c0.4,0.5,1,0.7,1.8,0.7s1.6-0.2,2.4-0.5v1
		c-0.4,0.2-0.8,0.3-1.1,0.4C46.2,143,45.8,143,45.3,143z M45,136.2c-0.6,0-1.1,0.2-1.4,0.6c-0.4,0.4-0.6,0.9-0.6,1.6h3.9
		c0-0.7-0.2-1.3-0.5-1.6C46,136.4,45.6,136.2,45,136.2z"/>
	<path class="st6" d="M53.4,135.3c0.3,0,0.6,0,0.9,0.1l-0.2,1.1c-0.3-0.1-0.6-0.1-0.8-0.1c-0.6,0-1.1,0.2-1.6,0.7
		c-0.4,0.5-0.6,1.1-0.6,1.8v4H50v-7.5h0.9l0.1,1.4h0.1c0.3-0.5,0.6-0.9,1-1.1C52.5,135.4,52.9,135.3,53.4,135.3z"/>
	<path class="st6" d="M60.8,142.9v-4.8c0-0.6-0.1-1.1-0.4-1.4s-0.7-0.5-1.3-0.5c-0.8,0-1.4,0.2-1.7,0.6c-0.3,0.4-0.5,1.1-0.5,2.1
		v3.9h-1.1v-7.5h0.9l0.2,1l0,0c0.2-0.4,0.6-0.7,1-0.9c0.4-0.2,0.9-0.3,1.4-0.3c0.9,0,1.6,0.2,2,0.7c0.5,0.4,0.7,1.1,0.7,2.1v4.9
		L60.8,142.9L60.8,142.9z"/>
	<path class="st6" d="M73.8,142.9V138c0-0.6-0.1-1-0.4-1.3c-0.3-0.3-0.7-0.4-1.2-0.4c-0.7,0-1.2,0.2-1.6,0.6c-0.3,0.4-0.5,1-0.5,1.9
		v4.2H69v-4.9c0-0.6-0.1-1-0.4-1.3c-0.3-0.3-0.7-0.4-1.2-0.4c-0.7,0-1.2,0.2-1.6,0.6c-0.3,0.4-0.5,1.1-0.5,2.1v3.9h-1.1v-7.5h0.9
		l0.2,1h0.1c0.2-0.4,0.5-0.6,0.9-0.9c0.4-0.2,0.8-0.3,1.3-0.3c1.2,0,1.9,0.4,2.3,1.3H70c0.2-0.4,0.5-0.7,1-0.9
		c0.4-0.2,0.9-0.3,1.4-0.3c0.8,0,1.5,0.2,1.9,0.7c0.4,0.4,0.6,1.1,0.6,2.1v4.9h-1.1V142.9z"/>
	<path class="st6" d="M80.5,143c-1.1,0-2-0.3-2.6-1c-0.6-0.7-1-1.6-1-2.8c0-1.2,0.3-2.2,0.9-2.9c0.6-0.7,1.4-1.1,2.4-1.1
		c0.9,0,1.7,0.3,2.2,0.9c0.5,0.6,0.8,1.4,0.8,2.4v0.7H78c0,0.9,0.2,1.5,0.7,2c0.4,0.5,1,0.7,1.8,0.7s1.6-0.2,2.4-0.5v1
		c-0.4,0.2-0.8,0.3-1.1,0.4C81.4,143,81,143,80.5,143z M80.2,136.2c-0.6,0-1.1,0.2-1.4,0.6c-0.4,0.4-0.6,0.9-0.6,1.6h3.9
		c0-0.7-0.2-1.3-0.5-1.6C81.2,136.4,80.8,136.2,80.2,136.2z"/>
	<path class="st6" d="M90.3,142.9v-4.8c0-0.6-0.1-1.1-0.4-1.4s-0.7-0.5-1.3-0.5c-0.8,0-1.4,0.2-1.7,0.6c-0.3,0.4-0.5,1.1-0.5,2.1
		v3.9h-1.1v-7.5h0.9l0.2,1h0.1c0.2-0.4,0.6-0.7,1-0.9c0.4-0.2,0.9-0.3,1.4-0.3c0.9,0,1.6,0.2,2,0.7c0.5,0.4,0.7,1.1,0.7,2.1v4.9
		L90.3,142.9L90.3,142.9z"/>
	<path class="st6" d="M96.2,142.1c0.2,0,0.4,0,0.6,0s0.3-0.1,0.4-0.1v0.9c-0.1,0.1-0.3,0.1-0.5,0.1s-0.5,0.1-0.6,0.1
		c-1.4,0-2.2-0.8-2.2-2.3v-4.5h-1.1v-0.5l1.1-0.5l0.5-1.6h0.7v1.7h2.2v0.9h-2.2v4.4c0,0.5,0.1,0.8,0.3,1
		C95.5,142,95.8,142.1,96.2,142.1z"/>
</g>
<g>
	<path class="st6" d="M122.7,16v6.5c0,1.1-0.3,2-1,2.7s-1.6,1-2.8,1s-2.1-0.3-2.8-1s-1-1.6-1-2.7v-6.4h1.2v6.5
		c0,0.8,0.2,1.5,0.7,1.9s1.1,0.7,2,0.7c0.8,0,1.5-0.2,1.9-0.7s0.7-1.1,0.7-1.9v-6.5h1.1V16z"/>
	<path class="st6" d="M133.2,26h-1.3l-5.5-8.4h-0.1c0.1,1,0.1,1.9,0.1,2.7V26h-1.1V16h1.3l5.4,8.4h0.1c0-0.1,0-0.5-0.1-1.2
		s0-1.1,0-1.4v-5.7h1.1V26H133.2z"/>
	<path class="st6" d="M145.8,26l-1.2-3.2h-4l-1.2,3.2h-1.2l4-10h1l3.9,10H145.8z M144.2,21.7l-1.2-3.1c-0.2-0.4-0.3-0.9-0.5-1.4
		c-0.1,0.4-0.2,0.9-0.4,1.4l-1.2,3.1H144.2z"/>
	<path class="st6" d="M154.4,18.5v0.7l-1.4,0.2c0.1,0.2,0.2,0.4,0.3,0.6s0.2,0.5,0.2,0.9c0,0.7-0.3,1.3-0.8,1.8s-1.2,0.7-2.1,0.7
		c-0.2,0-0.4,0-0.6-0.1c-0.5,0.3-0.7,0.6-0.7,1c0,0.2,0.1,0.4,0.3,0.5s0.5,0.1,0.9,0.1h1.3c0.8,0,1.4,0.2,1.9,0.5
		c0.4,0.3,0.7,0.8,0.7,1.5c0,0.8-0.3,1.5-1,1.9s-1.6,0.7-2.9,0.7c-1,0-1.7-0.2-2.3-0.5c-0.5-0.4-0.8-0.9-0.8-1.5
		c0-0.5,0.1-0.9,0.4-1.2s0.7-0.6,1.2-0.7c-0.2-0.1-0.4-0.2-0.5-0.4s-0.2-0.4-0.2-0.6c0-0.3,0.1-0.5,0.2-0.7s0.4-0.4,0.7-0.6
		c-0.4-0.2-0.7-0.4-0.9-0.8s-0.4-0.8-0.4-1.3c0-0.8,0.2-1.5,0.7-1.9s1.2-0.7,2.1-0.7c0.4,0,0.7,0,1.1,0.1h2.6V18.5z M148.4,27.2
		c0,0.4,0.2,0.7,0.5,0.9s0.8,0.3,1.5,0.3c1,0,1.7-0.1,2.1-0.4c0.5-0.3,0.7-0.7,0.7-1.2c0-0.4-0.1-0.7-0.4-0.8s-0.7-0.2-1.4-0.2H150
		c-0.5,0-0.9,0.1-1.2,0.4S148.4,26.8,148.4,27.2z M149,20.9c0,0.5,0.1,0.9,0.4,1.2s0.7,0.4,1.2,0.4c1.1,0,1.7-0.5,1.7-1.6
		s-0.6-1.7-1.7-1.7c-0.5,0-0.9,0.1-1.2,0.4S149,20.3,149,20.9z"/>
	<path class="st6" d="M159.1,26.1c-1.1,0-2-0.3-2.6-1s-1-1.6-1-2.8c0-1.2,0.3-2.2,0.9-2.9c0.6-0.7,1.4-1.1,2.4-1.1
		c0.9,0,1.7,0.3,2.2,0.9s0.8,1.4,0.8,2.4v0.7h-5.2c0,0.9,0.2,1.5,0.7,2c0.4,0.5,1,0.7,1.8,0.7s1.6-0.2,2.4-0.5v1
		c-0.4,0.2-0.8,0.3-1.1,0.4C160,26.1,159.6,26.1,159.1,26.1z M158.8,19.3c-0.6,0-1.1,0.2-1.4,0.6c-0.4,0.4-0.6,0.9-0.6,1.6h3.9
		c0-0.7-0.2-1.3-0.5-1.6S159.4,19.3,158.8,19.3z"/>
	<path class="st6" d="M168.9,26v-4.8c0-0.6-0.1-1.1-0.4-1.4s-0.7-0.5-1.3-0.5c-0.8,0-1.4,0.2-1.7,0.6S165,21,165,22v3.9h-1.1v-7.5
		h0.9l0.2,1h0.1c0.2-0.4,0.6-0.7,1-0.9s0.9-0.3,1.4-0.3c0.9,0,1.6,0.2,2,0.7s0.7,1.1,0.7,2.1v4.9L168.9,26L168.9,26z"/>
	<path class="st6" d="M175.4,26.1c-1.1,0-1.9-0.3-2.5-1s-0.9-1.6-0.9-2.8c0-1.3,0.3-2.2,0.9-2.9c0.6-0.7,1.5-1,2.6-1
		c0.4,0,0.7,0,1.1,0.1s0.6,0.2,0.8,0.3l-0.3,1c-0.3-0.1-0.5-0.2-0.8-0.2s-0.6-0.1-0.8-0.1c-1.5,0-2.3,1-2.3,2.9
		c0,0.9,0.2,1.6,0.6,2.1c0.4,0.5,0.9,0.7,1.7,0.7c0.6,0,1.3-0.1,1.9-0.4v1C176.7,26,176.1,26.1,175.4,26.1z"/>
	<path class="st6" d="M178.9,16.4c0-0.3,0.1-0.5,0.2-0.6s0.3-0.2,0.5-0.2s0.3,0.1,0.5,0.2s0.2,0.3,0.2,0.6s-0.1,0.4-0.2,0.6
		s-0.3,0.2-0.5,0.2s-0.4-0.1-0.5-0.2S178.9,16.7,178.9,16.4z M180.2,26h-1.1v-7.5h1.1V26z"/>
	<path class="st6" d="M185.7,26.1c-1.1,0-2-0.3-2.6-1s-1-1.6-1-2.8c0-1.2,0.3-2.2,0.9-2.9c0.6-0.7,1.4-1.1,2.4-1.1
		c0.9,0,1.7,0.3,2.2,0.9s0.8,1.4,0.8,2.4v0.7h-5.2c0,0.9,0.2,1.5,0.7,2c0.4,0.5,1,0.7,1.8,0.7s1.6-0.2,2.4-0.5v1
		c-0.4,0.2-0.8,0.3-1.1,0.4C186.7,26.1,186.2,26.1,185.7,26.1z M185.4,19.3c-0.6,0-1.1,0.2-1.4,0.6c-0.4,0.4-0.6,0.9-0.6,1.6h3.9
		c0-0.7-0.2-1.3-0.5-1.6S186,19.3,185.4,19.3z"/>
	<path class="st6" d="M195.3,23.9c0,0.7-0.3,1.2-0.8,1.6s-1.2,0.6-2.2,0.6s-1.8-0.2-2.3-0.5v-1.1c0.4,0.2,0.7,0.3,1.2,0.4
		c0.4,0.1,0.8,0.2,1.2,0.2c0.6,0,1-0.1,1.4-0.3s0.5-0.5,0.5-0.9c0-0.3-0.1-0.5-0.4-0.7c-0.3-0.2-0.7-0.5-1.5-0.7
		c-0.7-0.3-1.2-0.5-1.5-0.7s-0.5-0.4-0.7-0.7c-0.1-0.2-0.2-0.5-0.2-0.9c0-0.6,0.2-1.1,0.7-1.4s1.2-0.5,2-0.5s1.6,0.2,2.4,0.5
		l-0.4,0.9c-0.8-0.3-1.4-0.5-2-0.5c-0.5,0-0.9,0.1-1.2,0.3s-0.4,0.4-0.4,0.7c0,0.2,0.1,0.4,0.2,0.5c0.1,0.1,0.3,0.3,0.5,0.4
		s0.7,0.3,1.3,0.6c0.9,0.3,1.5,0.6,1.8,1C195.1,23,195.3,23.4,195.3,23.9z"/>
</g>
<g>
	<path class="st6" d="M236.7,21.6v-10h1.2v10H236.7z"/>
	<path class="st6" d="M245.5,21.6v-4.8c0-0.6-0.1-1.1-0.4-1.4s-0.7-0.5-1.3-0.5c-0.8,0-1.4,0.2-1.7,0.6s-0.5,1.1-0.5,2.1v3.9h-1.1
		V14h0.9l0.2,1h0.1c0.2-0.4,0.6-0.7,1-0.9s0.9-0.3,1.4-0.3c0.9,0,1.6,0.2,2,0.7s0.7,1.1,0.7,2.1v4.9L245.5,21.6L245.5,21.6z"/>
	<path class="st6" d="M251.4,20.8c0.2,0,0.4,0,0.6,0s0.3-0.1,0.4-0.1v0.9c-0.1,0.1-0.3,0.1-0.5,0.1s-0.5,0.1-0.6,0.1
		c-1.4,0-2.2-0.8-2.2-2.3V15H248v-0.5l1.1-0.5l0.5-1.6h0.7v1.7h2.2V15h-2.2v4.4c0,0.5,0.1,0.8,0.3,1S251,20.8,251.4,20.8z"/>
	<path class="st6" d="M257.1,21.8c-1.1,0-2-0.3-2.6-1s-1-1.6-1-2.8c0-1.2,0.3-2.2,0.9-2.9c0.6-0.7,1.4-1.1,2.4-1.1
		c0.9,0,1.7,0.3,2.2,0.9s0.8,1.4,0.8,2.4V18h-5.2c0,0.9,0.2,1.5,0.7,2c0.4,0.5,1,0.7,1.8,0.7s1.6-0.2,2.4-0.5v1
		c-0.4,0.2-0.8,0.3-1.1,0.4C258,21.7,257.6,21.8,257.1,21.8z M256.8,15c-0.6,0-1.1,0.2-1.4,0.6c-0.4,0.4-0.6,0.9-0.6,1.6h3.9
		c0-0.7-0.2-1.3-0.5-1.6S257.4,15,256.8,15z"/>
	<path class="st6" d="M265.2,14c0.3,0,0.6,0,0.9,0.1l-0.2,1.1c-0.3-0.1-0.6-0.1-0.8-0.1c-0.6,0-1.1,0.2-1.6,0.7
		c-0.4,0.5-0.6,1.1-0.6,1.8v4h-1.1v-7.5h0.9l0.1,1.4h0.1c0.3-0.5,0.6-0.9,1-1.1S264.7,14,265.2,14z"/>
	<path class="st6" d="M273.6,14.1v0.7l-1.4,0.2c0.1,0.2,0.2,0.4,0.3,0.6s0.2,0.5,0.2,0.9c0,0.7-0.3,1.3-0.8,1.8s-1.2,0.7-2.1,0.7
		c-0.2,0-0.4,0-0.6-0.1c-0.5,0.3-0.7,0.6-0.7,1c0,0.2,0.1,0.4,0.3,0.5s0.5,0.1,0.9,0.1h1.3c0.8,0,1.4,0.2,1.9,0.5
		c0.4,0.3,0.7,0.8,0.7,1.5c0,0.8-0.3,1.5-1,1.9s-1.6,0.7-2.9,0.7c-1,0-1.7-0.2-2.3-0.5c-0.5-0.4-0.8-0.9-0.8-1.5
		c0-0.5,0.1-0.9,0.4-1.2s0.7-0.6,1.2-0.7c-0.2-0.1-0.4-0.2-0.5-0.4c-0.1-0.2-0.2-0.4-0.2-0.6c0-0.3,0.1-0.5,0.2-0.7s0.4-0.4,0.7-0.6
		c-0.4-0.2-0.7-0.4-0.9-0.8c-0.2-0.4-0.4-0.8-0.4-1.3c0-0.8,0.2-1.5,0.7-1.9s1.2-0.7,2.1-0.7c0.4,0,0.7,0,1.1,0.1h2.6V14.1z
		 M267.7,22.9c0,0.4,0.2,0.7,0.5,0.9s0.8,0.3,1.5,0.3c1,0,1.7-0.1,2.1-0.4c0.5-0.3,0.7-0.7,0.7-1.2c0-0.4-0.1-0.7-0.4-0.8
		s-0.7-0.2-1.4-0.2h-1.4c-0.5,0-0.9,0.1-1.2,0.4S267.7,22.4,267.7,22.9z M268.3,16.5c0,0.5,0.1,0.9,0.4,1.2s0.7,0.4,1.2,0.4
		c1.1,0,1.7-0.5,1.7-1.6s-0.6-1.7-1.7-1.7c-0.5,0-0.9,0.1-1.2,0.4S268.3,16,268.3,16.5z"/>
	<path class="st6" d="M281.6,17.9c0,1.2-0.3,2.2-0.9,2.9s-1.5,1-2.5,1c-0.7,0-1.3-0.2-1.8-0.5s-0.9-0.8-1.2-1.4s-0.4-1.3-0.4-2.1
		c0-1.2,0.3-2.2,0.9-2.9s1.5-1,2.5-1s1.9,0.3,2.5,1C281.3,15.7,281.6,16.7,281.6,17.9z M275.9,17.9c0,1,0.2,1.7,0.6,2.2
		s0.9,0.8,1.7,0.8s1.3-0.2,1.7-0.7c0.4-0.5,0.6-1.2,0.6-2.2s-0.2-1.7-0.6-2.2s-1-0.7-1.7-0.7s-1.3,0.2-1.7,0.7
		S275.9,16.9,275.9,17.9z"/>
	<path class="st6" d="M285.3,21.6l-2.8-7.5h1.2l1.6,4.4c0.4,1,0.6,1.7,0.6,2h0.1c0-0.2,0.2-0.7,0.5-1.5s0.9-2.4,1.8-5h1.2l-2.8,7.5
		h-1.4V21.6z"/>
	<path class="st6" d="M293.8,21.8c-1.1,0-2-0.3-2.6-1s-1-1.6-1-2.8c0-1.2,0.3-2.2,0.9-2.9c0.6-0.7,1.4-1.1,2.4-1.1
		c0.9,0,1.7,0.3,2.2,0.9s0.8,1.4,0.8,2.4V18h-5.2c0,0.9,0.2,1.5,0.7,2c0.4,0.5,1,0.7,1.8,0.7s1.6-0.2,2.4-0.5v1
		c-0.4,0.2-0.8,0.3-1.1,0.4C294.7,21.7,294.3,21.8,293.8,21.8z M293.5,15c-0.6,0-1.1,0.2-1.4,0.6c-0.4,0.4-0.6,0.9-0.6,1.6h3.9
		c0-0.7-0.2-1.3-0.5-1.6S294.1,15,293.5,15z"/>
	<path class="st6" d="M301.9,14c0.3,0,0.6,0,0.9,0.1l-0.2,1.1c-0.3-0.1-0.6-0.1-0.8-0.1c-0.6,0-1.1,0.2-1.6,0.7
		c-0.4,0.5-0.6,1.1-0.6,1.8v4h-1.1v-7.5h0.9l0.2,1.4h0.1c0.3-0.5,0.6-0.9,1-1.1S301.4,14,301.9,14z"/>
	<path class="st6" d="M309.3,21.6v-4.8c0-0.6-0.1-1.1-0.4-1.4s-0.7-0.5-1.3-0.5c-0.8,0-1.4,0.2-1.7,0.6s-0.5,1.1-0.5,2.1v3.9h-1.1
		V14h0.9l0.2,1h0.1c0.2-0.4,0.6-0.7,1-0.9s0.9-0.3,1.4-0.3c0.9,0,1.6,0.2,2,0.7s0.7,1.1,0.7,2.1v4.9L309.3,21.6L309.3,21.6z"/>
	<path class="st6" d="M322.4,21.6v-4.9c0-0.6-0.1-1-0.4-1.3s-0.7-0.4-1.2-0.4c-0.7,0-1.2,0.2-1.6,0.6s-0.5,1-0.5,1.9v4.2h-1.1v-4.9
		c0-0.6-0.1-1-0.4-1.3s-0.7-0.4-1.2-0.4c-0.7,0-1.2,0.2-1.6,0.6c-0.3,0.4-0.5,1.1-0.5,2.1v3.9h-1.1v-7.5h0.9l0.2,1h0.1
		c0.2-0.4,0.5-0.6,0.9-0.9c0.4-0.2,0.8-0.3,1.3-0.3c1.2,0,1.9,0.4,2.3,1.3h0.1c0.2-0.4,0.5-0.7,1-0.9s0.9-0.3,1.4-0.3
		c0.8,0,1.5,0.2,1.9,0.7c0.4,0.4,0.6,1.1,0.6,2.1v4.9h-1.1V21.6z"/>
	<path class="st6" d="M329,21.8c-1.1,0-2-0.3-2.6-1s-1-1.6-1-2.8c0-1.2,0.3-2.2,0.9-2.9c0.6-0.7,1.4-1.1,2.4-1.1
		c0.9,0,1.7,0.3,2.2,0.9s0.8,1.4,0.8,2.4V18h-5.1c0,0.9,0.2,1.5,0.7,2c0.4,0.5,1,0.7,1.8,0.7s1.6-0.2,2.4-0.5v1
		c-0.4,0.2-0.8,0.3-1.1,0.4C329.9,21.7,329.5,21.8,329,21.8z M328.7,15c-0.6,0-1.1,0.2-1.4,0.6c-0.4,0.4-0.6,0.9-0.6,1.6h3.9
		c0-0.7-0.2-1.3-0.5-1.6S329.3,15,328.7,15z"/>
	<path class="st6" d="M338.8,21.6v-4.8c0-0.6-0.1-1.1-0.4-1.4s-0.7-0.5-1.3-0.5c-0.8,0-1.4,0.2-1.7,0.6s-0.5,1.1-0.5,2.1v3.9h-1.1
		V14h0.9l0.2,1h0.1c0.2-0.4,0.6-0.7,1-0.9s0.9-0.3,1.4-0.3c0.9,0,1.6,0.2,2,0.7s0.7,1.1,0.7,2.1v4.9L338.8,21.6L338.8,21.6z"/>
	<path class="st6" d="M344.7,20.8c0.2,0,0.4,0,0.6,0s0.3-0.1,0.4-0.1v0.9c-0.1,0.1-0.3,0.1-0.5,0.1s-0.5,0.1-0.6,0.1
		c-1.4,0-2.2-0.8-2.2-2.3V15h-1.1v-0.5l1.1-0.5l0.5-1.6h0.7v1.7h2.2V15h-2.2v4.4c0,0.5,0.1,0.8,0.3,1S344.3,20.8,344.7,20.8z"/>
	<path class="st6" d="M351.8,21.6l-0.2-1.1h-0.1c-0.4,0.5-0.7,0.8-1.1,1s-0.8,0.2-1.4,0.2c-0.7,0-1.3-0.2-1.7-0.6
		c-0.4-0.4-0.6-0.9-0.6-1.6c0-1.5,1.2-2.3,3.6-2.4h1.3v-0.5c0-0.6-0.1-1-0.4-1.3s-0.7-0.4-1.2-0.4c-0.6,0-1.3,0.2-2.1,0.6l-0.3-0.9
		c0.4-0.2,0.8-0.4,1.2-0.5c0.4-0.1,0.9-0.2,1.3-0.2c0.9,0,1.6,0.2,2,0.6s0.6,1,0.6,1.9v5.1L351.8,21.6L351.8,21.6z M349.3,20.8
		c0.7,0,1.3-0.2,1.7-0.6c0.4-0.4,0.6-0.9,0.6-1.6v-0.7h-1.1c-0.9,0-1.6,0.2-2,0.4c-0.4,0.2-0.6,0.6-0.6,1.2c0,0.4,0.1,0.7,0.4,0.9
		C348.5,20.7,348.8,20.8,349.3,20.8z"/>
	<path class="st6" d="M356.1,21.6H355V11h1.1V21.6z"/>
	<path class="st6" d="M245.3,33.4c0,1.6-0.4,2.9-1.2,3.8c-0.8,0.9-1.9,1.4-3.4,1.4s-2.6-0.5-3.4-1.4s-1.2-2.2-1.2-3.8
		s0.4-2.9,1.2-3.8s1.9-1.3,3.4-1.3c1.4,0,2.6,0.5,3.4,1.4S245.3,31.8,245.3,33.4z M237.4,33.4c0,1.4,0.3,2.4,0.9,3.1
		c0.6,0.7,1.4,1,2.5,1s1.9-0.3,2.5-1s0.8-1.7,0.8-3.1c0-1.3-0.3-2.4-0.8-3.1c-0.6-0.7-1.4-1-2.5-1s-1.9,0.3-2.5,1
		C237.7,31.1,237.4,32.1,237.4,33.4z"/>
	<path class="st6" d="M250.8,30.8c0.3,0,0.6,0,0.9,0.1l-0.2,1.1c-0.3-0.1-0.6-0.1-0.8-0.1c-0.6,0-1.1,0.2-1.6,0.7
		c-0.4,0.5-0.6,1.1-0.6,1.8v4h-1.1v-7.5h0.9l0.1,1.4h0.1c0.3-0.5,0.6-0.9,1-1.1S250.3,30.8,250.8,30.8z"/>
	<path class="st6" d="M259.2,30.9v0.7l-1.4,0.2c0.1,0.2,0.2,0.4,0.3,0.6s0.2,0.5,0.2,0.9c0,0.7-0.3,1.3-0.8,1.8s-1.2,0.7-2.1,0.7
		c-0.2,0-0.4,0-0.6-0.1c-0.5,0.3-0.7,0.6-0.7,1c0,0.2,0.1,0.4,0.3,0.5s0.5,0.1,0.9,0.1h1.3c0.8,0,1.4,0.2,1.9,0.5
		c0.4,0.3,0.7,0.8,0.7,1.5c0,0.8-0.3,1.5-1,1.9s-1.6,0.7-2.9,0.7c-1,0-1.7-0.2-2.3-0.5c-0.5-0.4-0.8-0.9-0.8-1.5
		c0-0.5,0.1-0.9,0.4-1.2s0.7-0.6,1.2-0.7c-0.2-0.1-0.4-0.2-0.5-0.4s-0.2-0.4-0.2-0.6c0-0.3,0.1-0.5,0.2-0.7s0.4-0.4,0.7-0.6
		c-0.4-0.2-0.7-0.4-0.9-0.8c-0.2-0.4-0.4-0.8-0.4-1.3c0-0.8,0.2-1.5,0.7-1.9s1.2-0.7,2.1-0.7c0.4,0,0.7,0,1.1,0.1h2.6V30.9z
		 M253.3,39.7c0,0.4,0.2,0.7,0.5,0.9s0.8,0.3,1.5,0.3c1,0,1.7-0.1,2.1-0.4c0.5-0.3,0.7-0.7,0.7-1.2c0-0.4-0.1-0.7-0.4-0.8
		s-0.7-0.2-1.4-0.2h-1.4c-0.5,0-0.9,0.1-1.2,0.4S253.3,39.2,253.3,39.7z M253.9,33.3c0,0.5,0.1,0.9,0.4,1.2s0.7,0.4,1.2,0.4
		c1.1,0,1.7-0.5,1.7-1.6s-0.6-1.7-1.7-1.7c-0.5,0-0.9,0.1-1.2,0.4S253.9,32.8,253.9,33.3z"/>
	<path class="st6" d="M265.4,38.4l-0.2-1.1h-0.1c-0.4,0.5-0.7,0.8-1.1,1s-0.8,0.2-1.4,0.2c-0.7,0-1.3-0.2-1.7-0.6
		c-0.4-0.4-0.6-0.9-0.6-1.6c0-1.5,1.2-2.3,3.6-2.4h1.3v-0.4c0-0.6-0.1-1-0.4-1.3s-0.7-0.4-1.2-0.4c-0.6,0-1.3,0.2-2.1,0.6l-0.3-0.9
		c0.4-0.2,0.8-0.4,1.2-0.5c0.4-0.1,0.9-0.2,1.3-0.2c0.9,0,1.6,0.2,2,0.6c0.4,0.4,0.6,1,0.6,1.9v5.1
		C266.3,38.4,265.4,38.4,265.4,38.4z M262.8,37.6c0.7,0,1.3-0.2,1.7-0.6c0.4-0.4,0.6-0.9,0.6-1.6v-0.7H264c-0.9,0-1.6,0.2-2,0.4
		s-0.6,0.6-0.6,1.2c0,0.4,0.1,0.7,0.4,0.9C262,37.5,262.4,37.6,262.8,37.6z"/>
	<path class="st6" d="M273.7,38.4v-4.8c0-0.6-0.1-1.1-0.4-1.4s-0.7-0.5-1.3-0.5c-0.8,0-1.4,0.2-1.7,0.6s-0.5,1.1-0.5,2.1v3.9h-1.2
		v-7.5h0.9l0.2,1h0.1c0.2-0.4,0.6-0.7,1-0.9s0.9-0.3,1.4-0.3c0.9,0,1.6,0.2,2,0.7s0.7,1.1,0.7,2.1v4.9h-1.2V38.4z"/>
	<path class="st6" d="M277.1,28.9c0-0.3,0.1-0.5,0.2-0.6s0.3-0.2,0.5-0.2s0.3,0.1,0.5,0.2s0.2,0.3,0.2,0.6s-0.1,0.4-0.2,0.6
		s-0.3,0.2-0.5,0.2s-0.4-0.1-0.5-0.2S277.1,29.2,277.1,28.9z M278.3,38.4h-1.1v-7.5h1.1V38.4z"/>
	<path class="st6" d="M285.5,36.4c0,0.7-0.3,1.2-0.8,1.6s-1.2,0.6-2.2,0.6s-1.8-0.2-2.3-0.5V37c0.4,0.2,0.7,0.3,1.2,0.4
		c0.4,0.1,0.8,0.2,1.2,0.2c0.6,0,1-0.1,1.4-0.3s0.5-0.5,0.5-0.9c0-0.3-0.1-0.5-0.4-0.7s-0.7-0.5-1.5-0.7c-0.7-0.3-1.2-0.5-1.5-0.7
		s-0.5-0.4-0.7-0.7c-0.1-0.2-0.2-0.5-0.2-0.9c0-0.6,0.2-1.1,0.7-1.4s1.2-0.5,2-0.5s1.6,0.2,2.4,0.5l-0.4,0.9c-0.8-0.3-1.4-0.5-2-0.5
		c-0.5,0-0.9,0.1-1.2,0.3s-0.4,0.4-0.4,0.7c0,0.2,0.1,0.4,0.2,0.5s0.3,0.3,0.5,0.4s0.7,0.3,1.3,0.6c0.9,0.3,1.5,0.6,1.8,1
		C285.4,35.5,285.5,35.9,285.5,36.4z"/>
	<path class="st6" d="M292,38.4l-0.2-1.1h-0.1c-0.4,0.5-0.7,0.8-1.1,1s-0.8,0.2-1.4,0.2c-0.7,0-1.3-0.2-1.7-0.6
		c-0.4-0.4-0.6-0.9-0.6-1.6c0-1.5,1.2-2.3,3.6-2.4h1.3v-0.4c0-0.6-0.1-1-0.4-1.3s-0.7-0.4-1.2-0.4c-0.6,0-1.3,0.2-2.1,0.6l-0.3-0.9
		c0.4-0.2,0.8-0.4,1.2-0.5c0.4-0.1,0.9-0.2,1.3-0.2c0.9,0,1.6,0.2,2,0.6c0.4,0.4,0.6,1,0.6,1.9v5.1C292.9,38.4,292,38.4,292,38.4z
		 M289.4,37.6c0.7,0,1.3-0.2,1.7-0.6c0.4-0.4,0.6-0.9,0.6-1.6v-0.7h-1.1c-0.9,0-1.6,0.2-2,0.4s-0.6,0.6-0.6,1.2
		c0,0.4,0.1,0.7,0.4,0.9C288.6,37.5,289,37.6,289.4,37.6z"/>
	<path class="st6" d="M297.6,37.6c0.2,0,0.4,0,0.6,0s0.3-0.1,0.4-0.1v0.9c-0.1,0.1-0.3,0.1-0.5,0.1s-0.5,0.1-0.6,0.1
		c-1.4,0-2.2-0.8-2.2-2.3v-4.5h-1.1v-0.5l1.1-0.5l0.5-1.6h0.7v1.7h2.2v0.9h-2.2v4.4c0,0.5,0.1,0.8,0.3,1S297.2,37.6,297.6,37.6z"/>
	<path class="st6" d="M300,28.9c0-0.3,0.1-0.5,0.2-0.6s0.3-0.2,0.5-0.2s0.3,0.1,0.5,0.2s0.2,0.3,0.2,0.6s-0.1,0.4-0.2,0.6
		s-0.3,0.2-0.5,0.2s-0.4-0.1-0.5-0.2S300,29.2,300,28.9z M301.2,38.4h-1.1v-7.5h1.1V38.4z"/>
	<path class="st6" d="M310.1,34.7c0,1.2-0.3,2.2-0.9,2.9s-1.5,1-2.5,1c-0.7,0-1.3-0.2-1.8-0.5s-0.9-0.8-1.2-1.4s-0.4-1.3-0.4-2.1
		c0-1.2,0.3-2.2,0.9-2.9s1.5-1,2.5-1s1.9,0.3,2.5,1C309.8,32.5,310.1,33.5,310.1,34.7z M304.4,34.7c0,1,0.2,1.7,0.6,2.2
		s0.9,0.8,1.7,0.8s1.3-0.2,1.7-0.7c0.4-0.5,0.6-1.2,0.6-2.2s-0.2-1.7-0.6-2.2s-1-0.7-1.7-0.7s-1.3,0.2-1.7,0.7
		S304.4,33.7,304.4,34.7z"/>
	<path class="st6" d="M317.2,38.4v-4.8c0-0.6-0.1-1.1-0.4-1.4s-0.7-0.5-1.3-0.5c-0.8,0-1.4,0.2-1.7,0.6s-0.5,1.1-0.5,2.1v3.9h-1.1
		v-7.5h0.9l0.2,1h0.1c0.2-0.4,0.6-0.7,1-0.9s0.9-0.3,1.4-0.3c0.9,0,1.6,0.2,2,0.7s0.7,1.1,0.7,2.1v4.9h-1.3V38.4z"/>
	<path class="st6" d="M325.5,36.4c0,0.7-0.3,1.2-0.8,1.6s-1.2,0.6-2.2,0.6s-1.8-0.2-2.3-0.5V37c0.4,0.2,0.7,0.3,1.2,0.4
		c0.4,0.1,0.8,0.2,1.2,0.2c0.6,0,1-0.1,1.4-0.3s0.5-0.5,0.5-0.9c0-0.3-0.1-0.5-0.4-0.7s-0.7-0.5-1.5-0.7c-0.7-0.3-1.2-0.5-1.5-0.7
		s-0.5-0.4-0.7-0.7c-0.1-0.2-0.2-0.5-0.2-0.9c0-0.6,0.2-1.1,0.7-1.4s1.2-0.5,2-0.5s1.6,0.2,2.4,0.5l-0.4,0.9c-0.8-0.3-1.4-0.5-2-0.5
		c-0.5,0-0.9,0.1-1.2,0.3s-0.4,0.4-0.4,0.7c0,0.2,0.1,0.4,0.2,0.5s0.3,0.3,0.5,0.4s0.7,0.3,1.3,0.6c0.9,0.3,1.5,0.6,1.8,1
		C325.4,35.5,325.5,35.9,325.5,36.4z"/>
</g>
<g>
	<path class="st6" d="M45.4,64.6h-1.2v-10h5.6v1h-4.4v3.7h4.1v1h-4.1V64.6z"/>
	<path class="st6" d="M57.8,60.8c0,1.2-0.3,2.2-0.9,2.9c-0.6,0.7-1.5,1-2.5,1c-0.7,0-1.3-0.2-1.8-0.5c-0.5-0.3-0.9-0.8-1.2-1.4
		S51,61.5,51,60.7c0-1.2,0.3-2.2,0.9-2.9s1.5-1,2.5-1s1.9,0.3,2.5,1S57.8,59.6,57.8,60.8z M52.1,60.8c0,1,0.2,1.7,0.6,2.2
		s0.9,0.8,1.7,0.8s1.3-0.2,1.7-0.7s0.6-1.2,0.6-2.2c0-1-0.2-1.7-0.6-2.2s-1-0.7-1.7-0.7s-1.3,0.2-1.7,0.7S52.1,59.9,52.1,60.8z"/>
	<path class="st6" d="M60.8,57.1V62c0,0.6,0.1,1.1,0.4,1.4s0.7,0.5,1.3,0.5c0.8,0,1.4-0.2,1.7-0.6c0.3-0.4,0.5-1.1,0.5-2.1v-3.9h1.1
		v7.5h-0.9l-0.2-1h-0.1c-0.2,0.4-0.6,0.7-1,0.8s-0.9,0.3-1.4,0.3c-0.9,0-1.6-0.2-2-0.6c-0.4-0.4-0.7-1.1-0.7-2.1v-4.9h1.3V57.1z"/>
	<path class="st6" d="M73.5,64.6v-4.8c0-0.6-0.1-1.1-0.4-1.4s-0.7-0.5-1.3-0.5c-0.8,0-1.4,0.2-1.7,0.6s-0.6,1.2-0.6,2.2v3.9h-1.1
		v-7.5h0.9l0.2,1l0,0c0.2-0.4,0.6-0.7,1-0.9s0.9-0.3,1.4-0.3c0.9,0,1.6,0.2,2,0.7s0.7,1.1,0.7,2.1v4.9H73.5z"/>
	<path class="st6" d="M82.1,63.6L82.1,63.6c-0.6,0.8-1.4,1.1-2.4,1.1s-1.7-0.3-2.3-1c-0.5-0.7-0.8-1.6-0.8-2.9s0.3-2.2,0.8-2.9
		s1.3-1,2.3-1s1.8,0.4,2.3,1.1h0.1v-0.5V57v-3h1.1v10.6h-0.9L82.1,63.6z M79.8,63.8c0.8,0,1.3-0.2,1.7-0.6c0.3-0.4,0.5-1.1,0.5-2V61
		c0-1.1-0.2-1.8-0.5-2.3c-0.4-0.5-0.9-0.7-1.7-0.7c-0.7,0-1.2,0.3-1.5,0.8c-0.4,0.5-0.5,1.2-0.5,2.2c0,1,0.2,1.7,0.5,2.2
		S79.1,63.8,79.8,63.8z"/>
	<path class="st6" d="M90.2,64.6L90,63.5h-0.1c-0.4,0.5-0.7,0.8-1.1,1s-0.8,0.2-1.4,0.2c-0.7,0-1.3-0.2-1.7-0.6
		c-0.4-0.4-0.6-0.9-0.6-1.6c0-1.5,1.2-2.3,3.6-2.4H90v-0.5c0-0.6-0.1-1-0.4-1.3s-0.7-0.4-1.2-0.4c-0.6,0-1.3,0.2-2.1,0.6L86,57.6
		c0.4-0.2,0.8-0.4,1.2-0.5c0.4-0.1,0.9-0.2,1.3-0.2c0.9,0,1.6,0.2,2,0.6c0.4,0.4,0.6,1,0.6,1.9v5.1h-0.9V64.6z M87.6,63.8
		c0.7,0,1.3-0.2,1.7-0.6c0.4-0.4,0.6-0.9,0.6-1.6v-0.7h-1.1c-0.9,0-1.6,0.2-2,0.4s-0.6,0.6-0.6,1.2c0,0.4,0.1,0.7,0.4,0.9
		C86.8,63.7,87.1,63.8,87.6,63.8z"/>
	<path class="st6" d="M95.7,63.8c0.2,0,0.4,0,0.6,0s0.3-0.1,0.4-0.1v0.9c-0.1,0.1-0.3,0.1-0.5,0.1s-0.5,0.1-0.6,0.1
		c-1.4,0-2.2-0.8-2.2-2.3V58h-1.1v-0.6l1.1-0.5l0.5-1.6h0.7V57h2.2v0.9h-2.3v4.5c0,0.5,0.1,0.8,0.3,1S95.4,63.8,95.7,63.8z"/>
	<path class="st6" d="M98.2,55.1c0-0.3,0.1-0.5,0.2-0.6s0.3-0.2,0.5-0.2s0.3,0.1,0.5,0.2s0.2,0.3,0.2,0.6s-0.1,0.4-0.2,0.6
		s-0.3,0.2-0.5,0.2s-0.4-0.1-0.5-0.2S98.2,55.3,98.2,55.1z M99.4,64.6h-1.1v-7.5h1.1V64.6z"/>
	<path class="st6" d="M108.3,60.8c0,1.2-0.3,2.2-0.9,2.9c-0.6,0.7-1.5,1-2.5,1c-0.7,0-1.3-0.2-1.8-0.5c-0.5-0.3-0.9-0.8-1.2-1.4
		s-0.4-1.3-0.4-2.1c0-1.2,0.3-2.2,0.9-2.9s1.5-1,2.5-1s1.9,0.3,2.5,1C108,58.7,108.3,59.6,108.3,60.8z M102.6,60.8
		c0,1,0.2,1.7,0.6,2.2s0.9,0.8,1.7,0.8s1.3-0.2,1.7-0.7c0.4-0.5,0.6-1.2,0.6-2.2c0-1-0.2-1.7-0.6-2.2s-1-0.7-1.7-0.7
		s-1.3,0.2-1.7,0.7S102.6,59.9,102.6,60.8z"/>
	<path class="st6" d="M115.4,64.6v-4.8c0-0.6-0.1-1.1-0.4-1.4s-0.7-0.5-1.3-0.5c-0.8,0-1.4,0.2-1.7,0.6s-0.5,1.1-0.5,2.1v3.9h-1.1
		V57h0.9l0.2,1h0.1c0.2-0.4,0.6-0.7,1-0.9s0.9-0.3,1.4-0.3c0.9,0,1.6,0.2,2,0.7s0.7,1.1,0.7,2.1v4.9h-1.3V64.6z"/>
	<path class="st6" d="M123.7,62.5c0,0.7-0.3,1.2-0.8,1.6c-0.5,0.4-1.2,0.6-2.2,0.6s-1.8-0.2-2.3-0.5v-1.1c0.4,0.2,0.7,0.3,1.2,0.4
		c0.4,0.1,0.8,0.2,1.2,0.2c0.6,0,1-0.1,1.4-0.3s0.5-0.5,0.5-0.9c0-0.3-0.1-0.5-0.4-0.7c-0.3-0.2-0.7-0.5-1.5-0.7
		c-0.7-0.3-1.2-0.5-1.5-0.7s-0.5-0.4-0.7-0.7c-0.1-0.2-0.2-0.5-0.2-0.9c0-0.6,0.2-1.1,0.7-1.4s1.2-0.5,2-0.5s1.6,0.2,2.4,0.5
		l-0.4,0.9c-0.8-0.3-1.4-0.5-2-0.5c-0.5,0-0.9,0.1-1.2,0.3s-0.4,0.4-0.4,0.7c0,0.2,0.1,0.4,0.2,0.5c0.1,0.1,0.3,0.3,0.5,0.4
		s0.7,0.3,1.3,0.6c0.9,0.3,1.5,0.6,1.8,1C123.5,61.6,123.7,62,123.7,62.5z"/>
	<path class="st6" d="M128.7,62c0-0.6,0.2-1.1,0.5-1.6s0.9-0.9,1.7-1.4c-0.4-0.4-0.7-0.8-0.8-1s-0.2-0.5-0.3-0.7s-0.1-0.5-0.1-0.8
		c0-0.7,0.2-1.2,0.7-1.6s1.1-0.6,1.9-0.6c0.7,0,1.3,0.2,1.7,0.6s0.6,0.9,0.6,1.6c0,0.5-0.2,0.9-0.5,1.4s-0.8,0.8-1.5,1.3l2.8,2.7
		c0.3-0.3,0.5-0.6,0.6-1c0.2-0.4,0.3-0.8,0.4-1.2h1.1c-0.3,1.3-0.8,2.3-1.4,3l2,2h-1.6l-1.3-1.2c-0.5,0.5-1.1,0.8-1.6,1
		s-1.2,0.3-1.9,0.3c-1,0-1.7-0.2-2.3-0.7C129,63.5,128.7,62.9,128.7,62z M131.9,63.7c1.1,0,2-0.4,2.7-1.1l-3-2.9
		c-0.5,0.3-0.9,0.6-1.1,0.8s-0.4,0.4-0.5,0.7c-0.1,0.3-0.2,0.5-0.2,0.8c0,0.5,0.2,1,0.5,1.3C130.8,63.6,131.3,63.7,131.9,63.7z
		 M130.8,56.6c0,0.3,0.1,0.6,0.2,0.9s0.4,0.6,0.8,1c0.6-0.3,1-0.7,1.2-0.9c0.2-0.3,0.3-0.6,0.3-1s-0.1-0.6-0.4-0.9
		c-0.2-0.2-0.5-0.3-0.9-0.3s-0.7,0.1-1,0.3C130.9,55.9,130.8,56.2,130.8,56.6z"/>
	<g>
		<path class="st6" d="M51,77.6c0,1.2-0.3,2.2-0.9,2.9c-0.6,0.7-1.5,1-2.5,1c-0.7,0-1.3-0.2-1.8-0.5s-0.9-0.8-1.2-1.4
			c-0.3-0.6-0.4-1.3-0.4-2.1c0-1.2,0.3-2.2,0.9-2.9c0.6-0.7,1.5-1,2.5-1s1.9,0.3,2.5,1S51,76.4,51,77.6z M45.3,77.6
			c0,1,0.2,1.7,0.6,2.2s0.9,0.8,1.7,0.8s1.3-0.2,1.7-0.7s0.6-1.2,0.6-2.2s-0.2-1.7-0.6-2.2s-1-0.7-1.7-0.7s-1.3,0.2-1.7,0.7
			S45.3,76.7,45.3,77.6z"/>
		<path class="st6" d="M55.4,80.6c0.2,0,0.4,0,0.6,0s0.3-0.1,0.4-0.1v0.9c-0.1,0.1-0.3,0.1-0.5,0.1s-0.5,0.1-0.6,0.1
			c-1.4,0-2.2-0.8-2.2-2.3v-4.5H52v-0.5l1.1-0.5l0.5-1.6h0.7v1.7h2.2v0.9h-2.2v4.4c0,0.5,0.1,0.8,0.3,1S55.1,80.6,55.4,80.6z"/>
		<path class="st6" d="M63.1,81.4v-4.8c0-0.6-0.1-1.1-0.4-1.4s-0.7-0.5-1.3-0.5c-0.8,0-1.4,0.2-1.7,0.6c-0.3,0.4-0.5,1.1-0.5,2.1v4
			h-1.1V70.8h1.1V74c0,0.4,0,0.7-0.1,1h0.1c0.2-0.4,0.5-0.6,1-0.9s0.9-0.3,1.4-0.3c0.9,0,1.6,0.2,2.1,0.7s0.7,1.1,0.7,2.1v4.8H63.1z
			"/>
		<path class="st6" d="M69.7,81.5c-1.1,0-2-0.3-2.6-1s-1-1.6-1-2.8s0.3-2.2,0.9-2.9c0.6-0.7,1.4-1.1,2.4-1.1c0.9,0,1.7,0.3,2.2,0.9
			c0.5,0.6,0.8,1.4,0.8,2.4v0.7h-5.2c0,0.9,0.2,1.5,0.7,2c0.4,0.5,1,0.7,1.8,0.7s1.6-0.2,2.4-0.5v1c-0.4,0.2-0.8,0.3-1.1,0.4
			C70.6,81.5,70.2,81.5,69.7,81.5z M69.4,74.7c-0.6,0-1.1,0.2-1.4,0.6c-0.4,0.4-0.6,0.9-0.6,1.6h3.9c0-0.7-0.2-1.3-0.5-1.6
			C70.5,75,70,74.7,69.4,74.7z"/>
		<path class="st6" d="M77.8,73.8c0.3,0,0.6,0,0.9,0.1L78.5,75c-0.3-0.1-0.6-0.1-0.8-0.1c-0.6,0-1.1,0.2-1.6,0.7
			c-0.4,0.5-0.6,1.1-0.6,1.8v4h-1.1v-7.5h0.9l0.1,1.4h0.1c0.3-0.5,0.6-0.9,1-1.1S77.3,73.8,77.8,73.8z"/>
		<path class="st6" d="M86.9,81.5c-1.1,0-2-0.3-2.6-1s-1-1.6-1-2.8s0.3-2.2,0.9-2.9c0.6-0.7,1.4-1.1,2.4-1.1c0.9,0,1.7,0.3,2.2,0.9
			c0.5,0.6,0.8,1.4,0.8,2.4v0.7h-5.2c0,0.9,0.2,1.5,0.7,2c0.4,0.5,1,0.7,1.8,0.7s1.6-0.2,2.4-0.5v1c-0.4,0.2-0.8,0.3-1.1,0.4
			C87.9,81.5,87.4,81.5,86.9,81.5z M86.6,74.7c-0.6,0-1.1,0.2-1.4,0.6c-0.4,0.4-0.6,0.9-0.6,1.6h3.9c0-0.7-0.2-1.3-0.5-1.6
			C87.7,75,87.2,74.7,86.6,74.7z"/>
		<path class="st6" d="M96.7,81.4v-4.8c0-0.6-0.1-1.1-0.4-1.4s-0.7-0.5-1.3-0.5c-0.8,0-1.4,0.2-1.7,0.6c-0.3,0.4-0.5,1.1-0.5,2.1v4
			h-1.1v-7.5h0.9l0.2,1h0.1c0.2-0.4,0.6-0.7,1-0.9c0.4-0.2,0.9-0.3,1.4-0.3c0.9,0,1.6,0.2,2,0.7s0.7,1.1,0.7,2.1v4.9H96.7z"/>
		<path class="st6" d="M102.6,80.6c0.2,0,0.4,0,0.6,0s0.3-0.1,0.4-0.1v0.9c-0.1,0.1-0.3,0.1-0.5,0.1s-0.5,0.1-0.6,0.1
			c-1.4,0-2.2-0.8-2.2-2.3v-4.5h-1.1v-0.5l1.1-0.5l0.5-1.6h0.7v1.7h2.2v0.9h-2.2v4.4c0,0.5,0.1,0.8,0.3,1
			C102,80.4,102.2,80.6,102.6,80.6z"/>
		<path class="st6" d="M105,71.9c0-0.3,0.1-0.5,0.2-0.6c0.1-0.1,0.3-0.2,0.5-0.2s0.3,0.1,0.5,0.2c0.2,0.1,0.2,0.3,0.2,0.6
			c0,0.3-0.1,0.4-0.2,0.6s-0.3,0.2-0.5,0.2s-0.4-0.1-0.5-0.2C105.1,72.4,105,72.1,105,71.9z M106.3,81.4h-1.1v-7.5h1.1V81.4z"/>
		<path class="st6" d="M111.1,80.6c0.2,0,0.4,0,0.6,0s0.3-0.1,0.4-0.1v0.9c-0.1,0.1-0.3,0.1-0.5,0.1s-0.5,0.1-0.6,0.1
			c-1.4,0-2.2-0.8-2.2-2.3v-4.5h-1.1v-0.5l1.1-0.5l0.5-1.6h0.7v1.7h2.2v0.9H110v4.4c0,0.5,0.1,0.8,0.3,1S110.7,80.6,111.1,80.6z"/>
		<path class="st6" d="M113.5,71.9c0-0.3,0.1-0.5,0.2-0.6c0.1-0.1,0.3-0.2,0.5-0.2s0.3,0.1,0.5,0.2c0.2,0.1,0.2,0.3,0.2,0.6
			c0,0.3-0.1,0.4-0.2,0.6s-0.3,0.2-0.5,0.2s-0.4-0.1-0.5-0.2C113.6,72.4,113.5,72.1,113.5,71.9z M114.8,81.4h-1.1v-7.5h1.1V81.4z"/>
		<path class="st6" d="M120.3,81.5c-1.1,0-2-0.3-2.6-1s-1-1.6-1-2.8s0.3-2.2,0.9-2.9c0.6-0.7,1.4-1.1,2.4-1.1c0.9,0,1.7,0.3,2.2,0.9
			c0.5,0.6,0.8,1.4,0.8,2.4v0.7h-5.2c0,0.9,0.2,1.5,0.7,2c0.4,0.5,1,0.7,1.8,0.7s1.6-0.2,2.4-0.5v1c-0.4,0.2-0.8,0.3-1.1,0.4
			C121.3,81.5,120.8,81.5,120.3,81.5z M120,74.7c-0.6,0-1.1,0.2-1.4,0.6c-0.4,0.4-0.6,0.9-0.6,1.6h3.9c0-0.7-0.2-1.3-0.5-1.6
			C121.1,75,120.6,74.7,120,74.7z"/>
		<path class="st6" d="M129.9,79.3c0,0.7-0.3,1.2-0.8,1.6c-0.5,0.4-1.2,0.6-2.2,0.6s-1.8-0.2-2.3-0.5v-1.1c0.4,0.2,0.7,0.3,1.2,0.4
			c0.4,0.1,0.8,0.2,1.2,0.2c0.6,0,1-0.1,1.4-0.3c0.4-0.2,0.5-0.5,0.5-0.9c0-0.3-0.1-0.5-0.4-0.7c-0.3-0.2-0.7-0.5-1.5-0.7
			c-0.7-0.3-1.2-0.5-1.5-0.7s-0.5-0.4-0.7-0.7c-0.1-0.2-0.2-0.5-0.2-0.9c0-0.6,0.2-1.1,0.7-1.4s1.2-0.5,2-0.5s1.6,0.2,2.4,0.5
			l-0.4,0.9c-0.8-0.3-1.4-0.5-2-0.5c-0.5,0-0.9,0.1-1.2,0.3c-0.3,0.2-0.4,0.4-0.4,0.7c0,0.2,0.1,0.4,0.2,0.5
			c0.1,0.1,0.3,0.3,0.5,0.4c0.2,0.1,0.7,0.3,1.3,0.6c0.9,0.3,1.5,0.6,1.8,1C129.7,78.4,129.9,78.8,129.9,79.3z"/>
	</g>
</g>
<polyline class="st7" points="351,242.9 388.6,280.5 478.3,280.5 "/>
<polyline class="st7" points="196.1,314.8 158.5,352.4 83.9,352.4 "/>
<polyline class="st7" points="118,166.2 98.4,146.5 16.3,146.5 "/>
<polyline class="st7" points="155.7,103.3 139.3,86.9 42.6,86.9 "/>
<polyline class="st7" points="210.9,76.2 197.9,32.6 115.3,32.6 "/>
<polyline class="st7" points="235.9,63.9 235.9,47.7 357.1,47.7 "/>
</svg>
