<?xml version="1.0" encoding="utf-8"?>
<!-- Generator: Adobe Illustrator 20.1.0, SVG Export Plug-In . SVG Version: 6.00 Build 0)  -->
<svg version="1.1" id="Layer_1" xmlns="http://www.w3.org/2000/svg" xmlns:xlink="http://www.w3.org/1999/xlink" x="0px" y="0px"
	 viewBox="0 0 575 379" style="enable-background:new 0 0 575 379;" xml:space="preserve">
<style type="text/css">
	.st0{fill:#0050AF;stroke:#FFFFFF;stroke-width:2;stroke-linecap:round;stroke-linejoin:round;}
	.st1{fill:#1868B7;stroke:#FFFFFF;stroke-width:2;stroke-linecap:round;stroke-linejoin:round;}
	.st2{fill:#257BC1;stroke:#FFFFFF;stroke-width:2;stroke-linecap:round;stroke-linejoin:round;}
	.st3{fill:#338ECC;stroke:#FFFFFF;stroke-width:2;stroke-linecap:round;stroke-linejoin:round;}
	.st4{fill:#4BAAE0;stroke:#FFFFFF;stroke-width:2;stroke-linecap:round;stroke-linejoin:round;}
	.st5{fill:#62C4EF;stroke:#FFFFFF;stroke-width:2;stroke-linecap:round;stroke-linejoin:round;}
	.st6{fill:#FFFFFF;}
</style>
<title>organisations</title>
<path class="st0" d="M289.9,51.5v72.8c39.7,0,71.9,32.2,71.9,71.9c0,21.4-9.6,41.8-26.1,55.4l46.4,56.1
	c61.6-51,70.2-142.2,19.3-203.8C373.9,70.7,333.1,51.5,289.9,51.5z"/>
<path class="st1" d="M335.8,251.6c-30.6,25.3-76,21-101.3-9.6c-9.7-11.7-15.4-26.1-16.3-41.3l-72.7,4.6
	c5,79.8,73.8,140.4,153.6,135.4c30.5-1.9,59.6-13.4,83.1-32.9L335.8,251.6z"/>
<path class="st2" d="M218,196.2c0-15.2,4.8-30,13.8-42.3l-58.9-42.8c-19.8,27.3-29.5,60.6-27.4,94.2l72.7-4.6
	C218.1,199.2,218,197.7,218,196.2z"/>
<path class="st3" d="M259.3,131.1l-31-65.9c-22.1,10.4-41.1,26.2-55.5,45.9l58.9,42.8C238.9,144.1,248.3,136.3,259.3,131.1z"/>
<path class="st4" d="M280.9,124.9l-9.1-72.2c-15.1,1.9-29.7,6.2-43.5,12.6l31,65.9C266.1,127.9,273.4,125.8,280.9,124.9z"/>
<path class="st5" d="M289.9,124.3L289.9,124.3V51.5c-6.1,0-12.1,0.4-18.1,1.1l9.1,72.2C283.9,124.5,286.9,124.3,289.9,124.3z"/>
<g>
	<path class="st6" d="M480.2,191.4v-10h1.2v10H480.2z"/>
	<path class="st6" d="M489.1,191.4v-4.8c0-0.6-0.1-1.1-0.4-1.4s-0.7-0.5-1.3-0.5c-0.8,0-1.4,0.2-1.7,0.6s-0.5,1.1-0.5,2.1v3.9H484
		v-7.5h0.9l0.2,1h0.1c0.2-0.4,0.6-0.7,1-0.9c0.4-0.2,0.9-0.3,1.4-0.3c0.9,0,1.6,0.2,2,0.7c0.5,0.4,0.7,1.1,0.7,2.1v4.9H489.1z"/>
	<path class="st6" d="M495,190.6c0.2,0,0.4,0,0.6,0c0.2,0,0.3-0.1,0.4-0.1v0.9c-0.1,0.1-0.3,0.1-0.5,0.1c-0.2,0-0.5,0.1-0.6,0.1
		c-1.4,0-2.2-0.8-2.2-2.3v-4.5h-1.1v-0.5l1.1-0.5l0.5-1.6h0.7v1.7h2.2v0.9h-2.2v4.4c0,0.5,0.1,0.8,0.3,1
		C494.3,190.5,494.6,190.6,495,190.6z"/>
	<path class="st6" d="M500.7,191.6c-1.1,0-2-0.3-2.6-1c-0.6-0.7-1-1.6-1-2.8c0-1.2,0.3-2.2,0.9-2.9c0.6-0.7,1.4-1.1,2.4-1.1
		c0.9,0,1.7,0.3,2.2,0.9c0.5,0.6,0.8,1.4,0.8,2.4v0.7h-5.2c0,0.9,0.2,1.5,0.7,2c0.4,0.5,1,0.7,1.8,0.7c0.8,0,1.6-0.2,2.4-0.5v1
		c-0.4,0.2-0.8,0.3-1.1,0.4C501.6,191.5,501.2,191.6,500.7,191.6z M500.4,184.8c-0.6,0-1.1,0.2-1.4,0.6c-0.4,0.4-0.6,0.9-0.6,1.6
		h3.9c0-0.7-0.2-1.3-0.5-1.6C501.4,184.9,500.9,184.8,500.4,184.8z"/>
	<path class="st6" d="M508.8,183.8c0.3,0,0.6,0,0.9,0.1l-0.2,1.1c-0.3-0.1-0.6-0.1-0.8-0.1c-0.6,0-1.1,0.2-1.6,0.7
		c-0.4,0.5-0.6,1.1-0.6,1.8v4h-1.1v-7.5h0.9l0.1,1.4h0.1c0.3-0.5,0.6-0.9,1-1.1C507.9,183.9,508.3,183.8,508.8,183.8z"/>
	<path class="st6" d="M516.2,191.4v-4.8c0-0.6-0.1-1.1-0.4-1.4s-0.7-0.5-1.3-0.5c-0.8,0-1.4,0.2-1.7,0.6s-0.5,1.1-0.5,2.1v3.9h-1.1
		v-7.5h0.9l0.2,1h0.1c0.2-0.4,0.6-0.7,1-0.9c0.4-0.2,0.9-0.3,1.4-0.3c0.9,0,1.6,0.2,2,0.7c0.5,0.4,0.7,1.1,0.7,2.1v4.9H516.2z"/>
	<path class="st6" d="M524.3,191.4l-0.2-1.1H524c-0.4,0.5-0.7,0.8-1.1,1c-0.4,0.2-0.8,0.2-1.4,0.2c-0.7,0-1.3-0.2-1.7-0.6
		c-0.4-0.4-0.6-0.9-0.6-1.6c0-1.5,1.2-2.3,3.6-2.4l1.3,0v-0.5c0-0.6-0.1-1-0.4-1.3c-0.3-0.3-0.7-0.4-1.2-0.4c-0.6,0-1.3,0.2-2.1,0.6
		l-0.3-0.9c0.4-0.2,0.8-0.4,1.2-0.5c0.4-0.1,0.9-0.2,1.3-0.2c0.9,0,1.6,0.2,2,0.6c0.4,0.4,0.6,1,0.6,1.9v5.1H524.3z M521.7,190.6
		c0.7,0,1.3-0.2,1.7-0.6c0.4-0.4,0.6-0.9,0.6-1.6v-0.7l-1.1,0c-0.9,0-1.6,0.2-2,0.4c-0.4,0.2-0.6,0.6-0.6,1.2c0,0.4,0.1,0.7,0.4,0.9
		C520.9,190.5,521.3,190.6,521.7,190.6z"/>
	<path class="st6" d="M529.9,190.6c0.2,0,0.4,0,0.6,0c0.2,0,0.3-0.1,0.4-0.1v0.9c-0.1,0.1-0.3,0.1-0.5,0.1c-0.2,0-0.5,0.1-0.6,0.1
		c-1.4,0-2.2-0.8-2.2-2.3v-4.5h-1.1v-0.5l1.1-0.5l0.5-1.6h0.7v1.7h2.2v0.9h-2.2v4.4c0,0.5,0.1,0.8,0.3,1
		C529.2,190.5,529.5,190.6,529.9,190.6z"/>
	<path class="st6" d="M532.3,181.9c0-0.3,0.1-0.5,0.2-0.6c0.1-0.1,0.3-0.2,0.5-0.2c0.2,0,0.3,0.1,0.5,0.2s0.2,0.3,0.2,0.6
		c0,0.3-0.1,0.4-0.2,0.6c-0.1,0.1-0.3,0.2-0.5,0.2c-0.2,0-0.4-0.1-0.5-0.2C532.4,182.4,532.3,182.2,532.3,181.9z M533.5,191.4h-1.1
		v-7.5h1.1V191.4z"/>
	<path class="st6" d="M542.4,187.7c0,1.2-0.3,2.2-0.9,2.9c-0.6,0.7-1.5,1-2.5,1c-0.7,0-1.3-0.2-1.8-0.5s-0.9-0.8-1.2-1.4
		s-0.4-1.3-0.4-2.1c0-1.2,0.3-2.2,0.9-2.9c0.6-0.7,1.5-1,2.5-1c1,0,1.9,0.3,2.5,1C542.1,185.5,542.4,186.5,542.4,187.7z
		 M536.7,187.7c0,1,0.2,1.7,0.6,2.2c0.4,0.5,0.9,0.8,1.7,0.8s1.3-0.2,1.7-0.7c0.4-0.5,0.6-1.2,0.6-2.2c0-1-0.2-1.7-0.6-2.2
		c-0.4-0.5-1-0.7-1.7-0.7c-0.7,0-1.3,0.2-1.7,0.7C536.9,186,536.7,186.7,536.7,187.7z"/>
	<path class="st6" d="M549.5,191.4v-4.8c0-0.6-0.1-1.1-0.4-1.4s-0.7-0.5-1.3-0.5c-0.8,0-1.4,0.2-1.7,0.6s-0.5,1.1-0.5,2.1v3.9h-1.1
		v-7.5h0.9l0.2,1h0.1c0.2-0.4,0.6-0.7,1-0.9c0.4-0.2,0.9-0.3,1.4-0.3c0.9,0,1.6,0.2,2,0.7c0.5,0.4,0.7,1.1,0.7,2.1v4.9H549.5z"/>
	<path class="st6" d="M557.6,191.4l-0.2-1.1h-0.1c-0.4,0.5-0.7,0.8-1.1,1c-0.4,0.2-0.8,0.2-1.4,0.2c-0.7,0-1.3-0.2-1.7-0.6
		c-0.4-0.4-0.6-0.9-0.6-1.6c0-1.5,1.2-2.3,3.6-2.4l1.3,0v-0.5c0-0.6-0.1-1-0.4-1.3c-0.3-0.3-0.7-0.4-1.2-0.4c-0.6,0-1.3,0.2-2.1,0.6
		l-0.3-0.9c0.4-0.2,0.8-0.4,1.2-0.5c0.4-0.1,0.9-0.2,1.3-0.2c0.9,0,1.6,0.2,2,0.6c0.4,0.4,0.6,1,0.6,1.9v5.1H557.6z M555,190.6
		c0.7,0,1.3-0.2,1.7-0.6c0.4-0.4,0.6-0.9,0.6-1.6v-0.7l-1.1,0c-0.9,0-1.6,0.2-2,0.4c-0.4,0.2-0.6,0.6-0.6,1.2c0,0.4,0.1,0.7,0.4,0.9
		C554.2,190.5,554.6,190.6,555,190.6z"/>
	<path class="st6" d="M561.9,191.4h-1.1v-10.6h1.1V191.4z"/>
	<path class="st6" d="M488.9,203.2c0,1.6-0.4,2.9-1.2,3.8c-0.8,0.9-1.9,1.4-3.4,1.4c-1.5,0-2.6-0.5-3.4-1.3
		c-0.8-0.9-1.2-2.2-1.2-3.8c0-1.6,0.4-2.9,1.2-3.8s1.9-1.3,3.4-1.3c1.4,0,2.6,0.5,3.4,1.4C488.5,200.4,488.9,201.6,488.9,203.2z
		 M480.9,203.2c0,1.4,0.3,2.4,0.9,3.1c0.6,0.7,1.4,1,2.5,1c1.1,0,1.9-0.3,2.5-1s0.8-1.7,0.8-3.1c0-1.3-0.3-2.4-0.8-3.1
		c-0.6-0.7-1.4-1-2.5-1c-1.1,0-1.9,0.3-2.5,1C481.2,200.9,480.9,201.9,480.9,203.2z"/>
	<path class="st6" d="M494.4,200.6c0.3,0,0.6,0,0.9,0.1l-0.2,1.1c-0.3-0.1-0.6-0.1-0.8-0.1c-0.6,0-1.1,0.2-1.6,0.7
		c-0.4,0.5-0.6,1.1-0.6,1.8v4H491v-7.5h0.9l0.1,1.4h0.1c0.3-0.5,0.6-0.9,1-1.1C493.5,200.7,493.9,200.6,494.4,200.6z"/>
	<path class="st6" d="M502.8,200.7v0.7l-1.4,0.2c0.1,0.2,0.2,0.4,0.3,0.6c0.1,0.3,0.2,0.5,0.2,0.9c0,0.7-0.3,1.3-0.8,1.8
		s-1.2,0.7-2.1,0.7c-0.2,0-0.4,0-0.6-0.1c-0.5,0.3-0.7,0.6-0.7,1c0,0.2,0.1,0.4,0.3,0.5c0.2,0.1,0.5,0.1,0.9,0.1h1.3
		c0.8,0,1.4,0.2,1.9,0.5c0.4,0.3,0.7,0.8,0.7,1.5c0,0.8-0.3,1.5-1,1.9c-0.7,0.4-1.6,0.7-2.9,0.7c-1,0-1.7-0.2-2.3-0.5
		c-0.5-0.4-0.8-0.9-0.8-1.5c0-0.5,0.1-0.8,0.4-1.2c0.3-0.3,0.7-0.6,1.2-0.7c-0.2-0.1-0.4-0.2-0.5-0.4c-0.1-0.2-0.2-0.4-0.2-0.6
		c0-0.3,0.1-0.5,0.2-0.7s0.4-0.4,0.7-0.6c-0.4-0.2-0.7-0.4-0.9-0.8c-0.2-0.4-0.4-0.8-0.4-1.3c0-0.8,0.2-1.5,0.7-1.9s1.2-0.7,2.1-0.7
		c0.4,0,0.7,0,1.1,0.1H502.8z M496.8,209.5c0,0.4,0.2,0.7,0.5,0.9c0.3,0.2,0.8,0.3,1.5,0.3c1,0,1.7-0.1,2.1-0.4
		c0.5-0.3,0.7-0.7,0.7-1.2c0-0.4-0.1-0.7-0.4-0.8s-0.7-0.2-1.4-0.2h-1.4c-0.5,0-0.9,0.1-1.2,0.4S496.8,209,496.8,209.5z
		 M497.4,203.1c0,0.5,0.1,0.9,0.4,1.2c0.3,0.3,0.7,0.4,1.2,0.4c1.1,0,1.7-0.5,1.7-1.6c0-1.1-0.6-1.7-1.7-1.7c-0.5,0-0.9,0.1-1.2,0.4
		S497.4,202.6,497.4,203.1z"/>
	<path class="st6" d="M509,208.2l-0.2-1.1h-0.1c-0.4,0.5-0.7,0.8-1.1,1c-0.4,0.2-0.8,0.2-1.4,0.2c-0.7,0-1.3-0.2-1.7-0.6
		c-0.4-0.4-0.6-0.9-0.6-1.6c0-1.5,1.2-2.3,3.6-2.4l1.3,0v-0.5c0-0.6-0.1-1-0.4-1.3c-0.3-0.3-0.7-0.4-1.2-0.4c-0.6,0-1.3,0.2-2.1,0.6
		l-0.3-0.9c0.4-0.2,0.8-0.4,1.2-0.5c0.4-0.1,0.9-0.2,1.3-0.2c0.9,0,1.6,0.2,2,0.6c0.4,0.4,0.6,1,0.6,1.9v5.1H509z M506.4,207.4
		c0.7,0,1.3-0.2,1.7-0.6c0.4-0.4,0.6-0.9,0.6-1.6v-0.7l-1.1,0c-0.9,0-1.6,0.2-2,0.4c-0.4,0.2-0.6,0.6-0.6,1.2c0,0.4,0.1,0.7,0.4,0.9
		C505.6,207.3,505.9,207.4,506.4,207.4z"/>
	<path class="st6" d="M517.3,208.2v-4.8c0-0.6-0.1-1.1-0.4-1.4s-0.7-0.5-1.3-0.5c-0.8,0-1.4,0.2-1.7,0.6s-0.5,1.1-0.5,2.1v3.9h-1.1
		v-7.5h0.9l0.2,1h0.1c0.2-0.4,0.6-0.7,1-0.9c0.4-0.2,0.9-0.3,1.4-0.3c0.9,0,1.6,0.2,2,0.7c0.5,0.4,0.7,1.1,0.7,2.1v4.9H517.3z"/>
	<path class="st6" d="M520.6,198.7c0-0.3,0.1-0.5,0.2-0.6c0.1-0.1,0.3-0.2,0.5-0.2c0.2,0,0.3,0.1,0.5,0.2s0.2,0.3,0.2,0.6
		c0,0.3-0.1,0.4-0.2,0.6c-0.1,0.1-0.3,0.2-0.5,0.2c-0.2,0-0.4-0.1-0.5-0.2C520.7,199.2,520.6,199,520.6,198.7z M521.9,208.2h-1.1
		v-7.5h1.1V208.2z"/>
	<path class="st6" d="M529.1,206.2c0,0.7-0.3,1.2-0.8,1.6c-0.5,0.4-1.2,0.6-2.2,0.6c-1,0-1.8-0.2-2.3-0.5v-1.1
		c0.4,0.2,0.7,0.3,1.2,0.4c0.4,0.1,0.8,0.2,1.2,0.2c0.6,0,1-0.1,1.4-0.3c0.3-0.2,0.5-0.5,0.5-0.9c0-0.3-0.1-0.5-0.4-0.7
		c-0.3-0.2-0.7-0.5-1.5-0.7c-0.7-0.3-1.2-0.5-1.5-0.7c-0.3-0.2-0.5-0.4-0.7-0.7c-0.1-0.2-0.2-0.5-0.2-0.9c0-0.6,0.2-1.1,0.7-1.4
		c0.5-0.4,1.2-0.5,2-0.5c0.8,0,1.6,0.2,2.4,0.5l-0.4,0.9c-0.8-0.3-1.4-0.5-2-0.5c-0.5,0-0.9,0.1-1.2,0.3c-0.3,0.2-0.4,0.4-0.4,0.7
		c0,0.2,0.1,0.4,0.2,0.5c0.1,0.1,0.3,0.3,0.5,0.4c0.2,0.1,0.7,0.3,1.3,0.6c0.9,0.3,1.5,0.6,1.8,1
		C528.9,205.3,529.1,205.7,529.1,206.2z"/>
	<path class="st6" d="M535.6,208.2l-0.2-1.1h-0.1c-0.4,0.5-0.7,0.8-1.1,1c-0.4,0.2-0.8,0.2-1.4,0.2c-0.7,0-1.3-0.2-1.7-0.6
		c-0.4-0.4-0.6-0.9-0.6-1.6c0-1.5,1.2-2.3,3.6-2.4l1.3,0v-0.5c0-0.6-0.1-1-0.4-1.3c-0.3-0.3-0.7-0.4-1.2-0.4c-0.6,0-1.3,0.2-2.1,0.6
		l-0.3-0.9c0.4-0.2,0.8-0.4,1.2-0.5c0.4-0.1,0.9-0.2,1.3-0.2c0.9,0,1.6,0.2,2,0.6c0.4,0.4,0.6,1,0.6,1.9v5.1H535.6z M533,207.4
		c0.7,0,1.3-0.2,1.7-0.6c0.4-0.4,0.6-0.9,0.6-1.6v-0.7l-1.1,0c-0.9,0-1.6,0.2-2,0.4c-0.4,0.2-0.6,0.6-0.6,1.2c0,0.4,0.1,0.7,0.4,0.9
		C532.2,207.3,532.5,207.4,533,207.4z"/>
	<path class="st6" d="M541.2,207.4c0.2,0,0.4,0,0.6,0c0.2,0,0.3-0.1,0.4-0.1v0.9c-0.1,0.1-0.3,0.1-0.5,0.1c-0.2,0-0.5,0.1-0.6,0.1
		c-1.4,0-2.2-0.8-2.2-2.3v-4.5h-1.1v-0.5l1.1-0.5l0.5-1.6h0.7v1.7h2.2v0.9h-2.2v4.4c0,0.5,0.1,0.8,0.3,1
		C540.5,207.3,540.8,207.4,541.2,207.4z"/>
	<path class="st6" d="M543.6,198.7c0-0.3,0.1-0.5,0.2-0.6c0.1-0.1,0.3-0.2,0.5-0.2c0.2,0,0.3,0.1,0.5,0.2s0.2,0.3,0.2,0.6
		c0,0.3-0.1,0.4-0.2,0.6c-0.1,0.1-0.3,0.2-0.5,0.2c-0.2,0-0.4-0.1-0.5-0.2C543.6,199.2,543.6,199,543.6,198.7z M544.8,208.2h-1.1
		v-7.5h1.1V208.2z"/>
	<path class="st6" d="M553.7,204.5c0,1.2-0.3,2.2-0.9,2.9c-0.6,0.7-1.5,1-2.5,1c-0.7,0-1.3-0.2-1.8-0.5s-0.9-0.8-1.2-1.4
		s-0.4-1.3-0.4-2.1c0-1.2,0.3-2.2,0.9-2.9c0.6-0.7,1.5-1,2.5-1c1,0,1.9,0.3,2.5,1C553.4,202.3,553.7,203.3,553.7,204.5z M548,204.5
		c0,1,0.2,1.7,0.6,2.2c0.4,0.5,0.9,0.8,1.7,0.8s1.3-0.2,1.7-0.7c0.4-0.5,0.6-1.2,0.6-2.2c0-1-0.2-1.7-0.6-2.2
		c-0.4-0.5-1-0.7-1.7-0.7c-0.7,0-1.3,0.2-1.7,0.7C548.2,202.8,548,203.5,548,204.5z"/>
	<path class="st6" d="M560.8,208.2v-4.8c0-0.6-0.1-1.1-0.4-1.4s-0.7-0.5-1.3-0.5c-0.8,0-1.4,0.2-1.7,0.6s-0.5,1.1-0.5,2.1v3.9h-1.1
		v-7.5h0.9l0.2,1h0.1c0.2-0.4,0.6-0.7,1-0.9c0.4-0.2,0.9-0.3,1.4-0.3c0.9,0,1.6,0.2,2,0.7c0.5,0.4,0.7,1.1,0.7,2.1v4.9H560.8z"/>
	<path class="st6" d="M569.1,206.2c0,0.7-0.3,1.2-0.8,1.6c-0.5,0.4-1.2,0.6-2.2,0.6c-1,0-1.8-0.2-2.3-0.5v-1.1
		c0.4,0.2,0.7,0.3,1.2,0.4c0.4,0.1,0.8,0.2,1.2,0.2c0.6,0,1-0.1,1.4-0.3c0.3-0.2,0.5-0.5,0.5-0.9c0-0.3-0.1-0.5-0.4-0.7
		c-0.3-0.2-0.7-0.5-1.5-0.7c-0.7-0.3-1.2-0.5-1.5-0.7c-0.3-0.2-0.5-0.4-0.7-0.7c-0.1-0.2-0.2-0.5-0.2-0.9c0-0.6,0.2-1.1,0.7-1.4
		c0.5-0.4,1.2-0.5,2-0.5c0.8,0,1.6,0.2,2.4,0.5l-0.4,0.9c-0.8-0.3-1.4-0.5-2-0.5c-0.5,0-0.9,0.1-1.2,0.3c-0.3,0.2-0.4,0.4-0.4,0.7
		c0,0.2,0.1,0.4,0.2,0.5c0.1,0.1,0.3,0.3,0.5,0.4c0.2,0.1,0.7,0.3,1.3,0.6c0.9,0.3,1.5,0.6,1.8,1
		C568.9,205.3,569.1,205.7,569.1,206.2z"/>
</g>
<g>
	<path class="st6" d="M386.4,179.6c0,0.8-0.2,1.5-0.7,2s-1.2,0.9-2,1.2v0.1c1,0.1,1.8,0.4,2.4,0.9s0.8,1.2,0.8,2
		c0,1.2-0.4,2.2-1.3,2.9s-2.2,1-3.8,1c-1.4,0-2.6-0.2-3.7-0.7v-2.3c0.5,0.3,1,0.5,1.6,0.6s1.2,0.2,1.8,0.2c0.9,0,1.6-0.2,2-0.5
		s0.6-0.8,0.6-1.5c0-0.6-0.2-1-0.7-1.3s-1.3-0.4-2.4-0.4h-1v-2.1h1c1,0,1.7-0.1,2.2-0.4s0.7-0.7,0.7-1.3c0-1-0.6-1.5-1.8-1.5
		c-0.4,0-0.9,0.1-1.3,0.2s-0.9,0.4-1.5,0.7l-1.3-1.9c1.2-0.8,2.6-1.3,4.2-1.3c1.3,0,2.4,0.3,3.2,0.8
		C386,177.9,386.4,178.6,386.4,179.6z"/>
	<path class="st6" d="M397.1,182.2c0,2.5-0.5,4.4-1.6,5.7s-2.7,1.9-4.8,1.9c-0.8,0-1.3,0-1.7-0.1v-2.2c0.5,0.1,1,0.2,1.5,0.2
		c0.9,0,1.7-0.1,2.2-0.4s1-0.7,1.3-1.3s0.5-1.4,0.5-2.4h-0.1c-0.3,0.6-0.7,0.9-1.2,1.2s-1,0.3-1.7,0.3c-1.1,0-2-0.4-2.6-1.1
		s-1-1.7-1-3c0-1.4,0.4-2.5,1.2-3.3c0.8-0.8,1.8-1.2,3.2-1.2c0.9,0,1.8,0.2,2.5,0.7c0.7,0.4,1.3,1.1,1.6,1.9S397.1,181,397.1,182.2z
		 M392.5,178.7c-0.6,0-1,0.2-1.3,0.6s-0.5,0.9-0.5,1.7c0,0.6,0.1,1.1,0.4,1.5s0.7,0.5,1.3,0.5c0.6,0,1-0.2,1.4-0.5s0.6-0.8,0.6-1.2
		c0-0.7-0.2-1.3-0.5-1.8S393,178.7,392.5,178.7z"/>
	<path class="st6" d="M404.4,180.5c0,1.3-0.3,2.4-0.8,3s-1.3,1-2.3,1c-1,0-1.7-0.3-2.2-1s-0.8-1.7-0.8-3c0-2.7,1-4,3-4
		c1,0,1.8,0.3,2.3,1C404.1,178.3,404.4,179.3,404.4,180.5z M400.5,180.6c0,0.7,0.1,1.3,0.2,1.7c0.1,0.4,0.3,0.5,0.6,0.5
		c0.6,0,0.8-0.7,0.8-2.2c0-1.5-0.3-2.2-0.8-2.2c-0.3,0-0.5,0.2-0.6,0.5C400.6,179.3,400.5,179.8,400.5,180.6z M410.4,176.7
		l-7.1,12.8h-2.1l7.1-12.8H410.4z M413.4,185.7c0,1.3-0.3,2.4-0.8,3s-1.3,1-2.3,1c-1,0-1.7-0.3-2.2-1s-0.8-1.7-0.8-3c0-2.7,1-4,3-4
		c1,0,1.8,0.3,2.3,1C413.1,183.4,413.4,184.4,413.4,185.7z M409.5,185.7c0,0.7,0.1,1.3,0.2,1.7c0.1,0.4,0.3,0.5,0.6,0.5
		c0.6,0,0.8-0.7,0.8-2.2c0-1.5-0.3-2.2-0.8-2.2c-0.3,0-0.5,0.2-0.6,0.5C409.6,184.4,409.5,184.9,409.5,185.7z"/>
</g>
<g>
	<path class="st6" d="M238.9,289.6c0,0.8-0.2,1.5-0.7,2s-1.2,0.9-2,1.2v0.1c1,0.1,1.8,0.4,2.4,0.9s0.8,1.2,0.8,2
		c0,1.2-0.4,2.2-1.3,2.9s-2.2,1-3.8,1c-1.4,0-2.6-0.2-3.7-0.7v-2.3c0.5,0.3,1,0.5,1.6,0.6s1.2,0.2,1.8,0.2c0.9,0,1.6-0.2,2-0.5
		s0.6-0.8,0.6-1.5c0-0.6-0.2-1-0.7-1.3s-1.3-0.4-2.4-0.4h-1v-2.1h1c1,0,1.7-0.1,2.2-0.4s0.7-0.7,0.7-1.3c0-1-0.6-1.5-1.8-1.5
		c-0.4,0-0.9,0.1-1.3,0.2s-0.9,0.4-1.5,0.7l-1.3-1.9c1.2-0.8,2.6-1.3,4.2-1.3c1.3,0,2.4,0.3,3.2,0.8
		C238.6,287.9,238.9,288.6,238.9,289.6z"/>
	<path class="st6" d="M245.4,291.3c1.2,0,2.2,0.3,3,1c0.7,0.7,1.1,1.7,1.1,2.9c0,1.4-0.4,2.5-1.3,3.3s-2.2,1.2-3.8,1.2
		c-1.4,0-2.6-0.2-3.5-0.7v-2.3c0.5,0.2,1,0.4,1.6,0.6s1.2,0.2,1.7,0.2c1.7,0,2.5-0.7,2.5-2c0-1.3-0.9-1.9-2.6-1.9
		c-0.3,0-0.7,0-1,0.1s-0.7,0.1-0.9,0.2l-1.1-0.6l0.5-6.5h7v2.3H244l-0.2,2.5l0.3-0.1C244.4,291.4,244.9,291.3,245.4,291.3z"/>
	<path class="st6" d="M257,290.5c0,1.3-0.3,2.4-0.8,3s-1.3,1-2.3,1c-1,0-1.7-0.3-2.2-1s-0.8-1.7-0.8-3c0-2.7,1-4,3-4
		c1,0,1.8,0.3,2.3,1C256.7,288.3,257,289.3,257,290.5z M253.1,290.6c0,0.7,0.1,1.3,0.2,1.7c0.1,0.4,0.3,0.5,0.6,0.5
		c0.6,0,0.8-0.7,0.8-2.2c0-1.5-0.3-2.2-0.8-2.2c-0.3,0-0.5,0.2-0.6,0.5C253.1,289.3,253.1,289.8,253.1,290.6z M263,286.7l-7.1,12.8
		h-2.1l7.1-12.8H263z M266,295.7c0,1.3-0.3,2.4-0.8,3s-1.3,1-2.3,1c-1,0-1.7-0.3-2.2-1s-0.8-1.7-0.8-3c0-2.7,1-4,3-4
		c1,0,1.8,0.3,2.3,1C265.7,293.4,266,294.4,266,295.7z M262.1,295.7c0,0.7,0.1,1.3,0.2,1.7c0.1,0.4,0.3,0.5,0.6,0.5
		c0.6,0,0.8-0.7,0.8-2.2c0-1.5-0.3-2.2-0.8-2.2c-0.3,0-0.5,0.2-0.6,0.5C262.1,294.4,262.1,294.9,262.1,295.7z"/>
</g>
<g>
	<path class="st6" d="M175.2,175.6h-2.7v-7.4l0-1.2l0-1.3c-0.5,0.5-0.8,0.7-0.9,0.9l-1.5,1.2l-1.3-1.6l4.1-3.3h2.2V175.6z"/>
	<path class="st6" d="M185.5,175.6h-2.7v-7.4l0-1.2l0-1.3c-0.5,0.5-0.8,0.7-0.9,0.9l-1.5,1.2l-1.3-1.6l4.1-3.3h2.2V175.6z"/>
	<path class="st6" d="M195,166.5c0,1.3-0.3,2.4-0.8,3s-1.3,1-2.3,1c-1,0-1.7-0.3-2.2-1s-0.8-1.7-0.8-3c0-2.7,1-4,3-4
		c1,0,1.8,0.3,2.3,1C194.7,164.3,195,165.3,195,166.5z M191.1,166.6c0,0.7,0.1,1.3,0.2,1.7c0.1,0.4,0.3,0.5,0.6,0.5
		c0.6,0,0.8-0.7,0.8-2.2c0-1.5-0.3-2.2-0.8-2.2c-0.3,0-0.5,0.2-0.6,0.5C191.1,165.3,191.1,165.8,191.1,166.6z M201,162.7l-7.1,12.8
		h-2.1l7.1-12.8H201z M204,171.7c0,1.3-0.3,2.4-0.8,3s-1.3,1-2.3,1c-1,0-1.7-0.3-2.2-1s-0.8-1.7-0.8-3c0-2.7,1-4,3-4
		c1,0,1.8,0.3,2.3,1C203.7,169.4,204,170.4,204,171.7z M200.1,171.7c0,0.7,0.1,1.3,0.2,1.7c0.1,0.4,0.3,0.5,0.6,0.5
		c0.6,0,0.8-0.7,0.8-2.2c0-1.5-0.3-2.2-0.8-2.2c-0.3,0-0.5,0.2-0.6,0.5C200.1,170.4,200.1,170.9,200.1,171.7z"/>
</g>
<g>
	<path class="st6" d="M208.2,102.9c1.2,0,2.2,0.3,3,0.8s1.1,1.3,1.1,2.3c0,0.7-0.2,1.2-0.5,1.8s-0.9,1-1.8,1.4
		c1,0.5,1.7,1.1,2.1,1.6s0.6,1.2,0.6,1.8c0,1.1-0.4,1.9-1.2,2.5s-1.9,1-3.3,1c-1.4,0-2.5-0.3-3.3-0.9s-1.2-1.4-1.2-2.5
		c0-0.7,0.2-1.4,0.6-2s1-1.1,1.9-1.5c-0.7-0.5-1.3-1-1.6-1.5s-0.5-1.1-0.5-1.7c0-0.9,0.4-1.7,1.1-2.2S207,102.9,208.2,102.9z
		 M206.2,112.5c0,0.5,0.2,0.9,0.5,1.2s0.8,0.4,1.4,0.4c0.7,0,1.2-0.1,1.5-0.4s0.5-0.7,0.5-1.1c0-0.4-0.2-0.8-0.5-1.1
		s-0.9-0.7-1.6-1.1C206.8,110.9,206.2,111.6,206.2,112.5z M208.2,104.9c-0.5,0-0.8,0.1-1.1,0.4s-0.4,0.6-0.4,1
		c0,0.4,0.1,0.7,0.3,0.9s0.6,0.6,1.2,0.9c0.6-0.3,1-0.5,1.2-0.8s0.3-0.6,0.3-1c0-0.4-0.1-0.7-0.4-1S208.7,104.9,208.2,104.9z"/>
	<path class="st6" d="M220,106.9c0,1.3-0.3,2.4-0.8,3s-1.3,1-2.3,1c-1,0-1.7-0.3-2.2-1s-0.8-1.7-0.8-3c0-2.7,1-4,3-4
		c1,0,1.8,0.3,2.3,1C219.7,104.6,220,105.6,220,106.9z M216.1,106.9c0,0.7,0.1,1.3,0.2,1.7c0.1,0.4,0.3,0.5,0.6,0.5
		c0.6,0,0.8-0.7,0.8-2.2c0-1.5-0.3-2.2-0.8-2.2c-0.3,0-0.5,0.2-0.6,0.5C216.2,105.6,216.1,106.1,216.1,106.9z M226.1,103l-7.1,12.8
		h-2.1l7.1-12.8H226.1z M229,112c0,1.3-0.3,2.4-0.8,3s-1.3,1-2.3,1c-1,0-1.7-0.3-2.2-1s-0.8-1.7-0.8-3c0-2.7,1-4,3-4
		c1,0,1.8,0.3,2.3,1C228.7,109.7,229,110.7,229,112z M225.1,112c0,0.7,0.1,1.3,0.2,1.7c0.1,0.4,0.3,0.5,0.6,0.5
		c0.6,0,0.8-0.7,0.8-2.2c0-1.5-0.3-2.2-0.8-2.2c-0.3,0-0.5,0.2-0.6,0.5C225.2,110.7,225.1,111.3,225.1,112z"/>
</g>
<g>
	<path class="st6" d="M250.6,78.5c1,0,1.7,0.3,2.3,0.8c0.6,0.5,0.9,1.3,0.9,2.2c0,1.1-0.3,2-1,2.6s-1.7,0.9-3,0.9
		c-1.1,0-2-0.2-2.7-0.5v-1.8c0.4,0.2,0.8,0.3,1.3,0.5s0.9,0.2,1.4,0.2c1.3,0,1.9-0.5,1.9-1.6c0-1-0.7-1.5-2-1.5
		c-0.2,0-0.5,0-0.8,0.1s-0.5,0.1-0.7,0.2l-0.8-0.5l0.4-5.1h5.4v1.8h-3.6l-0.2,2l0.2,0C249.9,78.5,250.2,78.5,250.6,78.5z"/>
	<path class="st6" d="M259.6,77.9c0,1-0.2,1.8-0.6,2.4s-1,0.8-1.8,0.8c-0.8,0-1.3-0.3-1.7-0.8s-0.6-1.3-0.6-2.3
		c0-2.1,0.8-3.1,2.4-3.1c0.8,0,1.4,0.3,1.8,0.8C259.4,76.1,259.6,76.9,259.6,77.9z M256.6,77.9c0,0.6,0.1,1,0.2,1.3
		c0.1,0.3,0.3,0.4,0.5,0.4c0.4,0,0.7-0.6,0.7-1.7c0-1.1-0.2-1.7-0.7-1.7c-0.2,0-0.4,0.1-0.5,0.4C256.6,76.9,256.6,77.3,256.6,77.9z
		 M264.3,74.9l-5.5,10h-1.6l5.5-10H264.3z M266.6,81.9c0,1-0.2,1.8-0.6,2.4s-1,0.8-1.8,0.8c-0.8,0-1.3-0.3-1.7-0.8s-0.6-1.3-0.6-2.3
		c0-2.1,0.8-3.1,2.4-3.1c0.8,0,1.4,0.3,1.8,0.8C266.4,80.1,266.6,80.9,266.6,81.9z M263.6,81.9c0,0.6,0.1,1,0.2,1.3
		c0.1,0.3,0.3,0.4,0.5,0.4c0.4,0,0.7-0.6,0.7-1.7c0-1.1-0.2-1.7-0.7-1.7c-0.2,0-0.4,0.1-0.5,0.4C263.6,80.9,263.6,81.3,263.6,81.9z"
		/>
</g>
<g>
	<path class="st6" d="M304.3,27.5h-7V26l2.5-2.5c0.7-0.8,1.2-1.3,1.5-1.6s0.4-0.6,0.5-0.8s0.2-0.5,0.2-0.8c0-0.4-0.1-0.7-0.3-0.9
		c-0.2-0.2-0.5-0.3-0.9-0.3c-0.4,0-0.8,0.1-1.1,0.3s-0.7,0.4-1.1,0.8l-1.1-1.4c0.5-0.4,0.9-0.7,1.2-0.9s0.7-0.3,1.1-0.4
		s0.8-0.1,1.3-0.1c0.6,0,1.2,0.1,1.7,0.3s0.8,0.5,1.1,1s0.4,0.9,0.4,1.4c0,0.5-0.1,0.9-0.2,1.3c-0.2,0.4-0.4,0.8-0.8,1.2
		c-0.3,0.4-0.9,1-1.8,1.8l-1.3,1.2v0.1h4.4V27.5z"/>
	<path class="st6" d="M309.9,20.5c0,1-0.2,1.8-0.6,2.4s-1,0.8-1.8,0.8c-0.8,0-1.3-0.3-1.7-0.8s-0.6-1.3-0.6-2.3
		c0-2.1,0.8-3.1,2.4-3.1c0.8,0,1.4,0.3,1.8,0.8C309.7,18.7,309.9,19.4,309.9,20.5z M306.9,20.5c0,0.6,0.1,1,0.2,1.3
		c0.1,0.3,0.3,0.4,0.5,0.4c0.4,0,0.7-0.6,0.7-1.7c0-1.1-0.2-1.7-0.7-1.7c-0.2,0-0.4,0.1-0.5,0.4C306.9,19.5,306.9,19.9,306.9,20.5z
		 M314.6,17.5l-5.5,10h-1.6l5.5-10H314.6z M316.9,24.4c0,1-0.2,1.8-0.6,2.4s-1,0.8-1.8,0.8c-0.8,0-1.3-0.3-1.7-0.8s-0.6-1.3-0.6-2.3
		c0-2.1,0.8-3.1,2.4-3.1c0.8,0,1.4,0.3,1.8,0.8C316.7,22.7,316.9,23.4,316.9,24.4z M313.9,24.5c0,0.6,0.1,1,0.2,1.3
		c0.1,0.3,0.3,0.4,0.5,0.4c0.4,0,0.7-0.6,0.7-1.7c0-1.1-0.2-1.7-0.7-1.7c-0.2,0-0.4,0.1-0.5,0.4C313.9,23.4,313.9,23.9,313.9,24.5z"
		/>
</g>
<g>
	<path class="st6" d="M162.7,368.5v-10h1.2v8.9h4.4v1.1H162.7z"/>
	<path class="st6" d="M176.2,364.7c0,1.2-0.3,2.2-0.9,2.9c-0.6,0.7-1.5,1-2.5,1c-0.7,0-1.3-0.2-1.8-0.5s-0.9-0.8-1.2-1.4
		s-0.4-1.3-0.4-2.1c0-1.2,0.3-2.2,0.9-2.9c0.6-0.7,1.5-1,2.5-1c1,0,1.9,0.3,2.5,1C175.9,362.6,176.2,363.5,176.2,364.7z
		 M170.5,364.7c0,1,0.2,1.7,0.6,2.2c0.4,0.5,0.9,0.8,1.7,0.8s1.3-0.2,1.7-0.7c0.4-0.5,0.6-1.2,0.6-2.2c0-1-0.2-1.7-0.6-2.2
		c-0.4-0.5-1-0.7-1.7-0.7c-0.7,0-1.3,0.2-1.7,0.7C170.7,363,170.5,363.7,170.5,364.7z"/>
	<path class="st6" d="M181.2,368.6c-1.1,0-1.9-0.3-2.5-1c-0.6-0.7-0.9-1.6-0.9-2.8c0-1.3,0.3-2.2,0.9-2.9c0.6-0.7,1.5-1,2.6-1
		c0.4,0,0.7,0,1.1,0.1c0.4,0.1,0.6,0.2,0.8,0.3l-0.3,1c-0.3-0.1-0.5-0.2-0.8-0.2c-0.3-0.1-0.6-0.1-0.8-0.1c-1.5,0-2.3,1-2.3,2.9
		c0,0.9,0.2,1.6,0.6,2.1c0.4,0.5,0.9,0.7,1.7,0.7c0.6,0,1.3-0.1,1.9-0.4v1C182.6,368.5,182,368.6,181.2,368.6z"/>
	<path class="st6" d="M189.5,368.5l-0.2-1.1h-0.1c-0.4,0.5-0.7,0.8-1.1,1c-0.4,0.2-0.8,0.2-1.4,0.2c-0.7,0-1.3-0.2-1.7-0.6
		c-0.4-0.4-0.6-0.9-0.6-1.6c0-1.5,1.2-2.3,3.6-2.4l1.3,0v-0.5c0-0.6-0.1-1-0.4-1.3c-0.3-0.3-0.7-0.4-1.2-0.4c-0.6,0-1.3,0.2-2.1,0.6
		l-0.3-0.9c0.4-0.2,0.8-0.4,1.2-0.5c0.4-0.1,0.9-0.2,1.3-0.2c0.9,0,1.6,0.2,2,0.6c0.4,0.4,0.6,1,0.6,1.9v5.1H189.5z M186.9,367.7
		c0.7,0,1.3-0.2,1.7-0.6c0.4-0.4,0.6-0.9,0.6-1.6v-0.7l-1.1,0c-0.9,0-1.6,0.2-2,0.4c-0.4,0.2-0.6,0.6-0.6,1.2c0,0.4,0.1,0.7,0.4,0.9
		C186.1,367.6,186.5,367.7,186.9,367.7z"/>
	<path class="st6" d="M193.8,368.5h-1.1v-10.6h1.1V368.5z"/>
	<path class="st6" d="M207.8,368.5h-1.3l-5.5-8.4H201c0.1,1,0.1,1.9,0.1,2.7v5.7H200v-10h1.3l5.4,8.4h0.1c0-0.1,0-0.5-0.1-1.2
		c0-0.7,0-1.1,0-1.4v-5.7h1.1V368.5z"/>
	<path class="st6" d="M215,363.2h3.4v4.9c-0.5,0.2-1.1,0.3-1.6,0.4c-0.5,0.1-1.2,0.1-1.9,0.1c-1.5,0-2.7-0.5-3.5-1.3
		c-0.8-0.9-1.3-2.2-1.3-3.8c0-1,0.2-1.9,0.6-2.7c0.4-0.8,1-1.4,1.8-1.8c0.8-0.4,1.7-0.6,2.8-0.6c1.1,0,2.1,0.2,3,0.6l-0.5,1
		c-0.9-0.4-1.8-0.6-2.6-0.6c-1.2,0-2.2,0.4-2.9,1.1s-1,1.7-1,3c0,1.3,0.3,2.4,1,3.1c0.7,0.7,1.6,1,2.9,1c0.7,0,1.4-0.1,2-0.2v-3.1
		H215V363.2z"/>
	<path class="st6" d="M229.5,363.5c0,1.6-0.4,2.9-1.2,3.8c-0.8,0.9-1.9,1.4-3.4,1.4c-1.5,0-2.6-0.5-3.4-1.3
		c-0.8-0.9-1.2-2.2-1.2-3.8c0-1.6,0.4-2.9,1.2-3.8s1.9-1.3,3.4-1.3c1.4,0,2.6,0.5,3.4,1.4C229.1,360.6,229.5,361.9,229.5,363.5z
		 M221.5,363.5c0,1.4,0.3,2.4,0.9,3.1c0.6,0.7,1.4,1,2.5,1c1.1,0,1.9-0.3,2.5-1s0.8-1.7,0.8-3.1c0-1.3-0.3-2.4-0.8-3.1
		c-0.6-0.7-1.4-1-2.5-1c-1.1,0-1.9,0.3-2.5,1C221.8,361.1,221.5,362.1,221.5,363.5z"/>
	<path class="st6" d="M236.3,366.4c0,0.7-0.3,1.2-0.8,1.6c-0.5,0.4-1.2,0.6-2.2,0.6c-1,0-1.8-0.2-2.3-0.5v-1.1
		c0.4,0.2,0.7,0.3,1.2,0.4c0.4,0.1,0.8,0.2,1.2,0.2c0.6,0,1-0.1,1.4-0.3c0.3-0.2,0.5-0.5,0.5-0.9c0-0.3-0.1-0.5-0.4-0.7
		c-0.3-0.2-0.7-0.5-1.5-0.7c-0.7-0.3-1.2-0.5-1.5-0.7c-0.3-0.2-0.5-0.4-0.7-0.7c-0.1-0.2-0.2-0.5-0.2-0.9c0-0.6,0.2-1.1,0.7-1.4
		c0.5-0.4,1.2-0.5,2-0.5c0.8,0,1.6,0.2,2.4,0.5l-0.4,0.9c-0.8-0.3-1.4-0.5-2-0.5c-0.5,0-0.9,0.1-1.2,0.3c-0.3,0.2-0.4,0.4-0.4,0.7
		c0,0.2,0.1,0.4,0.2,0.5c0.1,0.1,0.3,0.3,0.5,0.4c0.2,0.1,0.7,0.3,1.3,0.6c0.9,0.3,1.5,0.6,1.8,1
		C236.2,365.5,236.3,365.9,236.3,366.4z"/>
</g>
<g>
	<path class="st6" d="M26.1,171.6h3.4v4.9c-0.5,0.2-1.1,0.3-1.6,0.4c-0.5,0.1-1.2,0.1-1.9,0.1c-1.5,0-2.7-0.5-3.5-1.4
		c-0.8-0.9-1.3-2.2-1.3-3.8c0-1,0.2-1.9,0.6-2.7c0.4-0.8,1-1.4,1.8-1.8c0.8-0.4,1.7-0.6,2.8-0.6c1.1,0,2.1,0.2,3,0.6l-0.5,1
		c-0.9-0.4-1.8-0.6-2.6-0.6c-1.2,0-2.2,0.4-2.9,1.1s-1,1.7-1,3c0,1.3,0.3,2.4,1,3.1c0.7,0.7,1.6,1,2.9,1c0.7,0,1.4-0.1,2-0.2v-3.1
		h-2.2V171.6z"/>
	<path class="st6" d="M38.2,173c0,1.2-0.3,2.2-0.9,2.9c-0.6,0.7-1.5,1-2.5,1c-0.7,0-1.3-0.2-1.8-0.5s-0.9-0.8-1.2-1.4
		s-0.4-1.3-0.4-2.1c0-1.2,0.3-2.2,0.9-2.9c0.6-0.7,1.5-1,2.5-1c1,0,1.9,0.3,2.5,1C37.9,170.9,38.2,171.9,38.2,173z M32.5,173
		c0,1,0.2,1.7,0.6,2.2c0.4,0.5,0.9,0.8,1.7,0.8s1.3-0.2,1.7-0.7c0.4-0.5,0.6-1.2,0.6-2.2c0-1-0.2-1.7-0.6-2.2
		c-0.4-0.5-1-0.7-1.7-0.7c-0.7,0-1.3,0.2-1.7,0.7C32.7,171.4,32.5,172.1,32.5,173z"/>
	<path class="st6" d="M41.9,176.8l-2.8-7.5h1.2l1.6,4.4c0.4,1,0.6,1.7,0.6,2h0.1c0-0.2,0.2-0.7,0.5-1.5c0.3-0.8,0.9-2.4,1.8-5H46
		l-2.8,7.5H41.9z"/>
	<path class="st6" d="M50.4,176.9c-1.1,0-2-0.3-2.6-1c-0.6-0.7-1-1.6-1-2.8c0-1.2,0.3-2.2,0.9-2.9c0.6-0.7,1.4-1.1,2.4-1.1
		c0.9,0,1.7,0.3,2.2,0.9c0.5,0.6,0.8,1.4,0.8,2.4v0.7H48c0,0.9,0.2,1.5,0.7,2c0.4,0.5,1,0.7,1.8,0.7c0.8,0,1.6-0.2,2.4-0.5v1
		c-0.4,0.2-0.8,0.3-1.1,0.4C51.3,176.9,50.9,176.9,50.4,176.9z M50.1,170.1c-0.6,0-1.1,0.2-1.4,0.6c-0.4,0.4-0.6,0.9-0.6,1.6h3.9
		c0-0.7-0.2-1.3-0.5-1.6C51.1,170.3,50.7,170.1,50.1,170.1z"/>
	<path class="st6" d="M58.5,169.2c0.3,0,0.6,0,0.9,0.1l-0.2,1.1c-0.3-0.1-0.6-0.1-0.8-0.1c-0.6,0-1.1,0.2-1.6,0.7
		c-0.4,0.5-0.6,1.1-0.6,1.8v4h-1.1v-7.5H56l0.1,1.4h0.1c0.3-0.5,0.6-0.9,1-1.1C57.6,169.3,58,169.2,58.5,169.2z"/>
	<path class="st6" d="M65.9,176.8V172c0-0.6-0.1-1.1-0.4-1.4s-0.7-0.5-1.3-0.5c-0.8,0-1.4,0.2-1.7,0.6s-0.5,1.1-0.5,2.1v3.9h-1.1
		v-7.5h0.9l0.2,1H62c0.2-0.4,0.6-0.7,1-0.9c0.4-0.2,0.9-0.3,1.4-0.3c0.9,0,1.6,0.2,2,0.7c0.5,0.4,0.7,1.1,0.7,2.1v4.9H65.9z"/>
	<path class="st6" d="M78.9,176.8v-4.9c0-0.6-0.1-1-0.4-1.3c-0.3-0.3-0.7-0.4-1.2-0.4c-0.7,0-1.2,0.2-1.6,0.6
		c-0.3,0.4-0.5,1-0.5,1.9v4.2h-1.1v-4.9c0-0.6-0.1-1-0.4-1.3c-0.3-0.3-0.7-0.4-1.2-0.4c-0.7,0-1.2,0.2-1.6,0.6
		c-0.3,0.4-0.5,1.1-0.5,2.1v3.9h-1.1v-7.5h0.9l0.2,1h0.1c0.2-0.4,0.5-0.6,0.9-0.9c0.4-0.2,0.8-0.3,1.3-0.3c1.2,0,1.9,0.4,2.3,1.3
		h0.1c0.2-0.4,0.5-0.7,1-0.9c0.4-0.2,0.9-0.3,1.4-0.3c0.8,0,1.5,0.2,1.9,0.7c0.4,0.4,0.6,1.1,0.6,2.1v4.9H78.9z"/>
	<path class="st6" d="M85.6,176.9c-1.1,0-2-0.3-2.6-1c-0.6-0.7-1-1.6-1-2.8c0-1.2,0.3-2.2,0.9-2.9c0.6-0.7,1.4-1.1,2.4-1.1
		c0.9,0,1.7,0.3,2.2,0.9c0.5,0.6,0.8,1.4,0.8,2.4v0.7h-5.2c0,0.9,0.2,1.5,0.7,2c0.4,0.5,1,0.7,1.8,0.7c0.8,0,1.6-0.2,2.4-0.5v1
		c-0.4,0.2-0.8,0.3-1.1,0.4C86.5,176.9,86.1,176.9,85.6,176.9z M85.3,170.1c-0.6,0-1.1,0.2-1.4,0.6c-0.4,0.4-0.6,0.9-0.6,1.6h3.9
		c0-0.7-0.2-1.3-0.5-1.6C86.3,170.3,85.9,170.1,85.3,170.1z"/>
	<path class="st6" d="M95.4,176.8V172c0-0.6-0.1-1.1-0.4-1.4s-0.7-0.5-1.3-0.5c-0.8,0-1.4,0.2-1.7,0.6s-0.5,1.1-0.5,2.1v3.9h-1.1
		v-7.5h0.9l0.2,1h0.1c0.2-0.4,0.6-0.7,1-0.9c0.4-0.2,0.9-0.3,1.4-0.3c0.9,0,1.6,0.2,2,0.7c0.5,0.4,0.7,1.1,0.7,2.1v4.9H95.4z"/>
	<path class="st6" d="M101.3,176c0.2,0,0.4,0,0.6,0c0.2,0,0.3-0.1,0.4-0.1v0.9c-0.1,0.1-0.3,0.1-0.5,0.1c-0.2,0-0.5,0.1-0.6,0.1
		c-1.4,0-2.2-0.8-2.2-2.3v-4.5h-1.1v-0.5l1.1-0.5l0.5-1.6h0.7v1.7h2.2v0.9h-2.2v4.4c0,0.5,0.1,0.8,0.3,1
		C100.6,175.9,100.9,176,101.3,176z"/>
</g>
<g>
	<path class="st6" d="M162.6,24.3v6.5c0,1.1-0.3,2-1,2.7s-1.6,1-2.8,1s-2.1-0.3-2.8-1c-0.7-0.7-1-1.6-1-2.7v-6.4h1.2v6.5
		c0,0.8,0.2,1.5,0.7,1.9s1.1,0.7,2,0.7c0.8,0,1.5-0.2,1.9-0.7s0.7-1.1,0.7-1.9v-6.5H162.6z"/>
	<path class="st6" d="M173.1,34.3h-1.3l-5.5-8.4h-0.1c0.1,1,0.1,1.9,0.1,2.7v5.7h-1.1v-10h1.3l5.4,8.4h0.1c0-0.1,0-0.5-0.1-1.2
		s0-1.1,0-1.4v-5.7h1.1V34.3z"/>
	<path class="st6" d="M185.7,34.3l-1.2-3.2h-4l-1.2,3.2h-1.2l4-10h1l3.9,10H185.7z M184.1,30l-1.2-3.1c-0.2-0.4-0.3-0.9-0.5-1.4
		c-0.1,0.4-0.2,0.9-0.4,1.4l-1.2,3.1H184.1z"/>
	<path class="st6" d="M194.3,26.8v0.7l-1.4,0.2c0.1,0.2,0.2,0.4,0.3,0.6s0.2,0.5,0.2,0.9c0,0.7-0.3,1.3-0.8,1.8s-1.2,0.7-2.1,0.7
		c-0.2,0-0.4,0-0.6-0.1c-0.5,0.3-0.7,0.6-0.7,1c0,0.2,0.1,0.4,0.3,0.5s0.5,0.1,0.9,0.1h1.3c0.8,0,1.4,0.2,1.9,0.5
		c0.4,0.3,0.7,0.8,0.7,1.5c0,0.8-0.3,1.5-1,1.9s-1.6,0.7-2.9,0.7c-1,0-1.7-0.2-2.3-0.5c-0.5-0.4-0.8-0.9-0.8-1.5
		c0-0.5,0.1-0.9,0.4-1.2s0.7-0.6,1.2-0.7c-0.2-0.1-0.4-0.2-0.5-0.4c-0.1-0.2-0.2-0.4-0.2-0.6c0-0.3,0.1-0.5,0.2-0.7s0.4-0.4,0.7-0.6
		c-0.4-0.2-0.7-0.4-0.9-0.8c-0.2-0.4-0.4-0.8-0.4-1.3c0-0.8,0.2-1.5,0.7-1.9s1.2-0.7,2.1-0.7c0.4,0,0.7,0,1.1,0.1H194.3z
		 M188.3,35.5c0,0.4,0.2,0.7,0.5,0.9s0.8,0.3,1.5,0.3c1,0,1.7-0.1,2.1-0.4c0.5-0.3,0.7-0.7,0.7-1.2c0-0.4-0.1-0.7-0.4-0.8
		s-0.7-0.2-1.4-0.2h-1.4c-0.5,0-0.9,0.1-1.2,0.4S188.3,35.1,188.3,35.5z M188.9,29.2c0,0.5,0.1,0.9,0.4,1.2s0.7,0.4,1.2,0.4
		c1.1,0,1.7-0.5,1.7-1.6c0-1.1-0.6-1.7-1.7-1.7c-0.5,0-0.9,0.1-1.2,0.4S188.9,28.6,188.9,29.2z"/>
	<path class="st6" d="M199,34.4c-1.1,0-2-0.3-2.6-1c-0.6-0.7-1-1.6-1-2.8c0-1.2,0.3-2.2,0.9-2.9c0.6-0.7,1.4-1.1,2.4-1.1
		c0.9,0,1.7,0.3,2.2,0.9s0.8,1.4,0.8,2.4v0.7h-5.2c0,0.9,0.2,1.5,0.7,2c0.4,0.5,1,0.7,1.8,0.7c0.8,0,1.6-0.2,2.4-0.5v1
		c-0.4,0.2-0.8,0.3-1.1,0.4C199.9,34.4,199.5,34.4,199,34.4z M198.7,27.6c-0.6,0-1.1,0.2-1.4,0.6c-0.4,0.4-0.6,0.9-0.6,1.6h3.9
		c0-0.7-0.2-1.3-0.5-1.6S199.3,27.6,198.7,27.6z"/>
	<path class="st6" d="M208.8,34.3v-4.8c0-0.6-0.1-1.1-0.4-1.4s-0.7-0.5-1.3-0.5c-0.8,0-1.4,0.2-1.7,0.6s-0.5,1.1-0.5,2.1v3.9h-1.1
		v-7.5h0.9l0.2,1h0.1c0.2-0.4,0.6-0.7,1-0.9s0.9-0.3,1.4-0.3c0.9,0,1.6,0.2,2,0.7s0.7,1.1,0.7,2.1v4.9H208.8z"/>
	<path class="st6" d="M215.3,34.4c-1.1,0-1.9-0.3-2.5-1c-0.6-0.7-0.9-1.6-0.9-2.8c0-1.3,0.3-2.2,0.9-2.9c0.6-0.7,1.5-1,2.6-1
		c0.4,0,0.7,0,1.1,0.1s0.6,0.2,0.8,0.3l-0.3,1c-0.3-0.1-0.5-0.2-0.8-0.2s-0.6-0.1-0.8-0.1c-1.5,0-2.3,1-2.3,2.9
		c0,0.9,0.2,1.6,0.6,2.1c0.4,0.5,0.9,0.7,1.7,0.7c0.6,0,1.3-0.1,1.9-0.4v1C216.6,34.3,216,34.4,215.3,34.4z"/>
	<path class="st6" d="M218.8,24.7c0-0.3,0.1-0.5,0.2-0.6s0.3-0.2,0.5-0.2c0.2,0,0.3,0.1,0.5,0.2s0.2,0.3,0.2,0.6s-0.1,0.4-0.2,0.6
		s-0.3,0.2-0.5,0.2c-0.2,0-0.4-0.1-0.5-0.2S218.8,25,218.8,24.7z M220.1,34.3h-1.1v-7.5h1.1V34.3z"/>
	<path class="st6" d="M225.6,34.4c-1.1,0-2-0.3-2.6-1c-0.6-0.7-1-1.6-1-2.8c0-1.2,0.3-2.2,0.9-2.9c0.6-0.7,1.4-1.1,2.4-1.1
		c0.9,0,1.7,0.3,2.2,0.9s0.8,1.4,0.8,2.4v0.7h-5.2c0,0.9,0.2,1.5,0.7,2c0.4,0.5,1,0.7,1.8,0.7c0.8,0,1.6-0.2,2.4-0.5v1
		c-0.4,0.2-0.8,0.3-1.1,0.4C226.6,34.4,226.1,34.4,225.6,34.4z M225.3,27.6c-0.6,0-1.1,0.2-1.4,0.6c-0.4,0.4-0.6,0.9-0.6,1.6h3.9
		c0-0.7-0.2-1.3-0.5-1.6S225.9,27.6,225.3,27.6z"/>
	<path class="st6" d="M235.2,32.2c0,0.7-0.3,1.2-0.8,1.6s-1.2,0.6-2.2,0.6c-1,0-1.8-0.2-2.3-0.5v-1.1c0.4,0.2,0.7,0.3,1.2,0.4
		c0.4,0.1,0.8,0.2,1.2,0.2c0.6,0,1-0.1,1.4-0.3s0.5-0.5,0.5-0.9c0-0.3-0.1-0.5-0.4-0.7c-0.3-0.2-0.7-0.5-1.5-0.7
		c-0.7-0.3-1.2-0.5-1.5-0.7c-0.3-0.2-0.5-0.4-0.7-0.7c-0.1-0.2-0.2-0.5-0.2-0.9c0-0.6,0.2-1.1,0.7-1.4s1.2-0.5,2-0.5
		c0.8,0,1.6,0.2,2.4,0.5l-0.4,0.9c-0.8-0.3-1.4-0.5-2-0.5c-0.5,0-0.9,0.1-1.2,0.3s-0.4,0.4-0.4,0.7c0,0.2,0.1,0.4,0.2,0.5
		c0.1,0.1,0.3,0.3,0.5,0.4s0.7,0.3,1.3,0.6c0.9,0.3,1.5,0.6,1.8,1C235,31.3,235.2,31.7,235.2,32.2z"/>
</g>
<g>
	<path class="st6" d="M324.1,27.1v-10h1.2v10H324.1z"/>
	<path class="st6" d="M332.9,27.1v-4.8c0-0.6-0.1-1.1-0.4-1.4s-0.7-0.5-1.3-0.5c-0.8,0-1.4,0.2-1.7,0.6s-0.5,1.1-0.5,2.1v3.9h-1.1
		v-7.5h0.9l0.2,1h0.1c0.2-0.4,0.6-0.7,1-0.9s0.9-0.3,1.4-0.3c0.9,0,1.6,0.2,2,0.7s0.7,1.1,0.7,2.1v4.9H332.9z"/>
	<path class="st6" d="M338.8,26.3c0.2,0,0.4,0,0.6,0s0.3-0.1,0.4-0.1v0.9c-0.1,0.1-0.3,0.1-0.5,0.1c-0.2,0-0.5,0.1-0.6,0.1
		c-1.4,0-2.2-0.8-2.2-2.3v-4.5h-1.1V20l1.1-0.5l0.5-1.6h0.7v1.7h2.2v0.9h-2.2v4.4c0,0.5,0.1,0.8,0.3,1S338.4,26.3,338.8,26.3z"/>
	<path class="st6" d="M344.5,27.3c-1.1,0-2-0.3-2.6-1c-0.6-0.7-1-1.6-1-2.8c0-1.2,0.3-2.2,0.9-2.9c0.6-0.7,1.4-1.1,2.4-1.1
		c0.9,0,1.7,0.3,2.2,0.9s0.8,1.4,0.8,2.4v0.7h-5.2c0,0.9,0.2,1.5,0.7,2c0.4,0.5,1,0.7,1.8,0.7c0.8,0,1.6-0.2,2.4-0.5v1
		c-0.4,0.2-0.8,0.3-1.1,0.4C345.4,27.2,345,27.3,344.5,27.3z M344.2,20.5c-0.6,0-1.1,0.2-1.4,0.6c-0.4,0.4-0.6,0.9-0.6,1.6h3.9
		c0-0.7-0.2-1.3-0.5-1.6S344.8,20.5,344.2,20.5z"/>
	<path class="st6" d="M352.6,19.5c0.3,0,0.6,0,0.9,0.1l-0.2,1.1c-0.3-0.1-0.6-0.1-0.8-0.1c-0.6,0-1.1,0.2-1.6,0.7
		c-0.4,0.5-0.6,1.1-0.6,1.8v4h-1.1v-7.5h0.9l0.1,1.4h0.1c0.3-0.5,0.6-0.9,1-1.1S352.1,19.5,352.6,19.5z"/>
	<path class="st6" d="M361,19.6v0.7l-1.4,0.2c0.1,0.2,0.2,0.4,0.3,0.6s0.2,0.5,0.2,0.9c0,0.7-0.3,1.3-0.8,1.8s-1.2,0.7-2.1,0.7
		c-0.2,0-0.4,0-0.6-0.1c-0.5,0.3-0.7,0.6-0.7,1c0,0.2,0.1,0.4,0.3,0.5s0.5,0.1,0.9,0.1h1.3c0.8,0,1.4,0.2,1.9,0.5
		c0.4,0.3,0.7,0.8,0.7,1.5c0,0.8-0.3,1.5-1,1.9s-1.6,0.7-2.9,0.7c-1,0-1.7-0.2-2.3-0.5c-0.5-0.4-0.8-0.9-0.8-1.5
		c0-0.5,0.1-0.9,0.4-1.2s0.7-0.6,1.2-0.7c-0.2-0.1-0.4-0.2-0.5-0.4c-0.1-0.2-0.2-0.4-0.2-0.6c0-0.3,0.1-0.5,0.2-0.7s0.4-0.4,0.7-0.6
		c-0.4-0.2-0.7-0.4-0.9-0.8c-0.2-0.4-0.4-0.8-0.4-1.3c0-0.8,0.2-1.5,0.7-1.9s1.2-0.7,2.1-0.7c0.4,0,0.7,0,1.1,0.1H361z M355.1,28.4
		c0,0.4,0.2,0.7,0.5,0.9s0.8,0.3,1.5,0.3c1,0,1.7-0.1,2.1-0.4c0.5-0.3,0.7-0.7,0.7-1.2c0-0.4-0.1-0.7-0.4-0.8s-0.7-0.2-1.4-0.2h-1.4
		c-0.5,0-0.9,0.1-1.2,0.4S355.1,27.9,355.1,28.4z M355.7,22c0,0.5,0.1,0.9,0.4,1.2s0.7,0.4,1.2,0.4c1.1,0,1.7-0.5,1.7-1.6
		c0-1.1-0.6-1.7-1.7-1.7c-0.5,0-0.9,0.1-1.2,0.4S355.7,21.5,355.7,22z"/>
	<path class="st6" d="M369,23.4c0,1.2-0.3,2.2-0.9,2.9s-1.5,1-2.5,1c-0.7,0-1.3-0.2-1.8-0.5s-0.9-0.8-1.2-1.4s-0.4-1.3-0.4-2.1
		c0-1.2,0.3-2.2,0.9-2.9s1.5-1,2.5-1c1,0,1.9,0.3,2.5,1C368.7,21.2,369,22.2,369,23.4z M363.3,23.4c0,1,0.2,1.7,0.6,2.2
		s0.9,0.8,1.7,0.8s1.3-0.2,1.7-0.7c0.4-0.5,0.6-1.2,0.6-2.2c0-1-0.2-1.7-0.6-2.2c-0.4-0.5-1-0.7-1.7-0.7c-0.7,0-1.3,0.2-1.7,0.7
		S363.3,22.4,363.3,23.4z"/>
	<path class="st6" d="M372.7,27.1l-2.8-7.5h1.2l1.6,4.4c0.4,1,0.6,1.7,0.6,2h0.1c0-0.2,0.2-0.7,0.5-1.5c0.3-0.8,0.9-2.4,1.8-5h1.2
		l-2.8,7.5H372.7z"/>
	<path class="st6" d="M381.2,27.3c-1.1,0-2-0.3-2.6-1c-0.6-0.7-1-1.6-1-2.8c0-1.2,0.3-2.2,0.9-2.9c0.6-0.7,1.4-1.1,2.4-1.1
		c0.9,0,1.7,0.3,2.2,0.9s0.8,1.4,0.8,2.4v0.7h-5.2c0,0.9,0.2,1.5,0.7,2c0.4,0.5,1,0.7,1.8,0.7c0.8,0,1.6-0.2,2.4-0.5v1
		c-0.4,0.2-0.8,0.3-1.1,0.4C382.1,27.2,381.7,27.3,381.2,27.3z M380.9,20.5c-0.6,0-1.1,0.2-1.4,0.6c-0.4,0.4-0.6,0.9-0.6,1.6h3.9
		c0-0.7-0.2-1.3-0.5-1.6S381.5,20.5,380.9,20.5z"/>
	<path class="st6" d="M389.3,19.5c0.3,0,0.6,0,0.9,0.1l-0.2,1.1c-0.3-0.1-0.6-0.1-0.8-0.1c-0.6,0-1.1,0.2-1.6,0.7
		c-0.4,0.5-0.6,1.1-0.6,1.8v4h-1.1v-7.5h0.9L387,21h0.1c0.3-0.5,0.6-0.9,1-1.1S388.8,19.5,389.3,19.5z"/>
	<path class="st6" d="M396.7,27.1v-4.8c0-0.6-0.1-1.1-0.4-1.4s-0.7-0.5-1.3-0.5c-0.8,0-1.4,0.2-1.7,0.6s-0.5,1.1-0.5,2.1v3.9h-1.1
		v-7.5h0.9l0.2,1h0.1c0.2-0.4,0.6-0.7,1-0.9s0.9-0.3,1.4-0.3c0.9,0,1.6,0.2,2,0.7s0.7,1.1,0.7,2.1v4.9H396.7z"/>
	<path class="st6" d="M409.8,27.1v-4.9c0-0.6-0.1-1-0.4-1.3s-0.7-0.4-1.2-0.4c-0.7,0-1.2,0.2-1.6,0.6s-0.5,1-0.5,1.9v4.2H405v-4.9
		c0-0.6-0.1-1-0.4-1.3s-0.7-0.4-1.2-0.4c-0.7,0-1.2,0.2-1.6,0.6c-0.3,0.4-0.5,1.1-0.5,2.1v3.9h-1.1v-7.5h0.9l0.2,1h0.1
		c0.2-0.4,0.5-0.6,0.9-0.9c0.4-0.2,0.8-0.3,1.3-0.3c1.2,0,1.9,0.4,2.3,1.3h0.1c0.2-0.4,0.5-0.7,1-0.9s0.9-0.3,1.4-0.3
		c0.8,0,1.5,0.2,1.9,0.7c0.4,0.4,0.6,1.1,0.6,2.1v4.9H409.8z"/>
	<path class="st6" d="M416.4,27.3c-1.1,0-2-0.3-2.6-1c-0.6-0.7-1-1.6-1-2.8c0-1.2,0.3-2.2,0.9-2.9c0.6-0.7,1.4-1.1,2.4-1.1
		c0.9,0,1.7,0.3,2.2,0.9s0.8,1.4,0.8,2.4v0.7H414c0,0.9,0.2,1.5,0.7,2c0.4,0.5,1,0.7,1.8,0.7c0.8,0,1.6-0.2,2.4-0.5v1
		c-0.4,0.2-0.8,0.3-1.1,0.4C417.3,27.2,416.9,27.3,416.4,27.3z M416.1,20.5c-0.6,0-1.1,0.2-1.4,0.6c-0.4,0.4-0.6,0.9-0.6,1.6h3.9
		c0-0.7-0.2-1.3-0.5-1.6S416.7,20.5,416.1,20.5z"/>
	<path class="st6" d="M426.2,27.1v-4.8c0-0.6-0.1-1.1-0.4-1.4s-0.7-0.5-1.3-0.5c-0.8,0-1.4,0.2-1.7,0.6s-0.5,1.1-0.5,2.1v3.9h-1.1
		v-7.5h0.9l0.2,1h0.1c0.2-0.4,0.6-0.7,1-0.9s0.9-0.3,1.4-0.3c0.9,0,1.6,0.2,2,0.7s0.7,1.1,0.7,2.1v4.9H426.2z"/>
	<path class="st6" d="M432.1,26.3c0.2,0,0.4,0,0.6,0s0.3-0.1,0.4-0.1v0.9c-0.1,0.1-0.3,0.1-0.5,0.1c-0.2,0-0.5,0.1-0.6,0.1
		c-1.4,0-2.2-0.8-2.2-2.3v-4.5h-1.1V20l1.1-0.5l0.5-1.6h0.7v1.7h2.2v0.9h-2.2v4.4c0,0.5,0.1,0.8,0.3,1S431.7,26.3,432.1,26.3z"/>
	<path class="st6" d="M439.2,27.1l-0.2-1.1h-0.1c-0.4,0.5-0.7,0.8-1.1,1c-0.4,0.2-0.8,0.2-1.4,0.2c-0.7,0-1.3-0.2-1.7-0.6
		c-0.4-0.4-0.6-0.9-0.6-1.6c0-1.5,1.2-2.3,3.6-2.4l1.3,0v-0.5c0-0.6-0.1-1-0.4-1.3c-0.3-0.3-0.7-0.4-1.2-0.4c-0.6,0-1.3,0.2-2.1,0.6
		l-0.3-0.9c0.4-0.2,0.8-0.4,1.2-0.5c0.4-0.1,0.9-0.2,1.3-0.2c0.9,0,1.6,0.2,2,0.6c0.4,0.4,0.6,1,0.6,1.9v5.1H439.2z M436.7,26.3
		c0.7,0,1.3-0.2,1.7-0.6c0.4-0.4,0.6-0.9,0.6-1.6v-0.7l-1.1,0c-0.9,0-1.6,0.2-2,0.4c-0.4,0.2-0.6,0.6-0.6,1.2c0,0.4,0.1,0.7,0.4,0.9
		C435.9,26.2,436.2,26.3,436.7,26.3z"/>
	<path class="st6" d="M443.5,27.1h-1.1V16.5h1.1V27.1z"/>
	<path class="st6" d="M332.7,38.9c0,1.6-0.4,2.9-1.2,3.8c-0.8,0.9-1.9,1.4-3.4,1.4c-1.5,0-2.6-0.5-3.4-1.4c-0.8-0.9-1.2-2.2-1.2-3.8
		c0-1.6,0.4-2.9,1.2-3.8s1.9-1.3,3.4-1.3c1.4,0,2.6,0.5,3.4,1.4S332.7,37.3,332.7,38.9z M324.8,38.9c0,1.4,0.3,2.4,0.9,3.1
		c0.6,0.7,1.4,1,2.5,1c1.1,0,1.9-0.3,2.5-1s0.8-1.7,0.8-3.1c0-1.3-0.3-2.4-0.8-3.1c-0.6-0.7-1.4-1-2.5-1c-1.1,0-1.9,0.3-2.5,1
		C325.1,36.6,324.8,37.6,324.8,38.9z"/>
	<path class="st6" d="M338.2,36.3c0.3,0,0.6,0,0.9,0.1l-0.2,1.1c-0.3-0.1-0.6-0.1-0.8-0.1c-0.6,0-1.1,0.2-1.6,0.7
		c-0.4,0.5-0.6,1.1-0.6,1.8v4h-1.1v-7.5h0.9l0.1,1.4h0.1c0.3-0.5,0.6-0.9,1-1.1S337.7,36.3,338.2,36.3z"/>
	<path class="st6" d="M346.6,36.4v0.7l-1.4,0.2c0.1,0.2,0.2,0.4,0.3,0.6s0.2,0.5,0.2,0.9c0,0.7-0.3,1.3-0.8,1.8s-1.2,0.7-2.1,0.7
		c-0.2,0-0.4,0-0.6-0.1c-0.5,0.3-0.7,0.6-0.7,1c0,0.2,0.1,0.4,0.3,0.5s0.5,0.1,0.9,0.1h1.3c0.8,0,1.4,0.2,1.9,0.5
		c0.4,0.3,0.7,0.8,0.7,1.5c0,0.8-0.3,1.5-1,1.9s-1.6,0.7-2.9,0.7c-1,0-1.7-0.2-2.3-0.5c-0.5-0.4-0.8-0.9-0.8-1.5
		c0-0.5,0.1-0.9,0.4-1.2s0.7-0.6,1.2-0.7c-0.2-0.1-0.4-0.2-0.5-0.4c-0.1-0.2-0.2-0.4-0.2-0.6c0-0.3,0.1-0.5,0.2-0.7s0.4-0.4,0.7-0.6
		c-0.4-0.2-0.7-0.4-0.9-0.8c-0.2-0.4-0.4-0.8-0.4-1.3c0-0.8,0.2-1.5,0.7-1.9s1.2-0.7,2.1-0.7c0.4,0,0.7,0,1.1,0.1H346.6z
		 M340.7,45.2c0,0.4,0.2,0.7,0.5,0.9s0.8,0.3,1.5,0.3c1,0,1.7-0.1,2.1-0.4c0.5-0.3,0.7-0.7,0.7-1.2c0-0.4-0.1-0.7-0.4-0.8
		s-0.7-0.2-1.4-0.2h-1.4c-0.5,0-0.9,0.1-1.2,0.4S340.7,44.7,340.7,45.2z M341.3,38.8c0,0.5,0.1,0.9,0.4,1.2s0.7,0.4,1.2,0.4
		c1.1,0,1.7-0.5,1.7-1.6c0-1.1-0.6-1.7-1.7-1.7c-0.5,0-0.9,0.1-1.2,0.4S341.3,38.3,341.3,38.8z"/>
	<path class="st6" d="M352.8,43.9l-0.2-1.1h-0.1c-0.4,0.5-0.7,0.8-1.1,1c-0.4,0.2-0.8,0.2-1.4,0.2c-0.7,0-1.3-0.2-1.7-0.6
		c-0.4-0.4-0.6-0.9-0.6-1.6c0-1.5,1.2-2.3,3.6-2.4l1.3,0V39c0-0.6-0.1-1-0.4-1.3c-0.3-0.3-0.7-0.4-1.2-0.4c-0.6,0-1.3,0.2-2.1,0.6
		l-0.3-0.9c0.4-0.2,0.8-0.4,1.2-0.5c0.4-0.1,0.9-0.2,1.3-0.2c0.9,0,1.6,0.2,2,0.6c0.4,0.4,0.6,1,0.6,1.9v5.1H352.8z M350.2,43.1
		c0.7,0,1.3-0.2,1.7-0.6c0.4-0.4,0.6-0.9,0.6-1.6v-0.7l-1.1,0c-0.9,0-1.6,0.2-2,0.4c-0.4,0.2-0.6,0.6-0.6,1.2c0,0.4,0.1,0.7,0.4,0.9
		C349.4,43,349.8,43.1,350.2,43.1z"/>
	<path class="st6" d="M361.1,43.9v-4.8c0-0.6-0.1-1.1-0.4-1.4s-0.7-0.5-1.3-0.5c-0.8,0-1.4,0.2-1.7,0.6s-0.5,1.1-0.5,2.1v3.9H356
		v-7.5h0.9l0.2,1h0.1c0.2-0.4,0.6-0.7,1-0.9s0.9-0.3,1.4-0.3c0.9,0,1.6,0.2,2,0.7s0.7,1.1,0.7,2.1v4.9H361.1z"/>
	<path class="st6" d="M364.5,34.4c0-0.3,0.1-0.5,0.2-0.6s0.3-0.2,0.5-0.2c0.2,0,0.3,0.1,0.5,0.2s0.2,0.3,0.2,0.6s-0.1,0.4-0.2,0.6
		s-0.3,0.2-0.5,0.2c-0.2,0-0.4-0.1-0.5-0.2S364.5,34.7,364.5,34.4z M365.7,43.9h-1.1v-7.5h1.1V43.9z"/>
	<path class="st6" d="M372.9,41.9c0,0.7-0.3,1.2-0.8,1.6s-1.2,0.6-2.2,0.6c-1,0-1.8-0.2-2.3-0.5v-1.1c0.4,0.2,0.7,0.3,1.2,0.4
		c0.4,0.1,0.8,0.2,1.2,0.2c0.6,0,1-0.1,1.4-0.3s0.5-0.5,0.5-0.9c0-0.3-0.1-0.5-0.4-0.7c-0.3-0.2-0.7-0.5-1.5-0.7
		c-0.7-0.3-1.2-0.5-1.5-0.7c-0.3-0.2-0.5-0.4-0.7-0.7c-0.1-0.2-0.2-0.5-0.2-0.9c0-0.6,0.2-1.1,0.7-1.4s1.2-0.5,2-0.5
		c0.8,0,1.6,0.2,2.4,0.5l-0.4,0.9c-0.8-0.3-1.4-0.5-2-0.5c-0.5,0-0.9,0.1-1.2,0.3s-0.4,0.4-0.4,0.7c0,0.2,0.1,0.4,0.2,0.5
		c0.1,0.1,0.3,0.3,0.5,0.4s0.7,0.3,1.3,0.6c0.9,0.3,1.5,0.6,1.8,1C372.8,41,372.9,41.4,372.9,41.9z"/>
	<path class="st6" d="M379.4,43.9l-0.2-1.1h-0.1c-0.4,0.5-0.7,0.8-1.1,1c-0.4,0.2-0.8,0.2-1.4,0.2c-0.7,0-1.3-0.2-1.7-0.6
		c-0.4-0.4-0.6-0.9-0.6-1.6c0-1.5,1.2-2.3,3.6-2.4l1.3,0V39c0-0.6-0.1-1-0.4-1.3c-0.3-0.3-0.7-0.4-1.2-0.4c-0.6,0-1.3,0.2-2.1,0.6
		l-0.3-0.9c0.4-0.2,0.8-0.4,1.2-0.5c0.4-0.1,0.9-0.2,1.3-0.2c0.9,0,1.6,0.2,2,0.6c0.4,0.4,0.6,1,0.6,1.9v5.1H379.4z M376.8,43.1
		c0.7,0,1.3-0.2,1.7-0.6c0.4-0.4,0.6-0.9,0.6-1.6v-0.7l-1.1,0c-0.9,0-1.6,0.2-2,0.4c-0.4,0.2-0.6,0.6-0.6,1.2c0,0.4,0.1,0.7,0.4,0.9
		C376,43,376.4,43.1,376.8,43.1z"/>
	<path class="st6" d="M385,43.1c0.2,0,0.4,0,0.6,0s0.3-0.1,0.4-0.1v0.9c-0.1,0.1-0.3,0.1-0.5,0.1c-0.2,0-0.5,0.1-0.6,0.1
		c-1.4,0-2.2-0.8-2.2-2.3v-4.5h-1.1v-0.5l1.1-0.5l0.5-1.6h0.7v1.7h2.2v0.9h-2.2v4.4c0,0.5,0.1,0.8,0.3,1S384.6,43.1,385,43.1z"/>
	<path class="st6" d="M387.4,34.4c0-0.3,0.1-0.5,0.2-0.6s0.3-0.2,0.5-0.2c0.2,0,0.3,0.1,0.5,0.2s0.2,0.3,0.2,0.6s-0.1,0.4-0.2,0.6
		s-0.3,0.2-0.5,0.2c-0.2,0-0.4-0.1-0.5-0.2S387.4,34.7,387.4,34.4z M388.6,43.9h-1.1v-7.5h1.1V43.9z"/>
	<path class="st6" d="M397.5,40.2c0,1.2-0.3,2.2-0.9,2.9s-1.5,1-2.5,1c-0.7,0-1.3-0.2-1.8-0.5s-0.9-0.8-1.2-1.4s-0.4-1.3-0.4-2.1
		c0-1.2,0.3-2.2,0.9-2.9s1.5-1,2.5-1c1,0,1.9,0.3,2.5,1C397.2,38,397.5,39,397.5,40.2z M391.8,40.2c0,1,0.2,1.7,0.6,2.2
		s0.9,0.8,1.7,0.8s1.3-0.2,1.7-0.7c0.4-0.5,0.6-1.2,0.6-2.2c0-1-0.2-1.7-0.6-2.2c-0.4-0.5-1-0.7-1.7-0.7c-0.7,0-1.3,0.2-1.7,0.7
		S391.8,39.2,391.8,40.2z"/>
	<path class="st6" d="M404.6,43.9v-4.8c0-0.6-0.1-1.1-0.4-1.4s-0.7-0.5-1.3-0.5c-0.8,0-1.4,0.2-1.7,0.6s-0.5,1.1-0.5,2.1v3.9h-1.1
		v-7.5h0.9l0.2,1h0.1c0.2-0.4,0.6-0.7,1-0.9s0.9-0.3,1.4-0.3c0.9,0,1.6,0.2,2,0.7s0.7,1.1,0.7,2.1v4.9H404.6z"/>
	<path class="st6" d="M412.9,41.9c0,0.7-0.3,1.2-0.8,1.6s-1.2,0.6-2.2,0.6c-1,0-1.8-0.2-2.3-0.5v-1.1c0.4,0.2,0.7,0.3,1.2,0.4
		c0.4,0.1,0.8,0.2,1.2,0.2c0.6,0,1-0.1,1.4-0.3s0.5-0.5,0.5-0.9c0-0.3-0.1-0.5-0.4-0.7c-0.3-0.2-0.7-0.5-1.5-0.7
		c-0.7-0.3-1.2-0.5-1.5-0.7c-0.3-0.2-0.5-0.4-0.7-0.7c-0.1-0.2-0.2-0.5-0.2-0.9c0-0.6,0.2-1.1,0.7-1.4s1.2-0.5,2-0.5
		c0.8,0,1.6,0.2,2.4,0.5l-0.4,0.9c-0.8-0.3-1.4-0.5-2-0.5c-0.5,0-0.9,0.1-1.2,0.3s-0.4,0.4-0.4,0.7c0,0.2,0.1,0.4,0.2,0.5
		c0.1,0.1,0.3,0.3,0.5,0.4s0.7,0.3,1.3,0.6c0.9,0.3,1.5,0.6,1.8,1C412.8,41,412.9,41.4,412.9,41.9z"/>
</g>
<g>
	<path class="st6" d="M63.9,67.2h-1.2v-10h5.6v1h-4.4v3.7h4.1v1h-4.1V67.2z"/>
	<path class="st6" d="M76.3,63.4c0,1.2-0.3,2.2-0.9,2.9s-1.5,1-2.5,1c-0.7,0-1.3-0.2-1.8-0.5s-0.9-0.8-1.2-1.4s-0.4-1.3-0.4-2.1
		c0-1.2,0.3-2.2,0.9-2.9s1.5-1,2.5-1c1,0,1.9,0.3,2.5,1S76.3,62.2,76.3,63.4z M70.6,63.4c0,1,0.2,1.7,0.6,2.2s0.9,0.8,1.7,0.8
		s1.3-0.2,1.7-0.7s0.6-1.2,0.6-2.2c0-1-0.2-1.7-0.6-2.2s-1-0.7-1.7-0.7c-0.7,0-1.3,0.2-1.7,0.7S70.6,62.5,70.6,63.4z"/>
	<path class="st6" d="M79.3,59.7v4.9c0,0.6,0.1,1.1,0.4,1.4s0.7,0.5,1.3,0.5c0.8,0,1.4-0.2,1.7-0.6s0.5-1.1,0.5-2.1v-3.9h1.1v7.5
		h-0.9l-0.2-1h-0.1c-0.2,0.4-0.6,0.7-1,0.8s-0.9,0.3-1.4,0.3c-0.9,0-1.6-0.2-2-0.6s-0.7-1.1-0.7-2.1v-4.9H79.3z"/>
	<path class="st6" d="M92,67.2v-4.8c0-0.6-0.1-1.1-0.4-1.4s-0.7-0.5-1.3-0.5c-0.8,0-1.4,0.2-1.7,0.6S88,62.3,88,63.3v3.9h-1.1v-7.5
		h0.9l0.2,1H88c0.2-0.4,0.6-0.7,1-0.9s0.9-0.3,1.4-0.3c0.9,0,1.6,0.2,2,0.7s0.7,1.1,0.7,2.1v4.9H92z"/>
	<path class="st6" d="M100.6,66.2L100.6,66.2c-0.6,0.8-1.4,1.1-2.4,1.1c-1,0-1.7-0.3-2.3-1c-0.5-0.7-0.8-1.6-0.8-2.9
		s0.3-2.2,0.8-2.9s1.3-1,2.3-1c1,0,1.8,0.4,2.3,1.1h0.1l0-0.5l0-0.5v-3h1.1v10.6h-0.9L100.6,66.2z M98.3,66.4c0.8,0,1.3-0.2,1.7-0.6
		c0.3-0.4,0.5-1.1,0.5-2v-0.2c0-1.1-0.2-1.8-0.5-2.3c-0.4-0.5-0.9-0.7-1.7-0.7c-0.7,0-1.2,0.3-1.5,0.8c-0.4,0.5-0.5,1.2-0.5,2.2
		c0,1,0.2,1.7,0.5,2.2S97.6,66.4,98.3,66.4z"/>
	<path class="st6" d="M108.7,67.2l-0.2-1.1h-0.1c-0.4,0.5-0.7,0.8-1.1,1c-0.4,0.2-0.8,0.2-1.4,0.2c-0.7,0-1.3-0.2-1.7-0.6
		c-0.4-0.4-0.6-0.9-0.6-1.6c0-1.5,1.2-2.3,3.6-2.4l1.3,0v-0.5c0-0.6-0.1-1-0.4-1.3c-0.3-0.3-0.7-0.4-1.2-0.4c-0.6,0-1.3,0.2-2.1,0.6
		l-0.3-0.9c0.4-0.2,0.8-0.4,1.2-0.5c0.4-0.1,0.9-0.2,1.3-0.2c0.9,0,1.6,0.2,2,0.6c0.4,0.4,0.6,1,0.6,1.9v5.1H108.7z M106.1,66.4
		c0.7,0,1.3-0.2,1.7-0.6c0.4-0.4,0.6-0.9,0.6-1.6v-0.7l-1.1,0c-0.9,0-1.6,0.2-2,0.4c-0.4,0.2-0.6,0.6-0.6,1.2c0,0.4,0.1,0.7,0.4,0.9
		C105.3,66.3,105.6,66.4,106.1,66.4z"/>
	<path class="st6" d="M114.2,66.4c0.2,0,0.4,0,0.6,0s0.3-0.1,0.4-0.1v0.9c-0.1,0.1-0.3,0.1-0.5,0.1c-0.2,0-0.5,0.1-0.6,0.1
		c-1.4,0-2.2-0.8-2.2-2.3v-4.5h-1.1V60l1.1-0.5l0.5-1.6h0.7v1.7h2.2v0.9H113V65c0,0.5,0.1,0.8,0.3,1S113.9,66.4,114.2,66.4z"/>
	<path class="st6" d="M116.7,57.7c0-0.3,0.1-0.5,0.2-0.6s0.3-0.2,0.5-0.2c0.2,0,0.3,0.1,0.5,0.2s0.2,0.3,0.2,0.6s-0.1,0.4-0.2,0.6
		s-0.3,0.2-0.5,0.2c-0.2,0-0.4-0.1-0.5-0.2S116.7,57.9,116.7,57.7z M117.9,67.2h-1.1v-7.5h1.1V67.2z"/>
	<path class="st6" d="M126.8,63.4c0,1.2-0.3,2.2-0.9,2.9s-1.5,1-2.5,1c-0.7,0-1.3-0.2-1.8-0.5s-0.9-0.8-1.2-1.4s-0.4-1.3-0.4-2.1
		c0-1.2,0.3-2.2,0.9-2.9s1.5-1,2.5-1c1,0,1.9,0.3,2.5,1C126.5,61.3,126.8,62.2,126.8,63.4z M121.1,63.4c0,1,0.2,1.7,0.6,2.2
		s0.9,0.8,1.7,0.8s1.3-0.2,1.7-0.7c0.4-0.5,0.6-1.2,0.6-2.2c0-1-0.2-1.7-0.6-2.2c-0.4-0.5-1-0.7-1.7-0.7c-0.7,0-1.3,0.2-1.7,0.7
		S121.1,62.5,121.1,63.4z"/>
	<path class="st6" d="M133.9,67.2v-4.8c0-0.6-0.1-1.1-0.4-1.4s-0.7-0.5-1.3-0.5c-0.8,0-1.4,0.2-1.7,0.6s-0.5,1.1-0.5,2.1v3.9h-1.1
		v-7.5h0.9l0.2,1h0.1c0.2-0.4,0.6-0.7,1-0.9s0.9-0.3,1.4-0.3c0.9,0,1.6,0.2,2,0.7s0.7,1.1,0.7,2.1v4.9H133.9z"/>
	<path class="st6" d="M142.2,65.1c0,0.7-0.3,1.2-0.8,1.6s-1.2,0.6-2.2,0.6c-1,0-1.8-0.2-2.3-0.5v-1.1c0.4,0.2,0.7,0.3,1.2,0.4
		c0.4,0.1,0.8,0.2,1.2,0.2c0.6,0,1-0.1,1.4-0.3s0.5-0.5,0.5-0.9c0-0.3-0.1-0.5-0.4-0.7c-0.3-0.2-0.7-0.5-1.5-0.7
		c-0.7-0.3-1.2-0.5-1.5-0.7c-0.3-0.2-0.5-0.4-0.7-0.7c-0.1-0.2-0.2-0.5-0.2-0.9c0-0.6,0.2-1.1,0.7-1.4s1.2-0.5,2-0.5
		c0.8,0,1.6,0.2,2.4,0.5l-0.4,0.9c-0.8-0.3-1.4-0.5-2-0.5c-0.5,0-0.9,0.1-1.2,0.3s-0.4,0.4-0.4,0.7c0,0.2,0.1,0.4,0.2,0.5
		c0.1,0.1,0.3,0.3,0.5,0.4s0.7,0.3,1.3,0.6c0.9,0.3,1.5,0.6,1.8,1C142,64.2,142.2,64.6,142.2,65.1z"/>
	<path class="st6" d="M147.2,64.6c0-0.6,0.2-1.1,0.5-1.6c0.3-0.5,0.9-0.9,1.7-1.4c-0.4-0.4-0.7-0.8-0.8-1c-0.1-0.2-0.2-0.5-0.3-0.7
		s-0.1-0.5-0.1-0.8c0-0.7,0.2-1.2,0.7-1.6s1.1-0.6,1.9-0.6c0.7,0,1.3,0.2,1.7,0.6s0.6,0.9,0.6,1.6c0,0.5-0.2,0.9-0.5,1.4
		s-0.8,0.8-1.5,1.3l2.8,2.7c0.3-0.3,0.5-0.6,0.6-1c0.2-0.4,0.3-0.8,0.4-1.2h1.1c-0.3,1.3-0.8,2.3-1.4,3l2,2h-1.6l-1.3-1.2
		c-0.5,0.5-1.1,0.8-1.6,1s-1.2,0.3-1.9,0.3c-1,0-1.7-0.2-2.3-0.7C147.5,66.1,147.2,65.5,147.2,64.6z M150.4,66.3
		c1.1,0,2-0.4,2.7-1.1l-3-2.9c-0.5,0.3-0.9,0.6-1.1,0.8s-0.4,0.4-0.5,0.7s-0.2,0.5-0.2,0.8c0,0.5,0.2,1,0.5,1.3
		C149.3,66.2,149.8,66.3,150.4,66.3z M149.3,59.2c0,0.3,0.1,0.6,0.2,0.9s0.4,0.6,0.8,1c0.6-0.3,1-0.7,1.2-0.9c0.2-0.3,0.3-0.6,0.3-1
		c0-0.4-0.1-0.6-0.4-0.9c-0.2-0.2-0.5-0.3-0.9-0.3c-0.4,0-0.7,0.1-1,0.3C149.4,58.5,149.3,58.8,149.3,59.2z"/>
	<path class="st6" d="M77.2,80.2c0,1.2-0.3,2.2-0.9,2.9s-1.5,1-2.5,1c-0.7,0-1.3-0.2-1.8-0.5s-0.9-0.8-1.2-1.4s-0.4-1.3-0.4-2.1
		c0-1.2,0.3-2.2,0.9-2.9s1.5-1,2.5-1c1,0,1.9,0.3,2.5,1S77.2,79,77.2,80.2z M71.5,80.2c0,1,0.2,1.7,0.6,2.2s0.9,0.8,1.7,0.8
		s1.3-0.2,1.7-0.7s0.6-1.2,0.6-2.2c0-1-0.2-1.7-0.6-2.2s-1-0.7-1.7-0.7c-0.7,0-1.3,0.2-1.7,0.7S71.5,79.3,71.5,80.2z"/>
	<path class="st6" d="M81.6,83.2c0.2,0,0.4,0,0.6,0s0.3-0.1,0.4-0.1v0.9c-0.1,0.1-0.3,0.1-0.5,0.1s-0.5,0.1-0.6,0.1
		c-1.4,0-2.2-0.8-2.2-2.3v-4.5h-1.1v-0.5l1.1-0.5l0.5-1.6h0.7v1.7h2.2v0.9h-2.2v4.4c0,0.5,0.1,0.8,0.3,1S81.3,83.2,81.6,83.2z"/>
	<path class="st6" d="M89.3,84v-4.8c0-0.6-0.1-1.1-0.4-1.4s-0.7-0.5-1.3-0.5c-0.8,0-1.4,0.2-1.7,0.6s-0.5,1.1-0.5,2.1V84h-1.1V73.4
		h1.1v3.2c0,0.4,0,0.7-0.1,1h0.1c0.2-0.4,0.5-0.6,1-0.9s0.9-0.3,1.4-0.3c0.9,0,1.6,0.2,2.1,0.7s0.7,1.1,0.7,2.1V84H89.3z"/>
	<path class="st6" d="M95.9,84.1c-1.1,0-2-0.3-2.6-1s-1-1.6-1-2.8c0-1.2,0.3-2.2,0.9-2.9s1.4-1.1,2.4-1.1c0.9,0,1.7,0.3,2.2,0.9
		s0.8,1.4,0.8,2.4v0.7h-5.2c0,0.9,0.2,1.5,0.7,2c0.4,0.5,1,0.7,1.8,0.7c0.8,0,1.6-0.2,2.4-0.5v1c-0.4,0.2-0.8,0.3-1.1,0.4
		C96.8,84.1,96.4,84.1,95.9,84.1z M95.6,77.3c-0.6,0-1.1,0.2-1.4,0.6c-0.4,0.4-0.6,0.9-0.6,1.6h3.9c0-0.7-0.2-1.3-0.5-1.6
		S96.2,77.3,95.6,77.3z"/>
	<path class="st6" d="M104,76.4c0.3,0,0.6,0,0.9,0.1l-0.2,1.1c-0.3-0.1-0.6-0.1-0.8-0.1c-0.6,0-1.1,0.2-1.6,0.7
		c-0.4,0.5-0.6,1.1-0.6,1.8v4h-1.1v-7.5h0.9l0.1,1.4h0.1c0.3-0.5,0.6-0.9,1-1.1S103.5,76.4,104,76.4z"/>
	<path class="st6" d="M113.1,84.1c-1.1,0-2-0.3-2.6-1c-0.6-0.7-1-1.6-1-2.8c0-1.2,0.3-2.2,0.9-2.9c0.6-0.7,1.4-1.1,2.4-1.1
		c0.9,0,1.7,0.3,2.2,0.9s0.8,1.4,0.8,2.4v0.7h-5.2c0,0.9,0.2,1.5,0.7,2c0.4,0.5,1,0.7,1.8,0.7c0.8,0,1.6-0.2,2.4-0.5v1
		c-0.4,0.2-0.8,0.3-1.1,0.4C114.1,84.1,113.6,84.1,113.1,84.1z M112.8,77.3c-0.6,0-1.1,0.2-1.4,0.6c-0.4,0.4-0.6,0.9-0.6,1.6h3.9
		c0-0.7-0.2-1.3-0.5-1.6S113.4,77.3,112.8,77.3z"/>
	<path class="st6" d="M122.9,84v-4.8c0-0.6-0.1-1.1-0.4-1.4s-0.7-0.5-1.3-0.5c-0.8,0-1.4,0.2-1.7,0.6s-0.5,1.1-0.5,2.1V84h-1.1v-7.5
		h0.9l0.2,1h0.1c0.2-0.4,0.6-0.7,1-0.9s0.9-0.3,1.4-0.3c0.9,0,1.6,0.2,2,0.7s0.7,1.1,0.7,2.1V84H122.9z"/>
	<path class="st6" d="M128.8,83.2c0.2,0,0.4,0,0.6,0s0.3-0.1,0.4-0.1v0.9c-0.1,0.1-0.3,0.1-0.5,0.1c-0.2,0-0.5,0.1-0.6,0.1
		c-1.4,0-2.2-0.8-2.2-2.3v-4.5h-1.1v-0.5l1.1-0.5l0.5-1.6h0.7v1.7h2.2v0.9h-2.2v4.4c0,0.5,0.1,0.8,0.3,1S128.4,83.2,128.8,83.2z"/>
	<path class="st6" d="M131.2,74.5c0-0.3,0.1-0.5,0.2-0.6s0.3-0.2,0.5-0.2c0.2,0,0.3,0.1,0.5,0.2s0.2,0.3,0.2,0.6s-0.1,0.4-0.2,0.6
		s-0.3,0.2-0.5,0.2c-0.2,0-0.4-0.1-0.5-0.2S131.2,74.7,131.2,74.5z M132.5,84h-1.1v-7.5h1.1V84z"/>
	<path class="st6" d="M137.3,83.2c0.2,0,0.4,0,0.6,0s0.3-0.1,0.4-0.1v0.9c-0.1,0.1-0.3,0.1-0.5,0.1c-0.2,0-0.5,0.1-0.6,0.1
		c-1.4,0-2.2-0.8-2.2-2.3v-4.5h-1.1v-0.5l1.1-0.5l0.5-1.6h0.7v1.7h2.2v0.9h-2.2v4.4c0,0.5,0.1,0.8,0.3,1S136.9,83.2,137.3,83.2z"/>
	<path class="st6" d="M139.7,74.5c0-0.3,0.1-0.5,0.2-0.6s0.3-0.2,0.5-0.2c0.2,0,0.3,0.1,0.5,0.2s0.2,0.3,0.2,0.6s-0.1,0.4-0.2,0.6
		s-0.3,0.2-0.5,0.2c-0.2,0-0.4-0.1-0.5-0.2S139.7,74.7,139.7,74.5z M141,84h-1.1v-7.5h1.1V84z"/>
	<path class="st6" d="M146.5,84.1c-1.1,0-2-0.3-2.6-1c-0.6-0.7-1-1.6-1-2.8c0-1.2,0.3-2.2,0.9-2.9c0.6-0.7,1.4-1.1,2.4-1.1
		c0.9,0,1.7,0.3,2.2,0.9s0.8,1.4,0.8,2.4v0.7h-5.2c0,0.9,0.2,1.5,0.7,2c0.4,0.5,1,0.7,1.8,0.7c0.8,0,1.6-0.2,2.4-0.5v1
		c-0.4,0.2-0.8,0.3-1.1,0.4C147.5,84.1,147,84.1,146.5,84.1z M146.2,77.3c-0.6,0-1.1,0.2-1.4,0.6c-0.4,0.4-0.6,0.9-0.6,1.6h3.9
		c0-0.7-0.2-1.3-0.5-1.6S146.8,77.3,146.2,77.3z"/>
	<path class="st6" d="M156.1,81.9c0,0.7-0.3,1.2-0.8,1.6s-1.2,0.6-2.2,0.6c-1,0-1.8-0.2-2.3-0.5v-1.1c0.4,0.2,0.7,0.3,1.2,0.4
		c0.4,0.1,0.8,0.2,1.2,0.2c0.6,0,1-0.1,1.4-0.3s0.5-0.5,0.5-0.9c0-0.3-0.1-0.5-0.4-0.7c-0.3-0.2-0.7-0.5-1.5-0.7
		c-0.7-0.3-1.2-0.5-1.5-0.7c-0.3-0.2-0.5-0.4-0.7-0.7c-0.1-0.2-0.2-0.5-0.2-0.9c0-0.6,0.2-1.1,0.7-1.4s1.2-0.5,2-0.5
		c0.8,0,1.6,0.2,2.4,0.5l-0.4,0.9c-0.8-0.3-1.4-0.5-2-0.5c-0.5,0-0.9,0.1-1.2,0.3s-0.4,0.4-0.4,0.7c0,0.2,0.1,0.4,0.2,0.5
		c0.1,0.1,0.3,0.3,0.5,0.4s0.7,0.3,1.3,0.6c0.9,0.3,1.5,0.6,1.8,1C155.9,81,156.1,81.4,156.1,81.9z"/>
</g>
<g>
	<circle class="st0" cx="462.3" cy="189.6" r="10"/>
	<rect x="434.7" y="187.7" class="st6" width="17.6" height="3.7"/>
</g>
<g>
	
		<ellipse transform="matrix(0.7071 -0.7071 0.7071 0.7071 -182.9405 241.5972)" class="st1" cx="200.2" cy="341.6" rx="10" ry="10"/>
	
		<rect x="204.6" y="326.5" transform="matrix(-0.7071 0.7071 -0.7071 -0.7071 596.5392 409.6158)" class="st6" width="17.6" height="3.7"/>
</g>
<g>
	<circle class="st2" cx="120" cy="173.6" r="10"/>
	
		<rect x="130" y="171.7" transform="matrix(-1 -1.224647e-16 1.224647e-16 -1 277.5466 347.1147)" class="st6" width="17.6" height="3.7"/>
</g>
<g>
	<ellipse transform="matrix(0.7071 -0.7071 0.7071 0.7071 1.0125 142.1566)" class="st3" cx="172.1" cy="69.9" rx="10" ry="10"/>
	
		<rect x="176.6" y="81.3" transform="matrix(-0.7071 -0.7071 0.7071 -0.7071 257.6769 272.9896)" class="st6" width="17.6" height="3.7"/>
</g>
<g>
	<circle class="st4" cx="250" cy="29.9" r="10"/>
	
		<rect x="241.1" y="46.8" transform="matrix(6.123234e-17 -1 1 6.123234e-17 201.2553 298.6784)" class="st6" width="17.6" height="3.7"/>
</g>
<g>
	<circle class="st5" cx="281.7" cy="24.3" r="10"/>
	
		<rect x="272.9" y="41.2" transform="matrix(6.123234e-17 -1 1 6.123234e-17 238.6584 324.8264)" class="st6" width="17.6" height="3.7"/>
</g>
</svg>
