<svg xmlns="http://www.w3.org/2000/svg" width="46.66" height="56" viewBox="0 0 46.66 56">
  <title>people</title>
  <g id="Layer_2" data-name="Layer 2">
    <g id="Layer_4" data-name="Layer 4">
      <g id="Layer_2-2" data-name="Layer 2">
        <g>
          <g>
            <polygon points="8.05 11.33 16.88 11.33 24.96 31.21 23.36 32.3 16.61 19.81 15.99 20.45 23.08 39.44 16.13 39.44 13.89 56 11.08 56 8.84 39.44 1.9 39.44 9.08 20.83 8.35 19.81 1.63 32.3 0 31.21 8.05 11.33" style="fill: #b7b7b7"/>
            <path d="M17.31,5a5,5,0,1,1-5-5A5.05,5.05,0,0,1,17.31,5Z" style="fill: #b7b7b7"/>
          </g>
          <g>
            <path d="M42,5a5,5,0,1,1-5-5A5,5,0,0,1,42,5Z" style="fill: #b7b7b7"/>
            <polygon points="29.71 11.33 43.55 11.33 46.66 13.17 46.66 36.5 43.97 36.5 43.97 20.24 41.81 20.24 41.81 56 38.34 56 37.31 42.35 36.15 42.35 35.22 56 31.55 56 31.55 20.24 29.4 20.24 29.38 36.5 26.73 36.5 26.73 13.64 29.71 11.33" style="fill: #b7b7b7"/>
          </g>
        </g>
      </g>
    </g>
  </g>
</svg>
