<?xml version="1.0" encoding="utf-8"?>
<!-- Generator: Adobe Illustrator 20.1.0, SVG Export Plug-In . SVG Version: 6.00 Build 0)  -->
<svg version="1.1" id="Layer_1" xmlns="http://www.w3.org/2000/svg" xmlns:xlink="http://www.w3.org/1999/xlink" x="0px" y="0px"
	 viewBox="0 0 34.1 34.3" style="enable-background:new 0 0 34.1 34.3;" xml:space="preserve">
<style type="text/css">
	.st0{fill:#C03A2B;}
</style>
<title>storage</title>
<g>
	<path class="st0" d="M30.5,8.9l-3.7,3.7l3.7,16.1c0.1,0.3,0,0.6-0.3,0.8l-3,2.2c-0.1,0.1-0.3,0.1-0.4,0.1c0,0-0.1,0-0.2,0
		c-0.2,0-0.4-0.2-0.5-0.4l-6.5-11.8l-6,6l1.2,4.5c0.1,0.3,0,0.5-0.2,0.7l-2.2,2.2c-0.1,0.1-0.3,0.2-0.5,0.2c0,0,0,0,0,0
		c-0.2,0-0.4-0.1-0.6-0.3l-4.4-5.8l-5.8-4.4c-0.2-0.1-0.3-0.3-0.3-0.5c0-0.2,0.1-0.4,0.2-0.6l2.2-2.3c0.1-0.1,0.3-0.2,0.5-0.2
		c0.1,0,0.1,0,0.2,0l4.5,1.2l6-6L2.7,8.1C2.5,7.9,2.3,7.7,2.3,7.5c0-0.2,0-0.5,0.2-0.6l3-3c0.2-0.2,0.5-0.3,0.7-0.2l15.4,3.7
		l3.7-3.7c2.2-2.2,5.9-3.7,7.4-2.2C34.2,3,32.7,6.7,30.5,8.9z"/>
</g>
</svg>
