<?xml version="1.0" encoding="utf-8"?>
<!-- Generator: Adobe Illustrator 20.1.0, SVG Export Plug-In . SVG Version: 6.00 Build 0)  -->
<svg version="1.1" id="Layer_1" xmlns="http://www.w3.org/2000/svg" xmlns:xlink="http://www.w3.org/1999/xlink" x="0px" y="0px"
	 viewBox="0 0 34.1 34.3" style="enable-background:new 0 0 34.1 34.3;" xml:space="preserve">
<style type="text/css">
	.st0{fill:#C03A2B;}
</style>
<title>storage</title>
<g>
	<g>
		<polygon class="st0" points="10.8,13.3 10.8,8.4 13.4,8.4 13.4,6.1 20.9,6.1 20.9,8.5 23.2,8.5 23.2,13.3 25,13.3 25,6.9 
			22.7,6.9 22.7,4.6 19,4.6 19,1.6 15,1.6 15,4.2 11.4,4.2 11.4,6.7 9.1,6.7 9.1,13.3 		"/>
		<path class="st0" d="M9.1,17.2L9.1,17.2L9.1,24c5.3,0.3,10.7-2.6,16-1.7v-5H25l1.5-3c0.3-0.5,0.1-1.2-0.5-1.4l-8.3-4.2
			c-0.2-0.1-0.4-0.2-0.5-0.2c0,0-0.1,0-0.1,0c0,0-0.1,0-0.1,0c-0.2,0-0.4,0.1-0.5,0.2l-8.3,4.2c-0.5,0.3-0.7,0.9-0.5,1.4L9.1,17.2z"
			/>
	</g>
	<g>
		<path class="st0" d="M28.3,27.2c-7.5-3.3-15.1,3.3-22.6,0c0-0.9,0-1.8,0-2.7c7.5,3.3,15.1-3.3,22.6,0
			C28.3,25.4,28.3,26.3,28.3,27.2z"/>
		<path class="st0" d="M28.4,31.7c-7.5-3.3-15.1,3.3-22.6,0c0-0.9,0-1.8,0-2.7c7.5,3.3,15.1-3.3,22.6,0
			C28.4,29.9,28.4,30.8,28.4,31.7z"/>
	</g>
</g>
</svg>
