<svg xmlns="http://www.w3.org/2000/svg" width="34.11" height="34.27" viewBox="0 0 34.11 34.27">
  <title>storage</title>
  <g id="Layer_2" data-name="Layer 2">
    <g id="Layer_1-2" data-name="Layer 1">
      <path d="M34.11,11v23.3H29.24V12.53L17.06,5.41,4.87,12.53V34.27H0V11A2.37,2.37,0,0,1,1.22,8.87L15.8.34a2.42,2.42,0,0,1,2.48,0L32.9,8.87A2.37,2.37,0,0,1,34.11,11Zm-8.95,4.72A14.5,14.5,0,0,1,25.59,19a14.53,14.53,0,0,1-.42,3.35A1.27,1.27,0,0,1,24,23.3H10.13a1.22,1.22,0,0,1-1.18-.92A12.7,12.7,0,0,1,8.53,19a14.1,14.1,0,0,1,.42-3.35,1.22,1.22,0,0,1,1.18-.92H24A1.26,1.26,0,0,1,25.17,15.69Zm0,11a13.57,13.57,0,0,1,0,6.7,1.26,1.26,0,0,1-1.22.91H10.13a1.22,1.22,0,0,1-1.18-.91,13.57,13.57,0,0,1,0-6.7,1.22,1.22,0,0,1,1.18-.91H24A1.27,1.27,0,0,1,25.17,26.65Z" style="fill: #c03a2b"/>
    </g>
  </g>
</svg>
