<?xml version="1.0" encoding="utf-8"?>
<!-- Generator: Adobe Illustrator 22.0.1, SVG Export Plug-In . SVG Version: 6.00 Build 0)  -->
<svg version="1.1" id="Layer_1" xmlns="http://www.w3.org/2000/svg" xmlns:xlink="http://www.w3.org/1999/xlink" x="0px" y="0px"
	 width="41px" height="43.9px" viewBox="0 0 41 43.9" style="enable-background:new 0 0 41 43.9;" xml:space="preserve">
<g>
	<path style="fill:#C03A2B;" d="M0.6,13.3c0-3,2.5-5.5,5.5-5.5c3,0,5.5,2.5,5.5,5.5c0,3-2.5,5.5-5.5,5.5C3.1,18.8,0.6,16.3,0.6,13.3
		z M25.1,18.4c-0.9-0.5-2-0.3-2.6,0.6l-3.7,6l-5.2-2.9c-2.3-1.4-3.5-2.1-6.9-2.1H6.2H5.6c-6.7,0.8-5.6,6.2-5.6,6.2l0.8,16.6
		l11.8-0.1l-0.5-16.5l6.3,3c0.3,0.2,0.6,0.2,0.9,0.2c0.6,0,1.2-0.3,1.6-0.9l4.6-7.6C26.2,20.1,25.9,19,25.1,18.4z M10.1,17.9
		c-0.4,0.4-0.9,0.7-1.3,0.9v0.9c0.5,0.1,0.9,0.1,1.3,0.2V17.9z M41,1H8.8v6.8C9.3,8,9.7,8.3,10.1,8.7V2.3h29.5v20.2H25.4l-0.8,1.3
		H41V1z M18.9,23.9l0.8-1.3h-4.3l2.4,1.3H18.9z M30.3,10.3l-0.6-0.4l-4.5,7.9l0.7,0.4L30.3,10.3z"/>
</g>
</svg>
