<svg xmlns="http://www.w3.org/2000/svg" width="31.28" height="25.48" viewBox="0 0 31.28 25.48">
  <title>truck</title>
  <g id="Layer_2" data-name="Layer 2">
    <g id="Layer_1-2" data-name="Layer 1">
      <path d="M31.28,19.69c0,1.34-1.41,1.16-2.32,1.16a4.63,4.63,0,1,1-9.27,0h-7a4.63,4.63,0,1,1-9.27,0H2.32C1.41,20.85,0,21,0,19.69a1.17,1.17,0,0,1,1.16-1.16V12.74C1.16,11.46,1,10,2,9L5.56,5.45a3.17,3.17,0,0,1,2-.81h2.9V1.16A1.17,1.17,0,0,1,11.58,0H30.12a1.17,1.17,0,0,1,1.16,1.16ZM10.42,11.58V7H7.57a1.09,1.09,0,0,0-.4.16L3.64,10.64a1.1,1.1,0,0,0-.16.4v.54Zm-2.32,7a2.32,2.32,0,1,0,2.32,2.32A2.33,2.33,0,0,0,8.11,18.53Zm16.22,0a2.32,2.32,0,1,0,2.32,2.32A2.33,2.33,0,0,0,24.33,18.53Z" style="fill: #b3b3b3"/>
    </g>
  </g>
</svg>
