<?xml version="1.0" encoding="utf-8"?>
<!-- Generator: Adobe Illustrator 20.1.0, SVG Export Plug-In . SVG Version: 6.00 Build 0)  -->
<svg version="1.1" id="Layer_1" xmlns="http://www.w3.org/2000/svg" xmlns:xlink="http://www.w3.org/1999/xlink" x="0px" y="0px"
	 viewBox="0 0 135 135" style="enable-background:new 0 0 135 135;" xml:space="preserve">
<style type="text/css">
	.st0{fill:#FFFFFF;}
	.st1{font-family:'Lato-Black';}
	.st2{font-size:34.0159px;}
	.st3{fill:#1DA1F2;}
	.st4{opacity:0.1;fill:#1DA1F2;}
</style>
<text transform="matrix(1 0 0 1 33.576 77.1294)" class="st0 st1 st2">13%</text>
<g>
	<path class="st3" d="M67.5,0c18.6,0,36.5,7.7,49.2,21.3l-12.3,11.6c-9.6-10.2-22.9-16-36.9-16L67.5,0z"/>
	<path class="st4" d="M116.7,21.3c25.5,27.2,24.2,69.9-3,95.4s-69.9,24.2-95.4-3c-25.5-27.2-24.2-69.9,3-95.4
		C33.8,6.5,50.4,0,67.5,0l0,16.9c-28,0-50.6,22.7-50.6,50.6s22.7,50.6,50.6,50.6s50.6-22.7,50.6-50.6c0-12.9-4.9-25.3-13.7-34.7
		L116.7,21.3z"/>
</g>
</svg>
