<svg xmlns="http://www.w3.org/2000/svg" width="536.34" height="656.67" viewBox="0 0 536.34 656.67">
  <title>webpage-views</title>
  <g id="Layer_2" data-name="Layer 2">
    <g id="Layer_1-2" data-name="Layer 1">
      <g>
        <g>
          <circle cx="503" cy="446.67" r="4" style="fill: #c0392b"/>
          <circle cx="94" cy="328.67" r="4" style="fill: #c0392b"/>
          <circle cx="283" cy="654.67" r="2" style="fill: #c0392b"/>
          <circle cx="2" cy="651.67" r="2" style="fill: #c0392b"/>
          <circle cx="237" cy="12.67" r="2" style="fill: #c0392b"/>
          <circle cx="160" cy="348.67" r="2" style="fill: #fff"/>
          <g>
            <circle cx="325" cy="146.67" r="4" style="fill: #c0392b"/>
            <circle cx="346" cy="95.67" r="2" style="fill: #fff"/>
          </g>
          <circle cx="523" cy="496.67" r="2" style="fill: #fff"/>
          <circle cx="312" cy="565.67" r="2" style="fill: #fff"/>
        </g>
        <g>
          <path d="M206,164.67l101,67" style="fill: none;stroke: #fff;stroke-width: 2px"/>
          <path d="M313,388.67l-101,67" style="fill: none;stroke: #fff;stroke-width: 2px"/>
        </g>
        <g style="isolation: isolate">
          <g style="isolation: isolate">
            <path d="M116.29,12.14a1,1,0,0,1,.71.25.88.88,0,0,1,.25.66v1.62H107.19v-.9a1.67,1.67,0,0,1,.11-.56,1.45,1.45,0,0,1,.37-.55L112,8.34q.55-.55,1-1.05a7.18,7.18,0,0,0,.7-1,4.26,4.26,0,0,0,.42-1,3.87,3.87,0,0,0,.14-1,2,2,0,0,0-.5-1.47,1.9,1.9,0,0,0-1.41-.5,2.26,2.26,0,0,0-.73.11,2.14,2.14,0,0,0-.6.32,2.11,2.11,0,0,0-.46.47,1.92,1.92,0,0,0-.28.59,1.15,1.15,0,0,1-.49.67,1.37,1.37,0,0,1-.86.08l-1.46-.26a5.56,5.56,0,0,1,.6-1.86,4.41,4.41,0,0,1,1.1-1.33,4.56,4.56,0,0,1,1.51-.79A6.11,6.11,0,0,1,112.45,0a5.5,5.5,0,0,1,1.88.3,4.3,4.3,0,0,1,1.44.85,3.75,3.75,0,0,1,.93,1.31,4.28,4.28,0,0,1,.33,1.7,4.6,4.6,0,0,1-.23,1.48,5.86,5.86,0,0,1-.62,1.29,9.45,9.45,0,0,1-.92,1.19q-.52.58-1.1,1.17l-3.08,3.15a8.87,8.87,0,0,1,1-.24,5.63,5.63,0,0,1,.94-.08Z" style="fill: #fff"/>
            <path d="M129.25,7.41a11.82,11.82,0,0,1-.41,3.3A6.8,6.8,0,0,1,127.71,13,4.54,4.54,0,0,1,126,14.38a5.28,5.28,0,0,1-4.24,0A4.46,4.46,0,0,1,120.07,13,6.84,6.84,0,0,1,119,10.71a11.94,11.94,0,0,1-.4-3.3,11.89,11.89,0,0,1,.4-3.29,6.84,6.84,0,0,1,1.12-2.31A4.45,4.45,0,0,1,121.76.45a5.28,5.28,0,0,1,4.24,0,4.53,4.53,0,0,1,1.71,1.36,6.8,6.8,0,0,1,1.13,2.31A11.77,11.77,0,0,1,129.25,7.41Zm-2.85,0a12.4,12.4,0,0,0-.21-2.54,5.22,5.22,0,0,0-.56-1.58,1.95,1.95,0,0,0-1.74-1,2,2,0,0,0-.92.23,2.06,2.06,0,0,0-.79.81,5.24,5.24,0,0,0-.56,1.58,12.73,12.73,0,0,0-.21,2.54,12.79,12.79,0,0,0,.21,2.55,5.24,5.24,0,0,0,.56,1.58,2,2,0,0,0,.79.81,2,2,0,0,0,.92.23,2,2,0,0,0,1.74-1,5.22,5.22,0,0,0,.56-1.58A12.46,12.46,0,0,0,126.4,7.41Z" style="fill: #fff"/>
            <path d="M140.12,12.64v2H132v-2h2.88V4.7c0-.17,0-.35,0-.53s0-.36,0-.55L133,5.2a1,1,0,0,1-.39.19.86.86,0,0,1-.36,0,.84.84,0,0,1-.3-.12.81.81,0,0,1-.2-.18l-.87-1.17L135.34.15h2.27V12.64Z" style="fill: #fff"/>
            <path d="M152.42,9.13v1.56a.52.52,0,0,1-.55.53h-1.13v3.45h-2.4V11.22h-6a.77.77,0,0,1-.47-.16.66.66,0,0,1-.27-.42l-.29-1.38,6.8-9.11h2.62v9Zm-4.08,0V4.81q0-.34,0-.72t.08-.8l-4.2,5.85Z" style="fill: #fff"/>
          </g>
        </g>
        <g>
          <circle cx="130.46" cy="115.12" r="88" style="fill: none;stroke: #fff;stroke-width: 2px"/>
          <circle id="r14" cx="130.46" cy="115.12" r="88" style="fill: #fff;stroke: #fff;stroke-width: 2px"/>
          <circle cx="130.46" cy="115.12" r="66" style="fill: none;stroke: #c0392b;opacity: 0.5;isolation: isolate"/>
        </g>
        <g style="isolation: isolate">
          <g style="isolation: isolate">
            <path d="M391.12,157.47a1,1,0,0,1,.71.25.88.88,0,0,1,.25.66V160H382v-.9a1.68,1.68,0,0,1,.11-.56,1.44,1.44,0,0,1,.37-.55l4.3-4.31q.55-.55,1-1.05a7.14,7.14,0,0,0,.7-1,4.24,4.24,0,0,0,.42-1,3.85,3.85,0,0,0,.14-1,2,2,0,0,0-.5-1.47,1.9,1.9,0,0,0-1.41-.5,2.27,2.27,0,0,0-.74.11,2.13,2.13,0,0,0-.6.32,2.1,2.1,0,0,0-.46.47,1.92,1.92,0,0,0-.28.59,1.15,1.15,0,0,1-.49.67,1.37,1.37,0,0,1-.86.08l-1.46-.26a5.56,5.56,0,0,1,.6-1.86,4.41,4.41,0,0,1,1.1-1.33,4.56,4.56,0,0,1,1.51-.79,6.11,6.11,0,0,1,1.83-.26,5.5,5.5,0,0,1,1.88.3,4.3,4.3,0,0,1,1.44.85,3.75,3.75,0,0,1,.93,1.31,4.28,4.28,0,0,1,.33,1.7,4.6,4.6,0,0,1-.23,1.48,5.86,5.86,0,0,1-.62,1.29,9.5,9.5,0,0,1-.92,1.19q-.52.58-1.1,1.17l-3.08,3.15a8.85,8.85,0,0,1,1-.24,5.62,5.62,0,0,1,.94-.08Z" style="fill: #fff"/>
            <path d="M404.08,152.74a11.84,11.84,0,0,1-.41,3.3,6.79,6.79,0,0,1-1.13,2.32,4.53,4.53,0,0,1-1.71,1.36,5.28,5.28,0,0,1-4.24,0,4.46,4.46,0,0,1-1.69-1.36,6.85,6.85,0,0,1-1.12-2.32,13.65,13.65,0,0,1,0-6.59,6.85,6.85,0,0,1,1.12-2.31,4.45,4.45,0,0,1,1.69-1.36,5.28,5.28,0,0,1,4.24,0,4.52,4.52,0,0,1,1.71,1.36,6.79,6.79,0,0,1,1.13,2.31A11.79,11.79,0,0,1,404.08,152.74Zm-2.85,0a12.4,12.4,0,0,0-.21-2.54,5.22,5.22,0,0,0-.57-1.58,1.94,1.94,0,0,0-1.74-1,2,2,0,0,0-.92.23,2.06,2.06,0,0,0-.79.81,5.24,5.24,0,0,0-.55,1.58,15.53,15.53,0,0,0,0,5.09,5.24,5.24,0,0,0,.55,1.58,2.05,2.05,0,0,0,.79.81,2,2,0,0,0,.92.23,1.95,1.95,0,0,0,1.74-1,5.22,5.22,0,0,0,.57-1.58A12.46,12.46,0,0,0,401.23,152.74Z" style="fill: #fff"/>
            <path d="M415,158v2h-8.14v-2h2.88V150c0-.17,0-.35,0-.53s0-.36,0-.55l-1.9,1.58a1,1,0,0,1-.39.19.86.86,0,0,1-.36,0,.84.84,0,0,1-.3-.12.81.81,0,0,1-.2-.18l-.87-1.17,4.46-3.78h2.27V158Z" style="fill: #fff"/>
            <path d="M420.36,150.69a8.66,8.66,0,0,1,.87-.13q.41,0,.8,0a5.45,5.45,0,0,1,2,.35,4.22,4.22,0,0,1,1.47.94,3.9,3.9,0,0,1,.9,1.41,5,5,0,0,1,.3,1.74,5.31,5.31,0,0,1-.41,2.12,4.86,4.86,0,0,1-1.13,1.64,5.13,5.13,0,0,1-1.73,1.07,6.17,6.17,0,0,1-2.2.38,5.87,5.87,0,0,1-1.32-.15,6.33,6.33,0,0,1-1.17-.39,6.52,6.52,0,0,1-1-.57,6.72,6.72,0,0,1-.84-.67l.85-1.16a.83.83,0,0,1,.7-.37,1,1,0,0,1,.53.16l.59.36a4.68,4.68,0,0,0,.77.36,3.15,3.15,0,0,0,1.07.16,2.74,2.74,0,0,0,1.13-.21,2.19,2.19,0,0,0,.79-.59,2.48,2.48,0,0,0,.47-.89,3.81,3.81,0,0,0,.16-1.11,2.3,2.3,0,0,0-.65-1.75,2.61,2.61,0,0,0-1.87-.61,5.77,5.77,0,0,0-2,.38l-1.71-.48,1.22-7.14h7.28v1.16a1.53,1.53,0,0,1-.08.52,1,1,0,0,1-.28.41,1.32,1.32,0,0,1-.5.27,2.56,2.56,0,0,1-.75.09h-3.75Z" style="fill: #fff"/>
          </g>
        </g>
        <g>
          <circle cx="118.09" cy="487.76" r="114" style="fill: none;stroke: #fff;stroke-width: 2px"/>
          <circle id="r15" cx="118.09" cy="487.76" r="114" style="fill: #fff;stroke: #fff;stroke-width: 2px"/>
          <g style="opacity: 0.5;isolation: isolate">
            <circle cx="118.09" cy="487.76" r="88" style="fill: none;stroke: #c0392b;opacity: 0.5;isolation: isolate"/>
          </g>
        </g>
        <g style="isolation: isolate">
          <g style="isolation: isolate">
            <path d="M100.79,357.14a1,1,0,0,1,.71.25.88.88,0,0,1,.25.66v1.62H91.69v-.9a1.67,1.67,0,0,1,.11-.56,1.45,1.45,0,0,1,.37-.55l4.3-4.31q.55-.55,1-1.05a7.18,7.18,0,0,0,.7-1,4.26,4.26,0,0,0,.42-1,3.87,3.87,0,0,0,.14-1,2,2,0,0,0-.5-1.47,1.9,1.9,0,0,0-1.41-.5,2.26,2.26,0,0,0-.73.11,2.14,2.14,0,0,0-.6.32,2.11,2.11,0,0,0-.46.47,1.92,1.92,0,0,0-.28.59,1.15,1.15,0,0,1-.49.67,1.37,1.37,0,0,1-.86.08l-1.46-.26a5.56,5.56,0,0,1,.6-1.86,4.41,4.41,0,0,1,1.1-1.33,4.56,4.56,0,0,1,1.51-.79A6.11,6.11,0,0,1,97,345a5.5,5.5,0,0,1,1.88.3,4.3,4.3,0,0,1,1.44.85,3.75,3.75,0,0,1,.93,1.31,4.28,4.28,0,0,1,.33,1.7,4.6,4.6,0,0,1-.23,1.48,5.86,5.86,0,0,1-.62,1.29,9.45,9.45,0,0,1-.92,1.19q-.52.58-1.1,1.17l-3.08,3.15a8.87,8.87,0,0,1,1-.24,5.63,5.63,0,0,1,.94-.08Z" style="fill: #fff"/>
            <path d="M113.75,352.41a11.82,11.82,0,0,1-.41,3.3,6.8,6.8,0,0,1-1.13,2.32,4.54,4.54,0,0,1-1.71,1.36,5.28,5.28,0,0,1-4.24,0,4.46,4.46,0,0,1-1.69-1.36,6.84,6.84,0,0,1-1.12-2.32,13.63,13.63,0,0,1,0-6.59,6.84,6.84,0,0,1,1.12-2.31,4.45,4.45,0,0,1,1.69-1.36,5.28,5.28,0,0,1,4.24,0,4.53,4.53,0,0,1,1.71,1.36,6.8,6.8,0,0,1,1.13,2.31A11.77,11.77,0,0,1,113.75,352.41Zm-2.85,0a12.4,12.4,0,0,0-.21-2.54,5.22,5.22,0,0,0-.56-1.58,1.95,1.95,0,0,0-1.74-1,2,2,0,0,0-.92.23,2.06,2.06,0,0,0-.79.81,5.24,5.24,0,0,0-.56,1.58,15.53,15.53,0,0,0,0,5.09,5.24,5.24,0,0,0,.56,1.58,2,2,0,0,0,.79.81,2,2,0,0,0,.92.23,2,2,0,0,0,1.74-1,5.22,5.22,0,0,0,.56-1.58A12.46,12.46,0,0,0,110.9,352.41Z" style="fill: #fff"/>
            <path d="M124.62,357.64v2h-8.14v-2h2.88V349.7c0-.17,0-.35,0-.53s0-.36,0-.55l-1.9,1.58a1,1,0,0,1-.39.19.86.86,0,0,1-.36,0,.84.84,0,0,1-.3-.12.81.81,0,0,1-.2-.18l-.87-1.17,4.46-3.78h2.27v12.49Z" style="fill: #fff"/>
            <path d="M131.22,350.37l-.44.53a4,4,0,0,1,.82-.26,4.78,4.78,0,0,1,1-.09,4.73,4.73,0,0,1,1.58.27,3.92,3.92,0,0,1,2.33,2.17,4.65,4.65,0,0,1,.36,1.92,4.91,4.91,0,0,1-.37,1.91,4.69,4.69,0,0,1-1.06,1.57,5,5,0,0,1-1.64,1.06,5.56,5.56,0,0,1-2.12.39,5.71,5.71,0,0,1-2.13-.37,4.54,4.54,0,0,1-1.6-1.05,4.6,4.6,0,0,1-1-1.62,6,6,0,0,1,.06-4.22,9.41,9.41,0,0,1,1.27-2.22l3.37-4.54a1.63,1.63,0,0,1,.59-.45,2,2,0,0,1,.89-.19h2.45Zm.36,7.24a2.59,2.59,0,0,0,1-.19,2.33,2.33,0,0,0,.79-.53,2.51,2.51,0,0,0,.52-.79,2.55,2.55,0,0,0,.19-1,2.94,2.94,0,0,0-.18-1.06,2.15,2.15,0,0,0-1.3-1.29,2.92,2.92,0,0,0-1-.17,2.48,2.48,0,0,0-1,.18,2.19,2.19,0,0,0-.75.52,2.39,2.39,0,0,0-.49.79,2.82,2.82,0,0,0-.17,1,3.36,3.36,0,0,0,.15,1,2.14,2.14,0,0,0,.45.79,2,2,0,0,0,.74.51A2.77,2.77,0,0,0,131.58,357.61Z" style="fill: #fff"/>
          </g>
        </g>
        <g>
          <circle cx="403.34" cy="310.38" r="132" style="fill: none;stroke: #fff;stroke-width: 2px"/>
          <circle id="r16" cx="403.34" cy="310.38" r="132" style="fill: #fff;stroke: #fff;stroke-width: 2px"/>
          <circle cx="403.34" cy="310.38" r="110" style="fill: none;stroke: #c0392b;opacity: 0.5;isolation: isolate"/>
        </g>
        <g style="isolation: isolate">
          <path d="M96.7,122.76a5.09,5.09,0,0,1-3.9-1.44,5.65,5.65,0,0,1-1.35-4v-.75h3q0,.7,0,1.2a5.93,5.93,0,0,0,.18,1,2.35,2.35,0,0,0,.37.83,1.72,1.72,0,0,0,.66.51,2.65,2.65,0,0,0,2,0,1.72,1.72,0,0,0,.66-.51,2.35,2.35,0,0,0,.37-.83,5.93,5.93,0,0,0,.18-1q0-.5,0-1.2a4.72,4.72,0,0,0-.7-2.78,2.64,2.64,0,0,0-2.3-1v-3a2.51,2.51,0,0,0,3-3,4.15,4.15,0,0,0-.49-2.24,1.94,1.94,0,0,0-1.76-.76,2.34,2.34,0,0,0-1,.2,1.72,1.72,0,0,0-.66.51,2.35,2.35,0,0,0-.37.83,5.93,5.93,0,0,0-.18,1q0,.5,0,1.2h-3v-.75a5.64,5.64,0,0,1,1.35-4,6,6,0,0,1,7.8,0,5.65,5.65,0,0,1,1.35,4,5,5,0,0,1-.8,2.92A4.06,4.06,0,0,1,99,111.3a3.93,3.93,0,0,1,2.23,1.84,6.82,6.82,0,0,1,.77,3.41,7.32,7.32,0,0,1-1.27,4.58A4.73,4.73,0,0,1,96.7,122.76Z" style="fill: #c0392b"/>
          <path d="M108.74,122.76a5.09,5.09,0,0,1-3.9-1.44,5.65,5.65,0,0,1-1.35-4v-.75h3q0,.7,0,1.2a5.93,5.93,0,0,0,.18,1,2.35,2.35,0,0,0,.37.83,1.72,1.72,0,0,0,.66.51,2.65,2.65,0,0,0,2,0,1.72,1.72,0,0,0,.66-.51,2.35,2.35,0,0,0,.37-.83,5.93,5.93,0,0,0,.18-1q0-.5,0-1.2a4.72,4.72,0,0,0-.7-2.78,2.64,2.64,0,0,0-2.3-1v-3a2.51,2.51,0,0,0,3-3,4.15,4.15,0,0,0-.49-2.24,1.94,1.94,0,0,0-1.76-.76,2.34,2.34,0,0,0-1,.2,1.72,1.72,0,0,0-.66.51,2.35,2.35,0,0,0-.37.83,5.93,5.93,0,0,0-.18,1q0,.5,0,1.2h-3v-.75a5.64,5.64,0,0,1,1.35-4,6,6,0,0,1,7.8,0,5.65,5.65,0,0,1,1.35,4,5,5,0,0,1-.8,2.92,4.06,4.06,0,0,1-2.2,1.58,3.93,3.93,0,0,1,2.23,1.84,6.82,6.82,0,0,1,.77,3.41,7.32,7.32,0,0,1-1.27,4.58A4.73,4.73,0,0,1,108.74,122.76Z" style="fill: #c0392b"/>
          <path d="M121,122.76a5.09,5.09,0,0,1-2.91-.81,4.76,4.76,0,0,1-1.77-2.19,8.39,8.39,0,0,1-.57-3.22v-9A7.15,7.15,0,0,1,117,103a5.49,5.49,0,0,1,7.87,0,7.13,7.13,0,0,1,1.32,4.55v9a7.07,7.07,0,0,1-1.34,4.52A4.69,4.69,0,0,1,121,122.76Zm0-2.46q2.25,0,2.25-3.75v-9q0-.63,0-1.13a5.52,5.52,0,0,0-.19-1,2.81,2.81,0,0,0-.39-.85A1.77,1.77,0,0,0,122,104a2.35,2.35,0,0,0-1.95,0,1.77,1.77,0,0,0-.65.55,2.81,2.81,0,0,0-.39.85,5.52,5.52,0,0,0-.19,1q0,.5,0,1.13v9a8.61,8.61,0,0,0,.1,1.36,5,5,0,0,0,.34,1.18,2,2,0,0,0,.7.88A1.88,1.88,0,0,0,121,120.3Z" style="fill: #c0392b"/>
          <path d="M129,125.55l-.75-1.5a1.58,1.58,0,0,0,1.15-.35,1.6,1.6,0,0,0,.35-1.15h-1.5v-3h3q0,1.69,0,2.84,0,.63-.07,1.07a4.2,4.2,0,0,1-.19.86,1.82,1.82,0,0,1-.37.68,1.66,1.66,0,0,1-.63.4A2.65,2.65,0,0,1,129,125.55Z" style="fill: #c0392b"/>
          <path d="M138.51,122.76a5.09,5.09,0,0,1-2.91-.81,4.76,4.76,0,0,1-1.77-2.19,8.39,8.39,0,0,1-.57-3.22v-9a7.15,7.15,0,0,1,1.31-4.55,5.49,5.49,0,0,1,7.87,0,7.13,7.13,0,0,1,1.32,4.55v9a7.07,7.07,0,0,1-1.34,4.52A4.69,4.69,0,0,1,138.51,122.76Zm0-2.46q2.25,0,2.25-3.75v-9q0-.63,0-1.13a5.52,5.52,0,0,0-.19-1,2.81,2.81,0,0,0-.39-.85,1.77,1.77,0,0,0-.65-.55,2.35,2.35,0,0,0-1.95,0,1.77,1.77,0,0,0-.65.55,2.81,2.81,0,0,0-.39.85,5.52,5.52,0,0,0-.19,1q0,.5,0,1.13v9a8.61,8.61,0,0,0,.1,1.36,5,5,0,0,0,.34,1.18,2,2,0,0,0,.7.88A1.88,1.88,0,0,0,138.51,120.3Z" style="fill: #c0392b"/>
          <path d="M151.26,122.76a5.09,5.09,0,0,1-2.91-.81,4.76,4.76,0,0,1-1.77-2.19,8.39,8.39,0,0,1-.57-3.22v-9a7.15,7.15,0,0,1,1.31-4.55,5.49,5.49,0,0,1,7.87,0,7.13,7.13,0,0,1,1.32,4.55v9a7.07,7.07,0,0,1-1.34,4.52A4.69,4.69,0,0,1,151.26,122.76Zm0-2.46q2.25,0,2.25-3.75v-9q0-.63,0-1.13a5.52,5.52,0,0,0-.19-1,2.81,2.81,0,0,0-.39-.85,1.77,1.77,0,0,0-.65-.55,2.35,2.35,0,0,0-1.95,0,1.77,1.77,0,0,0-.65.55,2.81,2.81,0,0,0-.39.85,5.52,5.52,0,0,0-.19,1q0,.5,0,1.13v9a8.61,8.61,0,0,0,.1,1.36,5,5,0,0,0,.34,1.18,2,2,0,0,0,.7.88A1.88,1.88,0,0,0,151.26,120.3Z" style="fill: #c0392b"/>
          <path d="M164,122.76a5.09,5.09,0,0,1-2.91-.81,4.76,4.76,0,0,1-1.77-2.19,8.39,8.39,0,0,1-.57-3.22v-9a7.15,7.15,0,0,1,1.31-4.55,5.49,5.49,0,0,1,7.87,0,7.13,7.13,0,0,1,1.32,4.55v9a7.07,7.07,0,0,1-1.34,4.52A4.69,4.69,0,0,1,164,122.76Zm0-2.46q2.25,0,2.25-3.75v-9q0-.63,0-1.13a5.52,5.52,0,0,0-.19-1,2.81,2.81,0,0,0-.39-.85A1.77,1.77,0,0,0,165,104a2.35,2.35,0,0,0-1.95,0,1.77,1.77,0,0,0-.65.55,2.81,2.81,0,0,0-.39.85,5.52,5.52,0,0,0-.19,1q0,.5,0,1.13v9a8.61,8.61,0,0,0,.1,1.36,5,5,0,0,0,.34,1.18,2,2,0,0,0,.7.88A1.88,1.88,0,0,0,164,120.3Z" style="fill: #c0392b"/>
        </g>
        <g style="isolation: isolate">
          <path d="M71.82,499.23A7.64,7.64,0,0,1,66,497.07a8.48,8.48,0,0,1-2-6v-1.12h4.5q0,1.05.06,1.8a8.9,8.9,0,0,0,.26,1.52,3.53,3.53,0,0,0,.55,1.24,2.58,2.58,0,0,0,1,.76,4,4,0,0,0,3,0,2.58,2.58,0,0,0,1-.76,3.53,3.53,0,0,0,.55-1.24,8.9,8.9,0,0,0,.26-1.52q.06-.75.06-1.8a7.08,7.08,0,0,0-1-4.17,4,4,0,0,0-3.45-1.46v-4.5a4.85,4.85,0,0,0,3.48-1,4.82,4.82,0,0,0,1-3.49,6.22,6.22,0,0,0-.74-3.37,2.91,2.91,0,0,0-2.64-1.13,3.51,3.51,0,0,0-1.51.3,2.58,2.58,0,0,0-1,.76,3.53,3.53,0,0,0-.55,1.24,8.9,8.9,0,0,0-.26,1.52q-.06.75-.06,1.8h-4.5v-1.12a8.46,8.46,0,0,1,2-6,7.63,7.63,0,0,1,5.84-2.16,7.64,7.64,0,0,1,5.85,2.15,8.48,8.48,0,0,1,2,6,7.5,7.5,0,0,1-1.2,4.39A6.08,6.08,0,0,1,75.2,482a5.89,5.89,0,0,1,3.35,2.76,10.23,10.23,0,0,1,1.15,5.12,11,11,0,0,1-1.9,6.87Q75.9,499.23,71.82,499.23Z" style="fill: #c0392b"/>
          <path d="M90.47,499.23a7.62,7.62,0,0,1-2.94-.54,6.41,6.41,0,0,1-2.22-1.49,8.51,8.51,0,0,1-1.53-2.28,11.61,11.61,0,0,1-.91-2.87,18.12,18.12,0,0,1-.28-3.26V478.66a26,26,0,0,1,.23-3.58,14.74,14.74,0,0,1,.79-3.15,8.74,8.74,0,0,1,1.44-2.56,6.14,6.14,0,0,1,2.26-1.67,8.78,8.78,0,0,1,9,1.54,8.43,8.43,0,0,1,2,6h-4.5a6.28,6.28,0,0,0-.73-3.37,2.91,2.91,0,0,0-2.65-1.12q-3.37,0-3.37,6.75V482a4.76,4.76,0,0,1,4.5-2.25,7.31,7.31,0,0,1,3.24.66,4.87,4.87,0,0,1,2.09,1.92A9.26,9.26,0,0,1,98,485.18a19.22,19.22,0,0,1-.11,7.66,11,11,0,0,1-1.35,3.3,6.35,6.35,0,0,1-2.46,2.28A7.64,7.64,0,0,1,90.47,499.23Zm-1.65-4.17a3.11,3.11,0,0,0,3.3,0,3,3,0,0,0,1-1.32,7.83,7.83,0,0,0,.52-1.78,12.37,12.37,0,0,0,.16-2v-1q0-.34,0-1t-.07-1q0-.34-.12-.87a3.51,3.51,0,0,0-.2-.82q-.12-.29-.31-.69a1.77,1.77,0,0,0-.43-.61,5.86,5.86,0,0,0-.56-.42,2.08,2.08,0,0,0-.74-.3,4.48,4.48,0,0,0-.91-.09,3.7,3.7,0,0,0-3.37,2.25v4.5a12.33,12.33,0,0,0,.16,2.06,7.85,7.85,0,0,0,.52,1.78A3,3,0,0,0,88.82,495.06Z" style="fill: #c0392b"/>
          <path d="M100.92,498.91v-4.5l7.89-11.25.62-.85.63-.9.54-.84a8.59,8.59,0,0,0,.54-.93q.15-.33.4-.92a6.33,6.33,0,0,0,.36-1.06q.11-.47.19-1.09a9.13,9.13,0,0,0,.09-1.27,5.64,5.64,0,0,0-.87-3.19,3.07,3.07,0,0,0-4.16-.83,3,3,0,0,0-1,1.32,7.83,7.83,0,0,0-.52,1.78,12.37,12.37,0,0,0-.16,2v1.13h-4.5v-1.12a11,11,0,0,1,1.9-6.87q1.9-2.44,6-2.44a7.64,7.64,0,0,1,5.85,2.15,8.48,8.48,0,0,1,2,6,13.8,13.8,0,0,1-.25,2.72,10.36,10.36,0,0,1-.81,2.43,20.81,20.81,0,0,1-1,1.92q-.47.76-1.29,1.93l-7.87,10.13h11.25v4.5Z" style="fill: #c0392b"/>
          <path d="M120.06,503.41l-1.12-2.25a2.36,2.36,0,0,0,1.73-.53,2.39,2.39,0,0,0,.52-1.72h-2.25v-4.5h4.5q0,2.53-.05,4.25,0,.95-.11,1.6a6.29,6.29,0,0,1-.28,1.29,2.72,2.72,0,0,1-.56,1,2.49,2.49,0,0,1-.94.61A4,4,0,0,1,120.06,503.41Z" style="fill: #c0392b"/>
          <path d="M129.27,498.91V474.16h-3.37v-3.37q3.39-1.21,4.5-3.37h3.38v31.5Z" style="fill: #c0392b"/>
          <path d="M145.58,499.23a7.64,7.64,0,0,1-4.37-1.21,7.14,7.14,0,0,1-2.65-3.28,12.58,12.58,0,0,1-.85-4.83v-13.5a10.73,10.73,0,0,1,2-6.83,8.24,8.24,0,0,1,11.8,0,10.7,10.7,0,0,1,2,6.82v13.5a10.6,10.6,0,0,1-2,6.78A7,7,0,0,1,145.58,499.23Zm0-3.69q3.38,0,3.38-5.62v-13.5q0-.95-.07-1.7a8.28,8.28,0,0,0-.29-1.51,4.21,4.21,0,0,0-.58-1.27,2.65,2.65,0,0,0-1-.83,3.52,3.52,0,0,0-2.92,0,2.65,2.65,0,0,0-1,.83,4.21,4.21,0,0,0-.58,1.27,8.28,8.28,0,0,0-.29,1.51q-.07.75-.07,1.7v13.5a12.91,12.91,0,0,0,.15,2,7.54,7.54,0,0,0,.51,1.78,3,3,0,0,0,1,1.33A2.82,2.82,0,0,0,145.58,495.53Z" style="fill: #c0392b"/>
          <path d="M164.55,499.23q-4.2,0-6-2.36t-1.79-7h4.5v.7q0,.9.06,1.56a8.26,8.26,0,0,0,.25,1.35,3.23,3.23,0,0,0,.51,1.13,2.47,2.47,0,0,0,.89.71,3,3,0,0,0,1.34.28,3.9,3.9,0,0,0,1.12-.15,3.66,3.66,0,0,0,.86-.37,2.09,2.09,0,0,0,.64-.64,8,8,0,0,0,.47-.78,3.84,3.84,0,0,0,.31-1q.12-.63.18-1.06t.1-1.21q0-.78,0-1.21v-1.87q0-.76,0-1.29t-.1-1.16a5.58,5.58,0,0,0-.22-1,4.5,4.5,0,0,0-.39-.84,2.07,2.07,0,0,0-.6-.67,2.92,2.92,0,0,0-.87-.4,4.22,4.22,0,0,0-1.17-.15,3,3,0,0,0-2.07.77,4.6,4.6,0,0,0-1.28,1.83h-3.83v-17h13.92v4.5h-9.84l-.28,7.63a8.67,8.67,0,0,1,4.5-1.12,7.25,7.25,0,0,1,2.7.47,5.24,5.24,0,0,1,1.92,1.27,6.42,6.42,0,0,1,1.24,2,11.19,11.19,0,0,1,.69,2.53,20,20,0,0,1,.2,3,28.75,28.75,0,0,1-.21,3.66,14.86,14.86,0,0,1-.76,3.15,8,8,0,0,1-1.42,2.53,6.18,6.18,0,0,1-2.29,1.63A8.26,8.26,0,0,1,164.55,499.23Z" style="fill: #c0392b"/>
        </g>
        <g style="isolation: isolate">
          <g style="isolation: isolate">
            <path d="M337.59,329V315.48h-15v-8.35l13.13-30.7h9.38v32h5.8v7.09h-5.8V329Zm-7.5-20.57h7.5V285.83Z" style="fill: #c0392b"/>
            <path d="M367.68,329.48q-7,0-10-3.94t-3-11.59h7.5v1.17q0,1.49.1,2.59a13.76,13.76,0,0,0,.41,2.26,5.38,5.38,0,0,0,.85,1.88A4.12,4.12,0,0,0,365,323a4.92,4.92,0,0,0,2.23.47,6.5,6.5,0,0,0,1.86-.25,6.1,6.1,0,0,0,1.44-.62,3.49,3.49,0,0,0,1.07-1.07,13.46,13.46,0,0,0,.78-1.3,6.41,6.41,0,0,0,.51-1.66q.2-1.05.31-1.77t.16-2q.06-1.3.06-2v-3.12q0-1.26,0-2.15t-.16-1.93a9.3,9.3,0,0,0-.37-1.74,7.53,7.53,0,0,0-.64-1.41,3.46,3.46,0,0,0-1-1.11,4.87,4.87,0,0,0-1.45-.66,7,7,0,0,0-1.95-.25,5.06,5.06,0,0,0-3.46,1.29,7.67,7.67,0,0,0-2.14,3h-6.39v-28.3h23.2V284H362.67l-.47,12.71a14.44,14.44,0,0,1,7.5-1.87,12.09,12.09,0,0,1,4.5.78,8.74,8.74,0,0,1,3.21,2.12,10.72,10.72,0,0,1,2.07,3.34,18.65,18.65,0,0,1,1.14,4.22,33.32,33.32,0,0,1,.34,5,47.92,47.92,0,0,1-.35,6.09,24.79,24.79,0,0,1-1.26,5.24,13.29,13.29,0,0,1-2.37,4.22,10.31,10.31,0,0,1-3.82,2.71A13.77,13.77,0,0,1,367.68,329.48Z" style="fill: #c0392b"/>
            <path d="M388.34,329l9.61-46.26H384.09v-6.24h21v3.6L395.54,329Z" style="fill: #c0392b"/>
            <path d="M411.07,336.46l-1.87-3.75a3.94,3.94,0,0,0,2.89-.88,4,4,0,0,0,.86-2.87H409.2v-7.5h7.5q0,4.22-.09,7.09-.06,1.58-.18,2.67a10.49,10.49,0,0,1-.47,2.15,4.54,4.54,0,0,1-.94,1.7,4.15,4.15,0,0,1-1.57,1A6.62,6.62,0,0,1,411.07,336.46Z" style="fill: #c0392b"/>
            <path d="M434.33,329.48q-6.39,0-9.76-3.59t-3.37-10.06V314h7.5q0,1.76.1,3a14.83,14.83,0,0,0,.44,2.53,5.86,5.86,0,0,0,.92,2.07,4.31,4.31,0,0,0,1.64,1.27,6.62,6.62,0,0,0,5,0,4.31,4.31,0,0,0,1.64-1.27,5.88,5.88,0,0,0,.92-2.07,14.92,14.92,0,0,0,.44-2.53q.1-1.25.1-3,0-4.51-1.74-6.94t-5.76-2.43v-7.5q4.1,0,5.8-1.68t1.7-5.82a10.37,10.37,0,0,0-1.23-5.61q-1.23-1.89-4.39-1.89a5.85,5.85,0,0,0-2.52.5,4.31,4.31,0,0,0-1.64,1.27,5.86,5.86,0,0,0-.92,2.07,14.83,14.83,0,0,0-.44,2.53q-.1,1.25-.1,3h-7.5v-1.87q0-6.45,3.38-10t9.74-3.6q6.39,0,9.76,3.59t3.37,10.06a12.49,12.49,0,0,1-2,7.31,10.14,10.14,0,0,1-5.51,3.94,9.82,9.82,0,0,1,5.58,4.6,17.06,17.06,0,0,1,1.92,8.53q0,7.38-3.16,11.46T434.33,329.48Z" style="fill: #c0392b"/>
            <path d="M456.51,329V287.71h-5.62v-5.62q5.65-2,7.5-5.62H464V329Z" style="fill: #c0392b"/>
            <path d="M475.26,329V287.71h-5.62v-5.62q5.65-2,7.5-5.62h5.63V329Z" style="fill: #c0392b"/>
          </g>
        </g>
      </g>
    </g>
  </g>
</svg>
